<svg xmlns="http://www.w3.org/2000/svg" width="36" height="31" viewBox="0 0 36 31">
  <g fill="#FFF" fill-rule="evenodd">
    <path d="M5.06327476,4.70069386 L5.06327476,2.74455596 C5.06327476,1.99470309 4.61174121,1.50566862 3.83768371,1.50566862 C3.45065495,1.50566862 3.0313738,1.63607781 2.74110224,2.05990769 C2.51533546,1.70128241 2.1928115,1.50566862 1.70902556,1.50566862 C1.3865016,1.50566862 1.06397764,1.60347551 0.805958466,1.9621008 L0.805958466,1.57087322 L0.128658147,1.57087322 L0.128658147,4.70069386 L0.805958466,4.70069386 L0.805958466,2.97277205 C0.805958466,2.41853297 1.09623003,2.15771459 1.54776358,2.15771459 C1.99929712,2.15771459 2.2250639,2.45113527 2.2250639,2.97277205 L2.2250639,4.70069386 L2.90236422,4.70069386 L2.90236422,2.97277205 C2.90236422,2.41853297 3.22488818,2.15771459 3.64416933,2.15771459 C4.09570288,2.15771459 4.32146965,2.45113527 4.32146965,2.97277205 L4.32146965,4.70069386 L5.06327476,4.70069386 L5.06327476,4.70069386 Z M15.09377,1.57087322 L13.9971885,1.57087322 L13.9971885,0.625406561 L13.3198882,0.625406561 L13.3198882,1.57087322 L12.7070927,1.57087322 L12.7070927,2.19031689 L13.3198882,2.19031689 L13.3198882,3.62481802 C13.3198882,4.34206858 13.6101597,4.76589846 14.3842173,4.76589846 C14.6744888,4.76589846 14.9970128,4.66809157 15.2227796,4.53768237 L15.0292652,3.950841 C14.8357508,4.08125019 14.609984,4.11385249 14.448722,4.11385249 C14.1261981,4.11385249 13.9971885,3.9182387 13.9971885,3.59221572 L13.9971885,2.19031689 L15.09377,2.19031689 L15.09377,1.57087322 L15.09377,1.57087322 Z M20.8346965,1.50566862 C20.4476677,1.50566862 20.1896486,1.70128241 20.0283866,1.9621008 L20.0283866,1.57087322 L19.3510863,1.57087322 L19.3510863,4.70069386 L20.0283866,4.70069386 L20.0283866,2.94016975 C20.0283866,2.41853297 20.2541534,2.12511229 20.6734345,2.12511229 C20.8024441,2.12511229 20.9637061,2.15771459 21.0927157,2.19031689 L21.28623,1.53827092 C21.1572204,1.50566862 20.9637061,1.50566862 20.8346965,1.50566862 L20.8346965,1.50566862 L20.8346965,1.50566862 Z M12.1588019,1.8316916 C11.836278,1.60347551 11.3847444,1.50566862 10.9009585,1.50566862 C10.126901,1.50566862 9.61086262,1.8968962 9.61086262,2.51633987 C9.61086262,3.03797664 9.99789137,3.33139733 10.6751917,3.42920423 L10.9977157,3.46180652 C11.352492,3.52701112 11.5460064,3.62481802 11.5460064,3.78782951 C11.5460064,4.0160456 11.2879872,4.17905709 10.8364537,4.17905709 C10.3849201,4.17905709 10.0301438,4.0160456 9.804377,3.8530341 L9.48185304,4.37467088 C9.83662939,4.63548927 10.3204153,4.76589846 10.8042013,4.76589846 C11.7072684,4.76589846 12.2233067,4.34206858 12.2233067,3.75522721 C12.2233067,3.20098814 11.8040256,2.90756745 11.1589776,2.80976056 L10.8364537,2.77715826 C10.5461821,2.74455596 10.3204153,2.67935136 10.3204153,2.48373757 C10.3204153,2.25552148 10.5461821,2.12511229 10.9009585,2.12511229 C11.2879872,2.12511229 11.675016,2.28812378 11.8685304,2.38593068 L12.1588019,1.8316916 L12.1588019,1.8316916 Z M30.155639,1.50566862 C29.7686102,1.50566862 29.5105911,1.70128241 29.3493291,1.9621008 L29.3493291,1.57087322 L28.6720288,1.57087322 L28.6720288,4.70069386 L29.3493291,4.70069386 L29.3493291,2.94016975 C29.3493291,2.41853297 29.5750958,2.12511229 29.994377,2.12511229 C30.1233866,2.12511229 30.2846486,2.15771459 30.4136581,2.19031689 L30.6071725,1.53827092 C30.4781629,1.50566862 30.2846486,1.50566862 30.155639,1.50566862 L30.155639,1.50566862 L30.155639,1.50566862 Z M21.5119968,3.13578354 C21.5119968,4.08125019 22.1570447,4.76589846 23.156869,4.76589846 C23.6084026,4.76589846 23.9309265,4.66809157 24.2534505,4.40727318 L23.9309265,3.8530341 C23.6729073,4.0486479 23.4148882,4.14645479 23.1246166,4.14645479 C22.5763259,4.14645479 22.1892971,3.75522721 22.1892971,3.13578354 C22.1892971,2.54894217 22.5763259,2.15771459 23.1246166,2.12511229 C23.4148882,2.12511229 23.6729073,2.22291918 23.9309265,2.41853297 L24.2534505,1.8642939 C23.9309265,1.60347551 23.6084026,1.50566862 23.156869,1.50566862 C22.1570447,1.50566862 21.5119968,2.19031689 21.5119968,3.13578354 L21.5119968,3.13578354 L21.5119968,3.13578354 Z M27.7689617,3.13578354 L27.7689617,1.57087322 L27.0916613,1.57087322 L27.0916613,1.9621008 C26.8658946,1.66868011 26.5433706,1.50566862 26.1240895,1.50566862 C25.2532748,1.50566862 24.5759744,2.19031689 24.5759744,3.13578354 C24.5759744,4.08125019 25.2532748,4.76589846 26.1240895,4.76589846 C26.575623,4.76589846 26.898147,4.60288697 27.0916613,4.30946628 L27.0916613,4.70069386 L27.7689617,4.70069386 L27.7689617,3.13578354 L27.7689617,3.13578354 Z M25.2855272,3.13578354 C25.2855272,2.58154447 25.6403035,2.12511229 26.2208466,2.12511229 C26.7691374,2.12511229 27.1561661,2.54894217 27.1561661,3.13578354 C27.1561661,3.69002261 26.7691374,4.14645479 26.2208466,4.14645479 C25.6403035,4.11385249 25.2855272,3.69002261 25.2855272,3.13578354 L25.2855272,3.13578354 L25.2855272,3.13578354 Z M17.1901757,1.50566862 C16.2871086,1.50566862 15.6420607,2.15771459 15.6420607,3.13578354 C15.6420607,4.11385249 16.2871086,4.76589846 17.2224281,4.76589846 C17.6739617,4.76589846 18.1254952,4.63548927 18.4802716,4.34206858 L18.1577476,3.8530341 C17.8997284,4.0486479 17.5772045,4.17905709 17.2546805,4.17905709 C16.8353994,4.17905709 16.4161182,3.9834433 16.319361,3.42920423 L18.6092812,3.42920423 L18.6092812,3.16838584 C18.6415335,2.15771459 18.0609904,1.50566862 17.1901757,1.50566862 L17.1901757,1.50566862 L17.1901757,1.50566862 Z M17.1901757,2.09250999 C17.6094569,2.09250999 17.8997284,2.35332838 17.9642332,2.84236285 L16.3516134,2.84236285 C16.4161182,2.41853297 16.7063898,2.09250999 17.1901757,2.09250999 L17.1901757,2.09250999 L17.1901757,2.09250999 Z M33.9936741,3.13578354 L33.9936741,0.331985875 L33.3163738,0.331985875 L33.3163738,1.9621008 C33.090607,1.66868011 32.7680831,1.50566862 32.3488019,1.50566862 C31.4779872,1.50566862 30.8006869,2.19031689 30.8006869,3.13578354 C30.8006869,4.08125019 31.4779872,4.76589846 32.3488019,4.76589846 C32.8003355,4.76589846 33.1228594,4.60288697 33.3163738,4.30946628 L33.3163738,4.70069386 L33.9936741,4.70069386 L33.9936741,3.13578354 L33.9936741,3.13578354 Z M31.5102396,3.13578354 C31.5102396,2.58154447 31.865016,2.12511229 32.4455591,2.12511229 C32.9938498,2.12511229 33.3808786,2.54894217 33.3808786,3.13578354 C33.3808786,3.69002261 32.9938498,4.14645479 32.4455591,4.14645479 C31.865016,4.11385249 31.5102396,3.69002261 31.5102396,3.13578354 L31.5102396,3.13578354 L31.5102396,3.13578354 Z M8.86905751,3.13578354 L8.86905751,1.57087322 L8.19175719,1.57087322 L8.19175719,1.9621008 C7.96599042,1.66868011 7.64346645,1.50566862 7.2241853,1.50566862 C6.35337061,1.50566862 5.67607029,2.19031689 5.67607029,3.13578354 C5.67607029,4.08125019 6.35337061,4.76589846 7.2241853,4.76589846 C7.67571885,4.76589846 7.99824281,4.60288697 8.19175719,4.30946628 L8.19175719,4.70069386 L8.86905751,4.70069386 L8.86905751,3.13578354 L8.86905751,3.13578354 Z M6.35337061,3.13578354 C6.35337061,2.58154447 6.70814696,2.12511229 7.2886901,2.12511229 C7.83698083,2.12511229 8.22400958,2.54894217 8.22400958,3.13578354 C8.22400958,3.69002261 7.83698083,4.14645479 7.2886901,4.14645479 C6.70814696,4.11385249 6.35337061,3.69002261 6.35337061,3.13578354 L6.35337061,3.13578354 Z" transform="translate(1 26)"/>
    <circle cx="11.5" cy="11.5" r="11.5" opacity=".705"/>
    <circle cx="24.5" cy="11.5" r="11.5" opacity=".817"/>
  </g>
</svg>
