<svg xmlns="http://www.w3.org/2000/svg" viewBox="0 0 81 18" class="_26FCt857_A" data-reactid="13"><path fill-rule="evenodd" fill="#FFF" d="M80.809 17.693h-3.165c-.255 0-.357-.109-.459-.291l-3.368-6.446h-3.079c-1.514 0-2.075.488-2.075 1.575v5.162h-3.028c-.272 0-.408-.147-.408-.436V1.231c0-.852.442-1.231 1.616-1.231h7.11c4.134 0 6.635 1.158 6.635 5.452 0 3.313-1.497 4.616-3.352 5.123l3.726 6.809c.068.108.068.309-.153.309zm-6.345-14.85h-5.801v5.36h5.801c2.16 0 2.637-.87 2.637-2.681 0-1.793-.477-2.679-2.637-2.679zm-15.369 11.97c.136 0 .187.072.136.218l-.902 2.371c-.085.201-.204.291-.459.291H46.183c-.902 0-1.241-.327-1.241-1.052V1.231c0-.852.442-1.231 1.615-1.231h12.538c.136 0 .187.072.136.217l-.902 2.372c-.085.2-.204.289-.459.289h-9.458v4.438h7.892c.137 0 .188.073.137.217l-.868 2.282c-.085.2-.204.289-.459.289h-4.627c-1.514 0-2.075.488-2.075 1.576v3.133h10.683zm-26.205 2.88h-8.709c-.902 0-1.242-.327-1.242-1.052V1.231c0-.852.442-1.231 1.616-1.231h7.076c3.097 0 6.09.579 6.09 4.49 0 1.683-.561 3.116-1.922 3.875 1.871.526 2.722 2.319 2.722 4.438 0 3.531-2.348 4.89-5.631 4.89zM31.886 2.806h-5.511V7.37h5.511c1.838 0 2.348-.744 2.348-2.281 0-1.542-.51-2.283-2.348-2.283zm.647 7.227H28.45c-1.514 0-2.075.487-2.075 1.574v3.278h6.158c1.956 0 2.501-.798 2.501-2.427 0-1.63-.545-2.425-2.501-2.425zM8.131 18.001C3.317 18.001 0 16.062 0 10.52V.434C0 .144.136 0 .408 0h3.114v10.359c0 3.313 1.377 4.689 4.609 4.689 3.233 0 4.611-1.376 4.611-4.689V.434c0-.29.136-.434.408-.434h3.113v10.52c0 5.542-3.317 7.481-8.132 7.481z"></path></svg>
