<svg xmlns="http://www.w3.org/2000/svg" width="40" height="40" fill="none"><path fill="#fff" d="M0 0h40v40H0V0z"/><path fill="red" d="M10 20.912c0-1.056.958-1.912 2.139-1.912h15.722c1.181 0 2.139.856 2.139 1.912v9.176C30 31.144 29.042 32 27.861 32H12.139C10.958 32 10 31.144 10 30.088v-9.176z"/><path fill="red" d="M31.535 18.423l-10.42-9.981a1.625 1.625 0 00-2.23 0l-10.42 9.98C7.472 19.374 8.175 21 9.58 21h20.84c1.404 0 2.108-1.626 1.115-2.577z"/><path fill="#FFC20E" d="M24 9.966c0-.534.47-.966 1.05-.966h1.9c.58 0 1.05.432 1.05.966v7.068c0 .534-.47.966-1.05.966h-1.9c-.58 0-1.05-.432-1.05-.966V9.966z" opacity=".95"/><path fill="#fff" d="M18 24.526c0-.29.236-.526.526-.526h2.948c.29 0 .526.236.526.526v2.948c0 .29-.236.526-.526.526h-2.948a.526.526 0 01-.526-.526v-2.948z"/></svg>