<svg xmlns="http://www.w3.org/2000/svg" width="40" height="40" fill="none"><path fill="#fff" d="M0 0h40v40H0V0z"/><path fill="#07DA9C" fill-rule="evenodd" d="M9.965 9C8.88 9 8 9.907 8 11.025v11.95C8 24.093 8.88 25 9.965 25h13.07C24.12 25 25 24.093 25 22.975v-11.95C25 9.907 24.12 9 23.035 9H9.965zm1.439 4a.404.404 0 00-.404.405v.405c0 .224.18.405.404.405h10.192A.404.404 0 0022 13.81v-.405a.404.404 0 00-.404-.405H11.404zm.014 2a.404.404 0 00-.404.405v.477c0 .224.18.405.404.405h5.178a.404.404 0 00.404-.405v-.477a.404.404 0 00-.404-.405h-5.178z" clip-rule="evenodd"/><path fill="#E0E0E0" d="M27.532 11.577a1.956 1.956 0 012.773 0l2.12 2.128a1.974 1.974 0 010 2.784L18.903 30.065a.391.391 0 01-.555 0l-4.339-4.356a.395.395 0 010-.557l13.524-13.575z"/><path fill="#333" fill-rule="evenodd" d="M20.025 19.112l4.606-4.623 4.894 4.912-4.606 4.624-4.894-4.913zm.942 8.88l-2.025 2.033a.391.391 0 01-.555 0l-4.34-4.356a.395.395 0 010-.557l2.026-2.033 4.894 4.913z" clip-rule="evenodd"/><path fill="#333" d="M13.882 32.77a.782.782 0 01-1.11 0l-1.542-1.55a.79.79 0 010-1.113l4.137-4.154a.391.391 0 01.555 0l2.098 2.106a.395.395 0 010 .557l-4.138 4.153z"/></svg>