<svg xmlns="http://www.w3.org/2000/svg" width="40" height="40" fill="none"><path fill="#fff" d="M0 0h40v40H0V0z"/><path fill="#FF0030" fill-rule="evenodd" d="M10.043 11A2.033 2.033 0 008 13.023v4.954C8 19.095 8.914 20 10.043 20h19.914A2.033 2.033 0 0032 17.977v-4.954A2.033 2.033 0 0029.957 11H10.043zm1.059 3c-.548 0-.994.372-.994.833v1.334c0 .46.446.833.994.833h18.013c.548 0 .993-.372.993-.833v-1.334c0-.46-.444-.833-.993-.833H11.102z" clip-rule="evenodd"/><path fill="#FC0" d="M12 14h16v14.988C28 30.1 27.126 31 26.049 31H13.95c-1.076 0-1.95-.9-1.95-2.012V14z" opacity=".97"/></svg>