<svg xmlns="http://www.w3.org/2000/svg" width="40" height="40" fill="none"><path fill="#fff" d="M0 0h40v40H0V0z"/><path fill="#FD9600" d="M8 14.752c0-.837.658-1.555 1.57-1.716l16.117-4.404c1.2-.208 2.313.619 2.313 1.716V23.74c0 .837-.658 1.555-1.57 1.716l-16.117 4.112C9.113 29.776 8 28.949 8 27.852v-13.1z"/><path fill="#FFC401" d="M8 14.753C8 13.785 8.881 13 9.967 13h20.066c1.086 0 1.967.785 1.967 1.753v13.494c0 .968-.881 1.753-1.967 1.753H9.967C8.881 30 8 29.215 8 28.247V14.753z"/><circle cx="29" cy="29" r="6" fill="#696BF7"/><path fill="#fff" fill-rule="evenodd" d="M29 26a.75.75 0 00-.75.75v1.5h-1.5a.75.75 0 000 1.5h1.5v1.5a.75.75 0 001.5 0v-1.5h1.5a.75.75 0 000-1.5h-1.5v-1.5A.75.75 0 0029 26z" clip-rule="evenodd"/></svg>