<svg xmlns="http://www.w3.org/2000/svg" width="40" height="40" fill="none"><path fill="#fff" d="M0 0h40v40H0V0z"/><path fill="#696BF7" d="M9.043 8a1.043 1.043 0 100 2.087h1.61l2.633 16.714.004.02c.027.15.065.294.114.431A2.5 2.5 0 1016.95 29h8.1a2.5 2.5 0 102.45-2v-.01H15.94c-.265 0-.531-.197-.594-.527l-.248-1.57h14.015c.656 0 1.217-.483 1.326-1.141l1.542-9.26c.14-.836-.494-1.599-1.327-1.599H13.208l-.633-4.012A1.044 1.044 0 0011.545 8H9.043z"/><path fill="#FFC401" fill-rule="evenodd" d="M21.971 9.002l-.001.002-4.107.569a1 1 0 00-.863.99v4.685a.9.9 0 00.127.472 14.127 14.127 0 002.211 2.75c1.378 1.328 2.435 1.914 2.63 2.017.002.001.003.003.003.006 0 .005.006.009.01.006h.002a.008.008 0 01.007 0h.001c.004.002.009 0 .009-.006 0-.002 0-.004.003-.005.195-.102 1.258-.687 2.645-2.017a14.143 14.143 0 002.224-2.75.906.906 0 00.128-.473v-4.683a1 1 0 00-.863-.99l-4.135-.57A.002.002 0 0122 9.002.002.002 0 0021.997 9l-.013.002h-.003L21.973 9l-.002.001z" clip-rule="evenodd"/></svg>