<svg xmlns="http://www.w3.org/2000/svg" width="40" height="40" fill="none"><path fill="#fff" d="M0 0h40v40H0V0z"/><path fill="#24CAFE" d="M12 8.462C12 7.102 13.116 6 14.493 6h11.013C26.884 6 28 7.102 28 8.462v23.076C28 32.898 26.884 34 25.506 34H14.493C13.116 34 12 32.898 12 31.538V8.462z"/><path fill="#00ACE2" d="M17 6h6v1c0 .552-.432 1-.964 1h-4.072C17.432 8 17 7.552 17 7V6z"/><path fill="#696BF7" d="M6 13.156C6 11.966 6.943 11 8.105 11h23.79c1.162 0 2.105.965 2.105 2.156v13.688c0 1.19-.943 2.156-2.105 2.156H8.105C6.943 29 6 28.035 6 26.844V13.156z" opacity=".95"/><path fill="#C4C4C4" d="M19.371 15.043L24.674 11h2.823v8.881l-7.193 4.738 8.693-2.812V16h2v9.496H19.544c-1.169 0-1.292-1.157-1.292-1.157l-.002-7.354c0-1.194 1.121-1.942 1.121-1.942z" opacity=".2"/></svg>