<svg xmlns="http://www.w3.org/2000/svg" width="40" height="40" fill="none"><path fill="#fff" d="M0 0h40v40H0V0z"/><circle cx="20" cy="20" r="14" fill="#696BF7"/><path fill="url(#bonuses__paint0_linear)" d="M23.726 19.414c-.828-.601-2.006-.886-3.567-.886H17.42v-2.66h6.625v-1.994H20.51V11.5h-1.911v2.374H15v12.157h3.599V28.5h1.91v-2.47a8.726 8.726 0 001.625-.22c.605-.16 1.114-.38 1.528-.697a3.3 3.3 0 00.988-1.203c.223-.475.35-1.077.35-1.741 0-1.235-.446-2.153-1.274-2.755zm-1.847 4.21c-.414.254-1.02.38-1.784.38H17.42v-3.45h2.74c1.592 0 2.356.57 2.356 1.678 0 .665-.191 1.14-.637 1.393z"/><circle cx="29" cy="11" r="6" fill="#FC0" opacity=".96"/><path fill="#fff" d="M30.446 10.28a.31.31 0 01-.394-.382l.407-1.345c.122-.402-.38-.696-.671-.393l-2.563 2.66c-.214.221.014.58.306.482a.294.294 0 01.378.357l-.478 1.76c-.11.409.406.687.686.37l2.66-3.011c.208-.237-.031-.598-.331-.498z"/><defs><linearGradient id="bonuses__paint0_linear" x1="20" x2="20" y1="11.5" y2="28.5" gradientUnits="userSpaceOnUse"><stop stop-color="#fff"/><stop offset="1" stop-color="#FAFBFF"/></linearGradient></defs></svg>