<svg xmlns="http://www.w3.org/2000/svg" width="40" height="40" fill="none"><path fill="#fff" d="M0 0h40v40H0V0z"/><path fill="#11DBA0" d="M6 20c0-4.418 3.683-8 8.227-8h11.546C30.317 12 34 15.582 34 20s-3.683 8-8.227 8H14.227C9.683 28 6 24.418 6 20z"/><circle cx="26" cy="20" r="6" fill="#FC0"/><path fill="#fff" fill-rule="evenodd" d="M15.709 18.172a.797.797 0 01.122 1.106l-2.682 3.426a.763.763 0 01-1.097.116l-1.772-1.494a.797.797 0 01-.103-1.108.763.763 0 011.088-.105l1.166.983 2.192-2.8a.763.763 0 011.086-.124z" clip-rule="evenodd"/></svg>