<svg xmlns="http://www.w3.org/2000/svg" width="40" height="40" fill="none"><path fill="#fff" d="M0 0h40v40H0V0z"/><path fill="#333" d="M6 13.371C6 12.061 7.037 11 8.316 11h23.368C32.964 11 34 12.062 34 13.371V26.63c0 1.309-1.037 2.37-2.316 2.37H8.316C7.036 29 6 27.938 6 26.629V13.37z"/><path fill="#FC0" d="M11.198 19H8.802C8.36 19 8 18.67 8 18.264v-1.528c0-.407.359-.736.802-.736h2.396c.443 0 .802.33.802.736v1.528c0 .407-.359.736-.802.736z"/><path fill="#C4C4C4" d="M19.375 15.043L24.678 11H27.5v8.881l-7.193 4.738L29 21.807V16h2v9.496H19.548c-1.17 0-1.292-1.157-1.292-1.157l-.003-7.354c0-1.194 1.122-1.942 1.122-1.942z" opacity=".2"/><circle cx="29" cy="29" r="6" fill="red"/><path fill="#fff" fill-rule="evenodd" d="M29 26a.75.75 0 00-.75.75v1.5h-1.5a.75.75 0 000 1.5h1.5v1.5a.75.75 0 001.5 0v-1.5h1.5a.75.75 0 000-1.5h-1.5v-1.5A.75.75 0 0029 26z" clip-rule="evenodd"/></svg>