<svg xmlns="http://www.w3.org/2000/svg" width="40" height="40" fill="none"><path fill="#fff" d="M0 0h40v40H0V0z"/><path fill="red" d="M10.271 10.638c0-.748.46-1.39 1.1-1.533L22.38 6.61c.841-.187 1.62.55 1.62 1.532v11.96c0 .748-.46 1.39-1.1 1.533l-11.28 2.516c-.841.186-1.62-.551-1.62-1.531l.271-11.981z"/><path fill="#FFC401" d="M10 11c0-1.105.882-2 1.969-2H27.03c1.09 0 1.97.895 1.97 2v19c0 1.105-.881 2-1.969 2H11.97c-1.088 0-1.97-.895-1.97-2V11z"/><path fill="#fff" fill-opacity=".8" fill-rule="evenodd" d="M25.1 18.45H14.7v-1.7h10.4v1.7z" clip-rule="evenodd"/><circle cx="11" cy="29" r="6" fill="#20DEA6" opacity=".9"/><path fill="#fff" fill-rule="evenodd" d="M13.709 27.172a.797.797 0 01.122 1.106l-2.682 3.426a.763.763 0 01-1.097.116L8.28 30.325a.797.797 0 01-.103-1.108.763.763 0 011.088-.105l1.166.983 2.192-2.8a.763.763 0 011.086-.124z" clip-rule="evenodd"/></svg>