<svg xmlns="http://www.w3.org/2000/svg" width="64" height="64" xmlns="http://www.w3.org/2000/svg"><path d="M61.207 13.245c.346.03.649.26.75.606.029.13.029.26 0 .375l-2.308 16.702a.843.843 0 01-.707.75L18.89 38.457c-.043.014-.057.043-.057.087l.62 3.418c.461 2.322 1.154 3.317 1.659 3.75.49.404.908.404 1.197.404h34.211a2.01 2.01 0 012.02 2.105c-.044 1.097-.981 1.933-2.078 1.933H22.337c-1.933 0-3.534-.779-4.746-2.337-1.038-1.326-1.745-3.057-2.091-5.148l-5.77-30.52c0-.006-.046-.242-.102-.526-.076-.386-.17-.86-.186-.96-.014-.014-.014-.028-.014-.043-.202-.966-.75-2.077-1.428-2.278-.678-.202-2.495-.274-3.75-.274S2 7.288 2 6.034C2 4.75 3.053 3.986 4.351 4l.463.003c3.543.025 5.51.038 6.575 1.339.866 1.081 1.212 1.658 1.76 2.682.188.375.678.635 1.082.678l46.976 4.543zM18.203 59.397a3.461 3.461 0 10-.128-6.922 3.461 3.461 0 00.128 6.922zM53.983 56.02a3.461 3.461 0 10-6.92-.165 3.461 3.461 0 006.92.165z"/></svg>