<svg xmlns="http://www.w3.org/2000/svg" width="40" height="40" fill="none"><circle cx="20" cy="20" r="20" fill="#294594"/><path fill="#EA5E21" d="M9.97 17.856c.112-1.901 1.555-3.564 3.362-4.09.017 2.623-.007 5.248.012 7.871.038 1.155.226 2.412 1.043 3.293.786.85 2 1.08 3.11 1.096 2.703.012 5.405-.007 8.107.008-.566 2.02-2.57 3.506-4.677 3.39-2.17-.01-4.339.01-6.507-.008-1.723-.031-3.353-1.134-4.054-2.699-.373-.777-.45-1.65-.43-2.5.06-2.12-.029-4.242.035-6.361z"/><path fill="#FEFEFE" d="M13.336 13.777c.537-1.898 2.34-3.36 4.325-3.383a790.74 790.74 0 016.888.001c2.313.036 4.364 2.058 4.436 4.37.029 2.289.012 4.581.008 6.87.004 2.016-1.467 3.855-3.385 4.41-.019-2.612.005-5.224-.012-7.837-.032-1.154-.218-2.41-1.02-3.304-.783-.863-2.006-1.107-3.125-1.12-2.704-.012-5.41.003-8.115-.007z"/></svg>