<svg xmlns="http://www.w3.org/2000/svg" xmlns:xlink="http://www.w3.org/1999/xlink" width="80" height="80"><defs><circle id="mi-shop__a" cx="40" cy="40" r="40"/></defs><g fill="none" fill-rule="evenodd"><use fill="#FD6702" xlink:href="#mi-shop__a"/><path fill="#FFF" fill-rule="nonzero" d="M66.432 23.028h-7.317a.56.56 0 00-.568.55v33.007a.56.56 0 00.568.55h7.317a.56.56 0 00.568-.55V23.579a.563.563 0 00-.568-.551zm-24.988 0H13.568a.56.56 0 00-.568.55v33.007a.56.56 0 00.568.55h7.317a.56.56 0 00.568-.55V30.68c0-.297.253-.545.567-.545h15.77c4.436 0 5.692 3.355 5.692 5.52v20.929a.56.56 0 00.568.55h7.312a.56.56 0 00.568-.55V33.172c0-1.934-.237-4.711-2.756-7.152-2.633-2.552-5.041-2.992-7.73-2.992zm-5.125 13.147h-7.687a.56.56 0 00-.567.55V56.59c0 .303.259.551.567.551h7.687a.563.563 0 00.568-.55V36.72a.559.559 0 00-.568-.546z"/></g></svg>