<svg xmlns="http://www.w3.org/2000/svg" xmlns:xlink="http://www.w3.org/1999/xlink" width="60" height="60"><defs><path id="schelkovo__a" d="M29.703 59.405c16.404 0 29.702-13.298 29.702-29.702C59.405 13.298 46.107 0 29.703 0 13.298 0 0 13.298 0 29.703c0 16.404 13.298 29.702 29.703 29.702z"/></defs><g fill="none" fill-rule="evenodd"><use fill="#2BA148" xlink:href="#schelkovo__a"/><g fill="#FFF"><path d="M20.79 32.948c0-1.037.057-2.078-.015-3.11-.092-1.334.416-1.827 1.77-1.84 1.52-.016 1.65.81 1.605 1.978-.045 1.209.027 2.422-.021 3.63-.043 1.068.038 1.76 1.455 1.768 1.45.009 1.74-.588 1.675-1.847a27.423 27.423 0 01.055-3.886c.086-.943.667-1.591 1.707-1.586 1.046.005 1.598.675 1.677 1.616.109 1.288.08 2.591.055 3.887-.02 1.037.006 1.803 1.441 1.816 1.422.013 1.784-.537 1.696-1.832-.083-1.204.044-2.423-.023-3.63-.07-1.263.265-1.905 1.695-1.904 1.41 0 1.785.642 1.756 1.893-.039 1.642-.01 3.286 0 4.929.003.77-.001 1.49.549 2.185 1.597 2.019 2.245 2.024 3.562-.14 3.441-5.658 2.796-12.443-1.666-17.515-4.055-4.61-11.004-6.082-16.732-3.546-5.542 2.455-9.26 8.836-8.555 14.682.809 6.704 5.451 11.968 11.734 13.08 2.1.37 4.28.43 6.381-.22 1.158-.357 2.126-.158 2.499 1.055.445 1.448-.6 2.018-1.742 2.35-9.359 2.732-19.56-3.689-21.921-13.783-2.217-9.473 4.468-19.78 13.918-21.46 8.218-1.46 15.765 2.11 19.52 9.233 3.618 6.865 2.405 15.372-2.839 20.892-1.507 1.587-2.799 1.932-4.171.078-.937-1.266-2.273-3.129-2.273-3.129s-3.671.04-5.31.024c-2.866-.028-4.295.037-6.432.078-2.437.047-3.3-.833-3.078-3.153.082-.856.023-2.593.028-2.593"/><path d="M39.673 25.597a.985.985 0 01-1.418.827c-2.86-1.421-5.414-2.668-7.923-4-1.021-.543-1.815-.527-2.822.028-1.61.887-5.393 2.781-7.617 3.347-.876.223-1.458.287-1.941-.533-.494-.84-.077-1.605 1.07-2.245 3.055-1.707 6.226-3.204 9.359-4.768.606-.303 1.162.005 1.704.276 2.827 1.412 5.65 2.833 8.485 4.227 1.334.655 1.183 1.65 1.103 2.841"/></g></g></svg>