<svg xmlns="http://www.w3.org/2000/svg" width="80" height="80" fill="none"><path fill="#1B4288" d="M40 80c22.087 0 40-17.913 40-40S62.087 0 40 0 0 17.913 0 40s17.913 40 40 40z"/><path fill="#fff" fill-rule="evenodd" d="M48.632 35.125v-.046c.849-.272 1.981-.987 1.981-2.866 0-2.117-1.698-3.088-4.087-3.088H42.47v5.063h-2.384c-3.206 0-3.868 2.275-3.868 3.518 0 1.764 1.007 2.546 2.863 3.481 1.13.575 2.48.924 2.48 2.232 0 .685-.626 1.512-1.977 1.512h-2.516a4.04 4.04 0 00.534-1.99c0-.809-.281-4.059-4.746-4.059H29.21v12.527h2.482v-5.458l1.006 1.018h6.79c3.17 0 4.68-1.654 4.68-3.628 0-.7-.127-1.26-.346-1.718h2.548c3.927 0 4.84-1.976 4.84-3.523 0-1.571-1.006-2.736-2.578-2.975zm-15.774 9.806h-1.163v-4.093h1.163c1.446 0 2.105.891 2.105 1.974 0 1.006-.597 2.119-2.105 2.119zm9.614-7.767v3.038c-.596-.363-1.285-.652-2.007-.97-.788-.35-1.635-.795-1.635-1.801 0-.51.314-1.271 1.823-1.271h2.796l-.977 1.003zm2.484-6.079h1.131c1.919 0 2.012 1.194 2.012 1.558 0 .541-.282 1.547-1.917 1.547h-1.227v-3.106l.001.001zm1.416 8.562h-1.416v-3.486h1.416c1.727 0 2.199.844 2.199 1.735 0 .895-.628 1.751-2.199 1.751zM62 28.844C62 22.855 57.206 18 51.294 18H36.172c-4.882 0-9.044 3.331-10.307 7.936h18.282c7.031 0 10.017 3.315 10.017 11.09V54.6C58.699 53.32 62 49.091 62 44.165V28.843zM18.001 51.692c0 5.99 4.794 10.845 10.706 10.845H43.83c4.88 0 9.041-3.331 10.306-7.938H35.853c-7.031 0-10.017-3.312-10.017-11.088V25.936C21.302 27.217 18 31.448 18 36.372v15.319" clip-rule="evenodd"/></svg>