<svg xmlns="http://www.w3.org/2000/svg" width="40" height="40" fill="none"><circle cx="20" cy="20" r="20" fill="#FDF100"/><path fill="#010102" d="M11.476 11.44c.543-.631 1.283-1.162 2.138-1.216.824-.075 1.614.328 2.188.897 1.128 1.103 2.276 2.186 3.396 3.297-.278.258-.556.514-.832.774.534.53 1.058 1.067 1.613 1.573a65.89 65.89 0 001.658-1.6 17.27 17.27 0 00-.648-.827c1.063-1.076 2.147-2.13 3.217-3.2.527-.542 1.261-.944 2.038-.87 1.11.091 2.012.888 2.653 1.745.708.97 1.226 2.17 1.078 3.395-.378-.19-.71-.45-1.04-.708-1.039 1.03-2.066 2.072-3.11 3.096a13.737 13.737 0 01-1.05-.85c0-.683.013-1.366-.007-2.049-.269.208-.53.425-.788.645-.049.878.026 1.76-.032 2.64-.352.487-.853.842-1.26 1.282 2.2 2.276 4.476 4.478 6.695 6.736-.941.938-1.88 1.88-2.838 2.8-2.278-2.243-4.498-4.547-6.795-6.771-2.194 2.202-4.36 4.434-6.554 6.636-.946-.933-1.867-1.892-2.796-2.842 2.207-2.226 4.471-4.392 6.676-6.617-.392-.443-.844-.831-1.24-1.27-.16-.862.002-1.754-.08-2.624-.151-.239-.418-.375-.63-.557-.045.667-.024 1.334-.03 2-.35.31-.708.61-1.076.9-1.026-1.064-2.008-2.168-3.022-3.242-.335.253-.661.519-.998.771.049-1.427.558-2.845 1.476-3.944z"/></svg>