<svg xmlns="http://www.w3.org/2000/svg" viewBox="0 0 80 80"><circle cx="40" cy="40" r="40" fill="#e94f0e"/><path fill="#fff" d="M21.5 23.9c.9-.7 2.1-1 3.2-1h31.2c1.7 0 3.5.7 4.3 2.2 1 1.7.6 3.7.7 5.6-.1.7.2 1.6-.5 2.1-.6.5-1.7.1-1.8-.8-.1-1.5 0-3 0-4.5 0-.8-.4-1.6-1.1-2.1-.5-.4-1.2-.5-1.9-.5H24.9c-.8 0-1.7.2-2.2.8-.6.6-.7 1.5-.7 2.2v16.8c0 1 .3 2.1 1.3 2.6 1.2.6 2.6.3 3.9.4-.1-.8-.1-1.7.4-2.4.6-1.2 2.2-1.8 3.5-1.4 1.2.4 2.1 1.4 3 2.2v-13c0-1.4 1.2-2.6 2.6-2.7 1.6-.2 3.2 1.1 3.2 2.7v6c.7-.2 1.5-.3 2.2 0 .7.2 1.1.8 1.6 1.3.9-.4 2-.5 2.9 0 .6.3 1 .9 1.3 1.5.6-.1 1.2-.3 1.8-.2 1.2.2 2.3 1.3 2.4 2.6.1 1.1 0 2.3 0 3.4 1.4 0 2.9.1 4.3 0 1.1-.1 2.1-1.1 2.2-2.2.1-1.6 0-3.3.1-4.9.1-1 1.8-1.2 2.1-.2.2.8.1 1.6.1 2.4 0 1.7.2 3.5-.7 4.9-.8 1.3-2.2 2.1-3.7 2.1-1.5.1-2.9 0-4.4 0 0 1.6 0 3.2-.3 4.8-.3 1.8-1 3.5-1.6 5.2-.3.9-.6 2-1.5 2.6-.9.8-2.2.6-3.3.7-1.8 0-3.6.1-5.4-.1-1.1-.1-2.1-.8-2.7-1.6-3-3.8-5.9-7.7-8.9-11.5-1.9-.1-4 .3-5.9-.4-1.8-.7-2.8-2.6-2.8-4.4V27.8c.1-1.4.6-3 1.8-3.9zm14.3 9.4v13.4c0 .9.3 1.9-.6 2.5-.3-.1-.7-.1-1-.4-1.1-.9-2-1.9-3.1-2.8-.6-.5-1.6-.6-2 .1-.5.6-.3 1.5.1 2 3 4 6.1 8 9.1 11.9.4.5.8 1.1 1.5 1.2 1 .2 2.1.1 3.2.1 1.3 0 2.6.1 3.9-.1.8-.1 1.1-.9 1.3-1.6.8-2.2 1.8-4.4 1.9-6.8.1-2.7 0-5.4 0-8.1.1-.9-1-1.7-1.8-1.1-.8.5-.4 1.5-.7 2.2-.4.5-1.3.4-1.6-.2-.2-1 .1-2-.1-3-.2-.9-1.6-1-2-.2-.4.8 0 1.8-.3 2.6-.3.6-1.3.6-1.6-.1-.2-1.1.1-2.3-.1-3.4-.3-1-1.9-1-2.2 0-.2 1.1 0 2.1-.1 3.2-.1.7-1 .9-1.5.4-.4-.3-.3-.7-.3-1.1V33.9c0-.5.1-1.2-.4-1.6-.3-.4-1.6 0-1.6 1z"/></svg>