<svg xmlns="http://www.w3.org/2000/svg" width="60" height="60"><g fill="none" fill-rule="evenodd"><path fill="#80BC41" d="M30 0c16.569 0 30 13.432 30 29.995v.01C60 46.571 46.572 60 30 60 13.431 60 0 46.572 0 30 0 13.431 13.428 0 30 0z"/><path fill="#FFF" d="M27.173 10.383c3.083-2.388 5.007 7.165 5.007 7.165s.541-5.811 4.51-5.582c4.433.256 1.206 8.948 1.206 8.948s7.18-8.873 9.315-2.803c2.946 8.372-7.293 11.07-7.293 11.07s11.716 3.473 9.58 9.53c-2.501 7.09-10.884-3.263-10.884-3.263S45.913 50 36.871 50c-9.041 0-5.09-10.847-5.09-10.847s-5.488 11.56-10.702 6.937c-5.213-4.623 3.725-9.116 3.725-9.116S11.748 42.64 11.029 34.49c-.719-8.152 12.135-3.948 12.135-3.948s-15.71-1.909-9.259-9.627c3.247-3.886 9.978 2.178 9.978 2.178s-6.541-2.84-3.109-5.893c3.109-2.766 7.143 7.206 7.143 7.206s-3.827-11.634-.744-14.022z"/></g></svg>