<svg xmlns="http://www.w3.org/2000/svg" width="40" height="40" fill="none"><circle cx="20" cy="20" r="20" fill="#231F20"/><path fill="#fff" d="M12.721 20.503a3.86 3.86 0 11-7.721 0 3.86 3.86 0 017.721 0z"/><path fill="#E51B24" d="M11.77 22.12c-.037-.03-.043-.406-.075-.602-.052-.32-.764-.132-.978-.475a1.363 1.363 0 01-.133-.664c.005-.045.014-.064.042-.064.084 0 .25.367.386.523.044.05.101.066.14.076.253.069.437.106.626.17.2.066.23.183.244.234.023.082.016.42-.143.735-.032.062-.079.091-.11.067zm-.514.008a.412.412 0 01-.024.095.464.464 0 01-.377.295c-.015.002-.03.002-.046.002-.014.002-.03 0-.045 0l-.03-.002-.02-.003a.186.186 0 00-.014-.004c-.017-.002-.032-.008-.046-.012a.469.469 0 01-.265-.68.435.435 0 01.275-.2.584.584 0 01.292.03c.054.016.1.047.145.084a.423.423 0 01.155.395zm-1.593-.044a.533.533 0 01-.504.437h-.047a.527.527 0 01-.398-.205.607.607 0 01-.126-.323.49.49 0 01.1-.328.55.55 0 01.881.004.519.519 0 01.094.415zm-1.44-1.39c-.024.132-.074.52-.08.766-.008.287.009.65-.13.503-.09-.092-.168-.275-.194-.466-.026-.19-.12-.87.041-1.416.036-.12.15-.235.404-.256.613-.052 1.07-.054 1.611.047.109.02.364.073.483.145.034.02.022.05-.025.064-.454.13-1.06.061-1.611.143-.25.038-.439.144-.498.47zm.637-4.051a3.86 3.86 0 00-3.857 3.7 1.207 1.207 0 011.388.153c.33.304.364.737.324 1.138.723-.098.942.716.926.934-.007.087-.014.098-.035.11a.095.095 0 01-.068 0 .33.33 0 00-.034-.133 2.25 2.25 0 00-.053-.104c-.07-.16-.21-.353-.4-.432a.827.827 0 00-.18-.072c-.126-.034-.262-.004-.385.028l-.17.046c-.023.006-.047.01-.07.014-.039-.046-.07-.1-.063-.149a.699.699 0 01.19-.17c.038-.272-.051-.935-.747-.929-.203.002-.42.126-.574.359a3.861 3.861 0 103.808-4.493z"/><path fill="#fff" fill-rule="evenodd" d="M21.368 19.807c.005-.451.295-.853.815-.853.568 0 .808.325.808.882v1.215c0 .765-.462.883-.806.883-.535 0-.817-.408-.817-.883v-1.244zm2.683.022c0-1.116-.622-1.8-1.676-1.8-.432 0-.75.157-1.005.385v-.336h-1.073v6.838h1.072v-2.552c.21.238.552.494 1.006.494 1.15 0 1.676-.811 1.676-1.827V19.83zm2.756 2.106c.355 0 .798-.084.798-.866v-1.243c0-.63-.28-.873-.798-.873h-.068c-.383 0-.798.12-.798.873v1.243c0 .58.225.866.798.866h.068zm-.129-3.906h.19c1.316 0 1.797.84 1.797 1.8v1.24c0 .977-.494 1.79-1.8 1.79h-.184c-1.302 0-1.8-.813-1.8-1.79v-1.24c0-.96.48-1.8 1.797-1.8zm-10.402 3.574a.74.74 0 01-.062.166l-.037.057h1.585v-2.76h-1.274c-.069.97-.125 1.736-.17 2.297-.006.082-.02.162-.042.24zm-1.403.223c.245 0 .384-.167.416-.501.062-.744.144-1.824.245-3.241h3.324v3.742h.51v1.96h-1.105v-.978h-2.53v.979h-1.106v-1.961h.246zm19.053.983H35v-4.73h-1.55l-1.186 3.367-1.177-3.367h-1.555v4.73h1.074V20.62l-.045-1.171 1.168 3.359h1.069l1.173-3.36-.044 1.172v2.188z" clip-rule="evenodd"/></svg>