<svg xmlns="http://www.w3.org/2000/svg" width="40" height="40" fill="none"><circle cx="20" cy="20" r="20" fill="#0058A3"/><path fill="#FFDB00" fill-rule="evenodd" d="M20.22 27.377C9.054 27.377 1 24.115 1 20.188 1 16.262 9.06 13 20.22 13c11.161 0 19.215 3.262 19.215 7.188 0 3.927-8.048 7.189-19.215 7.189zm-6.563-9.803c0-.172 0-.338.086-.51h-3.606c.086.172.086.338.086.51v4.919c0 .172 0 .338-.086.51h3.606c-.086-.172-.086-.338-.086-.51v-2.07s.992 1.508 1.175 1.783c.183.275.35.625.35.797h4.328a3.289 3.289 0 01-.425-.51l-1.96-2.981 1.376-1.68c.235-.286.521-.596.78-.768H15.52c0 .172-.247.545-.447.808-.264.356-1.416 1.852-1.416 1.852v-2.15zm6.477-.51h6.96v1.64c-.172-.08-.339-.08-.51-.08h-2.93v.785h2.815v1.255h-2.815v.78h2.93c.171 0 .338 0 .51-.086v1.645h-6.96c.086-.172.086-.338.086-.51v-4.919c0-.172 0-.338-.086-.51zm16.882 5.939a1.435 1.435 0 01-.28-.51 1299.988 1299.988 0 00-1.923-5.006c-.056-.14-.11-.276-.073-.417h-5.027c.022.168-.037.33-.099.498l-.004.012-1.783 4.918c-.057.19-.149.361-.27.51h2.976c-.021-.158.03-.31.083-.468l.014-.042c.058-.172.12-.338.12-.338l.035-.091h2.173l.034.085c.08.201.138.339.138.339.068.172.131.338.114.51h3.772zm-5.062-3.566l.528 1.376h-1.244c.129-.358.25-.688.34-.935.09-.247.15-.412.159-.44.046-.127.08-.259.103-.39.028.131.069.263.114.39zM8.43 17.064c-.086.172-.086.338-.086.51v4.919c0 .172 0 .338.086.51H4.51c.085-.172.085-.338.085-.51v-4.919c0-.172 0-.338-.086-.51H8.43zm27.865 1.273a.782.782 0 01-.763-.803.056.056 0 01.006-.051.748.748 0 01.78-.728h.028a.763.763 0 01.751.78v.04a.782.782 0 01-.802.762zm.034-.16a.623.623 0 00.608-.643v-.028a.614.614 0 00-.625-.602h-.046a.602.602 0 00-.579.625v.04c.006.344.298.619.642.607zm.212-.173h.155l-.2-.36a.314.314 0 00.166-.276.3.3 0 00-.293-.304h-.35v.94h.138v-.332h.2l.184.332zm-.023-.625c0 .092-.08.161-.172.155v.006h-.189v-.332H36.363c.091 0 .154.08.154.172z" clip-rule="evenodd"/></svg>