<svg xmlns="http://www.w3.org/2000/svg" xmlns:xlink="http://www.w3.org/1999/xlink" width="80" height="80"><defs><circle id="reimashop__a" cx="40" cy="40" r="40"/></defs><g fill="none" fill-rule="evenodd"><use fill="#D2092D" xlink:href="#reimashop__a"/><path fill="#FFF" d="M37.697 16.075c2.358-.142 4.792-.163 7.034.695 4.895 1.526 8.923 5.612 10.26 10.577 1.984 6.373-.907 13.854-6.623 17.28-1.534-1.512-3.038-3.056-4.598-4.545 1.19-.788 2.442-1.552 3.324-2.702 1.292-1.478 1.91-3.43 2.112-5.354.304-5.06-4.204-9.912-9.32-9.678-4.744-.36-9.234 3.66-9.602 8.365-.257 2.463.572 5 2.219 6.843 7.376 7.452 14.99 14.67 22.377 22.112-1.048 1.373-2.41 2.46-3.574 3.729-.304.286-.785.908-1.202.425-5.651-5.378-11.115-10.95-16.706-16.393-1.016-1.008-2.003-2.056-3.14-2.933-.082 5.871.058 11.743-.068 17.611-2.03.016-4.063-.015-6.092.019-.142-.843-.087-1.697-.09-2.545.006-9.626 0-19.255.003-28.88-.094-3.252 1.308-6.392 3.311-8.89 2.537-3.176 6.37-5.185 10.375-5.736"/></g></svg>