<svg xmlns="http://www.w3.org/2000/svg" width="60" height="60"><g fill="none" fill-rule="evenodd"><path fill="#4775A9" fill-rule="nonzero" d="M29.703 59.405c16.404 0 29.702-13.298 29.702-29.702C59.405 13.298 46.107 0 29.703 0 13.298 0 0 13.298 0 29.703c0 16.404 13.298 29.702 29.703 29.702z"/><path fill="#FAFBFC" fill-rule="nonzero" d="M7.39 29.517c1.8-.02 3.602-.017 5.403-.005.324.002.441-.08.436-.425-.02-1.245-.008-2.491-.007-3.736 0-1.274-.003-2.548.002-3.822.001-.28-.057-.36-.336-.206-.237.132-.41.337-.636.472-1.23.737-2.334 1.629-3.24 2.742-1.075 1.324-1.884 2.778-2.007 4.539-.023.317.025.445.385.44m5.875 4.922h-.027c0-1.243-.01-2.561.007-3.833.004-.321-.065-.461-.415-.444-.603.028-1.208.002-1.812.002-1.223 0-2.446-.005-3.669.002-.13 0-.35-.096-.347.167.004.35-.019.714.064 1.049.407 1.658 1.233 3.11 2.389 4.338 1.002 1.065 2.165 1.954 3.438 2.691.348.202.38.116.376-.216-.01-1.257-.004-2.513-.004-3.756m4.563-4.832c.212.004.299-.094.261-.284-.051-.261-.123-.52-.186-.78l-.087-.02c-.07.269-.147.537-.208.808-.036.162.017.27.22.276m-.398.768c-.016.303.114.251.203.268.068.012.138.002.23.002.11-.095.362.187.368-.186.008-.497-.254-.21-.395-.282-.065-.033-.137-.01-.206-.003-.081.007-.188-.014-.2.2"/><path d="M35.64 17.138H24.732v12.473H35.64z"/><path fill="#FAFBFC" fill-rule="nonzero" d="M24.739 22.01h.004c0 1.38.017 2.753-.01 4.125-.008.422.128.537.525.512.49-.031.985-.014 1.477.01.762.037 1.257.452 1.453 1.184.119.443.175.893.047 1.341-.073.255.008.34.255.318.083-.008.168 0 .253 0 .756 0 .77 0 .748-.762-.01-.314.185-.74-.358-.851-.099-.02-.079-.169-.08-.266-.001-.227.009-.454-.002-.68-.011-.217.073-.308.293-.3.337.01.679.033 1.012-.006.43-.05.66.106.824.515.298.746.65 1.471.99 2.2.055.12.119.284.298.245.189-.042.206-.205.204-.368-.002-.17.008-.34-.002-.51-.02-.327.135-.742-.397-.833-.035-.005-.064-.085-.075-.15-.16-.94-.06-1.03.879-1.03h.127c.997 0 .996-.029.9.983-.012.117-.01.233-.154.247-.317.031-.33.24-.326.481.004.283 0 .562 0 .845 0 .243.108.357.36.35 1.401-.04 1.181.263 1.195-1.196a.927.927 0 00-.026-.253c-.017-.063-.063-.167-.102-.17-.556-.033-.419-.445-.422-.773-.006-.567 0-.589.563-.565.356.015.45-.107.447-.456-.016-1.812-.009-3.623-.01-5.435 0-.976-.007-1.952.003-2.929.003-.244-.057-.35-.322-.365-.462-.028-.92-.117-1.382-.155-2.938-.244-5.873-.244-8.807.073-.318.034-.392.127-.388.429.014 1.4.006 2.814.006 4.195"/><path d="M13.658 45.966h39.214V30.137H13.658z"/><path fill="#FAFBFC" fill-rule="nonzero" d="M32.543 44.449c-.29-.02-.562-.353-.541-.659.027-.392.268-.642.603-.627.298.013.551.337.54.69-.011.315-.315.616-.602.596m-1.443.01c-.305.01-.572-.268-.577-.602-.006-.413.227-.701.565-.699.325.002.548.267.56.664.009.331-.244.625-.548.636m-1.524 0c-.303-.004-.565-.295-.56-.625.004-.37.249-.667.555-.674.336-.008.578.28.578.69.001.328-.267.613-.573.61m-1.467-.044c-.36-.003-.54-.224-.584-.548-.045-.343.26-.72.554-.735.316-.016.593.298.6.682a.58.58 0 01-.57.601m24.353-14.277c-1.52.026-3.04.024-4.56.005-.364-.005-.44.115-.438.457.011 2.35 0 4.7.002 7.05 0 .259-.015.552-.316.534-.206-.012-.094-.308-.094-.471-.01-2.392-.008-4.785-.01-7.178 0-.198.04-.392-.28-.389-1.407.013-2.815.01-4.223.004-.195 0-.281.058-.278.265.01.495.004.99.003 1.486 0 .222.054.397.321.401.185.003.235.11.23.279-.008.198-.015.397.001.594.022.25-.088.315-.32.31-.534-.012-1.07-.004-1.604-.004-.727 0-.725.001-.72-.751 0-.218-.028-.433.294-.441.233-.007.246-.196.247-.372.003-.467-.012-.935.007-1.401.01-.274-.074-.373-.357-.367-.76.018-1.52.013-2.28.005-.223-.002-.353.048-.33.303.02.215-.118.244-.295.255-.72.045-.72.05-.72.759 0 .085-.012.172.002.254.028.17-.115.448.221.44.304-.007.76.141.82-.293.07-.528.364-.494.728-.494.253 0 .35.079.341.341a18.7 18.7 0 000 1.401c.01.272-.067.374-.352.366-.647-.02-1.296.018-1.942-.013-.386-.019-.549.096-.502.492.02.168.023.364-.237.352-.252-.012-.192-.217-.177-.351.042-.393-.111-.536-.5-.49-.155.019-.405.094-.467-.072-.114-.302-.052-.642-.033-.964.012-.205.208-.143.334-.172.158-.037.183-.16.186-.293.005-.212.005-.424.005-.637 0-1.204 0-1.192-1.184-1.185-.314.002-.373.12-.367.399.015.707.004 1.415.003 2.123 0 .81-.003.773-.79.824-.51.033-.751-.157-.935-.614-.325-.812-.71-1.6-1.077-2.396-.054-.117-.064-.334-.242-.289-.17.043-.083.244-.088.374-.016.367-.034.736-.016 1.102.013.257-.082.603.365.626.095.005.096.126.097.21.002.24-.005.482.002.722.006.18-.067.256-.248.254-.464-.005-.929 0-1.393 0-.086 0-.208-.003-.215-.093a11.59 11.59 0 01-.019-.932c.002-.206.189-.166.309-.218.144-.062.138-.21.14-.33.011-.495.006-.99.01-1.486 0-.165-.046-.269-.239-.266-.478.006-.957.002-1.436.002-.122 0-.249.011-.174.185.24.557.387 1.196.761 1.64.334.396.319.764.337 1.187.01.245-.09.32-.322.315-.548-.01-1.099-.026-1.646.007-.373.022-.521-.09-.462-.469.048-.301-.111-.636.218-.89.139-.107-.21-1.207-.394-1.277-.13-.049-.377-.108-.365.111.024.445-.159.895.16 1.345.2.283.13.734.022 1.07-.068.216-.404.09-.62.098-.61.025-.622-.127-.623.611 0 .117.083.324-.16.302-.159-.014-.3-.09-.291-.296a2.37 2.37 0 00-.007-.34c-.012-.11-.022-.257-.16-.26-.234-.006-.414-.066-.338-.333.088-.307-.285-.757.277-.918.153-.044.162-.182.166-.31.008-.254.01-.51.01-.764 0-1.044 0-1.037-1.05-1.019-.243.004-.359.056-.35.328.015.538.004 1.076.005 1.614 0 .113-.02.275.086.31.448.153.267.52.3.813.024.205-.076.273-.272.268-.38-.008-.76-.002-1.14-.002-.703 0-.703 0-.647-.705.01-.115.007-.228.136-.283.192-.083.202-.25.2-.427-.002-.255 0-.51 0-.765 0-1.216 0-1.207-1.22-1.153-.271.012-.304.119-.253.34.085.372.162.746.243 1.119.058.271.057.574.409.672.118.033.094.16.096.257.003.212-.011.425.004.636.018.248-.091.319-.322.313-.493-.012-.986-.004-1.479-.004-.728 0-.734 0-.719-.75.003-.163-.105-.396.16-.462.172-.043.245-.124.208-.298-.04-.19-.187-.182-.33-.182-.31 0-.62-.003-.93.002-.12.001-.262-.04-.33.115-.07.155-.016.257.116.36.117.092.174 1.023.09 1.136-.07.094-.175.077-.271.077-.324.003-.648.006-.971 0-.85-.013-.726.127-.727-.742 0-.162-.113-.406.147-.469.262-.063.314-.265.368-.466.121-.45.214-.909.34-1.358.065-.232.01-.3-.226-.295-.633.011-1.267.01-1.9-.001-.227-.004-.327.056-.327.307-.001 2.703-.012 5.407-.02 8.11-.001.129-.01.262.136.327.461.204.87.51 1.323.722 1.949.915 4.01 1.513 6.08 2.062a21.9 21.9 0 002.625.529c.46.063.498-.145.492-.52-.028-2.024-.03-4.048-.055-6.07-.004-.281.135-.424.358-.415.228.01.118.246.118.374.002 2.08 0 4.162-.019 6.242-.003.343.044.542.446.497.302-.034.48.111.579.424.266.834.578 1.652.854 2.483.213.636.323.733.989.735 1.309.002 2.618 0 3.927 0h2.238c.408 0 .646-.155.696-.611.095-.87.25-1.735.358-2.604.039-.315.159-.505.486-.496.331.009.36-.168.357-.453a553.426 553.426 0 01-.017-4.63v-2.635c.275.292.43.537.427.88-.017 2.095-.01 4.19-.012 6.285 0 .448.09.529.524.422 1.122-.274 2.26-.465 3.374-.802 1.726-.522 3.44-1.06 5.072-1.833.096-.045.15-.044.256-.017 1.28.327 2.56.657 3.849.942.633.14.977-.195.979-.859.003-1.048 0-2.095.002-3.143 0-.168-.034-.35.117-.476.241-.2.387-.48.59-.711 1.165-1.317 1.86-2.84 2.05-4.6.04-.362.017-.494-.396-.486M22.01 26.567c.403 0 .73.328.73.733a.732.732 0 01-.73.734.732.732 0 01-.73-.734c0-.405.327-.733.73-.733m-8.329-1.69c0 1.415.01 2.831-.004 4.247-.003.368.122.514.492.487.322-.024.647-.002.97-.006 1.362-.02 1.127.198 1.463-1.16.057-.233.162-.484-.234-.53-.136-.015-.133-.162-.133-.277 0-.227.012-.454-.002-.68-.016-.243.086-.32.32-.316.789.01 1.577.014 2.365-.004.26-.006.34.111.382.335.095.5.194.998.307 1.494.308 1.35.039 1.111 1.457 1.136.127.002.274.02.327-.126.065-.178-.125-.132-.197-.193a.196.196 0 01-.064-.086c-.19-.525.032-.836.577-.836h.254c.85 0 .86-.015.873.84.004.303.1.42.419.413 1.088-.023.984.124.979-.967-.002-.306.112-.687-.38-.757-.03-.004-.069-.092-.07-.14-.007-.312-.005-.624-.004-.935 0-.12.067-.193.182-.186.33.02.305-.221.305-.44-.002-1.387-.001-2.8-.001-4.18h.004c0-1.381-.004-2.785.004-4.186.002-.28-.056-.344-.363-.298-.502.076-.98.242-1.474.337-2.308.439-4.593.957-6.71 2.037-.54.275-1.09.532-1.646.769-.301.127-.413.3-.407.64.024 1.189.01 2.379.01 3.568m12.22 4.506a.464.464 0 00.49-.175c.128-.165.137-.367.153-.597-.008-.053-.01-.14-.036-.22-.091-.28-.332-.348-.575-.327-.265.024-.134.264-.15.41a2.92 2.92 0 00-.002.551c.01.127-.082.312.12.358m24.45-5.373a.827.827 0 01-.272-.662c.014-1.118.01-2.236.004-3.355-.003-.51-.207-.713-.715-.734a1.912 1.912 0 00-.583.063c-1.109.297-2.166.76-3.292 1.005-.235.05-.428.042-.647-.038-.658-.24-1.201-.695-1.864-.941-2.124-.789-4.329-1.258-6.53-1.743-.274-.06-.385-.014-.384.293.006 2.803.004 5.606-.004 8.409 0 .255.077.35.338.344.661-.015 1.324.014 1.984-.011.33-.013.411.106.393.413-.025.424-.003.85-.012 1.274-.003.167.07.43-.231.38-.26-.043-.654.236-.756-.27-.028-.134-.037-.275-.195-.351-.477-.231-.84-.016-.842.508 0 .155 0 .311.002.467.001.084-.002.212.089.214.444.013.847.216 1.255.294.748.143 1.541.037 2.315.047.22.003.31-.092.311-.298.002-.34-.006-.68.003-1.019.005-.198-.071-.227-.255-.205-.325.039-.348.257-.366.511-.032.457-.388.295-.641.323-.275.03-.281-.152-.28-.352.004-.538.01-1.076-.004-1.614-.006-.24.081-.319.318-.317 1.337.009 2.674.01 4.012.004.213 0 .303.068.3.292-.011.566-.004 1.133-.007 1.699 0 .109.01.22-.135.275-.39.147-.704-.025-.78-.444-.013-.07-.02-.141-.039-.21-.05-.183-.19-.224-.36-.223-.216.002-.197.157-.198.298-.002.283.013.567-.005.85-.02.325.092.442.434.437 1.281-.018 2.562-.023 3.843.005.398.009.5-.116.498-.5-.016-2.407-.012-4.813-.01-7.22 0-.15-.04-.307.042-.46.366.069.394.328.393.632-.007 2.335-.003 4.671-.012 7.007-.001.276.018.445.373.442a261.53 261.53 0 014.687.01c.307.002.37-.094.339-.397-.207-2.027-1.077-3.721-2.514-5.132"/></g></svg>