<svg xmlns="http://www.w3.org/2000/svg" width="40" height="40"><circle cx="20" cy="20" r="20" fill="#09152F"/><path fill="#00D19A" d="M13.76 27.814l-1.253-.726c-1.297-.747-2.088-2.33-2.088-4.593-.022-4.57 3.164-10.109 7.12-12.394l1.275.725c-3.956 2.285-7.165 7.823-7.143 12.372 0 2.264.792 3.868 2.088 4.616z"/><path fill="#00EEBC" d="M18.814 10.826l.044 16.482c-3.956 2.285-7.186.462-7.186-4.088-.022-4.57 3.165-10.109 7.142-12.394z"/><path fill="#007AFF" d="M31.363 10.21l.021 6.33L8.727 29.616l-.022-6.33L31.363 10.21z"/><path fill="#00EEBC" d="M21.825 14.518c3.956-2.286 7.186-.44 7.186 4.087.022 4.55-3.186 10.087-7.142 12.373l-.044-16.46z"/><path fill="#00D19A" d="M25.67 13.287l1.253.726c-1.296-.748-3.098-.66-5.098.505l-1.253-.725c2-1.143 3.802-1.253 5.099-.506z"/><path fill="#00D19A" d="M21.869 31l-1.253-.725-.044-16.482 1.253.725L21.869 31z"/></svg>