<svg xmlns="http://www.w3.org/2000/svg" width="40" height="40" fill="none"><circle cx="20" cy="20" r="20" fill="#E7112D"/><path fill="#fff" d="M23.259 9.5l.222.157c2.461 2.46 4.919 4.923 7.384 7.38.06.066.161.128.13.236-2.357 2.343-4.705 4.696-7.054 7.048-.226.214-.424.458-.677.641-.02-.942-.005-1.885-.007-2.827-.344.012-.691-.033-1.03.031-.186.908-.47 1.795-.699 2.695a559.727 559.727 0 00-1.324 4.931c-.053.198-.117.395-.136.599a2.266 2.266 0 01-.419.029c-2.883-.011-5.766.012-8.648-.011l.003-.143c.194-.317.22-.705.337-1.055 1.382-5.226 2.81-10.439 4.188-15.667l.206-.755c2.503.011 5.007-.006 7.51.009.027-1.099-.002-2.198.015-3.297z"/></svg>