<svg xmlns="http://www.w3.org/2000/svg" width="41" height="40" fill="none"><circle cx="20.5" cy="20" r="20" fill="#F3F3F3"/><path fill="#fff" fill-rule="evenodd" d="M20.5 2c-2.438 0-4.777.47-7.01 1.413A17.883 17.883 0 007.77 7.27a17.865 17.865 0 00-3.85 5.72A17.712 17.712 0 002.5 20c0 2.437.47 4.777 1.42 7.002a17.814 17.814 0 003.85 5.726 17.883 17.883 0 005.72 3.858 17.865 17.865 0 007.01 1.42c2.445 0 4.777-.478 7.01-1.42a17.89 17.89 0 005.72-3.858 17.813 17.813 0 003.85-5.726A17.674 17.674 0 0038.5 20c0-2.445-.47-4.777-1.42-7.01a17.867 17.867 0 00-3.85-5.719 17.884 17.884 0 00-5.72-3.858A17.84 17.84 0 0020.5 2z" clip-rule="evenodd"/><path fill="#0061A9" fill-rule="evenodd" d="M25.748 3.671a16.49 16.49 0 00-5.111-.813c-2.499 0-4.853.48-7.048 1.443a16.787 16.787 0 00-5.461 3.82 17.204 17.204 0 00-3.516 5.446 16.473 16.473 0 00-1.246 6.297c0 2.324.433 4.541 1.306 6.668a17.041 17.041 0 003.6 5.499 16.617 16.617 0 005.408 3.736c2.134.927 4.382 1.383 6.752 1.383 4.124 0 7.724-1.246 10.8-3.752a17.698 17.698 0 003.197-3.402 15.916 15.916 0 001.846-3.29l-2.878-1.564c-1.215 2.734-2.901 4.898-5.058 6.486-2.287 1.679-4.877 2.537-7.755 2.583-2.134.03-4.147-.304-6.03-1.01A14.263 14.263 0 019.7 30.207l-1.663.714v-2.575a14.04 14.04 0 01-2.112-4.124 16.022 16.022 0 01-.751-4.937c0-2.225.41-4.329 1.23-6.319a15.308 15.308 0 013.418-5.103 15.628 15.628 0 015.225-3.433c2.066-.828 4.284-1.246 6.645-1.246 1.27 0 2.629.167 4.056.486z" clip-rule="evenodd"/><path fill="#FEBE10" fill-rule="evenodd" d="M28.9 7.689c-.046.106-.152.182-.334.205-2.962.509-6.046 1.192-9.259 2.035-2.035.547-4.914 1.443-8.628 2.688-.19.061-.326.046-.41-.053-.076-.098-.091-.258-.03-.486.418-2.476 2.013-4.458 4.792-5.954 1.117-.6 2.438-1.025 3.965-1.291 1.443-.258 2.787-.319 4.04-.182 3.008.319 4.93 1.207 5.78 2.65.107.13.137.259.084.388zm-16.656 3.326c-.015.114-.053.205-.13.258a.26.26 0 01-.204.068.293.293 0 01-.205-.098.403.403 0 01-.076-.258c.03-.296.152-.654.364-1.087.228-.455.524-.91.889-1.374.896-1.117 1.921-1.93 3.083-2.438-.812.493-1.557 1.177-2.24 2.05-.73.934-1.223 1.9-1.481 2.879zM26.47 6.997c.007-.25-.16-.509-.487-.774-.31-.25-.744-.479-1.283-.691a9.413 9.413 0 00-1.792-.449 8.889 8.889 0 00-1.998-.075c1.276.09 2.34.341 3.19.774.372.183.66.38.866.593.197.204.304.402.304.584a.83.83 0 01-.266.623c-.168.19-.395.327-.661.41l.896-.213c.304-.068.524-.129.669-.19.372-.128.554-.326.562-.592zm5.376 16.96c-.09-.099-.25-.122-.47-.06-2.537.592-5.446 1.405-8.734 2.437-3.532 1.109-6.395 2.134-8.583 3.076l-.22.106a.304.304 0 00-.122.152c-.068.145-.03.29.115.441.25.303.668.6 1.26.888a10.52 10.52 0 002.203.745 13.48 13.48 0 006.129-.069c2.909-.698 5.164-2.02 6.767-3.964a9.776 9.776 0 001.299-2.066c.205-.44.35-.835.433-1.185.045-.235.023-.402-.077-.501zm-1.556 1.936c.076-.159.083-.303.03-.425a.35.35 0 00-.243-.227.434.434 0 00-.35.038c-.136.076-.227.204-.288.386a9.201 9.201 0 01-1.504 2.56 9.63 9.63 0 01-2.749 2.309 9.809 9.809 0 002.909-1.755 8.677 8.677 0 002.195-2.886z" clip-rule="evenodd"/><path fill="#ED1C2E" fill-rule="evenodd" d="M32.53 9.04c-.364-.28-.835-.387-1.397-.31l-2.035.34v5.53l.843-.16c.433-.098.653-.356.66-.79V12.3l1.3 1.526a.795.795 0 00.463.259c.205.037.402 0 .592-.122a.695.695 0 00.342-.539.708.708 0 00-.19-.585l-1.002-1.124c.622-.417.941-.941.941-1.572.008-.471-.167-.828-.516-1.101zm-1.928 2.4l-.008-1.496c.585-.121.889.023.896.44 0 .48-.296.829-.888 1.056zm-3.692.137v-.858l1.314-.273c.312-.061.471-.281.471-.646v-.653c-1.086.182-2.195.41-3.319.668l-.023 5.613c1.23-.296 2.172-.509 2.848-.653.365-.084.555-.327.555-.73v-.653l-1.846.403.008-1.086 1.154-.243c.32-.076.479-.273.479-.608l-.007-.623-1.634.342zm-11.56 1.11c.16.09.236.258.236.508v3.212c-.007.798-.19 1.413-.554 1.854-.304.364-.775.653-1.42.843-.661.197-1.2.152-1.61-.137-.403-.273-.6-.736-.593-1.374v-3.79l.775-.282c.228-.068.41-.068.554.023.152.092.228.266.228.517l.008 3.13c0 .197.045.348.129.44.091.098.228.129.402.09.35-.09.524-.41.54-.979v-3.82c.273-.107.523-.19.759-.259.22-.068.41-.06.547.023zm-4.837 2.004c-.403-.212-.92-.212-1.55.023-.319.114-.95.364-1.899.752l.008 6.152 2.263-.965c.623-.258 1.086-.547 1.39-.858.38-.395.562-.858.554-1.405a1.107 1.107 0 00-.31-.775 1.199 1.199 0 00-.707-.38c.539-.432.805-.941.805-1.534 0-.47-.19-.805-.554-1.01zm-1.595 2.43l-.29.122v-1.298c.252-.137.464-.168.631-.114.16.06.243.197.236.425 0 .387-.198.676-.577.866zm.448.98c.175.091.266.25.266.494.015.425-.205.737-.638.934l-.35.16v-1.497c.296-.151.54-.182.722-.09zm24.395-3.174c.258.106.44.273.554.516.1.228.13.463.077.722a1.09 1.09 0 01-.35.607.898.898 0 01-.729.183l-.744-.145a3.517 3.517 0 00-1.276.084 2.115 2.115 0 00-1.223.76c-.342.425-.516.971-.532 1.632.008.66.152 1.154.433 1.466.296.334.73.448 1.307.364.38-.075.638-.19.767-.356.068-.076.091-.145.084-.205l-.008-.684-.456.114c-.57.114-.85-.137-.858-.744v-.836l3.592-.782c.016 1.458.016 2.423 0 2.878-.007.668-.197 1.193-.584 1.572-.676.668-1.61 1.071-2.81 1.208-1.064.121-1.968-.091-2.704-.63-.866-.639-1.3-1.618-1.3-2.94 0-1.58.494-2.817 1.474-3.729.676-.63 1.496-1.04 2.453-1.23a5.496 5.496 0 011.489-.107c.501.03.942.13 1.344.282zm-9.479 2.992c0-.501.107-.881.32-1.162.182-.228.448-.387.796-.486.372-.107.775-.205 1.215-.296v7.336c-.007.304-.098.57-.28.798a1.21 1.21 0 01-.638.44c-.57.167-1.04.053-1.42-.334l-2.56-2.955.015 2.924c0 .464-.083.828-.265 1.102-.19.273-.502.493-.942.645l-1.193.41v-8.468l1.23-.372c.555-.197.996-.129 1.338.205.622.63 1.42 1.55 2.377 2.75l.007-2.537zm-7.131.6c-.433.16-.752.38-.95.645-.227.32-.334.768-.334 1.36l-.007 7.033 1.382-.494c.479-.182.813-.402 1.01-.683.198-.273.297-.66.297-1.155l.007-7.162c-.524.152-.987.304-1.405.456zM8.4 21.96l2.56-1.063.008 2.985 2.18-3.706c.144-.228.349-.387.615-.486.303-.114.63-.099.956.053.312.137.517.364.608.676.084.296.038.592-.137.88l-1.89 2.986 1.845 1.845c.205.228.296.517.288.874a1.254 1.254 0 01-.478.956c-.334.266-.699.38-1.094.327a1.462 1.462 0 01-.888-.44l-2.02-2.15v2.682c.007.341-.054.615-.19.827a.926.926 0 01-.57.433l-1.808.76.016-8.438zm7.611-3.895zm.919-.312l-.919.312V12.29c.858-.296 1.542-.509 2.043-.623.585-.136 1.07-.083 1.45.152.373.228.555.585.555 1.063-.008.684-.326 1.3-.972 1.83l1.002.958a.81.81 0 01.236.57.757.757 0 01-.251.584.844.844 0 01-1.185-.037l-1.322-1.375-.007 1.504c-.008.395-.213.668-.63.835zm.63-4.807v1.602c.607-.312.911-.714.904-1.215-.008-.479-.312-.608-.904-.387zm7.063-2.545c.236.145.35.35.342.615-.008.251-.091.441-.26.563-.166.121-.394.167-.683.113-.372-.045-.668-.038-.896.015a1.507 1.507 0 00-.858.608c-.22.334-.342.752-.35 1.268.016.828.297 1.246.866 1.254.198.007.38-.03.532-.107.16-.076.236-.174.236-.304l-.008-.63-.334.076a.407.407 0 01-.365-.084.432.432 0 01-.151-.349V12.8l2.301-.517v2.18c0 .403-.137.73-.418.973-.38.341-.904.577-1.572.706-.782.144-1.435.008-1.937-.41-.539-.448-.812-1.132-.812-2.05 0-.973.273-1.77.82-2.4.593-.684 1.405-1.041 2.438-1.08.486-.007.85.054 1.11.198zM35.85 25.202h-.57v.092h.22v.44h.145v-.44h.204v-.092zm.349.532l-.13-.433v.433h-.143v-.532h.212l.137.41.13-.41h.212v.532h-.145v-.433l-.129.433H36.2z" clip-rule="evenodd"/></svg>