<svg xmlns="http://www.w3.org/2000/svg" width="41" height="40" fill="none"><path fill="#EE1A3C" fill-rule="evenodd" d="M20.5 40c11.046 0 20-8.954 20-20s-8.954-20-20-20S.5 8.954.5 20s8.954 20 20 20z" clip-rule="evenodd"/><g fill="#fff" clip-path="url(#finance-comepay__clip0)"><path d="M23.762 32.596l-.5-1.937a10.745 10.745 0 003.328-1.494l1.102 1.664a13.023 13.023 0 01-3.93 1.767zm-1.813.336a13.29 13.29 0 01-3.783-.135c-.172-.03-.346-.068-.521-.108l.443-1.954c.143.037.293.062.444.086 1.057.192 2.139.233 3.201.114l.216 1.997zm7.206-3.228l-1.328-1.494a10.987 10.987 0 002.283-2.843l1.747.98a12.676 12.676 0 01-2.702 3.357zm-13.27 2.453a13.183 13.183 0 01-3.723-2.179l1.289-1.535a10.9 10.9 0 003.146 1.848l-.712 1.866zm16.754-7.478l-1.866-.712c.244-.637.43-1.301.56-1.983.095-.528.157-1.069.17-1.598l1.996.073a12.195 12.195 0 01-.203 1.884c-.152.8-.37 1.585-.657 2.336zM10.836 28.7a13.164 13.164 0 01-2.313-3.64l1.847-.777a10.876 10.876 0 001.958 3.08L10.836 28.7zM33.433 18.61l-1.987.214c-.05-.492-.139-.975-.259-1.46a10.578 10.578 0 00-.735-2.054l1.809-.85a12.766 12.766 0 011.172 4.15zM7.927 23.321l-.048-.194a13.017 13.017 0 01-.345-4.097l1.996.154a11.09 11.09 0 00.29 3.462l.041.165-1.934.51zm21.766-9.368a10.852 10.852 0 00-2.485-2.671l1.224-1.59a13.13 13.13 0 012.935 3.156l-1.674 1.105zm-19.93 3.68l-1.951-.434a12.956 12.956 0 011.607-3.993l1.703 1.051a10.74 10.74 0 00-1.359 3.376zm16.14-7.212a11.102 11.102 0 00-3.43-1.242 15.289 15.289 0 00-1.192-.158l.145-1.994c.473.038.95.095 1.413.176 1.436.262 2.805.758 4.062 1.466l-.998 1.752zm-13.87 2.57l-1.541-1.277a12.943 12.943 0 013.268-2.819l1.042 1.71a10.664 10.664 0 00-2.768 2.386zm7.693-3.966a10.907 10.907 0 00-3.548.858l-.784-1.835c1.333-.567 2.76-.92 4.188-1.017l.144 1.994zM23.6 21.79c.58-1.08.58-2.39 0-3.4l3.7-3.69c.36-.36.36-.94 0-1.3a.93.93 0 00-1.31 0l-3.7 3.62a3.465 3.465 0 00-4.72 1.3 3.439 3.439 0 001.31 4.7c1.09.58 2.4.58 3.49 0l3.7 3.69c.36.36.94.36 1.31 0 .36-.36.36-.94 0-1.3l-3.78-3.62zm-3.05-.14c-.87 0-1.6-.72-1.6-1.59 0-.87.73-1.59 1.6-1.59.87 0 1.6.72 1.6 1.59.07.86-.66 1.59-1.6 1.59zM22.55 4h-4v2h4V4z"/></g><defs><clipPath id="finance-comepay__clip0"><path fill="#fff" d="M0 0h26.01v29.44H0z" transform="translate(7.5 4)"/></clipPath></defs></svg>