<svg xmlns="http://www.w3.org/2000/svg" xmlns:xlink="http://www.w3.org/1999/xlink" width="60" height="60"><defs><path id="unet__a" d="M29.703 59.405c16.404 0 29.702-13.298 29.702-29.702C59.405 13.298 46.107 0 29.703 0 13.298 0 0 13.298 0 29.703c0 16.404 13.298 29.702 29.703 29.702z"/><path id="unet__c" d="M8.84.048H.137V18.5H8.84V.048z"/></defs><g fill="none" fill-rule="evenodd"><mask id="unet__b" fill="#fff"><use xlink:href="#unet__a"/></mask><use fill="#EAEAEA" xlink:href="#unet__a"/><g mask="url(#unet__b)"><path fill="#FEFEFE" d="M63.184 25.51c-2.387-.097-4.605 2.012-4.606 4.644 0 2.531 2.02 4.686 4.609 4.689 2.554.003 4.612-2.101 4.616-4.68.005-2.696-2.264-4.76-4.619-4.654"/><path fill="#C01D1C" d="M5.015 28.997c0-1.981.004-3.644-.005-5.306-.001-.206.052-.259.256-.258 1.513.009 3.027.01 4.541 0 .204-.002.254.048.254.254-.008 2.806-.006 5.613-.004 8.42 0 .254.01.51.04.763A1.3 1.3 0 0011.43 34a1.294 1.294 0 001.236-1.208c.017-.287.009-.576.009-.864v-6.444a85.51 85.51 0 00-.019-1.826c-.003-.164.027-.225.21-.225 1.546.008 3.093.007 4.64.001.163 0 .203.048.203.208-.005 3.201.005 6.403-.008 9.604-.005 1.132-.296 2.18-1.067 3.048-.683.767-1.565 1.18-2.541 1.391-2.117.458-4.232.456-6.288-.277-1.736-.619-2.643-1.937-2.755-3.768-.102-1.652-.012-3.308-.035-4.643"/><path fill="#494949" d="M36.66 29.087c-.036.388-.037.385.313.343.988-.12 1.976-.24 2.966-.352.66-.074.673-.069.56-.728-.127-.733-.457-1.32-1.233-1.523-1.029-.27-2.13.35-2.448 1.368a3.448 3.448 0 00-.158.892m.348 3.46c.166.465.472.792.885 1.021.518.288 1.083.417 1.668.44a9.263 9.263 0 004.086-.767c.146-.063.198-.05.252.105.392 1.114.79 2.227 1.197 3.335.062.169.016.227-.13.287-.998.414-2.042.644-3.104.788a16.518 16.518 0 01-3.426.114c-3.178-.231-5.583-2.391-6.137-5.55-.334-1.909-.213-3.775.646-5.538.959-1.968 2.557-3.096 4.696-3.437 1.404-.225 2.793-.146 4.119.417 1.865.792 2.914 2.26 3.36 4.206.25 1.094.253 2.202.196 3.314-.008.156-.069.2-.22.219-2.66.337-5.32.682-7.978 1.026-.031.004-.062.011-.11.02M19.32 30.653c0-2.05.004-4.099-.006-6.148 0-.215.075-.294.262-.359a16.63 16.63 0 016.962-.842c.918.083 1.805.296 2.605.788 1.21.745 1.824 1.85 1.927 3.254.034.458.023.92.023 1.382.002 2.7-.002 5.4.006 8.1 0 .226-.058.286-.284.285-1.35-.011-2.7-.012-4.05 0-.229.003-.263-.07-.263-.276.007-2.7.005-5.4.005-8.1v-.395c-.007-.82-.387-1.232-1.197-1.283-.42-.027-.829.072-1.24.138-.09.015-.126.062-.12.151.003.058 0 .115 0 .173 0 3.103-.003 6.207.005 9.31 0 .228-.06.283-.282.282-1.367-.011-2.734-.01-4.1-.001-.207.002-.258-.057-.257-.26.007-2.066.004-4.133.004-6.199"/><g transform="translate(45.27 19.152)"><mask id="unet__d" fill="#fff"><use xlink:href="#unet__c"/></mask><path fill="#494949" d="M6.282.048c0 1.385.006 2.734-.006 4.084-.002.232.066.281.283.277.687-.014 1.375 0 2.062-.01.171-.001.22.045.219.22-.008 1.07-.009 2.14 0 3.21.001.178-.053.216-.22.214-.712-.01-1.424 0-2.136-.008-.157-.002-.207.036-.206.202.007 1.589.002 3.177.005 4.766.001.542.548 1.03 1.182 1.065.213.012.424.002.635-.042.208-.044.406-.116.63-.194.003.072.008.133.008.193 0 1.243 0 2.486.002 3.729 0 .123-.008.215-.15.264-1.48.518-2.981.664-4.502.21-1.187-.353-1.794-1.252-2.122-2.387-.211-.732-.288-1.485-.292-2.244-.008-1.77-.007-3.54.002-5.309 0-.207-.052-.264-.256-.254-.36.018-.72-.004-1.08.009-.166.006-.202-.051-.201-.208.006-1.07.009-2.14-.002-3.21-.002-.198.066-.23.239-.225.36.012.72-.005 1.08.008.17.006.22-.042.219-.217-.01-.872-.004-1.745-.005-2.617 0-.11-.01-.203.134-.245C3.29.91 4.772.481 6.282.05" mask="url(#unet__d)"/></g></g></g></svg>