<svg xmlns="http://www.w3.org/2000/svg" width="41" height="40" fill="none"><path fill="#9C9C9C" fill-rule="evenodd" d="M20.5 40c11.046 0 20-8.954 20-20s-8.954-20-20-20S.5 8.954.5 20s8.954 20 20 20z" clip-rule="evenodd"/><path fill="#fff" fill-rule="evenodd" d="M33.5 21.915v.053a3.722 3.722 0 01-3.717 3.652 3.71 3.71 0 01-3.717-3.706c0-2.038 1.654-3.687 3.717-3.687.374 0 .747.053 1.085.16v-1.49A1.89 1.89 0 0132.771 15h.711v6.897c.018 0 .018.018.018.018zm-3.717-1.419c-.8 0-1.44.638-1.44 1.436 0 .798.64 1.436 1.44 1.436.8 0 1.44-.638 1.44-1.436 0-.798-.64-1.436-1.44-1.436zm-3.094 4.007a3.7 3.7 0 01-2.65 1.117c-2.045 0-3.717-1.667-3.717-3.706 0-2.038 1.672-3.687 3.717-3.687.373 0 .747.053 1.085.16V15h.711a1.89 1.89 0 011.903 1.897v1.543a4.05 4.05 0 00-1.992 3.474c0 .993.356 1.898.943 2.589zm-2.668-4.007c-.8 0-1.44.638-1.44 1.436 0 .798.64 1.436 1.44 1.436.8 0 1.44-.638 1.44-1.436 0-.798-.64-1.436-1.44-1.436zm-3.094 4.007a3.7 3.7 0 01-2.65 1.117c-2.045 0-3.717-1.667-3.717-3.706 0-2.038 1.672-3.687 3.717-3.687.373 0 .747.053 1.085.16v-1.49A1.89 1.89 0 0121.265 15h.711v3.44a4.05 4.05 0 00-1.992 3.474c0 .993.356 1.898.943 2.589zm-2.668-4.007c-.8 0-1.44.638-1.44 1.436 0 .798.64 1.436 1.44 1.436.8 0 1.44-.638 1.44-1.436 0-.798-.64-1.436-1.44-1.436zm-4.108-.514h.107l.32.213v.053a4.096 4.096 0 00-.373 1.684c0 .922.302 1.755.818 2.447-.107.106-.445.408-1.423.904-1.192.603-2.917.32-3.681.16-.765-.16-2.223-.976-2.419-1.26.462-1.187 1.423-1.364 1.76-1.364.338.017 1.779.39 2.241.39.338 0 1.263-.284 1.263-1.064-.036-.975-.765-1.117-.925-1.117h-1.12a.243.243 0 01-.25-.248v-1.596c0-.142.108-.248.25-.248h.622s.054.018.534 0c.498-.035.747-.638.764-.816.018-.177-.088-.886-1.013-.904-.943-.018-.943.55-2.028.567-1.084.018-1.618-1.33-1.618-1.33.96-.655 2.33-1.417 4.233-1.417 1.903 0 3.236 1.134 3.236 2.553 0 1.4-1.227 2.41-1.227 2.41l-.07-.017z" clip-rule="evenodd"/></svg>