<svg xmlns="http://www.w3.org/2000/svg" width="41" height="40" fill="none"><circle cx="20.5" cy="20" r="20" fill="#1A6582"/><path fill="#fff" fill-rule="evenodd" d="M13.34 22.913a.257.257 0 00.13-.201h.012V19.15c0-.083-.059-.118-.13-.083L9.317 20.96a.303.303 0 01-.249 0l-4.06-1.905c-.07-.035-.13.012-.13.083v3.574c0 .083.06.166.13.201l4.048 1.81c.06.036.178.036.249 0l4.035-1.81zm-7.834-4.272v.237l3.562 1.668a.303.303 0 00.249 0l3.42-1.61v-.295c.011-.083-.048-.118-.119-.083l-3.313 1.598a.303.303 0 01-.249 0l-3.42-1.598c-.07-.035-.13.012-.13.083zm7.586.13l.639-.308c.059-.023.118.012.13.083v4.415a.24.24 0 01-.13.2L9.305 25.15c-.06.035-.178.035-.249 0L4.63 23.162a.257.257 0 01-.13-.201v-4.415c0-.07.06-.106.13-.083l.533.26v-.626c0-.083.059-.119.13-.083l3.763 1.763a.303.303 0 00.249 0l3.656-1.763c.072-.024.13.012.13.083v.674zm4.165 1.799a.96.96 0 00.071-.39.715.715 0 00-.059-.285.536.536 0 00-.13-.224.738.738 0 00-.213-.166l-.037-.016c-.068-.03-.13-.057-.2-.067a.656.656 0 00-.2-.035c-.06-.012-.12-.012-.178-.012h-.628a.178.178 0 00-.13.047c-.035.035-.047.083-.047.142v2.379c0 .011 0 .023.012.035.007.007.014.01.024.014l.023.01c.01 0 .021.002.033.005.014.003.03.007.05.007.035.012.083.012.13.012.025 0 .05-.004.074-.007a.434.434 0 01.056-.005c.036 0 .06 0 .083-.012.024 0 .036-.012.047-.024.012-.012.012-.024.012-.035v-.852h.225c.166 0 .32-.024.45-.06a.746.746 0 00.331-.177.725.725 0 00.201-.284zm-.544-.58c.035.06.047.13.047.225 0 .07-.012.13-.035.19a.64.64 0 01-.083.153.426.426 0 01-.142.095.575.575 0 01-.213.035h-.237v-.9h.225c.06 0 .119 0 .166.013.059.012.106.035.154.059a.32.32 0 01.118.13zm2.805 2.012c.012-.012.024-.024.024-.047h.011v-1.243a.907.907 0 00-.047-.32.41.41 0 00-.142-.224.5.5 0 00-.248-.13 1.15 1.15 0 00-.367-.048c-.083 0-.166.012-.237.024a.952.952 0 00-.213.047c-.06.024-.118.047-.166.071a.326.326 0 00-.094.071l-.036.071c-.012.024-.012.047-.012.095 0 .012.003.026.006.041.003.015.006.03.006.042 0 .035 0 .059.012.07 0 .013.012.024.024.036.011.012.023.012.035.012.024 0 .047 0 .083-.024a1.14 1.14 0 00.13-.059c.03-.015.066-.025.107-.037l.07-.022c.06-.012.143-.024.226-.024.07 0 .118.012.165.024a.228.228 0 01.107.06c.023.023.047.058.059.106.012.047.012.094.012.154v.106h-.178c-.165 0-.308.012-.426.036a1.045 1.045 0 00-.307.118.486.486 0 00-.19.19.617.617 0 00-.059.271c0 .095.012.19.047.26a.472.472 0 00.142.19c.06.06.13.095.213.119.083.023.178.035.273.035a.705.705 0 00.32-.071.819.819 0 00.26-.19v.143c0 .023 0 .035.011.047a.09.09 0 00.06.024c.023.012.07.012.13.012a.64.64 0 00.092-.008c.016-.003.029-.004.038-.004a.09.09 0 00.059-.024zm-.686-.828h.2v.32c-.07.07-.13.13-.189.165a.4.4 0 01-.2.059.279.279 0 01-.202-.071c-.047-.035-.071-.106-.071-.177 0-.048.012-.083.024-.119.023-.035.047-.07.083-.095a.396.396 0 01.142-.059c.059-.012.13-.023.213-.023zm2.556.852l-.225.65c-.012.036-.048.06-.095.071-.06.012-.13.024-.237.024-.059 0-.094 0-.13-.012-.035 0-.059-.012-.07-.024-.013-.011-.024-.023-.024-.035 0-.012 0-.035.011-.06l.237-.614c-.024-.012-.035-.024-.047-.036-.012-.012-.024-.036-.036-.06l-.627-1.68a1.3 1.3 0 00-.01-.035c-.007-.03-.014-.054-.014-.071a.09.09 0 01.024-.06c.012-.011.047-.023.083-.035a.56.56 0 00.058-.005.853.853 0 01.096-.007h.142c.02 0 .035.004.05.007.011.003.022.005.032.005.024.012.036.024.048.036.012.011.023.035.023.07l.438 1.22h.012l.39-1.243a.192.192 0 01.036-.071.09.09 0 01.06-.024.441.441 0 00.05-.004.797.797 0 01.245.004c.036 0 .071.012.083.036.024.012.024.035.024.059 0 .024 0 .06-.012.095l-.615 1.799zm4.39-.036c.012-.012.012-.024.012-.035h.024V19.6c0-.036 0-.072-.012-.095 0-.024-.01-.037-.021-.05a.121.121 0 01-.015-.021.246.246 0 00-.07-.047c-.024-.012-.06-.012-.096-.012h-.366c-.048 0-.095 0-.13.012-.036 0-.072.023-.095.047-.024.023-.047.059-.071.095-.016.024-.027.053-.04.088a1.5 1.5 0 01-.02.053l-.591 1.574h-.012l-.568-1.573-.02-.054a.412.412 0 00-.04-.088c-.023-.036-.046-.072-.082-.095a.353.353 0 00-.118-.047c-.048-.012-.107-.012-.166-.012h-.355a.196.196 0 00-.142.059.205.205 0 00-.06.154v2.366c0 .012 0 .024.013.036 0 .008.006.01.017.016l.018.008c.01 0 .021.002.033.005.015.003.03.007.05.007.024.011.071.011.118.011a.42.42 0 00.068-.006c.018-.003.034-.005.05-.005.036 0 .06 0 .083-.012.024 0 .036-.012.048-.024.012-.012.012-.024.012-.035V19.8l.733 2.154c0 .011.012.023.024.035.007.007.015.01.025.014l.022.01c.011 0 .022.002.033.005.015.003.03.007.05.007h.237c.035 0 .06 0 .083-.012.023 0 .035-.012.047-.024.012-.012.024-.024.024-.047l.769-2.154v2.165c0 .012 0 .024.012.036 0 .008.006.01.018.016l.006.002.011.006c.011 0 .022.002.033.005.015.003.03.007.05.007.024.011.071.011.118.011.034 0 .06-.003.082-.007.018-.002.033-.005.049-.005.035 0 .059 0 .082-.011.012 0 .024-.012.036-.024zm2.486-.035c0 .018-.014.029-.026.039l-.01.008a.09.09 0 01-.06.024l-.037.004a.64.64 0 01-.092.008c-.06 0-.107 0-.13-.012a.091.091 0 01-.06-.024c-.012-.012-.012-.024-.012-.047v-.142a.819.819 0 01-.26.189.705.705 0 01-.32.071c-.094 0-.189-.012-.272-.035a.475.475 0 01-.213-.119.472.472 0 01-.142-.19.602.602 0 01-.047-.26c0-.106.024-.2.06-.272a.486.486 0 01.188-.19c.083-.046.19-.094.308-.117.119-.024.26-.036.426-.036h.178v-.106c0-.06 0-.107-.012-.154a.229.229 0 00-.06-.107.228.228 0 00-.106-.059c-.047-.012-.094-.024-.166-.024-.082 0-.165.012-.224.024l-.071.022c-.04.012-.076.022-.107.037-.047.024-.095.048-.13.06-.036.023-.06.023-.083.023-.012 0-.023 0-.035-.012-.012-.012-.024-.023-.024-.035-.012-.012-.012-.036-.012-.071 0-.012-.003-.027-.006-.042-.003-.015-.006-.03-.006-.041 0-.047 0-.071.012-.095l.036-.07a.326.326 0 01.094-.072c.048-.024.107-.047.166-.07a.952.952 0 01.213-.048c.071-.012.154-.024.237-.024.142 0 .26.012.367.048a.5.5 0 01.248.13c.071.059.118.13.142.224a.907.907 0 01.047.32v1.243zm-.521-.781h-.201c-.083 0-.154.011-.214.023a.396.396 0 00-.142.06c-.035.023-.059.059-.082.094-.012.036-.024.071-.024.119 0 .07.024.142.071.177a.279.279 0 00.201.071.4.4 0 00.201-.06c.06-.035.119-.094.19-.165v-.32zm2.603.532a.657.657 0 00.06-.272.818.818 0 00-.036-.237l-.018-.03a.562.562 0 00-.089-.124 1.071 1.071 0 00-.308-.19l-.082-.029c-.027-.009-.053-.017-.083-.03-.047-.011-.095-.035-.142-.058a.24.24 0 01-.107-.071c-.023-.024-.035-.06-.035-.107 0-.024 0-.047.012-.07a.205.205 0 01.047-.06c.024-.012.047-.024.083-.036.036-.011.071-.011.118-.011.071 0 .13.011.178.023.03.008.06.02.086.03l.044.018c.025.008.05.022.07.034a.471.471 0 00.084.037s.012-.012.024-.012c.011 0 .023-.012.023-.024.012-.012.012-.035.012-.06v-.177c-.012-.011-.012-.035-.012-.047 0-.006-.003-.012-.006-.018-.003-.006-.006-.011-.006-.017 0-.012-.011-.024-.023-.036a.126.126 0 00-.06-.035.545.545 0 00-.106-.036 1.211 1.211 0 00-.142-.035c-.047-.012-.106-.012-.166-.012-.106 0-.213.023-.307.047a.634.634 0 00-.237.118.722.722 0 00-.142.19.53.53 0 00-.047.236c0 .095.011.166.035.225.024.06.047.107.095.154l.142.107c.059.035.106.059.166.082l.075.027c.033.01.063.02.09.033.048.011.095.035.142.059.036.012.071.047.095.07a.19.19 0 01.035.107.221.221 0 01-.023.095.121.121 0 01-.06.071.8.8 0 01-.094.035c-.036.012-.071.012-.119.012-.082 0-.141-.011-.2-.023a1.554 1.554 0 00-.066-.024.72.72 0 01-.088-.036 1.067 1.067 0 00-.107-.059l-.035-.012a.13.13 0 00-.036-.011.041.041 0 00-.018.006.042.042 0 01-.018.006c-.011 0-.023.011-.023.023a.083.083 0 01-.005.02c-.003.012-.007.026-.007.04v.094c0 .071 0 .107.012.142.012.036.023.06.035.071.012.012.036.036.071.047.024.012.071.036.119.048.047.012.106.023.165.035.071.012.13.012.201.012.119 0 .225-.012.32-.035a.806.806 0 00.249-.119.54.54 0 00.165-.201zm1.835.071c0 .06 0 .107-.012.142a.548.548 0 00-.007.024c-.006.022-.01.038-.029.047a.259.259 0 01-.059.036c-.024.012-.047.023-.083.023-.035.012-.07.012-.106.012-.017 0-.033.003-.05.006a.812.812 0 01-.328-.029.514.514 0 01-.19-.119.545.545 0 01-.107-.201 1.068 1.068 0 01-.035-.296v-.935h-.225c-.024 0-.047-.012-.06-.047a.491.491 0 01-.023-.166v-.094c0-.014.004-.028.007-.04a.083.083 0 00.005-.02.061.061 0 00.012-.017c.003-.006.006-.012.012-.018.011-.012.023-.012.035-.012h.213v-.402c0-.012 0-.024.012-.036.012-.012.023-.024.035-.024.024-.011.048-.011.083-.011h.249c.02 0 .035.003.05.006.011.003.022.005.033.005.006.004.012.006.017.008.012.005.018.008.018.016.012.012.012.024.012.036v.402h.39c.012 0 .024 0 .036.012.012.012.024.023.024.035.011.012.011.036.011.06v.094c0 .071-.011.13-.023.166-.012.035-.036.047-.06.047h-.402v.864c0 .095.012.178.047.225.036.047.083.071.166.071.024 0 .047 0 .071-.012.012 0 .02-.003.03-.006.009-.003.018-.006.03-.006.011-.012.035-.012.047-.012.006 0 .011-.003.017-.005a.041.041 0 01.018-.006c.012 0 .012 0 .024.011.012 0 .012.012.012.024l.004.02a.141.141 0 01.008.04c.07.011.07.047.07.082zm2.307-.65c.036-.036.047-.084.047-.143h-.011v-.094c0-.13-.012-.249-.048-.355a.827.827 0 00-.154-.285.75.75 0 00-.272-.189.959.959 0 00-.39-.07 1.04 1.04 0 00-.39.07.759.759 0 00-.297.213 1.01 1.01 0 00-.189.332 1.657 1.657 0 000 .887c.035.13.095.237.178.32a.75.75 0 00.307.189c.119.036.26.06.426.06.083 0 .166 0 .249-.013a3.85 3.85 0 00.213-.035.917.917 0 00.126-.038l.013-.004a.543.543 0 01.015-.006.192.192 0 00.07-.035c.012-.012.024-.024.024-.036 0-.005.003-.011.006-.017.003-.006.006-.012.006-.018.012-.024.012-.035.012-.06v-.165a.09.09 0 00-.006-.024c-.003-.008-.006-.017-.006-.023a.066.066 0 01-.01-.013c-.003-.006-.006-.01-.014-.01-.011-.013-.023-.013-.035-.013a.17.17 0 00-.057.015l-.026.009c-.024.012-.07.035-.118.047a.638.638 0 01-.178.048 1.324 1.324 0 01-.236.023.64.64 0 01-.225-.035.36.36 0 01-.154-.107c-.036-.047-.06-.106-.083-.165a1.063 1.063 0 01-.024-.213h1.113c.047 0 .094-.012.118-.048zm-.45-.297a.579.579 0 00-.082-.33c-.06-.084-.154-.12-.285-.12a.343.343 0 00-.283.13.4.4 0 00-.072.143l-.035.177h.757zm2.462-.414c0 .023-.005.04-.008.053l-.004.018c0 .012-.012.036-.023.036-.012.011-.024.011-.036.011-.012 0-.024 0-.035-.011a.043.043 0 01-.016-.005.077.077 0 00-.032-.007c-.005 0-.012-.002-.02-.005a.141.141 0 00-.039-.007.147.147 0 01-.035-.006c-.012-.003-.024-.006-.036-.006-.024 0-.06 0-.083.012-.024.012-.059.035-.095.06-.023.015-.04.035-.06.057l-.034.037a.866.866 0 00-.107.154v1.136c0 .012 0 .023-.012.035-.011.012-.023.024-.047.024-.023.012-.047.012-.083.012h-.26c-.02 0-.035-.004-.05-.007-.012-.003-.022-.005-.033-.005a.23.23 0 00-.022-.01c-.01-.004-.018-.007-.025-.014-.012-.012-.012-.023-.012-.035v-1.81c0-.013 0-.025.012-.036.012-.012.023-.024.035-.024.012-.012.036-.012.071-.012h.213c.012 0 .024.003.036.006.012.003.024.006.035.006a.062.062 0 00.018.012.063.063 0 01.018.012c.012.011.012.023.012.035v.225c.03-.045.06-.08.086-.112a.866.866 0 01.162-.16c.036-.024.071-.048.118-.06.036-.011.072-.011.119-.011h.06c.023 0 .046 0 .058.012.012 0 .02.003.03.006.009.002.018.005.03.005a.06.06 0 00.017.012.062.062 0 01.018.012c.007.007.01.01.01.013.002.003.002.006.002.01 0 .007.003.013.006.018.003.006.006.012.006.018 0 .012 0 .036.011.06.024.035.024.07.024.118v.118z" clip-rule="evenodd"/></svg>