<svg xmlns="http://www.w3.org/2000/svg" xmlns:xlink="http://www.w3.org/1999/xlink" width="60" height="60"><defs><path id="wargaming__a" d="M29.703 59.405c16.404 0 29.702-13.298 29.702-29.702C59.405 13.298 46.107 0 29.703 0 13.298 0 0 13.298 0 29.703c0 16.404 13.298 29.702 29.703 29.702z"/><path id="wargaming__c" d="M30.949 61.373h30.949V.1H0v61.272h30.95z"/><path id="wargaming__e" d="M36.898 36.92H0V0h36.898v36.92z"/></defs><g fill="none" fill-rule="evenodd"><mask id="wargaming__b" fill="#fff"><use xlink:href="#wargaming__a"/></mask><use fill="#C01D1C" xlink:href="#wargaming__a"/><g mask="url(#wargaming__b)"><g transform="translate(-1 -.94)"><mask id="wargaming__d" fill="#fff"><use xlink:href="#wargaming__c"/></mask><path fill="#F61F29" d="M61.898 30.737c0 16.92-13.857 30.636-30.95 30.636C13.858 61.373 0 47.657 0 30.737S13.857.101 30.95.101c17.092 0 30.949 13.716 30.949 30.636" mask="url(#wargaming__d)"/></g></g><g mask="url(#wargaming__b)"><g transform="translate(11 11)"><mask id="wargaming__f" fill="#fff"><use xlink:href="#wargaming__e"/></mask><path fill="#FFF" d="M33.222 20.57c-.607 4.425-3.321 8.502-7.18 10.754.95-3.334 1.238-6.812 1.133-10.266a71.24 71.24 0 012.482.73c-1.105-2.79-2.381-5.516-3.953-8.074-1.369 2.657-3.193 5.055-5.22 7.243 1.027-.044 2.05-.14 3.076-.168-1.586 2.842-3.987 5.296-7.029 6.552-1.292.554-2.671.886-4.058 1.1-.746-3.814-.513-7.842.8-11.507.944-2.615 2.592-5.034 4.919-6.598.214.975.41 1.956.622 2.932 1.513-2.274 3.43-4.235 5.297-6.217-2.86-1.16-6.062-1.404-9.089-.856.53.473 1.07.935 1.612 1.398-2.818 1.215-5.492 2.854-7.634 5.074-2.314 2.249-4.008 5.05-5.349 7.964-.473-3.532.299-7.233 2.257-10.22 1.72-2.688 4.339-4.784 7.327-5.898a14.93 14.93 0 019.493-.308c3.768 1.12 7.047 3.794 8.878 7.277a14.846 14.846 0 011.616 9.089m2.84-7.631a18.442 18.442 0 00-7.17-9.702C25.725 1.035 21.84-.082 17.99.005 12.28.104 6.722 3.048 3.427 7.713 1.204 10.81-.038 14.618.001 18.437c-.054 4.214 1.46 8.416 4.129 11.671 2.707 3.355 6.636 5.707 10.88 6.49 3.875.738 7.99.2 11.53-1.555 4.17-2.01 7.512-5.67 9.15-10.003 1.473-3.84 1.601-8.176.372-12.1" mask="url(#wargaming__f)"/></g></g></g></svg>