<svg xmlns="http://www.w3.org/2000/svg" xmlns:xlink="http://www.w3.org/1999/xlink" width="80" height="80"><defs><circle id="jili-bili__a" cx="40" cy="40" r="40"/></defs><g fill="none" fill-rule="evenodd"><use fill="#F3F3F3" xlink:href="#jili-bili__a"/><g fill-rule="nonzero"><path fill="#3B3C3A" d="M24.455 37.368v-.416l2.45-.896v7.056h-1.453v-.86l-2.76 1.34-.151.072-.107-.129a6.985 6.985 0 01-1.23-2.216 4.64 4.64 0 01-.177-2.424c.142-.672.416-1.31.806-1.875a9.051 9.051 0 011.46-1.667.294.294 0 01.388-.05c.086.056.08.142-.014.254a2.448 2.448 0 00-.18.226 6.492 6.492 0 00-1.026 2.03 4.108 4.108 0 00-.106 1.822c.078.538.243 1.06.49 1.544a7.2 7.2 0 00.928 1.403l1.68-.768v-4.812l-.998.366zm4.337 6.072l-1.585-1.828a2.066 2.066 0 001.363-1.083 8.926 8.926 0 00.63-1.703 6.84 6.84 0 01.632-1.62 1.78 1.78 0 01.775-.756 2.455 2.455 0 011.054-.262l1.352-.014v7.052h-1.455v-6.529c-.452-.042-.774.113-.966.467a2.943 2.943 0 00-.33.976 8.68 8.68 0 00-.107 1.413c0 .51-.043 1.019-.13 1.521-.195 1.138-.605 1.927-1.233 2.366zm8.394-6.072v-.416l2.451-.896v7.056h-1.455v-.86l-2.76 1.34-.151.072-.107-.129a7.007 7.007 0 01-1.23-2.216 4.635 4.635 0 01-.177-2.424c.141-.673.416-1.31.807-1.875a9.096 9.096 0 011.46-1.667.293.293 0 01.388-.05c.087.056.08.142-.014.254a2.31 2.31 0 00-.18.226c-.516.727-.858 1.404-1.025 2.03a4.14 4.14 0 00-.108 1.822c.08.538.246 1.06.493 1.544a7 7 0 00.927 1.403l1.677-.768v-4.812l-.996.366zm12.386-1.003c.178.015.43.154.762.416.3.237.584.49.853.761.315.33.6.688.853 1.07.247.372.37.814.351 1.261-.043.931-.511 1.76-1.405 2.488-.287.24-.64.522-1.058.846-.418.325-.725.497-.921.517-.231.02-.496-.09-.796-.327a7.018 7.018 0 01-.962-.943 5.418 5.418 0 01-.708-1.028 2.753 2.753 0 01-.319-1.324c.01-.548.204-1.076.55-1.5 0-.37 0-1.065-.002-2.082-.003-1.016.08-1.727.248-2.134.154-.387.474-.714.961-.982a1.67 1.67 0 01.716-.17c.289-.01.593-.018.913-.024.182 0 .364-.013.545-.036.218-.031.43-.092.631-.179l.374-.287.113.439c-.22.09-.375.33-.465.723-.075.263-.06.543.042.796.059.138.219.255.482.352a.312.312 0 00.258 0 .296.296 0 00.165-.157c.014-.035-.018-.051-.094-.048a.24.24 0 01-.164-.04c-.23-.143-.271-.324-.123-.545.082-.12.227-.166.437-.143.138.02.264.141.374.366a.7.7 0 01.008.596.744.744 0 01-.432.415.766.766 0 01-.602 0 1.44 1.44 0 01-.606-.361 1.714 1.714 0 00-.427-.363c-.286-.159-.6-.26-.924-.301a4.849 4.849 0 00-.945-.05c-.306.014-.528.105-.661.272-.19.251-.294.557-.295.872-.014.35-.033.699-.05 1.043-.02.297-.027.58-.027.85s.003.497.012.684c.11-.11.194-.19.252-.243.287-.258.652-.576 1.097-.95.446-.376.774-.558.99-.55zm-.955 1.267a.705.705 0 00-.423.137 2.922 2.922 0 00-.344.272 1.27 1.27 0 00-.387.664c-.05.225-.076.455-.079.685 0 .239.124.565.372.98.164.29.351.567.56.828.254.277.528.533.822.766.384.321.632.474.742.46a.87.87 0 00.487-.233c.139-.118.268-.246.387-.384.144-.16.245-.352.295-.56.04-.199.066-.4.078-.602.006-.22-.115-.518-.358-.893a6.183 6.183 0 00-.595-.806 28.334 28.334 0 00-.8-.739c-.42-.378-.67-.57-.757-.575zm4.869-1.037l2.123-.775v.328l-.664.286-.003 3.099 3.13-1.14.158-.057.18.115c.368.68.579 1.286.631 1.82.11 1.067-.312 1.849-1.262 2.347-.246.12-.503.214-.768.279a6.369 6.369 0 01-1.028.173c-.371.032-.718.049-1.038.049h-1.466l.007-6.524zm1.46 6.101c.45-.028.892-.124 1.313-.287.755-.32 1.106-.87 1.054-1.65a3.004 3.004 0 00-.366-1.176.43.43 0 00-.13-.147.427.427 0 01-.129-.14l-1.743.668v2.732zm3.834-5.321v-.417l2.455-.896v7.057h-1.452v-6.11l-1.003.366zm4.751 6.065l-1.584-1.828a2.062 2.062 0 001.363-1.083c.268-.545.48-1.115.63-1.703a6.921 6.921 0 01.63-1.62c.175-.326.445-.59.776-.756a2.462 2.462 0 011.054-.262l1.353-.014v7.052H66.3v-6.529c-.455-.042-.777.113-.967.467a2.961 2.961 0 00-.33.976 8.36 8.36 0 00-.108 1.413c0 .51-.044 1.019-.131 1.521-.196 1.138-.606 1.927-1.233 2.366zm8.898-6.072v-.416l2.45-.896v7.056h-1.452v-.86l-2.761 1.34-.15.072-.11-.129a7.014 7.014 0 01-1.229-2.216 4.64 4.64 0 01-.174-2.424c.14-.673.413-1.311.806-1.875a8.99 8.99 0 011.459-1.667.294.294 0 01.388-.05c.086.056.08.142-.016.254a6.51 6.51 0 00-1.204 2.256 4.127 4.127 0 00-.107 1.822 4.98 4.98 0 00.491 1.544c.252.503.564.974.928 1.403l1.68-.768v-4.812l-1 .366z"/><path fill="#EA6063" d="M11.896 32.792l2.526-.621v6.604c.426-.194.848-.394 1.266-.598a8.374 8.374 0 001.197-.714 4.537 4.537 0 001.416-1.648c.132-.232.15-.586.059-1.067a1.684 1.684 0 00-.21-.528 4.133 4.133 0 01-.266-.518l-1.614.593v-.673l3.971-1.451v.116c.107.118.208.242.302.372.092.348.196.7.308 1.057.11.344.156.706.133 1.066a3.885 3.885 0 01-.766 1.928 3.936 3.936 0 01-1.522 1.183c-.186.086-.464.204-.835.36l3.67 8.481-1.255.918a3.993 3.993 0 00-.715.645c-.212.243.225-.232 0 0l-.852-1.888-3.092-7.328c-.2.078-.4.151-.597.22l-.598.21v4.064h-2.355v-3.729a185.218 185.218 0 01-1.705-.603l-2.254 5.633-.185 2.603a15.326 15.326 0 01-.67-.715 4.145 4.145 0 00-.702-.645L5.286 45.2l2.833-6.795c-.185-.077-.464-.2-.835-.372-.676-.318-1.181-.712-1.523-1.184a3.603 3.603 0 01-.755-1.93 3.08 3.08 0 01.123-1.067c.105-.357.208-.708.308-1.057.087-.134.188-.26.301-.372v-.115l3.972 1.46v.678l-1.613-.582c-.086.171-.179.34-.28.506-.098.162-.166.34-.197.528-.1.48-.08.835.059 1.067.326.66.808 1.229 1.404 1.66.457.325.943.606 1.452.841.51.237 1.021.471 1.532.703l-.171-6.378z"/><path fill="#EA6063" d="M11.768 30.338l.147 2.823 2.507-.145.256-2.395-1.034 1.153L13.167 30l-.414 1.955-.985-1.617zm9.533 15.87c.808 1.86 1.92 4.169 5.138 3.366 1.401-.35 2.25-1.24 2.273-2.378.016-.854-.455-1.443-1.12-1.637-.633-.183-1.194-.175-1.502.309a1.183 1.183 0 00.092 1.43c.225.26.466.351.693.265a.58.58 0 00.366-.436.412.412 0 00-.258-.338c-.11-.033-.216.024-.314.166l-.002.028c0 .011-.04.064.068.064a.405.405 0 01.167-.038.169.169 0 01.186.187c0 .237-.245.257-.348.257a.475.475 0 01-.302-.331.493.493 0 01.006-.293c.241-.355.508-.316.615-.284.25.089.423.318.439.582a.817.817 0 01-.531.676c-.194.073-.576.126-.98-.334a1.443 1.443 0 01-.115-1.74c.29-.453.91-.847 1.791-.589.776.226 1.324 1.091 1.306 2.06-.025 1.261-.947 2.243-2.468 2.623-3.343.834-5.944.613-7.1-1.882l1.9-1.733z"/><path fill="#3B3C3A" d="M40.293 39.273h5.303v.781h-5.303z"/></g></g></svg>