<svg xmlns="http://www.w3.org/2000/svg" width="40" height="44" fill="none"><circle cx="20" cy="24" r="20" fill="#074083"/><path fill="#fff" d="M27.32 19.096c.245-1.56-.002-2.622-.846-3.584C25.545 14.454 23.866 14 21.718 14h-6.234a.892.892 0 00-.881.753l-2.596 16.462c-.051.325.2.619.528.619h3.85l-.267 1.685a.468.468 0 00.463.54h3.244a.78.78 0 00.771-.658l.032-.165.611-3.876.04-.214a.78.78 0 01.77-.659h.485c3.143 0 5.604-1.277 6.323-4.97.301-1.542.146-2.83-.65-3.736-.24-.273-.538-.5-.887-.684z" opacity=".68"/><path fill="#fff" d="M27.32 19.096c.245-1.56-.002-2.622-.846-3.584C25.545 14.454 23.866 14 21.718 14h-6.234a.892.892 0 00-.881.753l-2.596 16.462c-.051.325.2.619.528.619h3.85l.966-6.131-.03.192a.889.889 0 01.878-.753h1.83c3.592 0 6.405-1.46 7.227-5.68.025-.125.045-.247.064-.366z" opacity=".7"/><path fill="#fff" d="M18.39 19.117a.78.78 0 01.77-.659h4.888c.579 0 1.119.038 1.612.118a7.14 7.14 0 01.8.178 4.4 4.4 0 01.86.343c.245-1.56-.001-2.623-.845-3.584-.93-1.06-2.609-1.513-4.757-1.513h-6.234a.892.892 0 00-.881.753l-2.596 16.462c-.051.325.2.619.528.619h3.85l.966-6.131 1.039-6.586z"/></svg>