<svg xmlns="http://www.w3.org/2000/svg" width="40" height="40" fill="none"><circle cx="20" cy="20" r="20" fill="#E3E7F1"/><path fill="#405FA9" d="M22.092 8a11.533 11.533 0 016.83 4.427c1.648 2.206 2.506 5.011 2.4 7.79-.084 3.555-1.774 7.042-4.531 9.196-1.37 1.1-2.999 1.833-4.699 2.193-.023-2.086-.01-4.174-.007-6.262-1.493-.06-3.079.21-4.476-.476-2.076-.938-3.375-3.337-3.106-5.647.194-2.39 2.08-4.524 4.397-4.877 1.055-.132 2.12-.046 3.18-.076.009-2.09-.01-4.178.012-6.268z" opacity=".98"/><path fill="#F66769" d="M10.833 11.884c2.28-2.553 5.71-4.038 9.138-3.871.01 1.497.012 2.995 0 4.495-2.237-.066-4.502.833-5.954 2.56-2.115 2.376-2.428 6.122-.734 8.815 1.354 2.297 4.011 3.685 6.668 3.552.05 1.517.026 3.036.02 4.555a11.57 11.57 0 01-7.479-2.359c-2.924-2.19-4.728-5.776-4.758-9.425-.083-3.035 1.058-6.077 3.1-8.322z"/></svg>