<svg xmlns="http://www.w3.org/2000/svg" width="80" height="80"><g fill="none" fill-rule="evenodd"><circle cx="40" cy="40" r="40" fill="#F3F3F3"/><path fill="#B4B5B4" d="M21.065 28.022h5.193l-6.21 6.21h-5.193l6.21-6.21zM46.39 28h5.193l-6.232 6.21h-5.193L46.39 28zm-32.043 6.85h5.193l-6.21 6.21H8.138l6.21-6.21zm12.84-6.828h5.192l-6.21 6.21h-5.192l6.21-6.21zm25.213 0h5.193l-6.21 6.21h-5.192l6.21-6.21zm-12.75 6.696h5.193l-6.21 6.232H33.44l6.21-6.232zm19.313 13.038h5.193l-6.21-6.21h-5.192l6.21 6.21zM33.75 47.8h5.193l-6.21-6.232H27.54l6.21 6.232zm6.077-.066h5.193l-6.231-6.21h-5.193l6.231 6.21zm-25.413.088h5.193l-6.232-6.21H8.182l6.231 6.21zm12.685-6.74h5.193l-6.21-6.21h-5.193l6.21 6.21zm25.214-.11h5.193l-6.21-6.21h-5.193l6.21 6.21z"/><path fill="#D11F3E" d="M26.656 34.608l6.21-6.232 6.21 6.232-6.21 6.21-6.21-6.21zm25.125 0l6.21-6.232 6.21 6.232-6.21 6.21-6.21-6.21zm6.63 6.673l6.21-6.21 6.187 6.21-6.187 6.232-6.21-6.232zm-19.093-.066l6.21-6.21 6.21 6.21-6.21 6.232-6.21-6.232zm-25.303.133l6.21-6.21 6.21 6.21-6.21 6.231-6.21-6.231z"/></g></svg>