<svg xmlns="http://www.w3.org/2000/svg" xmlns:xlink="http://www.w3.org/1999/xlink" width="40" height="40"><defs><path id="royal-qwest__a" d="M.246.469h12.193V9H.246z"/><path id="royal-qwest__c" d="M0 .482h34.856v3.055H0z"/></defs><g fill="none" fill-rule="evenodd" transform="translate(-41 -114)"><rect width="40" height="40" x="41" y="114" fill="#D6A75D" fill-rule="nonzero" rx="20" transform="rotate(90 61 134)"/><g transform="translate(47 134.5)"><mask id="royal-qwest__b" fill="#fff"><use xlink:href="#royal-qwest__a"/></mask><path fill="#FFF" d="M4.686 6.642c-.078-.628-.638-.752-1.062-.983-.234-.128-.481.073-.617.15l-.373.523c.567.555 1.237.744 2.052.31m.693-.606c.138-.195.298-.332.349-.504.252-.853.43-1.714.145-2.604a3.621 3.621 0 00-.783-1.353c-.3-.322-.708-.627-1.24-.542-.194.031-.398.005-.492.005-1.004.489-1.483 1.32-1.61 2.265-.126.938-.162 1.944.618 2.769.203-.651.742-.8 1.244-.962.296.202.677.096.95.348.247.227.55.39.819.578m6.962.361c.253.488-.043.834-.239 1.109-.39.545-.966.898-1.603 1.118-.44.152-.872.326-1.362.286-.225-.02-.42.205-.706.01-.186-.127-.519-.01-.777-.056a2.461 2.461 0 01-.7-.244 3.76 3.76 0 01-.677-.47c-.397-.338-.775-.698-1.139-1.029-.416.113-.759.315-1.147.281-.382-.032-.762-.1-1.067-.143C1.739 6.8 1.019 5.97.603 4.85l-.357-.042c.045-.41.018-.84.152-1.212.168-.469.26-.957.492-1.42.374-.75.95-1.242 1.666-1.479C3.635.34 4.707.361 5.726 1.07c.748.52 1.168 1.222 1.432 2.039.112.346.052.75.07 1.141l.23.084c-.41.789-.756 1.618-1.492 2.218.051.125.072.264.15.35.35.387.793.643 1.225.922.414.268.848.279 1.3.257.092-.005.18-.068.283-.11l.04.193c.03.016.066.055.102.054.969-.02 1.856-.322 2.66-.853.312-.207.534-.525.615-.967" mask="url(#royal-qwest__b)"/></g><g transform="translate(44 131.5)"><mask id="royal-qwest__d" fill="#fff"><use xlink:href="#royal-qwest__c"/></mask><path fill="#FFF" d="M34.856 3.388v.008c-1.267-.006-2.604-.39-3.87-.553a100.76 100.76 0 00-12.185-.816c-.521-.003-1.208.163-1.257.782-.394-.715-1.237-.784-1.955-.77-5.216.097-10.427.598-15.59 1.498 1.511-.771 3.15-1.114 4.778-1.38 4.103-.672 8.247-.901 12.387-1.043l.047-.632c.869.758 2.037.742 3.115.73 2.494-.029 4.99.134 7.466.487.764.108 7.068 1.057 7.064 1.689" mask="url(#royal-qwest__d)"/></g><path fill="#FFF" d="M50.48 128.949c.253.068.478.207.663.164.412-.093.846-.183 1.198-.427.293-.203.501-.503.478-.908-.012-.229-.002-.46-.002-.608-.498-1.084-1.375-1.161-2.336-1.102v2.88zm-1.433-1.295l.045.443-.615.466h-.882l-.57-.69c-.149-.861.4-1.294.922-1.66.49-.343 1.092-.465 1.69-.598.747-.167 1.485-.099 2.227-.112.736-.015 1.59.587 1.928 1.245.267.521.127.992-.123 1.443-.25.447-.698.694-1.103.966-.152.586.38.832.608 1.198.219.352.654.567.99.84l-.102.103c.534.537 1.158.865 1.91.944.01.046.022.088.028.131.002.02-.012.04-.019.061-.038.018-.078.047-.118.048-.184.005-.377.04-.55-.005-.459-.12-.946-.13-1.38-.338-.476-.228-.932-.487-1.297-.884-.507-.554-1.017-1.106-1.55-1.686-.184-.026-.408-.085-.598.175v1.348c.225.317.492.697.78 1.105-.121-.022-.265-.029-.394-.075-.12-.042-.217-.15-.337-.187-.417-.134-.826-.18-1.223.094-.137.094-.318.123-.48.173-.036.011-.084-.015-.197-.039l.279-.281.283-.285.287-1.3-.265-.095c.479-1.292.192-2.637.284-3.932l-.227-.217c-.58.152-1.083.406-1.379.855-.08.224-.14.386-.2.552.079.193.128.416.252.581.096.127.286.18.424.26.484-.27.51-.293.672-.647z"/><path fill="#FFF" d="M57.482 127.977c-.021.02-.034.04-.053.05-.055.028-.11.055-.167.078-.504.201-.744.581-.945 1.059-.144.343-.07.656-.107.98-.063.546.22.978.557 1.375.221.26.495.45.882.44.113-.003.228.082.281.103.274-.073.5-.114.71-.194.664-.257.908-.85 1.034-1.427.132-.598-.003-1.201-.36-1.765-.287-.449-.612-.718-1.17-.7-.222.007-.445 0-.662 0m3.153 1.76l.365.316c-.174.302-.331.584-.498.86-.165.278-.283.614-.524.808-.327.263-.73.48-1.138.604-.943.286-1.5.24-2.378-.258a2.648 2.648 0 01-1.24-1.535l-.157.137c-.022-.032-.064-.065-.064-.1-.024-1.106.483-1.975 1.353-2.661.526-.415 1.505-.49 2.234-.327.777.173 1.341.558 1.754 1.196.185.286.31.572.293.96m5.279-1.073c-.442.467-.496 1.085-.759 1.634.435-.343.939-.047 1.364-.197l-.605-1.437M69 132.32c-.119.306-.36.136-.528.107-.165-.03-.31-.168-.458-.255-.306.138-.793.255-1.001.243l.135-.872-.182-.184c-.212.031-.402.07-.595.084-.102.008-.254.057-.255-.141h.36l.199-.39-.402-.328c-.768-.211-1.213.388-1.723.926v.691l.33.194c-.395.166-.588-.09-.876-.172-.253.088-.538.27-1.004.228.186-.135.28-.211.38-.275.198-.124.346-.256.446-.501.142-.35.347-.668.45-1.047.094-.34.29-.654.43-.98.184-.43.32-.89.556-1.29.316-.54.47-1.095.424-1.715-.003-.04.032-.082.058-.143.318.307.546.619.695 1.068.15.453.36.912.572 1.356.366.767.633 1.575.987 2.346.209.454.457.906 1.002 1.05m-14 3.331c.569-.062 1.037-.095 1.412.26.403-.203.77-.42 1.22-.241l-.537.344c-.147.661-.247 1.295-.198 1.94.032.422.21.826.165 1.263-.02.199.397.526.832.76.351-.048.735.068 1.115-.127.343-.176.52-.427.597-.735a5.92 5.92 0 00.152-.998 6.41 6.41 0 00-.002-1.053c-.034-.376-.122-.748-.2-1.2l-.576-.186.35-.178c.083.03.258.057.376.144.23.169.431.125.675.037.166-.06.364-.052.619-.083-.17.302-.603.294-.613.606v2.018l.225.052c.003.03.02.078.004.09-.294.23-.228.577-.357.86-.322.709-.336.756-1.058 1.044-.072.028-.967.241-1.018.232-.323-.059-.67-.074-.962-.194-.439-.18-.883-.384-1.081-.827-.06-.134-.174-.25-.31-.442.246-.655.156-1.411.162-2.163.006-.777-.085-.89-.992-1.223"/><path fill="#FFF" d="M63.72 140.481c-.427 0-.838.018-1.245-.005-.347-.02-.69-.106-1.035-.127-.304-.019-.612-.047-.902.123-.096.057-.252.01-.487.01.62-.488.774-1.017.584-1.665-.035-.115.056-.262.057-.395.007-.598 0-1.197.005-1.796a.879.879 0 00-.277-.644c-.135-.139-.273-.276-.42-.426.077-.028.131-.067.154-.053.605.368 1.223.357 1.882.148.27-.084.587-.001.882-.017.232-.014.464-.062.749-.103.103.188-.057.472.049.67a.98.98 0 01.095.681h-.22l-.04-.378-.574-.437h-1.305v1.449c.313.109.633.255.994.198.332-.052.598-.189.736-.539v1.494h-.188l-.19-.522h-1.356v1.59c.044.045.086.125.142.138.378.084.758.155 1.124.227l.748-.603.053-.618.265.54c-.118.354-.412.653-.28 1.06m.28-.257v-1.5c.455.29.379.783.685 1.141.334.158.67.378 1.143.125.182-.097.48-.016.751-.016.104-.118.21-.24.362-.41v-.52c-.179-.125-.401-.282-.629-.434-.467-.313-1.034-.457-1.514-.768a2.162 2.162 0 01-.655-.663c-.143-.661.052-1.212.833-1.513.215-.071.461-.002.736-.126.219-.099.628.001.869.137.217.122.42.057.668.13.023.427-.143.81-.344 1.28a382.51 382.51 0 00-.26-.857c-.502-.202-.968-.542-1.544-.055l-.26.458c.075.16.102.37.229.453.277.18.502.447.907.455.25.004.496.105.79.173l.054.136.83.382c.21.382.46.756.297 1.321-.133.148-.334.387-.557.608a1.14 1.14 0 01-.886.338c-.52-.016-1.04-.005-1.56-.003-.342.001-.623-.148-.945-.272m-1.135-7.724a2.75 2.75 0 01-1.22-.385 2.402 2.402 0 01-1.08.376c.01-.22.195-.22.31-.308.123-.093.178-.27.308-.486 0-.336-.024-.768.01-1.194.019-.234-.095-.409-.191-.573-.27-.457-.583-.89-.887-1.328-.14-.201-.299-.39-.467-.609l-.648-.349c.368-.204.537.12.788.15.433.107.808-.118 1.362-.294l-.367.4v.297l.91 1.475c.103-.048.285-.073.348-.17.229-.357.391-.755.634-1.1.132-.188.095-.35.093-.555l-.396-.223c.066-.022.128-.066.17-.053.213.07.422.154.657.242l.801-.297c-.049.15-.054.282-.104.3-.28.106-.425.32-.586.546-.427.6-.82 1.22-1.194 1.899 0 .278.021.602-.005.923-.032.41.11.733.424.998.084.07.158.151.33.318m8.194 7.247l.39.68c-.274.176-.478-.035-.663-.12-.27-.123-.462-.123-.73.002-.235.11-.5.287-.773.127l.687-.637v-3.433a16.397 16.397 0 01-.222-.182c-1.076-.03-1.272.089-1.504 1.038l-.092-.342-.152.068.208-1.448c.473.086.964.212 1.464.256.52.044 1.048-.001 1.573.012.53.014 1.015-.156 1.564-.223.064.335-.053.733.156 1.098.095.166-.012.344-.217.46l-.247-.62c-.446-.209-.892-.414-1.425-.287-.3 1.17-.284 2.354-.017 3.551m-2.955-7.247l.652-.6.212-1.094-.265.187c-.024-.046-.078-.108-.062-.133.261-.428.312-.889.29-1.37-.017-.357-.004-.715-.004-1.054l-.347-.637-.58-.242c.585-.192.935.217 1.33.334l1.092-.391-.552.51c-.193 1.038-.037 2.013-.058 2.98-.006.248.058.508.146.746.095.257.834.377 1.184.258.504-.172.654-.556.79-.983.091.47.041.942.068 1.435-.44 0-.888.08-1.28-.022-.435-.114-.852-.067-1.272-.067-.416 0-.833.085-1.344.143m-2.543-1.401l-.16-.137.061-.061.137.159-.038.039m-4.962 9.931l-.038.038a19.47 19.47 0 01-.16-.137m3.039-.03l.16.137-.063.061-.137-.16.04-.038M57 129.477l.795-.566.065-.411 1.14 1.065c-.19.1-.408.212-.712.37l-.225.565L57 129.477"/></g></svg>