<svg xmlns="http://www.w3.org/2000/svg" xmlns:xlink="http://www.w3.org/1999/xlink" width="80" height="80"><defs><circle id="englishdom__a" cx="40" cy="40" r="40"/></defs><g fill="none" fill-rule="evenodd"><use fill="#4FC87A" xlink:href="#englishdom__a"/><g fill="#FFF"><path d="M46.548 39.452h-2.374v9.261l2.374-.026c2.974 0 4.304-1.696 4.304-4.617 0-2.922-1.382-4.618-4.304-4.618z"/><path fill-rule="nonzero" d="M57.896 16.157H21.739A5.723 5.723 0 0016 21.896v36.156a5.723 5.723 0 005.74 5.74h36.156a5.74 5.74 0 005.739-5.74V21.896a5.723 5.723 0 00-5.74-5.74zM53.904 56.59h-27.47v-2.348h27.47v2.348zM37.078 42.583v2.53h-7.356v3.574h8.139v2.687H26.435V36.79h11.27l.025 2.609h-8.008v3.183h7.356zm9.861 8.739h-6V36.765h6c4.591 0 7.2 2.583 7.2 7.278 0 4.696-2.582 7.279-7.2 7.279zm7.826-17.113c-.287.417-.73.626-1.174.626-.26 0-.495-.078-.73-.209l-13.07-8.374-13.07 8.374a1.347 1.347 0 01-1.851-.417 1.347 1.347 0 01.417-1.852l14.53-9.314 14.53 9.314c.627.39.81 1.226.418 1.852z"/></g></g></svg>