<svg xmlns="http://www.w3.org/2000/svg" xmlns:xlink="http://www.w3.org/1999/xlink" width="80" height="80"><defs><circle id="reebok__a" cx="40" cy="40" r="40"/></defs><g fill="none" fill-rule="evenodd"><use fill="#F3F3F3" xlink:href="#reebok__a"/><path fill="#C41230" d="M40.399 10h1.76c1.062 2.036 2.283 3.99 3.408 5.994 3.502 6.07 7.002 12.142 10.504 18.213 1.74 2.965 3.398 5.983 5.189 8.918v.323c-.352.4-.576.888-.867 1.33-3.836-2.566-7.66-5.15-11.496-7.717-.31-.217-.68-.388-.868-.73-2.225-3.873-4.457-7.743-6.685-11.613-.152-.276-.122-.604-.15-.908-.243-4.603-.562-9.205-.795-13.81m-3.063 0h1.543c.15.273.066.6.07.895-.273 4.132-.52 8.265-.771 12.399-.052.527.027 1.105-.262 1.575-2.23 3.821-4.42 7.666-6.645 11.49-.426.544-1.105.802-1.642 1.217-2.994 2.024-5.996 4.031-8.99 6.053-.55.35-1.058.773-1.661 1.031-.248-.482-.606-.914-.766-1.435C24.55 32.131 31.009 21.101 37.336 10m-4.594 29.363c1.785-.094 3.58.03 5.367-.07 2.7-.013 5.4-.002 8.1-.006.383-.025.716.182 1.048.345 4.125 2.102 8.265 4.18 12.386 6.29-.012.493-.49.915-.658 1.394H20.539c-.26-.467-.677-.906-.748-1.436 2.043-1.092 4.131-2.11 6.202-3.154 2.262-1.094 4.463-2.32 6.749-3.363"/><path fill="#FFF" d="M15.159 52.16c.965.005 1.93-.004 2.895.004.57.037 1.188.163 1.603.587.33.346.39.863.304 1.317-.056.343-.253.672-.563.841-.431.24-.938.288-1.422.3-.94-.004-1.88.006-2.82-.005-.002-1.014-.007-2.03.003-3.045m9.89 2.49c.424-.462 1.1-.56 1.689-.5.49.046 1.004.26 1.268.704.206.314.256.703.24 1.073-1.195 0-2.39.002-3.585 0-.001-.45.066-.941.388-1.278m8.973-.012c.397-.424 1.012-.528 1.563-.498.49.024 1.006.198 1.314.603.268.327.328.767.32 1.178-1.194.015-2.388.003-3.581.006-.034-.456.06-.95.384-1.29m9.975-.247c.567-.15 1.202-.081 1.702.248.443.287.672.841.67 1.373-.003.755.002 1.51-.003 2.265-.015.565-.32 1.119-.812 1.372a2.19 2.19 0 01-1.917.014c-.536-.25-.862-.854-.855-1.457.01-.804-.015-1.61.012-2.413.047-.684.56-1.27 1.203-1.402m8.9.015c.625-.175 1.352-.111 1.877.311.382.308.55.823.561 1.314.008.681 0 1.363.004 2.043.001.484-.13.999-.484 1.331-.451.435-1.106.53-1.693.442-.401-.07-.803-.255-1.062-.596-.258-.327-.35-.764-.35-1.18.002-.656.002-1.312.002-1.967.001-.383.077-.779.29-1.096.198-.309.52-.502.855-.602"/><path fill="#231F20" d="M15.164 52.112c-.01 1.014-.005 2.029-.003 3.043.94.01 1.879.001 2.818.005.483-.012.99-.06 1.42-.3.31-.17.507-.497.563-.84.086-.454.027-.971-.303-1.317-.415-.424-1.033-.55-1.602-.587-.964-.008-1.928 0-2.893-.004zM13 50.19c1.464-.009 2.927 0 4.391-.003.638-.005 1.28.02 1.905.157.801.171 1.599.545 2.104 1.212.563.735.687 1.718.568 2.615-.108.808-.555 1.571-1.24 2.02-.714.495-1.609.609-2.457.55 1.238 1.376 2.468 2.76 3.705 4.137.124.135.245.273.353.422-.913.012-1.825.003-2.739.005-1.303-1.44-2.596-2.892-3.896-4.335-.17-.187-.325-.392-.52-.553-.03 1.622-.013 3.245-.008 4.868-.72.047-1.444.008-2.166.02V50.19zm31.003 4.197a1.533 1.533 0 00-1.21 1.371c-.027.786-.003 1.575-.012 2.361-.007.59.321 1.183.86 1.427a2.259 2.259 0 001.928-.014c.496-.248.802-.79.817-1.343.005-.739 0-1.477.003-2.216.002-.52-.228-1.063-.674-1.344-.503-.322-1.142-.39-1.712-.242m-3.375-4.184a40.302 40.302 0 012.156-.005c-.002.918-.008 1.836.003 2.754.358-.241.762-.41 1.187-.482 1.098-.184 2.303-.017 3.21.678.843.635 1.328 1.694 1.337 2.752 0 .74-.002 1.48 0 2.22.006.907-.324 1.824-.958 2.47-.677.7-1.644 1.022-2.59 1.078h-.841a4.115 4.115 0 01-2.139-.815c-.464.156-.835.641-1.364.528.004-3.726.007-7.453-.001-11.178m17.945-.016c.721 0 1.442-.002 2.164 0 .008 1.99.007 3.98 0 5.968.572-.576 1.08-1.217 1.628-1.817.578-.656 1.154-1.313 1.735-1.966.883-.01 1.766.014 2.648-.013.013.112-.085.18-.146.257-1.228 1.378-2.436 2.774-3.67 4.146 1.015 1.154 2.062 2.282 3.09 3.427.32.374.684.714.978 1.11-.867.016-1.734.002-2.6.008-.168.021-.24-.16-.344-.254-1.107-1.217-2.2-2.448-3.318-3.655.006 1.301.004 2.603.001 3.905-.721.006-1.444.004-2.166.001-.007-3.706-.006-7.411 0-11.117m-33.556 4.539c-.328.347-.398.853-.396 1.316 1.221.003 2.442.002 3.664 0 .016-.38-.035-.781-.245-1.105-.27-.458-.797-.678-1.297-.726-.602-.06-1.292.04-1.726.515M23.5 53.39c.757-.753 1.845-1.057 2.879-1.05.959-.024 1.956.207 2.732.808.631.48 1.053 1.217 1.205 2.004.127.613.072 1.242.083 1.864-.007.214.028.433-.03.643a323.242 323.242 0 00-5.742.003c-.03.592.063 1.254.498 1.686.392.376.958.442 1.469.49.511-.007 1.076-.05 1.485-.401.193-.157.248-.407.325-.632a26.516 26.516 0 011.966 0c-.06.71-.308 1.426-.813 1.93-.57.59-1.383.864-2.174.932-.552-.014-1.103-.001-1.655-.004-.846-.116-1.678-.487-2.277-1.122-.623-.652-.96-1.572-.941-2.482.003-.748 0-1.497.001-2.245.023-.894.348-1.802.99-2.424m10.505 1.32c-.33.348-.426.858-.392 1.328 1.216-.003 2.433.009 3.648-.006.009-.423-.053-.878-.326-1.214-.313-.417-.84-.597-1.338-.622-.561-.03-1.188.076-1.592.513m-1.443-1.405c.782-.71 1.86-.986 2.887-.965 1.053-.011 2.162.301 2.931 1.07.709.687 1.031 1.717.988 2.702-.019.514.035 1.034-.026 1.544-1.9-.027-3.801.008-5.701-.018-.093.549.014 1.164.368 1.6.387.467 1.027.55 1.587.594.565-.017 1.247-.065 1.611-.576.117-.132.09-.35.207-.468.64-.005 1.28-.004 1.92 0-.045.756-.337 1.52-.894 2.031-.578.534-1.357.777-2.118.849-.53-.025-1.06-.02-1.59-.016-1.039-.114-2.056-.659-2.653-1.552-.394-.572-.587-1.273-.6-1.97v-2.242c.013-.96.369-1.94 1.083-2.583m20.327 1.064c-.338.099-.664.29-.863.594-.216.313-.293.704-.295 1.083v1.94c-.002.412.092.843.352 1.166.262.337.669.52 1.074.588.594.088 1.255-.007 1.711-.436.358-.328.49-.836.49-1.314-.004-.672.004-1.344-.004-2.017-.01-.485-.181-.993-.567-1.297-.531-.417-1.266-.48-1.898-.307m-.168-1.975c1.11-.141 2.31-.036 3.274.594.7.447 1.194 1.193 1.38 2.013.166.659.102 1.343.114 2.015-.013.652.05 1.313-.095 1.954-.168.832-.65 1.6-1.349 2.063a3.835 3.835 0 01-1.735.63c-.48-.005-.962-.012-1.442.005-.994-.094-1.994-.557-2.598-1.394-.35-.468-.546-1.04-.626-1.618-.072-.495-.034-.997-.043-1.495.014-.787-.067-1.594.165-2.358.22-.763.713-1.442 1.383-1.85.475-.305 1.021-.476 1.572-.559"/></g></svg>