<svg xmlns="http://www.w3.org/2000/svg" xmlns:xlink="http://www.w3.org/1999/xlink" width="60" height="60"><defs><path id="netorn__a" d="M29.703 59.405c16.404 0 29.702-13.298 29.702-29.702C59.405 13.298 46.107 0 29.703 0 13.298 0 0 13.298 0 29.703c0 16.404 13.298 29.702 29.703 29.702z"/></defs><g fill="none" fill-rule="evenodd"><mask id="netorn__b" fill="#fff"><use xlink:href="#netorn__a"/></mask><use fill="#253640" xlink:href="#netorn__a"/><g fill="#FCFEFE" mask="url(#netorn__b)"><path d="M37.844 42.683c-1.572-2.099-3.143-4.229-4.758-6.326-.27-.351-.73-.793-1.103-.794-1.933-.002-3.866.109-5.797.212-1.433.077-2.863.204-4.62.332l2.371 6.625c-.636-.508-1.175-.77-1.46-1.196a43.88 43.88 0 01-2.327-3.865c-.698-1.325-.891-1.538-2.065-.81a.403.403 0 00-.004.682s.623.576.558.747c-1.783-.231-3.569-.444-5.345-.72-.249-.039-.609-.399-.62-.625-.012-.232.293-.618.54-.701 1.123-.376 2.258-.767 3.42-.975 5.72-1.024 11.476-.765 17.232-.394.49.032.98.072 1.505-.107-.988-.159-1.994-.25-2.957-.503-.536-.14-1.13-.44-1.473-.851-1.02-1.218-1.899-2.552-2.906-3.782-.26-.318-.796-.6-1.197-.59-1.643.043-3.282.23-4.926.31-.708.036-.908.357-.889 1 .032 1.046.009 2.093.009 3.24l-2.299.176-.562-3.93-1.832.676a.544.544 0 00-.17.925c.426.363.919.742.919.742-2.3.137-4.33.146-6.31-.466-.328-.102-.778-.41-.775-.772.003-.38.458-.831.796-.965 1.609-.64 3.932-1.382 5.934-1.488 4.59-.244 9.2-.128 13.8-.157.285-.002.57 0 .882-.186-1.24-.176-2.477-.412-3.724-.508-.85-.065-1.454-.34-1.927-1.06a22.457 22.457 0 00-1.99-2.632c-.266-.298-.833-.509-1.226-.462-.296.036-.58.519-.783.853-.14.23-.134.547-.191.825-.45 2.185-.45 2.185-2.96 1.797l.83-3.287-2.214.748a.573.573 0 00-.163 1.005s.35.405.682.719c-1.519-.196-3.327-.374-4.828-.66-.385-.073-.923-.588-.947-.93-.025-.347.428-.94.796-1.062 1.354-.451 2.74-.903 4.149-1.081 4.15-.523 8.285-.182 12.15.404.143.512.151.9.341 1.155.997 1.342 1.978 2.703 3.085 3.955 1.333 1.507 2.328 3.25 3.69 4.733a26.184 26.184 0 012.6 3.354c.33.504.647.82 1.195 1.453 2.022-6.983.81-13.47-1.714-19.899 3.504 3.43 5.394 7.553 5.437 12.445.044 5.006-3.015 11.615-5.86 12.671"/><path d="M20.668 21.328c1.1-1.547 1.662-3.237 3.557-3.986l3.847 4.938c-2.586-.333-4.891-.63-7.404-.952"/></g></g></svg>