<svg xmlns="http://www.w3.org/2000/svg" xmlns:xlink="http://www.w3.org/1999/xlink" width="60" height="60"><defs><path id="jku-moscow__a" d="M30 60c16.569 0 30-13.431 30-30C60 13.431 46.569 0 30 0 13.431 0 0 13.431 0 30c0 16.569 13.431 30 30 30z"/></defs><g fill="none" fill-rule="evenodd"><use fill="#D32F39" xlink:href="#jku-moscow__a"/><path fill="#221F20" d="M16.386 6.68c-.273.041-.378.23-.336.545l1.868 2.643c.063.126.189.252.168.357-.147.357-.21.588.104.902l.63.61c.063.44.147.796.294.922-.147.294.042.566.293.84.063.083.084.188.189.272l.105.902c-.881.735-1.322 1.28-1.406 1.616-.042.19-.084.336.042.44l1.238-.125c.105.063.23.084.273.167.189.441-.063 1.133-.734 1.217-1.532.378-2.644.903-2.203 1.931.566.734.272 1.385-.693 1.972-.231.21-.336.483-.294.84-.272.23-.482.587-.671.986-.147.42-.147.608.147.566 2.14-.713 4.238-1.007 5.728.231.734.608.608.923 1.763.986-.126.483 0 .755.419.84l.063.545c-.462.105-.986.105-1.448.231-.524.126-1.028.335-1.49.335-.398-.314-.86-.503-1.237-.734-1.931-1.196-3.546-1.259-4.952.378-.735.86-1.406 2.035-1.952 3.84-.104.314-.356.44-.86.146-1.007-.818-1.196-1.552-.692-2.035.713-.67.986-.273.608.084l.02.084c.547 0 .757.378.966.776.462-1.196.21-2.014-.44-2.664l-.147-.02.063 1.027c-1.112-.23-1.721.63-1.805 1.426-.063.777.294 1.47 1.3 2.057.568.19.736.84.295 1.49-1.091 1.594-.923 3.294.063 5.476l.126-.063c.21-2.392.713-3.609 1.51-3.84.252-.084.483-.252.693-.524.23-.357.357-.315.525.063.44 1.007.398 1.972-.21 2.937-1.385 2.245-1.448 3.966.524 5.33l.063.167-.524.672c-.168.273-.042.608.419.986.336.4.504 1.05.609 1.867-.168.252-.19.567-.084.924.294.42 1.007.65 2.014.545.105-.02.084-.105.084-.21.084-.46-.231-.797-.566-1.364-.987-.88-1.196-1.72-.882-2.538l.147-.23c.777.272 1.763.586 2.665.712-.378.777-.336 1.742 0 2.308.629 1.091 1.3 1.595 2.58 1.49 1.7-.147 2.54-1.553 1.91-3.462.609-.336 1.007-.315 1.217.063-.021.86.357.587.378 1.427-1.007.881-1.385 1.636-.294 2.12.567.565.252.775-.483.817-.776-.189-1.342-.147-1.447.483-.714.042-.924.461-.903 1.133.21-.504.609-.546.819-.42.377-.02.776.084 1.112-.063.315-.147.67-.147 1.07.021.21 0 .357.084.462.252.503.525.44-.063 1.552.61.273.02.735 0 .819.44l.104-.4c.084-.146.042-.314-.125-.46-.357-.42.209-.442 1.196-.253.524.231 1.007.336 1.384.273.44-.44.546-.168.63.42.315-.86.105-1.322-.756-1.364.147-.462.21.23.525-.336.273-.126.546 0 .818.273.063-.42-.19-.672-.734-.798-.126-.356-.4-.377-.776-.02-1.595-.42-1.763-1.385-.861-1.574.483-.126.672.377 1.049.524.294.105.44.063.84.105.44.021.839.105 1.112.294l.315.105c.167-.126.335-.105.545.084.23.335.462.377.672.105.629-.504 1.573-.504 1.51-.189-.021.461.063.63.23.587.148.021.21.21.21.546-.608-.02-1.027.084-1.027.524-.567.168-.546.567-.294 1.092-.063-1.008.797-.189 1.637-.735l.587-.063c.063.294.336.42.86.4.189-.085.483-.085.672-.127 1.028-.273 1.846-.21 2.455.63.126-.252.105-.525-.063-.777.713-.483 1.49-.294 1.028.483.42-.21.839-1.28.294-1.259.23-.63 1.175-.105.902.356.399-.209.462-.524-.021-.923-.063-.356-.357-.46-.881-.315-.294-.503-.672-.524-1.175-.083-.504.23-.903.251-1.154-.084-.273-.44-.21-.65.167-.504.189.063.273-.168.504-.608.084-.189.252-.336.378-.588.545-.084.986-.566 1.552-1.532.399-.188.588-.965.609-2.182.168.084.378.021.65-.147-.188-.02-.272-.084-.272-.566h.524c.21-.084.294-.168.273-.273 0-.084-.21-.063-.357-.294-.063-.293-.231-.587-.545-.88l-.504-.819c-.357-1.133-.776-1.784-1.301-1.364l-.147-.084c-.398-.44-.692-1.028-.923-1.679.02-.797-.818-.839-1.26-.084l-.125-.629-.21.336-1.321-1.91c.146-.02.398-.168.545-.189 1.616-.125 3.23-.608 4.889-1.53l1.175-.358c.525-.21.692-.042.965.231l1.196 1.238c.23.252.23.482.105.734-.126.252.168.588.588.944.377.42.419.987.084 1.7-.19.462-.147.755.125.902l.819.588c.545.44.818.293.797-.483a2.898 2.898 0 00-.4-1.175c-.271-.482-.46-.944-.481-1.427-.021-.965-.147-1.468-.546-1.804a6.714 6.714 0 01-1.175-1.49c-.105-.315-.19-.503-.356-.587-.042-1.008-.777-1.51-1.238-1.238-.4.084-.777.126-1.196.063v-.23c.524-.295 1.426-1.218 2.329-2.225.335-.42.503-.252.839.084l1.3 1.363c-.041.672.064 1.113.525 1.071.315.545.462 1.07.168 1.3-.294.252-.524.42-.524.777.063.524.67 1.07 1.343 1.322.062.021.167-.02.209-.105a2.19 2.19 0 00.02-1.553l-.23-.776c-.041-.315 0-.567.022-.798.062-.608.083-.944-.567-1.405-.818-.84-1.511-1.7-2.077-2.602.02-1.196-1.007-1.51-1.658-.21l-1.26.881c-.314.21-.523-.126-.523-.46-.126-1.575-1.196-2.834-2.371-4.05-.63-1.91-1.49-3.505-1.805-4.974 1.196.126 2.098.357 2.455.714.525.566 1.196.86 1.364.461.063-.126-.315-.356-.504-.545.21 0 .483.19.777.482.524 0 .692-.398.545-.944.063-.44.042-.776-.147-.923l-.44-.252c-.735-.797-1.343-1.595-1.847-2.476a.508.508 0 01-.084-.273c0-.356-.105-.67-.461-.986l.168-.084-.021-.126.377.084-.377-.629c-.21-.776-.924-.902-1.994-.588-.147.042-.335-.125-.524-.335-.672-.65-1.385-1.007-1.133-.525.042.084.252.315.02.294l-1.153-.189c-.252-.042-.294.042-.231.168.21.231.42.441.503.692l-1.468.084c-.294.021-.546.147-.82.126-.796-.67-1.782-.168-2.81.61l-.147-.064-.021-1.196h.126l-.105-.777h.084c.084-1.175-.147-1.93-.588-2.455-.084-.356.273-.314.357-.419.336-.42.315-.902.315-1.154-.063-.504-.231-.672-.483-.504h-.294c-.314-.042-.566-.147-.692-.294-.336-.23-.65-.23-.965-.02-1.511.377-1.784 1.552-3.63.755-.21-.02-.252.063-.168.231.315.42.755.692 1.238.902-.168.126-.504.147-1.05.105.316.42.924.63 1.868.608.357.21.777.126 1.238-.063.252-.147.273-.063.105.273-.482.4-.818 1.175-.881 2.581a2.546 2.546 0 00-.357.965c-.692-.189-1.301-.315-1.552-.105l-.273-.02c-.61-.462-1.196-.44-1.68-.127l-1.07.82c-.398.271-.733.292-.796-.043l-.441-.945c.02-.67-.231-.986-.692-1.028-.21-.189-.357-.419-.4-.67l-.314-.4c.105-.357-.042-.482-.293-.482-.273 0-.525-.042-.672-.147L16.386 6.68zm-1.49 26.038c1.51 1.741 1.784 3.714.546 6.001-.462 1.112-.4 1.825.21 2.161.167-.378.314-.965.398-1.574.126-.944.735-.839 1.532-1.657.86-.88.608-1.805.525-3.273-.147-3.148.503-4.973 1.426-6-2.35-.652-3.776 1.09-4.637 4.342zm6.127 12.463c.336.147.336.462-.084.651-.315-.126-.294-.399.084-.65zm5.372 2.204c-.231.167-.336.356-.21.608l.46.4c.19-.169.148-.42-.062-.589-.105-.084-.167-.23-.188-.419zm10.973.923c-.356.19-.44.398-.105.608.23.147.357.168.399.063.42-.084-.168-.315-.294-.67zM25.47 41.531c-.755-.777-.84-1.469.02-2.057.484-.335 1.197-1.112 2.079-2.287.587-.042 1.112-.168 1.699-.252 2.35-.293 4.574-.797 6.358-1.783.335-.105.587-.042.734.21l1.385 1.825-.4.147 1.05.797c-.188.147-.063.252.168.336-.126.19-.042.378.147.357.084.252.273.63-.273.105-.335-.168-.377 0-.105.524l.567.82c.042.376.189.691.483.964l.46.944c0 .147.085.294.127.42.063.356.147.545.44.587-.293.567-.671 1.091-1.3 1.427-1.238.671-2.224.4-2.12-1.238.064-.88.23-1.616.252-2.518.357-1.406.02-2.119-1.196-2.203-.63.021-1.112.021-1.468.273-.336.231-.82.147-1.47-.23-1.258-.945-2.202-1.449-2.832-1.449.609.693.777 1.385.294 2.077.504.231.483.462-.021.693-1.217.042-2.581-.21-4.008-.609-.461-.084-.545 0-.23.252 1.049.42 1.615 1.05 1.615 1.93-.671.021-1.238.063-1.552.126-.294.19-.61.168-.903-.188zm-8.581 0c.335-1.259 1.112-1.91 2.392-2.12 1.237-.21 2.6-.902 4.09-1.594.63-.462.714-.252.253.65l-.714.818c-.377.42-.461.861.063 1.28.714.357 1.008.693.903.986-.777-.209-1.49-.104-2.1.462-.44-.126-.964-.063-1.698.294-.378-.21-.797-.23-1.301-.084-.126-.315-.483-.399-1.091-.294-.168-.189-.441-.315-.797-.398z"/><path fill="#FEFEFE" d="M46.81 34.544c.042-.042.147.042.21.147.084.126.105.252.063.273-.042.02-.147-.042-.21-.168-.084-.126-.105-.231-.063-.252m.294 1.7c.063 0 .126.188.126.398 0 .21-.063.399-.126.399-.084 0-.126-.19-.126-.4 0-.21.042-.397.126-.397m-.441 1.51l.21-.44c.105-.147.189-.147.252-.021l.503.46c-.105.106-.335.106-.503.148l.168.273-.168.084-.063.23c-.315-.251-.504-.482-.4-.734m1.658-5.56l.106-.483c.02-.125.063-.104.126 0 .168.21.315.42.357.777.04.147.02.23-.084.252-.126.02-.231-.042-.336-.147-.147-.168-.19-.273-.168-.4zm-.167-1.658c-.21-.251-.168-.398.105-.377-.252-.4.02-.483.273-.063.126.189.147.566.105 1.007-.021.126-.168.168-.21 0a2.039 2.039 0 00-.273-.567zm0 1.952c-.063-.063-.126-.042-.19.02-.23.274-.271.483-.146.672l.462.357c.147.126.315.063.23-.063l-.167-.231c.105.042.189.147.294.147.084 0 .105-.126 0-.21-.168-.168-.21-.231-.105-.336.042-.042.042-.083-.021-.125l-.357-.231zm-4.574-3.295c.02-.399.105-.818.252-1.217.063-.189.147-.21.252-.105.377-.608.293-.273.125.19l.105.062c.462-.86.273-.168.23.21-.335.42-.565.503-.67.21l-.105.545c-.084.252-.147.294-.19.105m-2.433-.65c-.084-.399.042-.462.189-.084.23.545.357 1.238.336 2.077 0 .315-.252.336-.273.042-.084-.735-.105-1.427-.252-2.035m-.273-1.385c.147-.02.336.147.378.377.063.252-.042.462-.19.504-.167.021-.335-.126-.398-.378-.041-.252.042-.46.21-.503m-.566 1.028c.042-.02.126.042.189.147.063.126.063.231.02.251-.041.021-.125-.04-.188-.167-.063-.105-.063-.21-.021-.23m1.93.167c.042-.02.126.063.189.168.042.104.063.21 0 .23-.042.042-.126-.042-.168-.147-.063-.104-.063-.23-.021-.25m3.043-1.47c-.126-.168-.147-.378 0-.525a.335.335 0 01.46-.063c.127.063.169.147.169.21l-.252.084.315.084c.168.147.02.42-.126.19-.126-.127-.273-.148-.42-.064 0 .19-.042.231-.146.084m-2.225 2.581l.126-.819-.147.294c-.125 0-.146-.126-.167-.377-.021-.294 0-.399.167-.336l.105.273.084-.189c.147-.084.168 0 .105.252l-.042.902c-.084.126-.147.356-.231 0m-3.021-2.245l.084-.063c.02-.02.063-.02.084.021l.315.398a.064.064 0 010 .084l-.084.063c-.021.021-.063.021-.084-.02l-.336-.399c-.021-.02-.021-.063.02-.084m2.078 3.105c.042 0 .063.042.063.084s-.021.084-.063.084c-.042 0-.063-.042-.063-.084s.02-.084.063-.084m-1.217-3.504c.02-.88.126-1.595.126-2.245 0-.273.189-.273.189.042.042.692-.042 1.406-.126 2.14 0 .105-.19.294-.19.063M15.043 43.797c-.147.567-.776.273-.462-.231.777-1.259 1.532-2.518 1.679-4.217.042-.609.42-.881.902-1.154 1.028-.567 1.385-1.532 1.364-2.623-.231-4.742 1.09-6.819 3.126-7.638l-.063.189c-1.825 1.112-2.58 3.253-2.601 6.169-.021.65-.084 1.322 0 2.035l.063-.147c.063-1.72.063-3.189.272-4.196.23-1.112.588-1.783.945-2.266.125-.168.23-.378.356-.504.168-.168.357-.209.504-.356l-.021.147c-.693.692-1.28 1.573-1.553 2.727-.294 1.322-.315 2.854-.21 4.448-.021.231-.063.42-.147.588l.084-.042c.126-.252.189-.546.189-.902-.147-1.931 0-3.882.693-5.246.482-.944.776-1.301 2.119-2.056l-.042.147c-1.133.776-2.203 1.678-2.413 4.742l.063-.063c.21-2.329 1.049-4.05 2.602-4.679.545-.231 1.196-.189 1.909-.189l-.126.105c-1.091-.105-2.035.273-2.853 1.133l.125.042c.777-.797 1.679-1.238 2.812-.986l-.084.168c-.797-.126-1.47.167-2.098.65v.084c.713-.483 1.364-.713 1.993-.588.21.021.273.189.21.441l-.126 1.154c-.021 1.112-.084 2.203-.356 3.189l-.105.084.105-1.93-.441 2.392c-.042.273-.231.231-.19-.021.106-.504.274-1.196.379-1.93-.105.021-.19.084-.21.23-.126 1.029-.294 1.868-.525 2.162.147-.651.23-1.301.252-1.952l-.126.105-.314 1.826c.23.125-.063.314-.147.084l.105-1.008-.084-.021-.441 1.616.147-1.112-.378 1.112h-.147l.189-.944-.63 1.72c-.188.042-.21-.021-.062-.314l.398-1.175-.126.021c-.251.86-.44 1.468-.755 1.657l-.105.021c.44-.776.504-1.154.525-1.532-.231.735-.462 1.259-.881 1.7-.063-.063.02-.252.272-.713l.23-.609c-.104-.126-.167-.084-.23.105-.147.525-.293.881-.566 1.217l.273-1.028-.042-.126c-.19.609-.441 1.133-.798 1.448l.168.084c.567-.378 1.343-.252 2.14-.609.168-.084.336-.126.44-.042l-.146.399-.147-.231c-.084.315-.21.609-.378.734l-.062-.461c-.336.734-.567 1.133-.588.776l.063-.44c-.252.251-.42.545-.483.902-.125-.021-.146-.273-.105-.63l-.21.777c-.188.042-.23-.168-.125-.63-.168.42-.315.714-.378.756-.084-.126-.105-.336-.042-.609l-.21.399c0 .294-.084.398-.21.377.063-.44.063-.608-.02-.503l-.252.671c-.147.084-.19-.084-.168-.461-.231.126-.168.587-.336.776-.126-.084-.147-.294-.126-.524-.105.356-.21.566-.356.587l-.042-.692c-.063.314-.147.566-.273.776l-.19-.504-.083.483c-.147.084-.273-.042-.357-.357-.021.651-.084 1.196-.503 1.469.042.168-.147.609-.4 1.112l.673-.986c.146-.042.209.042.146.357l-.692 1.133c-.105.126-.231.084-.357 0-.147.566-.398.965-.65 1.343.294-.189.482-.588.713-1.134.042-.167.23.042.168.378l-.168.147.02.252-.21.021v.336l-.187.083c.188.462-.042.756-.504.525m3.944-15.8l.818-.147-.042.168zm-7.637 6.4c.105-.4.378-.63.65-1.112.168-.273.23-.084.21.168-.356.524-.63.797-.86.944"/><path fill="#FEFEFE" d="M19.932 27.62c-1.343-1.196-2.665-1.825-3.651-1.616-1.867.42-2.77 2.14-3.315 3.777.315-.545.587-.902.923-1.007-.923 1.469-1.448 2.959-1.532 4.679a1.14 1.14 0 01-.335.546c-.588.44-.546.797-.651 1.154.126-.084.273-.357.462-.588.252-.315.545-.65.67-1.196.19-.734.274-1.47.42-2.014.21-.714.42-1.196.798-1.826.672-1.112 1.532-2.12 2.518-2.538v.083c-.965.525-1.657 1.322-2.434 2.56-.19.315-.315.609-.482 1.049-.168.399-.336.86-.378 1.385-.126 1.133-.4 1.868-.713 2.308-.336.44-.546.63-.61.84-.041.104-.125.293-.104.503.734-1.385 1.07-1.26 1.385-2.245.44-1.511.147-3.063 2.16-5.266h.148c-.965 1.112-1.616 2.16-1.951 4.406-.063.377-.126.902-.294 1.217-.252.482-.776.86-.923 1.343l.105-.021c.25-.252.755-.84.944-1.238.608-1.175.398-2.75 1.175-4.008 1.007-1.658 1.783-2.518 3.02-3l.148-.021c-1.7.902-1.993 1.552-2.728 2.559-.251.336-.44.672-.65 1.3-.19.547-.315 1.386-.42 2.037a3.441 3.441 0 01-.776 1.762c-.19.23-.336.336-.483.546-.126.189-.251.545-.314.797l.105-.042c.46-1.238.734-.965 1.07-1.385.188-.252.482-.755.566-1.343.126-1.217.378-2.14.798-2.937.44-.881 1.133-1.847 1.909-2.497.357-.294.629-.462 1.112-.61h.105c-.567.379-.944.484-1.385.904-.713.67-1.406 1.678-1.741 2.539-.357.818-.546 1.72-.651 2.643.02-.126.084.063.126-.042.378-2.182 1.154-3.714 2.14-4.7.546-.566 1.196-.986 1.805-1.133l.398-.021c-.923.252-1.804.693-2.476 1.72l.126-.02c.819-.881 1.637-1.28 2.434-1.47l.126.022c-.545.189-1.05.399-1.364.693l.042.125c.609-.398 1.532-.608 2.623-.713m-8.393 9.169a.997.997 0 01-.147-.525c.02-.251.21-.23.252-.063.042.315-.105.336-.105.588m2.434 2.245l.21-.231c.105-.063.23-.084.315-.042-.021.105-.252.21-.525.273m-.189.65l.273-.293c.147-.105.314-.127.44-.063-.042.125-.335.272-.713.356m.021.336l.315-.273c.147-.084.335-.105.46-.02-.041.104-.397.23-.775.293m.084.294l.294-.252a.47.47 0 01.44-.021c-.063.126-.377.23-.734.273m.147.315l.189-.21c.105-.063.23-.084.315-.042-.021.084-.252.189-.504.252m1.07-3.357l.168-.105c.084-.043.189-.022.23.02-.02.064-.21.085-.398.085m-.273.356l.357-.168c.168-.02.335 0 .419.105-.084.105-.398.126-.776.063m.21-.86l.273-.21a.399.399 0 01.377 0c-.062.105-.335.168-.65.21m.21-.504l.273-.063c.126 0 .252.063.294.147-.063.063-.315.021-.567-.084m-.588 5.645l.19-.105a.396.396 0 01.23.02c-.02.064-.21.106-.42.085m.588-.651l-.462.063c-.188.084-.335.252-.356.4.147.041.482-.169.818-.463m-.21-.21h-.357c-.168.042-.293.147-.314.273.104.042.398-.084.67-.273m1.638 1.721l.21-.441a.588.588 0 01.46-.23c0 .146-.293.44-.67.67m.944-.44l.378-.147c.189 0 .356.063.44.168h-.021c-.021.126-.272.357-.587.525l.189-.357a.913.913 0 01.147-.126h-.126c-.084.105-.252.231-.441.357l.147-.294c.02-.042.063-.063.084-.084-.063-.02-.126-.02-.21-.042m1.825.063c.126-.063.567.042.504.19-.021.125-.294.356-.588.565l.168-.377c.042-.063.084-.084.126-.126h-.147a1.9 1.9 0 01-.42.356l.126-.314c.021-.02.063-.042.084-.063-.042 0-.084-.02-.105-.02-.063.083-.189.167-.315.251l.084-.21c.147-.189.252-.168.483-.252m2.707-.063c0-.357.273-.567.797-.629.609-.084 1.343.042 1.133.314h-.063l-.104.252-.231.42.147-.462.063-.23c-.063-.022-.168-.064-.273-.085l-.19.19-.314.356.252-.42.105-.168c-.042 0-.084-.02-.126-.02l-.19.188-.314.357.252-.399.105-.168h-.168l-.126.19-.293.377.209-.44.063-.106a3.404 3.404 0 00-.23.063l-.147.357.063-.336c-.19.084-.357.19-.42.4m-1.973.293v-.042h.042l.525-.336c.356-.168.797-.23.734.063 0 .021-.042.063-.126.084 0 .105.021.231.021.357l-.147-.315h-.084c0 .168 0 .336.021.504l-.21-.462c-.042.021-.063.021-.105.021.021.231.021.483.021.734l-.293-.608v-.042c-.042.126-.063.273-.105.399l-.063-.42c-.063.168-.147.378-.21.588l-.02-.441v-.105.021z"/><path fill="#FEFEFE" d="M14.182 28.438l.902-.902c-.356.147-.67.44-.902.902m4.952 16.408c-.084-.21-.189-.399 0-.88.168-.442.378-.568.504-.547.146.168-.042.504.042.923l-.336-.293.105.566-.252-.273-.063.504zm2.98.546c-.042-.084-.105-.126-.126-.126-.042.02 0 .105.042.189.063.084.126.126.147.126.02-.021 0-.105-.063-.19m0 .379c-.084-.127-.168-.19-.21-.169-.042.021 0 .126.084.252s.168.19.21.168c.02-.02 0-.126-.084-.252m-.189.357c-.063-.105-.126-.168-.147-.168-.042.021-.021.126.02.231.064.084.127.168.148.147.042 0 .02-.105-.021-.21m-.189.357c-.042-.168-.147-.294-.189-.273-.042.02-.042.168.021.336.042.147.126.273.168.273.063-.021.063-.168 0-.336m-2.455-.147c.126.02.21.063.21.105-.02.02-.126.042-.23.02-.106-.02-.21-.062-.19-.083 0-.042.105-.063.21-.042m-.105-.273c.147.021.252.084.252.126 0 .042-.126.063-.273.042-.147-.042-.252-.084-.252-.126 0-.042.126-.063.273-.042m-.063-.336c.168.042.294.105.294.147-.02.063-.168.084-.336.042-.168-.02-.315-.084-.294-.147 0-.042.147-.063.336-.042m5.456-3.567c-.126-.42.336-.567.818-.357.378.147.84.21 1.448.084a2.69 2.69 0 01.923-.02c.315.167.294.314-.063.377-.671.63-1.175 1.28-1.26 1.91-.23-.315.253-1.113 1.009-2.099-.462.357-.882.818-1.28 1.343.084-.336.356-.797.734-1.3-.818.608-1.385 1.51-1.301 3.188-.315-1.007-.105-1.972.546-2.916l-.903.944.819-1.259-.504.168.042-.189-.315.147v-.21l-.42.336.085-.357c-.147-.084-.252.042-.378.21m.377 2.371c-.042.252-.02.546.19.84.062.062.146-.022.104-.169-.147-.125-.23-.377-.294-.67"/><path fill="#FEFEFE" d="M25.995 44.657c.043 0 .084.105.084.252 0 .147-.041.273-.084.273-.042 0-.084-.126-.084-.273 0-.147.042-.252.084-.252m.965-1.07c.022.021.022.126-.02.231-.063.126-.126.21-.168.19-.042 0-.021-.127.02-.232.064-.126.127-.21.169-.189m.231-.503c.041.042 0 .126-.064.21-.063.105-.146.168-.168.147-.02-.021 0-.126.063-.21.064-.105.148-.147.169-.147m7.868.818c.357.126.399.629.21 1.238.02-.504-.063-.902-.21-1.238m-1.826 2.581a.99.99 0 00-.126-.315l.063.378.063-.063zm-4.112-6.337c.042 0 .105 0 .168.021l.168.273a.597.597 0 01-.19-.042l-.146-.252zm-.336 1.825c.042.022.105.127.126.232.021.104 0 .167-.042.146-.042-.02-.105-.104-.126-.21-.02-.105 0-.168.042-.168m.314-.021c.022-.02.085.063.106.168.042.105.063.19.042.21-.042 0-.084-.063-.126-.168-.042-.125-.063-.21-.021-.21m.378-.062c.041 0 .126.126.146.273.021.126.043.189-.063.189-.084.02-.063-.042-.084-.19-.02-.125-.02-.272 0-.272m.357-.126c.021 0 .105.105.168.273.042.147.063.294.021.294-.042.02-.105-.084-.168-.252-.042-.168-.063-.294-.02-.315m.377 0c.063-.021.126.126.168.294.042.189.02.335-.021.356-.042 0-.126-.146-.147-.314-.042-.19-.042-.336 0-.336m.42.063c.041-.021.168.189.189.357.041.168.063.25-.063.272-.148.02-.105-.062-.148-.251-.02-.168-.02-.378.021-.378m.273-.085c.063-.02.126.127.19.316.041.189.041.356 0 .356-.043.02-.127-.125-.169-.314-.042-.19-.063-.357-.02-.357m.44-.105c.042 0 .105.189.105.42 0 .23-.042.419-.105.419-.042 0-.105-.19-.105-.42 0-.23.042-.42.105-.42m.357.127c.042 0 .084.168.084.357 0 .21-.042.356-.084.356-.063 0-.084-.146-.084-.356 0-.19.02-.357.084-.357m.357-.105c.041 0 .083.189.083.42 0 .23-.042.419-.084.419s-.084-.19-.084-.42c0-.23.042-.42.084-.42m.378-.104c.063.02.084.21.063.483-.042.23-.084.44-.147.44-.042 0-.063-.21-.042-.461.021-.252.063-.462.126-.462m.503-.022c.064 0 .064.21.022.463-.042.25-.105.44-.168.44-.042 0-.063-.21-.021-.461.042-.252.126-.441.168-.441m.399-.231c.062 0 .167.315.125.608-.063.315-.147.567-.21.546-.063-.02-.02-.273.021-.566.042-.315.021-.609.063-.588M31.2 43.671c.02-.02.062.063.104.147.042.105.042.21.042.21-.02.021-.084-.063-.105-.147-.042-.105-.063-.21-.042-.21m.294-.105c.042 0 .105.105.147.231.042.126.042.19-.021.21-.084.042-.063-.042-.105-.168-.042-.105-.042-.252-.021-.273m2.832-.881v.147l.19-.126a5.74 5.74 0 00.02-1.028 9.331 9.331 0 01-.21 1.007"/><path fill="#FEFEFE" d="M34.116 43.147c-.105.546-.126.712-.336.901.084-.334.042-.587.042-.65-.063.021-.105.042-.147.042v.064c.02.21.02.482-.23.818-.021-.294.104-.568.104-.86-.062.02-.104.041-.167.063v.293a2.201 2.201 0 01-.168.462c.02 0 .105-.608.042-.735-.042.021-.105.021-.147.042v.084c-.021.063-.021.126-.063.126-.021 0-.042-.042-.042-.104-.021-.021-.021-.063-.042-.084-.021 0-.063 0-.105.02v.022c.02.063.02.103 0 .124-.021 0-.063-.061-.105-.124-.042 0-.084.02-.105.02.02.105.02.147-.063.188-.105.042-.105-.063-.126-.166-.063.02-.125.02-.188.04.02.085 0 .148-.021.148-.021.02-.063-.042-.105-.127h-.168c.02.085.02.127 0 .148-.021 0-.063-.043-.105-.127l-.021.022c0-.021 0-.021.02-.021-.02-.022-.02-.063-.041-.105-.063-.126-.084-.252-.063-.273.042-.02.105.063.168.21a.39.39 0 01.042.147.387.387 0 01.147-.041c0-.042 0-.063-.021-.084-.042-.169-.042-.316 0-.337.042-.02.105.105.147.273 0 .021.02.063.02.105.064-.02.105-.041.168-.063-.021-.104-.021-.146-.021-.21 0-.084 0-.126.02-.126.022-.02.127.127.169.294.042-.02.063-.02.105-.041-.021-.021-.021-.021-.021-.042-.042-.127-.042-.168-.042-.252-.021-.064-.021-.084 0-.105.02-.021.126.147.168.294 0 .02 0 .041.02.063.043-.021.064-.021.106-.042v-.338c0-.084.02-.126.042-.126.02 0 .042.042.063.105.02.084.042.19.063.294.042 0 .084-.02.126-.041v-.169c.02-.063.02-.105.042-.105.02-.02.063.105.084.21.063-.02.105-.041.168-.063v-.23c0-.063.02-.127.04-.127.022-.02.043.022.043.085a.621.621 0 01.042.21c.042-.021.084-.021.126-.063 0-.127.02-.253.02-.337.022-.084.043-.147.064-.147.02-.02.042.021.042.105.02.084.02.19.02.316a.298.298 0 01.127-.043c.147-.587.336-1.385.336-2.098-.042-.084-.084-.147-.126-.23-.042.797-.105 1.468-.357 1.909a5.26 5.26 0 00-.021-2.14h-.063c.02.86.02 1.574-.21 2.056a4.999 4.999 0 00-.21-2.245.298.298 0 00-.125-.042c.189.167.147.84.063.944-.126-.398-.021-.524-.378-.797h-.105c.189.21.21.524.168.776a2.484 2.484 0 00-.441-.671h-.19c.274.315.274.378.232.63-.105-.273-.524-.462-.692-.589-.084 0-.105.021-.19.021.21.105.505.483.4.61-.147-.169-.462-.337-.588-.568-.084 0-.042.043-.126.043.042.125 0 .21.02.356-.188-.041-.292-.063-.523-.314-.042 0-.126-.021-.126 0 .02.063.105.21.126.273-.042-.063-.483-.294-.525-.358-.021-.02.084-.02-.168-.041.02.063.168.398.189.462a8.367 8.367 0 00-.4-.442c-.103-.02-.187-.02-.292-.042l-.19-.314c.945.063 1.994.02 3.253-.21l1.175-.23c.399-.127.672.084.755.692l.063.672c.252.355.357.797.105 1.405.105.44.357.819.735 1.133.335.315.377.756-.021 1.385-.357.923-.861 1.49-1.301 2.098 0 .021-.042.042-.042.063a.29.29 0 00-.063.085c.02-.042.042-.063.063-.105l-.063-.316a.567.567 0 01.105.232l.189-.316c-.021-.105-.042-.21-.063-.336.042.085.084.148.126.232.042-.085.105-.169.147-.253-.042-.105-.063-.23-.105-.356.063.084.105.167.146.252.063-.105.126-.21.168-.314-.021-.105-.063-.21-.084-.316.042.063.084.127.126.21.063-.189.105-.336.126-.462l-2.161 1.343c.189-.168.399-.315.588-.483l-.021.022c-.021-.127-.042-.272-.063-.398.063.105.105.23.146.334.042-.041.105-.083.147-.125l-.063-.503c.084.147.126.294.168.42.063-.042.126-.105.189-.148-.021-.21-.042-.44-.084-.672.105.19.168.379.21.568.063-.064.105-.106.168-.148-.021-.294-.063-.63-.105-.944.147.294.252.567.252.797.042-.041.084-.063.126-.105a9.14 9.14 0 00-.126-1.027c.168.314.272.628.293.88 0-.02.042-.041.063-.063 0-.334-.063-.796-.125-1.216.209.398.314.776.272 1.048l.126-.124c-.021-.61-.231-1.154-.42-1.721-.083.294-.083.398-.167.378.042-.337.02-.483-.042-.526-.042.462-.147.755-.294.902l.084-.755h-.126z"/><path fill="#FEFEFE" d="M32.227 44.468c0 .126 0 .231-.084.231-.084-.02-.063-.126-.042-.23h.126zm.231-.23c.042.02.063.063.063.21s0 .252-.105.252c-.126-.021-.105-.147-.063-.273.042-.147.063-.19.105-.19m.294.043c0 .23 0 .398-.084.377-.084-.02-.084-.188-.042-.377h.126zm-.042-.294c.02 0 .02.042.042.105h-.105c.02-.063.042-.105.063-.105m.294-.042c.042 0 .063.084.063.273s0 .356-.147.335c-.148-.02-.106-.188-.064-.377.063-.168.084-.231.147-.231m-1.447-6.022c.525.126 1.07.567 1.616 1.028.084.147.042.189-.084.126-.378-.126-.924-.755-1.532-1.154m2.014 1.364c.105.063.147.126.126.147-.02.042-.105.02-.21-.042-.084-.063-.147-.147-.126-.168.021-.021.105 0 .21.063m-5.288.776l.567.063.125.21-.02-.02c-.064 0 .188.67-.146-.043-.043-.084-.168-.063-.273-.105-.105-.042-.064-.063-.253-.105m-2.622 9.065c.105 0 .21.041.21.084 0 .02-.063.063-.168.063-.126 0-.21-.022-.21-.063-.021-.042.063-.084.168-.084m.272.524c.168-.042.357-.063.379-.021.041.042-.085.105-.253.168-.168.042-.336.042-.378 0-.02-.042.084-.105.252-.147m.168.168c.19-.042.378-.063.42-.021.021.042-.105.126-.294.168-.21.063-.378.063-.42.02-.042-.041.084-.125.294-.167m.252.189c.126-.042.252-.042.273 0 .021.02-.063.084-.189.126-.147.02-.273.02-.294-.021-.02-.021.084-.084.21-.105m.168.168c.126 0 .21.042.21.084.021.042-.063.063-.168.063-.105 0-.21-.021-.21-.063 0-.042.063-.084.168-.084m2.245-.84c.168-.063.336-.063.357.021.042.063-.084.19-.252.252-.168.063-.336.063-.357-.02-.02-.064.084-.169.252-.253m-.294-.188c.126-.064.252-.064.273 0 .021.063-.063.146-.189.188-.126.064-.252.043-.273 0-.042-.063.063-.146.19-.188m-.273-.378c.105-.042.189-.021.21 0 .02.063-.042.126-.147.147-.105.042-.19.042-.21 0-.021-.042.042-.105.147-.147m-3.043-1.742c-.02-.105-.126-.105-.168-.02-.02.146.021.335.168.42.168.083.21-.085.126-.148a.415.415 0 01-.126-.252m-.294-.147c.021-.126-.084-.189-.168-.084-.105.147-.147.378-.02.525.146.188.272.021.23-.084-.063-.147-.084-.23-.042-.357m14.646-9.421c-.126.19-.168.902.462 1.762.23.294-.042.504.293.546.126-.02.21-.126.231-.315l-.21-.105h.294l-.315-.209c.105-.02.357.042.336-.063-.021-.126-.315-.147-.462-.21l.357-.084c.021-.105-.189-.189-.524-.294l.335-.084-.377-.23.293-.085-.461-.23.252-.126-.273-.084.252-.126c-.21-.084-.294-.273-.483-.063m-.503.546c-.127-.273-.148-.504-.085-.713.148-.378.295-.483.42-.483.253.273-.167.44-.251.65-.063.042-.084.189-.084.546m-.105-1.301c.105-.105.23-.168.273-.126.041.042-.022.147-.127.273-.104.105-.23.189-.273.147-.042-.042.021-.168.126-.294m-.104 1.343c.063 0 .126.063.126.147a.135.135 0 01-.126.126c-.084 0-.147-.063-.147-.126 0-.084.063-.147.147-.147m.272.42c.084.02.105.125.042.23-.042.105-.126.169-.189.127-.084-.022-.105-.127-.042-.232.042-.105.126-.168.19-.126m.293.441c.105.042.126.147.042.273a.33.33 0 01-.315.147c-.105-.042-.126-.168-.063-.273.063-.105.21-.189.336-.147m.315.482c.063.085.02.169-.084.21a.23.23 0 01-.273-.062c-.042-.063-.021-.147.084-.19.105-.041.21-.02.273.043m1.511.251c.042-.063.042-.168-.063-.189-.105-.02-.168-.02-.231-.126-.084-.252.042-.377.252-.44.168 0 .23.063.189.169l-.105.083c.189.063.315.125.378.23-.105 0-.168.022-.19.105.358-.063.337.505.022.4-.21-.064-.315.02-.21.377.084.42.378.525.357.084-.042-.21.67-.252.755.21l-.273-.105c.063.336.336.189.378.483l-.231.02c.273.19.483.42.588.693-.294-.043-.315-.357-.588-.357.357.482.776.377.986.86-.293-.02-.65-.252-1.05-.63.358.505.589.925.505 1.133-.525-.23-.63-1.007-.84-1.236 0 .398.294.629.189 1.07-.21-.252-.314-.651-.314-1.28.209.041.293-.105.293-.462-.042-.379-.23-.358-.19 0 0 .273-.187.356-.754.02-.084.085.042.19.357.379l-.021.313.168-.271.063.88c-.021.231-.084.19-.147-.041l-.063-.442c0 .316-.042.462-.147.441l-.084-.817-.231.293-.063-.461-.21.168v-.567c-.146.084-.314.02-.482-.231.23.063.378.02.566-.085-.105-.419.084-.629.44-.67m-4.993 2.559c.02-.189.063-.252-.126-.504-.084-.083-.147-.104-.126 0 .042.168.21.336.252.504m-.336-1.28c.273.147.4.168.546.567.041.146.021.251-.084.125-.168-.188-.252-.503-.462-.692m.043-.818c.356.252.503.294.67.881.042.231-.02.357-.146.168-.21-.294-.273-.734-.525-1.049m.168-.587c.399.126.692.608.692 1.028 0 .23-.105.378-.167.168-.084-.294-.231-.902-.525-1.196m.168-.315c.357.147.588.399.713.776.02.21 0 .315-.146.147-.084-.315-.294-.63-.567-.923m2.475 10.386c.085-.21.4-.42.777-.252.168.042.147.252.147.4-.105-.106-.21-.232-.315-.106-.293-.23-.398-.105-.608-.042m-1.133.084c.084 0 .147.042.147.126 0 .063-.063.105-.147.105-.063 0-.126-.042-.126-.105 0-.084.063-.126.126-.126m-.735 0c.042-.021.105.063.147.168.021.105.021.21-.02.21-.043.021-.106-.042-.148-.168-.02-.105-.02-.21.021-.21m.252-.042c.021 0 .063.042.084.126.021.063.021.126-.02.147-.022 0-.064-.042-.085-.126-.02-.063-.02-.126.021-.147m.063-2.707c-.021.021-.042.042-.042.063-.084.084-.168.147-.189.105-.042-.02-.021-.126.042-.21l.084-.084c-.021-.02-.021-.042-.042-.063-.021.021-.021.042-.042.063-.084.105-.189.168-.231.126-.042-.02-.021-.147.063-.252.021-.042.063-.063.084-.084-.021-.02-.021-.042-.042-.042-.084.105-.189.147-.231.126-.041-.042-.021-.147.063-.252 0-.02.021-.042.042-.042-.042-.042-.042-.062-.063-.083-.063.041-.104.062-.146.041-.021-.02 0-.104.063-.188-.042-.084-.063-.168 0-.21.125-.105.188.042.314.315.042.104 0 .167.063.23.042.084.168.126.21.19.147.23.126.42.105.44-.042.021-.021-.02-.105-.189"/><path fill="#FEFEFE" d="M37.158 47.133c.063.042.021.168-.084.294-.105.126-.21.19-.252.147-.063-.042-.021-.168.063-.294.105-.126.231-.189.273-.147m2.581-1.238c.02 0 0 .126-.042.252s-.126.21-.168.19c-.021 0 0-.127.042-.253.063-.126.126-.21.168-.189m-.315-.125c.042.02.021.188-.063.377-.105.168-.21.314-.273.293-.063-.02-.042-.188.063-.377.084-.189.21-.315.273-.294m-.734-.294c.042.021.02.148-.042.316-.063.147-.147.252-.19.23-.041-.02-.02-.147.043-.294.063-.167.147-.272.189-.252M18.337 10.016c.063-.294.252-.441.462-.462l.46.084c.169.126.148.168-.041.189-.377-.063-.587.02-.692.273-.147.21-.21.23-.19-.084m1.47.881c.042 0 .105.042.105.126 0 .063-.063.126-.105.126-.063 0-.105-.063-.105-.126 0-.084.042-.126.105-.126"/><path fill="#FEFEFE" d="M18.274 10.477c-.147.19-.105.4.147.65l.336.42c.293.21.44.168.398-.147-.042-.21.021-.294.21-.294a.369.369 0 00.273-.188c.042-.168.021-.252-.126-.294a1.938 1.938 0 01-.692.315c.251-.168.44-.294.503-.399.063-.063.147-.084.273-.042 0-.105-.042-.21-.189-.252-.294 0-.587.21-.86.504.168-.357.419-.567.797-.567.021-.105 0-.189-.105-.273a.915.915 0 00-.65.19l-.315.377zm1.7 2.602a9.016 9.016 0 011.742 2.371v.776l-.252-.881c.02.609 0 1.007-.063.881l-.21-1.259-.147.546-.126-.776c-.105-.084-.126.398-.105 1.07-.19-.189-.168-.735-.147-1.343l-.21.587c-.125-.314-.062-.734 0-1.133-.125-.105-.21.105-.251.735-.147-.42-.105-.756-.042-1.154l-.147.314-.042-.734zm5.14-5.917c.231.168.546.21.86.21l.021.168c.504 0 1.028-.231 1.553-.588-.02-.021-.126-.042-.23 0-.379.189-.337.063.377-.294.105-.063.19.021.357-.042l.461-.104c-.378.335-.755.671-1.175.986-.587.335-1.112.419-1.595.251a4.453 4.453 0 01-.797-.482c-.063-.105-.126-.168.168-.105m2.896.105c.063 0 .105.042.105.084s-.042.084-.105.084a.09.09 0 01-.084-.084.09.09 0 01.084-.084m.63 1.259c.041-.063.083-.084.125-.042.042.02.042.084 0 .126-.042.063-.105.084-.126.063-.042-.021-.042-.084 0-.147m1.49-.566c.063-.022.126-.022.147.02.021.042 0 .126-.084.147-.063.042-.126.042-.147-.02-.042-.043 0-.106.084-.148m-.336-.23c.063-.042.126-.063.147-.021.042.02.021.105-.02.147-.064.041-.127.062-.148.02-.02-.02-.02-.083.021-.146m-2.287.441c.063-.022.126 0 .147.041 0 .042-.042.105-.105.105-.063.021-.126 0-.147-.042 0-.042.042-.084.105-.105m.819 1.553c.084-.042.189-.042.21 0 .02.042-.021.105-.127.147-.084.02-.189.02-.21-.021-.02-.042.021-.105.127-.126m-2.686-1.427c.23-.021.546-.105.965-.294l.483-.231c.23-.104.273-.083.084.105-.21.21-.483.315-.672.462-.19.126-.461.294-.923.168-.231-.063-.147-.189.063-.21"/><path fill="#FEFEFE" d="M27.108 8.085c.273-.252.44-.315.817-.483a2.765 2.765 0 011.07-.188c.252-.23.483.084.21.335-.083.084-.188.126-.293.19-.272.21-.566.293-.86.377-.378.105-.42.063-.105-.147.105-.084.189-.147.294-.21.23-.147.483-.189.712-.21-.355-.23-1.049.126-1.74.462-.21.105-.274.042-.105-.126"/><path fill="#FEFEFE" d="M28.996 6.994c.147-.042.273-.02.44-.02.273.083.399.23.42.42-.063.187-.147.292-.272.334-.063-.335-.19-.524-.378-.587-.084-.02-.126-.02-.21-.02v-.127zm-.315.084c.084-.042.105-.063.19-.084v.126l-.169.042c-.084.021-.168-.042-.02-.084m-.379-.21c.19-.168.4-.315.65-.336.253-.02.526-.02.799.021.524.19.315.357-.021.231-.21-.126-.463-.105-.757 0-.02.21-.377.042-.587.19-.146.062-.168.02-.084-.106m1.532.063c.168 0 .294.021.315.168.021.19-.02.336-.147.42.063-.399-.126-.357-.168-.588m.462-.105c.042.063.063.231 0 .504l-.168.314c-.042.147 0 .19.105.147a.503.503 0 00.252-.46c0-.316.02-.463.126-.568-.19-.315-.378-.273-.315.063m-1.343 1.847c0 .21.483.252.546.02.104-.251-.084-.44-.021-.691-.315.083-.525.314-.525.67m-.126.546c.105-.189.273-.252.525-.23.188 0 .293.041.293.23 0 .19.021.4-.02.567-.064.167-.085.146-.294.167-.23 0-.315-.105-.567.042.147-.356-.02-.503.063-.776m.902-.818c-.105-.168.021-.231.126-.105.126.105.21.252.21.399.021.147-.147.273-.252.147-.105-.126.021-.252-.084-.441m.105.797c-.063-.21.021-.23.273-.126.168.147.19.252.105.336.168.168.168.398.021.671-.105-.084-.23-.042-.315-.168-.02-.084-.084-.042-.042-.356a.532.532 0 00-.042-.357m.294 1.721c.105 0 .168.063.168.126s-.084.105-.168.084c-.105 0-.168-.063-.168-.126 0-.042.084-.084.168-.084m-1.301-.189c.105 0 .19.063.168.126 0 .063-.084.126-.189.105-.105 0-.189-.063-.168-.126 0-.063.084-.126.19-.105"/><path fill="#FEFEFE" d="M29.122 12.366c.084-.063.21-.063.336 0 .063.042.042.105-.021.147a.431.431 0 01-.231 0c-.063-.063-.021-.105-.084-.147zm-.252-.147c.189-.042.399-.042.588 0 .335.084.356.21.042.399-.19 0-.4 0-.61-.063.064-.105.127-.147-.02-.336zm1.553-1.72c-.126-.21-.441-.357-.902-.42-.294-.042-.693.042-1.112.147-.231.252-.315.629-.273 1.133l.189.042-.168.126h.23l-.146.21.126.042-.105.272.126.084-.063.168.168.02-.042.169.125.02-.041.169.125.042c.084.126.23.23.399.335.126.063.252.063.399.042.252-.188.314-.356.524-.587.063-.021.084-.147.084-.336.126-.063.168-.168.168-.315l.105-.146v-.504c-.126.042-.21.063-.315.042l-.294-.126-.083.65c0 .126-.063.315-.21.252l-.357-.168c-.084-.042-.063-.167.042-.21l.126-.02v-.567c-.21.063-.441.084-.651-.063-.083-.042-.167-.042-.251-.042a.857.857 0 01.23-.294l-.125-.188c.042 0 .125.02.188.02.294-.02.44-.062.525.022a.91.91 0 00.23.188l.022-.146c.063-.168.189-.21.377-.147l-.042.419.672-.21v-.125z"/><path fill="#FEFEFE" d="M29.185 11.715c.042 0 .063.021.063.063 0 .021-.021.042-.063.042-.021 0-.063-.02-.063-.042 0-.042.042-.063.063-.063m.335-.965c0-.042.021-.084.021-.147.105-.105.148-.168.148-.063 0 .084 0 .147-.021.21h-.148zm-.125 1.028c.02-.273.063-.504.105-.839h.147c-.021.231-.042.482-.126.881-.042.084-.084.042-.126-.042m-1.616-1.448c-.021-.168.147-.147.168 0 .042.294 0 .525-.147.671-.105.063-.252 0-.168-.125.147-.21.189-.357.147-.546m-.126 1.196c-.042-.189.084-.252.126-.042.147.567.4 1.112.965 1.637.231.188-.02.356-.23.167-.567-.482-.735-1.154-.86-1.762m2.097 1.721c-.02-.168.042-.336.231-.483.126-.084.168.063.105.147-.126.147-.23.147-.336.336m-5.476 2.329c.02-.147.042-.252.126-.357a.638.638 0 01-.147-.105c-.105.23-.252.42-.462.693.147-.441.294-.777.609-1.112a3.844 3.844 0 01-.126.377c.042.042.105.084.147.126a.557.557 0 00.105-.126c0 .063 0 .126-.021.189h.02l-.02.063-.021-.021c-.042.105-.105.168-.21.273m-.252.378a.493.493 0 01.147-.295.401.401 0 01-.147.294m1.112.168c.021-.084.042-.168.063-.23l.042-.043a.16.16 0 01.042-.084c.042-.042.084-.105.126-.147-.02.252-.084.336-.273.504m-.042.609c-.063-.21 0-.357.252-.483 0 .315-.02.399-.252.483m.504-.189c.21-.504.23-.734.168-1.364.23.588.189.756-.168 1.364m3.42 1.909c.105-.44.147-.86.126-1.3-.042.02-.063.02-.105.041a3.23 3.23 0 01-.21.84 2.71 2.71 0 00.084-.819.298.298 0 01-.126.042c-.021.19-.084.4-.168.671.042-.23.063-.44.063-.65-.063 0-.126.021-.19.021a11.12 11.12 0 01-.124.944c0-.315-.021-.629-.021-.923h-.21c0 .315-.042.63-.105 1.07-.021-.378-.021-.734-.042-1.09-.063-.022-.126-.022-.21-.043 0 .336-.042.671-.105 1.133-.021-.399-.042-.776-.042-1.154l-.19-.063c-.02.315-.083.63-.167 1.05 0-.378 0-.714.02-1.092a41.242 41.242 0 00-.187-.063c-.021.42-.063.798-.084 1.238-.063-.545-.105-.923-.063-1.3a.422.422 0 01-.168-.085 4.822 4.822 0 00-.105 1.448c-.147-.65-.168-1.028-.021-1.49-.042-.042-.084-.063-.126-.084a3.7 3.7 0 01-.294.567c.105-.21.147-.42.21-.609-.063-.042-.147-.083-.21-.125-.042.272-.168.545-.377.923.272-.672.293-1.3.314-2.098.063.314.105.566.105.797.084.042.147.063.23.105a8.99 8.99 0 00.064-1.09c.105.46.147.796.084 1.111.063.021.126.063.189.063.02-.042.063-.105.105-.168l-.063.19c.042 0 .105.02.147.02.042-.126.063-.273.126-.44 0 .167-.021.314-.021.482.063 0 .104.021.167.021 0-.105.02-.23.02-.357.043.147.043.252.064.378.063 0 .147.021.21.021V16.1c.042.19.084.336.105.483.084.021.168.021.252.021 0-.168 0-.315.02-.504.043.19.064.357.106.504h.21v-.756c.084.294.125.525.146.735.063 0 .126-.02.189-.02 0-.169-.042-.358-.063-.547.084.19.147.357.168.525.042 0 .084-.02.126-.02-.021-.19-.063-.379-.084-.589.084.21.147.378.189.546.042 0 .084 0 .126-.02-.042-.295-.063-.61-.126-.966.483 1.196.483 1.741.042 2.958m.587-1.384l.084.189.294-.273c.084-.105.168-.084.23.063l.021-.336c.105-.063.19-.021.273.084.063-.084.063-.19.021-.314l.042-.42c-.168-.273-.294-.441-.482-.504.104.23.104.42.042.588-.02-.273-.147-.462-.357-.567.084.168.126.336.084.504a.63.63 0 00-.21-.19l.042.253-.126.084.042.839zm1.931-1.49c0 .063 0 .105-.042.105s-.084-.042-.147-.105h.189zm-.126-.356c.042.104.084.188.084.251h-.231a1.847 1.847 0 01-.126-.21c-.021 0-.021-.02-.021-.042h.294zm-.378-.4c.063 0 .21.127.315.316h-.273c-.084-.168-.105-.316-.042-.316m-.126.735c.021-.021.105.063.19.189.062.126.083.23.062.252-.02.02-.105-.063-.168-.19-.084-.125-.105-.251-.084-.251m-.398-.085c.02-.02.126.085.23.232.085.168.127.294.085.315-.021.02-.126-.084-.231-.231-.084-.168-.126-.294-.084-.315m-6.777-.818c.062.042.104.084.146.105l.105-.105c-.02.147-.063.189-.168.294.021-.063.042-.126.063-.168a.913.913 0 00-.147-.126m-1.867 21.045l-.084.273-.084-.042.042-.231zm-6.505 9.253c.274-.105.337.021.42.336.23.21.378.377.378.545.482.399.398.567-.252.504-.21-.063-.336-.21-.336-.504l-.21-.881zm.105 1.616c-.168.252-.126.567.084.818a.52.52 0 00.42.189l-.084-.231.251.168c0-.126-.104-.273-.335-.44l.314.084c0-.168-.146-.315-.398-.441h.21c-.105-.294-.294-.378-.462-.147m.818.147c.085-.021.148.084.169.21.02.126-.021.23-.105.252-.063.02-.147-.084-.168-.21 0-.127.042-.252.105-.252M20.54 32.34c0-.67.294-1.321.671-1.971a15.785 15.785 0 00-.67 1.972m1.509-3.903c-.251.105-.272-.105-.083-.252.399-.336.839-.461 1.343-.461h.88c.337 0 .295.335-.02.314h-.63c-.566-.021-1.027.147-1.49.399"/><path fill="#FEFEFE" d="M23.96 28.123c.231 0 .42.042.42.084 0 .063-.189.084-.42.084-.23 0-.42-.02-.42-.084 0-.042.19-.084.42-.084m1.72-4.448c-.041-.042-.146.105-.293.294-.126.168-.21.335-.19.335.022.021.148-.104.274-.293.147-.168.23-.336.21-.336m-1.469 1.448c-.105.189-.063.294.147.378.839.25 1.657-.021 2.476-.483l1.028-.483c.189-.23.147-.293-.105-.21l-.504.252.126-.42c-.272.21-.44.42-.566.65l-.084-.21a.796.796 0 00-.273.442l-.105-.231a.638.638 0 00-.252.273l.042-.294c-.084-.063-.209.084-.377.42l.084-.315c-.063-.063-.168.063-.315.378l.336-1.007c-.168.02-.399.398-.651 1.07-.105.02-.147-.021-.126-.105l.378-.734c-.189-.021-.399.25-.651.734l.294-.84-.545.714v-.273a.768.768 0 00-.357.294m.105 13.659c-.084-.084.063-.168.105-.126l.252.231c.063.063-.084.168-.147.126l-.21-.23zm.189-.168c-.042-.063.063-.147.105-.105l.21.21c.063.063-.063.147-.105.105l-.21-.21zm.126-.189c-.084-.083.063-.188.126-.125l.252.252c.063.063-.105.167-.147.105l-.231-.231zm.104-.315c-.084-.104.105-.251.21-.188l.377.378c.105.105-.146.273-.209.189l-.378-.378zm.399-.335c-.126-.126.042-.294.147-.189l.461.4c.126.104-.062.293-.167.21l-.44-.42zm.273-.21c-.105-.105.021-.252.126-.168l.399.336c.104.105-.063.252-.147.19l-.378-.358zm.357-.125c-.084-.085.02-.21.105-.148l.336.294c.084.084-.063.231-.126.168l-.315-.315zm-1.679-2.372c0-.105-.168-.063-.189.021l-.042.378c0 .084.19.042.19-.02l.041-.379zm-.546.525c-.02-.168-.188-.084-.188.02l.042.295c0 .147.21.063.189-.021l-.042-.294zm-.629.399c-.02-.147-.126-.105-.126 0l-.02.273c-.022.147.146.084.146 0v-.273zm.797-.525c.042 0 .084.042.084.105s-.042.105-.084.105c-.02 0-.063-.042-.063-.105s.042-.105.063-.105m-.588.378c.064 0 .106.063.106.126 0 .084-.042.126-.105.126s-.105-.042-.105-.126c0-.063.042-.126.105-.126m-.525.377c0-.126-.168-.126-.168-.02v.251c0 .126.19.105.19.021l-.022-.252zM27.15 20.36c.063 0 .105.063.105.147 0 .084-.043.168-.105.168-.042 0-.084-.084-.084-.168s.042-.147.084-.147m.251.398c-.042 0-.063-.105-.063-.23 0-.148.021-.253.063-.253.042 0 .084.105.084.252 0 .126-.042.231-.084.231m.399-.104c.105 0 .189.042.189.084 0 .02-.084.063-.19.063-.083 0-.167-.042-.167-.063 0-.042.084-.084.168-.084m.21.356a.09.09 0 01.084.084c0 .063-.042.105-.084.105-.021 0-.063-.042-.063-.105 0-.042.042-.084.063-.084m.336-.02h.776c.252 0 .294.125.125.356.084.42-.44.692-.419.021-.041-.126-.188-.189-.482-.189-.127-.042-.127-.168 0-.189m-1.218 4.931c.064 0 .105.042.105.105s-.041.126-.105.126c-.041 0-.084-.063-.084-.126s.043-.105.084-.105m-.335.105c.063 0 .126.063.126.147a.135.135 0 01-.126.126c-.084 0-.126-.063-.126-.126 0-.084.042-.147.126-.147m.419.231c.273-.19.546-.315.588-.252.041.063-.147.273-.44.483-.295.189-.547.294-.61.23-.02-.062.168-.272.462-.461m1.008-.651c.168-.147.336-.23.357-.21.042.042-.084.19-.252.336-.168.126-.336.231-.357.19-.042-.043.084-.19.252-.316m-.65 1.595c.062-.147.125-.294.21-.42l-.043-.021c.042-.251.231-.44.482-.566l.042.021c.084-.084.19-.147.315-.21-.063.105-.105.21-.168.294l.063.042a1.33 1.33 0 01.546-.336 2.54 2.54 0 01-.399.42l.126.084a2.42 2.42 0 01.608-.378c-.146.147-.293.315-.46.461l.146.084c.19-.146.42-.251.63-.293-.106.084-.21.168-.295.251.147-.042.315-.042.525-.062-.273.125-.44.167-.65.251l.167.105c.21-.126.441-.189.63-.189-.147.084-.315.189-.483.273l.147.084c.19-.105.42-.147.61-.126a3.092 3.092 0 00-.463.21l.084.063a1.39 1.39 0 01.567-.126c-.168.063-.294.147-.44.21l.125.063a.967.967 0 01.482-.042c-.126.042-.25.063-.377.126l.44.273-.084.041-.67-.23c-.043 0-.064.021-.085.042 0-.021.021-.042.042-.063l-.168-.042c-.084.042-.189.105-.294.147.063-.084.105-.147.168-.189l-.168-.063c-.084.042-.188.105-.293.147.042-.063.105-.147.167-.21l-.167-.063c-.126.084-.23.168-.357.231.063-.105.126-.189.21-.273l-.23-.084a3.65 3.65 0 01-.316.273.66.66 0 01.168-.315l-.21-.084c-.105.105-.23.21-.356.315.063-.126.125-.252.21-.357l-.336-.126a2.196 2.196 0 01-.399.357m-3.315 8.1a2.646 2.646 0 01.147-1.05c.042-.147.189-.23.44-.252l2.812-.42c.147-.02.168.063.147.252-.042.273-.084.525-.21.735-.105.084-.126-.273-.105-.819-.21.504-.126 1.028-.461 1.112-.147-.23.084-.67.126-1.007-.315.294-.21.651-.483 1.028-.105.021-.084-.335-.021-.902-.147.42-.273.755-.42.902-.084-.126-.084-.44-.063-.776-.126.546-.272.923-.398.986a3.228 3.228 0 01.02-.902l-.062-.063c-.084.525-.168.84-.294.986a1.197 1.197 0 01.042-.965h-.126c-.084.273-.126.504-.252.587-.168-.02-.252-.209-.252-.524-.146.587-.356.902-.587 1.091zm4.364-6.862c.063-.084.168-.063.147.042-.168.902-.273 1.972-.294 3.19h-.063c-.062-1.176-.021-2.225.21-3.232zm.315.042c-.147 1.05-.147 1.678-.252 2.77l.084.188c.02-1.217.189-1.993.357-2.916.063-.168-.105-.21-.19-.042zm.23.671l.127-.629c.147-.084.21-.042.189.126l-.273.524-.042-.02zm-3.461-.86l.063-.02c-.273 1.49-.4 2.915-.19 4.195-.104-1.993.148-4.112.525-4.469l.063.147c-.44 1.595-.482 3.022-.188 4.301-.19-2.182-.021-3.44.356-4.112v.21c-.294 1.531-.314 2.77-.042 3.777l.084-.063a12.192 12.192 0 01.168-4.07l.147.02c-.294 1.616-.294 2.875-.084 4.03l.084-.085c-.168-1.658-.147-2.812.105-3.86l.126.02c-.231 1.595-.252 2.854-.042 3.882l.084-.02c-.168-1.743-.084-2.98.147-3.904l.084.084a14.956 14.956 0 000 3.756l.083-.042c-.042-1.51-.125-2.707.063-3.588l.105-.126c-.147 1.112-.147 2.35.042 3.735h.084c-.147-1.637-.105-2.875.063-3.882l.084.063a26.043 26.043 0 00.02 3.84l.085-.02c-.084-1.806-.021-3.044.168-3.778.168-.063.168.147.02.378-.104 1.091-.146 2.182 0 3.378l.127.021c-.126-1.742-.021-2.749.168-3.735.104-.105.209.021.083.273-.146 1.217-.23 2.077-.104 3.462h.146c.168.063.189.126.02.19-1.027.208-2.013.397-2.957.46-.19.021-.252-.084-.252-.357-.063-1.489.105-2.853.462-4.09zm-.483-.44c-.273.545-.545 1.384-.734 3.084-.105.755-.168 1.51-.021 2.287.084.42.273.566.46.545l3.128-.503c.23-.042.46-.23.356-.44l-.125-.253-.105.357-.168-.294-.126.336-.19-.42-.146.504-.19-.399-.104.42-.104-.357-.126.441-.147-.399-.126.483-.168-.462-.126.336-.147-.273-.105.252-.147-.21a.536.536 0 00-.44 0l-.063.105-.084-.105c-.231-.063-.483-.105-.713-.147l.293-.147c0-.105-.105-.147-.293-.126l.314-.23-.335-.063.314-.189c0-.084-.084-.168-.335-.273l.335-.105v-.084l-.335-.042.356-.168c.042-.084-.063-.146-.293-.23l.293-.084c-.021-.084-.042-.189-.251-.273l.25-.084-.25-.189.314-.126c0-.105-.042-.147-.231-.23l.336-.147c-.021-.063-.105-.168-.315-.23l.315-.106-.252-.168.294-.126-.231-.084.273-.168c.063-.063-.042-.126-.273-.147l.315-.126.02-.125-.293.042.147-.126-.19-.147.442-.105.042-.084-.315-.084.252-.147c-.042-.126-.126-.168-.252-.168z"/><path fill="#FEFEFE" d="M29.814 35.383c-.105-.126-.084-.23.063-.315l.755-.063c.147 0 .273.084.4.252l.356.4c.147.188.021.334-.126.293a8.636 8.636 0 01-1.448-.567zm-.168.021c-.168-.084-.252.042-.147.126.273.231.567.42.882.566.314.168.65.19.965.19.231 0 .335-.148.042-.21-.546-.147-1.09-.315-1.742-.672zm-1.343-1.259c-.23-.147.042-.44.19-.315l.335.336c.19.168.063.315-.105.231l-.42-.252zm-.25.4c-.232-.148.02-.484.187-.337l.63.462c.19.146 0 .398-.147.293l-.67-.419zm1.51-5.184c-.169.126-.232.273.104.252-.23.21-.252.357-.063.42-.419.524-.419.671-.02.44-.462.588-.399.672-.085.567-.398.482-.335.545-.21.566-.272.378-.272.567-.02.546-.21.084-.357.252-.399.587-.084.336-.986.714-.23 1.028.23.126.42.441.566.987.062.293.188.314.44.21.21-.064.42-.085.63-.106.398.042.42-.398-.02-.46.041-.169-.106-.253-.337-.148.19-.315-.042-.23-.126-.273.126-.063.105-.21-.23-.02l-.043-.106c.19-.063.252-.168.273-.293l-.566.188c.167-.146.251-.25.23-.356l-.398.084c.42-.294.587-.504.566-.609l-.44.126c.314-.252.524-.462.503-.587l-.378.146c0-.125.168-.25.483-.335.252-.126.378-.294.336-.525l-.567.273c.462-.42.84-.797.944-1.049-.042-.147-.503.168-1.112.671v-.105a4.734 4.734 0 001.364-1.385l-1.112.861 1.007-1.196c-.063-.147-.356.021-.923.608l.042-.126.525-.566c.398-.23.65-.525.818-.88.105-.274-.252.083-.797.565-.126.126-.273.19-.42.336l1.28-1.343.021-.168c-.126-.126-.944.84-1.637 1.175z"/><path fill="#FEFEFE" d="M32.374 32.257s.042 0 .063-.021c.147-.168.147-.252-.02-.294h-.043v.315zm-.189.084c.021-.021.042-.021.063-.042v-.336l-.084.02.021.358zm-.252.084c.042 0 .063-.021.105-.021v-.4l-.189.043.084.378zm-.23.063h.042v-.42l-.105.042.063.378zm.965-.902c.084-.021.147 0 .168.042.021.062-.042.104-.126.125-.084.02-.147 0-.168-.063-.02-.02.042-.083.126-.104zm.084.272c.021 0 .042.02.042.042 0 .042-.02.063-.042.063-.02 0-.042-.021-.042-.063 0-.021.021-.042.042-.042zm-.84-.44c.063 0 .105.042.105.105s-.042.105-.105.105c-.042 0-.084-.042-.084-.105s.042-.105.084-.105zm-.797.545c-.168.105-.168.189.021.252l.084-.021v.02c0 .085.042.148.084.148s.084-.063.084-.147v-.063l.19-.042v.42c-.064.02-.127.02-.21.042 0-.042-.043-.063-.064-.063a.09.09 0 00-.084.084s.021.02.021.042c-.042.02 0 .02.084.084l1.406-.315c.42 0 .524-.315.42-.818.062-.168.02-.231-.127-.21l-.314-.042.19-.126c.25-.126.25-.19.041-.19l-.44-.062.356-.063c.105-.021.146-.147-.02-.21l-.379-.042.294-.063c.19-.146.084-.251-.273-.293.126-.147.105-.252-.042-.252-.063-.147-.252-.252-.189.02l.084 1.386c.042.147-.02.25-.189.314l-1.028.21zm.734-1.091c.021-.21.19-.042.19.084l-.064.336c-.063.063-.084.02-.147-.105l.021-.315zm1.532.378c.19.189.21.357.19.503-.022.21-.19.357-.19.21-.02-.19 0-.398-.147-.65-.084-.105.063-.147.147-.063zm.315.608c.063 0 .105.084.126.189.021.105.021.21-.042.21-.02.02-.084-.063-.105-.168-.02-.105 0-.21.021-.231zm.021 1.28c.042 0 .063.02.063.084 0 .042-.02.084-.063.084a.09.09 0 01-.084-.084c0-.063.042-.084.084-.084zm-.105.315c.021 0 .042.063.042.147 0 .084-.02.147-.042.147-.02 0-.042-.063-.042-.147 0-.084.021-.147.042-.147zm.063-.86c.021-.231.273-.168.168.063l-.126.293h-.063l.021-.356zm-3.105.797c.125-.231.314-.4.587-.504.713-.104 1.427-.251 2.098-.503.21-.147.294-.105.273.126-.063.65-.147 1.196-.336 1.364V32.74l-.084.02c-.063.567-.146.987-.293 1.155l.042-1.05h-.105l-.23 1.029.062-.903c0-.126-.042-.146-.105-.084-.147 1.05-.336 1.49-.546 1.637.21-.671.21-1.133.168-1.532l-.063-.042c-.063.546-.147 1.07-.335 1.469-.21-.315.188-.86.104-1.385h-.04l-.379 1.3c-.126 0-.084-.167.042-.502l.042-.735-.063.042c-.105.399-.21.693-.357.944l.063-.965-.273.693.021-.567-.293.126zm2.476-19.828c.462-.294.986-.462 1.595-.378.377.042.377.273.167.252-.587-.085-1.154-.063-1.72.21-.21.104-.168 0-.042-.085zm-.462.65c.377-.44 1.028-.735 2.244-.713.252.02.21.272-.02.252-.188-.021-.398.063-.587.104-.231.063-.483.085-.692.21-.42.23-.799.609-1.134 1.133-.126.063-.147.021-.084-.126.42-.755.923-1.153 1.447-1.195l.021-.043c-.293-.063-.65.064-1.175.546-.063.063-.084 0-.02-.169zm1.405-.21c.19.021.274.084.127.252-.463.189-.903.546-1.323 1.05.042.188-.042.355-.252.482 0 .315-.188.462-.503.504l-.462.587c.105.147-.063.378-.398.714-.21.23-.294.166-.252-.21.252-.694.734-1.7.965-1.7.126 0 .126-.043.168-.274.021-.167.19-.125.147 0-.02.168.021.19.126.063.524-.86 1.091-1.3 1.657-1.468zM30.255 19.5c-.063-.755.105-1.196.462-1.447.965-.588 1.3-1.449 1.616-1.428.313-.545.796-1.112 1.362-1.636.42-.294.504-.23.273.231-.608.86-1.217 1.888-1.762 2.182-.252.021-.44.168-.588.398l.378-.188c.19-.02.21.042.084.167-.315.169-.839.988-.965.463-.21.399-.567.336-.588.734l-.042.525c-.084.147-.147.147-.23 0zm2.77-4.28c.294-.357.65-.609.986-.756.399-.168.378.147.105.147-.21 0-.503.19-.986.797-.126.168-.273.021-.105-.188zm-2.33 3.588c.043-.063.127-.084.169-.063.042.042.042.126-.021.188-.042.085-.126.105-.19.063a.174.174 0 01.043-.188zm-.041 1.028c.02.168.042.126.126 0l.189-.525c.21-.189.503-.399.776-.734.126.19.357.021.713-.462.44-.21.65-.545.777-.965.105-.357.042-.42-.19-.189-.335.441-.587.61-.712.923-.4.126-.714.567-1.175.777-.126.084-.168.21-.168.377-.19.127-.315.336-.336.798zm.042.671c.189-.503.252-.776.44-.944.23-.23.294-.21.147.063-.104.21-.251.503-.251 1.028 0 .42-.525.336-.336-.147zm.587-.336l.336-.818c.084-.294.23-.462.42-.482l.46-.44c.105-.127.168.041.105.146l-.334.545c-.064.441-.232.84-.63 1.301-.085.085-.232.085-.148-.042l.4-.796-.505.691c-.146.19-.166.043-.105-.104zm1.008.105l.147-.755c.02-.294.125-.567.314-.797l.23-.63c.064-.252.169-.23.169.084l-.147.4c.126.062.063.188-.021.313-.021.147-.021.315-.168.357-.043.567-.106 1.028-.274 1.175-.25.315-.334.273-.25-.147zm-1.322.966c.314-.189.587-.378.797-.693.294-.42.42-.44.336 0-.084.357-.336.734-.86.923-.441.168-.567-.042-.273-.23zm-.986 1.196c.167-.357.629-.588 1.28-.798.44-.147.797-.46 1.112-.839.335-.21.272-.02.167.21-.125.21-.21.272-.42.398-.251.21-.63.4-.922.525a2.25 2.25 0 00-1.008.713c-.188.147-.272.084-.21-.209zm.063 1.216c-.105.19-.126.336-.042.441.398-.147.272-.776 1.259-1.28.125-.168.083-.23-.126-.168l-.924.672c.315-.504.63-.902 1.09-1.007a1.33 1.33 0 00.82-.44c.105-.232.063-.295-.105-.19-.567.378-1.05.525-1.49.86-.4.336-.671.756-.776 1.238l.294-.126zm.062.693c-.125.231-.02.315.105.126.483-.672.819-1.133 1.322-1.553.462-.357 1.133-1.007 1.406-1.867.168-.504-.021-.65-.147-.336-.273.755-.587 1.427-1.091 1.825-.566.462-1.175.987-1.595 1.805zm.168.441c-.147.188-.126.251.126.146.399-.608.672-1.007.902-1.133l.714-.629c.545-.126.86-.714.965-1.7l-.042-.126c-.273.693-.587 1.196-1.007 1.47a4.516 4.516 0 00-.986 1.006c-.126.126-.126.273-.231.441-.126.168-.336.336-.441.525zm1.805-1.406a1.195 1.195 0 00-.672.566c-.105.252-.063.273.126.084.189-.21.42-.336.63-.503.084-.063.168-.21-.084-.147zm-.881 1.594c.063-.398.25-.755.587-.986.294-.21.357-.147.126.147-.21.273-.336.61-.504.902-.063.126-.251.273-.21-.063zm-.126-.734c.02 0 .063.105.063.21 0 .126-.042.21-.063.21-.042 0-.063-.084-.063-.21 0-.105.02-.21.063-.21zm1.51-.609c.063.042.084.168.042.315-.042.126-.147.231-.21.21-.083-.02-.104-.168-.062-.294.062-.147.145-.25.23-.23zm3.043-11.204c-1.742-.147-2.581.42-3.043 1.007a2.996 2.996 0 00-.65 1.7c.042.105.23-.126.504-.483l-.168-.063a1.5 1.5 0 01.188-.357c.042-.063.042-.167.147-.23.126-.063.21-.189.21-.23h-.147c.483-.589 1.154-.736 1.91-.715.21.021.398.042.587.063a.38.38 0 00.273-.063c.063-.042.084-.104-.021-.104a5.317 5.317 0 00-1.993.083c.482-.314 1.175-.335 2.16-.293.4.021.42-.273.043-.315zm1.237-.252c-.084.063.021.21.084.273.084.084.19.042.147-.084-.02-.126-.147-.252-.23-.19zm-.902-.336c-.147-.19-.042-.293.21-.272.65.125 1.217.209 1.573.503.21.147.042.294-.105.189l-.44-.231c.021.189-.147.105-.399-.105-.168.168-.378.084-.608-.168l.146.42c.021.084-.062.084-.104.02l-.273-.356zm2.245.86c-.063-.042-.21-.105-.02-.147-.21-.126-.127-.294.02-.315.567-.02 1.007-.335 1.658.021l.293.336c.19.441.021.651-.23.336-.126-.189-.02-.357-.336-.504.168.315.294.63.294.986.482.462.042.567-.084.273l-.189-.86c.042.42.063.734 0 .734-.147 0-.063-.293-.126-.65-.042-.147-.084-.42-.168-.44-.357-.127-.692-.022-.965 0 .461-.022.776 0 .881.125.147.21.168.441.105.651-.105.167-.168.125-.168-.084l-.063-.273c-.02-.147-.189-.168-.419-.147-.147.021-.315.063-.483-.042m.651 15.066c-.105-.168.168-.273.378.02.482.672.902 1.344 1.238 2.036.188.42 0 .524-.19.146-.398-.818-.922-1.532-1.426-2.203m.65.21c-.146-.21.063-.314.23-.063.337.567.652 1.05.883 1.596.104.25-.042.314-.147.082-.273-.608-.61-1.09-.966-1.614m-7.134.398a22.453 22.453 0 002.33 3.19c.104.125.02-.253.104-.106.189.4.483.776.609.902.126-.104-.273-.461-.336-.88l1.196 1.384c.105-.189-.587-1.007-1.154-1.72l.084-.085 1.364 1.784.063-.02c-.21-.589-.84-1.302-1.26-1.953l.043-.147a23 23 0 01.86 1.196c.399.567.756 1.071.86 1.113.504.125-1.196-1.658-1.972-3.148l.02-.084c.924 1.406 1.743 2.686 2.645 3.274.105.062.189-.063.084-.189-.818-.966-1.784-2.015-2.371-2.959l.042-.084c.88 1.05 1.343 2.245 3.02 3.252.106.064.169.169.274.085.378-.293-1.448-.734-2.854-3.105l.02-.168c.526.714.61.923 1.092 1.427.672.734 1.72 1.595 1.889 1.469.168-.147-1.511-1.301-2.413-2.707l.042-.042c.713.986 1.72 2.182 3.189 2.938.21.104.126.084.378.084.65.04-1.448-1.03-2.54-2.225l.022-.105c.315.273.713.63 1.154.987.525.377 1.07.713 1.51.965.399.21.714.336.86.273.379-.19-1.447-.84-1.908-1.322.272.146.545.25.776.355.797.4 1.364.673 1.49.526.084-.106-.336-.337-1.07-.61-.084-.083-.021-.104.188-.062.84.335 1.322.566 1.427.503.273-.083-.168-.272-.671-.586.629.272 1.175.524 1.469.44.104-.022-.357-.274-.756-.63.567.357 1.91.84.63-.063l.084-.041c.482.356 1.09.502.356-.085h.105c.42.337.65.587.336-.105.42.608.839.84.273-.041l.65.503c-.231.105-.21.168 0 .294.546.357.588.294.483 0 .063-.566-.147-.944-.525-1.175-.42-.273-.398.041.084.797a1.882 1.882 0 01-.441-.483.528.528 0 00-.482-.273c-.986.021-1.951.21-2.875.337-.713.105-1.26 0-1.51-.169-.252-.21-.336-.293-.21-.523.084-.19 0-.337-.126-.4l-.672-1.343c.084.147.189.21.273.336.273.44.462.797.525.776-.105-.293-.462-.944-.735-1.677.525.922.987 1.72 1.112 1.614-.062-.355-.482-1.049-.902-1.762.126.127.168.168.252.273.168.21.315.398.399.357-.336-.692-.693-1.133-1.07-1.26-.588-.21-.945-.293-.861.084l-.293-.335-.315-.041c-.105.04.042.209.252.566l-.063.042-.357-.567c-.105-.063-.252-.125-.273 0l.189.378-.4-.44c-.187-.105-.397-.147-.397-.063l.587.965c-.105-.148-.273-.294-.42-.505-.23-.315-.42-.544-.692-.587-.273-.02.273.42.65 1.322l-.902-1.3c-.084-.064-.44-.127-.461 0l1.049 1.51c-.483-.546-.965-1.008-1.238-1.532-.063-.063-.126-.063-.19-.063-.041-.02-.083 0-.125.043l1.28 1.656a7.28 7.28 0 01-.692-.713c-.273-.377-.525-.63-.735-.965-.084-.104-.251-.063-.272-.02-.105.146.965 1.238 1.426 1.887a10.414 10.414 0 01-1.615-1.887c-.21-.105-.357-.105-.42 0-.063.125 1.3 1.427 1.825 2.244-.713-.756-1.405-1.468-1.972-2.244-.084-.105-.336-.105-.336 0 0 .21 1.175 1.28 2.12 2.58-.693-.755-1.532-1.762-1.89-1.972-.167-.021.42.713 1.764 2.244a17.98 17.98 0 01-1.847-1.95c-.168.146.567 1.07 1.637 2.244l-1.68-1.762c-.23-.146-.271-.125-.146.084"/><path fill="#FEFEFE" d="M38.04 14.653c-.043-.021-.043.294-.064.44a.67.67 0 00.042.399c.063.147.084.168.084.126-.02-.294-.063-.545-.02-.776.02-.105-.022-.147-.043-.19zm.23 0c-.02-.042-.02.357-.042.546a.899.899 0 00.084.524c.063.168.105.21.105.147-.042-.378-.105-.692-.084-.986.021-.147-.02-.19-.063-.231zm.273-.021c-.042-.042 0 .44-.02.692-.022.21 0 .42.104.63.083.21.125.252.125.189-.063-.462-.146-.861-.125-1.238.021-.168-.02-.231-.084-.273zm.314.315c-.042-.021 0 .419-.02.629-.022.21.02.378.104.567.084.189.147.23.126.168-.063-.42-.147-.777-.126-1.112 0-.147-.042-.21-.084-.252zm.294.335c-.042-.041 0 .357 0 .546-.02.189.021.336.105.525.105.146.147.188.126.125-.063-.377-.147-.692-.147-.986 0-.147-.042-.19-.084-.21zm.294.315c-.042-.021.021.315.021.483 0 .168.021.315.126.46.084.127.126.169.105.106-.063-.314-.168-.587-.168-.86 0-.126-.02-.168-.084-.19zm.315.315c-.042 0 .021.294.021.44 0 .126.041.252.125.378.084.105.126.147.105.105-.084-.294-.168-.524-.168-.755a.294.294 0 00-.083-.168zm.293.315c-.042 0 .021.25.042.377 0 .126.042.21.126.315.084.105.126.126.105.084-.084-.231-.168-.441-.189-.63 0-.083-.042-.125-.084-.146zm1.7 2.6c-.23-.23-.378.043-.063.337.273.252.566.168.482.084l-.419-.42zm-5.476-5.538c.062.02.146.252.23.483.084.21.21.44.21.503-.336-.272-.482-.671-.44-.986zm-2.77 4.134c.147 1.049 1.028 2.392 2.203 3.336-.084-.273-1.049-1.133-1.51-1.91-.44-.776-.525-1.217-.693-1.426zm.168-.4c.084.987.86 2.162 1.972 3.043-.084-.251-.902-.986-1.343-1.72-.419-.714-.482-1.154-.629-1.322zm.147-.42c.084.925.797 2.016 1.825 2.834-.063-.231-.818-.902-1.217-1.574-.378-.671-.462-1.091-.608-1.26zm.167-.397c.084.86.735 1.867 1.68 2.622-.043-.21-.735-.84-1.113-1.468-.336-.61-.42-1.007-.567-1.154zm.21-.4c.063.777.63 1.722 1.511 2.414-.042-.19-.67-.755-.986-1.343-.336-.566-.399-.944-.525-1.07zm.21-.398c.042.714.546 1.574 1.364 2.224-.042-.167-.588-.713-.88-1.237-.295-.525-.379-.882-.484-.987zm.231-.398c.021.65.482 1.447 1.196 2.014-.02-.147-.504-.63-.755-1.112-.273-.462-.336-.797-.44-.902zm.252-.378c.105.084.168.399.398.818.231.42.63.86.651.986-.65-.503-1.049-1.216-1.049-1.804zm.293-.378c.084.084.147.357.336.735.21.377.546.755.546.88-.546-.461-.882-1.09-.882-1.615zm.315-.335c.063.042.147.314.315.629.168.336.42.65.441.755-.504-.398-.777-.944-.756-1.384zm-2.539 8.812c.042-.147.042-.315.063-.461.672 1.049 1.637 2.16 2.707 3.147-.084-.42-1.427-1.574-2.245-2.665a10.215 10.215 0 01-.42-.797c.021-.126.021-.231.042-.378.567 1.154 1.47 2.224 2.728 3.315-.147-.377-1.448-1.426-2.14-2.538-.252-.441-.44-.798-.546-1.092v-.188c.567 1.133 1.553 2.308 2.728 3.315-.126-.378-1.469-1.47-2.119-2.54a9.354 9.354 0 01-.567-1.111v-.21c.546 1.09 1.763 2.56 2.875 3.525-.126-.357-1.637-1.68-2.266-2.707-.273-.482-.462-.86-.567-1.154v-.293c.462 1.09 1.637 2.538 2.791 3.483-.126-.357-1.574-1.553-2.16-2.54a6.701 6.701 0 01-.589-1.216c0-.105 0-.231.021-.315.4 1.112 1.511 2.455 2.686 3.357-.126-.314-1.469-1.406-2.015-2.33-.356-.607-.524-1.006-.65-1.3 0-.126 0-.231.021-.356.336 1.09 1.385 2.413 2.56 3.336-.084-.315-1.343-1.301-1.889-2.182-.398-.672-.524-1.112-.65-1.406v-.063c.021-.126.021-.273.042-.4.231 1.092 1.238 2.498 2.434 3.463-.084-.272-1.238-1.26-1.72-2.077-.462-.776-.567-1.238-.714-1.49.357-3.021 1.637-4.805 3.504-5.12l.042.022c-.063.356 0 .797.21 1.217.042-.084-.063-.504-.084-.861v-.314l.168.042c.021.419.168.818.356.86-.146-.231-.167-.525-.167-.777l.23.063c0 .44.147.924.357.945-.189-.252-.189-.588-.168-.861l.042.02c.042.169.105.337.19.42.083-.104.041-.314-.022-.545.231-.125.504-.104.797.084.105.126.063.189-.084.189h-.146l.335.147c.021.042.084.084-.105.105l-.126.105.441.042c.147.063.126.105.084.168l-.105.126c.378 0 .776.084 1.26.335-.022.168-.21.147-.568-.042.084.21.42.23.4.357-.043.23-.546.02-.777.315l.566.02c.126.085.084.148-.105.148.294.356.525.46.61.209.083-.188.167-.188.251 0 .356.21.42.23.21.273l-.336.063.398.063c.105.042.105.126.042.189-.272.042-.293.084.21.105.21.105.294.21.21.294-.44.02-.42.084.105.126.126.062.168.146.147.209-.273.063-.23.126.105.126.042.063.084.105.021.168-.315.084-.273.126.126.126.021.147.251.126.335.315.336-.063.483.168.19.168l-.022.063c.483.02.693.146.63.44-.042.126-.693-.252-.42.756l.105.104c.19.042-.02-.461.294-.42.042.022.084.169.021.42-.063.23-.21.336-.44.189-.21-.147-.337-.293-.316-.461l.021-.315c-.23.02-.272-.126-.293-.357 0-.042-.084-.021-.063-.084-.378-.063-.546.063-.65.336-.022.105-.106.02-.148-.084.021-.063-.126.02-.21-.021-.063 0-.042-.147-.104-.126-.042 0-.042.063-.126.063-.063-.021-.042-.168-.168-.042-.084.084-.105.084-.126-.042.021-.105.105-.314-.126-.021-.084.042-.105.042-.147-.063-.126-.356-.21-.377-.252-.063-.063.126-.126.147-.126-.042-.125-.545-.146-.545-.104-.021-.02.23-.084.21-.21-.063-.147-.44-.21.042-.315-.167-.147-.252-.042-.61-.294-.714l.147.735c0 .105-.168.125-.189-.042-.084-.483-.398-1.322-.335-1.05l.188 1.008c.021.084-.209.042-.25-.084l-.253-1.26c-.063-.356-.063.672.084 1.113 0 .063-.168.063-.147-.021 0-.105-.189-1.301-.252-1.238-.147.147.252 1.343-.063 1.154-.042-.021-.147-1.217-.189-1.238-.02 0 0 1.154-.042 1.133-.335-.42.021-1.553-.209-1.616-.042 0-.147 1.385-.189 1.343.147 1.07 1.007 1.112.944 1.427l-.609-.315c.168.315.42.65.588 1.007-.189.063.021.315.147.44-.189-.02-.147.106.21.442.084.063.105.126.084.189-.44-.105-.483-.105.23.46-.44-.062-.46-.02.042.316a.563.563 0 01.21.315c.021.084-.063.042-.105.042-.084-.042-.21-.126-.252-.147-.125-.021-.042.147.546.587.147.126.21.23.105.273-.714-.441-.672-.336.105.336.19.293.21.419.147.46-.63-.523-1.049-.86.042.232.188.189.23.315.084.336-1.092-.818-.504-.273.23.482.042.042 0 .105-.042.084-1.049-.776-1.09-.587.021.567.042.105.105.189.063.273-.02.042-.105 0-.147-.021-.755-.714-.692-.567.168.608.126.189.19.357-.02.252-.945-1.07-1.239-1.301-.022.336.126.209.147.314-.02.25-.86-1.174-.882-1.027-.043.232.063.147.063.168 0 .147-.776-.944-1.007-1.175-.042.21.126.252.105.294-.02.168-.945-1.175-.966-1.028-.043.189.084.147.126.23-.02.168-1.092-1.238-1.092-1.196-.042.146.02.336.02.315-.189.147-.105-.126-.105-.231-.21-.335-.672-.82-.755-.756.042.293-.084.084-.189.084-.315-.021-.692-.902-.755-.902-.21-.042l-.377-.063c-.063-.125-.126-.188-.21-.272-.65-.63-.88-.693-.23.126.02.02-.043.04-.022.062l-.734-.125a.36.36 0 01-.273-.147c-.315-.546-.504-.756-1.028-1.26.042.19.44.525.755 1.05.084.336-.294.189-.42.126-.23-.315-.314-.357-.65-.756-.944-1.112-1.95-2.371-2.77-3.252zm-.063.44c.021-.125.042-.23.063-.335.63.797 1.868 2.287 2.581 3.168.378.462.357.44.567.672 0 .105-.084.063-.23.02-.19-.21-.169-.188-.358-.44-.88-1.028-1.846-2.224-2.623-3.084zm-.105.504c.756.84 1.03 1.217 1.847 2.183.084.125.524.566.608.67.105.21.462.21.294.064-.147-.168 0-.042-.21-.315-.67-.818-1.783-2.161-2.455-3-.02.147-.063.272-.084.398zm-.125.44c.713.819 1.363 1.554 2.12 2.456.104.063.21.063.293.02a28.099 28.099 0 01-.672-.796c-.608-.756-.965-1.154-1.658-1.994-.02.105-.04.21-.083.315zm-.147.526c.545.629 1.07 1.175 1.636 1.867.168.084.294.084.357.02-.546-.712-1.238-1.49-1.867-2.265-.042.105-.063.189-.105.273-.02.042-.02.063-.02.105zm-.084.67c.44.442.776.714 1.175 1.134.126.063.21.063.273 0-.483-.608-.924-1.07-1.406-1.68-.042.19-.042.379-.042.547zm.084.588c.21.21.42.336.63.567a.29.29 0 00.314-.042c-.336-.357-.65-.566-1.007-.923.021.126.042.273.063.398zm.42.546c-.315.02-.378-.042-.399-.357.147.147.272.21.398.357zm3.713-13.513c-.105.357 0 .86.336 1.28.021-.084-.105-.398-.189-.692-.063-.273-.084-.546-.147-.588zm.315 11.499c0-.273-.21-.567-.504-.735.021.063.19.23.315.42.105.168.147.273.19.315zm.084.818c-.063-.063-.126-.231-.273-.483-.168-.272-.44-.545-.462-.63.441.295.714.714.735 1.113zm.084.797c-.084-.063-.147-.293-.357-.63-.21-.356-.566-.712-.587-.817.545.398.902.965.944 1.447zm.021.63c-.042-.61-.378-1.05-1.049-1.553.021.147.44.504.692.944.252.42.252.525.357.609zm-1.3-13.093c-.022.378.188.86.586 1.175 0-.063-.188-.357-.314-.61-.126-.292-.189-.523-.273-.565z"/><path fill="#DDB406" d="M20.31 12.156c-.295-.105-.379.02-.316.336 4.197 5.917 10.554 14.56 18.045 24.759l-.042.147.63.356-.21-.84-.126.085c-5.77-8.057-12.464-17.541-17.982-24.843m-.734.336c.063.168-.063.252-.189.084-.273-.315-.21-.714.084-1.07.314-.378.713-.378 1.07-.105.21.168.147.188-.105.188-.713 0-.986.357-.86.903m-3.169-5.393a98.73 98.73 0 011.89 2.392c0 .147-.064.23-.232.23-.693-.985-1.217-1.782-1.742-2.538-.105-.147.021-.168.084-.084"/><path fill="#0096D7" d="M31.514 14.002c-.147-.105-.21.147.042.063l.357-.315c.168-.294.063.084.168.063.125-.042.314-.42.272-.566l.294-.147c.168-.147.126-.21-.105-.189-.273.21-.545.441-.776.755l-.252.336zm-.671-.168c.042.042 0 .105-.063.19-.063.062-.147.083-.19.062-.02-.042 0-.126.064-.189.084-.063.147-.084.189-.063zm-8.645-.482c-.252.083-.252.188-.021.23a.597.597 0 00.273 0c.147-.02.209 0 .272.126.105.21.23.294.336.231.063-.063-.4-.399-.168-.399h.126c.357.336.693.525.672.462l-.147-.378c-.042-.126.147-.063.23.021l.483.42c.063.084 0-.063-.084-.336-.042-.084.084-.084.168 0 .294.294.65.798.65.61v-.19c0-.084.105-.084.168 0 .168.21.399.4.378.315l-.042-.168c-.021-.105.063-.105.189 0l.504.42c.104.083.188.041.146-.022l-.084-.125c-.062-.105-.021-.126.105-.042l.44.314c.085.063.085-.02-.041-.21h.252c.042.147.147.19.398.294.063.042.084-.042.21-.084l.609-.189c.189-.063.168-.188 0-.146-.881.23-1.805-.21-2.791-.756-1.301-.692-2.35-.692-3.231-.398zm1.028-.672c-.105.063-.105.105-.021.126.147-.126.294-.147.483.042 0-.273.105-.252.335.084-.084-.336 0-.42.357.084 0-.273.02-.315.252.147.063.084.126.084.147.042-.126-.483-.063-.462.21.042.083.105.125.105.125.042-.021-.336.126-.273.44.188.085.105.127.147.148.042-.063-.272.063-.25.336.084.209-.02.503.147.88.483.043.063.085.084.127.063-.21-.378.042-.23.377 0 .21-.105.23-.168.105-.21-.713-.252-1.301-.525-1.72-.839-.483-.378-.693-.273-1.26-.63-.482-.21-.922-.105-1.321.21zm2.37-.126c.463.042.924.21 1.365.462.02.063.042.105-.042.063-.168-.126-.315-.189-.441-.189.042.19.02.273-.063.252-.168-.294-.314-.336-.44-.273-.042.021-.063.042-.105.021-.126-.273-.19-.273-.252-.168-.126-.105-.126-.168-.021-.168zm-6.965 3.651c.315-.482.566-.629.734-.252.21-.67.44-.734.735-.147.398 0 .482.61.419 1.511l-.377-1.007v.65c-.252-1.112-1.868-.46-1.511-.755zm2.14.252c.063 0 .126.084.168.231.042.147.042.272.02.272-.062.021-.125-.083-.167-.23-.042-.126-.042-.252-.021-.273zm-2.392 2.287c.084-.147.252-.273.462-.399l.042.19.503-.169.042.168.546-.294c-.315.4-.378.567-.273.567.084 0 .483-.462.608-.336-.272.42-.02.294.44-.084.127.042-.167.336-.125.378.042.042.21-.084.546-.315.084-.063.273-.273.314-.168.02.126-.104.19-.167.273-.336.4-.252.336.335-.042.084-.042.21-.147.294-.105-.4.525-.231.42.357.063.084-.042.189-.189.294-.084-.735.651-.61.735.335.273-.44.504-.335.525.357.084.063-.02.147 0 .23-.042-.314.315-.356.546-.21.462.232-.105.525-.23.672-.189-.293.294-.272.42.105.356.126.042 0 .19-.377.441-.063.105-.126 0-.19-.252-.041.147-.104.147-.167.063l-.084.546-.126-.02v-.316c-.063-.084-.126-.084-.19 0l-.104.42-.19-.105a.884.884 0 01-.292.398c-.126-.167-.21-.125-.252.021-.084.021-.126-.04-.21-.02-.063.188-.126.23-.231.104-.168.105-.314.21-.482.378l-.084-.21c-.147.21-.273.336-.357.294l-.147-.147-.231.378-.377.105c0 .105.147.105.398.063.336-.042.987-.189 1.406-.315.42-.126.88-.189 1.385-.399.399-.189.86-.524 1.322-.755.105.084.02.294-.86.986l-.42-.126.23.315c-.104.105-.188.147-.293.126l-.378-.189.126.4c-.273 0-.398-.337-.65-.19l.105.315-.567-.168.105.377-.482-.209-.105.21c-.147 0-.231.041-.252.104 1.112.19 2.329-.21 3.588-.818.063-.02.084.021.084.126-.105.503-.462.944-1.028 1.343l.167-.672c-.377.168-.797.986-1.112 1.091l.336-.88-.986.817c-.084-.105.042-.335.252-.629-.294 0-.798.692-.882.65-.21-.105.168-.314.252-.46-.272-.022-.461.23-.692.355-.021-.125.126-.272.378-.503l-.82.378c0-.147.316-.273.379-.483-.378.252-.713.42-.797.4l.25-.4-.712.378.44-.462-.755.357.21-.399-.545.357.23-.44c-.272.23-.524.377-.671.377.147-.189.252-.336.23-.44-.251.21-.503.356-.608.356l.105-.357c-.21.21-.44.357-.692.441l.252-.42c.04-.063.02-.147-.063-.084l-.567.462c.126-.23.189-.378.105-.44l-.4.21.043-.232-.461.504c-.063-.02.02-.147.084-.378l-.483.315c.252-.504.67-.839 1.238-1.007.67-.21 1.196-.23 1.616-.294.734-.105 1.196-.168 1.783-.44.273-.106.588-.23.923-.504.168-.126.105-.168-.084-.147l-.755.042v-.336l-.294.4-.063-.4-.251.693-.105-.798-.19.861-.104-.84-.315.965-.084-1.007-.19 1.028-.188-1.049-.125 1.05-.21-.987-.084.944-.273-.965-.021 1.007-.315-.965-.063.861-.21-.84-.083.756-.168-.693-.105.756c-.315-.588-.441-1.07-.231-1.343.315-.357.734-.44 1.154-.378zm-2.665 4.511l-.084.231c.105.021.189-.126.294-.189l-.084.378c.126.021.42-.294.63-.44l-.147.377c.189 0 .315-.273.46-.42l-.082.4c.23-.022.377-.316.566-.484l-.042.378c.168-.02.294-.252.462-.399l.084.273c.147.021.23-.189.356-.273l.063.252.315-.315.063.273.357-.126.105.147.293-.147-.021.315.399-.168.042.21.294-.168v.273l.335-.084.02.252.505-.21-.168.378.44-.273-.062.294.482-.21-.272.44c.314.021.419-.209.629-.314l-.147.398c.315-.063.588-.314.86-.65.063.105.02.273-.21.63.336-.148.504-.378.63-.63l-.105.44c.21-.02.42-.188.609-.482l-.021.42c.168-.126.293-.294.377-.504.21.084.44-.042.525-.378.126-.314.042-.419-.231-.314-.902.63-2.098.797-3.861.272-1.133-.314-2.308-.356-3.483-.398-.524-.02-.965.063-1.175.545zm6.987 1.49c.084-.126.168-.189.189-.168.042.042 0 .168-.063.294-.084.105-.168.168-.21.147-.02-.042 0-.168.084-.273zm.42-.084c.084-.147.189-.23.23-.189.043.042 0 .19-.083.336-.105.147-.21.231-.252.19-.042-.043 0-.19.105-.337zm.462-.252c.126-.189.272-.273.314-.23.042.062-.021.251-.125.42-.126.188-.273.293-.315.23-.042-.042.02-.23.126-.42zm-1.427.294c.189 0 .357.063.357.126 0 .084-.168.147-.357.147-.21 0-.378-.063-.378-.147 0-.063.168-.126.378-.126zm8.33-10.995c0-.147.545-.524 1.259-1.007.315-.252.608-.336.88-.336.085.021.21.042.379.021.168.105.105.19-.084.231-.084-.063-.168-.084-.252-.042-.19.042-.21.168-.336.21l-.084-.126c-.251.168-.42.63-.608.86l-.042-.23c-.126.021-.21.293-.4.44.022-.168-.02-.252-.083-.252-.314.21-.545.315-.63.231z"/></g></svg>