<svg xmlns="http://www.w3.org/2000/svg" width="60" height="60"><g fill="none" fill-rule="evenodd"><path fill="#000" d="M30 0c16.569 0 30 13.432 30 29.995v.01C60 46.571 46.572 60 30 60 13.431 60 0 46.572 0 30 0 13.431 13.428 0 30 0z"/><path fill="#FFF" d="M36.088 38.8h3.966c.064-.173.138-.282.138-.391.01-3.9.048-7.8-.02-11.697-.01-.631-.347-1.419-.796-1.85-1.54-1.48-3.425-2.03-5.551-1.743-1.835.248-3.183 1.282-4.291 2.718-2.414-3.111-5.699-3.621-9.028-1.535-1.132.708-1.677 1.625-1.657 3 .051 3.466.021 6.933.03 10.399.001.343.045.686.07 1.058h4.112v-1.404c0-3.111-.045-6.225.04-9.334.017-.602.393-1.402.863-1.744 1.51-1.102 3.274-.142 3.322 1.81.078 3.11.028 6.222.04 9.334.001.458.04.916.062 1.357h4.31v-1.385c0-3.111-.021-6.223.007-9.335.012-1.35.822-2.15 2.076-2.183 1.291-.034 2.2.793 2.296 2.114.03.43.011.866.011 1.299V38.8zM29.813 15l5.958 4.5.137-1.374h3.864c0 1.165-.08 2.339.035 3.493.053.534.416 1.084.762 1.528.276.355.725.581 1.12.828.87.544 1.251 1.293 1.242 2.354-.035 4.093-.008 8.187-.017 12.28-.004 1.672-.674 2.334-2.35 2.338-7.364.018-14.728.032-22.093.038-1.778.002-2.454-.687-2.457-2.49-.008-4.093-.04-8.188.033-12.28.013-.704.294-1.66.793-2.059 3.89-3.113 7.862-6.118 11.81-9.156h1.163z"/></g></svg>