<svg xmlns="http://www.w3.org/2000/svg" width="41" height="40" fill="none"><circle cx="20.5" cy="20" r="20" fill="#FF005B"/><path fill="#F6FAFF" fill-rule="evenodd" d="M27.511 10.34l-1.276 1.278 1.655 1.656-2.206 2.208-.931-.931 1.275-1.277-1.655-1.656.931-.932 1.276-1.277.931.932zm.48 12.068c0-.655.552-1.208 1.207-1.208s1.207.553 1.172 1.208c0 .656-.517 1.173-1.172 1.173-.69 0-1.207-.517-1.207-1.173zm-1.31 0c0 1.38 1.137 2.485 2.517 2.485 1.379 0 2.517-1.105 2.482-2.485a2.473 2.473 0 00-2.482-2.484c-1.38 0-2.518 1.104-2.518 2.484zm-6.47 4.464h-1.31v4.486h1.31v-4.486zm.587 0h1.31v4.486h-1.31v-4.486zm-9.087-4.475l.62 1.07h-1.24l.62-1.07zm0-2.485l-2.758 4.762h5.517l-2.759-4.762zm4.82-10.02l.932.932-1.587 1.587L17.463 14l-.931.931-1.587-1.587-1.586 1.587-.931-.931 1.586-1.588-1.586-1.587.931-.932 1.586 1.588 1.587-1.588z" clip-rule="evenodd"/></svg>