<svg xmlns="http://www.w3.org/2000/svg" width="60" height="60" fill="none"><g clip-path="url(#yoobusiness__clip0)"><path fill="#fff" d="M30 60c16.569 0 30-13.431 30-30C60 13.431 46.569 0 30 0 13.431 0 0 13.431 0 30c0 16.569 13.431 30 30 30z"/><path fill="url(#yoobusiness__paint0_linear)" d="M35.247 16c-7.928 0-14.234 6.318-14.234 14.06 0 7.83 6.396 14.058 14.234 14.058 7.837 0 14.234-6.318 14.234-14.059C49.57 22.318 43.084 16 35.247 16zm0 19.309c-2.883 0-5.316-2.402-5.316-5.25 0-2.847 2.433-5.25 5.316-5.25s5.315 2.403 5.315 5.25c0 2.848-2.342 5.25-5.315 5.25z"/><path fill="url(#yoobusiness__paint1_linear)" d="M21.013 20.093V40.56h-5.045L9.48 20.093h11.532z"/></g><defs><linearGradient id="yoobusiness__paint0_linear" x1="35.515" x2="49.389" y1="15.895" y2="32.537" gradientUnits="userSpaceOnUse"><stop stop-color="#78A1BB"/><stop offset="1" stop-color="#6690AB"/></linearGradient><linearGradient id="yoobusiness__paint1_linear" x1="15.356" x2="24.836" y1="20.017" y2="26.346" gradientUnits="userSpaceOnUse"><stop stop-color="#78A1BB"/><stop offset="1" stop-color="#6690AB"/></linearGradient><clipPath id="yoobusiness__clip0"><path fill="#fff" d="M0 0h60v60H0z"/></clipPath></defs></svg>