<svg xmlns="http://www.w3.org/2000/svg" xmlns:xlink="http://www.w3.org/1999/xlink" width="80" height="80"><defs><circle id="hotellook__a" cx="40" cy="40" r="40"/></defs><g fill="none" fill-rule="evenodd"><use fill="#73C34A" xlink:href="#hotellook__a"/><g fill="#FFF" fill-rule="nonzero"><path d="M64.435 20.641c-.175 0-.263.176-.175.352l.088.352c0 .088.175.176.263.176h.088c.176 0 .264-.176.176-.352l-.088-.264c0-.176-.176-.264-.352-.264m.44 4.485c0 .264 0 .528.088.792 0 .176.176.264.264.264.176 0 .264-.176.264-.264 0-.264 0-.528-.088-.792 0-.176-.176-.264-.264-.264-.176 0-.264.088-.264.264m-6.068 30.077h.088c.088 0 .264-.088.264-.176l.264-.704c.088-.175 0-.351-.176-.351-.176-.088-.352 0-.352.176l-.176.703c-.088.088 0 .264.088.352m1.583-4.397h.088c.088 0 .264-.088.264-.176l.264-.704c.088-.176 0-.264-.176-.352-.176-.087-.352 0-.352.176l-.264.704c0 .176 0 .352.176.352m.792-3.254c-.088.264-.176.44-.264.703-.088.176 0 .264.176.352h.088c.088 0 .263-.088.263-.176a6.06 6.06 0 01.264-.703c.088-.176 0-.264-.176-.352-.176 0-.263.088-.351.176m3.43-24.712c0 .264.087.527.087.791 0 .176.176.264.264.264.176 0 .264-.176.264-.352 0-.264-.088-.527-.088-.791 0-.176-.176-.264-.352-.264-.088.088-.176.176-.176.352m-6.947 35.353c-.176-.088-.352 0-.352.176l-.264.703c-.088.176 0 .352.176.352h.088c.088 0 .176-.088.264-.176l.264-.703c.088-.088 0-.264-.176-.352m.88-2.11c-.177-.089-.353 0-.353.175l-.263.704c-.088.176 0 .264.176.351h.087c.088 0 .264-.087.264-.175l.264-.704c0-.176-.088-.264-.176-.352m6.508-24.36c-.176 0-.264.088-.352.264 0 .264-.088.527-.088.791 0 .176.088.264.264.352.176 0 .264-.088.264-.264 0-.264.088-.527.088-.791.088-.176 0-.352-.176-.352m-2.814 13.455c-.176 0-.352 0-.352.176l-.264.704c-.088.176 0 .264.176.352h.088c.088 0 .264-.088.264-.176l.264-.704c.088-.176 0-.264-.176-.352m2.55-11.168c-.176 0-.264.087-.352.263 0 .264-.087.528-.087.792 0 .176.087.264.263.352h.088c.176 0 .264-.088.264-.264 0-.264.088-.528.088-.792 0-.176-.088-.351-.264-.351m-.352 2.286c-.175 0-.263.088-.351.264-.088.264-.088.528-.176.791 0 .176.088.264.264.352h.088c.175 0 .263-.088.263-.264.088-.264.088-.527.176-.791 0-.176-.176-.352-.264-.352m.792-6.86c-.176 0-.264.088-.264.264 0 .264 0 .528-.088.792 0 .176.088.264.264.264.176 0 .264-.088.264-.264 0-.264 0-.528.088-.792 0-.176-.088-.264-.264-.264M62.852 42.98c-.175 0-.263.088-.351.176l-.176.703c0 .176.088.264.176.352h.088c.088 0 .263-.088.263-.176l.176-.704c.088-.175 0-.351-.176-.351m2.463-15.83c-.176 0-.264.088-.264.264v.791c0 .176.088.264.264.264.176 0 .264-.088.264-.264v-.791c0-.176-.176-.264-.264-.264m-1.847 13.63c-.176 0-.264.088-.352.176l-.176.704c0 .175.088.263.176.351h.088c.088 0 .264-.088.264-.176l.176-.703c0-.176-.088-.352-.176-.352m.528-2.286c-.176 0-.264.088-.352.176l-.176.703c0 .176.088.264.176.352h.088c.088 0 .264-.088.264-.176l.176-.792c0-.087-.088-.175-.176-.263M48.782 11.055c.263 0 .527 0 .791-.088.176 0 .264-.176.264-.263 0-.176-.176-.264-.264-.264-.264 0-.528 0-.791.088-.176 0-.264.176-.264.263 0 .088.176.264.264.264m-2.287.176c.264 0 .528-.088.792-.088.175 0 .263-.176.263-.352 0-.175-.176-.263-.351-.263-.264 0-.528.088-.792.088-.176 0-.264.175-.264.351.088.176.176.264.352.264m6.948-.088c.263 0 .527.088.791.088h.088c.176 0 .264-.088.264-.264 0-.176-.088-.263-.264-.351-.264-.088-.528-.088-.792-.088-.175 0-.263.088-.351.263 0 .176.088.264.264.352m4.309 1.231c.264.088.44.264.703.352h.176c.088 0 .176-.088.264-.176.088-.176 0-.263-.088-.351-.264-.088-.44-.264-.703-.352-.176-.088-.352 0-.352.088-.176.176-.088.352 0 .44m-6.596-1.408h.792c.175 0 .263-.088.263-.263 0-.176-.088-.264-.263-.264h-.792c-.176 0-.264.088-.264.264-.088.087.088.263.264.263m4.485.616c.264.088.528.176.704.264h.088c.088 0 .263-.088.263-.176.088-.176 0-.264-.175-.352l-.792-.264c-.176-.088-.264 0-.352.176 0 .176.088.264.264.352m-11.432.088c.351-.088.527-.088.791-.176.176 0 .264-.176.264-.352s-.176-.264-.352-.264c-.264.088-.528.088-.791.176-.176 0-.264.176-.176.352 0 .176.088.264.264.264m-2.287.528s.088 0 0 0c.352-.088.528-.176.791-.176.176 0 .264-.176.176-.352-.088-.176-.088-.264-.263-.176-.264.088-.528.088-.792.176-.176 0-.264.176-.176.352 0 .088.176.176.264.176m-2.199.615c.264-.088.528-.176.792-.176.176 0 .264-.176.176-.351-.088-.176-.176-.264-.352-.176a6.06 6.06 0 00-.704.263c-.175.088-.263.176-.175.352 0 0 .088.088.263.088m20.227.968c.088 0 .088.088.176.088s.176 0 .176-.088c.088-.088.088-.264 0-.44l-.264-.264c-.088-.088-.264-.088-.44.088-.087.088 0 .264.089.352l.263.264M41.13 39.46c.528.791.616 1.759.264 2.55 1.671-.791 3.166-1.319 4.222-1.319.527 0 1.055.088 1.407.352.527.352 1.934 1.935.527 8.53-.263 1.232.528 2.375 1.76 2.639.175 0 .351.088.439.088 1.055 0 2.023-.704 2.199-1.76 1.407-6.683.615-11.08-2.375-13.19-1.143-.792-2.462-1.144-3.957-1.144-1.935 0-4.134.616-6.508 1.847.88.264 1.583.703 2.022 1.407"/><path d="M39.811 42.979c1.056-.704 1.407-2.023.704-3.078-.44-.704-1.143-1.056-1.935-1.056-.44 0-.791.088-1.231.352-.44.264-.88.616-1.32.88l-1.494 7.563c1.495-1.76 3.342-3.43 5.276-4.661m-4.573-13.631h.44c1.055 0 2.023-.704 2.199-1.847l1.67-8.355c-.527.44-1.143.616-1.846.616-.176 0-.352 0-.616-.088-.88-.176-1.583-.704-2.023-1.495l-1.67 8.53a2.345 2.345 0 001.846 2.639m15.039 35.704c-.352.088-.616.176-.792.176 0-.44-.176-1.583.352-4.22-.528.439-1.143.615-1.847.615-.176 0-.44 0-.616-.088-.879-.176-1.583-.704-1.934-1.495-.792 4.221-.704 7.387 1.495 8.97.703.528 1.583.703 2.462.703 1.143 0 2.375-.351 3.606-.967-1.495-.616-2.55-2.023-2.726-3.694M26.62 60.655a734.67 734.67 0 00-1.32 6.42c-.263 1.231.528 2.375 1.76 2.638.175 0 .351.088.44.088 1.055 0 2.022-.703 2.198-1.758 0 0 .615-3.166 1.319-6.508-.44.176-.88.176-1.407.176-1.143 0-2.199-.44-2.99-1.056"/><path d="M31.984 17.563c1.495-.791 2.815-1.319 3.606-1.495 0 .088 0 .176-.088.264-.264 1.231.528 2.374 1.759 2.638h.44c1.055 0 2.022-.703 2.198-1.847.616-2.99-.527-4.397-1.583-5.012-.703-.44-1.495-.616-2.374-.616-1.935 0-4.31.967-6.42 2.11 1.407.88 2.374 2.287 2.462 3.958zM25.037 39.99c-.264.088-.528-.088-.528-.352-.088-.264.088-.528.352-.528.264-.088.528.088.528.352s-.176.44-.352.528zm.791 4.22l.528-.527-.44-2.638c.352-.264.528-.792.44-1.32-.176-.703-.88-1.23-1.583-1.142-.703.175-1.231.879-1.143 1.583.088.527.44.879.88 1.055l.087.528.528.351-.264.44.352.264-.264.352.352.263-.264.352.791.44zm37.376-26.03c.176-.176.528-.088.616.176.176.175.088.44-.088.527-.176.176-.528.088-.616-.176-.176-.176-.088-.44.088-.527zm-1.143.703c.44.616 1.231.88 1.935.44.615-.44.88-1.231.44-1.847-.264-.44-.704-.703-1.232-.615l-.264-.44-.615-.264.088-.44-.44-.088.088-.44-.44-.087.088-.44-.88-.088-.263.704 1.407 2.286c-.176.352-.176.88.088 1.32z"/><path d="M46.935 53.004l-1.144 5.189c-.263 1.231.528 2.374 1.76 2.638.175 0 .351.088.527.088 1.055 0 2.023-.703 2.199-1.759l1.407-6.595c-.528.351-1.144.615-1.76.615-.175 0-.439 0-.615-.088-.791-.176-1.407-.615-1.847-1.319-.088-.088-.088-.176-.088-.264l-.175.792c-5.013.88-10.202 2.286-13.632 3.254-.615-1.495-2.022-2.55-3.781-2.55-1.759 0-3.166 1.055-3.782 2.55-4.485-1.583-11.432-5.013-13.191-11.433-1.76-6.42 2.198-14.335 11.784-23.48.264.263.528.439.88.615-1.056 3.254-2.023 8.53-1.144 16.27 0 .175.176.263.264.263.176 0 .264-.176.264-.352-.88-7.563.088-12.751 1.055-15.917.44.175.88.175 1.32.175 2.198 0 4.045-1.758 4.045-3.957s-1.759-3.957-4.046-3.957c-2.198 0-4.045 1.758-4.045 3.957 0 .967.352 1.847.88 2.462-9.674 9.322-13.72 17.413-11.96 24.009 1.758 6.596 8.97 10.201 13.542 11.784-.087.264-.087.528-.087.88 0 2.198 1.758 3.957 4.045 3.957 2.199 0 4.045-1.759 4.045-3.957 0-.264 0-.616-.088-.88 3.342-.791 8.443-2.11 13.368-2.99"/><path d="M61.885 53.532c-.352-.528-.88-.967-1.67-1.32v-.087c.087-.176 0-.264-.177-.352-.176-.088-.351 0-.351.176v.088c-1.935-.616-4.75-.616-7.915-.352l-.088.528c3.166-.352 5.98-.352 7.827.264v.175c-.088.176 0 .264.176.352h.087c.088 0 .264-.088.264-.176v-.088c.616.264 1.056.616 1.32 1.056.879 1.495-.352 4.221-3.606 7.915a3.905 3.905 0 00-.968-.704l.176-.352c.088-.176 0-.351-.176-.351-.175-.088-.351 0-.351.175l-.176.352c-.44-.176-.792-.176-1.32-.176-2.198 0-4.045 1.76-4.045 3.958 0 2.198 1.76 3.957 4.046 3.957 2.198 0 4.045-1.759 4.045-3.957 0-.968-.352-1.76-.88-2.463 3.606-3.957 4.837-6.771 3.782-8.618zm-34.034-.88c.176-.087.352-.087.528-.175.44-.088.88-.176 1.319-.176 1.143 0 2.198.44 2.99 1.055l4.837-23.92c-.528.44-1.143.615-1.847.615-.176 0-.352 0-.616-.088-.879-.176-1.583-.703-2.022-1.495l-4.75 23.745c-.79-2.463-1.494-4.837-2.022-7.212 0-.175-.176-.263-.352-.175-.176 0-.264.175-.176.351a55.557 55.557 0 002.111 7.475z"/></g></g></svg>