<svg xmlns="http://www.w3.org/2000/svg" width="80" height="80"><g fill="none" fill-rule="evenodd"><circle cx="40" cy="40" r="40" fill="#DC1E3C"/><path fill="#FFF" d="M33 49.915c.161.036.24.069.32.069 4.351.003 8.702-.005 13.053.016.536.002.626-.193.625-.658A8462.49 8462.49 0 0147 23.64c0-.498-.144-.64-.65-.635-2.027.021-4.053 0-6.08-.004-1.592-.003-2.094.407-2.234 1.957-.155 1.711-.236 3.429-.363 5.143-.285 3.863-.614 7.725-1.469 11.516-.653 2.897-1.61 5.7-3.204 8.299zM36.047 18c.184.218.43.113.646.113 5.724 0 11.448.008 17.172-.029.737-.004.89.218.889.922-.023 10.18-.006 20.36-.035 30.54-.002.776.193 1.004.952.94.886-.073 1.783-.001 2.674-.035.463-.018.656.085.653.608-.021 3.76-.024 7.52.002 11.279.004.57-.208.667-.704.657a86.335 86.335 0 00-4.227.004c-.549.016-.682-.223-.735-.693-.158-1.407-.396-2.807-.499-4.217-.05-.689-.338-.77-.915-.766-4.027.02-8.054.01-12.08.01-3.596 0-7.192.02-10.787-.017-.688-.007-.883.236-.941.87-.13 1.41-.344 2.81-.484 4.219-.042.424-.149.599-.608.59-1.467-.028-2.934-.02-4.401-.003-.413.005-.621-.067-.619-.56.017-3.788.015-7.577.002-11.365-.002-.439.116-.624.581-.601.689.033 1.39-.065 2.068.026.94.125 1.448-.302 1.934-1.049 2.214-3.413 3.281-7.224 3.938-11.18.632-3.802.855-7.637.891-11.487.015-1.647.08-3.291.445-4.911.447-1.982 1.47-3.367 3.593-3.677.12-.018.22-.055.25-.188h.345z"/></g></svg>