<svg xmlns="http://www.w3.org/2000/svg" width="80" height="80"><g fill="none" fill-rule="evenodd"><circle cx="40" cy="40" r="40" fill="#E60000"/><path fill="#FFF" d="M17.958 34.859v-.41c0-1.769.013-3.538-.004-5.307-.016-1.619-1.287-2.843-2.898-2.828-1.536.015-2.78 1.281-2.78 2.851-.003 7.301-.003 14.602 0 21.904.002 1.84 1.602 3.168 3.388 2.829 1.34-.255 2.29-1.426 2.293-2.85.005-3.517.001-7.034.002-10.55 0-.135.011-.27.017-.407.892 0 1.754-.047 2.608.015.661.048 1.13.669 1.134 1.345.006.804.002 1.608.002 2.412 0 2.401-.007 4.803.003 7.204.005 1.384.94 2.552 2.22 2.815 1.838.377 3.455-.94 3.467-2.835.01-1.64.002-3.28.002-4.92V29.304c.001-.807-.23-1.52-.789-2.11-.796-.838-2.003-1.115-3.05-.708-1.113.432-1.84 1.448-1.848 2.645-.014 1.78-.005 3.559-.005 5.339v.388h-3.762zm24.969 8.805c0 1.19.049 2.382-.01 3.57-.15 3.064-2.323 5.705-5.276 6.483-3.817 1.007-7.73-1.3-8.705-5.153a7.335 7.335 0 01-.221-1.715c-.02-2.24-.039-4.482.014-6.721.077-3.249 2.64-6.15 5.83-6.68 3.721-.617 7.132 1.543 8.134 5.192.168.611.218 1.266.242 1.905.038 1.038.01 2.079.01 3.119h-.018zm-5.653-.042V40.02c0-.5-.165-.928-.567-1.235-.465-.356-.98-.412-1.503-.161-.58.278-.822.783-.823 1.412-.003 2.39-.013 4.781.013 7.172.003.332.128.704.308.984.34.528 1 .697 1.587.5.58-.196.979-.752.983-1.403.007-1.222.002-2.444.002-3.667zm12.72-3.528c.108-.015.18-.033.251-.034.628-.004 1.256.018 1.882-.012.941-.045 1.747-.399 2.261-1.232a2.508 2.508 0 00-1.564-3.78c-.64-.153-1.327-.13-1.993-.146-.876-.021-.876-.004-.83-.899.05-1.015.6-1.543 1.6-1.555.637-.007 1.28.017 1.91-.052 1.296-.143 2.253-1.155 2.296-2.358.05-1.385-.744-2.437-2.102-2.682-1.116-.201-2.253-.18-3.366.008-2.77.466-4.662 2.046-5.649 4.704-.383 1.033-.387 2.117-.385 3.204.007 5.264-.001 10.527.007 15.79.003 1.653 1.258 2.9 2.871 2.894 1.585-.006 2.807-1.27 2.808-2.915.003-3.516.002-7.032.003-10.548v-.387zm5.966-1.155h-.017v4.695c0 .204.008.408.026.61a2.858 2.858 0 002.035 2.467c1.84.522 3.603-.823 3.633-2.786.017-1.136.004-2.272.004-3.409 0-.458 0-.448.45-.46.742-.019 1.501.042 2.222-.094 1.928-.366 2.731-2.53 1.537-4.052-.584-.746-1.41-.998-2.316-1.02a43.794 43.794 0 00-1.627-.003c-.188.002-.274-.064-.267-.26.009-.224-.006-.45.005-.675.049-.983.596-1.503 1.568-1.516.669-.008 1.344.017 2.005-.063 1.298-.158 2.195-1.182 2.225-2.453.03-1.312-.793-2.38-2.114-2.567-.856-.12-1.738-.108-2.606-.077-3.668.13-6.599 3.041-6.752 6.743-.067 1.637-.011 3.28-.011 4.92zm2.812 15.08c1.707.02 3.132-1.372 3.156-3.084.024-1.76-1.347-3.198-3.082-3.232-1.726-.033-3.165 1.377-3.188 3.125a3.138 3.138 0 003.114 3.19z"/></g></svg>