<svg xmlns="http://www.w3.org/2000/svg" id="new-line-telecom__Layer_1" enable-background="new 0 0 60 60" viewBox="0 0 60 60"><g id="new-line-telecom__Symbols"><g id="new-line-telecom__new_line_telecom"><g id="new-line-telecom__newLine"><path id="new-line-telecom__path-1_1_" fill="#43a2d8" d="M29.7 59.4c16.4 0 29.7-13.3 29.7-29.7S46.1 0 29.7 0 0 13.3 0 29.7s13.3 29.7 29.7 29.7z"/><defs><filter id="new-line-telecom__Adobe_OpacityMaskFilter" width="49.9" height="32" x="12" y="15.2" filterUnits="userSpaceOnUse"><feColorMatrix values="1 0 0 0 0 0 1 0 0 0 0 0 1 0 0 0 0 0 1 0"/></filter></defs><mask id="new-line-telecom__mask-2" width="49.9" height="32" x="12" y="15.2" maskUnits="userSpaceOnUse"><g filter="url(#new-line-telecom__Adobe_OpacityMaskFilter)"><path id="new-line-telecom__path-1" d="M29.7 59.4c16.4 0 29.7-13.3 29.7-29.7S46.1 0 29.7 0 0 13.3 0 29.7s13.3 29.7 29.7 29.7z" class="new-line-telecom__st2"/></g></mask><g id="new-line-telecom__Page-1" mask="url(#new-line-telecom__mask-2)"><g transform="translate(12 15)"><defs><filter id="new-line-telecom__Adobe_OpacityMaskFilter_1_" width="31" height="32" x="18.9" y=".2" filterUnits="userSpaceOnUse"><feColorMatrix values="1 0 0 0 0 0 1 0 0 0 0 0 1 0 0 0 0 0 1 0"/></filter></defs><mask id="new-line-telecom__mask-2_2_" width="31" height="32" x="18.9" y=".2" maskUnits="userSpaceOnUse"><g filter="url(#new-line-telecom__Adobe_OpacityMaskFilter_1_)"><path id="new-line-telecom__path-1_3_" d="M17.6 44.7C34 44.7 47.3 31.4 47.3 15S34-14.8 17.6-14.8-12.1-1.5-12.1 15 1.2 44.7 17.6 44.7z" class="new-line-telecom__st2"/></g></mask><g id="new-line-telecom__Page-1_2_" mask="url(#new-line-telecom__mask-2_2_)"><path fill="none" d="M31.4-14.8c2.5 4.3 3.9 9.4 3.9 14.7 0 6.5-2.1 12.4-5.6 17.3h8.2v-32h-6.5z" transform="translate(12 15)"/><path fill="#267eb0" d="M31.4-14.8H6.9v32h22.8c3.5-4.9 5.6-10.8 5.6-17.3 0-5.3-1.4-10.3-3.9-14.7z" transform="translate(12 15)"/></g><path id="new-line-telecom__Fill-1" d="M0 23.8V5h2.6l6 9.5c1.4 2.2 2.5 4.2 3.4 6.1h.1c-.2-2.5-.3-4.8-.3-7.7V5h2.3v18.8h-2.4l-6-9.5C4.4 12.2 3.1 10 2.2 8h-.1c.1 2.4.2 4.6.2 7.7v8H0z" class="new-line-telecom__st2"/><path id="new-line-telecom__Fill-3" d="M22.3 5h2.5v16.7h8v2.1H22.3z" class="new-line-telecom__st2"/></g></g></g></g></g></svg>