<svg xmlns="http://www.w3.org/2000/svg" xmlns:xlink="http://www.w3.org/1999/xlink" width="60" height="60"><defs><path id="insis__a" d="M29.703 59.405c16.404 0 29.702-13.298 29.702-29.702C59.405 13.298 46.107 0 29.703 0 13.298 0 0 13.298 0 29.703c0 16.404 13.298 29.702 29.703 29.702z"/><path id="insis__c" d="M.095 10.037H44.83V.095H.095z"/><path id="insis__e" d="M.043 8.364h8.299V.014H.043z"/></defs><g fill="none" fill-rule="evenodd"><mask id="insis__b" fill="#fff"><use xlink:href="#insis__a"/></mask><use fill="#E7E7E7" xlink:href="#insis__a"/><g mask="url(#insis__b)"><g transform="translate(6.483 26.046)"><mask id="insis__d" fill="#fff"><use xlink:href="#insis__c"/></mask><path fill="#FDFDFE" d="M44.077 6.655c-.027-.003-.05-.008-.072-.008-.84 0-1.682.001-2.523-.002-.085 0-.111.032-.134.108-.135.453-.262.91-.497 1.325-.245.433-.546.58-1.044.523-.288-.033-.438-.193-.454-.482a2.392 2.392 0 01.045-.598c.175-.886.439-1.75.702-2.612.127-.416.26-.83.475-1.211.265-.47.615-.646 1.138-.58.228.03.342.139.38.364a.92.92 0 01.001.257 4.029 4.029 0 01-.206.847c-.038.113-.034.158.106.15.226-.011.454-.003.681-.003h1.754c.06 0 .121.015.147-.074.108-.372.224-.74.25-1.13.044-.654-.251-1.176-.842-1.476-.238-.12-.49-.2-.751-.25-.703-.136-1.412-.14-2.122-.078-.545.048-1.079.154-1.584.375-.894.39-1.483 1.076-1.907 1.92-.389.774-.639 1.595-.847 2.43-.151.608-.277 1.221-.232 1.854.05.685.377 1.18 1.035 1.44.152.062.308.112.468.145.964.193 1.93.197 2.894.014.84-.159 1.584-.505 2.17-1.145.547-.6.783-1.335.97-2.103m-16.973-.008h-.133c-.807 0-1.614.003-2.42-.003-.116-.001-.156.04-.185.14-.127.446-.256.892-.489 1.298-.249.435-.558.583-1.06.517-.26-.034-.406-.183-.43-.442-.02-.225.003-.449.047-.67.176-.875.437-1.73.697-2.583.126-.415.263-.828.476-1.21.213-.384.523-.601.982-.587.42.012.571.178.537.595-.027.322-.13.625-.22.931-.021.071-.025.102.066.102.84-.003 1.682-.002 2.523-.001.053 0 .091-.01.108-.067.136-.459.282-.914.245-1.402a1.386 1.386 0 00-.665-1.116 2.568 2.568 0 00-.928-.348c-.785-.148-1.576-.142-2.366-.048-.628.075-1.23.242-1.773.577-.705.436-1.17 1.072-1.52 1.8-.356.74-.595 1.519-.79 2.312-.155.628-.292 1.258-.23 1.91.06.638.365 1.106.969 1.367.169.073.342.132.521.168.91.185 1.823.191 2.737.047.676-.107 1.307-.334 1.86-.744.856-.635 1.225-1.542 1.441-2.543M12.64.098c-.41 0-.821.006-1.232-.003-.127-.003-.172.042-.205.157-.726 2.568-1.457 5.134-2.187 7.7-.047.165-.046.165.12.165.82 0 1.642-.003 2.464.003.13.001.177-.037.212-.162.276-1.008.564-2.013.845-3.02.026-.093.062-.128.166-.127.488.007.976.005 1.464.001.094 0 .121.022.092.113-.045.141-.082.284-.123.427-.248.882-.495 1.764-.747 2.646-.028.099-.01.124.091.12.348-.01.695.014 1.042-.034.718-.1 1.3-.414 1.693-1.03.273-.425.48-.888.622-1.366.534-1.808 1.037-3.625 1.557-5.438.035-.122.02-.155-.114-.154-.83.005-1.662.006-2.493-.001-.127-.001-.161.047-.191.152-.25.887-.506 1.772-.755 2.658-.028.098-.064.138-.175.136a50.412 50.412 0 00-1.435 0c-.128.001-.138-.033-.105-.146.258-.89.51-1.78.767-2.67.029-.101.015-.13-.097-.129-.425.006-.85.002-1.276.002M3.596 5.034l-.022-.011c.004-.018.007-.037.012-.054l1.34-4.71c.045-.16.045-.16-.124-.16-.768 0-1.537.001-2.305-.003-.101 0-.15.022-.18.129a2877.53 2877.53 0 01-2.21 7.753c-.036.124-.001.142.114.141.918-.003 1.836-.004 2.754.001.122.001.189-.039.254-.138 1.027-1.562 2.058-3.12 3.088-4.679.026-.04.053-.078.092-.135.014.08-.009.124-.021.17-.439 1.542-.875 3.085-1.317 4.627-.034.118-.026.156.11.155a174.71 174.71 0 012.334 0c.103 0 .141-.033.168-.126.733-2.585 1.469-5.17 2.209-7.753.038-.133-.002-.145-.12-.145C8.834.1 7.897.1 6.959.096c-.114 0-.18.033-.243.13C5.711 1.784 4.7 3.338 3.691 4.893c-.03.048-.063.094-.095.141m29.938-.098l.027.008c-.008.036-.015.073-.025.109-.442 1.556-.882 3.113-1.329 4.667-.036.126-.013.153.115.152.76-.005 1.518-.006 2.277 0 .136.002.196-.031.235-.17.57-2.021 1.147-4.04 1.722-6.06l.51-1.792h-.154c-.943 0-1.885.002-2.828-.003-.112 0-.17.038-.229.128-1.008 1.561-2.02 3.12-3.032 4.679-.029.044-.048.099-.114.137l.019-.084 1.333-4.696c.045-.161.046-.161-.13-.161-.76 0-1.518.004-2.277-.004-.134-.001-.179.046-.212.165-.729 2.57-1.46 5.14-2.196 7.71-.036.127-.01.151.116.15a282.25 282.25 0 012.755.001c.114 0 .18-.033.244-.13.955-1.452 1.914-2.902 2.873-4.353l.3-.453" mask="url(#insis__d)"/></g><path fill="#01A0E2" d="M52.971 24.12c-.05.287-.152.56-.232.84-.145.509-.3 1.016-.442 1.526-.033.12-.08.162-.214.161-3.842-.004-7.684-.003-11.526-.003-3.233 0-6.466.016-9.699-.006-2.177-.015-3.727.961-4.776 2.801-.447.786-.708 1.637-.918 2.508-.161.666-.376 1.314-.706 1.917-.667 1.217-1.72 1.887-3.089 2.101a6.25 6.25 0 01-.967.062H6.165c-.195 0-.186.03-.13-.176.044-.156.098-.31.132-.468.024-.112.078-.152.188-.134.028.004.058 0 .087 0 4.59 0 9.182 0 13.773.002.795 0 1.559-.126 2.262-.51 1.04-.567 1.667-1.462 1.984-2.57.38-1.326.717-2.663 1.088-3.992.462-1.654 1.538-2.804 3.066-3.562a4.554 4.554 0 011.763-.472c.024-.001.05.001.062-.026h22.531z"/><path fill="#393285" d="M40.017 30.982l-.3.453c-.958 1.45-1.918 2.9-2.873 4.354-.063.096-.13.13-.244.129a252.82 252.82 0 00-2.754 0c-.127 0-.153-.024-.116-.151.735-2.57 1.466-5.14 2.195-7.71.033-.119.078-.166.212-.165.76.008 1.518.004 2.277.004.176 0 .176 0 .13.161l-1.333 4.696-.019.084c.066-.038.086-.093.115-.137 1.012-1.559 2.023-3.118 3.032-4.679.058-.09.116-.129.229-.128.942.005 1.884.003 2.827.003h.154l-.51 1.792c-.575 2.02-1.152 4.039-1.722 6.06-.039.139-.098.172-.235.17a150.56 150.56 0 00-2.276 0c-.129 0-.151-.026-.115-.152.446-1.555.887-3.111 1.328-4.667.01-.036.017-.073.025-.11l-.027-.007"/><path fill="#01A0E2" d="M10.08 31.08c.031-.047.064-.093.094-.14 1.01-1.556 2.02-3.11 3.025-4.668.063-.097.129-.13.243-.13.938.004 1.875.004 2.813 0 .12 0 .159.012.12.145-.739 2.583-1.474 5.168-2.208 7.753-.027.093-.065.127-.167.126-.778-.005-1.556-.006-2.335 0-.135 0-.144-.037-.11-.155.442-1.542.879-3.085 1.317-4.627.013-.046.035-.09.021-.17l-.092.135c-1.03 1.559-2.061 3.117-3.088 4.678-.065.1-.131.14-.253.14a274.92 274.92 0 00-2.755-.002c-.115 0-.15-.017-.114-.141.74-2.583 1.476-5.168 2.209-7.753.03-.108.079-.13.18-.129.769.004 1.537.002 2.305.002.17 0 .169 0 .124.16l-1.34 4.71-.012.055.023.011m9.044-4.936c.425 0 .85.004 1.275-.002.112-.001.126.028.097.129-.258.89-.508 1.78-.767 2.67-.033.113-.023.147.106.146.478-.007.957-.007 1.435 0 .11.002.147-.038.174-.136.25-.886.506-1.771.755-2.658.03-.106.065-.154.191-.152.831.007 1.663.006 2.494 0 .133 0 .148.033.113.155-.52 1.813-1.023 3.63-1.557 5.438-.14.478-.35.94-.621 1.367-.394.615-.976.93-1.693 1.029-.347.048-.695.024-1.042.035-.103.003-.12-.022-.092-.121.253-.882.5-1.764.748-2.646.04-.143.077-.286.122-.427.03-.091.002-.114-.091-.113-.488.004-.977.006-1.465 0-.103-.002-.14.033-.166.126-.28 1.007-.568 2.012-.845 3.02-.035.125-.082.163-.212.162-.821-.006-1.643-.003-2.465-.003-.165 0-.165 0-.119-.165.73-2.566 1.46-5.132 2.187-7.7.033-.115.078-.16.205-.157.41.01.822.003 1.233.003"/><path fill="#393285" d="M33.588 32.693c-.216 1.001-.585 1.908-1.441 2.543-.553.41-1.184.637-1.86.744a7.643 7.643 0 01-2.737-.047 2.644 2.644 0 01-.52-.168c-.605-.261-.91-.73-.97-1.366-.061-.653.076-1.283.23-1.91.195-.794.434-1.574.79-2.313.351-.728.815-1.364 1.52-1.8.544-.335 1.145-.502 1.773-.577.79-.094 1.581-.1 2.367.048.329.063.645.166.928.348.406.262.628.633.664 1.115.037.49-.109.944-.244 1.403-.018.058-.055.067-.11.067-.84-.001-1.68-.002-2.521 0-.092 0-.088-.03-.067-.1.091-.307.194-.61.22-.932.035-.417-.117-.583-.537-.595-.458-.014-.769.203-.982.586-.213.383-.35.796-.476 1.211-.26.854-.52 1.708-.697 2.583a2.32 2.32 0 00-.046.67c.023.26.169.408.43.442.502.066.81-.082 1.06-.517.232-.406.36-.852.488-1.297.029-.102.07-.142.185-.141.807.006 1.613.003 2.42.003h.133z"/><g transform="translate(42.972 27.719)"><mask id="insis__f" fill="#fff"><use xlink:href="#insis__e"/></mask><path fill="#393285" d="M7.59 4.982c-.187.768-.423 1.504-.971 2.103-.586.64-1.33.987-2.17 1.145a7.507 7.507 0 01-2.893-.014 2.719 2.719 0 01-.469-.144C.43 7.811.103 7.317.053 6.632c-.046-.633.08-1.247.232-1.855.208-.835.458-1.656.846-2.43.425-.843 1.014-1.53 1.908-1.92C3.544.207 4.077.1 4.623.052 5.333-.01 6.04-.006 6.744.13c.262.05.514.13.752.251.59.3.885.822.841 1.477-.026.39-.142.758-.25 1.13-.025.088-.086.073-.146.073H6.187c-.227 0-.455-.008-.682.004-.14.007-.143-.038-.105-.15.091-.277.174-.556.206-.847a.92.92 0 00-.001-.257c-.039-.226-.153-.335-.38-.364-.523-.067-.874.11-1.138.58-.215.38-.349.795-.475 1.21-.263.863-.527 1.726-.702 2.612a2.392 2.392 0 00-.046.598c.016.29.167.449.455.482.498.057.798-.09 1.043-.523.236-.415.362-.872.497-1.325.023-.076.05-.108.135-.108.84.004 1.682.002 2.522.003.023 0 .046.004.073.007" mask="url(#insis__f)"/></g></g></g></svg>