<svg xmlns="http://www.w3.org/2000/svg" enable-background="new 0 0 80 80" viewBox="0 0 80 80"><circle id="ege-study__a" cx="40" cy="40" r="40" fill="#ff7502"/><g transform="translate(22 24)"><defs><filter id="ege-study__Adobe_OpacityMaskFilter" width="36.9" height="22.6" x="0" y="7.4" filterUnits="userSpaceOnUse"><feColorMatrix values="1 0 0 0 0 0 1 0 0 0 0 0 1 0 0 0 0 0 1 0"/></filter></defs><mask id="ege-study__c_1_" width="36.9" height="22.6" x="0" y="7.4" maskUnits="userSpaceOnUse"><g filter="url(#ege-study__Adobe_OpacityMaskFilter)"><path id="ege-study__b_1_" d="M0 31.7h36.9V0H0v31.7z" class="ege-study__st2"/></g></mask><path fill="#fff" d="M12.6 29.9h3.5v-19h5.6V7.4h-9.1v22.5zM0 29.9h9.1v-3.2H3.5v-6.2h5.6V17H3.5v-6.2h5.6V7.4H0v22.5zM30.5 7.4h-5.7v3.5h5.7c1.6 0 3 1.3 3 3v3.3h-6.6v3.5h6.6v2.9c0 1.6-1.3 3-3 3h-5.7v3.5h5.7c3.6 0 6.4-2.9 6.4-6.4V14c0-3.7-2.8-6.6-6.4-6.6z" mask="url(#ege-study__c_1_)"/><defs><filter id="ege-study__Adobe_OpacityMaskFilter_1_" width="29.3" height="1.7" x="0" y="1.9" filterUnits="userSpaceOnUse"><feColorMatrix values="1 0 0 0 0 0 1 0 0 0 0 0 1 0 0 0 0 0 1 0"/></filter></defs><mask id="ege-study__e_1_" width="29.3" height="1.7" x="0" y="1.9" maskUnits="userSpaceOnUse"><g filter="url(#ege-study__Adobe_OpacityMaskFilter_1_)"><path id="ege-study__d_1_" d="M0 31.7h37V0H0v31.7z" class="ege-study__st2"/></g></mask><path fill="#fff" d="M0 3.6h29.3V1.9H0v1.7z" mask="url(#ege-study__e_1_)"/><defs><filter id="ege-study__Adobe_OpacityMaskFilter_2_" width="7.4" height="5.4" x="28.8" y="0" filterUnits="userSpaceOnUse"><feColorMatrix values="1 0 0 0 0 0 1 0 0 0 0 0 1 0 0 0 0 0 1 0"/></filter></defs><mask id="ege-study__g_1_" width="7.4" height="5.4" x="28.8" y="0" maskUnits="userSpaceOnUse"><g filter="url(#ege-study__Adobe_OpacityMaskFilter_2_)"><path id="ege-study__f_1_" d="M0 31.7h37V0H0v31.7z" class="ege-study__st2"/></g></mask><path fill="#fff" d="M28.8 0v5.4l7.4-2.7L28.8 0z" mask="url(#ege-study__g_1_)"/></g></svg>