<svg xmlns="http://www.w3.org/2000/svg" xmlns:xlink="http://www.w3.org/1999/xlink" width="80" height="80"><defs><path id="akusherstvo__b" d="M8.9 4a4 4 0 11-8 0 4 4 0 018 0z"/><path id="akusherstvo__d" d="M12.9 6a6 6 0 11-12 0 6 6 0 0112 0z"/><path id="akusherstvo__f" d="M0 9.268V6.732a8 8 0 110 2.537z"/><path id="akusherstvo__h" d="M19.336 20.552v-2.796c-1.678-1.119-3.636-1.678-5.872-1.678-3.356 0-5.453 1.398-5.453 3.635 0 2.517 2.097 3.635 5.033 3.635 2.656 0 4.893-.839 6.292-2.796zm9.786 2.097c.7 0 1.259 0 1.678-.14v5.733c-.979.699-2.377 1.118-4.194 1.118-3.216 0-5.173-1.258-6.292-3.635-2.516 2.517-5.732 3.775-9.647 3.775C4.516 29.5.321 25.725.321 20.133c0-2.936 1.119-5.173 3.076-6.851 2.237-1.538 4.754-2.377 7.83-2.377 3.215 0 5.872.56 8.109 1.678v-.839c0-3.635-2.517-5.313-7.41-5.313-2.936 0-5.733.84-8.389 2.377V2.237C6.333.699 9.828 0 13.883 0c4.054 0 7.27.979 9.647 2.936 2.377 1.957 3.635 4.754 3.635 8.109v9.507c0 1.398.699 2.097 1.957 2.097z"/><circle id="akusherstvo__a" cx="40" cy="40" r="40"/></defs><g fill="none" fill-rule="evenodd"><use fill="#F3F3F3" xlink:href="#akusherstvo__a"/><g transform="translate(49 48)"><mask id="akusherstvo__c" fill="#fff"><use xlink:href="#akusherstvo__b"/></mask><path fill="#943C9C" d="M-4.1 14h18V-4h-18z" mask="url(#akusherstvo__c)"/></g><g transform="translate(57 37)"><mask id="akusherstvo__e" fill="#fff"><use xlink:href="#akusherstvo__d"/></mask><path fill="#FA4669" d="M-3.1 19h26V-7h-26z" mask="url(#akusherstvo__e)"/></g><g transform="translate(45 21)"><mask id="akusherstvo__g" fill="#fff"><use xlink:href="#akusherstvo__f"/></mask><path fill="#FF9D20" d="M-4.1 25h34V-9h-34z" mask="url(#akusherstvo__g)"/></g><use fill="#326EC8" transform="translate(10 25)" xlink:href="#akusherstvo__h"/></g></svg>