<svg xmlns="http://www.w3.org/2000/svg" xmlns:xlink="http://www.w3.org/1999/xlink" width="60" height="60"><defs><path id="cifra__a" d="M29.703 59.405c16.404 0 29.702-13.298 29.702-29.702C59.405 13.298 46.107 0 29.703 0 13.298 0 0 13.298 0 29.703c0 16.404 13.298 29.702 29.703 29.702z"/><path id="cifra__c" d="M48.96 49.67H0V.035h48.96z"/></defs><g fill="none" fill-rule="evenodd"><mask id="cifra__b" fill="#fff"><use xlink:href="#cifra__a"/></mask><use fill="#F36440" xlink:href="#cifra__a"/><g mask="url(#cifra__b)"><g transform="translate(5 4.067)"><mask id="cifra__d" fill="#fff"><use xlink:href="#cifra__c"/></mask><path fill="#F46440" d="M13.174 24.933v10.5c0 .11-.004.22.001.33.018.402.167.56.567.593.139.011.279.005.418.005h20.533c.109 0 .217-.002.325-.001.44.004.72-.195.87-.628.26-.754.548-1.499.825-2.247l1.421-3.829c.027-.073.057-.146.08-.22.121-.407-.037-.652-.453-.663-.495-.013-.99.004-1.486-.006-.438-.009-.606-.188-.622-.636-.004-.125 0-.25 0-.376v-8.712c0-1.601.001-3.202-.002-4.803 0-.503-.147-.673-.619-.675-2.09-.007-4.18-.002-6.271-.004-.407 0-.666.19-.808.576-.777 2.115-1.562 4.227-2.337 6.343-.162.441-.01.656.453.665.433.008.867 0 1.3.002.678.001.79.11.792.783v4.05c0 .706.005 1.413-.002 2.119-.004.509-.164.668-.673.669-2.044.003-4.088.003-6.132 0-.54 0-.675-.145-.68-.703-.002-.094-.001-.189-.001-.283V14.55c0-.141.008-.284-.005-.424-.036-.378-.19-.53-.557-.562-.092-.007-.186-.002-.279-.002H13.98c-.093 0-.186-.005-.278.004-.343.033-.501.194-.525.536-.009.125-.002.251-.002.377v10.454M24.472 49.67C10.919 49.651-.086 38.522 0 24.692.087 10.866 11.224-.032 24.601.035 38.016.103 48.996 11.182 48.96 24.941c-.037 13.639-11 24.729-24.488 24.729" mask="url(#cifra__d)"/></g><path fill="#FEFEFE" d="M18.174 29V18.546c0-.126-.007-.252.002-.377.024-.342.182-.503.525-.536.092-.01.185-.004.278-.004h5.853c.093 0 .187-.005.279.003.367.03.521.183.557.562.013.14.005.282.005.423v13.515c.006.558.14.703.68.703 2.045.003 4.089.003 6.133 0 .51 0 .669-.16.673-.669.007-.706.002-1.413.002-2.119v-4.05c-.001-.672-.114-.782-.792-.783-.433-.001-.867.006-1.3-.002-.463-.009-.615-.224-.453-.665.775-2.116 1.56-4.228 2.337-6.343.142-.386.401-.576.808-.576 2.09.002 4.18-.003 6.271.004.472.002.618.172.62.675.002 1.601 0 3.202 0 4.803v8.712c0 .125-.003.251.001.377.016.447.184.627.622.635.495.01.991-.007 1.486.006.416.012.574.256.452.663-.022.074-.052.147-.079.22l-1.42 3.83c-.278.748-.566 1.492-.826 2.247-.15.432-.43.63-.87.627l-.325.001H19.16c-.14 0-.28.007-.418-.005-.4-.033-.549-.19-.567-.592-.005-.11 0-.22 0-.33V29"/></g></g></svg>