<svg xmlns="http://www.w3.org/2000/svg" xmlns:xlink="http://www.w3.org/1999/xlink" width="40" height="40"><defs><path id="troezarstve__a" d="M.035.621H27.52V33.6H.035z"/></defs><g fill="none" fill-rule="evenodd" transform="translate(-106 -182)"><rect width="40" height="40" x="106" y="182" fill="#4C77A0" fill-rule="nonzero" rx="20" transform="rotate(90 126 202)"/><rect width="40" height="40" x="106" y="182" fill="#D6A75D" fill-rule="nonzero" rx="20" transform="rotate(90 126 202)"/><g transform="translate(112.41 184.78)"><mask id="troezarstve__b" fill="#fff"><use xlink:href="#troezarstve__a"/></mask><path fill="#FFF" d="M17.414 7.423l.308.016.025-.07c-.05-.06-.101-.118-.167-.195l-.166.25zm2.329 19.123c-.25-.066-.293.042-.272.238.11.066.218.133.384.235-.046-.2-.077-.329-.112-.473zm2.852-14.182c.08-.125.15-.231.268-.41-.222.057-.358.093-.485.127-.01.22-.01.22.217.283zm1.829 7.778l.02-.066-.365-.228-.184.149c.044.075.08.141.117.205l.412-.06zm-20.965-.285l-.434.27.495.102c.154-.147.163-.26-.06-.372zm4.249 7.107l.07.038.341-.236-.079-.257-.227.035-.105.42zM5.22 12.341a60.564 60.564 0 00-.062-.271l-.409-.094-.032.063c.072.11.145.218.22.335l.283-.033zm18.893-4.7c-.148.047-.26.082-.376.117v.347c.381-.046.397-.064.376-.463zm-20.769 0l.095.41c.118.029.212.053.376.092-.017-.163-.03-.279-.042-.408l-.429-.093zm-.51 12.249c-.368.07-.684-.031-.994.172l.237.265-.094.295c.317.042.83-.118.856-.269l-.108-.155a57.9 57.9 0 01.103-.308zm21.94.012l-.061.54c.245.07.494.261.85.198-.054-.134-.09-.225-.126-.31l.268-.299c-.336-.137-.643-.078-.93-.129zM4.783 11.7c-.202-.375-.601-.511-.769-.842-.299.145-.11.378-.14.546l-.381.236.868.428.062-.3.36-.068zm17.895-.031c.205.052.33.081.442.11l.045.229c.417-.076.785-.293.762-.451-.081-.045-.169-.091-.236-.129-.076-.199.079-.44-.096-.48-.137.13-.307.209-.457.315-.145.102-.267.234-.46.406zM7.767 27.384c-.116-.044-.196-.077-.264-.103-.033-.116-.062-.21-.1-.335-.298.234-.57.447-.858.67.057.414.409.177.61.25l.176.337c.215-.268.336-.516.436-.819zm12.222-.095l-.253.12c.15.268.211.556.472.757l.166-.3c.187-.011.366-.022.56-.032.005-.116.01-.193.014-.266-.148-.095-.29-.174-.416-.272-.131-.103-.248-.227-.407-.374l-.136.367zM7.392 7.854c-.034.006-.069.01-.103.014l-.153.26c-.126.022-.227.039-.327.054-.01.03-.021.06-.03.091l.923.946.03-.023.086.271h.243c.012-.078.022-.143.03-.207l-.247-.209c.02-.01.04-.02.06-.028l-.512-1.169zm12.996.282l-.23-.354c-.212.483-.386.875-.559 1.267l.05.022-.213.185.062.234.238-.042.108-.286c.364-.26.775-.74.85-.998l-.306-.028zM4.798 23.848c-.512.034-.858.318-1.285.573l.348.184.032.318.083.04.987-.968.207-.062c.01-.075.021-.15.035-.238l-.237-.039-.17.192zm17.764-.245l-.234.125.06.211.257.07c.19.335.706.813.981.906l.065-.315c.094-.06.175-.112.327-.206-.248-.13-.434-.237-.627-.328-.2-.095-.407-.177-.612-.264l-.017.032-.2-.231zM3.263 15.848l-1.145-.807c-.266.193-.268.211-.055.64-.064.088-.128.173-.248.331.507.021.934.038 1.367-.018l.29.155c.218-.105.19-.217.045-.341l-.254.04zm22.19-.166c.23-.464.228-.482-.068-.626-.347.24-.696.479-1.084.745h-.307a8.395 8.395 0 01-.111.211l.184.13c.515-.263 1.067.003 1.605-.179l-.22-.281zm-9.997 13.017c.06.144.123.262.161.386.04.13.065.265.089.398.022.126-.041.283.15.353l.203-.184.358.075-.186-1.19-.274-.04.06-.317c-.072-.047-.137-.086-.213-.133l-.165.175c.055.116.102.217.153.322l-.336.155zm-3.732 1.165l.3-1.176a27.577 27.577 0 00-.272-.149l.163-.306c-.191-.175-.256-.178-.353-.034.01.104.024.202.035.298l-.306.048c-.06.402-.118.778-.182 1.187.141-.033.248-.057.34-.08l.275.212zm-4.35-20.21c-.22.194-.499.097-.771.065-.934-.109-1.71-.46-2.13-1.401-.113.043-.226.088-.34.133l-.106.327c1.088.474 1.736 1.914 1.35 2.863l.203.737.707-.14v-1.59h1.686l.125-.79-.724-.203zm7.71-2.494l.01.007-.796-.192c-.006-.039-.017-.082-.018-.127-.024-1.08-.043-2.159-.074-3.237-.015-.577.072-1.168-.23-1.72.343-.075.65-.164.784-.499-.169-.412-.444-.564-.976-.549-.484.014-.764.188-.884.54.12.373.438.446.761.506-.063.175-.16.332-.17.493a31.168 31.168 0 00-.058 1.582c-.016.873-.02 1.747-.037 2.62-.003.142-.04.285-.058.38l-.81.202.01-.007c-.058.001-.123-.013-.173.005-.392.15-.787.26-1.21.13-.04-.012-.09.006-.136.01-.05.107-.1.206-.155.322h-.328l.067.206c.246-.078.471-.153.712-.231.05.063.096.125.152.199-.094.148-.184.29-.275.43.144.333.437.27.692.28.275.012.551.002.875.002v.373c.148.113.293.224.457.347v.34c.007.829.018 1.658.02 2.487 0 .162-.043.326-.074.56.014.065.07.21.07.354 0 .575-.003 1.152-.026 1.726-.017.416-.26.73-.504 1.049a1.026 1.026 0 01-.093-.342c-.062-.6.087-1.158.376-1.69l-.243-.201c-.152.29-.312.543-.418.816-.25.642-.203 1.306-.07 1.975l-.2.172-.285-.217c-.195.35-.343.724-.808.784-.456.06-.782-.131-1.05-.484l-.215.15c-.092-.122-.194-.237-.275-.364-.284-.46-.55-.93-.844-1.383-.107-.166-.268-.299-.404-.447l-.08.055c.053.102.102.205.16.303.238.404.48.805.72 1.209l.007-.006c-.062-.048-.134-.087-.184-.143a4.877 4.877 0 01-1.13-2.05c-.036-.131-.027-.299-.253-.362.037.252.07.473.1.694l.006-.004-.36-.362-.073.056c.06.114.113.236.186.343a8.792 8.792 0 011.036 2.073l-.062.03-.664-1.357c-.053.075-.052.129-.038.179.162.584.433 1.114.796 1.595.216.285.244.58.17.92-.103.029-.2.054-.306.082.076.378.335.491.728.472.014.194.027.374.037.551.01.19.015.381.025.622 1.446.137 2.854.27 4.28.403 0 .104-.002.206 0 .31.008 3.395.018 6.79.03 10.185.002.287.002.58.067.856.13.546.303 1.083.46 1.622.022.071.064.135.129.27.11-.434.217-.795.292-1.164.104-.515.26-1.036.262-1.554.01-3.407-.016-6.813-.03-10.22 0-.11.014-.22.023-.354a23.405 23.405 0 004.293-.424v-1.064c.255-.11.46-.231.49-.517a45.286 45.286 0 01-.304-.071c-.094-.328-.053-.615.145-.886.35-.478.629-.991.802-1.558.021-.07.024-.146.034-.22a1.305 1.305 0 00-.08-.028c-.095.222-.18.45-.288.668-.118.236-.26.46-.39.688l.007.007c.03-.13.036-.274.097-.39.302-.587.62-1.166.93-1.749.06-.11.109-.225.163-.337l-.066-.04c-.13.117-.26.232-.392.348l.009.007c.04-.217.083-.433.131-.685-.254.07-.23.252-.265.38a4.965 4.965 0 01-.731 1.554c-.16.224-.352.43-.529.644l-.073-.054c.15-.254.307-.505.45-.764.138-.248.414-.419.427-.743-.143.086-.26.191-.36.312-.389.46-.703.969-.942 1.522-.072.168-.175.292-.374.334a18.91 18.91 0 01-.142-.129c-.264.335-.58.531-1.022.472-.458-.06-.634-.409-.81-.784-.101.076-.18.132-.265.195l-.153-.175c.286-.966.23-1.882-.364-2.743-.062.04-.104.059-.134.09-.03.03-.052.071-.083.119.327.64.395 1.3.18 2.072-.225-.38-.434-.676-.434-1.066 0-.448.003-.897-.01-1.346-.007-.3-.02-.598.18-.854a19.089 19.089 0 00-.21-.313V9.305c.191-.11.373-.219.54-.317l-.084-.303.254-.202c.265.017.518.043.772.046.26.003.534.006.675-.288l-.337-.594c.204.002.362.056.523.107.162.05.337.133.413-.139-.122-.018-.231-.035-.343-.05-.035-.096-.067-.178-.111-.293-.244.043-.478.085-.654.118-.362-.084-.675-.159-.988-.23zM7.873 17.188l.535.303c.173-.219.035-.352-.05-.492-.244-.402-.505-.796-.728-1.21-.13-.242-.21-.51-.29-.774-.093-.305-.165-.609-.317-.901-.127-.245-.1-.567-.142-.856l.071-.025.36.308v-.756c.252.198.44.345.647.504.016.338.228.569.47.794.478.444.844.976 1.154 1.546l.192.345c.062-.135.104-.232.163-.364.08.135.145.262.227.378.113.16.216.335.36.461.398.349.873.24 1.123-.227.085-.16.195-.305.34-.526-.143-.95.117-1.873.76-2.7l.247.089c.028-.273-.19-.426-.264-.67l.278-.39V9.911a81.1 81.1 0 00-.309-.168c.133-.11.221-.185.336-.279a66.18 66.18 0 01-.592-.393c-.023-.064-.067-.18-.114-.312h-.571c-.13.206-.265.417-.414.65l-1.507-.7c-.184.513-.355.984-.535 1.48L8.4 10.02l-.19.965-1.636-.081c-.03.525.03 1.02.058 1.576l-.9.186c.063.333.122.653.181.975l-1.526.544c.196.511.416.97.683 1.428-.256.17-.506.333-.785.517l.557.813-1.226 1.122 1.177 1.06-.512.755.836.548-.706 1.487 1.494.532-.165.894.95.186v1.6h1.53l.18.867.98-.189.547 1.516c.525-.179.97-.407 1.435-.67.179.26.35.512.531.774l.444-.279c.1.39-.347.367-.42.642.133.242.282.51.448.814 0-.02.01.009-.001.026-.245.382-.267.763-.03 1.164.054.093.027.233.042.397l-.33-.142c-.275.157-.275.157-.655-.1-.218.023-.494.223-.63-.152-.232.014-.473.079-.671-.189l.32-.109c.452-.148.669-.56.538-1.064-.784.32-1.424.771-1.684 1.611-.103.33.004.486.337.532a11.282 11.282 0 01-.04-.232h.306c.052.104.097.195.168.33l-.36.425c-.15-.062-.253-.104-.355-.143-.034-.088-.044-.178-.093-.233-.313-.338-.228-.694-.056-1.054.321-.67.876-1.089 1.538-1.379.14-.061.316-.04.433-.053.223-.182.417-.343.638-.525l-.467-.745-1.484.67-.612-1.557c-.328.044-.65.092-.94.236l.112.746c.493.647.613 1.43.415 2.26-.105.437-.3.829-.838.888-.063.007-.124.054-.214.098a92.06 92.06 0 01-.347-.143 37.404 37.404 0 00-.021-.424c.303-.317.396-.318.603-.013l-.221.078.26.222c.125-.097.266-.16.326-.266.118-.206.234-.432.273-.663.095-.554.006-1.097-.21-1.62-.015-.03-.038-.058-.049-.078-.49.202-.56.592-.268 1.409-.283.042-.404-.156-.54-.33l-.302.027-.305-.396c-.201-.049-.545.025-.515-.384-.213-.08-.48-.075-.512-.411.182.01.358.056.509.015.173-.045.344-.145.478-.264.12-.107.19-.27.301-.437-.354-.125-.645-.038-.933.014-.504.09-.941.322-1.268.72a.847.847 0 00-.166.404c-.021.129.05.246.235.252v-.276l.306.154c.048.422.015.468-.447.612a58.426 58.426 0 00-.276-.232c0-.12.025-.217-.006-.294-.132-.332.015-.583.223-.815.404-.445.923-.676 1.51-.777.353-.062.708-.153.993.056l.801-.235c-.05-.293-.101-.576-.146-.845H6.45v-1.654c-.296-.05-.606-.101-.929-.153-.082.258-.15.477-.221.706.18.924.015 1.773-.658 2.49-.244.26-.527.454-.922.307-.069-.025-.157.003-.255.007l-.279-.263.206-.475h.414l.174.31c-.137-.009-.205-.012-.286-.016.008.052 0 .095.018.115.156.17.35.204.548.039.2-.167.392-.364.53-.584.301-.479.4-1.015.363-1.603-.346-.007-.543.192-.655.44-.103.23-.122.497-.183.767-.247-.069-.272-.297-.323-.5l-.301-.08-.099-.434-.362-.266v-.329c-.173-.14-.378-.26-.31-.586.534.341 1.015.353 1.447-.157-.24-.209-.509-.238-.762-.293-.426-.09-.855-.095-1.264.065-.189.073-.37.193-.52.329-.158.143-.125.236.092.413l.071-.206c.06.038.124.063.164.11.114.125.082.261-.02.372-.16.177-.36.183-.59.086l-.134-.288c.042-.115.097-.207.108-.305.05-.39.324-.569.649-.69.534-.2 1.079-.237 1.631-.068.326.103.688.132.885.48.093-.037.166-.065.238-.095l.471.147c.207-.264.17-.575.276-.886-.506-.19-.996-.376-1.532-.58l.69-1.53-.8-.513-.517.614c-.083.853-.59 1.477-1.338 1.92-.392.232-.816.345-1.22-.013-.039-.034-.108-.035-.185-.057-.044-.104-.089-.217-.127-.31.231-.38.309-.407.717-.246.013.08.03.176.051.312l-.258-.049c-.082.161.006.265.141.314.103.039.23.047.34.028.67-.114 1.505-.994 1.61-1.686-.514-.158-.933.143-1.128.83-.29-.148-.196-.396-.18-.62l-.242-.174.07-.49c-.14-.189-.367-.393-.09-.653-.118-.2-.264-.376-.1-.65.382.46.812.73 1.393.39-.005-.041.004-.072-.009-.085-.575-.626-1.26-.995-2.143-.889-.196.024-.357.11-.386.33-.006.047.038.1.068.176l.2-.147c.138.182.13.329-.033.457-.179.145-.342.108-.62-.131v-.297c.245-.288.434-.629.906-.641.865-.023 1.535.368 2.136.921.103.094.14.26.217.413H3.5l.462.35.538-.732a346.38 346.38 0 00-1.202-1.113l1.252-1.17-.564-.77-.668.352c-.51.82-1.277 1.242-2.243 1.304-.34.022-.67-.065-.846-.422-.038-.077-.12-.133-.193-.208v-.383l.49-.154c.308.255.31.266.144.552l-.174-.127c-.146.19-.064.338.097.399.187.071.403.109.603.1.738-.029 1.295-.415 1.792-.926-.432-.36-.8-.278-1.424.305-.182-.244.005-.426.104-.639-.264-.24-.073-.44.082-.628l-.07-.487.226-.163c.014-.227-.092-.473.214-.656.075.38.216.708.59.837.166.056.346.063.598.106-.248-.66-.558-1.153-1.082-1.49a2.208 2.208 0 00-.56-.265.709.709 0 00-.404.022c-.118.042-.203.151-.113.315l.247-.078c-.034.134-.03.254-.087.329-.148.184-.408.12-.665-.175.02-.104.047-.231.073-.348.263-.13.496-.245.695-.341 1.18.246 2.009 1.14 2.075 2.213l.199.104.297.465.776-.488-.68-1.468 1.592-.612-.221-.917-.772.077c-.685.52-1.476.63-2.325.417-.451-.113-.819-.329-.874-.852-.003-.033-.034-.06-.045-.091-.013-.033-.015-.066-.031-.133l.13-.264c.427-.109.501-.075.7.32l-.27.292-.048-.26c-.051.022-.095.026-.108.05-.124.206-.105.361.115.492.204.121.434.22.666.27.606.126 1.185.017 1.763-.255a.677.677 0 00-.68-.423c-.253.009-.502.094-.773.15-.058-.25.135-.374.33-.503v-.354l.376-.252c.054-.218-.03-.544.352-.532.127-.193.103-.493.43-.486-.011.777.206 1.123.737 1.182.162-.67-.224-1.75-.844-2.17-.275-.188-.427-.155-.592.13l.221.032c-.047.262-.112.328-.307.314-.24-.017-.355-.182-.368-.554.07-.065.155-.14.202-.182l.554-.077-.078-.468-.525.315a15.646 15.646 0 01-.176-.118l.26-.277c-.35-.227-.338-.607-.414-1.004.37.104.764.041.986.426.099-.088.172-.157.305-.276l.125.157c-.114.183-.206.328-.327.524l.423.145c.05-.207.089-.376.128-.546a.338.338 0 00-.04-.018c.071-.073.142-.147.2-.21.46-.011.585.122.526.578l-.286.108c-.005-.106-.01-.172-.012-.25-.251.135-.313.256-.202.467.079.15.197.287.324.4.512.451 1.139.584 1.798.61.042.002.085-.024.138-.04.006-.318-.186-.51-.428-.616-.234-.1-.502-.124-.774-.185.04-.26.295-.259.48-.351l.122-.293.406-.074.265-.37h.33c.146-.177.271-.382.614-.305-.24.33-.365.664-.192 1.035.075.157.157.304.343.386.211-.233.24-.525.295-.796.102-.485.065-.963-.157-1.413a1.015 1.015 0 00-.254-.318c-.147-.12-.294-.103-.426.09l.264.095-.27.25c-.122-.057-.223-.106-.37-.174l-.024-.51c.148-.066.251-.11.35-.155.07.03.121.066.175.073.627.075.794.546.934 1.052.14.513.03 1.003-.11 1.491-.035.122-.08.24-.121.366l-.308.291c.038.076.072.143.098.19l-.138.556c.305.072.579.135.89.206l.582-1.52 1.526.687c.06-.085.124-.182.207-.301-.214-.092-.411-.14-.562-.25-.15-.111-.255-.285-.421-.48-.037-.002-.137-.006-.238-.015-.092-.008-.182-.022-.28-.035-.184-.339-.325-.679-.332-1.057.03-.02.048-.046.065-.045.055.006.11.023.168.035.23-.294.283-.32.55-.264.02.162-.162.35.063.512.335-.165.693-.175 1.063-.09a.666.666 0 00.306-.012c.421-.108.841-.227 1.33-.361l.093-4.386-.342-.086.252-.249-.482-.328-.08-.274c.211-.585.657-.785 1.223-.798.562-.014.986.209 1.217.776l-.053.288-.529.329c.1.073.19.14.327.244l-.387.092.1 4.404c.534.142 1.022.27 1.574.413.29-.064.647-.177 1.021-.056.061.02.141-.023.219-.039a72.03 72.03 0 00-.06-.411c.026-.02.051-.04.077-.058l.452.293-.028.053.316-.03-.161.63c-.12.152-.23.288-.383.48l-.543.054c-.118.406-.45.594-.917.672l.204.35c.523-.232 1.013-.452 1.533-.685l.577 1.52c.305-.072.58-.135.86-.2l-.092-.786c-.55-.717-.626-1.564-.347-2.473.15-.49.535-.663.983-.743.108-.018.233.062.361.1v.475c-.089.065-.194.146-.321.24l-.341-.258.26-.077c-.012-.035-.012-.075-.033-.094-.166-.15-.343-.102-.45.05-.13.184-.244.394-.298.61-.161.634-.057 1.244.218 1.834.5-.23.578-.685.256-1.407.295-.08.41.136.553.32.096-.005.197-.01.33-.015.08.113.163.232.259.372.124.026.269.054.442.087l.112.293c.163.087.435.08.5.409-.6-.069-1.053.098-1.267.726.104.024.179.06.25.055.61-.042 1.199-.154 1.675-.566.153-.131.29-.3.387-.477.107-.199.05-.287-.191-.43-.013.03-.031.056-.033.084-.001.032.012.064.03.147l-.334-.09-.016-.32c.219-.269.219-.269.575-.265l.196.193-.056.03c.024.17.05.34.079.55l.438-.115c-.1-.192-.179-.341-.27-.518.025-.032.071-.09.132-.164.097.086.18.159.28.245.22-.373.62-.31.982-.425-.088.364-.017.759-.417.991l.262.286c-.084.063-.163.12-.214.16-.15-.117-.279-.215-.46-.354l-.134.21-.49-.372a1.653 1.653 0 01-.63.903c-.426.32-.904.507-1.435.55-.293.024-.599.17-.819-.056l-.734.199.131.791h1.73c-.023.525-.045 1.036-.067 1.589l.724.13.19-.735c-.35-.899.4-2.663 1.27-2.786l.621.128.022-.058.271.23c.003.365-.112.544-.35.564-.208.018-.322-.08-.347-.308l.309-.042-.317-.301c-.178.112-.358.193-.497.32-.51.468-.796 1.324-.69 2.03a.641.641 0 00.616-.407c.103-.232.136-.497.207-.77.242.03.24.275.34.46.301.032.365.25.336.515.145.099.275.19.41.285-.008.115-.014.214-.02.33.184.11.342.253.361.505-.269-.06-.527-.168-.783-.164a.753.753 0 00-.68.4c.033.04.049.079.075.088.684.275 1.378.398 2.084.086.133-.059.26-.153.361-.258.131-.131.141-.283-.053-.43l-.116.184c-.184-.032-.255-.153-.211-.32.048-.186.193-.285.382-.3.214-.019.328.103.397.376l-.166.506c-.385.827-2.375.877-3.083.137l-.806-.07-.217.917c.542.207 1.044.397 1.585.605l-.675 1.475.733.468.55-.633c-.002-.043-.015-.154-.028-.281.403-.892.944-1.651 2.066-1.851l.693.305c.158.242.167.339.03.494a.41.41 0 01-.474.12c-.173-.064-.201-.202-.138-.391l.174.064c.074-.207.042-.312-.144-.335a1.025 1.025 0 00-.475.04c-.758.285-1.174.886-1.474 1.593.445.249.913-.067 1.185-.786.267.149.175.388.172.612l.234.177-.069.488c.11.18.362.366.085.634.093.202.279.395.11.658-.577-.574-.923-.659-1.394-.362 0 .02-.01.052.001.064.55.591 1.2.968 2.04.907a.87.87 0 00.381-.142c.116-.075.162-.195.038-.35l-.166.109c-.189-.242-.186-.256.065-.496.213-.042.413-.035.56.192v.3c-.078.071-.19.13-.239.222-.203.382-.558.426-.922.408-.532-.027-1.008-.226-1.438-.54-.29-.212-.6-.4-.667-.74l-.716-.372-.47.632c.413.39.804.76 1.178 1.11l-1.194 1.212c.088.348.306.551.498.814.16-.112.3-.207.47-.324h.186c.023-.024.044-.038.053-.058.287-.7.92-.966 1.562-1.197.231-.082.502-.075.754-.08.292-.005.543.09.692.37.052.098.142.175.254.305v.23c-.255.255-.41.297-.604.166-.178-.12-.193-.267-.066-.463.07.043.128.083.19.122.167-.137.112-.283-.03-.366a1.045 1.045 0 00-.487-.15c-.792-.006-1.405.37-1.94.913.368.406.91.283 1.358-.282.182.208.178.259-.062.63.262.242.095.443-.079.63l.072.488a16.07 16.07 0 00-.243.19c.023.226.094.458-.192.632-.052-.372-.217-.647-.538-.808-.188-.092-.385-.14-.592-.063.134.75.98 1.607 1.684 1.72.279.047.43-.08.417-.367-.065.016-.126.033-.24.063.017-.117.006-.223.05-.299.1-.169.334-.18.52-.042.21.154.218.3.03.597-.081.032-.181.045-.246.1-.311.268-.647.204-.977.07-.762-.31-1.176-.943-1.5-1.646-.054-.116-.021-.271-.027-.374l-.519-.604c-.214.135-.425.27-.684.436.236.513.47 1.015.717 1.549l-1.659.652.267.861.469-.14c.058.028.118.058.175.084.03-.011.055-.014.07-.03.551-.516 1.232-.584 1.932-.514.269.025.538.134.788.249.233.108.414.285.434.578.005.091.08.178.142.302-.044.084-.099.194-.156.308h-.439l-.258-.305.246-.336.102.227c.036-.011.077-.013.096-.034.147-.152.103-.319-.042-.415-.207-.138-.434-.272-.672-.33-.592-.146-1.17-.037-1.726.194-.028.011-.045.047-.068.068.245.475.647.537 1.416.213.073.31-.175.416-.337.566l.024.316-.386.269-.076.424-.31.11c-.073.197-.076.46-.408.509.047-.351.039-.675-.205-.944-.136-.15-.283-.267-.517-.29-.117.272-.027.538.02.801.087.502.303.941.686 1.283.114.1.273.165.423.204.148.038.272-.03.297-.228h-.275c.061-.129.105-.221.148-.315h.398l.243.468-.274.257-.58.063c-.986-.256-1.693-1.809-1.272-2.789-.08-.245-.155-.469-.25-.753-.23.04-.483.081-.783.132v1.666h-1.723c-.054.245-.111.518-.179.831.26.079.502.152.79.237 1.16-.322 2.526.291 2.803 1.247-.015.224-.028.391-.04.558l.053.036-.231.211c-.48-.046-.57-.147-.529-.588.08-.042.174-.09.305-.16v.28c.053-.008.096-.003.115-.022.178-.166.188-.344.012-.574a2.046 2.046 0 00-.943-.68c-.43-.16-.819-.207-1.22-.146.026.52.505.82 1.156.723-.008.252-.064.3-.46.389.022.374-.262.378-.522.396-.091.132-.177.252-.272.388-.107-.01-.208-.017-.325-.027-.126.167-.248.374-.574.32.219-.335.317-.664.158-1.02-.074-.168-.158-.331-.354-.392-.558.808-.412 2.204.275 2.599.034-.006.082-.006.121-.025.048-.026.088-.066.161-.125l-.231-.13c.045-.053.078-.12.131-.151.133-.082.265-.06.38.047.144.137.16.3.043.577-.04.021-.09.048-.143.07-.053.022-.107.04-.152.057-.176-.047-.345-.084-.506-.141-.262-.09-.4-.307-.498-.543-.248-.588-.215-1.192-.064-1.794.106-.427.114-.425.406-.742l.058-.798-.818-.201-.587 1.56-1.6-.661-.487.757.486.31.07.174c.959.079 1.577.618 2.034 1.385.156.265.224.553.163.827l-.288.54-.237.11-.343-.244.026-.464.394-.069-.077.228c.159.136.24-.005.334-.087.108-.393-.075-.702-.274-1.002-.279-.421-.904-.857-1.383-.977-.219.452.066.86.818 1.148-.155.245-.373.218-.608.162a26.87 26.87 0 01-.217.258l-.444-.093-.407.251-.271-.146c-.06.03-.13.062-.207.097-.017-.045-.035-.076-.037-.106-.005-.068-.02-.143-.001-.206.12-.39.145-.767.017-1.175-.052-.166.097-.4.173-.596.038-.102.117-.19.187-.303l-.363-.313v-.25l.407.241c.099-.15.19-.292.282-.435l.255-.399 1.503.704.533-1.474c.288.049.585.1.908.153.062-.334.115-.635.17-.936h1.671l-.077-1.523c.28-.057.57-.115.896-.179l-.189-.974 1.546-.558-.68-1.426c.244-.161.5-.33.771-.513-.2-.287-.381-.55-.562-.807.407-.369.8-.721 1.233-1.115a814.2 814.2 0 00-1.178-1.07l.515-.761c-.294-.186-.563-.358-.837-.535l.65-1.396-1.48-.473.202-1.051-.95-.185v-1.656c-.5.025-1.003.052-1.525.08l-.186-.894-.971.194-.57-1.536-1.435.672-.409-.585c-.169-.01-.328-.019-.493-.027l-.121.336-.533.385c.097.126.175.224.265.339l-.202.12v2.121l.267.384-.324.672.318-.087c.596.818.892 1.72.74 2.71.117.178.232.321.311.483.275.553.871.625 1.257.133.128-.162.221-.351.33-.526.03-.046.063-.091.113-.164l.155.33c.062-.1.112-.172.152-.25.314-.62.704-1.191 1.222-1.663.233-.213.38-.455.43-.777l.578-.431.037.695.465-.407c-.108.458-.024.882-.306 1.243-.102.135-.1.349-.148.525a6.003 6.003 0 01-.965 2.012c-.113.151-.262.302-.14.57.184-.087.36-.171.577-.272-.166.504-.203 1.042-.838 1.17.02.21.049.398.055.589.01.4-.141.616-.534.684-.523.091-1.05.164-1.579.212-.656.057-1.316.08-1.975.12-.044.003-.088.02-.164.038-.007.136-.018.269-.018.403.013 3.156.021 6.31.045 9.464.003.602-.04 1.189-.203 1.771-.175.63-.306 1.271-.46 1.926a23.5 23.5 0 00-.242.014c-.246-.855-.49-1.692-.725-2.53-.027-.097-.014-.207-.014-.31l-.029-9.673V20.01c-.469-.025-.894-.032-1.317-.073a58.788 58.788 0 01-2.512-.278c-.48-.069-.598-.252-.587-.732.003-.171.019-.34.031-.54-.622-.142-.697-.683-.801-1.2l-.007.002z" mask="url(#troezarstve__b)"/></g><path fill="#FFF" d="M127.668 206.714a3.408 3.408 0 00-.05-.074l-.032.014.038.098c.047.2.107.4.138.602.054.353.219.623.61.814l-.355-.027.041.897c1.52.32 3.028.352 4.543-.02v-.888l-.255.035c.588-.346.521-.955.652-1.477-.056.033-.076.084-.104.127-.173.272-.318.566-.528.805-.341.39-.77.368-1.104-.015-.24-.277-.438-.57-.277-.966.015-.04-.011-.1-.021-.175l-.238.148c-.129-.346-.167-.715-.451-1.053-.141.381-.261.707-.382 1.04l-.26-.155.086.647c-.12.17-.25.388-.418.573-.26.287-.596.32-.898.078-.176-.141-.314-.335-.446-.52-.113-.158-.195-.337-.29-.508zm-.252-.732c.046.073.095.146.14.22.18.308.35.62.539.922.077.127.182.24.287.345.37.361.6.339.894-.087.07-.103.126-.217.176-.3l-.128-1.297.46.399.533-1.216c.186.427.35.805.534 1.223l.43-.405c-.024.38-.03.703-.07 1.02-.04.307.182.77.459.885a.364.364 0 00.414-.093c.192-.198.382-.402.538-.628.176-.254.312-.536.47-.803.04-.07.098-.129.149-.193l.079.035c-.045.285-.083.572-.141.855-.099.494-.216.986-.312 1.481-.026.143-.004.296-.007.444-.01.37-.072.486-.43.563-.44.094-.887.18-1.334.189-.773.013-1.548-.03-2.322-.063a2.337 2.337 0 01-.541-.11c-.402-.12-.513-.306-.468-.713a1.11 1.11 0 00-.017-.335c-.14-.73-.286-1.46-.428-2.192-.007-.04.014-.084.022-.125l.074-.02zm-2.568.738c-.097.168-.179.348-.294.502-.144.191-.292.392-.478.536-.293.222-.59.196-.843-.07-.186-.195-.322-.437-.481-.658l.049-.03.07-.55c-.118.07-.181.11-.266.161-.134-.341-.16-.72-.45-1.055l-.388 1.048-.213-.131c-.019.043-.031.064-.033.085-.002.034-.01.073.003.102.166.4-.059.688-.294.96-.303.35-.695.381-1.03.057-.186-.182-.319-.42-.465-.637-.08-.115-.137-.243-.203-.364.003.27.073.51.122.754.062.3.212.53.482.68.012.005.01.03.017.054-.083-.013-.16-.023-.238-.034v.898c1.537.341 3.05.355 4.582-.013v-.889l-.25.035c.132-.151.324-.293.4-.479.12-.294.162-.619.236-.93.015-.032.027-.064.041-.095l-.033-.015c-.013.027-.029.052-.043.078m-5.57-.744c.048.065.102.127.142.196.186.317.353.648.557.952.127.187.295.357.475.494a.505.505 0 00.385.066c.259-.069.524-.567.48-.842-.017-.1-.048-.201-.05-.304-.01-.217-.003-.435-.003-.714.135.128.243.23.395.371l.539-1.22c.186.424.355.805.535 1.212l.457-.41c-.045.466-.083.86-.13 1.324.09.13.2.32.343.48.159.18.335.196.52.041.184-.155.356-.332.495-.526.186-.262.336-.55.5-.826.056-.096.11-.192.178-.313.116.254-.07 1.402-.35 2.532l-.033.611c-.278.318-.637.352-.974.373-.75.049-1.502.085-2.251.067-.492-.013-.984-.119-1.472-.202-.232-.04-.364-.208-.355-.445.03-.687-.23-1.328-.317-1.998-.038-.292-.1-.582-.15-.872l.084-.047m21.57-3.209l-.308-.222-.286.225c.269.262.306.262.594-.003m.536.021c-.364.16-.58.494-1.005.396-.015.12-.03.226-.048.345h-.267c.012-.315-.012-.373-.233-.569l-.018-.358c.214-.098.287-.287.237-.545l.279-.077c.014.145.023.264.038.41.412-.106.653.208 1.017.398m-2.215 5.355c.163.377.262.409.55.182a49.528 49.528 0 01-.217-.287c-.12.04-.215.069-.333.105m.283-.37c.39.168.4.182.726.782-.351.039-.686.226-1.041-.027l-.188.342-.191-.11v-.592h-.043l.11-.347c.285-.042.376-.134.409-.445l.308.024-.09.373m-3.275 4.899c-.103.368-.016.46.353.39.006-.308-.005-.322-.353-.39m.575-.514c-.109.12-.184.2-.27.297.392.218.326.616.433.99-.37-.115-.768-.028-.988-.427a23.8 23.8 0 00-.282.249 18.03 18.03 0 01-.16-.174c.135-.176.317-.329.197-.561l.27-.31c.271.096.366.06.543-.22l.257.156m-4.981-22.845c-.355.167-.375.223-.193.502.33-.105.355-.164.193-.502m.192.605c.124.063.223.115.342.177l-.122.215c-.213-.105-.413-.186-.61-.003l-.354-.134c-.011-.25-.164-.372-.44-.403l.083-.256.35.09c.066-.42.479-.5.776-.78.01.384.243.723-.025 1.094m-.17 26.4c.021-.183.033-.3.05-.44l-.356-.172c-.014.181-.02.299-.03.416l.336.196m.543-.858c-.127.059-.219.1-.329.153l.144.372-.163.707c-.295-.224-.685-.307-.739-.749l-.352.112-.056-.174c.135-.15.372-.217.366-.464l.302-.149c.13.044.24.11.345.107.098-.005.196-.083.325-.145.036.05.09.13.157.23m7.041-18.365l-.207.304c.348.186.422.158.55-.212l-.343-.092zm-.742.306c.252-.15.268-.266.052-.553l.25-.179.175.346c.35-.248.687-.081 1.062-.004-.206.318-.327.675-.744.754.035.117.069.22.108.346-.086.018-.148.034-.209.046-.133-.16-.195-.39-.432-.383l-.258-.368-.004-.005zm-17.819-7.536l.045-.395-.337-.201-.06.421.352.175zm-.043.496c-.205-.199-.312-.207-.603-.037l-.13-.211.325-.172-.145-.347c.025-.122.046-.245.074-.367.024-.11.054-.216.088-.352.3.229.677.327.744.744l.356-.088.057.21c-.217.082-.425.158-.42.41l-.35.21h.004zm-4.508 22.361c-.244-.086-.37-.023-.447.12-.033.062-.018.15-.025.242h.341l.131-.362zm-.77.723c.036-.371.02-.759.388-1.001a25.28 25.28 0 01-.255-.269c.075-.057.134-.104.193-.15.226.255.251.265.572.228.033.04.064.086.105.125.039.04.088.073.143.116-.038.221-.028.436.264.543l-.16.24-.284-.245c-.227.354-.631.308-.974.41l.007.003zm-3.693-10.437l.334-.237-.348-.222-.336.249.35.21zm.749-.003c-.244.079-.292.17-.27.518-.043.009-.087.021-.13.023-.033 0-.065-.013-.119-.024l-.027-.322c-.417.075-.663-.227-1.004-.417.344-.174.575-.497.997-.39l.041-.406.252.052c-.045.247-.012.454.208.556l.052.407v.003zm.023-5.751l.27.291.268-.096c.007-.005.01-.02.015-.03-.112-.333-.201-.368-.553-.165zm1.089.155c-.066.117-.133.233-.204.362-.248.005-.348.182-.39.44-.077-.027-.146-.053-.236-.083.034-.125.063-.231.1-.357-.438-.033-.517-.434-.77-.728.381-.089.723-.215 1.088-.026.053-.102.096-.19.154-.303l.248.116c-.199.252-.193.39.013.58h-.003zm7.111 18.291c-.124.098-.217.169-.326.254l.143.368.344-.298-.16-.323m-.377-.065l-.334-.168c.044-.082.08-.15.126-.232.207.18.41.22.607.032.117.048.221.091.333.139.038.242.177.393.465.41-.033.085-.06.154-.09.238a35.244 35.244 0 01-.363-.105c-.062.435-.446.538-.76.767-.033-.383-.237-.73.016-1.08m-7.81-7.307c.331.213.412.187.577-.183l-.325-.104-.252.287m1.096.42l-.25.13c-.064-.109-.119-.202-.184-.316-.352.22-.693.05-1.077-.003.239-.296.32-.698.772-.742l-.113-.33.248-.132c.015.29.155.439.407.478l.13.305c-.114.185-.189.392.067.61m13.819-18.112l.006-.005c.333.396.751.534 1.265.411.065-.074.133-.151.247-.284l-.445.097-.393-.248-.226.115c-.191-.037-.323-.06-.454-.086m-.32.132c.002-.08.006-.177.013-.33l.692.043-.001.038c.087-.026.174-.05.293-.086l.446.213c.241.01.54-.13.671.223-.073.093-.145.183-.24.306-.295.028-.628.18-.97.02-.293-.137-.585-.276-.905-.427m-3.604.28c.503.122.919-.051 1.264-.45l-.402.14-.266-.13-.387.257c-.144-.03-.272-.057-.478-.102.125.134.193.206.27.286m-.293.14a26.306 26.306 0 00-.242-.315c.14-.348.437-.215.686-.224l.467-.213.218.063.686-.076.031.31c-.03.039-.04.063-.059.074-.34.18-.67.41-1.062.444-.247.02-.5-.041-.725-.062m-1.388-.785l.137-.147c-.054-.024-.084-.049-.112-.047-.183.007-.272.117-.272.287-.001.123.038.246.041.37.003.086-.024.174-.048.331-.399-.528-.207-.935.095-1.354.246-.136.363-.131.517.034.115.123.142.348.058.477-.078.116-.17.13-.416.05m8.525-.052c-.222.204-.324.157-.461-.213.177-.431.317-.487.685-.278.088.273.34.494.26.819a74.67 74.67 0 01-.117.463c-.2-.045-.172-.148-.142-.265.032-.131.07-.267.063-.4-.01-.2-.108-.255-.363-.231.032.043.056.077.08.112l-.005-.007zm-7.741-.274c.76-.264 1.555-.36 2.35-.456.027-.003.06.046.162.126-.232.043-.394.076-.557.104-.646.112-1.293.222-1.94.333l-.015-.107m6.928.104c-.766-.144-1.532-.289-2.378-.447.107-.071.143-.116.172-.112.754.105 1.515.175 2.232.45l-.025.109zm-4.72 25.884a8.687 8.687 0 01-2.108-.393l.003-.088c.037-.015.076-.052.109-.045.596.11 1.193.221 1.79.338.08.016.156.061.233.093-.008.033-.018.065-.027.096m4.756-.416a7.678 7.678 0 01-2.001.4l-.031-.072c.044-.037.083-.093.132-.102.585-.12 1.171-.234 1.758-.346.04-.007.084.012.128.02l.014.1m-9.895-24.161c-.544.382-1.086.766-1.674 1.18.085-.339 1.274-1.193 1.674-1.18m18.864 7.81c.252.618.385 1.256.366 1.925-.2-.285-.183-.63-.246-.946-.064-.32-.204-.637-.12-.979m-23.585-2.936c-.05-.336.734-1.522 1.09-1.653l-1.09 1.653m-.114 12.764c.34.541.65 1.038.997 1.596-.117-.031-.191-.028-.225-.063-.344-.364-.808-1.245-.772-1.533m19.269-16.605c-.517-.265-.971-.626-1.482-.977.294-.05 1.189.536 1.482.977m-20.372 6.871l-.347 1.818-.072.007c-.02-.064-.056-.127-.055-.19.005-.455.26-1.474.474-1.635m23.649-2.849a18.313 18.313 0 01-.94-1.501c.321.13.968 1.173.94 1.5m-3.247 16.669c-.25.367-1.203 1.005-1.529.981.495-.355.947-.683 1.402-1.005.023-.015.078.014.127.024m-15.957-.043c.425.357.928.615 1.306 1.036a5.287 5.287 0 01-1.397-.92c.03-.037.06-.076.09-.116m-4.653-7.17c-.167-.528-.265-1.068-.238-1.632.22.22.145.52.212.78.07.27.103.551.153.825l-.127.027m23.866 3.278c-.19.508-.471.964-.847 1.426-.014-.23.562-1.216.846-1.426m1.503-4.773c.086.344-.091 1.32-.272 1.599-.076-.198.104-1.327.272-1.599m-26.421-1.507v.002-.002zm7.738-1.038l-.007.003.007-.003z"/><path fill="#FFF" d="M115.487 213.442l-.01.002.017.001zm23.153-16.036l-.02-.017a.15.15 0 00.015.013l.004.004zm-24.974.004l.017-.01-.02.01zm7.103-7.049l-.009.014.013-.015zm9.66.002l.005-.011-.01.004zm-2.935 1.575l.631.287c.058.077.131.177.216.289-.043.077-.084.154-.12.221-.233.062-.351-.017-.37-.238l.008.006c-.08.084-.161.166-.255.266-.18-.173-.016-.306.038-.447-.184.008-.184.008-.375.245-.107-.028-.226-.057-.354-.091v-.45l.59-.08-.01-.008zm-2.755.748c-.309.105-.309.105-.48-.166l.195-.355.492-.228-.009.007c.192.023.384.044.59.066v.485l-.175.102-.323-.332a.528.528 0 01-.044.036l.074.432-.078.033-.265-.344c.012.145.016.208.02.271l.003-.007zm.794 9.733c-.513.211-.99.177-1.453.015l.913-.634c.17.193.338.388.54.619m1.799-.641l.853.636c-.41.183-.823.136-1.281.06-.002-.336.317-.45.428-.696m-6.36-.843c.228.224.46.443.68.673.18.186.162.428.195.707-.331-.21-.61-.39-.682-.77-.041-.21-.123-.412-.186-.617l-.007.007zm10.351.093c-.172.424-.2 1.006-.825 1.244-.01-.274-.008-.53.231-.73.212-.174.416-.36.594-.515m-2.093 1.403l.916-.409-.115.502c-.277.087-.532.098-.8-.093m-6.236.034c-.278.146-.417.152-.733.033-.025-.145-.052-.296-.08-.465l.813.432m5.645.296c.06.061.12.127.244.257l-.942.063-.004-.033c.23-.094.462-.19.703-.287m2.329-.5l-.034.519-.392-.021-.025-.081c.128-.12.258-.238.45-.418m-9.627.016l.445.38-.01.076-.374.04a72.91 72.91 0 00-.061-.496m2.711.713h-.558l.165-.196.393.196zm1.353-1.638l.202-.253v.5l-.202-.247m1.611 1.746h.568a.086.086 0 01.001.02h-.565l-.004-.02m-1.739-.001l.37-.084c-.116.174-.251.075-.37.084m-1.039-.058h.055c-.01.005-.02.012-.029.012-.01 0-.02-.009-.026-.012m2.677-1.718l-.006.052.006-.052m5.442-2.342v.02c-.011.02-.001.004.007-.013l-.007-.007zm-12.363.158l-.067-.143-.006.004c.026.046.05.093.075.139h-.002zm11.623 2.004l-.014.006h.02zm-10.235-.276l.025.01c-.007-.006-.013-.01-.018-.016l-.007.006z"/><path fill="#FFF" d="M120.979 200.928l-.017-.006.01.013zm-.982-1.794l-.006.022.027-.022h-.023.002zm4.739-6.44l-.003.012.006-.02zm5.351 14.431l.224-.774c.077.256.148.487.23.753l-.213.31-.241-.289m-.186.367l.231.282c-.15.204-.35.302-.66.331.156-.22.281-.4.43-.613m.824.021l.402.539c-.26.04-.345.003-.622-.27.03-.042.06-.09.093-.132.036-.045.076-.083.127-.137m-.246.852h-.37l.189-.211.194.152-.014.06m-8.283-2.016l.222.758a85.91 85.91 0 00-.22.312c-.098-.13-.17-.225-.232-.31l.23-.76m.162 1.445l.247-.297.427.595c-.298.014-.47-.131-.674-.298m-1.009.302l.431-.59.228.272a.797.797 0 01-.66.318m.912.116c.016.014.072.068.161.146h-.39l-.054-.059.282-.087m-1.282.131l.024.014-.028.008z"/></g></svg>