<svg xmlns="http://www.w3.org/2000/svg" viewBox="0 0 80 80"><circle cx="40" cy="40" r="40" fill="#9ea8b7"/><path fill="#fff" d="M27.5 51.1c-.6 0-.8-.2-.9-.3-.1-.1-.1-.2-.2-.3 0-.1-.1-.2-.1-.4v-.3h.3v.3c0 .2.1.4.2.5.1.1.3.2.6.2.1 0 .4 0 .6-.2.1-.1.1-.1.1-.2v-2.8h.3v2.5c0 .1 0 .3-.1.4 0 .1-.1.2-.2.3 0 .3-.4.3-.6.3zm5-.1h-2.3v-3.4h2.3v.2h-2V49h1.9v.2h-1.9v1.4h2v.4zm4.4 0h-.3l-.9-3-.9 3h-.3l-1-3.3h.3l.8 3 .8-3h.3l.9 3 .8-3h.3c.2 0-.8 3.3-.8 3.3zm4.6 0h-2.3v-3.4h2.3v.2h-2V49h1.9v.2h-1.9v1.4h2v.4zm3.7 0H43v-3.4h.3v3.1h1.9v.3zm1.4-1.7h1.1c.3 0 .8-.1.8-.7s-.6-.7-.8-.7h-1.1v1.4zm2.3 1.7h-.3c-.1-.2-.1-.4-.1-.6 0-.3 0-.6-.2-.7-.1-.1-.3-.2-.6-.2h-1.1V51h-.3v-3.4h1.4c.7 0 1.1.3 1.1.9 0 .4-.2.7-.6.8.5.1.5.6.5 1 .1.3.1.6.2.7zm2.7 0h-.3v-1.4l-1.3-2h.3l1.2 1.7 1.2-1.7h.3l-1.3 1.9c-.1.1-.1 1.5-.1 1.5zM25.5 37.2c-.2-.6-.5-1.1-.8-1.5-.4-.4-.8-.8-1.3-1.1-.5-.3-1.2-.4-1.9-.4s-1.3.1-1.9.4c-.5.3-1 .6-1.4 1.1-.4.5-.6 1-.8 1.5-.2.6-.3 1.2-.3 1.9s.1 1.3.3 1.9c.2.6.5 1.1.8 1.5.4.4.8.8 1.4 1.1.5.3 1.2.4 1.9.4s1.3-.1 1.9-.4c.5-.2 1-.6 1.4-1.1.4-.4.6-1 .8-1.5.2-.6.3-1.2.3-1.9-.1-.7-.2-1.3-.4-1.9zm-4 6.1c-.6 0-1.1-.1-1.5-.3-.4-.2-.8-.5-1.1-.9-.3-.4-.6-.8-.7-1.3-.2-.5-.3-1.1-.3-1.7 0-.6.1-1.2.3-1.7.2-.5.4-.9.7-1.3.3-.4.7-.7 1.1-.9.4-.2 1-.3 1.5-.3.6 0 1.1.1 1.5.3.4.2.8.5 1.1.9.3.4.6.8.7 1.3.2.5.3 1.1.3 1.7 0 .6-.1 1.2-.3 1.7-.2.5-.4 1-.7 1.3-.3.4-.7.7-1.1.9-.4.2-.9.3-1.5.3zm22.9-6.1c-.2-.6-.5-1.1-.8-1.5-.4-.4-.8-.8-1.4-1.1-.5-.3-1.2-.4-1.8-.4-.7 0-1.3.1-1.8.4-.5.3-1 .6-1.4 1.1-.4.5-.6 1-.8 1.5-.2.6-.3 1.2-.3 1.9 0 .6.1 1.3.3 1.9.2.6.5 1.1.8 1.5.4.4.8.8 1.4 1.1.5.3 1.2.4 1.8.4.7 0 1.3-.1 1.8-.4.5-.2 1-.6 1.4-1.1.4-.4.6-1 .8-1.5.2-.6.3-1.2.3-1.9s-.1-1.3-.3-1.9zm-.4 1.9c0 .6-.1 1.2-.3 1.7-.2.5-.4.9-.7 1.3-.3.4-.7.7-1.1.9-.5.2-1 .3-1.5.3s-1-.1-1.5-.3c-.4-.2-.8-.5-1.1-.9-.3-.4-.6-.8-.7-1.3-.2-.5-.3-1.1-.3-1.7 0-.6.1-1.2.3-1.7.2-.5.4-.9.7-1.3.3-.4.7-.7 1.1-.9.4-.2 1-.3 1.5-.3.6 0 1.1.1 1.5.3.5.2.8.5 1.1.9.3.4.6.8.7 1.3.2.5.3 1.1.3 1.7zm3.6 4v-8.6H47v9.3h5.8v-.7h-5.2zm14.6-5.9c-.2-.6-.5-1.1-.8-1.5-.4-.4-.8-.8-1.3-1.1-.5-.3-1.2-.4-1.9-.4s-1.3.1-1.8.4c-.5.3-1 .6-1.4 1.1-.4.4-.6 1-.8 1.5-.2.6-.3 1.2-.3 1.9s.1 1.3.3 1.9c.2.6.5 1.1.8 1.5.4.4.8.8 1.4 1.1.5.3 1.1.4 1.8.4s1.3-.1 1.8-.4c.5-.2 1-.6 1.4-1.1.4-.4.6-1 .8-1.5.2-.6.3-1.2.3-1.9-.1-.7-.1-1.3-.3-1.9zm-4.1 6.1c-.6 0-1.1-.1-1.5-.3-.4-.2-.8-.5-1.1-.9-.3-.4-.6-.8-.7-1.3-.2-.5-.3-1.1-.3-1.7 0-.6.1-1.2.3-1.7.2-.5.4-1 .7-1.3.3-.4.7-.7 1.1-.9.4-.2.9-.3 1.5-.3s1.1.1 1.5.3c.4.2.8.5 1.1.9.3.4.5.8.7 1.3.2.5.3 1.1.3 1.7 0 .6-.1 1.2-.3 1.7-.2.5-.4.9-.7 1.3-.3.4-.7.7-1.1.9-.4.2-.9.3-1.5.3zm13-8.9L68 42.6l-3.2-8.2H64l3.6 9.3h.6l3.5-9.3h-.6zm-35.5 9.3L29 38.9l6.4-4.5h-1.1l-5.6 3.9v-3.9H28v9.3h.7v-4.2l5.9 4.2h1zM15 40.1c-.2-.3-.4-.5-.7-.7-.3-.2-.7-.3-1-.4-.4-.1-1.9-.5-2.3-.6l-.9-.3c-.2-.1-.5-.3-.6-.5-.1-.2-.2-.5-.2-.8 0-.4.1-.6.2-.9l.6-.6c.3-.2.5-.3.8-.3.3-.1.6-.1.9-.1.4 0 .7 0 1.1.1.3.1.6.2.8.4.2.2.4.4.5.7.1.1.1.3.2.5v.1h.7v-.2c0-.2-.1-.5-.2-.7-.2-.4-.4-.7-.7-.9-.3-.2-.7-.4-1-.5-.4-.1-.8-.2-1.3-.2-.4 0-.8 0-1.1.1-.4.1-.7.2-1 .4-.3.2-.6.5-.8.8-.2.3-.3.7-.3 1.2s.1.9.3 1.2c.2.3.5.5.8.7.3.2.7.3 1 .4.4.1 1.8.4 2.1.5.3.1.7.2 1 .3.3.1.5.3.7.6.2.2.3.5.3.9 0 .3-.1.6-.2.9-.1.2-.4.5-.6.6-.3.2-.6.3-.9.4-.3.1-.7.1-1 .1-.5 0-.9 0-1.2-.1-.3-.1-.7-.2-.9-.5-.3-.2-.5-.5-.6-.8-.4-.3-.5-.6-.5-.8V41h-.7v.2c0 .4.1.7.2 1 .2.4.4.8.8 1.1.3.3.7.5 1.2.6.4.1.9.2 1.5.2.4 0 .8 0 1.2-.1.4-.1.7-.2 1.1-.5.3-.2.6-.5.8-.8.2-.3.3-.7.3-1.2-.1-.7-.2-1.1-.4-1.4z"/></svg>