<svg xmlns="http://www.w3.org/2000/svg" xmlns:xlink="http://www.w3.org/1999/xlink" width="80" height="80"><defs><circle id="iledebeaute__a" cx="40" cy="40" r="40"/></defs><g fill="none" fill-rule="evenodd"><use fill="#000" xlink:href="#iledebeaute__a"/><path fill="#FFF" fill-rule="nonzero" d="M57.515 36.65c-2.032.098-3.609 1.744-3.542 3.7.067 1.955 1.751 3.499 3.786 3.468 2.035-.03 3.669-1.625 3.671-3.581-.056-2.028-1.806-3.631-3.915-3.587zm.392 6.777a3.082 3.082 0 01-2.283-.773 2.84 2.84 0 01-.952-2.14 2.861 2.861 0 01.488-2.256 3.086 3.086 0 012.025-1.231 3.184 3.184 0 012.252.805c.608.548.962 1.307.984 2.107A2.782 2.782 0 0160 42.184a3 3 0 01-1.99 1.243h-.103zm-34.515-4.2a2.81 2.81 0 00-1.299.276V36.81h-1.05v6.875h1.07c.303.026.606.026.908 0a2.455 2.455 0 001.886-.552 2.261 2.261 0 00.813-1.726 2.099 2.099 0 00-.673-1.576 2.276 2.276 0 00-1.655-.604zm-.35 4.14a2.561 2.561 0 01-.928-.158V39.76c.303-.139.633-.213.968-.218a1.84 1.84 0 011.31.628c.325.377.47.868.4 1.353 0 1.328-.762 1.843-1.75 1.843zM12.737 36.67v6.994h-1.174v-5.468l-4.905 5.567H6.37V36.81h1.071v5.468l4.905-5.567.391-.04zm7.542 6.994h-1.298l-2.308-5.468-2.432 5.468h-.556L16.9 36.67h.185l3.194 6.994zm28.045-6.855v6.875h1.071c.302.026.605.026.907 0a2.455 2.455 0 001.886-.552 2.261 2.261 0 00.813-1.726 2.096 2.096 0 00-.65-1.594 2.274 2.274 0 00-1.657-.626 2.81 2.81 0 00-1.299.278v-2.259h3.236v-.396h-4.307zm2.06 6.598a2.86 2.86 0 01-.968-.159v-3.487c.303-.139.633-.213.968-.218a1.84 1.84 0 011.31.628c.325.377.47.868.4 1.353-.02 1.328-.885 1.863-1.73 1.863l.02.02zm16.28-6.182h-2.061v6.46h-1.072v-6.48h-2.06v-.396h5.295l-.103.416zm6.943 2.992a3.46 3.46 0 01-1.143 2.65 3.757 3.757 0 01-2.813.956 4.407 4.407 0 01-2.452-.733l-.227-.654h.206c.689.592 1.57.935 2.494.97a3.035 3.035 0 002.134-.993 2.8 2.8 0 00.71-2.176h-4.699v-.456h4.74c.011-1.52-1.243-2.77-2.823-2.814a3.922 3.922 0 00-2.061.595l-.33-.377a5.02 5.02 0 012.411-.554 3.813 3.813 0 012.697 1.007 3.521 3.521 0 011.136 2.559l.02.02zm-5.584-4.498l.103-.337c1.244.371 2.588-.15 3.215-1.248l.597.694a4.243 4.243 0 01-3.935.871l.02.02zm-23.346 4.498c-.15-1.979-1.863-3.511-3.926-3.511s-3.776 1.532-3.925 3.51a3.501 3.501 0 001.22 2.687 3.806 3.806 0 002.9.9 4.67 4.67 0 003.318-1.308l.145-.792h-.165c-.719 1.07-1.951 1.72-3.277 1.724a3.103 3.103 0 01-2.224-.977 2.861 2.861 0 01-.763-2.233h6.697zm-3.895-3.21c1.55.117 2.792 1.285 2.947 2.774h-5.708a2.618 2.618 0 01.77-1.949 2.836 2.836 0 011.991-.825zm-5.09 0c-.611-1.3-2.003-2.091-3.482-1.981a3.71 3.71 0 00-2.617.95l-.144.734h.185a3.043 3.043 0 012.638-1.348c1.834 0 2.679 1.21 2.74 2.992a3.392 3.392 0 00-2.575-1.169c-1.57.035-2.91 1.097-3.245 2.572-.334 1.474.424 2.977 1.835 3.637 1.412.66 3.11.305 4.109-.859a3.12 3.12 0 00.845-2.16v-1.783a4.478 4.478 0 00-.289-1.545v-.04zm-3.255 6.4a2.804 2.804 0 01-1.959-.917 2.588 2.588 0 01-.658-1.996 2.49 2.49 0 01.629-2.014 2.704 2.704 0 011.988-.879 2.744 2.744 0 011.972.892 2.53 2.53 0 01.645 2.001 2.567 2.567 0 01-.635 2.028 2.783 2.783 0 01-1.982.924v-.04z"/></g></svg>