<svg xmlns="http://www.w3.org/2000/svg" width="80" height="80" fill="none"><path fill="#FBC02C" d="M40 80c22.087 0 40-17.913 40-40S62.087 0 40 0 0 17.913 0 40s17.913 40 40 40z"/><path fill="#104076" d="M66.764 45.513a.673.673 0 00-.541.283c-4.482 5.821-15.764 9.943-28.952 9.943-12.982 0-24.11-3.992-28.721-9.659-.052-.051-.026-.129.026-.18l.077-.026c.155 0 .309.052.412.18 4.379 4.714 13.935 7.959 24.986 7.959 10.484 0 19.602-2.936 24.264-7.238a.73.73 0 000-1.03c-.129-.129-.335-.232-.541-.206h-1.365a.835.835 0 00-.592.258c-4.147 4.379-13.034 7.367-23.337 7.367-14.296-.026-25.707-5.796-25.707-12.931 0-7.135 11.437-12.931 25.707-12.931 10.381 0 19.293 3.065 23.414 7.444a.843.843 0 00.593.258h1.314c.412.026.747-.309.773-.721a.831.831 0 00-.206-.541c-4.662-4.353-13.832-7.315-24.367-7.315-11.102 0-20.632 3.271-25.011 7.985a.608.608 0 01-.412.18c-.077 0-.129-.051-.129-.129l.026-.077c4.611-5.667 15.764-9.685 28.746-9.685 13.266 0 24.599 4.173 29.03 10.02.129.18.335.283.541.283h3.787a1.32 1.32 0 001.365-1.262 1.254 1.254 0 00-.335-.927c-5.512-5.796-17.387-9.814-31.142-9.814-19.035 0-34.465 7.702-34.465 17.232 0 9.531 15.429 17.232 34.465 17.232 13.703 0 25.501-3.992 31.065-9.762a1.277 1.277 0 00-.103-1.829 1.373 1.373 0 00-.927-.335h-3.735v-.026zm-47.292-4.07c-.026.541-.438 1.005-.979 1.056h-.438c-.541-.052-.953-.489-.979-1.056v-2.421c.026-.541.438-1.005.979-1.056h.464c.541.052.953.489.979 1.056l-.026 2.421zm1.314-2.395a2.122 2.122 0 00-2.112-2.112h-.876c-1.159-.026-2.086.902-2.112 2.061v.464a.285.285 0 01-.283.283h-.927c-.155 0-.258-.103-.283-.258v-1.082c.026-.412-.103-.85-.386-1.159a1.126 1.126 0 00-.799-.232h-.206v6.465h1.391v-2.396c0-.154.129-.258.258-.283h.953c.155 0 .258.129.283.258v.386a2.156 2.156 0 002.112 2.112h.876a2.156 2.156 0 002.112-2.112v-2.395zm6.207 3.091c0 .876.412 1.365 1.185 1.365h.206V37.09h-1.391v2.318a.258.258 0 01-.258.258h-2.55a.258.258 0 01-.258-.258v-1.056c0-.876-.412-1.391-1.185-1.391h-.206v6.466h1.391v-2.344c0-.129.103-.258.258-.258h2.576c.155 0 .258.129.258.258v.773l-.026.283zm17.078-5.075a1.115 1.115 0 00-1.056 1.056h2.009c.155 0 .258.129.283.258v5.075h1.391v-5.075a.26.26 0 01.258-.258h1.03a1.115 1.115 0 001.056-1.056H44.07zm10.098 2.473a.775.775 0 01-.721.824h-1.597c-.155 0-.258-.129-.283-.283v-1.674c0-.155.129-.283.258-.283h1.494c.593 0 .85.232.85.799v.618zm1.314-.438v-.206a1.792 1.792 0 00-1.777-1.829h-3.529v6.388h1.391v-1.803c0-.155.129-.258.258-.283h1.726c1.03 0 1.906-.824 1.932-1.855v-.412zm-18.006 2.344c0 1.108.902 2.035 2.009 2.035h2.731a1.115 1.115 0 00-1.056-1.056h-1.623c-.412-.026-.696-.386-.67-.799v-2.679a.793.793 0 01.721-.824h1.443a1.11 1.11 0 001.03-1.056h-2.576a2.012 2.012 0 00-2.009 2.009v2.37zm32.97-4.379c-.155 0-.335 0-.49.026-.103.026-.154.129-.309.541 0 0-1.082 3.039-1.236 3.349-.026.077-.103.129-.206.154-.103 0-.18-.051-.206-.154-.154-.309-1.236-3.349-1.236-3.349-.18-.412-.206-.489-.309-.541-.155-.026-.335-.026-.489-.026h-1.339v6.465h.206c.773 0 1.159-.438 1.159-1.314v-2.473c0-.18.129-.232.206-.232.103 0 .206.077.258.18l1.133 2.911h1.236l1.133-2.911c.026-.103.129-.18.258-.18.077 0 .206.052.206.232v2.473c0 .876.386 1.314 1.159 1.314h.206v-6.465h-1.339zm-12.132 6.389h-1.417v-6.466h.206c.773 0 1.159.438 1.159 1.314v2.627c0 .155.232.232.386.051l2.653-3.915h1.417v6.414h-.206c-.773 0-1.159-.438-1.159-1.314v-2.55c0-.154-.232-.232-.386-.051l-2.653 3.89zm-26.84 0h-1.417v-6.466h.206c.773 0 1.159.438 1.159 1.314v2.627c0 .155.232.232.386.051l2.653-3.915h1.417v6.414h-.206c-.773 0-1.159-.438-1.159-1.314v-2.55c0-.154-.232-.232-.386-.051l-2.653 3.89z"/></svg>