<svg xmlns="http://www.w3.org/2000/svg" xmlns:xlink="http://www.w3.org/1999/xlink" width="60" height="60"><defs><path id="moscow-credit-bank__a" d="M29.703 59.405c16.404 0 29.702-13.298 29.702-29.702C59.405 13.298 46.107 0 29.703 0 13.298 0 0 13.298 0 29.703c0 16.404 13.298 29.702 29.703 29.702z"/></defs><g fill="none" fill-rule="evenodd"><mask id="moscow-credit-bank__b" fill="#fff"><use xlink:href="#moscow-credit-bank__a"/></mask><use fill="#851836" xlink:href="#moscow-credit-bank__a"/><g mask="url(#moscow-credit-bank__b)"><path d="M10 18h106.906v24H10z"/><path fill="#FFF" d="M32.797 21.389l-9.548 9.645-4.775-4.824 4.782-4.831h-9.474l-.092-.003L9 26.21 23.345 40.7 35.6 28.225h7.336l6.767-6.836H32.797zm-7.48 19.107l1.368-1.37 9.445-9.545h13.576l-6.768 6.828h-3.986l-4.037 4.087h-9.598z"/></g></g></svg>