<svg xmlns="http://www.w3.org/2000/svg" width="80" height="80"><g fill="none" fill-rule="evenodd"><circle cx="40" cy="40" r="40" fill="#002662"/><path fill="#FFF" d="M66.932 35.181c-.155-.204-.538-.036-.538-.036l-6.141 2.278a22.37 22.37 0 00-1.649-3.276l1.987-5.429s.249-.538.018-.673c-.228-.136-.603.225-.603.225l-3.612 2.966a15.545 15.545 0 00-4.96-3.591 16.61 16.61 0 00-2.213-.797l-1.12-4.296s-.098-.43-.386-.43c-.287 0-.364.406-.364.406l-.72 3.796a19.416 19.416 0 00-2.43-.156c-2.694 0-5.087.51-7.182 1.452-.899.402-1.742.885-2.53 1.438-.13.094-.254.193-.383.29-.746-1.92-1.332-3.488-1.441-3.96.413-.375 1.282-1.745 1.495-2.67.295-1.292.204-1.904-.106-2.882-.226-.716-.678-1.385-.649-1.838.025-.337.203-.578.355-.735-.082-.474-.391-.68-.758-.727-.337-.046-.6.052-.901.066-.076-.14-.228-.112-.114-.602.172-.742 1.593-1.09 2.758-1.541 1.472-.573 2.295-1.634 2.346-3.339.034-1.24-.655-2.156-1.521-2.57-.174.5-.89 1.173-1.39 1.447-.492.271-1.173.375-1.665.259.108-.91-.312-1.687-.979-2-.212.389-1.012.923-2.215.887-1.202-.037-1.279-.323-2.968-.317-2.405.003-4.397 1.456-4.643 3.586-.156 1.386.375 2.547.776 3.148-.3.227-1.003.902-1.127 1.106-.174-.204-.652-.472-1.226-.096.124.301.148.67.05 1.022-.1.35-.977 2.056-1.078 3.433-.17 2.33 1.176 3.908 2.303 4.36-.248.377-.3.777-.124 1.104.115.216.35.426.827.426-.276.3-.38.755-.202 1.203.202.5.776 1.228 1.277 1.228-.025.426.176 1.427.276 1.829-.173.325-.35.573-.325 1.174.024.626.426 1.131.926 1.232.126.302.22.633.393.832.177.202.332.445.709.695.375.251.801.452 1.303.452.5 0 .94.025 1.167-.05.01.144.058 1.47.115 2.943-1.259 3.508-1.887 7.575-1.887 11.939v.001c.001 7.82 2.228 14.788 6.482 19.277 0 0 .246.301.929.744 0 0 1.332-2.276 3.356-4.866a17.786 17.786 0 011.748-1.905 43.72 43.72 0 012.902-2.323c2.618-1.783 5.648-3.142 8.448-3.72-3.212 1.655-5.031 2.542-8.05 5.133-1.91 1.639-4.956 4.534-7.035 8.5.432.343 1.016.698 1.704.767.44-.518 2.702-4.67 6.177-8.01 7.029-6.588 15.308-8.111 19.642-8.028.244-1.786.369-3.646.369-5.57 0-3.148-.327-6.142-.982-8.882l5.175-5.765s.358-.357.204-.564"/><path fill="#002662" fill-rule="nonzero" d="M28.444 32.58c-.3-.176-1.126-.58-1.778-.553-.675.028-1.244.164-1.777.501-.224-.15-.295-.45-.15-.802.143-.35.351-.4.351-.4l-.19-3.285s.921-.655 1.17-.731c.251-.075.365-.272.365-.521.407.278 1.011.893 1.333 1.353.302.427.477.902.501 1.43.025.525.03 1.152-.074 1.804.205.175.4.326.424.6.025.279-.075.378-.175.604m29.901 10.225c-.036-.64-.779-2.37-1.23-2.745l7.789-3.458-6.559 6.203M36.977 29.886l6.592 5.987c-.637.359-1.591 1.323-1.853 2.112l-4.74-8.099m3.858 11.86c-.225.35-.306.562-.381.986-.077.429-.02.662.032 1.015L38.46 42.35c.024-.472-.1-1.249-.132-1.653-.003-.044-.018-.115-.029-.176l2.534 1.225"/><path fill="#002662" fill-rule="nonzero" d="M29.696 42.327c-.125-.225-.7-12.406-.726-12.83l.652-.476v-.124c-.477-.027-1.028-.203-1.2-.48l-.177-3.732c-.653-.05-1.323-.257-1.573-.507-.312-.312-.556-.697-.204-1.375.325.227 1.275.504 2.102.504.174 0 .543.393.751.476.24.095.64.317.83.4.17.074.277.476.327.625.05.152 6.077 15.816 6.18 15.992.1.174.45 2.805.475 3.007.026.199.927 2.303 1.102 2.506-.8-.025-2.113.435-3.19 1.49-1.052 1.027-1.983 3.287-2.193 4.329-.075-.553-3.03-9.58-3.156-9.805m7.662 14.988c-.261 2.405-.848 4.494-1.728 5.986-.565.96-2.156 2.907-2.711 3.645.602-1.206 1.068-4.106 1.028-6.362-.025-1.465-.468-4.698-.081-6.841.415-2.298 1.068-3.591 2.606-5.007.784-.723 2.39-1.646 4.68-1.022l1.855 3.489c-.992-.189-2.302-.019-3.177.653-1.646 1.265-2.2 2.969-2.472 5.459"/><path fill="#002662" fill-rule="nonzero" d="M37.538 62.06c.45-1.017 1.044-3.913 1.21-4.882.214-1.242.413-3.057 1.893-4.278.727-.6 1.92-.678 2.396-.54l2.097 4.275c.186.454.803.613 1.216.586-1.966.64-6.919 2.995-8.812 4.838m17.84-13.648c-.336.527-.216 1.032-.03 1.386l1.323 2.449c.35.93.623 1.4.957 2 .601 0 1.252-.016 1.939 0-.734-1.644-2.408-4.82-2.408-4.82l-.12-2.562c-.488.293-1.323 1.021-1.66 1.547M46.44 34.804c.826-.15 2.697.023 3.296.323l-1.899-10.764-1.397 10.441m-15.963-9.996c-.05-.15-.154-.55-.327-.624-.187-.086-.59-.307-.83-.404-.207-.08-.577-.473-.75-.473-.828 0-1.778-.277-2.103-.504-.352.678-.108 1.063.204 1.375.25.25.92.454 1.573.507l.176 3.733c.173.276.724.451 1.2.475v.126l-.65.477c.025.425.6 12.606.727 12.831.123.226 3.079 9.252 3.154 9.805.21-1.042 1.14-3.304 2.193-4.331 1.077-1.053 2.39-1.513 3.19-1.488-.175-.203-1.076-2.307-1.102-2.507-.024-.2-.375-2.832-.474-3.006-.102-.177-6.131-15.84-6.181-15.992"/><path fill="#002662" fill-rule="nonzero" d="M26.627 21.822c1.703.004 2.511.712 2.909 1.088.05-.576-.04-1.084-.576-1.518-.446-.362-1.227-.681-2.428-.681-.802 0-1.607.235-2.108.66-.46.39-.535.831-.436 1.483.15-.475 1.237-1.038 2.64-1.032m-3.05-8.942c-.039.65.134 1.329.435 1.73.172.229.577.67.876.652.427-.027.827-.843 1.827-.803.65.025 1.077.945 1.628.977.426.026.652-.4 1.083-.446.367-.039.495.146.722.37.15-.35.366-.587.925-1 .675-.504 2.98-.98 3.957-1.856.489-.439.6-1.25.445-1.797-.372.522-1.398 1.071-2.398 1.122-.502.024-1.704-.199-2.13-.423.213-.367.284-.784.108-1.185-.326.25-1.735.387-2.286.387-.55 0-1.624-.224-2.459-.178-1.827.097-2.673 1.4-2.734 2.45"/><path fill="#002662" fill-rule="nonzero" d="M26.732 18.568c3.957.076 5.743 1.905 5.794 3.41.2-.452.174-.878.15-1.38-.02-.398-.625-1.527-.651-1.904-.025-.376.076-.626.15-.977-.25.05-1.125.4-1.502.1-.403-.322-.124-1.127-.65-1.327-.527-.203-1.352.424-1.878.35-.526-.077-.976-.802-1.526-.802-.553 0-.828.676-1.504.827-.521.117-1.153-.198-1.462-.175-.34.024-.547.29-.697.614-.15.329-.271.463-.67.562-.32.08-.777-.2-1.002-.149.175.175.262.888.104 1.303-.2.526-.63 1.079-.68 1.735-.043.58.15.848.3 1.271-.1-2.13 2.269-3.523 5.724-3.458zm-2.493 7.594c-.275.05-.851.502-1.133.972.083.302.408 1.008.726 1.203.073-.327.432-.87.609-.996.248-.178.498-.3.698-.399.2-.102.276-.202.276-.43 0-.224-.03-.33-.13-.556.199-.024.568.007.697-.171.124-.173.184-.4.184-.625 0-.227-.1-.277-.326-.3a9.454 9.454 0 00-1.207-.016l.657-.337c.149-.073.2-.223.227-.35.023-.125.018-.407-.052-.75-.751.024-2.077.7-2.429 1.001l.277.678-.503-.02c-.075.343-.024.872.126 1.172.452-.076.977-.1 1.303-.076zm32.388 15.702c-.094-.486-1.314-1.943-3.395-3.52-1.62-1.233-4-2.45-5.958-2.44-3.306.021-4.67 2.291-4.919 3.476-.15.718-.114 1.494.036 1.92-.526.452-.726.814-.827 1.328-.071.371 0 .901.34 1.228-.039-.49.294-1.058.564-1.428.301-.414.802-.578 1.253-.85l.074.903c-.427.247-.955.773-.99 1.048l.035 1.493 1.136-.678.219.453-.414 2.631.639-.114 1.163.481-1.125.947v.377s.17-.231.567-.215c.398.018 1.423.477 1.423.477l-.038.228h-1.99c-.076.262.158.465.308.578.262-.076.534-.211.683-.211.15 0 .498.089.796.125l-.359.483s-.187.144-.528.076c-.186-.038-.373.225-.373.44 0 .229.146.792.146.792.184.846 1.048.676 1.157.666.55-.048 2.337-.695 2.337-.695l-1.717 2.414.75 2.58c1.134-.468 4.523-1.673 8.2-2.277-.4-.668-.465-.934-.96-1.927l-1.877-4.323.263-.642c.413.153 1.05-.148 1.464-.486.414-.338.9-.94 1.089-1.317-.263-.15-.486-.114-.713.039-.225.15-.4.44-.713.3-.34-.148-.173-.519-.137-.859.039-.337-.39-.343-.689-.08-.3.26-.94.15-1.354-.263-.413-.416-2.4-2.07-3.115-2.482-1.028-.59-2.403-.74-3.418-.556-.592.103-1.015.366-1.24.256l-.743-1.153.118-.075c.263.115.511.326.85.213.338-.114 1.424-.362 2.404-.377 1.504-.024 3.33.526 4.132.866.038.977 2.003 2.219 2.89 2.33.751.094 1.205-.111 1.653-.376l-1.915-1.684 1.015-1.287s1.616 1.543 1.84 1.843c.073-.175 0-.47-.037-.676zm-11.53 1.954s.825-.473 1.603-.64c1.144-.245 2.416.444 3.315 1.152l-.172.27-1.29.307c-.253-.224-.728-.324-1.24-.3-.457.022-.826.19-.826.19l.254.412-.594.151c-.262-.338-.675-.754-1.05-.865v-.677zm-1.955-2.97c-.338-1.134.565-2.255.977-2.668l.637 1.466c-.486.264-1.237.838-1.614 1.202zm5.936-1.277c-.602-.414-2.591-.34-3.418-.15l-.6-1.731c.451-.339 1.314-.563 2.102-.563.79 0 1.653.189 2.253.49l-.337 1.954zm3.905 1.773c-.825-.531-2.442-1.322-2.928-1.473l.711-1.84c.603.3 2.818 1.651 3.157 1.991l-.94 1.322zm-.257-4.894c.745.264 2.316 1.587 2.692 1.887l3.98-8.493-6.672 6.606zm5.501 6.32c-.035-.637-.779-2.368-1.23-2.743l7.794-3.459-6.564 6.203zm5.581 11.333c0-.806.634-1.472 1.442-1.472.808 0 1.45.666 1.45 1.472 0 .804-.642 1.471-1.45 1.471-.808 0-1.442-.667-1.442-1.47zm2.713 0c0-.711-.552-1.319-1.271-1.319-.724 0-1.264.608-1.264 1.32 0 .71.54 1.316 1.264 1.316.72 0 1.271-.606 1.271-1.317zm-1.665.875h-.154V53.26h.646c.362 0 .535.138.535.452 0 .309-.17.414-.422.455l.52.81h-.22l-.49-.81h-.415v.81zm.333-.956c.264 0 .524-.01.524-.314 0-.244-.204-.301-.414-.301h-.443v.615h.333z"/></g></svg>