<svg xmlns="http://www.w3.org/2000/svg" xmlns:xlink="http://www.w3.org/1999/xlink" width="60" height="60"><defs><path id="penza-gsm__a" d="M30 60c16.569 0 30-13.431 30-30C60 13.431 46.569 0 30 0 13.431 0 0 13.431 0 30c0 16.569 13.431 30 30 30z"/><path id="penza-gsm__b" d="M28.796 33.46V0H0v33.46h28.796z"/></defs><g fill="none" fill-rule="evenodd"><use fill="#B3B3B3" xlink:href="#penza-gsm__a"/><g transform="translate(15 13)"><mask id="penza-gsm__c" fill="#fff"><use xlink:href="#penza-gsm__b"/></mask><path fill="#FFF" d="M19.078 2.894L14.398 0 0 8.5v17.003c.36 0 14.578 7.958 14.578 7.958s14.218-7.235 14.218-8.14V8.864l-7.739-5.246-14.611 8.42-.057 9.577 7.929 4.793 8.449-4.974.075-8.764-2.415-1.5-8.099 4.476.02 2.304 1.97 1.314 3.643-2.03-.054 1.487-3.589 2.26-3.16-2.079v-4.16c.36-.362 9.45-5.245 9.45-5.245l4.049 2.17.09 10.943-9.989 5.697-9.898-5.969V11.124l14.218-8.23z" mask="url(#penza-gsm__c)"/></g></g></svg>