<svg xmlns="http://www.w3.org/2000/svg" xmlns:xlink="http://www.w3.org/1999/xlink" width="60" height="60"><defs><path id="europlan__a" d="M29.703 59.405c16.404 0 29.702-13.298 29.702-29.702C59.405 13.298 46.107 0 29.703 0 13.298 0 0 13.298 0 29.703c0 16.404 13.298 29.702 29.703 29.702z"/><path id="europlan__c" d="M.003 3.876h35.236V.006H.003v3.87z"/></defs><g fill="none" fill-rule="evenodd"><mask id="europlan__b" fill="#fff"><use xlink:href="#europlan__a"/></mask><use fill="#2178BD" xlink:href="#europlan__a"/><g mask="url(#europlan__b)"><g transform="translate(19.147 32.55)"><mask id="europlan__d" fill="#fff"><use xlink:href="#europlan__c"/></mask><path fill="#EC7504" d="M35.24 1.273C23.415.845 11.677 1.456.002 3.876c.157-.25.327-.258.472-.3 2.663-.77 5.346-1.467 8.069-2.019 1.05-.213 2.114-.373 3.168-.568a53.587 53.587 0 014.787-.654C18.036.19 19.577.058 21.127.028c1.715-.032 3.429-.038 5.14.039a55.19 55.19 0 015.94.568c.866.134 1.731.273 2.596.416.153.025.318.038.436.222" mask="url(#europlan__d)"/></g><path fill="#FFF" d="M20.973 29.334c.016-.765-.333-1.103-1.14-1.105-.075 0-.15-.002-.225.003-.672.045-.672.045-.746.677-.005.04-.015.08-.022.12-.086.506-.17 1.011-.26 1.516-.026.143-.037.264.158.303 1.167.231 2.199-.205 2.235-1.514m-1.621 2.755c-.202.022-.498-.036-.794-.07-.183-.022-.265.028-.293.22-.065.445-.171.884-.24 1.329-.036.23-.158.312-.386.308a21.522 21.522 0 00-1.028 0c-.24.007-.327-.067-.283-.308.194-1.046.372-2.095.56-3.143.16-.884.334-1.766.483-2.652.035-.21.157-.308.334-.364 1.126-.36 2.277-.477 3.448-.262 1.364.25 1.735 1.44 1.496 2.496-.093.41-.18.827-.43 1.19-.658.957-1.637 1.254-2.867 1.256m-6.004-1.049c.439-.01.8-.087 1.017-.235.204-.14.334-.32.273-.574-.06-.256-.28-.321-.51-.349-.179-.021-.362-.015-.544-.022-.074-.002-.148.006-.202-.064-.154-.197.08-.75.34-.792.21-.034.424-.058.616-.158.246-.128.332-.404.156-.558-.289-.253-.644-.246-.999-.165-.32.073-.492.275-.547.592-.106.604-.23 1.206-.35 1.808-.085.42-.09.42.338.473.137.018.275.03.412.044m-.152 1.052a6.803 6.803 0 01-2.096-.268c-.242-.07-.394-.184-.341-.462.177-.937.334-1.877.516-2.812.113-.576.497-.983 1.034-1.212 1.032-.44 2.095-.436 3.155-.071.899.31 1.07 1.39.216 1.899-.15.09-.207.123.005.223.829.39.973 1.219.342 1.878-.436.455-1.017.622-1.621.743-.412.083-.828.1-1.21.082m30.374-2.097c-.06.414.322.8.63.893.425.129.844.06 1.265-.017.109-.02.128-.09.142-.176.124-.756.244-1.513.422-2.26.026-.108.008-.194-.12-.197-.441-.012-.877-.108-1.322.045-.677.233-.908.923-1.017 1.712m1.079 2.097c-.692.018-1.35-.022-1.949-.353-.455-.252-.743-.63-.796-1.128-.114-1.08.068-2.082.979-2.843.545-.456 1.206-.662 1.912-.708.923-.06 1.837.03 2.742.213.26.053.347.17.29.407-.303 1.248-.448 2.521-.658 3.784-.035.215-.132.327-.352.372-.722.15-1.446.284-2.168.256M24.885 30.04c-.014.298.056.56.318.749.39.28 1.03.224 1.434-.129.443-.387.539-.904.595-1.441.045-.429-.11-.783-.444-.933-.39-.174-1.044-.095-1.299.16-.448.446-.619.99-.604 1.594m.757 2.052c-.329.023-.675-.03-1.022-.106-.91-.2-1.553-.882-1.515-1.856.04-1.079.393-2.01 1.378-2.588 1.043-.614 2.189-.693 3.329-.268.597.222 1.013.652 1.137 1.298.212 1.097-.275 2.532-1.343 3.081a3.862 3.862 0 01-1.964.44M7.43 29.187c.102 0 .179.012.25-.002.327-.062.677-.014.977-.194.342-.205.36-.562.041-.732-.372-.197-1.276-.086-1.54.369-.088.15-.234.312-.16.475.082.184.306.036.432.084m.24.937c-.182 0-.365-.01-.546.004-.122.009-.31-.105-.354.09a.47.47 0 00.217.531c.176.11.38.127.585.137a4.544 4.544 0 001.52-.185c.235-.07.392-.05.476.195.036.105.108.199.155.302.198.43.182.487-.287.622-.911.263-1.84.366-2.788.21-1.053-.173-1.617-.805-1.647-1.842-.05-1.796 1.19-3.069 3.064-3.146.527-.021 1.048.006 1.552.174.602.2.955.594.975 1.093.03.706-.273 1.228-.859 1.481-.608.263-1.064.338-2.063.334m43.491-1.218c.247 0 .494-.01.74.003.205.01.306-.04.334-.26.052-.405.151-.805.217-1.21.032-.196.131-.287.339-.285.375.004.75.001 1.125 0 .198 0 .269.09.224.275-.089.365-.215.737-.245 1.094-.059.693-.237 1.361-.328 2.045-.052.385-.134.766-.201 1.15-.036.202-.15.303-.373.298-.332-.007-.664.006-.996-.005-.21-.007-.298-.038-.274-.327.043-.507.18-.994.237-1.495.016-.145-.041-.215-.19-.215H50.1c-.27 0-.263.217-.282.369-.06.487-.156.966-.267 1.443-.039.163-.136.226-.29.227-.342.004-.685-.006-1.028.003-.277.007-.357-.116-.313-.36.164-.892.324-1.785.485-2.678.087-.483.181-.964.255-1.449.041-.268.159-.4.461-.38.31.02.622.018.932 0 .293-.016.35.106.302.352-.075.382-.127.768-.197 1.151-.034.187.027.265.232.256.257-.01.514-.002.771-.002M32.134 27.06c.6-.025 1.197-.018 1.782.151.87.253 1.26.926 1.18 1.766a13.43 13.43 0 01-.392 2.134c-.054.206-.016.421-.063.633-.042.187-.135.268-.323.268-.364.002-.728 0-1.093.002-.234.002-.327-.097-.284-.322.135-.702.251-1.408.4-2.108.23-1.09-.042-1.424-1.196-1.423h-.128c-.542.003-.533.004-.62.518-.145.858-.302 1.715-.457 2.572-.032.177-.131.334-.12.53.009.147-.137.225-.287.228-.375.008-.75.005-1.125.002-.226-.002-.3-.127-.262-.326.17-.905.342-1.809.511-2.714.064-.34.125-.681.183-1.023.082-.485.342-.739.854-.823.158-.026.317-.058.476-.062.321-.01.643-.003.964-.003m7.349.094c.546 0 1.092-.004 1.638 0 .468.005.622.175.544.618-.231 1.318-.471 2.635-.706 3.953-.034.19-.137.292-.344.29-.353-.002-.707 0-1.06-.002-.236 0-.323-.109-.28-.335.195-1.046.382-2.093.581-3.138.038-.2-.002-.286-.231-.274a5.665 5.665 0 01-.77-.003c-.27-.022-.344.11-.398.33-.165.683-.317 1.368-.604 2.021-.41.935-1.2 1.368-2.173 1.58-.123.026-.255-.001-.31-.114a6.77 6.77 0 01-.292-.712c-.053-.149.062-.236.191-.273.887-.257 1.234-.916 1.412-1.708.118-.519.243-1.037.367-1.555.126-.53.318-.675.893-.677.514-.002 1.028 0 1.542-.001"/></g></g></svg>