<svg xmlns="http://www.w3.org/2000/svg" width="40" height="40" fill="none"><path fill="#F2F6FA" fill-rule="evenodd" d="M20 40c11.046 0 20-8.954 20-20S31.046 0 20 0 0 8.954 0 20s8.954 20 20 20z" clip-rule="evenodd"/><path fill="#FEFEFE" fill-rule="evenodd" d="M11.93 15.313h14.991v13.816H11.93V15.313z" clip-rule="evenodd"/><path fill="#234A98" fill-rule="evenodd" d="M12.494 12.447h2.679c0 .235.094.47.188.658l.094.188v.047c.799 1.316 2.631 1.88 4.605 1.598a8.66 8.66 0 001.175-.235 11.48 11.48 0 001.128-.47h.094c.188-.094.423-.235.564-.329.752-.423 1.316-.94 1.786-1.457h1.927a2.507 2.507 0 012.491 2.491v14.239a2.507 2.507 0 01-2.491 2.491H12.495a2.507 2.507 0 01-2.491-2.491V14.938a2.507 2.507 0 012.491-2.491zm4.84 13.299l-.047-9.258c0-.188.141-.329.282-.329h4.041c.141 0 .282.141.282.329v9.258h2.303c.188 0 .329.188.329.423v1.034c0 .235-.141.423-.329.423h-9.21c-.141 0-.282-.188-.282-.423v-1.034c0-.235.141-.423.282-.423h2.35z" clip-rule="evenodd"/><path fill="#9B3589" fill-rule="evenodd" d="M18.18 7.278c2.115-1.034 4.511-.705 5.357.705.799 1.363-.282 3.336-2.397 4.37-2.115 1.034-4.511.705-5.357-.705-.799-1.41.235-3.336 2.397-4.37zm6.438 3.101c-.141 1.128-1.128 2.35-2.632 3.054-1.269.611-2.632.752-3.665.47.282 0 .611 0 .893-.047a5.341 5.341 0 001.175-.282 5.51 5.51 0 001.128-.423h.094v-.047l.564-.282c1.128-.658 1.974-1.551 2.444-2.444zm-6.156-2.726c1.692-.799 3.572-.564 4.182.564.141.235.235.47.235.752l-.094-.235c-.658-1.081-2.538-1.316-4.182-.517-1.363.611-2.162 1.739-2.115 2.679-.423-1.081.423-2.491 1.974-3.242z" clip-rule="evenodd"/></svg>