<svg xmlns="http://www.w3.org/2000/svg" viewBox="0 0 80 80"><circle cx="40" cy="40" r="40" fill="#cce6ed"/><path d="M12.9 38v5.7h-1.5V38h1.5zm3.7 0h2.2c.5 0 .9.1 1.2.4.3.3.4.6.4 1.1 0 .3-.1.5-.2.7-.1.2-.3.3-.5.5.2 0 .4.1.5.2.1.1.3.2.4.3.1.1.2.3.2.4 0 .2.1.3.1.5 0 .3 0 .5-.1.7-.1.2-.2.4-.4.5l-.6.3c-.2.1-.5.1-.8.1h-2.4V38zm1.5 2.2h.3c.5 0 .7-.2.7-.5 0-.4-.2-.5-.7-.5h-.3v1zm0 2.3h.3c.4 0 .6 0 .8-.1.2-.1.2-.2.2-.5s-.1-.4-.2-.5c-.2-.1-.4-.1-.8-.1h-.3v1.2zm6-1.7c0-.4.1-.8.2-1.2.2-.4.4-.7.6-.9.3-.3.6-.5 1-.6.4-.2.8-.2 1.3-.2s.9.1 1.3.2c.4.2.7.4 1 .6.3.3.5.6.7.9.2.4.2.8.2 1.2s-.1.8-.2 1.2c-.2.4-.4.7-.7.9-.3.3-.6.5-1 .6-.4.2-.8.2-1.3.2s-.9-.1-1.3-.2c-.4-.2-.7-.4-1-.6-.3-.3-.5-.6-.6-.9-.1-.4-.2-.8-.2-1.2zm1.5 0c0 .2 0 .4.1.6.1.2.2.4.3.5.1.1.3.2.5.3.2.1.4.1.6.1s.4 0 .6-.1c.2-.1.4-.2.5-.3.1-.1.3-.3.3-.5.1-.2.1-.4.1-.6s0-.4-.1-.6c-.1-.2-.2-.4-.3-.5-.1-.1-.3-.2-.5-.3-.2-.1-.4-.1-.6-.1s-.4 0-.6.1c-.2.1-.4.2-.5.3-.1.1-.3.3-.3.5s-.1.4-.1.6zm8.3-2.8H36c.4 0 .7.1 1.1.2l.9.6c.3.3.5.6.6.9.1.3.2.7.2 1.1 0 .4-.1.7-.2 1.1-.1.3-.3.6-.6.9-.3.3-.5.5-.9.6s-.7.2-1.1.2h-2.2V38zm1.4 4.4h.3c.3 0 .5 0 .7-.1.2-.1.4-.2.5-.3.1-.1.2-.3.3-.5.1-.2.1-.4.1-.6 0-.2 0-.4-.1-.6s-.2-.4-.3-.5c-.1-.1-.3-.3-.5-.3s-.4-.1-.7-.1h-.3v3zm8.4-1.5L41.6 38h1.8l1.1 1.5 1-1.5h1.8l-2.1 2.9v2.7h-1.5v-2.7zm6.4.2c0-.1 0-.2.1-.3 0-.1.1-.2.2-.3.1-.1.2-.1.3-.2.1 0 .2-.1.3-.1.1 0 .2 0 .3.1.1 0 .2.1.3.2.1.1.1.2.2.3 0 .1.1.2.1.3 0 .1 0 .2-.1.3 0 .1-.1.2-.2.3-.1.1-.2.1-.3.2-.1 0-.2.1-.3.1-.1 0-.2 0-.3-.1-.1 0-.2-.1-.3-.2-.1-.1-.1-.2-.2-.3-.1-.1-.1-.2-.1-.3zm10 2.5h-1.8l-1.4-2.2v2.2h-1.5V38h2.3c.3 0 .6 0 .8.1.2.1.4.2.6.4.2.2.3.3.3.6.1.2.1.4.1.7 0 .4-.1.8-.3 1-.2.3-.5.4-.9.5l1.8 2.3zm-3.2-3.1h.3c.3 0 .5-.1.7-.2.1-.1.1-.3.1-.5s-.1-.4-.2-.5c-.2-.1-.4-.2-.7-.2h-.3v1.4zm7.8-2.5v3.6c0 .2.1.3.1.5.1.1.2.3.3.3.1.1.3.1.6.1.2 0 .4 0 .6-.1l.3-.3c.1-.1.1-.3.1-.5V38h1.5v3.3c0 .9-.2 1.5-.6 1.9-.4.4-1 .6-1.9.6-.8 0-1.5-.2-1.9-.6-.4-.4-.6-1-.6-1.9V38h1.5z"/></svg>