<svg xmlns="http://www.w3.org/2000/svg" xmlns:xlink="http://www.w3.org/1999/xlink" width="80" height="80"><defs><path id="all-bikes__a" d="M19.165 17.106c0-.123-.12-.37-.24-.493-.242-.37-.724-.863-1.327-1.233-1.687-1.11-3.616-.74-4.821-.493-.844.123-1.929.37-2.893 1.356-.241.247-.482.617-.603.74H1.446v-.987c.121-1.972 1.326-3.205 2.05-3.945 2.049-2.22 4.58-2.96 6.026-3.452.241-.124.844-.247 1.688-.37s2.29-.37 4.34-.123c2.29.123 4.58.37 6.99 1.602.844.494 1.929.987 2.773 2.096.602.74.964 1.357 1.205 1.973.361.74.482 1.726.482 2.59v14.918c0 .37-.12.863-.241 1.48-.844 3.082-2.893 4.931-3.616 5.548-2.17 1.85-4.34 2.466-6.147 2.959-1.929.493-5.425 1.356-9.523 0-1.446-.493-3.616-1.233-5.424-3.452C.121 35.354.121 32.64 0 31.655c0-1.11 0-3.699 1.688-6.042 1.205-1.726 2.772-2.465 3.857-2.959 1.808-.863 3.375-1.11 4.942-1.356 1.446-.246 2.049-.246 4.58-.616 1.326-.247 2.41-.37 3.254-1.233.603-.617.965-1.48.844-2.343zM35.06 0c1.107 0 2.091.364 2.952.972.492.364.861.85 1.23 1.457.246.486.37.972.37 1.579v9.594c.614-.85 1.598-2.186 3.443-3.279 3.198-1.822 6.273-1.579 7.134-1.457 3.813.486 6.15 2.672 7.011 3.522 2.583 2.55 3.444 5.344 4.06 7.773 1.23 4.372.614 8.015.368 9.473-.369 2.064-.984 4.736-3.075 7.408-1.476 1.822-3.075 2.793-3.567 3.036-2.337 1.336-4.428 1.579-6.273 1.822-3.936.364-6.888-.365-7.626-.607-1.353-.365-3.813-1.093-6.15-3.037-.369-.243-.738-.607-1.107-1.093-1.722-2.064-2.214-4.372-2.583-5.95-.123-.365-.123-.972-.246-1.58V0h4.059zM18.924 25.244c-1.567.74-2.893.986-3.736 1.233-1.447.37-2.17.37-3.617.863-1.205.493-1.808.74-2.41 1.356-.844.863-1.326 2.466-.844 3.945.603 1.726 2.29 2.22 2.652 2.466 1.446.493 2.652.124 3.495-.123.723-.247 2.773-.74 3.978-2.713.844-1.232.964-2.342 1.085-3.945.12-1.356.12-2.466 0-3.329l-.603.247zm27.574-9.334c-3.936 0-7.134 4.372-7.134 9.594 0 5.223 3.198 9.595 7.134 9.595 3.936 0 7.134-4.372 7.134-9.595 0-5.222-3.198-9.594-7.134-9.594z"/></defs><g fill="none" fill-rule="evenodd"><circle cx="40" cy="40" r="40" fill="#F3F3F3"/><g fill-rule="nonzero" transform="translate(9 16)"><use fill="#2C2C2C" xlink:href="#all-bikes__a"/><path fill="#F4981C" d="M27 25.488l-16.44 16.44c-.976-.097-2.01-.3-3.087-.656-1.446-.493-3.616-1.233-5.424-3.452C.121 35.354.121 32.64 0 31.655c0-1.11 0-3.699 1.688-6.042 1.205-1.726 2.772-2.465 3.857-2.959 1.808-.863 3.375-1.11 4.942-1.356 1.446-.246 2.049-.246 4.58-.616 1.326-.247 2.41-.37 3.254-1.233.603-.617.965-1.48.844-2.343 0-.123-.12-.37-.24-.493-.242-.37-.724-.863-1.327-1.233-1.687-1.11-3.616-.74-4.821-.493-.844.123-1.929.37-2.893 1.356-.241.247-.482.617-.603.74H1.446v-.987c.121-1.972 1.326-3.205 2.05-3.945 2.049-2.22 4.58-2.96 6.026-3.452.241-.124.844-.247 1.688-.37s2.29-.37 4.34-.123c2.29.123 4.58.37 6.99 1.602.844.494 1.929.987 2.773 2.096.602.74.964 1.357 1.205 1.973.361.74.482 1.726.482 2.59v9.12zm12.61-12.61L31 21.488V0h4.059c1.107 0 2.091.364 2.952.972.492.364.861.85 1.23 1.457.246.486.37.972.37 1.579v8.87zM18.924 25.244c-1.567.74-2.893.986-3.736 1.233-1.447.37-2.17.37-3.617.863-1.205.493-1.808.74-2.41 1.356-.844.863-1.326 2.466-.844 3.945.603 1.726 2.29 2.22 2.652 2.466 1.446.493 2.652.124 3.495-.123.723-.247 2.773-.74 3.978-2.713.844-1.232.964-2.342 1.085-3.945.12-1.356.12-2.466 0-3.329l-.603.247z"/></g></g></svg>