<svg xmlns="http://www.w3.org/2000/svg" viewBox="0 0 40 40"><g data-name="лого игры"><circle cx="20" cy="20" r="20" fill="#3a66f8"/><path fill="#fff" d="M21.85 23.21v-6.7a2.51 2.51 0 012.49-2.75 2.55 2.55 0 012.55 2.79v13.24a2.53 2.53 0 11-5 0c-.05-2.17-.04-4.37-.04-6.58zM17 24.63V18.4a1.7 1.7 0 011.14-1.73 1.53 1.53 0 011.9.53 2.48 2.48 0 01.42 1.31v12.06a1.87 1.87 0 01-1.71 2.07 1.88 1.88 0 01-1.75-2.1zm-3.85-2.14v-8.44c0-1 .46-1.58 1.25-1.57s1.28.63 1.28 1.58v16.88a2 2 0 01-.68 1.39c-.81.64-1.85-.09-1.86-1.25v-8.2zm11.2-15.13A2.57 2.57 0 0127 10a2.61 2.61 0 01-5.25 0 2.59 2.59 0 012.6-2.64zM17 13.81A1.68 1.68 0 0118.68 12a1.76 1.76 0 011.87 1.62 2 2 0 01-1.81 2A1.78 1.78 0 0117 13.81zm-2.6-2.31a1.41 1.41 0 010-2.82c1.19 0 1.42.91 1.44 1.57a1.48 1.48 0 01-1.44 1.25z" data-name="8vCQgH"/></g></svg>