<svg xmlns="http://www.w3.org/2000/svg" width="40" height="40" fill="none"><circle cx="20" cy="20" r="20" fill="#005FF9"/><path fill="#fff" fill-rule="evenodd" d="M18.108 21.493c.166.343.515.58.919.58.563 0 1.021-.463 1.021-1.032s-.457-1.03-1.021-1.03a1.027 1.027 0 00-.977 1.332c.02.073.058.15.058.15zm.246-2.448c-.264.247-.42.653-.42.924.153-.261.528-.602 1.15-.602.916 0 1.601.75 1.601 1.674 0 .924-.743 1.674-1.658 1.674-.66 0-1.231-.39-1.498-.955-.187-.371-.251-.918-.223-1.475.034-.673.214-1.266.564-1.669.425-.488 1.016-.619 1.538-.734h.004c.24-.054.467-.104.66-.184l.243.602c-.265.134-.58.22-.838.276l-.033.007c-.45.1-.78.172-1.09.462zm3.175.404h2.433v3.184h-.644v-2.558h-1.157a77.27 77.27 0 01-.042 1.45c-.018.34-.096.761-.487.997-.306.184-.771.114-.781.112l.003-.584.108-.001c.416-.028.493-.164.514-.557.022-.428.054-1.913.053-2.042v-.001zm5.693 3.184h.644V19.45h-.644v.32c-.253-.257-.638-.402-1.021-.402-.915 0-1.659.75-1.659 1.674 0 .924.744 1.674 1.659 1.674.383 0 .79-.166 1.02-.43v.348zm.008-1.592c0-.598-.444-1.005-1.008-1.005a.98.98 0 00-.993 1.005c0 .57.429 1.008.993 1.008.564 0 1.008-.41 1.008-1.008zm1.352-1.592h.645v1.296h.71l.743-1.296h.799l-.9 1.567 1.04 1.617h-.8l-.809-1.262h-.783v1.262h-.645V19.45zM35 21.04c0-.924-.743-1.674-1.659-1.674-.915 0-1.658.75-1.658 1.674 0 .924.743 1.674 1.658 1.674.916 0 1.659-.75 1.659-1.674zm-.644 0a1.02 1.02 0 00-1.015-1.024 1.02 1.02 0 00-1.014 1.024 1.02 1.02 0 001.014 1.023 1.02 1.02 0 001.015-1.023zm-17.556.004c0-.924-.743-1.674-1.659-1.674-.915 0-1.658.75-1.658 1.674 0 .924.743 1.674 1.658 1.674.916 0 1.659-.75 1.659-1.674zm-.644 0a1.02 1.02 0 00-1.015-1.024 1.02 1.02 0 00-1.014 1.024 1.02 1.02 0 001.014 1.024 1.02 1.02 0 001.015-1.024z" clip-rule="evenodd"/><path fill="#FF9E00" d="M9.5 20.491c0 .58-.467 1.05-1.04 1.05-.575 0-1.041-.47-1.041-1.05 0-.579.466-1.05 1.04-1.05.574 0 1.04.471 1.04 1.05zM8.46 17C6.551 17 5 18.566 5 20.491c0 1.926 1.552 3.492 3.46 3.492.698 0 1.372-.21 1.948-.607l.01-.007-.466-.547-.008.005c-.444.288-.957.44-1.485.44-1.516 0-2.75-1.245-2.75-2.776 0-1.53 1.234-2.775 2.75-2.775 1.517 0 2.75 1.245 2.75 2.775 0 .199-.022.4-.065.597-.087.36-.336.47-.524.456-.189-.015-.41-.151-.411-.483V20.49a1.76 1.76 0 00-1.75-1.765 1.76 1.76 0 00-1.75 1.765 1.76 1.76 0 001.75 1.767c.469 0 .908-.185 1.24-.522a1.122 1.122 0 00.957.526c.252 0 .501-.085.702-.24.208-.159.362-.388.448-.664.014-.045.039-.147.039-.148v-.003a3.12 3.12 0 00.073-.716c0-1.925-1.551-3.491-3.459-3.491z"/></svg>