<svg xmlns="http://www.w3.org/2000/svg" xmlns:xlink="http://www.w3.org/1999/xlink" width="60" height="60"><defs><path id="flex__a" d="M30 60c16.569 0 30-13.431 30-30C60 13.431 46.569 0 30 0 13.431 0 0 13.431 0 30c0 16.569 13.431 30 30 30z"/><path id="flex__b" d="M9.409 14.712V.105H.12v14.607z"/></defs><g fill="none" fill-rule="evenodd"><use fill="#C40813" xlink:href="#flex__a"/><path fill="#FFF" d="M25.716 15.183H11v5.303h11.823l2.893-4.835zM11 25.07v5.303h5.909l3.172-5.303zm0 9.887v5.294l3.167-5.294z"/><path fill="#000" d="M15.666 22.122h7.302v3.566h-2.99v3.38h2.662v3.39h-2.663v7.485h-4.311zm8.224 17.821h4.26V22.122h-4.26zm10.968-9.423v-1.067c0-.756-.038-1.244-.113-1.464a.447.447 0 00-.46-.33c-.287 0-.465.093-.533.28-.069.187-.103.692-.103 1.514v1.067h1.209zm4.148 2.378h-5.357v3.16c0 .66.045 1.085.134 1.276.088.191.259.286.512.286.314 0 .524-.126.63-.38.105-.253.158-.742.158-1.469v-1.926h3.923v1.078c0 .903-.053 1.597-.16 2.08-.105.485-.352 1.003-.742 1.553-.389.55-.882.963-1.48 1.238-.597.276-1.346.413-2.247.413-.874 0-1.646-.136-2.315-.407-.67-.271-1.19-.644-1.562-1.117a4.145 4.145 0 01-.773-1.563c-.143-.57-.215-1.397-.215-2.483v-4.26c0-1.277.16-2.284.481-3.021a3.44 3.44 0 011.577-1.695c.73-.393 1.57-.59 2.52-.59 1.16 0 2.118.237 2.872.71.755.474 1.284 1.101 1.588 1.883.304.782.456 1.88.456 3.297v1.937z"/><g transform="translate(39.5 25.23)"><mask id="flex__c" fill="#fff"><use xlink:href="#flex__b"/></mask><path fill="#000" d="M9.06.105l-1.648 6.98 1.997 7.627H5.387a90.878 90.878 0 01-.91-4.975 113.926 113.926 0 01-.898 4.975H.12l1.782-7.628L.12.105h3.46c.557 2.986.857 4.681.898 5.086.4-2.493.702-4.188.909-5.086H9.06z" mask="url(#flex__c)"/></g></g></svg>