<svg xmlns="http://www.w3.org/2000/svg" xmlns:xlink="http://www.w3.org/1999/xlink" width="60" height="60"><defs><path id="vtb24__a" d="M29.703 59.405c16.404 0 29.702-13.298 29.702-29.702C59.405 13.298 46.107 0 29.703 0 13.298 0 0 13.298 0 29.703c0 16.404 13.298 29.702 29.703 29.702z"/></defs><g fill="none" fill-rule="evenodd"><mask id="vtb24__b" fill="#fff"><use xlink:href="#vtb24__a"/></mask><use fill="#0A2972" xlink:href="#vtb24__a"/><g mask="url(#vtb24__b)"><path d="M-144-2h254v56h-254z"/><path fill="#FFF" d="M36.403 29.354H14.762s.652 2.11 1.41 3.19h19.254s3.675 2.905 5.433 7.983h-20.24c-3.492-2.872-6.107-6.754-7.48-11.173.174-.541.367-1.072.579-1.594h22.675c1.768-1.24 3.525-3.191 3.525-3.191H15.304a23.33 23.33 0 011.042-1.593h24.86c.656-.803 1.974-3.191 1.974-3.191H19.088a23.231 23.231 0 011.82-1.594H43.92A30.305 30.305 0 0045 15H20.005A26.277 26.277 0 0010 29.354a26.373 26.373 0 009.993 14.36h24.942s-.439-7.637-8.532-14.36z"/></g></g></svg>