<svg xmlns="http://www.w3.org/2000/svg" xmlns:xlink="http://www.w3.org/1999/xlink" width="60" height="60"><defs><path id="mylan__a" d="M29.703 59.405c16.404 0 29.702-13.298 29.702-29.702C59.405 13.298 46.107 0 29.703 0 13.298 0 0 13.298 0 29.703c0 16.404 13.298 29.702 29.703 29.702z"/></defs><g fill="none" fill-rule="evenodd"><mask id="mylan__b" fill="#fff"><use xlink:href="#mylan__a"/></mask><use fill="#29383E" xlink:href="#mylan__a"/><g mask="url(#mylan__b)"><path fill="#FFF" d="M12.79 37.188c-.237-.08-1.31-.874-.958-1.605.193-.4.484-.576.929-.57.653.01.4.476.488.822.177.692.698.708 1.233.424.742-.393 1.104-1.071 1.359-2.093-1.308.197-2.96.771-2.556-1.685-.455 1.026-.888 1.912-2.113 1.93-.627.01-.805-.127-.537-.739.272-.622.478-1.273.478-2.055-.433.637-.853 1.283-1.308 1.904-.196.268-.432.663-.832.44-.303-.169-.153-.554-.099-.843.105-.55.397-1.072.184-1.733-.765.316-.709 1.095-.973 1.662-.198.425-.194.999-.707 1.185-.349.127-.74.406-1.121.189-.49-.28-.141-.68-.066-1.038.055-.256.18-.557.098-.771-.73-1.916.891-2.026 1.942-2.531.649-.312 1.36-.204 1.742.42.377.617.567.3.933.043 1.42-.999 2.11-.756 2.642 1.022.417-.711.729-1.377 1.598-1.523.762-.13.877.155.72.74-.188.696-.446 1.372-.67 2.048.508.272.661-.018.777-.297.232-.56.447-1.129.645-1.703.243-.706.855-.938 1.439-.815.816.17.37.81.254 1.276a14.806 14.806 0 01-1.403 3.638c-.582 1.053-1.343 2.049-2.547 2.258-.516.09-1.075.166-1.571 0"/><path fill="#86AF40" d="M31.776 27.494c-.336.72-.996 2.056-.996 2.056s1.09-.085 1.712-.074c-.266-.78-.463-1.161-.716-1.982m13.067 2.703c.597-2.171 1.191-4.04 1.603-5.948.228-1.386 2.712-1.227 3.368-1.227-1.008 3.747-1.993 7.358-2.935 10.981-.137.524-.422.544-.84.574-2.858.2-2.854.205-3.724-2.558-.388-1.231-.793-2.456-1.312-4.06-.569 2.136-1.072 3.869-1.479 5.623-.182.785-.53.922-1.331.999-.751.072-1.31.016-1.961-.003-1.276-.038-2.013-.07-2.413-1.544-.159-.583-.624-.578-1.06-.568-.829.019-1.391.02-2.267-.012-1.085-.04-1.98.023-2.247 1.335-.048.232-.248.776-.248.776s-.379.01-.628.008c-2.918-.027-5.837-.012-8.891-.012 1.003-3.74 1.982-7.354 2.93-10.975.114-.432.316-.563.72-.556.78.013 1.56.004 2.444.004-.685 2.547-1.32 4.99-2.008 7.418-.255.898-.193 1.18.92 1.292 1.978.2 2.988-.53 3.91-2.28 1.036-1.97 2.082-3.534 2.965-5.377.519-1.083 1.272-1.087 2.213-1.072.954.016 1.04.707 1.27 1.37.896 2.58 1.825 5.147 2.795 7.87.485-.8 1.85-6.32 2.351-8.306.157-.62.364-.94 1.11-.948 2.32-.02 2.582.14 3.095 2.405.047.208.857 3.27 1.65 4.791"/></g></g></svg>