<svg xmlns="http://www.w3.org/2000/svg" xmlns:xlink="http://www.w3.org/1999/xlink" width="60" height="60"><defs><path id="cetelem__a" d="M29.703 59.405c16.404 0 29.702-13.298 29.702-29.702C59.405 13.298 46.107 0 29.703 0 13.298 0 0 13.298 0 29.703c0 16.404 13.298 29.702 29.703 29.702z"/></defs><g fill="none" fill-rule="evenodd"><mask id="cetelem__b" fill="#fff"><use xlink:href="#cetelem__a"/></mask><use fill="#4EB358" xlink:href="#cetelem__a"/><g mask="url(#cetelem__b)"><path fill="#FFF" d="M40.59 33.353c-.559 2.451-1.987 3.923-3.909 4.94-3.496 1.85-7.198 2.023-11.002 1.047-3.007-.77-5.403-2.358-6.702-5.138-2.35-5.024-.57-11.946 6.523-13.663 3.376-.816 6.7-.739 9.929.461 2.107.784 3.775 2.185 4.744 4.23.416.878.18 1.202-.815 1.226-.56.013-1.122-.013-1.68.025-.924.063-1.592-.21-2.228-.947-.999-1.16-2.31-1.925-3.937-2.084-2.642-.26-5.164-.103-7.311 1.673-2.85 2.358-2.63 7.531.334 9.74 3.304 2.461 9.026 2.566 11.752-1.176.102-.14.282-.317.43-.32 1.24-.025 2.483-.014 3.872-.014"/></g></g></svg>