<svg xmlns="http://www.w3.org/2000/svg" xmlns:xlink="http://www.w3.org/1999/xlink" width="80" height="80"><defs><circle id="tmall-aliexpress__a" cx="40" cy="40" r="40"/></defs><g fill="none" fill-rule="evenodd"><mask id="tmall-aliexpress__b" fill="#fff"><use xlink:href="#tmall-aliexpress__a"/></mask><use fill="#F3F3F3" xlink:href="#tmall-aliexpress__a"/><g fill-rule="nonzero" mask="url(#tmall-aliexpress__b)"><path fill="#000" d="M65.043 59.095c0-1.147-.483-2.354-1.448-3.138-1.69-1.448-4.285-1.207-5.733.483l-3.198 3.862a4.932 4.932 0 01-3.802 1.75h-21.06c-1.449 0-2.897-.664-3.802-1.75l-3.259-3.862a4.09 4.09 0 00-5.732-.483c-.966.784-1.449 1.991-1.449 3.138v15.267a5.254 5.254 0 005.25 5.25h39.043a5.254 5.254 0 005.25-5.25V59.095h-.06z"/><path fill="#FFF" d="M40.302 72.009c-.121 0-.242-.06-.362-.181l-1.449-1.57c-.12-.12-.18-.361-.06-.482a.454.454 0 01.422-.302h2.837c.18 0 .362.12.422.302.06.18.06.362-.06.483l-1.449 1.569a.332.332 0 01-.301.18zm-13.88 4.525c-3.44 0-6.275-2.836-6.275-6.275 0-3.44 2.836-6.276 6.275-6.276 3.44 0 6.276 2.836 6.276 6.276 0 3.5-2.776 6.275-6.276 6.275z"/><path fill="#000" d="M26.422 76.052c-1.206 0-2.172-2.655-2.172-5.793 0-3.138 1.026-5.793 2.172-5.793 1.207 0 2.173 2.655 2.173 5.793.06 3.198-.966 5.793-2.173 5.793z"/><path fill="#FFF" d="M54.12 76.534c-3.439 0-6.275-2.836-6.275-6.275 0-3.44 2.836-6.276 6.276-6.276s6.276 2.836 6.276 6.276a6.27 6.27 0 01-6.276 6.275z"/><path fill="#000" d="M54.12 76.052c-1.206 0-2.172-2.655-2.172-5.793 0-3.138 1.026-5.793 2.173-5.793 1.207 0 2.172 2.655 2.172 5.793 0 3.198-1.026 5.793-2.172 5.793z"/><path fill="#FF0036" d="M5.483 34.836h6.336V47.81h2.353V34.836h6.276v-2.353H5.483zm62.758 8.569V32.543h-2.353v10.923c0 2.413 1.991 4.405 4.405 4.405h4.285v-2.354h-4.285c-1.146 0-2.052-.965-2.052-2.112zm-8.629 0V32.543H57.26v10.923c0 2.413 1.991 4.405 4.405 4.405h2.414v-2.354h-2.414c-1.147 0-2.052-.965-2.052-2.112zM36.44 32.664c-.604-.302-1.388-.242-1.931.241l-2.233 1.81c-1.448 1.147-3.5 1.147-4.888 0l-2.233-1.81a1.858 1.858 0 00-1.93-.241 1.817 1.817 0 00-1.027 1.63V47.87h2.354V35.379l1.388 1.087c1.086.905 2.474 1.387 3.922 1.387s2.836-.482 3.922-1.387l1.388-1.087V47.81h2.354V34.293c-.06-.724-.423-1.327-1.086-1.63zm10.862-.181c-1.086 0-1.992.603-2.474 1.63L38.853 47.87h2.535l2.233-5.07h7.301l2.233 5.07h2.535l-5.974-13.759c-.423-1.026-1.328-1.63-2.414-1.63zm-2.655 7.905L47 35.018c.06-.182.181-.182.302-.182.12 0 .241.06.301.181l2.354 5.37h-5.31z"/></g></g></svg>