<svg xmlns="http://www.w3.org/2000/svg" width="40" height="40" fill="none"><path fill="#E3E5F2" d="M20 40c11.046 0 20-8.954 20-20S31.046 0 20 0 0 8.954 0 20s8.954 20 20 20z"/><path fill="#FC0" d="M24.823 25.441h-3.705v-1.853h-1.853v6.177h-3.706v-6.177h-1.853v6.177H10V10h19.765v13.588h-4.942v1.853z"/><path fill="#F0B200" d="M26.059 23.588h3.706L31 29.148h-3.706l-1.235-5.56z"/><path fill="url(#yandex-direct__paint0_linear)" fill-opacity=".4" d="M10 23.588h19.765V10H10v13.588z"/><path fill="#000" d="M21.118 19.11v.772h-7.412v-.772h7.412zm4.941-2.47v.772H13.706v-.772H26.06zm0-2.471v.772H13.706v-.772H26.06z"/><defs><linearGradient id="yandex-direct__paint0_linear" x1="28.939" x2="9.743" y1="14.776" y2="22.279" gradientUnits="userSpaceOnUse"><stop stop-color="#fff"/><stop offset="1" stop-color="#fff" stop-opacity="0"/></linearGradient></defs></svg>