<svg xmlns="http://www.w3.org/2000/svg" width="80" height="80"><g fill="none" fill-rule="evenodd"><path fill="#261E25" d="M40 0c22.091 0 40 17.909 40 39.993v.014C80 62.095 62.096 80 40 80 17.909 80 0 62.096 0 40 0 17.909 17.904 0 40 0z"/><path fill="#FEBD1E" fill-rule="nonzero" d="M54.73 47.102a15.83 15.83 0 00-.299-3.054c-.943-.274-1.858-.554-2.345-.82-.121-1.056.192-2.149.927-3.275-2.606-5.112-7.916-8.614-14.047-8.614-2.746 0-5.327.703-7.575 1.937.297.018.676-.055 1.275-.297-.356.322-1.074 1.395-1.458 1.712-.372-.102-.704-.337-.996-.699a15.912 15.912 0 00-1.98 1.575v-5.521c0-5.918 4.816-10.733 10.734-10.733s10.733 4.815 10.733 10.733v1.941l.08.071c1.183.214 2.762 1.187 2.627 2.326l.606.536V32.9a.825.825 0 01-.367.078c.047-.1.285-.944.367-1.217v-1.716C53.012 22.289 46.723 16 38.966 16c-.714 0-1.416.054-2.102.157-.089.424-.522.668-.522.668l-.495-.473c-.361.082-.718.174-1.069.283.227.101.389.18.389.18l-1.02.1-.092-.03c-.556.207-1.095.45-1.615.723.081.268.153.468.153.468s1.861 1.669.118 1.253a5.05 5.05 0 01-1.764-.813c-.164.115-.326.232-.485.353.166.403.307.737.271.67a7.962 7.962 0 01-.78-.264 14.014 14.014 0 00-5.033 10.77v9.912a15.68 15.68 0 00-1.718 7.145c0 1.047.105 2.07.3 3.06.827 0 1.752.2 2.327-.32.65 1.07-1.19 1.417-.936 1.776.392.555 1.255.167 1.245.152.39.56 2.936-.291-.013.623.29.293.503.548.628.962l-.904.28c.105 1.18.818 2.125 1.745 2.434-.46-.172-.868.064-1.28.436 2.873 3.86 7.47 6.36 12.652 6.36l.061-.001.127-.02v.016c.35-.005.7-.02 1.045-.046.44-.3.87-.547 1.543-.79-.003.22.11.393.261.544a15.677 15.677 0 004.923-1.86c-.16-.4-.304-.732-.432-.917l.282-.16c.145.293.496.42.93.448l.894-.504a15.848 15.848 0 001.867-1.703c.03-.232.055-.475.077-.732.078-.898-.247-1.524-.163-2.292l.52 2.54a15.697 15.697 0 003.486-7.015c-.353-1.185-.027-2.05.334-2.958.003-.104.009-.208.009-.313zm-10.049-6.76c.374.098.673.448.897 1.046-.797-.124-.707-.54-1.644-.15.183-.17.55-.73.747-.897zm2.878 2.811c-1.576-.194-2.744.134-3.416-1.024 2.234-.718 2.393.421 3.416 1.024zm-12.032-8.416c-1.89.585-2.013-.377-2.87-.894 1.327.177 2.314-.088 2.87.894zm-8.21 20.345l-.855-.856c.482-.14.868-.205 1.37 0l-.514.856zm14.16-.803c-.194-.492.18-.784-.505-1.515.741.128.636.472 1.01.842l-.505.673zm4.479-2.446h-3.174c-.238.269-.65.564-.95.743-.108-.273-.311-.603-.303-.485l-.238.268-.303-.525h-1.29c-.198.373-.177 1.159-.779 1.238-.114.015-.56-.543-.704-.625-.251-.143-.443-.396-.645-.613h-5.149l-2.815-8.408 2.892 2.305c-.132-.52.098-1.171.933-1.171-.057.123-.33 1.084-.465 1.544l2.834 2.258 3.378-7.273 3.389 7.29 6.457-4.953-3.068 8.407zm5.56-2.465c-.892-1.2-.98-2.09.536-2.427.242.816.034 1.668-.535 2.427z"/></g></svg>