<svg xmlns="http://www.w3.org/2000/svg" viewBox="0 0 80 80"><circle cx="40" cy="40" r="40" fill="#01d7d0"/><path fill="#fff" d="M60.9 39.4c.1-1.1.6-2.1 1.3-2.8.8-.8 1.8-1.2 3-1.2h.1c1.3 0 2.4.4 3.1 1.2.7.8 1 1.7 1 2.8h-8.5zm-7.5 0h-4.3c.1-1.1.5-2.1 1.3-2.8.8-.8 1.8-1.2 2.9-1.2h.2c1.3 0 2.4.4 3.1 1.2.7.8 1 1.7 1 2.8h-4.2zm-26.1 0H23c.1-1.1.5-2.1 1.3-2.8.8-.8 1.8-1.2 2.9-1.2h.1c1.3 0 2.3.4 3.1 1.2.7.8 1.1 1.7 1.1 2.8h-4.2zm-8.9 6.1c-.6.7-1.5 1.1-2.7 1.3-.4.1-.9.1-1.3.1s-.9-.2-1.6-.5c-.7-.4-1-.6-1-.8v-9c.2-.2.6-.5 1.2-.8.6-.3 1.1-.4 1.4-.4.5 0 .9 0 1.3.1 1 .2 1.8.7 2.5 1.3.9 1 1.4 2.4 1.4 4.1 0 2.2-.4 3.7-1.2 4.6zM72 41.4c.2-.5.2-1.1.2-1.7 0-2-.6-3.6-1.8-4.8-1.3-1.2-3-1.9-5.2-1.9-1.9 0-3.6.7-4.9 2.1-.3.3-.5.5-.7.8-.2-.4-.5-.7-.9-1-1.3-1.2-3-1.9-5.2-1.9-1.6 0-3 .5-4.2 1.5l.5-1.2c-.9-.2-1.6-.3-2.1-.3-2 0-3.5.9-4.5 2.8v-2.5h-5.5c0-.3-.1-.5-.1-.8 0-1 .3-1.8.8-2.4.6-.6 1.2-1 2.1-1 .5 0 1 .1 1.6.3l.8-2c-1-.3-1.9-.4-2.7-.4-1.6 0-2.9.6-3.9 1.7s-1.5 2.7-1.5 4.7h-2.3V35s0-.1-.1-.1c-1.3-1.2-3-1.9-5.2-1.9-1.9 0-3.5.7-4.9 2.1l-.1.1s0 .1-.1.1l-.1.1-.1.1s0 .1-.1.1c0 0-.1.1-.1.2v.2l-.1.1v.1l-.1.1v.3c-.2-.4-.5-.8-.8-1.1-1.3-1.4-2.9-2.1-4.8-2.2h-.3c-.7 0-1.4.2-2.1.4-.7.3-1.2.6-1.5 1V27H9v22.2h1.4l1-1.4c.4.4.9.7 1.6 1 .7.3 1.4.4 2.2.4h.6c2-.1 3.6-.9 4.8-2.2.3-.3.6-.7.8-1 .1.1.2.2.2.3l.1.1.1.1v.5c1.4 1.3 3 2 5 2 1.3 0 2.6-.2 3.7-.6.9-.3 1.5-.7 2-1.1l-1.2-2c-1.1.9-2.4 1.4-4 1.4h-.5c-1.2-.1-2.1-.5-2.9-1.3-1-1-1.5-2.4-1.5-4.2h11.2c.1-.5.2-1.1.2-1.7 0-1.6-.4-2.9-1.2-4h1.7v13.2h2.8v-13h2.7v13.2h2.7V40c0-1.3.4-2.4 1.1-3.3.7-.9 1.6-1.4 2.6-1.4.4 0 .8.1 1.3.3-1.2 1.5-1.8 3.4-1.8 5.6 0 2.5.8 4.4 2.3 5.9 1.4 1.3 3 2 5 2 1.4 0 2.6-.2 3.7-.6.9-.3 1.5-.7 2-1.1l-1.2-2c-1.1.9-2.4 1.4-3.9 1.4h-.5c-1.1-.1-2.1-.5-2.9-1.3-1-1-1.5-2.4-1.5-4.2h8.8c0 2.4.8 4.4 2.3 5.8 1.4 1.3 3 2 5 2 1.3 0 2.6-.2 3.7-.6.9-.3 1.5-.7 2-1.1l-1.2-2c-1.1.9-2.4 1.4-3.9 1.4h-.5c-1.2-.1-2.1-.5-2.9-1.3-1-1-1.5-2.4-1.5-4.2l11.5.1z"/></svg>