<svg xmlns="http://www.w3.org/2000/svg" width="40" height="40" fill="none"><circle cx="20" cy="20" r="20" fill="#DB2B36"/><path fill="#fff" fill-rule="evenodd" d="M26.963 17.423l2.753-4.434c.06-.153.091-.52.06-.703-.03-.795-.672-1.315-1.406-1.285-.52.03-.979.306-1.193.765L24.18 16.72c-.214.428-.366.948-.366 1.284a3 3 0 00.152.887l3.272 7.676h-12.63c-.489 0-.856-.459-.856-.887V12.408c-.03-1.865-2.721-1.835-2.752 0l.03 14.19a2.734 2.734 0 002.753 2.721H31l-4.159-10.642c-.122-.367-.184-.764.122-1.254zm-6.758-4.984v9.51c0 1.346-1.866 1.254-1.896 0v-9.51c0-1.866-2.722-1.866-2.722 0v9.602c0 2.14 1.651 3.64 3.67 3.64 2.018 0 3.67-1.438 3.67-3.64v-9.602c-.031-1.866-2.722-1.866-2.722 0z" clip-rule="evenodd"/></svg>