<svg xmlns="http://www.w3.org/2000/svg" width="80" height="80"><g fill="none" fill-rule="evenodd"><path fill="#282828" d="M40 0c22.091 0 40 17.909 40 39.993v.014C80 62.095 62.096 80 40 80 17.909 80 0 62.096 0 40 0 17.909 17.904 0 40 0z"/><path fill="#FFF" fill-rule="nonzero" d="M24.377 34.204l-2.997.397v14.342h2.997V34.204zm3.388 5.42l-2.835.231v3.371l2.835-.165v-3.437zm-7.427-4.859l-7.753 1.092v2.94l7.753-.892v-3.14zm14.105 14.178h4.917v-3.735l-4.917.132v3.603zm-.653-16.094l-3.387.496v15.598h3.387V32.849zm-8.86 16.094h4.333v-3.437l-4.333.132v3.305zm0-11.533l4.333-.496V33.51l-4.333.595v3.305zm-7.035 11.533V38.665l-2.834.298v9.98h2.834zm47.46 0l.032-4.56-13.355.429v4.13h13.322zm-9.023-11.93c-.196-2.643.618-3.304 1.433-3.635V28.95c-3.876.826-5.765 3.734-5.57 8.426l4.137-.363zm3.941-2.94c.456.957 0 2.378-1.14 3.734-1.693 2.048-6.287 6.278-6.287 6.278l6.58-.232c4.007-3.965 5.44-6.377 5.7-9.417.163-1.587-.423-3.107-1.563-4.198-1.238-1.19-3.062-1.685-5.017-1.387v4.329c.783-.034 1.434.264 1.727.892zm-9.511-3.636l-5.7.793v3.932l5.7-.627v-4.098zm-6.45.892l-3.909.562v17.052h3.91V31.329zm4.495 6.444l-3.745.33v4l3.745-.2v-4.13zm1.955 7.072l-5.7.165v3.933h5.7v-4.098z"/></g></svg>