<svg xmlns="http://www.w3.org/2000/svg" xmlns:xlink="http://www.w3.org/1999/xlink" width="60" height="60"><defs><path id="csat__a" d="M29.703 59.405c16.404 0 29.702-13.298 29.702-29.702C59.405 13.298 46.107 0 29.703 0 13.298 0 0 13.298 0 29.703c0 16.404 13.298 29.702 29.703 29.702z"/></defs><g fill="none" fill-rule="evenodd"><mask id="csat__b" fill="#fff"><use xlink:href="#csat__a"/></mask><use fill="#FCD300" xlink:href="#csat__a"/><g mask="url(#csat__b)"><path fill="#FFF" d="M5.984 37.362c-.331.095-.264-.16-.264-.317-.004-2.158.005-4.317-.003-6.476-.001-.29.159-.456.34-.634l11.74-11.608c.18-.177.347-.329.642-.327 2.253.013 4.505.006 6.758.01.06 0 .119.034.365.11L13.028 30.404l-7.044 6.958m42.092-18.977c.194-.191.363-.387.69-.385 2.293.01 4.588.006 7.103.006l-12.482 12.37-7.085 6.995c-.43.032-.238-.297-.24-.458-.015-1.886-.01-3.77-.017-5.657 0-.317-.025-.633-.04-.95 4.02-3.96 8.046-7.94 12.071-11.921zM20.798 37.403c-.35-.034-.19-.309-.191-.462-.012-2.09-.002-4.18-.009-6.27 0-.265.055-.465.256-.663A7684.06 7684.06 0 0032.74 18.25c.153-.151.31-.252.538-.251 2.314.005 4.628.003 6.942.003l.147.193c-.73.67-1.48 1.32-2.185 2.015-3.32 3.268-6.629 6.548-9.94 9.826-.129.128-.242.272-.36.407l-7.084 6.959"/><path fill="#005CA9" d="M21.397 36.944l7.085-6.959c.251-.138.53-.12.805-.12l6.678.002.006-.02c-1.372 1.13-2.557 2.452-3.827 3.687a522.95 522.95 0 00-5.74 5.688c-.3.302-.6.41-1.025.406-2.157-.022-4.314-.01-6.522-.01.81-.963 1.815-1.69 2.54-2.674m-14.794-.043l7.044-6.958c.725-.17 1.462-.063 2.192-.071 1.673-.019 3.346-.006 5.263-.006-1.095 1.044-2.07 1.951-3.02 2.883a1758.207 1758.207 0 00-6.567 6.492c-.235.234-.461.392-.828.39-2.202-.018-4.405-.01-6.687-.01.84-.993 1.842-1.746 2.603-2.72m29.695-.01l7.085-6.995c2.247-.016 4.495-.032 6.743-.05h.534c-.721.722-1.38 1.39-2.048 2.05-2.482 2.454-4.968 4.903-7.446 7.36-.2.198-.377.337-.692.335-2.221-.016-4.443-.009-6.76-.009l2.584-2.69"/></g></g></svg>