<svg xmlns="http://www.w3.org/2000/svg" xmlns:xlink="http://www.w3.org/1999/xlink" width="80" height="80"><defs><circle id="granden__a" cx="40" cy="40" r="40"/></defs><g fill="none" fill-rule="evenodd"><use fill="#000" xlink:href="#granden__a"/><g fill="#FFF"><path d="M12.031 34.696c-.675.1-1.143.25-1.688.546-.774.42-1.33.945-1.75 1.652-.125.208-.354.784-.422 1.06-.426 1.657-.036 3.387 1.024 4.54.254.28.795.706 1.122.888.286.161 1.008.42 1.428.52.4.088 1.715.088 2.13 0 .94-.203 1.808-.65 2.457-1.278l.323-.312v-1.699c0-.935-.016-1.735-.032-1.782-.026-.072-.26-.083-2.093-.083-1.133 0-2.088.021-2.125.042-.047.036-.062.239-.052.847l.016.8 1.169.026c.644.015 1.174.036 1.184.041.005.005.005.26 0 .566l-.016.551-.28.192c-.447.307-.956.442-1.668.442-.493 0-.649-.02-.909-.12-.368-.14-.815-.426-1.054-.68-.177-.187-.478-.608-.478-.67a.604.604 0 00-.073-.172c-.192-.374-.26-.701-.265-1.293 0-.935.224-1.533.8-2.135.598-.618 1.304-.873 2.255-.81.317.02.524.062.665.134.114.063.228.11.254.11.135 0 .935.675.935.79 0 .119.187.035 1.351-.593.13-.073.239-.166.25-.208.015-.078-.364-.571-.619-.805a4.15 4.15 0 00-1.787-1.003c-.462-.124-1.548-.182-2.052-.104z"/><path fill-rule="nonzero" d="M18.26 34.831c-.026.037-.042 1.855-.037 4.52l.016 4.462h1.87l.026-1.584.026-1.585.67-.015c.696-.016.774.005.868.223.026.057.067.14.098.182.026.042.182.312.338.597.161.286.312.556.338.598.093.15.488.862.639 1.143.26.498.176.467 1.34.467.608 0 1.039-.02 1.06-.052.026-.041-.203-.446-.94-1.678-.084-.14-.172-.29-.203-.337-.068-.12-.343-.577-.426-.712-.037-.057-.078-.14-.099-.182a1.692 1.692 0 00-.135-.202c-.12-.156-.12-.312 0-.348.312-.094.888-.447 1.107-.681.415-.436.727-1.293.722-2-.006-.374-.156-.987-.343-1.366-.182-.369-.727-.95-1.06-1.117a3.426 3.426 0 00-1.05-.338c-.503-.062-4.773-.057-4.825.005zm4.53 1.756c.358.161.602.416.7.733.094.317.094.478-.004.758-.11.302-.395.587-.722.722-.245.099-.354.104-1.434.094l-1.169-.016-.016-1.143c-.005-.628 0-1.168.01-1.205.022-.052.297-.067 1.19-.067 1.117 0 1.18.005 1.445.124zm6.587-1.776c-.052.02-.1.067-.1.098 0 .032-.077.26-.176.51-.098.244-.306.784-.467 1.2-.161.415-.317.8-.338.857a8.609 8.609 0 00-.15.39c-.058.155-.24.623-.4 1.038-.162.416-.323.837-.364.935-.14.374-.291.759-.338.857-.125.28-.415 1.07-.415 1.128a.362.362 0 01-.078.166.392.392 0 00-.078.177.756.756 0 01-.073.233c-.182.405-.29.676-.29.733a2.201 2.201 0 01-.126.317c-.088.181-.109.28-.072.322.041.052.317.067 1.06.067h1.007l.104-.166c.057-.093.114-.234.135-.317.016-.078.063-.208.104-.286a.799.799 0 00.078-.218c0-.041.052-.182.114-.311l.115-.234 1.896-.01c1.044-.011 1.922.005 1.953.025.052.037.332.754.441 1.154.1.348.151.363 1.247.363s1.117-.005.961-.332a.95.95 0 01-.083-.218c0-.021-.067-.213-.156-.432-.083-.218-.26-.675-.394-1.018-.13-.343-.343-.893-.468-1.22-.13-.328-.265-.681-.307-.78-.036-.098-.15-.395-.249-.65a116.82 116.82 0 01-.67-1.74 8.609 8.609 0 00-.15-.389c-.11-.27-.328-.836-.489-1.273-.25-.665-.317-.815-.39-.898-.077-.084-.197-.094-1.19-.104-.607-.005-1.147.005-1.204.026zm1.298 2.181c.068.224.203.613.26.743.026.057.135.348.239.65.11.301.275.748.369.997.099.255.176.478.176.504 0 .026.047.156.104.286.172.405.213.395-1.252.395-1.433 0-1.418.005-1.303-.328.103-.317.181-.53.244-.685.03-.089.088-.24.124-.338.037-.099.146-.405.25-.675.098-.27.197-.556.223-.634.042-.135.26-.712.364-.966.067-.161.14-.14.202.051z"/><path d="M36.13 34.863c-.078.14-.062 8.836.015 8.914.078.078 1.787.088 1.834.01.016-.026.026-1.309.026-2.846 0-2.338.01-2.81.073-2.863.057-.047.078-.041.104.021.015.042.29.436.613.873.327.43.623.841.665.898.041.063.353.484.696.935.338.458.831 1.112 1.09 1.465.26.354.619.837.796 1.07.176.24.358.447.405.468.109.042 1.6.042 1.709 0 .073-.031.083-.473.083-4.493 0-4.193-.005-4.463-.088-4.504-.052-.026-.463-.042-.915-.042-.67.005-.826.02-.867.083-.031.047-.052 1.122-.052 2.728.005 2.212-.005 2.649-.068 2.664-.057.01-1.828-2.264-2.27-2.914-.041-.062-.358-.488-.696-.945-.343-.457-.69-.935-.78-1.055a5.865 5.865 0 00-.29-.38l-.13-.155-.95-.01c-.852-.01-.962 0-1.003.078z"/><path fill-rule="nonzero" d="M46.13 34.805c-.042.073-.02 8.951.02 8.993.032.03.967.041 2.172.026 1.901-.016 2.172-.032 2.592-.125 2.187-.494 3.444-1.958 3.59-4.171.036-.504-.073-1.268-.244-1.782-.416-1.2-1.33-2.161-2.468-2.587a5.497 5.497 0 00-1.366-.333c-.483-.046-4.27-.062-4.296-.02zm4.29 1.746c.905.177 1.648.805 1.918 1.616.26.768.27 1.392.036 2.098-.301.915-.992 1.538-1.98 1.787-.259.063-2.28.063-2.321 0-.052-.072-.052-5.506-.005-5.553.072-.078 1.906-.036 2.353.052z"/><path d="M55.974 34.805c-.026.016-.042 1.86-.036 4.52l.015 4.488 3.112.016c2.254.005 3.132-.005 3.18-.047.087-.073.103-1.58.02-1.631-.026-.016-1.008-.031-2.182-.036-1.626-.006-2.14-.021-2.182-.068-.036-.042-.046-.41-.041-.992l.015-.93 2.156-.026 2.156-.026.016-.842.01-.846-2.166-.01-2.172-.016v-1.87l2.151-.016c1.486-.005 2.171-.031 2.223-.068.052-.046.068-.238.068-.768 0-.39-.02-.738-.047-.774-.031-.058-.644-.073-3.143-.078-1.709-.005-3.127.005-3.153.02zm7.87.021c-.01.026-.015 2.063-.01 4.52l.015 4.467.878.016c.603.01.899-.005.946-.047.062-.047.072-.545.072-2.883 0-1.62.021-2.831.047-2.847.026-.015.13.094.229.244.098.146.322.458.493.686.172.229.374.499.452.598l.665.893.842 1.143c.171.234.462.628.65.878.186.25.373.504.415.566.244.348.483.66.56.712.105.083 1.632.093 1.777.015.099-.052.099-.192.099-4.462.005-3.818-.005-4.416-.073-4.473-.083-.067-1.683-.093-1.787-.026-.041.021-.057.857-.057 2.733 0 2.644 0 2.696-.104 2.696-.052 0-.13-.052-.16-.114a4.07 4.07 0 00-.302-.416c-.13-.161-.369-.473-.525-.69a9.074 9.074 0 00-.337-.458c-.026-.036-.135-.177-.234-.312s-.416-.556-.701-.935a70.59 70.59 0 01-.665-.899 3.697 3.697 0 00-.234-.311 3.968 3.968 0 01-.276-.359c-.446-.649-.649-.909-.748-.94-.176-.062-1.906-.057-1.927.005zm-39.553 12.93c-.629.135-.966.431-1.086.93-.099.41-.02.66.301.977.24.233.468.337 1.019.488.727.192.987.301 1.153.478.301.317.29.571-.026.888-.457.457-1.413.385-2.104-.156-.218-.171-.286-.156-.431.12-.068.14-.062.15.099.301.088.088.192.161.223.161.026 0 .078.026.11.057.259.26 1.506.37 2.015.177.374-.135.722-.488.83-.836.136-.426.037-.795-.306-1.154-.15-.16-.535-.374-.675-.374a.635.635 0 01-.187-.067 1.346 1.346 0 00-.327-.104c-.343-.052-.826-.26-1.003-.426-.275-.26-.218-.587.146-.857.145-.11.239-.135.618-.146.369-.015.488 0 .685.089.13.062.26.109.281.109.026 0 .104.057.182.13.187.171.25.166.4-.052.098-.151.109-.198.057-.26-.125-.15-.603-.38-.971-.462-.432-.1-.608-.1-1.003-.01zm25.61-.02c-.535.103-.883.295-1.246.675a2.14 2.14 0 00-.624 1.553c0 1.241.759 2.13 1.969 2.296a2.173 2.173 0 001.797-.55l.26-.234-.156-.125c-.202-.166-.343-.166-.498 0-.328.348-.915.54-1.356.436-.426-.098-.629-.197-.878-.43-.286-.271-.369-.4-.488-.765a1.847 1.847 0 01.42-1.87c.348-.374.577-.472 1.117-.504.4-.026.473-.015.727.11.156.072.354.202.437.29.171.177.228.187.441.078.198-.104.198-.202-.01-.394-.499-.468-1.262-.691-1.912-.567zm-21.169.166c-.015.093-.02 1.106-.015 2.249l.015 2.078h2.961l.016-.177c.01-.093-.005-.197-.031-.223-.031-.031-.478-.052-1.122-.047-.686.005-1.107-.01-1.174-.047-.099-.052-.104-.104-.104-.748 0-.514.016-.706.067-.753.047-.036.468-.062 1.185-.067l1.112-.016v-.416l-1.143-.015c-.831-.01-1.148-.031-1.18-.078-.036-.052-.062-1.372-.025-1.398.005-.005.55-.026 1.205-.041l1.195-.026v-.416l-1.465-.015-1.465-.01-.032.166z"/><path fill-rule="nonzero" d="M34.047 47.767c-.026.02-.042 1.038-.042 2.264v2.224h.255c.202 0 .265-.02.285-.094.016-.046.026-.43.021-.857 0-.42.005-.774.016-.784.031-.031.296-.047.623-.042l.286.01.26.4c.14.219.353.551.478.733.12.182.218.348.218.369 0 .02.052.088.12.15.088.084.186.115.363.115.13 0 .25-.02.265-.047.015-.026-.146-.306-.359-.628-.213-.317-.39-.588-.39-.598 0-.015-.072-.13-.165-.254-.136-.198-.151-.25-.094-.317a.265.265 0 01.177-.078c.171 0 .535-.291.685-.55.26-.442.203-1.2-.114-1.575a1.637 1.637 0 00-.426-.301c-.29-.14-.317-.146-1.36-.161-.588-.01-1.081 0-1.102.02zm2.176.57c.312.198.406.37.406.754 0 .421-.1.582-.447.764-.208.109-.286.114-.925.104l-.696-.016v-.815c.005-.447.02-.842.042-.873.026-.042.249-.057.748-.042.602.016.732.037.872.125z"/><path d="M38.836 47.818c0 .078.182.572.343.94.182.427.229.536.4.977.099.255.28.712.4 1.013.125.302.296.743.39.982.093.24.208.457.254.483.047.026.213.042.374.031l.297-.015.124-.312c.073-.171.166-.405.213-.52.166-.42.275-.68.348-.815a.58.58 0 00.078-.197.75.75 0 01.073-.224c.104-.254.27-.66.369-.92.046-.129.13-.326.182-.44.181-.406.363-.905.363-.983 0-.124-.56-.119-.608.006-.015.052-.109.28-.202.509-.094.228-.229.571-.302.763-.664 1.735-.935 2.395-1.002 2.416-.031.01-.073-.031-.094-.099-.036-.14-.109-.332-.327-.872-.088-.213-.208-.53-.27-.702a20.854 20.854 0 00-.213-.524 1.175 1.175 0 01-.099-.265c0-.042-.104-.302-.452-1.122-.083-.187-.088-.193-.363-.193-.218 0-.276.016-.276.083zm6.426-.046c-.02.015-.036 1.033-.036 2.26v2.228l.275-.016.27-.015.016-2.078c.005-1.143 0-2.156-.016-2.25-.03-.155-.041-.166-.254-.166-.12 0-.24.016-.255.037zm8.925.03c-.016.032-.02 1.045-.016 2.245l.016 2.182 1.45.015c1.1.01 1.46-.005 1.49-.052.037-.051.01-.342-.036-.4-.01-.01-.504-.01-1.096-.01-.598.005-1.127-.005-1.174-.026-.078-.026-.089-.125-.089-.774 0-.628.01-.748.084-.774.046-.016.555-.031 1.137-.031 1.17 0 1.237-.02 1.138-.301l-.047-.14-1.143-.027-1.143-.026-.026-.67c-.02-.52-.01-.69.042-.743.052-.052.338-.067 1.205-.067.691 0 1.148-.02 1.17-.052.015-.026.015-.13-.006-.234l-.031-.182h-1.45c-1.117 0-1.46.016-1.475.068z"/></g></g></svg>