<svg xmlns="http://www.w3.org/2000/svg" width="41" height="40" fill="none"><path fill="#FF5D6A" fill-rule="evenodd" d="M20.5 40c11.046 0 20-8.954 20-20s-8.954-20-20-20S.5 8.954.5 20s8.954 20 20 20z" clip-rule="evenodd"/><path fill="#fff" fill-rule="evenodd" d="M22.016 19.149a.591.591 0 01.425-.149c.179 0 .322.05.43.149a.52.52 0 01.16.401c0 .175-.053.31-.16.406a.619.619 0 01-.43.145.614.614 0 01-.425-.14c-.104-.093-.156-.23-.156-.41 0-.17.052-.303.156-.402zm7.055 1.409a.496.496 0 01-.29.474c-.193.099-.49.148-.893.148-.193 0-.88-.008-1.043-.022v-1.146c.261-.022.97-.033 1.106-.033.746 0 1.12.193 1.12.579zm-2.79-1.435c-.313.056-.469.219-.469.488v3.469c0 .127.043.23.13.31.086.08.252.121.414.121.156 0 .25-.04.34-.12a.399.399 0 00.133-.311v-1.1c.15.019.96.023 1.032.014l1.081 1.22c.237.282.56.384.854.24.358-.178.288-.498.124-.686l-.912-.917c.38-.09.642-.27.832-.5.19-.232.284-.514.284-.85 0-.98-.722-1.47-2.165-1.47-.507 0-1.35.03-1.679.092zm-16.95.07a.612.612 0 00-.129.402v1.461c0 1.076-.438 1.615-1.315 1.615-.876 0-1.314-.532-1.314-1.597v-1.48a.575.575 0 00-.143-.4.515.515 0 00-.402-.159.49.49 0 00-.39.158.586.586 0 00-.138.402v1.434c0 .782.186 1.412.559 1.89.372.478.979.717 1.82.717.435 0 .81-.07 1.126-.207a1.69 1.69 0 00.734-.582 2.56 2.56 0 00.375-.826c.077-.3.116-.637.116-1.01v-1.416a.598.598 0 00-.134-.402c-.09-.105-.217-.158-.384-.158s-.294.053-.38.158zm25.14.402c0-.163.044-.297.13-.402.087-.105.214-.158.38-.158.167 0 .295.053.385.158.09.105.134.24.134.402v1.416c0 .373-.039.71-.116 1.01-.078.3-.203.576-.376.826a1.69 1.69 0 01-.733.581c-.316.139-.691.208-1.127.208-.84 0-1.447-.24-1.82-.717-.372-.478-.558-1.108-.558-1.89v-1.434c0-.163.046-.297.138-.402a.49.49 0 01.39-.158c.172 0 .306.053.402.158a.575.575 0 01.143.402v1.48c0 1.064.438 1.596 1.314 1.596.877 0 1.315-.538 1.315-1.615v-1.461zM11.447 23.04c.449.396 1.07.595 1.864.595.714 0 1.284-.138 1.71-.415.316-.21.39-.43.22-.659-.146-.198-.396-.228-.75-.09-.411.169-.87.253-1.165.253-.411 0-.744-.12-.998-.361-.254-.24-.38-.571-.38-.992 0-.445.12-.794.364-1.047.242-.252.577-.379 1.003-.379.25 0 .67.074 1.044.164.36.09.603-.001.728-.218.133-.24.04-.442-.276-.604-.323-.169-.797-.253-1.423-.253-.808 0-1.446.21-1.913.627-.467.418-.7.988-.7 1.71 0 .715.224 1.272.672 1.669zm9.105-4.006a.48.48 0 01.375.15c.09.098.135.223.135.374v3.463c0 .15-.045.276-.135.375a.48.48 0 01-.375.149c-.161 0-.285-.05-.371-.15a.55.55 0 01-.13-.373V21.8h-3.024v1.223c0 .15-.045.275-.134.374a.48.48 0 01-.376.149c-.161 0-.285-.05-.371-.15a.55.55 0 01-.13-.373v-3.464a.55.55 0 01.13-.375c.086-.1.21-.149.37-.149a.48.48 0 01.377.15c.089.098.134.223.134.374v1.222h3.024v-1.222a.55.55 0 01.13-.375c.086-.1.21-.149.37-.149zm1.39 2.112a.55.55 0 01.129-.374c.086-.1.21-.15.371-.15a.48.48 0 01.376.15c.089.099.134.224.134.374v1.876c0 .15-.045.275-.134.374a.48.48 0 01-.376.149c-.161 0-.285-.05-.371-.15a.55.55 0 01-.13-.373v-1.876zm2.431 1.145a.576.576 0 00-.451.185.647.647 0 00-.166.446c0 .18.054.33.161.447.108.117.26.176.456.176.197 0 .35-.059.46-.176a.626.626 0 00.166-.447.637.637 0 00-.17-.446.59.59 0 00-.456-.185z" clip-rule="evenodd"/></svg>