<svg xmlns="http://www.w3.org/2000/svg" width="40" height="40" fill="none"><circle cx="20" cy="20" r="20" fill="#254581"/><path fill="#fff" fill-rule="evenodd" d="M29 21.068c0 3.266-.747 5.699-2.238 7.284-1.492 1.586-3.796 2.378-6.903 2.378-2.903 0-5.105-.792-6.607-2.378C11.751 26.767 11 24.376 11 21.18V10.456a.456.456 0 01.456-.456h5.263a.457.457 0 01.456.456v10.958c0 1.305.241 2.31.733 3.018a2.66 2.66 0 004.199.064c.48-.665.72-1.645.718-2.94v-2.052H29v1.564z" clip-rule="evenodd"/><path fill="#fff" fill-rule="evenodd" d="M28.523 18.305h-5.698v-7.828a.478.478 0 01.478-.477h.852A4.841 4.841 0 0029 14.838v3.467h-.477z" clip-rule="evenodd"/><path fill="#F4821F" fill-rule="evenodd" d="M25.369 10h3.154a.478.478 0 01.477.477v3.157a3.631 3.631 0 01-3.631-3.63V10z" clip-rule="evenodd"/></svg>