<svg xmlns="http://www.w3.org/2000/svg" width="41" height="40" fill="none"><path fill="#ED1C24" fill-rule="evenodd" d="M20 40c11.046 0 20-8.954 20-20S31.046 0 20 0 0 8.954 0 20s8.954 20 20 20z" clip-rule="evenodd"/><path fill="#fff" fill-rule="evenodd" d="M8.924 24.39C6.572 24.39 5 22.723 5 20.701c0-2.02 1.575-3.707 3.92-3.701h22.16c2.345-.006 3.92 1.68 3.92 3.701 0 2.022-1.572 3.688-3.923 3.69H8.924zm.007-6.481c-1.863.003-3.005 1.248-3.005 2.788 0 1.54 1.137 2.794 3.005 2.787h22.138c1.87.006 3.005-1.248 3.005-2.787 0-1.54-1.143-2.785-3.005-2.788H8.93zm4.349 1.039h-1.049v.712h1.049v-.712zm-4.22.001H7.976v3.48h1.077v-2.426l1.508 2.426h1.074v-3.48H10.56v2.426l-1.5-2.426zm9.47.358h-1.048v.468l-.568.002v.343h.569l-.001 2.309h1.049l-.002-2.31h.567v-.344h-.567v-.468zm-6.297.808h1.047v2.314h-1.047v-2.314zm18.335-.157c-.844 0-1.529.58-1.529 1.298 0 .717.685 1.299 1.53 1.299.844 0 1.528-.582 1.528-1.3 0-.717-.684-1.297-1.529-1.297zm.42 1.295v.49c0 .369-.218.52-.428.52s-.43-.151-.43-.52l.001-.5v-.481c0-.368.22-.518.429-.518s.428.15.428.518v.491zm-3.315-.407v.824c0 .359-.247.45-.41.45-.166 0-.41-.091-.41-.45v-.824c0-.358.244-.448.41-.448.163 0 .41.09.41.448zm1.025-1.897h-1.032v1.282a1.388 1.388 0 00-.592-.208c-.755-.066-1.33.6-1.33 1.211 0 .806.62 1.104.715 1.148.353.163.805.163 1.205-.087v.133h1.034V18.95zM15.73 20.01c.392-.012 1.185.244 1.18 1.16-.002.163-.001 1.26-.001 1.26h-1.04v-1.52c0-.202-.192-.426-.478-.426-.285 0-.496.224-.496.426v1.52h-1.037l-.002-2.314 1.04-.001v.243c.2-.19.489-.34.834-.349zm9.682 1.16c.005-.916-.788-1.172-1.18-1.16-.345.009-.633.157-.833.348v-.243h-1.039v2.314h1.039l-.001-1.52c0-.201.21-.425.496-.425.285 0 .478.224.478.426v1.52h1.04v-1.26zm-4.471.45v.14c0 .423-.278.518-.432.518-.154 0-.438-.095-.438-.518l.001-.477s1.97.001 1.97-.001c0-.717-.692-1.311-1.543-1.311-.85 0-1.54.58-1.54 1.299 0 .718.69 1.298 1.54 1.298.706 0 1.303-.403 1.485-.95l-1.043.002zm-.869-.698c-.002-.203.002-.338.069-.454a.426.426 0 01.735 0c.067.116.07.251.069.454h-.873z" clip-rule="evenodd"/></svg>