<svg xmlns="http://www.w3.org/2000/svg" xmlns:xlink="http://www.w3.org/1999/xlink" width="80" height="80"><defs><circle id="rivegauche__a" cx="40" cy="40" r="40"/></defs><g fill="none" fill-rule="evenodd"><use fill="#000" xlink:href="#rivegauche__a"/><path fill="#FFFFFE" d="M54.81 34.261c1.454-.328 3.034-.077 4.3.715 1.38.828 2.354 2.277 2.647 3.856.24 1.351.016 2.795-.696 3.976-.831 1.448-2.333 2.478-3.974 2.76-1.741.313-3.623-.218-4.908-1.444-1.387-1.242-2.07-3.193-1.807-5.031.292-2.324 2.147-4.343 4.438-4.832zm.37 2.574c-1.566.43-2.613 2.188-2.198 3.77.319 1.544 1.922 2.67 3.485 2.445 1.716-.161 3.065-1.907 2.772-3.61-.21-1.861-2.274-3.205-4.058-2.605zM5.08 34.36c1.587.024 3.174-.008 4.76.015 1.92.08 3.661 1.553 4.073 3.427a4.466 4.466 0 01-.844 3.764 4.472 4.472 0 01-3.22 1.684c-.762.037-1.524.001-2.287.018-.012.591.119 1.295-.342 1.76-.551.585-1.417.327-2.125.382-.051-.84-.018-1.685-.027-2.527.009-2.84-.017-5.682.013-8.523zm2.481 6.407c.685.007 1.372.01 2.059.005.744.001 1.45-.48 1.75-1.157.516-1.045-.151-2.436-1.283-2.7-.829-.141-1.677-.015-2.514-.073-.024 1.308-.002 2.617-.012 3.925zm7.578-5.116c-.036-.618.468-1.215 1.089-1.266.462-.04.929-.01 1.394-.016.01 2.29.001 4.58.003 6.868 1.64-2.19 3.365-4.318 5.023-6.496.132-.126.219-.367.43-.366.746-.02 1.494.001 2.24-.005-.016 3.282.004 6.565-.01 9.845.009.609-.527 1.154-1.128 1.185-.454.023-.91.004-1.365.007.023-2.27.05-4.546-.013-6.816-1.741 2.288-3.535 4.535-5.287 6.815-.793.005-1.584.001-2.377.001.003-3.251.002-6.504 0-9.756m11.893-1.278c2.27-.011 4.537 0 6.805-.008a3.326 3.326 0 012.518 1.103c.864.91 1.113 2.323.663 3.486-.111.342-.379.612-.478.955.395.638.735 1.344.697 2.117.05 1.728-1.446 3.295-3.165 3.368-1.916.03-3.832.006-5.747.015-.655.036-1.274-.518-1.284-1.178-.012-3.285.004-6.573-.009-9.858zm2.493 2.48c.008.597.008 1.195.001 1.792 1.481-.001 2.963 0 4.444-.027.357-.011.634-.317.755-.633.155-.542-.305-1.165-.879-1.13-1.44-.005-2.88-.002-4.32-.002zm.001 4.279c.004.594.005 1.19.003 1.783 1.435.017 2.87.006 4.306-.004.4.027.764-.275.877-.647.187-.546-.299-1.183-.875-1.139-1.437-.014-2.874.019-4.31.007zm12.577-6.76c2.782-.005 5.563-.003 8.346 0-.098.7.213 1.57-.366 2.121-.269.297-.682.383-1.068.363-1.459-.016-2.917.018-4.375-.02-.084.624-.028 1.253-.044 1.88.011 1.756-.011 3.512.012 5.267.003.39-.076.816-.393 1.078-.565.546-1.41.293-2.112.343.01-3.676.011-7.355 0-11.031m20.857-.01c.835.013 1.67 0 2.504.01-.009 2.852-.022 5.705.006 8.558.746-.019 1.492 0 2.238-.016-.005-2.847.003-5.695-.005-8.541.836-.006 1.673-.016 2.51.006-.03 2.845-.003 5.69-.016 8.535.752.014 1.502.006 2.253.007.008-2.85.013-5.7-.002-8.55.51.012 1.027-.047 1.535.036.563.12.985.672.954 1.248l.001 9.755c-3.546-.006-7.093-.004-10.638-.002-.407.016-.82-.15-1.07-.476-.286-.328-.268-.791-.281-1.197.011-3.125-.007-6.249.011-9.373"/></g></svg>