<svg xmlns="http://www.w3.org/2000/svg" width="80" height="80" fill="none"><path fill="#006CB4" d="M40 80c22.087 0 40-17.913 40-40S62.087 0 40 0 0 17.913 0 40s17.913 40 40 40z"/><path fill="#fff" d="M39.999 20c3.14 0 6.114.731 8.763 2.03.416.197.831.415 1.247.654l-1.841 1.648-2.766-2.86-4.669 4.164-2.773-3.026-8.697 7.839 5.575 6.144-2.191 1.927 5.491 6.154-2.178 1.923 7.847 8.735 4.658-4.289 4.027 4.596a21.287 21.287 0 01-2.635 1.75 19.843 19.843 0 01-9.86 2.612c-11.015 0-19.999-8.985-19.999-19.999 0-11.016 8.984-20.001 19.999-20.001zm-3.856 18.811l4.756-4.282 4.282 4.756-4.756 4.282-4.282-4.756zm3.632 8.07l4.756-4.281 4.282 4.756-4.755 4.283-4.284-4.758zm-6.86-16.143l4.756-4.281 4.281 4.756-4.756 4.281-4.281-4.756zm8.475-2.281l3.566-3.211 3.212 3.566-3.568 3.212-3.211-3.568zm6.457 14.531l3.568-3.212 3.211 3.568-3.567 3.211-3.212-3.566zm3.228 7.264l3.566-3.212 3.212 3.566-3.568 3.212-3.211-3.566zm1.211-16.408l2.378-2.14 2.141 2.378-2.377 2.14-2.142-2.378zm-2.824-7.264l2.378-2.14 2.14 2.378-2.378 2.14-2.14-2.378zm6.053 14.125l2.378-2.14 2.14 2.378-2.378 2.141-2.14-2.378zM45.022 35.32l3.566-3.212 3.211 3.567-3.565 3.212-3.212-3.566z"/></svg>