<svg xmlns="http://www.w3.org/2000/svg" xmlns:xlink="http://www.w3.org/1999/xlink" width="60" height="60"><defs><path id="troika__a" d="M29.703 59.405c16.404 0 29.702-13.298 29.702-29.702C59.405 13.298 46.107 0 29.703 0 13.298 0 0 13.298 0 29.703c0 16.404 13.298 29.702 29.703 29.702z"/><path id="troika__c" d="M6.043 6.827V.006H.008v6.821h6.035z"/><path id="troika__e" d="M5.239 6.823H0V.01h5.239z"/><path id="troika__g" d="M1.522.03H.012v1.366h1.51V.03z"/></defs><g fill="none" fill-rule="evenodd"><mask id="troika__b" fill="#fff"><use xlink:href="#troika__a"/></mask><use fill="#2A678D" xlink:href="#troika__a"/><g mask="url(#troika__b)"><path fill="#FFF" d="M32.009 30.819c.051-.04.107-.076.154-.12.718-.679 1.437-1.356 2.146-2.042a.498.498 0 00.118-.289c.03-.263.011-.533.063-.791.062-.313.362-.481.726-.457.352.023.618.218.638.533.038.585.052 1.171.055 1.757.007 1.106 0 2.213-.003 3.319 0 .18-.007.362-.021.543-.028.362-.298.597-.682.6-.412.005-.718-.221-.735-.587-.028-.58-.026-1.16-.035-1.74-.004-.248 0-.496-.004-.744-.002-.081-.019-.162-.033-.282-.08.057-.131.088-.174.127-.702.66-1.402 1.32-2.105 1.979a.431.431 0 00-.154.353 1.36 1.36 0 01-.04.359c-.09.388-.367.568-.799.53-.365-.031-.607-.27-.613-.645a352.897 352.897 0 01-.031-3.356c-.004-.64.001-1.281.003-1.922 0-.06.004-.12.01-.181.038-.42.316-.66.754-.652.399.007.69.273.697.674.013.798.006 1.596.008 2.393v.613l.057.028m-5.709-.386c-.042-.371-.063-.844-.156-1.303-.095-.466-.509-.713-1.01-.674-.043.003-.088-.017-.132-.014-.135.01-.28 0-.404.042-.42.143-.604.477-.617.86-.026.796-.039 1.594.01 2.387.036.585.517.976 1.086.965.587-.011 1.054-.297 1.128-.937.048-.407.06-.818.095-1.326m1.48.266c-.063.461-.083 1.067-.241 1.638-.236.85-.886 1.35-1.786 1.527-.76.149-1.497.088-2.166-.33-.665-.415-1.013-1.01-1.072-1.751-.07-.862-.112-1.724-.007-2.588.107-.88.594-1.5 1.424-1.88.392-.18.82-.14 1.25-.117.558.03 1.09.056 1.558.39.5.36.806.824.887 1.404.073.52.097 1.045.154 1.707m11.799-.172c0-.913-.003-1.826.002-2.738.002-.229.081-.437.317-.54.282-.125.568-.135.834.048a.57.57 0 01.26.482c.008.49.012.979.017 1.469 0 .096.004.193.001.29-.004.155.073.215.235.21.132-.003.267.006.398.029.146.025.244-.019.32-.136.342-.523.68-1.048 1.033-1.564.19-.278.4-.545.618-.803.203-.241.528-.27.828-.1.268.152.39.45.25.721-.138.27-.313.526-.484.78-.384.57-.774 1.136-1.166 1.7-.074.107-.072.185.009.292.433.567.86 1.138 1.28 1.715.097.133.2.203.375.191.258-.017.504.004.706.199.376.362.23.987-.295 1.063-.419.062-.86.011-1.288-.025-.115-.01-.244-.132-.321-.234-.51-.672-1.002-1.355-1.511-2.027-.172-.226-.369-.435-.693-.472-.208-.023-.258.005-.26.202-.003.544.002 1.088 0 1.633a3.033 3.033 0 01-.026.415c-.054.39-.338.607-.756.59-.391-.016-.663-.269-.676-.653-.014-.416-.011-.833-.013-1.25v-1.487h.006z"/><g transform="translate(47.919 27.111)"><mask id="troika__d" fill="#fff"><use xlink:href="#troika__c"/></mask><path fill="#FFF" d="M3 2.236l-.053.007c-.032.075-.066.15-.095.226-.225.571-.45 1.142-.67 1.715-.092.238-.07.271.2.281.426.017.853.022 1.28.026.228.002.26-.048.178-.25-.21-.525-.42-1.05-.634-1.572-.06-.147-.137-.289-.206-.433m.762 3.46c-.618 0-1.235.006-1.853-.005-.215-.004-.349.05-.41.259-.047.162-.12.319-.194.472a.684.684 0 01-.742.359C.227 6.716.002 6.52.01 6.248c.004-.182.052-.372.12-.544.347-.87.71-1.732 1.06-2.6.234-.58.454-1.166.682-1.749.12-.305.22-.62.371-.91.127-.243.336-.426.655-.438.313-.011.598.058.746.34.178.34.328.694.479 1.046.275.643.545 1.288.813 1.933.168.405.328.812.493 1.217.152.372.312.74.455 1.114.084.218.212.43.139.68a.71.71 0 01-.544.48c-.321.045-.573-.053-.718-.301a2.496 2.496 0 01-.24-.511c-.062-.202-.175-.297-.395-.284-.12.006-.242 0-.363 0v-.026" mask="url(#troika__d)"/></g><path fill="#FFF" d="M16.073 29.242h-.006c0 .23.002.46 0 .69-.001.128.06.187.197.184.395-.006.79.004 1.184-.016.468-.024.791-.344.824-.78.032-.434-.24-.829-.692-.886-.45-.057-.91-.038-1.367-.036-.047 0-.129.11-.134.174-.016.222-.006.447-.006.67m.414-2.072c.427 0 .858-.04 1.278.008 1.341.15 2.126 1.152 1.93 2.42-.138.891-.809 1.573-1.75 1.707-.494.07-1.002.057-1.503.07-.35.007-.359-.002-.366.334-.011.49-.005.98-.012 1.47-.003.223-.057.426-.265.573-.253.178-.523.185-.797.083-.26-.098-.367-.318-.376-.566-.016-.465-.015-.93-.012-1.396.004-.821.016-1.643.023-2.465.004-.49 0-.98.01-1.469.01-.533.284-.781.847-.784h.993v.015"/><g transform="translate(6 27.148)"><mask id="troika__f" fill="#fff"><use xlink:href="#troika__e"/></mask><path fill="#FFF" d="M3.352 3.799c0 .755.006 1.51-.002 2.266-.006.591-.488.899-1.072.694-.241-.085-.375-.263-.39-.493a19.518 19.518 0 01-.03-1.268c.001-1.13.012-2.26.017-3.39 0-.255-.003-.26-.268-.268-.324-.01-.648-.007-.973-.017C.235 1.311.012 1.071 0 .651A.613.613 0 01.597.035c.783-.02 1.566-.02 2.35-.023A85.93 85.93 0 014.57.018c.43.006.664.235.668.634.003.343-.272.61-.655.623a20.05 20.05 0 01-1.011.013c-.158-.003-.181.076-.182.19l-.022 2.049v.272h-.017" mask="url(#troika__f)"/></g><g transform="translate(32.429 25.006)"><mask id="troika__h" fill="#fff"><use xlink:href="#troika__g"/></mask><path fill="#FFF" d="M.731.03c.095.01.197.003.283.033a.923.923 0 01.34.213c.22.231.187.482.106.752-.075.253-.296.352-.558.364a1.82 1.82 0 01-.38-.012c-.3-.05-.497-.261-.508-.55A1.258 1.258 0 01.052.418c.08-.262.343-.4.68-.387" mask="url(#troika__h)"/></g></g></g></svg>