<svg xmlns="http://www.w3.org/2000/svg" xmlns:xlink="http://www.w3.org/1999/xlink" width="80" height="80"><defs><circle id="dcrussia__a" cx="40" cy="40" r="40"/></defs><g fill="none" fill-rule="evenodd"><use fill="#000" xlink:href="#dcrussia__a"/><g fill="#FFF"><path fill-rule="nonzero" d="M54.512 51.586h-1.444a19.91 19.91 0 01-7.282-1.322 18.16 18.16 0 001.577-2.44 17.103 17.103 0 002.034-8.014c0-2.868-.753-5.603-2.034-8.013a18.266 18.266 0 00-1.577-2.451 20.651 20.651 0 017.282-1.322h1.444v3.864h7.963V20.061h-9.407c-5.085 0-9.854 1.302-13.78 3.6-3.956-2.288-8.715-3.59-13.81-3.6h-9.397v21.62h7.953V28.034h1.444c2.654 0 5.125.488 7.291 1.322a18.266 18.266 0 00-1.576 2.45c-1.291 2.41-2.044 5.147-2.044 8.014.01 2.858.743 5.604 2.044 8.014a18.16 18.16 0 001.576 2.44 20.399 20.399 0 01-7.291 1.323h-1.444v-5.258H16.08v13.22h9.397c4.77 0 9.234-1.139 13.027-3.173.264-.132.519-.284.783-.427.244.153.509.295.773.427 3.783 2.024 8.247 3.173 13.007 3.173h9.407V46.39h-7.963v5.197zm-14.176-7.515c-.295.54-.651 1.078-1.058 1.607a10.735 10.735 0 01-1.068-1.607c-.722-1.363-1.098-2.766-1.098-4.26 0-1.496.376-2.9 1.098-4.262.285-.539.651-1.078 1.068-1.607.407.53.763 1.068 1.058 1.607.722 1.363 1.098 2.766 1.088 4.261 0 1.495-.356 2.898-1.088 4.261z"/><path d="M59.597 37.003l-1.099-3.315-1.088 3.315-3.274-1.22 1.911 2.919-2.979 1.8 3.468.325-.458 3.458 2.42-2.512 2.421 2.512-.458-3.458 3.478-.325-3-1.8 1.912-2.919z"/></g></g></svg>