<svg xmlns="http://www.w3.org/2000/svg" width="60" height="60"><g fill="none" fill-rule="evenodd"><path fill="#16A5AD" d="M30 0c16.569 0 30 13.432 30 29.995v.01C60 46.571 46.572 60 30 60 13.431 60 0 46.572 0 30 0 13.431 13.428 0 30 0z"/><path fill="#FFF" d="M22.522 23.154c-3.479 0-10.783.554-10.783 2.99 0 2.227 26.087 11.13 26.087 11.13-9.391 2.087-17.391.695-17.391.695S10 34.491 10 28.23c0-6.607 12.516-5.077 12.522-5.076-.092.01-5.913.706-5.913 2.087 0 1.391 29.217 8 29.217 8s2.087-1.565 4.174-3.305c0 0-29.217-4-29.217-5.39 0-1.044 1.739-1.392 1.739-1.392s-10.087.348-10.087 2.782c0 1.74 26.435 10.783 26.435 10.783s3.826-1.043 5.913-2.783c0 0-28.87-6.608-28.87-8.695 0-1.388 6.578-2.084 6.609-2.087z"/></g></svg>