<svg xmlns="http://www.w3.org/2000/svg" xmlns:xlink="http://www.w3.org/1999/xlink" width="80" height="80"><defs><circle id="laroche-posay__a" cx="40" cy="40" r="40"/></defs><g fill="none" fill-rule="evenodd"><use fill="#F3F3F3" xlink:href="#laroche-posay__a"/><g fill-rule="nonzero"><path fill="#000" d="M5.317 36.438h.852v5.247h2.678v.786h-3.53v-6.033zm6.174-.034h.598l2.668 6.067h-.871l-.793-1.787h-2.538l-.743 1.787h-.876l2.555-6.067zm1.251 3.511l-.96-2.185-.89 2.185h1.85zm5.114 2.556v-6.033h1.49c.603 0 1.08.152 1.433.453.354.303.53.712.53 1.227 0 .351-.086.655-.26.911a1.556 1.556 0 01-.745.575c.19.127.377.3.558.518.182.219.438.6.767 1.145.207.343.373.6.498.772l.315.432h-1.014l-.26-.397a.981.981 0 00-.05-.073l-.166-.238-.264-.44-.285-.471a4.597 4.597 0 00-.483-.59 1.845 1.845 0 00-.397-.318c-.117-.064-.316-.097-.594-.097h-.222v2.626l-.85-.002zm1.107-5.299h-.255v1.905h.324c.43 0 .727-.037.888-.113a.837.837 0 00.374-.34.994.994 0 00.134-.515.932.932 0 00-.149-.517.803.803 0 00-.42-.325c-.18-.063-.479-.095-.896-.095zm6.53-.82c.918 0 1.683.296 2.295.885.61.59.916 1.33.916 2.22 0 .89-.309 1.626-.925 2.21-.617.583-1.394.874-2.333.874-.896 0-1.643-.291-2.24-.875-.597-.583-.895-1.313-.895-2.191 0-.9.3-1.647.902-2.237.6-.59 1.36-.886 2.28-.886zm.033.82c-.681 0-1.24.217-1.679.648-.438.432-.656.982-.656 1.653 0 .65.22 1.192.659 1.624.439.432.99.647 1.65.647.663 0 1.217-.22 1.661-.66.444-.44.666-.989.666-1.645 0-.639-.222-1.177-.666-1.613-.443-.435-.989-.654-1.635-.654zm9.352 3.9v.95c-.624.346-1.345.519-2.163.519-.664 0-1.227-.136-1.69-.406a2.961 2.961 0 01-1.098-1.118 3.067 3.067 0 01-.405-1.542c0-.878.31-1.617.926-2.216.617-.599 1.379-.898 2.284-.898.624 0 1.318.165 2.082.497v.928c-.696-.403-1.375-.604-2.039-.604-.681 0-1.246.218-1.696.654-.45.437-.675.983-.675 1.639 0 .662.222 1.207.664 1.632.443.427 1.01.64 1.699.64.72-.002 1.424-.226 2.111-.674zm5.24-4.634h.852v6.033h-.851v-2.625h-3.343v2.625h-.85v-6.033h.85v2.61h3.343v-2.61zm2.164 0h3.372v.769h-2.52v1.84h2.434v.773h-2.435v1.874h2.602v.768h-3.453v-6.024zm4.054 3.654h2.12v.842h-2.12v-.842zm3.077 2.38V36.43H51.3c.567 0 1.02.156 1.358.467.337.31.506.728.506 1.253 0 .35-.086.662-.26.933a1.49 1.49 0 01-.71.59c-.301.121-.733.182-1.295.182h-.63v2.618h-.856v-.002zm1.738-5.274h-.882v1.888h.932c.346 0 .613-.083.801-.248.187-.165.28-.403.28-.71.002-.62-.377-.93-1.131-.93zm5.673-.846c.919 0 1.684.296 2.296.885.61.59.916 1.33.916 2.22 0 .89-.308 1.626-.925 2.21-.617.583-1.394.874-2.333.874-.897 0-1.643-.291-2.24-.875-.597-.583-.895-1.313-.895-2.191 0-.9.3-1.647.901-2.237.6-.59 1.362-.886 2.28-.886zm.034.82c-.681 0-1.24.217-1.679.648-.438.432-.657.982-.657 1.653 0 .65.22 1.192.66 1.624.439.432.988.647 1.65.647.663 0 1.217-.22 1.661-.66.444-.44.666-.989.666-1.645 0-.639-.222-1.177-.666-1.613-.443-.435-.989-.654-1.635-.654zm5.7 2.772l-.648-.399c-.405-.25-.695-.499-.866-.742a1.422 1.422 0 01-.257-.84c0-.475.161-.86.487-1.157.325-.296.748-.444 1.267-.444.497 0 .952.142 1.366.424v.981c-.429-.418-.89-.628-1.383-.628-.279 0-.507.066-.685.196a.596.596 0 00-.268.501c0 .181.066.35.197.508.132.158.344.324.636.497l.65.391c.726.44 1.089.999 1.089 1.679 0 .483-.16.876-.48 1.179-.32.303-.734.453-1.245.453a2.589 2.589 0 01-1.605-.55v-1.1c.46.592.992.888 1.596.888a.996.996 0 00.667-.226.71.71 0 00.266-.566c-.001-.367-.263-.716-.784-1.045zm4.418-3.54h.6l2.666 6.067h-.871l-.793-1.787h-2.537l-.743 1.787h-.876l2.554-6.067zm1.252 3.511l-.96-2.185-.89 2.185h1.85zm5.285-3.477h1.034L72.35 39.28v3.191h-.873v-3.19l-2.197-2.842h1.028l1.592 2.08 1.613-2.08zM5 44.57h.44v2.969h1.386v.444H5V44.57zm3.194-.018h.31l1.38 3.432h-.45l-.41-1.01H7.71l-.385 1.01h-.453l1.322-3.432zm.648 1.985L8.345 45.3l-.46 1.236h.957zm2.421 1.447h-1.041v-3.413h.806c.254 0 .452.038.595.114.143.076.25.18.325.313a.922.922 0 01.113.46c0 .336-.157.577-.469.722a.92.92 0 01.536.308c.133.157.2.346.2.567 0 .175-.04.33-.12.467a.924.924 0 01-.357.335 1.243 1.243 0 01-.588.127zm-.222-2.978h-.378v1.025h.293c.236 0 .403-.049.502-.149a.524.524 0 00.149-.386c-.002-.326-.19-.49-.566-.49zm.033 1.46h-.412v1.083h.434c.24 0 .405-.02.49-.062a.542.542 0 00.203-.763.503.503 0 00-.235-.193c-.102-.043-.261-.064-.48-.064zm3.197-1.944c.476 0 .872.167 1.188.501.316.335.475.753.475 1.256 0 .504-.16.92-.48 1.25-.319.33-.72.495-1.207.495-.463 0-.85-.165-1.16-.495-.308-.33-.463-.743-.463-1.24 0-.51.156-.931.467-1.266a1.544 1.544 0 011.18-.5zm.018.465a1.13 1.13 0 00-.868.366c-.227.244-.34.556-.34.936 0 .368.114.675.342.919.227.243.512.366.855.366.343 0 .63-.125.86-.374.23-.249.344-.559.344-.93 0-.362-.114-.666-.344-.912a1.118 1.118 0 00-.849-.371zm2.2 2.997v-3.413h.772c.31 0 .558.086.74.257.183.171.275.402.275.694 0 .198-.045.37-.135.515a.816.816 0 01-.385.324c.098.072.194.17.289.294.093.124.226.34.396.647.107.193.193.34.257.437l.163.244h-.524l-.135-.225-.026-.042-.086-.134-.137-.25-.147-.265a2.521 2.521 0 00-.25-.335.94.94 0 00-.205-.178c-.061-.037-.164-.055-.308-.055h-.115v1.485h-.439zm.573-2.997h-.133v1.077h.168c.222 0 .376-.021.459-.063a.455.455 0 00.194-.191.603.603 0 00.07-.293.564.564 0 00-.077-.292.428.428 0 00-.217-.185c-.094-.037-.249-.053-.464-.053zm3.121-.435h.31l1.38 3.432h-.45l-.41-1.01H19.7l-.385 1.01h-.453l1.321-3.432zm.648 1.985l-.496-1.236-.46 1.236h.956zm.665-1.97h2.571V45h-1.073v2.983h-.442V45h-1.056v-.435zm4.204-.045c.476 0 .872.167 1.188.501.317.335.475.753.475 1.256 0 .504-.16.92-.48 1.25-.319.33-.721.495-1.207.495-.463 0-.85-.165-1.159-.495-.309-.33-.464-.743-.464-1.24 0-.51.156-.931.467-1.266a1.546 1.546 0 011.18-.5zm.018.465a1.13 1.13 0 00-.868.366c-.227.244-.34.556-.34.936 0 .368.114.675.342.919.227.243.512.366.855.366.343 0 .63-.125.86-.374.23-.249.344-.559.344-.93 0-.362-.114-.666-.344-.912a1.113 1.113 0 00-.849-.371zm2.192-.417h.44v3.413h-.44V44.57zm1.136 3.414v-3.413h.771c.312 0 .559.086.741.257.183.171.275.402.275.694 0 .198-.045.37-.135.515a.812.812 0 01-.386.324c.1.072.195.17.29.294.094.124.225.34.396.647.107.193.193.34.257.437l.163.244h-.524l-.135-.225-.026-.042-.085-.134-.137-.25-.147-.265a2.521 2.521 0 00-.25-.335.94.94 0 00-.205-.178c-.061-.037-.164-.055-.308-.055h-.115v1.485h-.44zm.573-2.997h-.133v1.077h.167c.223 0 .377-.021.46-.063a.455.455 0 00.194-.191.603.603 0 00.07-.293.564.564 0 00-.077-.292.428.428 0 00-.217-.185c-.093-.037-.248-.053-.464-.053zm2.14-.417h1.744v.436H32.2v1.04h1.26v.437H32.2v1.06h1.346v.436H31.76V44.57zm3.513 3.409V44.57h1.038c.418 0 .75.07.993.21a1.5 1.5 0 01.581.614c.144.27.216.566.216.885 0 .229-.04.446-.12.655a1.66 1.66 0 01-.339.55c-.15.163-.323.286-.522.369a1.52 1.52 0 01-.32.102 3.917 3.917 0 01-.554.025h-.973v-.001zm.992-2.973h-.551v2.538h.564c.22 0 .391-.017.513-.05.122-.034.224-.076.305-.128a1.13 1.13 0 00.224-.189c.217-.244.326-.553.326-.926 0-.367-.112-.665-.336-.896a1.056 1.056 0 00-.282-.213 1.12 1.12 0 00-.303-.11 2.931 2.931 0 00-.46-.026zm2.388-.436h1.744v.436h-1.304v1.04h1.26v.437h-1.26v1.06h1.346v.436h-1.786V44.57zm2.269 3.414v-3.413h.771c.311 0 .558.086.741.257.183.171.275.402.275.694 0 .198-.046.37-.135.515a.812.812 0 01-.386.324c.099.072.195.17.29.294.094.124.225.34.396.647.107.193.193.34.257.437l.163.244h-.525l-.133-.225-.026-.042-.086-.134-.137-.25-.147-.265a2.617 2.617 0 00-.25-.335.94.94 0 00-.205-.178c-.061-.037-.164-.055-.308-.055h-.115v1.485h-.44zm.573-2.997h-.133v1.077h.167c.223 0 .377-.021.46-.063a.455.455 0 00.194-.191.603.603 0 00.07-.293.564.564 0 00-.077-.292.428.428 0 00-.217-.185c-.094-.037-.249-.053-.464-.053zm4.586-.417h.412v3.413h-.442v-2.656l-.946 1.32h-.081l-.958-1.32v2.656h-.44V44.57h.417l1.023 1.403 1.015-1.403zm2.058-.018h.31l1.38 3.432h-.45l-.41-1.01h-1.313l-.385 1.01h-.453l1.321-3.432zm.648 1.985L48.29 45.3l-.46 1.236h.956zm.665-1.97h2.57V45H50.95v2.983h-.443V45h-1.055v-.435zm4.204-.045c.475 0 .872.167 1.188.501.316.335.475.753.475 1.256 0 .504-.16.92-.48 1.25-.319.33-.721.495-1.207.495-.463 0-.85-.165-1.16-.495-.308-.33-.463-.743-.463-1.24 0-.51.156-.931.467-1.266a1.544 1.544 0 011.18-.5zm.018.465a1.13 1.13 0 00-.868.366c-.227.244-.34.556-.34.936 0 .368.113.675.341.919.228.243.512.366.855.366.343 0 .63-.125.86-.374.23-.249.344-.559.344-.93 0-.362-.115-.666-.345-.912a1.11 1.11 0 00-.847-.371zm2.186-.417h.44v2.969h1.387v.444h-1.827V44.57zm3.722-.048c.475 0 .871.167 1.188.501.316.335.475.753.475 1.256 0 .504-.16.92-.48 1.25-.319.33-.72.495-1.207.495-.464 0-.85-.165-1.16-.495-.308-.33-.463-.743-.463-1.24 0-.51.156-.931.467-1.266a1.546 1.546 0 011.18-.5zm.018.465a1.13 1.13 0 00-.868.366c-.226.244-.34.556-.34.936 0 .368.114.675.342.919.227.243.512.366.853.366.344 0 .63-.125.86-.374.23-.249.345-.559.345-.93 0-.362-.115-.666-.344-.912a1.113 1.113 0 00-.848-.371zm3.85 1.316h1.033v1.446a2.574 2.574 0 01-1.128.273c-.51 0-.916-.165-1.221-.494-.305-.33-.457-.737-.457-1.22 0-.51.157-.935.474-1.273a1.555 1.555 0 011.188-.508c.173 0 .337.021.492.062a3.9 3.9 0 01.591.228v.499c-.367-.237-.731-.355-1.093-.355-.336 0-.62.128-.85.382-.23.254-.346.566-.346.935 0 .388.116.705.346.95.23.246.527.37.89.37.177 0 .387-.046.633-.135l.042-.015v-.71h-.593v-.435h-.001zm1.68-1.733h.441v3.413h-.44V44.57zm4.226 3.629l-.443.476a1.874 1.874 0 01-.433-.082 2.7 2.7 0 01-.457-.191 4.737 4.737 0 01-.62-.419 1.507 1.507 0 01-.926-.59 1.776 1.776 0 01-.365-1.105c0-.51.157-.931.469-1.266a1.556 1.556 0 011.187-.501c.475 0 .871.166 1.185.497.316.331.472.749.472 1.25 0 .421-.119.792-.356 1.112-.238.32-.546.52-.923.603l.117.05c.362.154.624.232.784.232a.89.89 0 00.309-.066zm-1.587-3.212c-.346 0-.633.124-.859.37-.226.248-.34.56-.34.936 0 .367.114.672.342.916.227.243.513.365.857.365.34 0 .624-.125.856-.374.233-.249.348-.556.348-.92 0-.374-.113-.683-.34-.927a1.13 1.13 0 00-.864-.366zm4.342-.417h.442v1.938c0 .262-.017.46-.051.593a1.354 1.354 0 01-.129.335 1.05 1.05 0 01-.186.238c-.244.234-.562.35-.956.35-.4 0-.722-.116-.965-.348a1.061 1.061 0 01-.186-.24 1.326 1.326 0 01-.125-.326 2.689 2.689 0 01-.05-.606v-1.933h.443v1.938c0 .321.033.544.099.67a.744.744 0 00.301.3.964.964 0 00.479.114c.261 0 .474-.075.639-.227a.705.705 0 00.187-.288c.038-.111.058-.3.058-.57v-1.937zm1.052 0h1.744v.436h-1.304v1.04h1.26v.437h-1.26v1.06h1.346v.436h-1.786V44.57z"/><path fill="#2AA7DF" d="M34.628 20h11.186v14.323H34.628z"/></g></g></svg>