<svg xmlns="http://www.w3.org/2000/svg" width="41" height="40" fill="none"><path fill="#2E528F" fill-rule="evenodd" d="M20.5 40c11.046 0 20-8.954 20-20s-8.954-20-20-20S.5 8.954.5 20s8.954 20 20 20z" clip-rule="evenodd"/><path fill="#00A4AF" fill-rule="evenodd" d="M21.692 18.17c-.057-.547-.6-.646-.938-.646a2.81 2.81 0 00-.932.186l.253-1.076.094-.018a6.4 6.4 0 011.185-.11c1.2 0 1.952.61 1.914 1.711-.045 1.263-1.043 2.504-2.946 2.504-.303 0-.697-.036-1.182-.164l.26-1.083c.315.128.668.187.936.187.506 0 .939-.216 1.158-.658h-1.409l.198-.833h1.409zm3.144 1.654h.495c.355 0 .585-.268.594-.512.007-.216-.151-.35-.419-.35h-.465l-.205.862zm2.919-3.249l-.24 1.02H25.38l-.136.564h1.019c1.065 0 1.297.541 1.28.995-.022.652-.524 1.509-1.967 1.502l-2.415-.005.969-4.076h3.626zm2.127 1.601h-.023l.382-1.6h-1.56l-.969 4.075h1.56l.41-1.73h.023l.592 1.73h1.863l-.984-2.166L33 16.575h-1.775l-1.343 1.601zm-9.893 4.349a1.402 1.402 0 00-.466-.082c-.098 0-.273.01-.277.118-.003.07.084.085.177.102l.015.003.008.002c.215.04.514.098.504.401a.645.645 0 01-.204.429c-.212.191-.547.211-.711.211-.28 0-.495-.043-.642-.084l.099-.405c.193.082.383.107.524.107.248 0 .299-.069.3-.126.003-.064-.061-.078-.12-.092l-.006-.001-.042-.01c-.3-.067-.54-.122-.53-.42.01-.294.27-.618.905-.618.162 0 .364.014.565.055l-.099.41zm1.491 1.157l.118-.49.86-1.104h-.632l-.407.667h-.009l-.088-.667h-.665l.33 1.104-.117.49h.61zm2.701-1.157a1.401 1.401 0 00-.466-.082c-.098 0-.273.01-.277.118-.002.07.085.085.177.102l.015.003.009.002c.214.04.514.098.503.401a.645.645 0 01-.204.429c-.211.191-.547.211-.711.211-.28 0-.495-.043-.642-.084l.099-.405c.193.082.383.107.524.107.248 0 .299-.069.3-.126.003-.064-.061-.078-.12-.092l-.006-.001-.042-.01c-.3-.067-.54-.122-.53-.42.01-.294.27-.618.905-.618.162 0 .364.014.565.055l-.099.41zm2.299.034l.112-.471h-1.686l-.112.471h.537l-.267 1.123h.61l.268-1.123h.538zm2.173-.471l-.088.375h-.781l-.056.23h.747l-.086.365h-.747l-.058.248h.797l-.09.376h-1.395l.38-1.594h1.377zm1.687 0h-.904l-.38 1.594h.52l.299-1.253h.016l.006 1.253h.508l.613-1.253h.014l-.299 1.253h.546l.38-1.594h-.902l-.406.872h-.012v-.872z" clip-rule="evenodd"/><path fill="#fff" fill-rule="evenodd" d="M8.876 18.27S9.141 16 11.256 16h7.287c0 1.212-.553 3.964-2.037 5.643-.953 1.08-1.862 1.904-4.004 2.351-2.143.45-5.502.071-5.502.071s.14-.91.673-1.693c.53-.785 1.536-.7 3.135-.7 1.815 0 2.408-.24 3.15-.869.742-.63 1.28-1.972 1.52-2.532H8.875z" clip-rule="evenodd"/><path fill="#00A4AF" fill-rule="evenodd" d="M8.386 21.194s.284-2.453 2.3-2.453l4.076.002c-.728 1.31-1.208 2.45-3.533 2.45H8.386z" clip-rule="evenodd"/></svg>