<svg xmlns="http://www.w3.org/2000/svg" width="41" height="40" fill="none"><circle cx="20.5" cy="20" r="20" fill="#9E0918"/><path fill="#fff" d="M19.065 21.762h2.52v-1.17h-.808v.362h-.916v-2.146h.916v.361h.808V18h-2.52v3.762zm-3.195 0h2.52V18h-2.52v3.762zm.808-2.954h.916v2.146h-.916v-2.146zm-3.641 2.954h.808v-2.954h1.422V18h-2.23v3.762zm-3.171 0h2.52v-1.17h-.808v.362h-.916v-2.146h.916v.361h.808V18h-2.52v3.762zm12.358 0h2.52v-1.17h-.808v.362h-.904v-2.146h.916v.361h.808V18h-2.52v3.762h-.012zm6.185 0h.808v-1.134h1.724V18h-2.52v3.762h-.012zm.808-2.954h.916v1.025h-.916v-1.025zM37.44 18h-.856l-.446 1.459h-.217L35.487 18h-.857l.64 1.869-.688 1.893h.856l.495-1.495h.217l.494 1.495h.856l-.687-1.893L37.44 18zM3.5 21.762h.808v-1.134h1.724V18H3.5v3.762zm.808-2.954h.916v1.025h-.916v-1.025zM31.82 18l-.361 3.762h.807l.085-.893h.88l.084.893h.808L33.762 18h-1.94zm.591 2.062l.12-1.266h.507l.12 1.266h-.747zm-25.729 1.7h2.52V18h-2.52v3.762zm.796-2.954h.916v2.146h-.916v-2.146zm17.832 0h.856v2.954h.807v-2.954h.857V18h-2.52v.808z"/></svg>