<svg xmlns="http://www.w3.org/2000/svg" xmlns:xlink="http://www.w3.org/1999/xlink" width="80" height="80"><defs><circle id="tripinsurance__a" cx="40" cy="40" r="40"/></defs><g fill="none" fill-rule="evenodd"><use fill="#F3F3F3" xlink:href="#tripinsurance__a"/><g fill-rule="nonzero"><path fill="#1D1D1B" d="M10.238 41.325c0 .32-.16.48-.48.48-.321 0-.481-.16-.481-.48 0-.32.16-.48.48-.48.32 0 .48.16.48.48zm-.176 9.738h-.61V43.47h.61v7.592zm8.713 0h-.608V46.77c0-.63-.08-1.137-.24-1.522a2.096 2.096 0 00-1.058-1.105 2.514 2.514 0 00-1.137-.257c-.416 0-.795.086-1.137.257-.491.246-.83.59-1.017 1.033-.187.443-.28.974-.28 1.593v4.293h-.609v-4.356c0-.694.096-1.266.289-1.714.256-.587.705-1.041 1.345-1.361a3.02 3.02 0 01.665-.232c.25-.06.499-.088.745-.088.522 0 .992.106 1.41.32.64.32 1.088.774 1.345 1.361.192.438.288 1.01.288 1.714v4.356h-.001zm7.516-1.922c0 .374-.096.707-.288 1.001-.193.294-.484.52-.873.68-.39.16-.89.24-1.498.24h-3.14v-.576h3.204c.385 0 .705-.032.962-.096.427-.107.72-.298.88-.577a.86.86 0 00.112-.288 1.58 1.58 0 00.033-.32c0-.342-.088-.625-.265-.85a1.823 1.823 0 00-.728-.536c-.31-.133-.796-.274-1.458-.424-.662-.15-1.09-.256-1.281-.32-.438-.15-.774-.353-1.01-.61a1.728 1.728 0 01-.448-1.2c0-.3.06-.56.177-.785.16-.33.398-.582.713-.752.315-.171.787-.257 1.417-.257h2.979v.577h-3.091c-.385 0-.635.016-.753.048-.267.075-.48.235-.64.48a1.06 1.06 0 00-.145.344 1.614 1.614 0 00-.047.377c0 .267.085.512.256.736.139.182.384.337.736.465.257.096.683.214 1.282.352 1.27.278 2.082.609 2.434.993.32.342.48.775.48 1.298zm7.739-1.313c0 .715-.096 1.287-.288 1.714-.256.565-.704 1.02-1.346 1.36a4.693 4.693 0 01-.64.265c-.214.07-.422.104-.625.104a3.8 3.8 0 01-.793-.08 2.837 2.837 0 01-.76-.288c-.652-.342-1.1-.796-1.346-1.361-.192-.438-.288-1.01-.288-1.714V43.47h.608v4.302c0 .632.08 1.14.24 1.525.203.492.555.862 1.058 1.108a2.5 2.5 0 001.137.257 2.51 2.51 0 001.137-.257c.491-.247.838-.61 1.041-1.092.17-.406.256-.92.256-1.541V43.47h.609v4.357zm5.442-3.78h-.64a2.42 2.42 0 00-.602.08 2.485 2.485 0 00-.553.208c-.48.257-.811.679-.992 1.266-.129.406-.193.902-.193 1.49v3.971h-.608v-7.591h.608v1.457c.085-.213.187-.4.304-.56.16-.214.374-.395.64-.545a2.796 2.796 0 011.33-.352h.705v.576zm8.376 7.015h-.608v-3.38c0-1.248-.326-2.21-.977-2.883-.588-.608-1.34-.912-2.258-.912-.993 0-1.813.344-2.459 1.032a3.469 3.469 0 00-.969 2.45c0 .93.326 1.701.977 2.331.651.63 1.468.945 2.45.945.513 0 .97-.088 1.37-.264.4-.176.809-.462 1.225-.857v.705c-.341.31-.72.553-1.137.728-.417.177-.892.265-1.425.265-1.08 0-2.013-.342-2.803-1.025-.844-.738-1.265-1.675-1.265-2.828 0-1.067.357-1.999 1.073-2.778.78-.854 1.778-1.282 2.995-1.282 1.057 0 1.933.337 2.627 1.01.79.768 1.185 1.847 1.185 3.235v3.508zm7.681 0h-.609V46.77c0-.63-.08-1.137-.24-1.522a2.1 2.1 0 00-1.057-1.105 2.514 2.514 0 00-1.137-.257c-.416 0-.795.086-1.137.257-.491.246-.83.59-1.017 1.033-.187.443-.28.974-.28 1.593v4.293h-.609v-4.356c0-.694.096-1.266.289-1.714.255-.587.704-1.041 1.345-1.361.193-.097.413-.174.665-.232.25-.06.499-.088.745-.088.523 0 .993.106 1.41.32.64.32 1.088.774 1.345 1.361.192.438.288 1.01.288 1.714v4.356zm6.647 0h-1.073c-.876 0-1.623-.187-2.243-.56a3.553 3.553 0 01-1.152-1.138 3.27 3.27 0 01-.417-.96 4.246 4.246 0 01-.143-1.09c0-.79.186-1.49.56-2.098a3.45 3.45 0 011.73-1.457c.49-.193 1.046-.289 1.665-.289h1.074v.577h-1.265c-.695 0-1.298.182-1.81.544a3.11 3.11 0 00-.881.946c-.31.512-.465 1.105-.465 1.777 0 .652.155 1.223.465 1.714a2.89 2.89 0 001.537 1.233c.427.15.908.225 1.442.225h.977v.576zm8.717-1.524c-.556.86-1.346 1.41-2.368 1.645-1.023.236-2.01.046-2.96-.567-.943-.608-1.537-1.43-1.783-2.466-.247-1.036-.057-2.038.568-3.007.626-.969 1.455-1.565 2.488-1.787 1.033-.223 2.025-.027 2.977.587a3.81 3.81 0 011.336 1.444 3.89 3.89 0 01.441 1.915l-6.532.167-.03-.572 5.919-.163c-.053-.53-.22-.99-.5-1.38a3.618 3.618 0 00-.974-.944 3.36 3.36 0 00-1.563-.532 3.039 3.039 0 00-1.635.317c-.573.278-1.051.713-1.433 1.305-.498.772-.664 1.6-.496 2.482.166.883.654 1.585 1.46 2.107.8.515 1.634.682 2.507.502a3.08 3.08 0 002.04-1.4l.538.347z"/><path fill="#7F7F7D" d="M10.66 56.267c-.12.063-.389.147-.73.147-.766 0-1.266-.52-1.266-1.297 0-.783.536-1.35 1.366-1.35.273 0 .514.068.64.131l-.104.357a1.074 1.074 0 00-.536-.12c-.583 0-.898.43-.898.96 0 .589.378.95.882.95.263 0 .436-.067.567-.125l.08.347zm2.515-2.448v.368h-.793v2.174h-.457v-2.174h-.793v-.368zm.578.831c0-.326-.01-.59-.021-.83h.415l.02.435h.011c.19-.31.488-.493.903-.493.615 0 1.077.52 1.077 1.292 0 .914-.557 1.365-1.155 1.365-.337 0-.63-.147-.783-.399h-.01v1.381h-.457V54.65zm.456.677a.713.713 0 00.714.73c.489 0 .773-.4.773-.982 0-.51-.268-.946-.757-.946a.737.737 0 00-.698.573.749.749 0 00-.032.189v.436zm4.112 1.034l-.037-.32h-.016a.947.947 0 01-.777.378c-.514 0-.777-.362-.777-.73 0-.614.546-.95 1.528-.945v-.053c0-.21-.058-.588-.577-.588-.237 0-.484.073-.662.19l-.105-.305c.21-.137.515-.226.835-.226.777 0 .966.53.966 1.04v.95c0 .22.01.436.042.61h-.42zm-.068-1.297c-.505-.01-1.077.079-1.077.573 0 .299.2.441.436.441.331 0 .541-.21.615-.425a.478.478 0 00.026-.147v-.442zm1.58-1.244l.363.546c.095.142.173.273.257.415h.016c.084-.152.168-.283.252-.42l.357-.54h.499l-.867 1.228.893 1.313h-.525l-.373-.573a7.673 7.673 0 01-.273-.441h-.01c-.085.152-.174.289-.269.441l-.367.573h-.51l.904-1.297-.862-1.245h.515zm4.616 1.25c0 .94-.651 1.349-1.266 1.349-.688 0-1.218-.504-1.218-1.308 0-.85.556-1.35 1.26-1.35.73 0 1.224.531 1.224 1.308zm-2.017.025c0 .557.32.977.772.977.442 0 .772-.415.772-.987 0-.43-.215-.977-.761-.977s-.783.505-.783.987zm2.762-1.244c.179-.031.51-.058.81-.058.424 0 1.128.069 1.128.636 0 .315-.242.51-.53.572v.01c.372.053.645.263.645.631 0 .667-.84.751-1.339.751-.284 0-.577-.02-.714-.032v-2.51zm.436 2.206c.131.016.226.02.373.02.31 0 .772-.073.772-.44 0-.369-.367-.447-.809-.447h-.336v.867zm.006-1.172h.346c.341 0 .694-.1.694-.399 0-.252-.22-.373-.683-.373-.152 0-.247.01-.357.022v.75zm3.775 1.476l-.037-.32h-.016a.947.947 0 01-.777.378c-.514 0-.777-.362-.777-.73 0-.614.546-.95 1.528-.945v-.053c0-.21-.058-.588-.578-.588a1.25 1.25 0 00-.661.19l-.105-.305c.21-.137.514-.226.835-.226.777 0 .966.53.966 1.04v.95c0 .22.01.436.042.61h-.42zm-.068-1.297c-.505-.01-1.077.079-1.077.573 0 .299.2.441.436.441.33 0 .54-.21.614-.425a.478.478 0 00.027-.148v-.44zm1.811-1.245v1.025h1.208v-1.025h.457v2.542h-.457v-1.15h-1.208v1.15h-.457v-2.542zm3.02.001v1.07c0 .405-.006.658-.027 1.02l.016.005c.152-.31.242-.488.41-.782l.793-1.313h.54v2.541h-.44v-1.076c0-.415.01-.63.03-1.04h-.015c-.163.326-.273.53-.42.788-.242.393-.52.882-.793 1.328h-.53V53.82h.435zm2.914 1.354c.01.625.41.883.871.883.331 0 .53-.058.704-.132l.079.331a2.063 2.063 0 01-.846.158c-.782 0-1.25-.515-1.25-1.281 0-.767.452-1.371 1.193-1.371.83 0 1.05.73 1.05 1.197 0 .095-.01.168-.016.216h-1.785zm1.355-.33c.005-.295-.121-.751-.641-.751-.468 0-.672.43-.71.75h1.35zm4.568-1.025v2.542h-.462v-2.174h-1.182v2.174h-.457v-2.542zm1.07.001l.557 1.501c.058.168.12.368.163.52h.01c.048-.152.1-.346.163-.53l.505-1.492h.488l-.694 1.812c-.33.872-.556 1.318-.871 1.591-.226.2-.452.279-.567.3l-.116-.389c.116-.037.268-.11.405-.226.126-.1.284-.278.389-.514a.334.334 0 00.036-.11.398.398 0 00-.031-.122l-.94-2.342h.503zm4.312-.001v.368H47.6v2.174h-.456v-2.174h-.794v-.368zm.767 1.355c.01.625.409.883.871.883.33 0 .53-.058.704-.132l.078.331a2.063 2.063 0 01-.845.158c-.782 0-1.25-.515-1.25-1.281 0-.767.452-1.371 1.192-1.371.83 0 1.05.73 1.05 1.197 0 .095-.01.168-.015.216h-1.786zm1.354-.33c.006-.295-.12-.751-.64-.751-.468 0-.673.43-.71.75h1.35zm1.633-1.025v2.18h.888v-2.18h.451v2.18h.888v-2.18h.457v2.542h-3.135v-2.542zm3.865 1.355c.01.625.41.883.871.883.331 0 .53-.058.704-.132l.079.331a2.063 2.063 0 01-.845.158c-.783 0-1.25-.515-1.25-1.281 0-.767.451-1.371 1.192-1.371.83 0 1.05.73 1.05 1.197 0 .095-.01.168-.016.216h-1.785zm1.355-.33c.005-.295-.121-.751-.641-.751-.468 0-.672.43-.71.75h1.35zm3.003 1.423c-.12.063-.389.147-.73.147-.767 0-1.266-.52-1.266-1.297 0-.783.536-1.35 1.366-1.35.273 0 .514.068.64.131l-.104.357a1.074 1.074 0 00-.536-.12c-.583 0-.898.43-.898.96 0 .589.378.95.882.95.263 0 .436-.067.567-.125l.08.347zm2.515-2.448v.368h-.793v2.174h-.456v-2.174h-.793v-.368zm.567.032c.179-.031.51-.058.809-.058.425 0 1.13.069 1.13.636 0 .315-.243.51-.531.572v.01c.373.053.646.263.646.631 0 .667-.84.751-1.34.751-.283 0-.577-.02-.714-.032v-2.51zm.436 2.206c.131.016.226.02.373.02.31 0 .772-.073.772-.44 0-.369-.367-.447-.809-.447h-.336v.867zm.006-1.171h.346c.341 0 .694-.1.694-.4 0-.252-.22-.373-.683-.373-.152 0-.247.01-.357.022v.75zm2.793-1.066v1.07c0 .405-.006.658-.026 1.02l.015.005c.152-.31.242-.488.41-.782l.793-1.313h.54v2.541h-.44v-1.076c0-.415.01-.63.031-1.04h-.016c-.163.326-.273.53-.42.788-.241.393-.52.882-.793 1.328h-.53V53.82h.436zm3.082 0v1.07c0 .405-.005.658-.026 1.02l.016.005c.152-.31.241-.488.41-.782l.792-1.313h.54v2.541h-.44v-1.076c0-.415.01-.63.031-1.04h-.016c-.162.326-.272.53-.42.788-.241.393-.52.882-.792 1.328h-.53V53.82h.435zm.3-1.035c.015.226.126.4.336.4.226 0 .33-.169.357-.4h.33c-.02.43-.293.651-.698.651-.462 0-.64-.288-.661-.65h.336z"/><path fill="#B756BC" d="M44.76 16.542c-.486-2.259-2.902-3.707-5.694-3.527-2.801.182-5.005 1.942-5.183 4.254l-4.629.31A3.278 3.278 0 0026 20.853v13.612a3.278 3.278 0 003.274 3.274l20.92-.016a3.275 3.275 0 003.273-3.262l.938-18.887-9.645.968zm-5.627-2.577c2.163-.141 4.038 1.015 4.488 2.653l-8.598.575c.226-1.69 1.942-3.087 4.11-3.228z"/><path fill="#FFF" d="M35.924 23.328a2.085 2.085 0 00-.658.56 2.124 2.124 0 00-.13.198V22.97h-.784v7.637h.785v-3.99c0-.564.062-1.047.184-1.435.17-.55.482-.948.929-1.186.15-.08.325-.146.521-.196.196-.05.387-.076.566-.076h.723v-.754h-.785c-.454 0-.907.12-1.35.358zm3.583-.357h.785v7.637h-.785zm.392-2.953c-.365 0-.566.2-.566.565 0 .364.201.565.566.565.364 0 .565-.2.565-.565 0-.364-.2-.565-.565-.565zm9.961 4.598c-.395-.608-.897-1.066-1.49-1.36a4.32 4.32 0 00-1.936-.443c-.693 0-1.316.147-1.851.436-.408.215-.772.52-1.082.905-.386.471-.65 1.046-.79 1.708-.084.403-.128.955-.128 1.64v6.673h.785v-6.673c0-.527.037-.981.108-1.351.113-.571.319-1.062.612-1.457a2.73 2.73 0 01.912-.777c.435-.232.923-.35 1.45-.35.74 0 1.393.205 1.938.61.335.253.629.588.872.994.163.275.285.548.36.811.076.263.114.54.114.823 0 .305-.036.615-.107.921a2.979 2.979 0 01-.32.824c-.263.454-.61.807-1.034 1.05-.497.283-1.11.427-1.824.427-.416 0-.829-.082-1.23-.245-.401-.162-.822-.446-1.253-.846l-.157-.146v.948l.03.028c.395.363.801.625 1.209.78a3.74 3.74 0 001.337.235c.411 0 .795-.03 1.14-.088.35-.06.678-.171.978-.331a3.567 3.567 0 001.477-1.436 4.24 4.24 0 00.539-2.121 3.942 3.942 0 00-.659-2.189zm-18.4 5.133a.899.899 0 01-.485-.394 1.369 1.369 0 01-.222-.542 7.55 7.55 0 01-.03-.814v-4.275h1.89v-.753h-1.89v-2.043h-.785v2.043h-1.672v.79h1.672v4.27c0 .747.12 1.324.36 1.715.351.572.992.861 1.903.861h1.162v-.753h-1.162c-.282 0-.531-.035-.74-.105z"/></g></g></svg>