<svg xmlns="http://www.w3.org/2000/svg" width="41" height="40" fill="none"><circle cx="20.5" cy="20" r="20" fill="#9F1A84"/><path fill="#fff" d="M19.892 23.798a.368.368 0 01.097.195v.73c0 .097-.049.146-.097.194a.37.37 0 01-.195.098h-.34c-.05 0-.098 0-.098-.05 0 0-.049-.048-.049-.096v-.974c0-.097-.048-.194-.194-.194h.681c.049 0 .146.048.195.097zm5.255-.097h-.146c-.097 0-.146.048-.194.097a.368.368 0 00-.098.195v.486c0-.146.146-.194.244-.194h.243c.097 0 .146-.049.194-.098a.368.368 0 00.098-.194c0-.098-.049-.146-.098-.195-.097-.049-.194-.097-.243-.097zM19.6 16.012v2.482c0 .146.048.195.048.243.05 0 .098.049.244.049h.778c.195 0 .39-.049.536-.243a.782.782 0 00.243-.536v-1.8c0-.195-.049-.39-.243-.536a.781.781 0 00-.536-.243h-1.654c.438.049.584.292.584.584zm10.9-2.19V25.6c0 1.557-1.265 2.822-2.774 2.822h-7.153c-.292 0-.73.049-1.217.535-1.021 1.022-3.552 3.601-3.65 3.65-.096.097-.242.292-.486.243-.049 0-.292-.048-.292-.486v-3.017a.881.881 0 00-.876-.925h-.778c-1.557 0-2.774-1.265-2.774-2.822V13.822C10.549 12.265 11.814 11 13.322 11h14.404c1.558 0 2.774 1.265 2.774 2.822zm-6.813 5.353c0 .292.195.535.536.535h.292a.105.105 0 00.097-.097v-3.552c0-.292-.146-.536-.535-.536h1.654c.195 0 .39.05.535.244.146.146.244.34.244.535v2.92c0 .292.146.535.535.535h.292a.105.105 0 00.097-.097v-3.358c0-.438-.146-.827-.486-1.168-.34-.34-.73-.486-1.168-.486h-1.947a.105.105 0 00-.097.097l-.049 4.428zm-5.012 0c0 .34.195.535.535.535h1.46c.438 0 .828-.146 1.168-.486.34-.34.487-.73.487-1.168v-1.8c0-.438-.146-.828-.487-1.168-.34-.341-.73-.487-1.168-.487h-1.119v-1.314c0-.292-.195-.535-.535-.535h-.292a.105.105 0 00-.098.097l.05 6.326zm-4.963 0c0 .292.194.535.535.535h.292a.105.105 0 00.097-.097v-3.552c0-.292-.146-.536-.535-.536h1.654c.195 0 .39.05.536.244.146.146.243.34.243.535v2.92c0 .292.146.535.535.535h.292a.105.105 0 00.098-.097v-3.358c0-.438-.146-.827-.487-1.168-.34-.34-.73-.486-1.168-.486h-1.946a.105.105 0 00-.098.097l-.048 4.428zm1.46 4.866a.625.625 0 00-.195-.486.625.625 0 00-.487-.195h-.778s-.049 0-.049.049v1.8c0 .146.049.244.195.244h.097s.049 0 .049-.05v-1.459c0-.097-.049-.195-.195-.195h.681c.098 0 .146.05.195.098a.369.369 0 01.097.194v1.168c0 .098.049.244.195.244h.097s.049 0 .049-.05l.049-1.362zm1.8 0a.625.625 0 00-.195-.486.625.625 0 00-.486-.195h-.146a.625.625 0 00-.487.195.625.625 0 00-.194.486v.73c0 .195.048.34.194.487a.625.625 0 00.487.195h.584s.048 0 .048-.05v-.096c0-.146-.097-.195-.194-.195h-.39c-.097 0-.146-.049-.194-.097a.369.369 0 01-.098-.195v-.049h.438c.195 0 .341-.048.487-.194.049-.195.146-.39.146-.536zm1.557-.486c0-.146-.097-.244-.194-.244h-.682v-.291c0-.195-.146-.195-.194-.195h-.098s-.048 0-.048.049v1.849c0 .194.048.34.194.486a.625.625 0 00.487.195h.584s.049 0 .049-.049v-.097c0-.146-.098-.195-.195-.195h-.39c-.097 0-.145-.048-.194-.097a.37.37 0 01-.097-.195v-.778c0-.146-.098-.244-.195-.244h1.07s.05 0 .05-.048l-.147-.146zm1.8.486a.625.625 0 00-.194-.486.625.625 0 00-.487-.195h-.438v-.535c0-.146-.097-.195-.194-.195h-.097s-.05 0-.05.049v2.53c0 .146.05.195.195.195h.584c.195 0 .341-.049.487-.195a.625.625 0 00.195-.486v-.682zm1.85-.486c0-.146-.098-.244-.195-.244h-.097s-.049 0-.049.05v1.897c0-.195-.097-.195-.194-.195H21.4c-.097 0-.146-.048-.194-.097a.368.368 0 01-.098-.195v-1.168c0-.146-.097-.243-.194-.243h-.098s-.048 0-.048.049v1.362c0 .195.048.34.194.487a.625.625 0 00.487.195h.438v.097c0 .097-.049.146-.098.194a.368.368 0 01-.194.098h-.39c-.097 0-.194.049-.194.195V26.183h.584c.195 0 .34-.05.486-.195a.625.625 0 00.195-.487l-.097-1.946zm1.8.486a.625.625 0 00-.194-.486.625.625 0 00-.487-.195h-.778s-.05 0-.05.049v1.8c0 .146.05.244.196.244h.097s.048 0 .048-.05v-1.459c0-.097-.048-.195-.194-.195h.681c.097 0 .146.05.195.098a.369.369 0 01.097.194v1.168c0 .098.049.244.195.244h.097s.049 0 .049-.05l.048-1.362zm1.85 0a.625.625 0 00-.195-.486.625.625 0 00-.487-.195h-.146a.625.625 0 00-.486.195.625.625 0 00-.195.486v.73c0 .195.049.34.195.487a.625.625 0 00.486.195h.584s.049 0 .049-.05v-.096c0-.146-.098-.195-.195-.195h-.39c-.096 0-.145-.049-.194-.097a.37.37 0 01-.097-.195v-.049h.438c.194 0 .34-.048.486-.194.05-.195.146-.39.146-.536zm1.557-.486c0-.146-.098-.244-.195-.244h-.681v-.291c0-.195-.146-.195-.195-.195h-.097s-.049 0-.049.049v1.849c0 .194.049.34.195.486a.625.625 0 00.486.195h.584s.049 0 .049-.049v-.097c0-.146-.097-.195-.195-.195H26.9c-.097 0-.146-.048-.195-.097a.368.368 0 01-.097-.195v-.778c0-.146-.097-.244-.195-.244h1.071s.049 0 .049-.048c-.146 0-.146-.146-.146-.146zm.243-2.336c0-.097-.049-.146-.146-.146H13.858a.436.436 0 00-.438.438v.292c0 .049.048.146.146.146H27.19a.436.436 0 00.438-.438v-.292zm-11.338 2.482h-.146c-.098 0-.146.048-.195.097a.369.369 0 00-.097.195v.486c0-.146.146-.194.243-.194h.243c.098 0 .146-.049.195-.098a.369.369 0 00.097-.194c0-.098-.048-.146-.097-.195-.097-.049-.146-.097-.243-.097z"/></svg>