<svg xmlns="http://www.w3.org/2000/svg" width="41" height="40" fill="none"><circle cx="20.5" cy="20" r="20" fill="#3A3636"/><path fill="#6DB332" fill-rule="evenodd" d="M10.72 14.386a2.742 2.742 0 002.74 2.74 2.742 2.742 0 002.74-2.74 2.742 2.742 0 00-2.74-2.74 2.742 2.742 0 00-2.74 2.74zm.599 0c0-1.165.944-2.142 2.141-2.142 1.166 0 2.142.945 2.142 2.142a2.144 2.144 0 01-2.142 2.142 2.144 2.144 0 01-2.141-2.142zm16.44 1.764c0 1.196.977 2.173 2.174 2.173a2.158 2.158 0 002.173-2.173 2.178 2.178 0 00-2.173-2.174 2.178 2.178 0 00-2.173 2.174zm.6.031a1.56 1.56 0 011.574-1.575 1.56 1.56 0 011.575 1.575 1.56 1.56 0 01-1.575 1.575 1.56 1.56 0 01-1.575-1.575z" clip-rule="evenodd"/><path fill="#EBCA17" fill-rule="evenodd" d="M13.46 15.709a1.33 1.33 0 01-1.322-1.323 1.33 1.33 0 011.322-1.323 1.33 1.33 0 011.323 1.323 1.33 1.33 0 01-1.322 1.323zm0-2.048a.713.713 0 00-.724.725c0 .41.315.724.724.724.41 0 .725-.315.725-.724a.733.733 0 00-.725-.725zm4.883 5.67a2.097 2.097 0 01-2.08-2.079 2.11 2.11 0 014.221 0 2.153 2.153 0 01-2.142 2.079zm0-3.622a1.512 1.512 0 101.511 1.512c.032-.82-.661-1.512-1.511-1.512zm6.456 2.582c0 .725.567 1.292 1.291 1.292.725 0 1.292-.567 1.292-1.292 0-.724-.567-1.291-1.292-1.291-.724 0-1.291.567-1.291 1.291zm.599-.031c0-.378.314-.693.692-.693.378 0 .693.346.693.693a.7.7 0 01-.693.693.699.699 0 01-.692-.693z" clip-rule="evenodd"/><path fill="#F6F6F5" fill-rule="evenodd" d="M7.76 23.772c-.032 0-.063-.063-.063-.095l-.22-.787c-.218.02-.41.064-.61.11a7.707 7.707 0 01-.367.079c.094.661.157 1.07.283 1.795.441.157 1.197.22 1.67.22 1.07 0 1.795-.22 2.33-.63.536-.44.82-1.07.82-1.763 0-1.008-.63-1.48-1.827-1.89-1.008-.346-1.26-.473-1.26-1.008 0-.315.126-.535.283-.63.19-.126.41-.189.662-.189.22 0 .692.063.819.158 0 .015.007.031.015.047s.016.031.016.047l.126.756.363-.058c.201-.031.378-.059.582-.1a17.691 17.691 0 00-.099-1.162 42.44 42.44 0 01-.059-.57c-.252-.126-.819-.22-1.448-.22-1.04 0-1.859.252-2.331.693-.441.378-.756.945-.756 1.637 0 1.071.85 1.575 1.953 1.985.85.315 1.134.44 1.134.976 0 .284-.095.473-.252.599-.19.157-.504.22-.756.22-.284 0-.82-.063-1.008-.22zm4.252-3.118l-.22.913.692-.063v2.646h-.472v.913h2.52v-.913h-.473v-3.937l-2.047.44zm19.78.913l.22-.913 2.047-.441v3.937h.441v.913h-2.52v-.913h.473v-2.646l-.662.063zm-11.843.725c0-1.197-.347-2.08-1.26-2.08-.583 0-1.297.338-1.593.478-.088.041-.14.066-.14.058v-.567l-2.047.473-.22.913.724-.063v4.473h-.472v.913h2.52v-.913h-.473v-1.292s.378.378 1.134.378c.598 0 .976-.283 1.165-.472.599-.599.662-1.701.662-2.3zm-2.048-.977c.19 0 .284.095.378.22.064.127.158.568.158 1.072 0 .598-.095 1.039-.252 1.29a.665.665 0 01-.535.253c-.693 0-.693-.473-.693-.473V21.63c.252-.22.755-.315.944-.315zm4.064 3.748c-.756 0-1.134-.598-1.134-1.26v-2.299l-.567.063.22-.913 1.827-.347v3.15c0 .315.157.472.472.472.22 0 .85-.346.85-.44v-1.985l-.692.063.22-.913 2.048-.473v3.937h.472v.914h-2.047v-.662s-.882.693-1.67.693zm9.196-3.59c0-.662-.378-1.26-1.134-1.26-.818 0-1.826.661-1.826.661v-.693l-2.047.473-.221.913.693-.063v2.646h-.473v.913h2.52v-.913h-.472v-2.362c0-.095.693-.441.913-.441.315 0 .473.157.473.472v2.33h-.473v.914h2.52v-.913h-.473v-2.677z" clip-rule="evenodd"/><path fill="#E95734" fill-rule="evenodd" d="M21.587 12.874a2.245 2.245 0 002.236 2.236 2.245 2.245 0 002.236-2.236 2.245 2.245 0 00-2.236-2.236 2.245 2.245 0 00-2.236 2.236zm.598 0c0-.913.725-1.638 1.638-1.638.913 0 1.638.725 1.638 1.638 0 .913-.725 1.638-1.638 1.638a1.627 1.627 0 01-1.638-1.638zm-5.323.284a1.23 1.23 0 001.229 1.228 1.25 1.25 0 001.228-1.228 1.23 1.23 0 00-1.228-1.229 1.25 1.25 0 00-1.229 1.229zm.567 0c0-.378.315-.662.662-.662.346 0 .661.284.661.662a.665.665 0 01-.661.661.646.646 0 01-.662-.662zm4.914 6.204a.981.981 0 01-.977-.976c0-.535.441-.976.977-.976.535 0 .976.44.976.976 0 .535-.441.976-.976.976zm0-1.354a.383.383 0 00-.378.378c0 .22.189.378.378.378.22 0 .378-.189.378-.378.031-.22-.158-.378-.378-.378zm-8.158.882a1.008 1.008 0 11-2.016 0 1.008 1.008 0 012.016 0z" clip-rule="evenodd"/><path fill="#2195C2" fill-rule="evenodd" d="M23.823 16.748a3.871 3.871 0 01-3.874-3.874c0-2.142 1.764-3.874 3.874-3.874a3.871 3.871 0 013.874 3.874 3.871 3.871 0 01-3.874 3.874zm0-7.181a3.273 3.273 0 00-3.276 3.275c0 1.796 1.48 3.308 3.276 3.308a3.273 3.273 0 003.275-3.276c0-1.795-1.448-3.307-3.275-3.307zM9.114 17.03a1.116 1.116 0 01-1.102-1.102c0-.598.504-1.102 1.102-1.102.599 0 1.102.504 1.102 1.102 0 .598-.503 1.102-1.102 1.102zm0-1.637a.498.498 0 00-.504.504c0 .283.22.503.504.503.284 0 .504-.22.504-.503a.498.498 0 00-.504-.504zm25.04 3.496a1.008 1.008 0 11-2.016 0 1.008 1.008 0 012.016 0z" clip-rule="evenodd"/></svg>