<svg xmlns="http://www.w3.org/2000/svg" id="afisha-yandex__Layer_1" x="0" y="0" version="1.1" viewBox="0 0 80 80" xml:space="preserve"><circle cx="40" cy="40" r="40" fill="#f3f3f3"/><path fill="#fbca07" d="M51.1 13v.4c0 3.3-2.7 5.9-5.9 5.9-3.3 0-5.9-2.7-5.9-5.9V13H28.9v38.8h10.4v-.4c0-3.3 2.7-5.9 5.9-5.9 3.3 0 5.9 2.7 5.9 5.9v.4h10.4V13H51.1zm0 0"/><path fill="#ed1f24" d="M40.7 28.2v.4c0 3.3-2.6 5.9-5.9 5.9-3.3 0-5.9-2.7-5.9-5.9v-.4H18.5V67h10.4v-.4c0-3.3 2.7-5.9 5.9-5.9 3.3 0 5.9 2.7 5.9 5.9v.4h10.4V28.2H40.7zm0 0"/><path fill="#f5edde" d="M32.6 45.2h-7.5l6.2 4.2-2.4 7.1L35 52l6.1 4.5-2.4-7.1 6.2-4.2h-7.6l-2.3-7-2.4 7zm0 0"/></svg>