<svg xmlns="http://www.w3.org/2000/svg" xmlns:xlink="http://www.w3.org/1999/xlink" width="60" height="60"><defs><path id="teletie__a" d="M30 60c16.569 0 30-13.431 30-30C60 13.431 46.569 0 30 0 13.431 0 0 13.431 0 30c0 16.569 13.431 30 30 30z"/><path id="teletie__b" d="M24.115 14.217V0H0v28.434h24.115V14.217z"/></defs><g fill="none" fill-rule="evenodd"><use fill="#2477B7" xlink:href="#teletie__a"/><g transform="translate(17 16)"><mask id="teletie__c" fill="#fff"><use xlink:href="#teletie__b"/></mask><path fill="#FFF" d="M0 5.6h7.892v18.234c0 .744.275 1.462.773 2.021a7.743 7.743 0 005.784 2.579h.897V6.127l8.769 1.197v-2.35a4.015 4.015 0 00-2.135-3.533L20.55.675A5.7 5.7 0 0017.859 0H5.238a3.67 3.67 0 00-1.617.375l-.484.238C1.215 1.558 0 3.489 0 5.6z" mask="url(#teletie__c)"/></g></g></svg>