<svg xmlns="http://www.w3.org/2000/svg" xmlns:xlink="http://www.w3.org/1999/xlink" width="60" height="60"><defs><path id="mayak__a" d="M29.703 59.405c16.404 0 29.702-13.298 29.702-29.702C59.405 13.298 46.107 0 29.703 0 13.298 0 0 13.298 0 29.703c0 16.404 13.298 29.702 29.703 29.702z"/></defs><g fill="none" fill-rule="evenodd"><mask id="mayak__b" fill="#fff"><use xlink:href="#mayak__a"/></mask><use fill="#EC6534" xlink:href="#mayak__a"/><path fill="#FFF" d="M45.805 49.377c-.005.006-.015.007-.025.007h-.033l.08-.049.022-.04.015.019-.037.022c-.007.014-.012.03-.022.041M28.292 15.545c.622-.003.726.265.705.79-.03.727-.003 1.456-.002 2.185 0 .297.138.508.435.52.328.014.262-.288.281-.478.081-.795.143-1.591.215-2.416.596.109.583.485.58.858-.003.51-.027 1.022.008 1.53.026.365-.197 1.018.306 1.006.621-.015.264-.684.318-1.064.051-.357.002-.727.024-1.09.01-.165 0-.4.243-.42.268-.022.413.2.412.409-.001 1.054-.007 2.11-.076 3.16-.03.451-.4.31-.675.213-1-.348-1.92-.866-2.85-1.366-.32-.173-.335-.44-.36-.73-.065-.761-.119-1.524-.203-2.284-.055-.5-.019-.82.639-.823m3.314-.669c.568.291 1.088.74.775 1.678-1.556-1.07-3.082-2.03-4.896-2.42 1.561-.73 2.842.086 4.121.742m-3.93-7.589c.25-.03.506-.005.864-.005-.37-.867-1.195-1.519-.761-2.666a36.544 36.544 0 012.976 3.617c.098.137.235.398.18.472-1.04 1.405-.545 2.935-.397 4.437.013.135-.012.274-.02.44-.754-.165-1.452-.33-2.155-.47-.407-.08-.493-.298-.478-.695.038-.983.027-1.969.014-2.953-.006-.523.128-1.053-.487-1.444-.352-.224-.3-.666.264-.733m23.163 34.716c-2.452-1.11-5.028-1.95-7.324-3.398-.722-.455-1.427-.33-2.007.221-.812.77-1.656.8-2.587.297-.032-.017-.066-.038-.1-.043-2.47-.374-3.269-1.864-3.308-4.28-.043-2.649-.524-5.29-.799-7.936-.085-.823-.162-1.59.472-2.354.67-.806-.16-1.893-1.61-2.096.892.674 1.115 1.242.687 2.39-.41 1.103-.069 2.517.058 3.783.294 2.937.694 5.863.97 8.801.067.727.386.975.992 1.188 1.888.663 3.776 1.335 5.627 2.095.722.297 1.06.165 1.069-.568.011-.957.456-.853 1.098-.577 1.513.653 2.884 1.562 4.28 2.414.848.517.371 1.47.367 2.216-.003.645-.703.066-.97.433.108.286.672.391.524.899-.338.273-.674-.234-1.056.01-.2 1.325.567 3.052-1.36 3.791-.073-1.296-.2-2.593-.2-3.89 0-.82-.583-.893-1.074-.927-.657-.045-.383.561-.402.89a18.25 18.25 0 000 2.295c.051.714-.289.825-.9.853-.712.033-.75-.335-.74-.87.023-1.02-.048-2.045.025-3.06.055-.764-.326-1.019-.952-1.186-.49-.132-.665.019-.658.513.012.946-.013 1.894-.009 2.84.003.684-.374.811-.982.825-.71.016-.744-.365-.736-.894.018-1.13-.048-2.263.022-3.388.054-.869-.534-.982-1.093-1.006-.667-.03-.366.571-.382.89a28.67 28.67 0 00-.006 2.623c.022.511-.161.629-.659.736-.962.207-1.217-.11-1.145-1.028.07-.906-.066-1.83.035-2.73.131-1.155-.31-1.691-1.546-1.7 0 1.22-.059 2.452.02 3.675.056.864-.423.818-1.003.83-.614.014-1.045-.023-1.002-.85.065-1.272.025-2.55.012-3.826-.005-.552-1.603-1.49-2.057-1.213-.267.163-.16.457-.163.694-.013 1.166-.038 2.333-.002 3.498.027.878-.511.846-1.137.879-.712.037-.848-.272-.833-.904.039-1.712.047-3.426.011-5.138-.016-.793.207-.902.94-.636 5.435 1.975 10.888 3.914 16.334 5.861.273.098.461.168.839.25h-.005l.166-.228c-4.739-2.522-9.842-4.187-14.776-6.248-.503-.21-1.016-.4-1.524-.601-2.26-.893-2.263-.893-2.318-3.268-.097-4.266-.176-8.532-.3-12.797-.024-.842.192-1.065.967-.671a24.51 24.51 0 001.89.857c.738.3 1.488.591 2.248.437-.12-1.086-.255-2.145-.345-3.208-.032-.368.138-.675.426-.958.794-.779.868-1.681-.003-2.331-1.434-1.071-1.777-2.467-1.458-4.06.58-2.9-1.35-4.697-2.85-6.66-.574-.752-1.398-.487-2.008.126-.847.85-1.65 1.744-2.468 2.624-.36.387-.571.84-.565 1.381.006.62-.059 1.248.021 1.857.232 1.768-.173 3.088-1.987 3.883-1.198.526-1.175 1.158-.114 1.869.46.308.61.651.586 1.173-.045.947-.1 1.9-.041 2.843.052.843-.258 1.307-1.064 1.488-.32.071-.634.17-.941.284-1.326.49-1.515 1.09-.61 2.142.448.518.579 1.065.515 1.711-.321 3.264-.641 6.528-.947 9.793-.037.397-.153.717-.52.89-.955.45-1.913.893-2.876 1.326-.464.208-.798-.13-1.053-.395-1.47-1.521-3.124-1.595-5.01-.876-1.218.465-2.535.665-3.783 1.062-.344.11-.592.116-.784.034l-.888.21C7.653 48.418 17.605 55.986 29.317 56c9.838-.022 18.38-5.295 23.056-13.151-.905-.467-1.534-.846-1.534-.846" mask="url(#mayak__b)"/></g></svg>