<svg xmlns="http://www.w3.org/2000/svg" xmlns:xlink="http://www.w3.org/1999/xlink" width="60" height="60"><defs><path id="mgts__a" d="M30 60c16.569 0 30-13.431 30-30C60 13.431 46.569 0 30 0 13.431 0 0 13.431 0 30c0 16.569 13.431 30 30 30z"/></defs><g fill="none" fill-rule="evenodd"><use fill="#1179A9" xlink:href="#mgts__a"/><path fill="#FFF" d="M40.214 32.027c-.053 2.09-.437 4.095-1.388 5.963-1.24 2.432-3.14 4.083-5.784 4.818-1.513.42-3.053.482-4.607.27-1.706-.234-3.253-.85-4.597-1.941-1.271-1.032-2.183-2.335-2.821-3.839a12.826 12.826 0 01-.924-3.562 15.927 15.927 0 01-.02-3.248c.226-2.516.88-4.918 1.879-7.23.822-1.902 1.852-3.679 3.196-5.26.794-.935 1.684-1.762 2.758-2.376 1.433-.818 2.861-.833 4.302-.024.973.545 1.8 1.267 2.537 2.095 1.83 2.055 3.101 4.436 4.043 7.008a22.119 22.119 0 011.165 4.597c.125.905.176 1.819.261 2.729"/></g></svg>