<svg xmlns="http://www.w3.org/2000/svg" width="41" height="40" fill="none"><circle cx="20.5" cy="20" r="20" fill="#231F20"/><path fill="#fff" fill-rule="evenodd" d="M25.344 13.862c.726-.725 1.872-.764 2.549-.087.677.678.638 1.825-.087 2.549l-5.482 5.482c-.724.724-1.872.763-2.548.085a1.619 1.619 0 01-.38-.608 1.952 1.952 0 01-.166-.776v-5.234l-6.533 6.533a1.878 1.878 0 01-1.79.506h-.008a1.632 1.632 0 01-.749-.42 1.558 1.558 0 01-.251-.334 1.947 1.947 0 01-.307-1.051V11.19c0-1.025.783-1.864 1.742-1.864.957 0 1.74.839 1.74 1.864v5.316l6.52-6.522a1.96 1.96 0 01.299-.243c.298-.255.67-.415 1.078-.415.958 0 1.741.839 1.741 1.864v5.304l2.632-2.632zm-8.853 10.915v3.934h.681v-3.934h-.681zm-1.162 2.631c-.501.025-.942.07-.942.477 0 .255.2.4.556.4.145 0 .317-.024.386-.055v-.822zm-.366 1.363c-.812 0-1.218-.32-1.218-.871 0-.737.767-.882 1.584-.927v-.141c0-.28-.196-.386-.505-.386-.257 0-.568.08-.758.16l-.171-.46a2.777 2.777 0 011.003-.196c.692 0 1.077.27 1.077.963v1.663c-.2.105-.605.195-1.012.195zm-2.14-.06h-.706l-.416-1.538c-.05-.186-.075-.406-.075-.406h-.01s-.03.22-.081.406l-.416 1.538h-.707l-.786-2.701h.687l.385 1.654c.046.2.07.441.07.441h.01s.04-.24.091-.44l.436-1.655h.627l.436 1.654c.05.2.09.441.09.441h.01s.025-.24.07-.44l.386-1.655h.687l-.787 2.701zm4.92 0v-3.934h.683v3.934h-.682zm1.73-1.498c.01-.506.26-.767.616-.767.316 0 .517.205.517.612l-1.133.155zm.045.431l1.74-.236c.01-.08.01-.155.01-.23 0-.737-.416-1.228-1.163-1.228-.787 0-1.253.581-1.253 1.408 0 .832.47 1.413 1.363 1.413.39 0 .771-.08.997-.195l-.195-.51c-.19.1-.482.17-.752.17-.397 0-.687-.196-.747-.592zm3.072 1.107c-.522 0-.766-.285-.766-.851v-1.378h-.347v-.512h.347v-.6l.67-.197v.797h.508v.511h-.508v1.334c0 .22.136.296.311.296.07 0 .15-.02.197-.041v.566c-.082.04-.247.075-.412.075z" clip-rule="evenodd"/><path fill="#B71A35" fill-rule="evenodd" d="M31.72 9.91c.344.345.502.811.48 1.28.002.036.003.07.003.106v9.317c0 1.025-.783 1.863-1.74 1.863-.958 0-1.742-.838-1.742-1.863V15.37l-.607.609c-.725.724-1.872.763-2.549.086-.677-.677-.638-1.824.087-2.549l3.518-3.518c.184-.184.393-.322.616-.418.183-.083.383-.134.591-.145.492-.039.983.116 1.343.476zm-2.862 17.022v1.78h.688v-1.85c0-.581-.372-.912-1.174-.912-.445 0-.792.08-1.077.196v2.565h.681v-2.15c.09-.035.247-.065.407-.065.31 0 .475.166.475.436zm-3.743.422c0-.542.18-.867.542-.867.36 0 .541.325.541.867 0 .541-.18.861-.541.861-.361 0-.542-.32-.542-.861zm-.68.004c0 .808.434 1.413 1.222 1.413.787 0 1.223-.605 1.223-1.413 0-.806-.436-1.408-1.223-1.408-.788 0-1.223.602-1.223 1.408zm6.764-.911c-.355 0-.607.26-.617.766l1.133-.155c0-.406-.2-.611-.516-.611zm1.168.962l-1.739.235c.06.396.35.591.746.591.271 0 .561-.07.752-.17l.196.511c-.226.116-.607.195-.998.195-.891 0-1.363-.58-1.363-1.413 0-.826.466-1.408 1.253-1.408.746 0 1.163.491 1.163 1.228 0 .075 0 .15-.01.23z" clip-rule="evenodd"/></svg>