<svg xmlns="http://www.w3.org/2000/svg" width="40" height="40" fill="none"><path fill="#36163A" d="M40 20.004C40 31.054 31.052 40 20.006 40 8.96 40 0 31.053 0 20.004S8.959 0 20.006 0C31.052 0 40 8.955 40 20.004z"/><path fill="#fff" fill-rule="evenodd" d="M9.29 21.046c.347-.319.52-.771.52-1.357 0-.533-.167-.944-.5-1.234-.332-.289-.83-.433-1.493-.433H6v5.243h1.418v-1.74h.399c.636 0 1.128-.16 1.474-.479zm-1.613-.675h-.259v-1.205h.367c.392 0 .588.177.588.53 0 .21-.062.376-.188.495-.126.12-.295.18-.508.18zm5.565 1.91l.258.984h1.552L13.317 18h-1.892l-1.712 5.265h1.558l.265-.983h1.706zm-.52-2.022l.226.86H11.83c.218-.822.359-1.373.422-1.652.047-.2.09-.401.127-.603.024.131.074.35.15.653.06.248.124.495.191.742zm4.33-.294zm.905-1.943l-.905 1.943-.898-1.944H14.61l1.727 3.239v2.004h1.429v-2.047l1.727-3.195h-1.536zm3.935 0H20.06v5.242h2.043c.618 0 1.106-.137 1.463-.41.358-.274.537-.649.537-1.124 0-.321-.073-.582-.219-.782-.146-.201-.381-.345-.707-.43v-.037a1.01 1.01 0 00.596-.401c.15-.208.226-.46.226-.753 0-.447-.173-.777-.519-.988-.345-.212-.875-.317-1.588-.317zm.014 2.011h-.427v-.94h.398c.445 0 .668.148.668.442 0 .165-.056.289-.167.373-.111.083-.269.125-.472.125zm-.427 2.137v-1.1h.47c.225 0 .397.046.515.14a.481.481 0 01.178.4c0 .374-.221.56-.664.56h-.5zm11.984-4.149l-.904 1.944-.898-1.944h-1.544l1.727 3.239v2.004h1.429v-2.047L35 18.022h-1.537zm-8.627 2.623a2.598 2.598 0 002.604 2.592 2.598 2.598 0 002.605-2.592 2.598 2.598 0 00-2.605-2.592 2.598 2.598 0 00-2.604 2.592z" clip-rule="evenodd"/><path fill="#FFC800" fill-rule="evenodd" d="M24.836 20.644a2.598 2.598 0 002.604 2.592c.809 0 1.531-.367 2.009-.942h-1.227a1.653 1.653 0 010-3.306h1.221a2.604 2.604 0 00-2.003-.936 2.598 2.598 0 00-2.604 2.592zm4.894-1.235h-1.508a1.232 1.232 0 100 2.464h1.512a2.57 2.57 0 00.31-1.229 2.57 2.57 0 00-.314-1.235zm-1.366 1.705a.468.468 0 100-.935.468.468 0 000 .935z" clip-rule="evenodd"/></svg>