<svg xmlns="http://www.w3.org/2000/svg" width="80" height="80"><g fill="none" fill-rule="evenodd"><circle cx="40" cy="40" r="40" fill="#F3F3F3"/><path fill="#FCC92E" d="M6.123 39.632l3.83-1.684s.396.462.363 1.684a8.987 8.987 0 01-.33 2.18L5.99 40.16l.132-.528z"/><path fill="#FBC92E" d="M74.604 44.717H60.042c-.198 0-.33-.132-.33-.33v-6.604c0-.198.132-.33.33-.33h14.562c.198 0 .33.132.33.33v6.604c0 .165-.165.33-.33.33z"/><path fill="#000" fill-rule="nonzero" d="M19.165 40.226c.297.1.495.232.627.43.133.198.232.396.298.66l.627 2.245v.1c0 .032-.066.065-.132.065h-.693c-.034 0-.067-.033-.067-.099l-.56-2.047c-.067-.23-.133-.396-.232-.528a1.565 1.565 0 00-.33-.33 1.651 1.651 0 00-.43-.165c-.165-.033-.33-.033-.495-.033h-1.65v3.07c0 .066 0 .1-.034.1-.033.032-.066.032-.132.032h-.528c-.066 0-.1 0-.132-.033-.033-.033-.033-.066-.033-.099v-6.802c0-.165.033-.297.099-.363.066-.099.198-.132.396-.132h2.444c.33 0 .627.066.924.165.264.1.495.231.693.43.199.198.33.396.43.66.099.264.165.528.165.825 0 .43-.1.793-.33 1.123a2.03 2.03 0 01-.925.726zm.396-1.816c0-.165-.033-.33-.066-.495-.033-.165-.132-.297-.264-.43a1.12 1.12 0 00-.462-.296 1.986 1.986 0 00-.66-.1H16.16v2.708h1.882c.529 0 .892-.132 1.156-.396a1.46 1.46 0 00.363-.99zm4.49 5.283c-.032.033-.065.033-.098.033h-.561c-.067 0-.1 0-.133-.033s-.033-.066-.033-.099v-6.537h-2.113c-.066 0-.099 0-.099-.033s-.033-.066-.033-.1v-.429c0-.066 0-.099.033-.132 0-.033.033-.033.1-.033h5.15c.066 0 .1 0 .1.033.032.033.032.066.032.132v.43c0 .066 0 .099-.033.099-.033.033-.066.033-.099.033h-2.18v6.537c0 .066-.032.1-.032.1z"/><path fill="#FCC92E" fill-rule="nonzero" d="M26.858 38.212c0-.297.034-.561.133-.825.099-.231.23-.462.429-.628.198-.165.43-.33.76-.429.296-.099.66-.132 1.056-.132.198 0 .396 0 .594.033.198.033.396.033.628.1.198.032.396.065.594.131.198.066.363.132.528.198.066.033.1.066.1.1 0 .032 0 .065-.034.132l-.264.726-.066.132h-.132a6.669 6.669 0 00-1.024-.264 4.91 4.91 0 00-.924-.1c-.363 0-.628.067-.793.232-.165.165-.264.33-.264.528 0 .132.033.231.1.33.065.1.164.199.296.298.133.099.298.198.496.297.198.099.429.198.726.297.297.132.595.264.859.396s.528.297.726.462c.198.166.363.397.495.628.132.23.198.528.198.858 0 .363-.066.694-.198.958a1.82 1.82 0 01-.561.66 3.186 3.186 0 01-.825.396c-.33.1-.66.132-1.057.132a6.79 6.79 0 01-1.387-.132c-.495-.099-.924-.23-1.354-.462-.099-.033-.132-.132-.066-.264l.33-.726c.034-.1.133-.132.232-.1a9.7 9.7 0 001.056.364c.363.099.727.132 1.057.132.528 0 .924-.1 1.123-.264.23-.198.33-.397.33-.694a.88.88 0 00-.1-.396c-.065-.099-.131-.231-.263-.297-.133-.066-.265-.198-.463-.264-.198-.1-.396-.165-.66-.264-.396-.133-.727-.298-1.024-.43a2.52 2.52 0 01-.76-.495 1.614 1.614 0 01-.461-.594 1.834 1.834 0 01-.166-.76zm9.642.793l2.51 4.49c.098.165.065.231-.1.231h-.924c-.132 0-.231 0-.297-.033a.338.338 0 01-.165-.198l-1.882-3.434-1.354 1.651v1.783c0 .1 0 .165-.033.198s-.1.033-.198.033h-.793c-.066 0-.132 0-.165-.033a.252.252 0 01-.066-.165v-6.967c0-.099.033-.165.066-.165.033-.033.1-.033.165-.033h.793c.099 0 .165 0 .198.033s.033.1.033.198v3.203l.033.033 1.056-1.354 1.618-1.98c.033-.034.1-.1.165-.1.066-.033.132-.033.265-.033h1.09c.065 0 .098.033.131.066s0 .066-.033.132L36.5 39.005zm4.557 4.688c-.033.033-.1.033-.199.033h-.792c-.099 0-.132 0-.198-.033a.252.252 0 01-.066-.165v-6.967c0-.099.033-.165.066-.165.033-.033.099-.033.198-.033h.792c.1 0 .166 0 .199.033s.066.1.066.198v6.967c-.033.033-.033.1-.066.132zm1.32-7.165c0-.099.033-.165.066-.165.033-.033.1-.033.199-.033h.792c.099 0 .165 0 .198.033s.066.1.066.198v5.283c0 .264.066.463.198.595.132.132.33.165.562.165h2.84c.065 0 .131 0 .131.033.033.033.033.066.033.165v.726c0 .066 0 .132-.033.165s-.066.033-.132.033H44.26a2.57 2.57 0 01-.924-.165c-.264-.099-.43-.23-.561-.429a2.007 2.007 0 01-.298-.594 2.514 2.514 0 01-.099-.694v-5.316zm5.68 0c0-.099.033-.165.066-.165.033-.033.099-.033.198-.033h.792c.1 0 .165 0 .198.033s.066.1.066.198v5.283c0 .264.066.463.198.595.133.132.33.165.562.165h2.84c.065 0 .131 0 .131.033.034.033.034.066.034.165v.726c0 .066 0 .132-.034.165-.033.033-.066.033-.132.033h-3.07a2.57 2.57 0 01-.925-.165c-.264-.099-.43-.23-.561-.429a2.007 2.007 0 01-.297-.594 2.514 2.514 0 01-.1-.694v-5.316h.034zm5.547 1.684c0-.297.033-.561.132-.825.099-.231.231-.462.43-.628.197-.165.428-.33.759-.429.297-.099.66-.132 1.056-.132.198 0 .396 0 .594.033.199.033.397.033.628.1.198.032.396.065.594.131.198.066.363.132.528.198.067.033.1.066.1.1 0 .032 0 .065-.033.132l-.265.726-.066.132h-.132a6.691 6.691 0 00-1.023-.264 4.91 4.91 0 00-.925-.1c-.363 0-.627.067-.792.232-.165.165-.264.33-.264.528 0 .132.033.231.099.33.066.1.165.199.297.298.132.099.297.198.495.297.198.099.43.198.726.297.298.132.595.264.859.396s.528.297.726.462c.198.166.364.397.496.628.132.23.198.528.198.858 0 .363-.066.694-.198.958a1.82 1.82 0 01-.562.66 3.186 3.186 0 01-.825.396c-.33.1-.66.132-1.057.132a6.79 6.79 0 01-1.387-.132c-.495-.099-.924-.23-1.353-.462-.1-.033-.132-.132-.066-.264l.33-.726c.033-.1.132-.132.231-.1.33.133.693.265 1.057.364.363.099.726.132 1.056.132.528 0 .925-.1 1.123-.264.23-.198.33-.397.33-.694a.88.88 0 00-.1-.396c-.065-.099-.131-.231-.263-.297-.132-.066-.264-.198-.462-.264-.199-.1-.397-.165-.66-.264-.397-.133-.727-.298-1.024-.43a2.52 2.52 0 01-.76-.495 1.614 1.614 0 01-.462-.594 1.834 1.834 0 01-.165-.76z"/><path fill="#000" fill-rule="nonzero" d="M61.396 43.198a.6.6 0 01-.198.462.6.6 0 01-.462.198.6.6 0 01-.462-.198.6.6 0 01-.199-.462.6.6 0 01.199-.462c.132-.132.264-.165.462-.165s.33.066.462.165a.652.652 0 01.198.462zm4.854-2.972c.297.1.495.232.627.43.132.198.231.396.298.66l.627 2.245v.1c0 .032-.066.065-.132.065h-.694c-.033 0-.066-.033-.066-.099l-.56-2.047c-.067-.23-.133-.396-.232-.528a1.565 1.565 0 00-.33-.33 1.659 1.659 0 00-.43-.165c-.165-.033-.33-.033-.495-.033h-1.65v3.07c0 .066 0 .1-.034.1-.033.032-.066.032-.132.032h-.528c-.066 0-.1 0-.132-.033-.033-.033-.033-.066-.033-.099v-6.802c0-.165.033-.297.099-.363.066-.099.198-.132.396-.132h2.41c.33 0 .628.066.925.165.264.1.495.231.693.43.198.198.33.396.43.66.099.264.165.528.165.825 0 .43-.1.793-.33 1.123-.199.33-.496.561-.892.726zm.396-1.816c0-.165-.033-.33-.066-.495-.033-.165-.132-.297-.264-.43a1.12 1.12 0 00-.462-.296 1.986 1.986 0 00-.66-.1h-1.949v2.708h1.882c.529 0 .892-.132 1.156-.396a1.46 1.46 0 00.363-.99zm1.85-2.047c0-.033.032-.033.065-.033h.628c.033 0 .066 0 .066.033s.033.066.033.1v4.028c0 .462.033.858.099 1.188.066.33.165.595.33.826.165.198.396.363.726.462.298.099.727.165 1.255.165.132 0 .33 0 .627-.033.298-.033.595-.066.925-.132v-6.505c0-.066 0-.099.033-.099s.033-.033.066-.033h.627c.033 0 .066 0 .066.033v6.538c0 .231-.033.396-.132.528s-.264.231-.528.264-.561.1-.891.1c-.33.032-.595.032-.826.032a6.16 6.16 0 01-1.486-.165 2.382 2.382 0 01-.99-.528c-.264-.264-.43-.594-.529-1.024a7.073 7.073 0 01-.165-1.584v-4.062c-.033-.066-.033-.099 0-.099zM9.853 41.646a5.356 5.356 0 00.264-1.618c0-.627-.132-1.221-.33-1.816l.627-.198c.264.66.396 1.354.396 2.047 0 .628-.099 1.222-.297 1.85l-.66-.265zM5.132 40.16c0 .265 1.585.529 1.519.793l.33.132c.1-.297.165-.594.165-.892 0-.363-.066-.693-.198-.99l-.33.099c.066.264-1.486.561-1.486.858z"/><path fill="#000" d="M14.245 43.66h-.033l-8.618-3.037c-.132-.066-.297-.1-.33-.165-.033-.033-.132-.133-.132-.265v-.264c0-.132.1-.23.132-.297.033-.066.165-.099.297-.132l8.618-3.038h.132s.066 0 .066.066v.562c0 .066-.033.099-.033.132 0 0-.033.033-.099.066l-3.533 1.254-.693.232-3.896 1.287v.1c.066.032 8.056 2.674 8.122 2.707.066.033.132.066.132.165v.594c0 .066-.033.066-.066.066 0-.033-.033-.033-.066-.033z"/></g></svg>