<svg xmlns="http://www.w3.org/2000/svg" width="40" height="40" fill="none"><path fill="#1D1F23" fill-rule="evenodd" d="M20 40c11.046 0 20-8.954 20-20S31.046 0 20 0 0 8.954 0 20s8.954 20 20 20z" clip-rule="evenodd"/><path fill="#E00A1E" fill-rule="evenodd" d="M7 26.38h27v-1.102H7v1.103z" clip-rule="evenodd"/><path fill="#fff" fill-rule="evenodd" d="M28.122 16v1.08h1.686v7.566h1.32v-7.565h1.687V16h-4.693zm-1.43 5.8c.487-.135.843-.562.843-1.067v-3.652c0-.614-.526-1.081-1.174-1.081h-2.933v8.647h1.32V17.08h1.027c.256 0 .44.203.44.439v3.074c0 .202-.184.405-.44.405h-.734l1.174 3.648h1.393l-.916-2.847zm-4.29 2.847L20.64 16h-1.467l-1.76 8.647h1.32l1.173-6.485.782 4.323h-1.368l.293 1.081h1.271l.196 1.08h1.32zM12.866 16v1.08h1.687v7.566h1.32v-7.565h1.687V16h-4.694zm-.44 8.648h-1.32v-1.165c0-.255-.074-.505-.214-.723l-2.292-3.11a2.672 2.672 0 01-.428-1.446v-1.092c0-.614.526-1.111 1.174-1.111h1.76c.648 0 1.173.497 1.173 1.111v1.59h-1.32v-1.204a.43.43 0 00-.44-.417h-.586a.43.43 0 00-.44.417v.698c0 .254.073.505.213.722L12 22.028c.279.431.427.933.428 1.446v1.174zm-4.254-.001h1.32v-1.081h-1.32v1.08z" clip-rule="evenodd"/></svg>