<svg xmlns="http://www.w3.org/2000/svg" xmlns:xlink="http://www.w3.org/1999/xlink" width="80" height="80"><defs><circle id="ru-benetton__a" cx="40" cy="40" r="40"/></defs><g fill="none" fill-rule="evenodd"><use fill="#009848" xlink:href="#ru-benetton__a"/><path fill="#FFF" fill-rule="nonzero" d="M11.27 33.434h-.792v3.232c0 1.243-.7 1.624-1.58 1.624-1.063 0-1.58-.556-1.58-1.624v-3.232h-.791v3.386c0 1.502 1.034 2.197 2.372 2.197 1.507 0 2.372-.843 2.372-2.197v-3.386zm5.773 0H16.3V37.7l-3.313-4.266h-.667v5.51h.744v-4.241l3.287 4.241h.693v-5.51zm1.273 5.51h.792v-5.51h-.792v5.51zm5.498-5.51H19.85v.683h1.619v4.827h.79v-4.827h1.554v-.683zm3.868 0h-3.127v5.51h3.2v-.683h-2.408v-1.81h2.255v-.684h-2.255v-1.65h2.335v-.683zm1.852 4.827v-4.144h.937c1.504 0 2.227.965 2.227 2.072 0 1.164-.785 2.072-2.227 2.072h-.937zm1.05-4.827h-1.84v5.51h1.84c1.933 0 2.93-1.347 2.93-2.755 0-1.3-.893-2.755-2.93-2.755zm18.083 0h-.791v5.51h3.07v-.683h-2.279v-4.827zm9.757 2.448v-1.778h.806c.754 0 1.083.372 1.083.89 0 .461-.27.888-1.083.888h-.806zm.894-2.448h-1.685v5.51h.791v-2.391h.985l1.502 2.391h.945c-.38-.525-1.65-2.59-1.65-2.59.13-.052.923-.327.923-1.376 0-.955-.695-1.544-1.81-1.544zm-20.31-.073c-1.754 0-3.022 1.228-3.022 2.909 0 1.153.905 2.747 2.973 2.747.953 0 1.523-.2 1.578-.218v-.789c-.048.02-.639.28-1.506.28-1.324 0-2.229-.857-2.229-2.094 0-1.211.937-2.109 2.197-2.109.755 0 1.48.3 1.538.324v-.792c-.05-.017-.716-.258-1.529-.258zm4.925 4.931a2.094 2.094 0 01-2.103-2.103 2.094 2.094 0 012.103-2.103 2.093 2.093 0 012.104 2.103 2.094 2.094 0 01-2.104 2.103zm0-4.93c-1.623 0-2.912 1.266-2.912 2.827 0 1.562 1.288 2.826 2.912 2.826 1.623 0 2.912-1.264 2.912-2.826 0-1.561-1.289-2.827-2.912-2.827zm9.89 4.93a2.093 2.093 0 01-2.102-2.103 2.092 2.092 0 012.102-2.103 2.093 2.093 0 012.103 2.103 2.093 2.093 0 01-2.103 2.103zm0-4.93c-1.622 0-2.912 1.266-2.912 2.827 0 1.562 1.29 2.826 2.912 2.826 1.623 0 2.912-1.264 2.912-2.826 0-1.561-1.29-2.827-2.912-2.827zm10.243-.002c-1.108 0-1.775.652-1.775 1.472 0 .738.415 1.154 1.002 1.437.136.066.586.278.779.37.307.147.858.417.858.901 0 .368-.376.765-1.144.765-.754 0-1.12-.314-1.217-.388l-.364.69c.065.048.511.409 1.613.409.986 0 1.904-.456 1.904-1.527 0-.935-.848-1.338-1.352-1.574l-.603-.287c-.37-.176-.685-.413-.685-.826 0-.379.322-.73.986-.73.632 0 1.008.237 1.086.286l.24-.671c-.03-.02-.503-.327-1.328-.327zm-48.114 8.134h-2.943v5.513h.793v-2.563h2.15v-.683h-2.15v-1.584h2.15v-.683zM9.2 46.354a2.094 2.094 0 01-2.105-2.103A2.094 2.094 0 019.2 42.147a2.095 2.095 0 012.105 2.104A2.095 2.095 0 019.2 46.355zm0-4.931c-1.624 0-2.914 1.266-2.914 2.828 0 1.562 1.29 2.827 2.913 2.827 1.625 0 2.914-1.265 2.914-2.827s-1.289-2.828-2.914-2.828zm22.75.07h-.743v4.27l-3.315-4.27h-.667v5.514h.744v-4.244l3.29 4.244h.692v-5.513zm24.164 0h-.744v4.27l-3.316-4.27h-.666v5.514h.744v-4.244l3.288 4.244h.694v-5.513zm-15.584 0h-3.965v.684h1.62v4.83h.792v-4.83h1.553v-.683zm4.437 0H41v.684h1.62v4.83h.791v-4.83h1.555v-.683zm-18.736 0h-3.128v5.514h3.201v-.683h-2.41v-1.812h2.256v-.683h-2.255v-1.652h2.336v-.683zm9.852 0h-3.128v5.514h3.2v-.683h-2.408v-1.812h2.255v-.683h-2.255v-1.652h2.336v-.683zm11.698 4.862a2.094 2.094 0 01-2.103-2.104 2.094 2.094 0 012.103-2.104 2.094 2.094 0 012.104 2.104 2.094 2.094 0 01-2.104 2.104zm0-4.932c-1.624 0-2.913 1.266-2.913 2.828 0 1.562 1.29 2.827 2.913 2.827 1.625 0 2.914-1.265 2.914-2.827s-1.289-2.828-2.914-2.828zm-28.523 4.901v-1.772h1.044c.804 0 1.13.39 1.13.893 0 .411-.234.879-1.13.879h-1.044zm0-2.456v-1.69h.879c.621 0 1.01.302 1.01.838 0 .565-.42.852-1.01.852h-.878zm1.008-2.374h-1.8v5.513h1.892c1.404 0 1.891-.793 1.891-1.472 0-1.162-.935-1.379-1.03-1.404v-.016c.067-.03.745-.277.745-1.215 0-.744-.543-1.406-1.698-1.406zm37.085 4.425a.546.546 0 100 1.093.546.546 0 000-1.093z"/></g></svg>