<svg xmlns="http://www.w3.org/2000/svg" width="41" height="40" fill="none"><path fill="#E03B5B" fill-rule="evenodd" d="M20 40c11.046 0 20-8.954 20-20S31.046 0 20 0 0 8.954 0 20s8.954 20 20 20z" clip-rule="evenodd"/><path fill="#000" fill-rule="evenodd" d="M17.698 19.339c0 .117.041.24.107.316a.585.585 0 01-.234.056c-.275 0-.439-.245-.439-.515 0-.341.26-.729.898-.729.19 0 .382.044.558.083.24.054.449.1.584.024.056.03.076.087.076.143 0 .102-.066.21-.189.21h-.005l-.193 2.88 1.254-2.835c.097-.245.265-.347.464-.347.096 0 .234.026.295.072l-.443 3.12c-.041.32.03.402.178.402.152 0 .366-.125.5-.228l.3-1.413c.016-.087-.005-.138-.056-.138-.025 0-.06.02-.107.066-.071-.04-.107-.209 0-.295.184-.148.378-.26.607-.26.194 0 .3.091.26.295l-.061.296c.214-.438.448-.591.698-.591.26 0 .398.204.398.428 0 .245-.153.51-.433.51a.56.56 0 01-.159-.02c.036-.031.062-.103.062-.169 0-.076-.056-.138-.168-.138-.179 0-.434.245-.71 1.494l-.065.331c-.056.25-.26.342-.454.342a.454.454 0 01-.255-.071l.062-.291c-.246.22-.505.367-.76.367-.296 0-.617-.148-.54-.642l.361-2.447-1.182 2.773c-.097.25-.26.321-.46.321a.472.472 0 01-.26-.071l.194-2.401.026-.632c-.714 2.33-1.285 3.094-1.927 3.094-.27 0-.464-.26-.464-.744 0-.316.214-.408.459-.408.097 0 .194.03.27.092a1.458 1.458 0 00-.112.555v.051c.428-.163.974-.83 1.764-3.471h-.026c-.494.005-.673.285-.673.535zm5.71 3.1a.358.358 0 00-.362-.378.405.405 0 00-.398.377.35.35 0 00.357.378.406.406 0 00.403-.378zm1.86-.016c-.275.224-.555.311-.79.311-.27 0-.474-.117-.474-.377 0-.235.199-.495.561-.495.153 0 .296.02.438.051.031-.05.062-.102.092-.168l1.377-2.727c-.14.003-.277 0-.409-.003-.443-.012-.837-.022-1.187.237a.502.502 0 01-.143-.331c0-.24.148-.449.5-.449.312 0 .604.047.901.094.31.05.624.1.975.1.112 0 .23-.046.27-.087.066.02.092.087.092.143a.264.264 0 01-.245.255l-1.336 2.65a2.737 2.737 0 01-.285.46c.234.071.459.132.693.132.332 0 .568-.115.708-.22a1.572 1.572 0 01-.01-.172c0-.949.612-1.892 1.367-1.892.24-.005.418.056.555.174a.487.487 0 01.367-.158c.097 0 .19.025.255.071l-.377 1.795c-.066.3.02.402.163.402.171 0 .368-.102.508-.214l.298-1.422c.015-.087-.005-.138-.056-.138-.026 0-.062.02-.108.067-.07-.041-.107-.21 0-.296.184-.148.378-.26.607-.26.194 0 .3.092.26.296l-.331 1.565c-.067.3.02.402.163.402.168 0 .362-.098.501-.21l.304-1.426c.02-.087-.005-.138-.056-.138-.025 0-.06.02-.107.067-.071-.041-.107-.21 0-.296.184-.148.377-.26.607-.26.194 0 .31.092.26.296l-.056.244c.224-.321.494-.54.8-.54.224 0 .47.173.454.556.23-.327.5-.556.81-.556.245 0 .597.163.454.795l-.22 1.066c-.06.275.011.397.118.397.097 0 .224-.066.3-.26.103 0 .164.056.164.148 0 .377-.444.632-.75.632-.27 0-.657-.138-.52-.77l.23-1.075c.04-.174.051-.322-.127-.322-.184 0-.332.097-.47.25l-.336 1.575c-.056.25-.26.342-.453.342a.454.454 0 01-.255-.071l.377-1.774c.035-.174.05-.322-.128-.322-.193 0-.351.108-.5.28l-.33 1.545c-.057.25-.26.342-.454.342a.454.454 0 01-.255-.071l.059-.276c-.23.199-.51.347-.788.347-.218 0-.466-.1-.5-.396-.244.223-.554.396-.8.396-.255 0-.51-.117-.505-.545-.23.32-.515.545-.82.545-.351 0-.529-.22-.612-.469-.16.204-.508.48-.892.48-.47-.016-.714-.164-.902-.322zm-.943-.23c0 .072.067.138.2.138.111 0 .224-.056.346-.214a.69.69 0 00-.3-.076c-.154-.005-.246.076-.246.153zm4.232-1.855a.78.78 0 01.254.04l-.305 1.454c-.143.199-.373.341-.546.341-.168 0-.29-.117-.29-.387 0-.591.229-1.448.886-1.448zm2.166-1.463a.34.34 0 01.347.377.437.437 0 01-.424.378c-.209 0-.367-.169-.336-.378a.42.42 0 01.413-.377z" clip-rule="evenodd"/><path fill="#fff" d="M9.613 16A4.612 4.612 0 005 20.613a4.612 4.612 0 004.613 4.614 4.612 4.612 0 004.614-4.614A4.612 4.612 0 009.613 16zm3.029 4.726l-.123.5a1.413 1.413 0 01-1.366 1.06c-.729 0-1.274-.347-1.534-.928-.266.576-.806.927-1.535.927a1.402 1.402 0 01-1.366-1.06l-.122-.5a.178.178 0 01.086-.198.177.177 0 01.214.03.427.427 0 00.311.133.444.444 0 00.423-.306c.133-.408.398-.943 1.096-.943.373 0 .699.189.887.48.189-.291.52-.48.887-.48.699 0 .959.54 1.096.943.062.183.24.306.434.306.117 0 .23-.046.316-.133a.185.185 0 01.214-.03c.066.04.102.122.082.199z"/></svg>