<svg xmlns="http://www.w3.org/2000/svg" width="40" height="40" fill="none"><path fill="#FFEFCC" d="M20 40c11.046 0 20-8.954 20-20S31.046 0 20 0 0 8.954 0 20s8.954 20 20 20z"/><path fill="#343434" d="M17.509 16.892h2.771c.423 0 1.257.018 1.714.695.178.263.307.667.265 1.222a2.639 2.639 0 01-.737 1.682c-.682.704-1.517.808-2.1.808h-.949l-.426 2.17h-1.842l1.304-6.577zm1.251 2.96h.526c.217 0 .576-.028.809-.263a.968.968 0 00.25-.574.708.708 0 00-.107-.441c-.135-.197-.387-.236-.65-.236h-.526l-.302 1.513zM24.46 16.892h2.235l1.036 6.576h-1.935l-.141-1.137h-2.236l-.612 1.137h-1.992l3.645-6.576zm-.404 3.993h1.503l-.296-2.423-1.207 2.423zM29.25 20.913l-1.473-4.021h2.077l.715 2.349 1.624-2.35h1.973l-3.074 4.022-.502 2.555h-1.841l.502-2.555z"/><path fill="#FFAE00" d="M14.773 24.585h-8.94l2.03-10.002h8.94l-2.03 10.002z"/><path fill="#272727" d="M12.505 15.726c.485 0 1.2.022 1.659.517.214.232.406.607.362 1.18-.054.716-.387 1.19-.807 1.5-.293.22-.633.341-.734.374l-.002.022c.336.077.685.265.91.519.202.232.393.628.348 1.224a2.411 2.411 0 01-.772 1.61c-.32.297-.973.77-2.197.77H7.326l1.529-7.716h3.65zm-1.745 6.173c.298 0 .608-.011.883-.166.242-.132.413-.364.44-.716.024-.32-.119-.474-.212-.552-.188-.144-.496-.154-.793-.154h-.97l-.32 1.588h.972zm.556-3.13c.177 0 .52-.022.762-.166.312-.188.366-.463.38-.662.015-.186-.025-.396-.214-.529s-.507-.144-.628-.144h-.904l-.3 1.5h.904z"/></svg>