<svg xmlns="http://www.w3.org/2000/svg" width="40" height="40" fill="none"><path fill="#F58A1F" fill-rule="evenodd" d="M20 40c11.046 0 20-8.954 20-20S31.046 0 20 0 0 8.954 0 20s8.954 20 20 20z" clip-rule="evenodd"/><path fill="#fff" d="M34.901 15.82c-.326-1.182-1.529-1.896-2.711-1.569-1.182.326-1.896 1.529-1.569 2.711.244.897.367 1.855.367 2.792 0 5.951-4.831 10.782-10.782 10.782-.571 0-1.121-.041-1.651-.122 2.507-.571 4.382-2.813 4.382-5.483a5.623 5.623 0 00-5.625-5.625 5.623 5.623 0 00-5.626 5.625c0 .611.102 1.182.265 1.732a10.704 10.704 0 01-2.507-6.889c0-4.892 3.302-9.172 8.01-10.415a2.203 2.203 0 001.57-2.711 2.202 2.202 0 00-2.711-1.569C9.648 6.832 5.001 12.885 5.001 19.795 5.001 28.192 11.829 35 20.206 35c8.398 0 15.205-6.828 15.205-15.205 0-1.366-.163-2.691-.51-3.975zm-5.197-5.7a3.668 3.668 0 10-7.3-.724 3.668 3.668 0 007.3.724z"/></svg>