<svg xmlns="http://www.w3.org/2000/svg" width="80" height="80"><g fill="none" fill-rule="evenodd"><circle cx="40" cy="40" r="40" fill="#333"/><path fill="#66B361" d="M47.589 53.717c-1.21 1.362-2.373 2.616-3.793 3.634-5.011 3.593-13.037 3.53-17.599-.186-2.748-2.24-4.023-5.281-4.695-8.62-.358-1.777-.482-3.575-.48-5.385.004-7.385.018-14.769-.022-22.153-.005-.853.245-1.014 1.055-1.003 3.489.045 6.98.043 10.47 0 .764-.009.997.136.994.943-.028 6.978-.012 13.957.02 20.936.005 1.401.25 2.778.67 4.13 1.614 5.2 7.678 4.891 10.186 1.958 1.167-1.365 1.774-2.9 1.77-4.7-.019-7.415.006-14.83-.028-22.246-.004-.815.184-1.037 1.033-1.024 3.49.053 6.98.048 10.47.003.8-.01 1.05.136 1.047.992-.04 8.537-.029 17.074-.022 25.611.002 3.86.071 7.718.326 11.57.048.727-.07 1-.919.983-3.044-.062-6.091-.038-9.137-.012-.575.005-.807-.108-.852-.73-.113-1.57-.323-3.135-.494-4.701"/></g></svg>