<svg xmlns="http://www.w3.org/2000/svg" xmlns:xlink="http://www.w3.org/1999/xlink" width="80" height="80"><defs><circle id="konik__a" cx="40" cy="40" r="40"/></defs><g fill="none" fill-rule="evenodd"><use fill="#ED1B32" xlink:href="#konik__a"/><g fill="#FFF"><path d="M26.317 22.945c.373-.372 5.4-5.213 5.773-5.586.186-.186.372-.372.372-.745v-2.048c0-.558.373-.745.931-.372.931.558 1.49 1.303 1.676 2.048.186.372.559.372.931.559 4.283 2.42 6.331 10.055 4.655 13.593-.186.372-.186.93.187 1.117 2.979 2.234 7.075 4.469 11.172 5.959.372.186 1.117 0 1.303-.187.373-.186 2.794-1.49 3.166-1.675.931-.373 2.234-.373 2.98.186.558.558 1.116 1.303 1.303 1.862.558 1.676 1.676 2.42 3.165 2.048.745-.186 1.304.559.931 1.304-.558 1.117-1.676 2.048-2.98 2.606-.93.373-2.42.373-3.537-.372-.745-.559-2.607-2.98-2.98-3.352-.372-.372-1.303-.186-1.489.373-.745 1.303-1.117 5.958-.931 7.82.186 1.676 1.49 7.821 1.676 8.38.186.745.186 1.676-.559 2.048-.745.186-1.117.372-1.676.559-1.117.372-1.862.372-2.234-1.118-.559-1.862-2.048-7.262-2.235-8.193-.372-1.117-.744-1.862-1.675-2.42-.56-.373-3.538-1.676-6.331-3.166-2.421-1.117-4.656-2.42-5.4-2.793-1.304-.559-2.98-.745-3.91-.372-.746.372-7.263 3.724-8.008 4.096-1.117.559-2.048.745-2.607-.186-.372-.745-.558-.931-.93-1.676-.373-.745 0-1.676.744-2.048 2.793-1.49 6.331-3.538 8.007-4.655 2.235-1.49 3.91-4.097 4.283-6.331.186-1.304.558-3.166.558-3.91 0-.56-.186-1.304-1.117-1.118-.93.186-2.048.372-2.42.559-.56 0-1.49.372-1.863-.559-.558-.745-.372-.559-.744-1.49-.931 0-.559-.372-.187-.745z"/><path d="M56.67 59.442c-3.911 1.676-7.635 2.607-12.104 2.607-13.407 0-24.58-8.007-28.676-20.11-.186-.745-1.117-.931-1.862-.745l-2.235.745c-.558.186-.93.93-.745 1.675C15.89 57.394 28.924 66.89 44.38 66.89c5.4 0 9.87-1.117 14.525-2.979.744-.372.93-1.117.558-1.676l-1.117-2.234c-.186-.559-.931-.931-1.676-.559z"/></g></g></svg>