<svg xmlns="http://www.w3.org/2000/svg" xmlns:xlink="http://www.w3.org/1999/xlink" width="80" height="80"><defs><path id="ponominalu__a" d="M0 .003h79.678v79.678H0z"/><path id="ponominalu__c" d="M.076.018h76.443v69.174H.076z"/></defs><g fill="none" fill-rule="evenodd"><circle cx="40" cy="40" r="40" fill="#FF3530"/><g transform="translate(0 .098)"><mask id="ponominalu__b" fill="#fff"><use xlink:href="#ponominalu__a"/></mask><path fill="#FF3530" d="M79.678 39.842c0 22.002-17.837 39.839-39.84 39.839C17.837 79.68 0 61.844 0 39.842S17.836.003 39.839.003c22.002 0 39.839 17.837 39.839 39.839" mask="url(#ponominalu__b)"/></g><g transform="translate(1.01 10.805)"><mask id="ponominalu__d" fill="#fff"><use xlink:href="#ponominalu__c"/></mask><path fill="#1A1A1A" d="M22.828 1.137C21.005.35 20.182.205 19.224.018c0 0 .364.484 1.331 1.145 0 0 .865.627 1.103.983 0 0-1.332-.525-2.892-.95A16.124 16.124 0 0014.644.63s.178.263 1.62.983c0 0 .958.458 1.459.958 0 0-1.662-.398-3.079-.475-1.416-.076-3.358-.186-4.91.255 0 0 1.738.5 3.926 1.483 2.189.983 4.707 2.399 5.505 2.967 0 0-1.035.712-1.527 1.101a46.185 46.185 0 00-2.307 2.043c-.551.534-2.12 2.331-2.578 2.941-.458.61-2.4 3.349-3.146 4.806-.747 1.458-1.696 3.204-2.748 6.171-1.052 2.967-1.43 4.162-2.109 7.044-.678 2.882-1.108 5.176-1.176 5.922 0 0-.848.294-1.266.486-.419.192-1.278.599-1.651.836s-.58.428-.58.428 4.34 23.089 29.036 29.327C53.809 74.144 69.176 55.73 69.89 54.67c0 0-1.993-2.488-2.937-3.183 0 0 .526-1.718.984-3.492.458-1.774.656-2.854.729-3.142.074-.288.243-1.085.498-2.61.254-1.526.497-2.68.672-5.612.176-2.933.063-5.34.063-5.34s-.153-1.887-.39-3.662c-.238-1.774-.967-4.311-.967-4.311s-1.205-3.86-2.448-5.69c0 0 5.76-.677 10.425.153 0 0-2.103-2.064-7.248-3.307 0 0-.068-.124 1.73-.237 1.798-.113 1.9-.147 1.9-.147s-3.03-1.605-6.966-1.718c0 0-.034-.135 1.459-.43 1.493-.293 1.628-.417 1.628-.417s-1.3-.43-3.008-.566c-1.707-.135-4.16.159-5.167.34 0 0-2.273-2.204-4.704-3.56-2.431-1.357-5.609-3.108-11.251-4.442-5.642-1.334-12.133-1.786-18.256.121 0 0-1.985-1.491-3.808-2.28z" mask="url(#ponominalu__d)"/></g><path fill="#FFF" d="M22.834 51.16s1.167 1.239 3.664 2.714c2.498 1.476 6.162 2.697 8.725 3.325 2.564.627 6.639 1.543 11.387 1.17 0 0 2.17-.187 3.517-.712 0 0-2.969-2.601-3.9-4.094-.931-1.492-2.092-2.94-2.892-5.755-.8-2.816-.8-5.168-.482-7.882.318-2.713 1.523-5.79 3.1-7.949 1.578-2.16 3.845-3.54 5.883-4.308 2.037-.769 4.009-1.13 4.83-1.221 0 0-1.478-1.086-3.91-2.205-2.432-1.12-6.09-2.375-8.304-2.872-2.212-.498-4.458-1.086-8.106-1.323-3.647-.238-5.553 0-6.134.068 0 0 2.19 1.594 2.969 2.43.777.837 2.278 1.912 3.844 5.62 1.567 3.71.209 9.16.209 9.16s-.986 6.117-6.66 10.369c0 0-2.706 2.227-7.74 3.465"/><path fill="#FEFEFE" d="M15.455 37.137c.08-2.723.424-5.404 1.502-7.932.981-2.301 2.425-4.265 4.524-5.677 2.022-1.36 4.153-1.584 6.38-.5 1.97.958 3.474 2.433 4.698 4.215 2.412 3.51 2.607 7.254 1.108 11.15-.973 2.53-2.479 4.705-4.596 6.411-1.798 1.45-3.872 2.298-6.2 2.136-3.21-.223-5.551-1.643-6.756-5.155-.515-1.503-.678-3.063-.66-4.648m47.33 11.242c1.247-2.422 2.241-4.935 2.52-7.67.253-2.489-.06-4.905-1.216-7.157-1.112-2.168-2.868-3.394-5.342-3.522-2.187-.113-4.218.45-6.15 1.418-3.81 1.906-5.79 5.09-6.362 9.224-.371 2.686-.105 5.318.924 7.835.873 2.138 2.278 3.883 4.394 4.867 2.918 1.356 5.654 1.246 8.406-1.246 1.178-1.066 2.075-2.353 2.825-3.75"/><path fill="#1A1A1A" d="M25.351 25.925c4.515.022 8.21 3.508 8.365 8.106.155 4.598-3.331 8.349-7.8 8.61-5.095.296-8.715-3.577-8.915-7.97-.217-4.767 3.583-8.728 8.35-8.746m34.192 7.855c-3.962-2.164-8.882-.899-11.241 3.05-2.36 3.95-1.121 8.92 2.666 11.308 4.315 2.723 9.357 1.083 11.655-2.665 2.496-4.069 1.085-9.373-3.08-11.693m-18.66 13.434c-.066 1.197-.411 2.411-.88 3.594-.398 1.003-.893 1.956-1.554 2.812-.504.652-1.067 1.248-1.86 1.57-.201.083-.341.072-.504-.104-.667-.724-.948-1.615-1.103-2.55-.32-1.93-.117-3.835.426-5.7.243-.836.582-1.647 1.366-2.153.928-.6 1.872-.45 2.786.01.82.412 1.218 1.135 1.3 2.039.011.132.012.265.023.482"/><path fill="#FEA626" d="M30.325 37.765c.254-1.515.102-2.986-.589-4.363-1.12-2.235-2.927-3.565-5.405-3.966-.931-.151-1.849-.072-2.76.14 2.058-1.821 5.53-1.793 7.674.063 2.14 1.853 2.765 4.635 1.617 7.23a4.715 4.715 0 01-.537.896m19.14 3.974c.51-1.45 1.354-2.663 2.625-3.535 2.061-1.415 4.285-1.706 6.649-.858.888.318 1.653.83 2.348 1.458-.922-2.59-3.974-4.244-6.748-3.656-2.77.587-4.661 2.72-4.911 5.546-.03.348-.01.698.036 1.045"/><path fill="#FED44F" d="M30.325 37.765c-1.173 1.645-2.777 2.508-4.788 2.595-2.822.122-5.258-1.82-6.017-4.376-.673-2.265.198-5.078 2.05-6.407.35-.23.754-.276 1.148-.294 2.985-.139 5.282 1.038 6.85 3.604.63 1.03.904 2.164.976 3.349.031.514-.006 1.04-.219 1.529m19.14 3.974c.231 2.007 1.218 3.538 2.936 4.586 2.411 1.471 5.482.95 7.383-.92 1.684-1.659 2.282-4.542 1.303-6.601-.194-.37-.526-.606-.863-.813-2.545-1.564-5.125-1.644-7.738-.157-1.05.598-1.837 1.458-2.473 2.46-.277.435-.498.913-.549 1.445"/><path fill="#1A1A1A" d="M25.303 37.53c-1.853-.048-3.264-1.51-3.207-3.318a3.278 3.278 0 013.341-3.176c1.795.043 3.254 1.557 3.188 3.361-.07 1.909-1.73 3.254-3.322 3.134m28.671 6.431c1.645.853 3.588.256 4.412-1.355a3.278 3.278 0 00-1.39-4.395c-1.59-.83-3.6-.211-4.415 1.4-.862 1.705-.06 3.685 1.393 4.35"/><path fill="#FED44F" d="M26.227 34.754c-.53-.007-.995-.488-.976-1.01.02-.554.489-1.027 1.017-1.027.536 0 1.003.494.985 1.041a1.005 1.005 0 01-1.026.996m29.98 6.514c.466.25 1.107.054 1.342-.412.25-.494.07-1.136-.394-1.39-.47-.26-1.116-.054-1.365.434a1.005 1.005 0 00.416 1.368"/></g></svg>