<svg xmlns="http://www.w3.org/2000/svg" width="41" height="40" fill="none"><path fill="#010202" fill-rule="evenodd" d="M20.5 40c11.046 0 20-8.954 20-20s-8.954-20-20-20S.5 8.954.5 20s8.954 20 20 20z" clip-rule="evenodd"/><path fill="url(#match-tv__paint0_linear)" fill-rule="evenodd" d="M28.077 17v3.496h-1.16V17H16.873l-2.032 3.272V17H12.66l-1.479 1.95L9.683 17H7.5v6.916h2.183V20.23l1.498 1.94 1.48-1.915v3.662h2.235l.907-1.463h2.305v1.463h2.183v-4.95h1.16v4.95h2.183v-4.95h1.1v3.495h3.343v1.455h2.183V17h-2.183zm-9.969 1.741v1.748h-1.085l1.085-1.748z" clip-rule="evenodd"/><path fill="url(#match-tv__paint1_linear)" fill-rule="evenodd" d="M31.15 21.23V17h2.183v2.918l-2.183 1.313zm1.21.278a1.272 1.272 0 011.133 1.132 1.27 1.27 0 01-2.527.258 1.27 1.27 0 011.393-1.39z" clip-rule="evenodd"/><defs><linearGradient id="match-tv__paint0_linear" x1="5.293" x2="5.293" y1="16.769" y2="25.156" gradientUnits="userSpaceOnUse"><stop stop-color="#FCDF6B"/><stop offset=".224" stop-color="#EFBD50"/><stop offset=".423" stop-color="#CD9638"/><stop offset=".559" stop-color="#AC772A"/><stop offset=".756" stop-color="#8E5C1E"/><stop offset=".892" stop-color="#83551A"/><stop offset="1" stop-color="#996520"/></linearGradient><linearGradient id="match-tv__paint1_linear" x1="36.695" x2="33.71" y1="22.541" y2="15.182" gradientUnits="userSpaceOnUse"><stop stop-color="#F1F1F1"/><stop offset="1" stop-color="#BDBDBD"/></linearGradient></defs></svg>