<svg xmlns="http://www.w3.org/2000/svg" xmlns:xlink="http://www.w3.org/1999/xlink" width="60" height="60"><defs><path id="starnet__a" d="M29.703 59.405c16.404 0 29.702-13.298 29.702-29.702C59.405 13.298 46.107 0 29.703 0 13.298 0 0 13.298 0 29.703c0 16.404 13.298 29.702 29.703 29.702z"/></defs><g fill="none" fill-rule="evenodd"><mask id="starnet__b" fill="#fff"><use xlink:href="#starnet__a"/></mask><use fill="#0F0F0F" xlink:href="#starnet__a"/><path fill="#EC1C23" d="M35.848 7l-9.21 15.152L10 21.855l9.804 9.507-7.427 15.33.631-.06 13.945-6.98 12.46 7.04V31.957L51 23.043H37.63L35.848 7zM23.592 29.895l-4.456-5.068h9.581l4.903-9.53 1.337 9.53 7.687.221-6.796 6.017v8.914l-8.022-4.599-8.921 3.812 4.687-9.297z" mask="url(#starnet__b)"/></g></svg>