<svg xmlns="http://www.w3.org/2000/svg" xmlns:xlink="http://www.w3.org/1999/xlink" width="80" height="80"><defs><circle id="spadream__a" cx="40" cy="40" r="40"/></defs><g fill="none" fill-rule="evenodd"><use fill="#F3F3F3" xlink:href="#spadream__a"/><g fill-rule="nonzero"><path fill="#25262A" d="M64.545 35.172v2.705h.731c.211 0 .42-.056.564-.22.156-.177.186-.455.186-.682v-.91c0-.222-.03-.504-.186-.678-.145-.163-.353-.215-.564-.215h-.731zm0 7.125H63.46v-8.09h1.811c.505 0 1.02.107 1.377.49.36.389.457.942.457 1.455v.768c0 .508-.086 1.053-.445 1.44a1.32 1.32 0 01-.416.296l-.09.04 1.07 3.6h-1.07l-.98-3.462h-.63v3.463zm7.27-8.09h-1.083v6.276c0 .537-.22.897-.79.897-.569 0-.788-.36-.788-.897v-6.276h-1.083v5.848c.003.279 0 .643.052.913.189.984.842 1.433 1.818 1.433.976 0 1.633-.45 1.819-1.433.052-.27.048-.634.052-.913.003-.207.003-.416.003-.623v-5.225zm-31.025 0v11.296h4.49v-1.261h-3.228v-3.83h2.564v-1.114h-2.564v-3.829h3.228v-1.262zm-12.14 1.187h1.626a1.006 1.006 0 011.006 1.002v6.758a1.163 1.163 0 01-1.158 1.162H28.65v-8.922zm-1.261 10.11h2.735c.635 0 1.292-.22 1.744-.676.456-.457.676-1.11.676-1.748v-6.647c0-1.246-.98-2.226-2.231-2.226h-2.924v11.296zM15.817 35.312h1.184c.342 0 .676.089.91.352.248.278.3.705.3 1.065v1.745c0 .36-.052.783-.3 1.065-.23.267-.568.36-.91.36h-1.184v-4.587zm0 10.19v-4.468h1.18c.68 0 1.385-.141 1.864-.657.493-.526.62-1.287.62-1.981v-1.544c0-.698-.13-1.459-.62-1.986-.48-.52-1.188-.66-1.864-.66h-2.453v11.296h1.273zm-3.985-8.658h1.172v-.085c0-.705-.133-1.466-.623-2.008-.464-.512-1.102-.68-1.77-.68-.698 0-1.344.183-1.84.688-.524.534-.676 1.276-.676 2a3.612 3.612 0 00.675 2.137c.43.568.972 1.051 1.495 1.533.51.468.97.936 1.258 1.574.15.33.227.62.227.983 0 .79-.312 1.44-1.195 1.44-.88 0-1.191-.65-1.191-1.44v-.471H8.043v.43c0 .728.155 1.47.686 2 .505.51 1.162.69 1.863.69.675 0 1.325-.166 1.796-.682.498-.538.635-1.295.635-2.008 0-.746-.219-1.529-.668-2.137-.416-.56-.932-1.043-1.452-1.51-.519-.468-1.008-.947-1.306-1.593a2.175 2.175 0 01-.233-.987c0-.371.059-.79.304-1.08.233-.282.572-.386.928-.386.898 0 1.236.653 1.236 1.466v.126zm23.603-1.532h1.183c.342 0 .68.089.913.352.245.278.297.705.297 1.065v1.299c0 .36-.052.783-.297 1.065-.234.267-.568.36-.913.36h-1.183v-4.141zm0 10.19v-4.95h1.106l1.44 4.95h1.243l-1.51-5.088.233-.107c.208-.097.397-.227.553-.393.49-.528.602-1.274.602-1.964v-1.098c0-.698-.13-1.459-.62-1.986-.48-.52-1.188-.66-1.867-.66h-2.45v11.296h1.27zM59.09 34.207l-1.607 5.5-1.603-5.5h-2.072v11.296h1.225V35.461l1.718 5.737h1.467l1.718-5.737v10.042h1.224V34.207z"/><path fill="#CD993D" d="M63.454 45.503h8.358v-1.224h-8.358z"/><path fill="#25262A" d="M24.179 42.271h-2.45l.022-.13c.394-2.475.802-4.505 1.203-6.98.4 2.475.809 4.505 1.202 6.98l.023.13zm.5 3.233h1.27l-2.023-11.297H21.98l-2.018 11.297h1.265c.104-.69.212-1.381.32-2.068l.014-.097h2.784l.014.097c.108.687.216 1.377.32 2.068zm26.057-3.233h-2.45l.022-.13c.394-2.475.803-4.505 1.203-6.98.4 2.475.81 4.505 1.202 6.98l.023.13zm.5 3.233h1.266l-2.019-11.297h-1.944l-2.023 11.297h1.27c.103-.69.21-1.381.318-2.068l.015-.097h2.784l.014.097c.108.687.216 1.377.32 2.068z"/></g></g></svg>