<svg xmlns="http://www.w3.org/2000/svg" width="40" height="40" fill="none"><path fill="#010202" d="M40 20.004C40 31.054 31.052 40 20.006 40 8.96 40 0 31.053 0 20.004S8.959 0 20.006 0C31.052 0 40 8.955 40 20.004z"/><path fill="#fff" d="M7.668 22.19c.123.325.293.603.51.834.216.231.473.408.77.53.297.123.62.184.969.184.34 0 .657-.063.954-.19.297-.128.556-.307.778-.538.221-.23.393-.507.516-.827.123-.32.184-.679.184-1.075V15h1.484v9.898h-1.47v-.92c-.33.35-.719.618-1.167.807-.447.188-.93.282-1.449.282-.528 0-1.02-.091-1.478-.275a3.46 3.46 0 01-1.187-.785 3.702 3.702 0 01-.792-1.223 4.194 4.194 0 01-.29-1.59V15h1.485v6.108c0 .396.06.757.183 1.082zM16.392 15v3.606a3.78 3.78 0 011.146-.785c.433-.193.905-.29 1.414-.29a3.794 3.794 0 012.687 1.103 3.794 3.794 0 011.102 2.672c0 .519-.099 1.006-.297 1.464a3.814 3.814 0 01-.806 1.195 3.794 3.794 0 01-2.686 1.102c-.51 0-.983-.096-1.421-.29a3.755 3.755 0 01-1.153-.784v.905h-1.414V15h1.428zm.163 7.282c.127.302.304.566.53.792.227.226.49.405.792.537.302.132.627.198.976.198.34 0 .66-.066.961-.198.302-.132.564-.311.785-.537.222-.227.398-.49.53-.792.132-.302.198-.627.198-.976s-.066-.676-.198-.982a2.599 2.599 0 00-.53-.8 2.447 2.447 0 00-1.746-.721 2.461 2.461 0 00-1.753.721 2.536 2.536 0 00-.538.8 2.456 2.456 0 00-.198.982c0 .35.064.674.191.976zm6.992-2.432c.188-.453.448-.85.778-1.195a3.614 3.614 0 012.644-1.11c.518 0 .999.095 1.442.283.443.189.825.45 1.145.785.32.334.57.73.75 1.187.179.458.268.955.268 1.492v.467h-5.868a2.45 2.45 0 00.813 1.463c.213.184.453.328.722.432.268.103.553.155.855.155.858 0 1.55-.354 2.079-1.06l1.032.763c-.358.48-.801.858-1.33 1.131-.527.274-1.121.41-1.78.41-.538 0-1.04-.094-1.507-.283a3.668 3.668 0 01-2.029-1.986 3.715 3.715 0 01-.297-1.492c0-.509.095-.99.283-1.442zm1.987-.559c-.401.335-.667.78-.8 1.337h4.398c-.122-.557-.384-1.002-.785-1.337-.4-.334-.87-.502-1.406-.502-.538 0-1.007.168-1.407.502zm7.713.163c-.302.33-.453.778-.453 1.343v4.1h-1.428v-7.21h1.414v.89a2.01 2.01 0 01.7-.693c.288-.17.63-.254 1.025-.254H35v1.33h-.594c-.471 0-.858.164-1.16.494z"/></svg>