<svg xmlns="http://www.w3.org/2000/svg" xmlns:xlink="http://www.w3.org/1999/xlink" width="80" height="80"><defs><circle id="myetginpro__a" cx="40" cy="40" r="40"/></defs><g fill="none" fill-rule="evenodd"><use fill="#0D5E3E" xlink:href="#myetginpro__a"/><g fill="#FFF"><path d="M47.719 26.518c.266.328.43.746.45 1.217.015.334.02.78-.05 1.1a1.891 1.891 0 01-.453.856c-1.535 1.753-6.27 2.391-7.973 2.384-3.4-.014-13.088-.438-12.76-5.295.033-.488.233-.936.564-1.325.006-.199-.006-.38.002-.582a3.089 3.089 0 01.478-1.55c.008-.345.04-.67.093-.968l19.62 3.434c.013.122.022.25.024.382.003.107.004.225.005.347zM34.144 13.202l25.77 2.426.045.004v.842l-2.559 2.63a11.364 11.364 0 00-.841-.215c-2.976-.674-3.444-.163-5.543-.768-.836-.24-3.5-.516-5.086-.496-.903.01-1.34.149-2.764.016-.502-.241-2.245-.301-3.361-.325a.126.126 0 00.021-.059c.027-.309-.952-.408-1.139-.41-.235-.005-1.102.026-1.123.273-.039.444.809.465 1.098.47.134.002.67-.032.966-.153 1.892.303 5.446.662 6.486.498 1.355-.213 5.128.569 8.12.914 2.118.244 2.038.378 2.689.629a.442.442 0 01.165-.053l-5.95 6.116-34.989-6.123v-.842l.106-.032 17.889-5.342zm23.79 10.21c-.298.035-.782.136-.78.482.003.957.022 3.117-.381 3.645-.674.884-.264 1.341-.243 2.242.445.013 1.263.046 1.634.046 0-1.062.762-.608.686-2.15-.074-1.508.51-1.532.51-3.46 0-.225-.456-.773-.699-.808v-.78a.184.184 0 00-.184-.184h-.322a.184.184 0 00-.184.184v.78c-.02 0-.032.002-.036.002z"/><path d="M58.338 22.493c-.35-.25-.573-1.027-.026-1.206.61-.2-.232-.859-.392-1.36-.114-.356-.375-.353-.733-.476.295-.017.437-.301 1.03.103.77.524-.25.56.534.94a.513.513 0 01.106.846c-.165.142-.49.201-.47.438.538.145-.083.69-.049.715zm11.38 21.142c0-.504-.027-.97-.08-1.39a2.778 2.778 0 00-.345-1.078 1.787 1.787 0 00-.763-.695c-.334-.167-.78-.25-1.34-.25h-3.223c-.56 0-1.006.083-1.34.25a1.787 1.787 0 00-.762.695 2.778 2.778 0 00-.346 1.077c-.053.42-.08.887-.08 1.391v3.979c0 .504.027.97.08 1.39.053.425.173.784.346 1.077.175.297.43.53.763.696.333.166.779.25 1.34.25h3.222c.56 0 1.007-.084 1.34-.25.333-.166.587-.399.763-.696.173-.293.292-.652.345-1.076.053-.421.08-.887.08-1.391v-3.979zm-3.374-2.26c.302 0 .54.063.715.186.175.123.304.29.39.5.085.21.14.446.163.704.023.262.035.537.035.823v4.073c0 .286-.012.561-.035.823a2.46 2.46 0 01-.163.703 1.099 1.099 0 01-.39.501c-.174.122-.415.187-.715.187h-1.53c-.3 0-.542-.065-.716-.187a1.102 1.102 0 01-.39-.5 2.458 2.458 0 01-.162-.704 9.25 9.25 0 01-.036-.823v-4.073c0-.286.012-.561.036-.823a2.44 2.44 0 01.163-.703c.085-.212.215-.378.39-.501.174-.123.413-.187.715-.187h1.53zm-55.673 9.652V37.392h2.087v10.746l5.559-10.746h2.086v13.635h-2.086V40.995l-5.19 10.032zm21.697 0V40.221h-2.022v4.344h-4.181v-4.344H24.09v10.806h2.075v-5.345h4.181v5.345zm13.419 0V37.392h-9.732v13.635h2.075V38.532h5.607v12.495zm11.966-3.386v-4.005c0-.505-.026-.97-.08-1.391a2.69 2.69 0 00-.357-1.077 1.848 1.848 0 00-.771-.696c-.334-.167-.776-.25-1.316-.25h-5.754v13.635h2.05V41.374h1.932c.497 0 .894.05 1.188.143.294.093.52.253.672.481.153.229.248.54.294.934.045.39.071.883.071 1.47v3.33c0 .287-.012.561-.035.815a2.112 2.112 0 01-.167.68c-.09.2-.222.36-.398.48-.174.121-.414.18-.715.18h-2.842v1.14h3.704c.557 0 1.006-.08 1.336-.238.333-.16.589-.385.763-.68.175-.297.292-.652.345-1.073.054-.417.08-.886.08-1.395zm-41.589 8.905l-1.043 4.117h-.642l-1.005-3.173-1 3.173h-.637l-1.055-4.117h.722l.726 3.188.978-3.188h.571l1.002 3.188.686-3.188h.697zm5.886 0l-1.043 4.117h-.642L19.36 57.49l-1 3.173h-.637l-1.055-4.117h.723l.726 3.188.977-3.188h.571l1.002 3.188.686-3.188h.697zm5.886 0l-1.043 4.117h-.642l-1.005-3.173-1 3.173h-.637l-1.055-4.117h.723l.726 3.188.977-3.188h.572l1.001 3.188.686-3.188h.697zm1.725 4.117h-.88v-1.05h.88v1.05zm3.275.096c-.655 0-1.165-.185-1.527-.555-.363-.37-.544-.895-.544-1.576 0-.67.176-1.205.527-1.601.352-.397.81-.595 1.38-.595.255 0 .48.036.678.11.196.073.368.189.516.346.147.157.26.35.338.578.08.226.118.506.118.834v.376H31.57c0 .48.12.846.361 1.099.24.252.574.38 1 .38a2.092 2.092 0 00.843-.185c.125-.057.23-.111.316-.164a1.93 1.93 0 00.214-.15h.04v.757l-.302.119c-.12.048-.229.086-.324.112a4.608 4.608 0 01-.366.086c-.11.018-.248.029-.416.029zm.812-2.614a1.892 1.892 0 00-.067-.483 1.003 1.003 0 00-.168-.342.779.779 0 00-.313-.237 1.196 1.196 0 00-.469-.08c-.185 0-.34.027-.47.083a1.127 1.127 0 00-.353.241 1.158 1.158 0 00-.235.359 1.566 1.566 0 00-.103.46h2.178zm2.904 2.598c-.379 0-.673-.106-.884-.322-.212-.215-.318-.555-.318-1.019v-2.281h-.468v-.575h.468v-1.183h.694v1.183h1.274v.575h-1.274v1.957c0 .208.004.37.011.483a.82.82 0 00.084.317c.042.085.11.15.203.194a.94.94 0 00.38.064c.112 0 .221-.017.327-.05a2.27 2.27 0 00.229-.082h.04v.621a3.019 3.019 0 01-.766.118zm4.039-1.197v-2.259a2.347 2.347 0 00-.477-.179 1.8 1.8 0 00-.438-.054c-.35 0-.628.13-.829.388-.201.258-.302.626-.302 1.108 0 .457.077.806.23 1.044.154.237.403.357.746.357.18 0 .365-.035.555-.107a1.73 1.73 0 00.515-.298zm-2.33 1.776a3.826 3.826 0 00.516.174c.128.031.246.058.354.078.109.019.226.029.354.029.214 0 .395-.028.544-.084a.818.818 0 00.348-.237c.08-.1.135-.218.166-.35.032-.133.048-.284.048-.454v-.361c-.186.162-.37.282-.549.36a1.72 1.72 0 01-.674.115c-.47 0-.843-.174-1.121-.523-.278-.349-.417-.85-.417-1.503 0-.342.048-.645.144-.91.095-.263.225-.487.387-.672a1.604 1.604 0 011.206-.552c.214 0 .399.025.555.075a2.3 2.3 0 01.469.215l.04-.176h.653v3.649c0 .698-.152 1.21-.457 1.536-.305.327-.77.49-1.397.49a4.312 4.312 0 01-1.206-.177v-.722h.037zm5.016-.66h-.693v-4.116h.693v4.117zm.048-4.807h-.789v-.718h.789v.718zm4.49 4.808h-.694v-2.344c0-.19-.009-.366-.028-.53a1.13 1.13 0 00-.104-.392.54.54 0 00-.237-.23.936.936 0 00-.412-.076c-.173 0-.35.046-.534.138a2.718 2.718 0 00-.536.36v3.074h-.693v-4.117h.693v.457a2.74 2.74 0 01.612-.424c.202-.099.415-.147.638-.147.406 0 .723.133.95.4.23.266.344.653.344 1.158v2.673zm4.709-2.168c0 .686-.164 1.232-.492 1.638-.328.407-.742.61-1.244.61-.204 0-.384-.023-.541-.07a2.117 2.117 0 01-.484-.216v1.725h-.693v-5.636h.693v.43c.173-.154.364-.284.574-.388.21-.105.44-.156.687-.156.472 0 .84.186 1.104.56.264.373.396.874.396 1.503zm-.715.078c0-.47-.075-.834-.225-1.093-.15-.26-.393-.39-.73-.39-.196 0-.386.045-.568.132a2.46 2.46 0 00-.523.337v2.333c.183.089.338.15.467.18.129.032.277.049.444.049.359 0 .637-.131.837-.394.199-.263.298-.648.298-1.154zm3.9-1.283h-.037a.768.768 0 00-.165-.028 3.323 3.323 0 00-.207-.005c-.188 0-.373.04-.558.122-.183.08-.358.201-.523.361v2.923h-.693v-4.117h.693v.612c.253-.223.474-.382.662-.474a1.25 1.25 0 01.708-.133c.035.004.076.01.12.018v.72zm4.172 1.316c0 .693-.167 1.229-.5 1.605-.336.378-.78.567-1.336.567-.572 0-1.023-.196-1.351-.584-.329-.39-.492-.919-.492-1.588 0-.687.169-1.222.507-1.603.337-.382.783-.571 1.336-.571.555 0 1 .19 1.335.57.334.378.501.914.501 1.604zm-.715 0c0-.532-.096-.929-.292-1.188-.193-.26-.47-.389-.829-.389-.36 0-.64.13-.835.389-.195.26-.293.656-.293 1.188 0 .516.098.907.293 1.174.195.266.474.4.835.4.356 0 .633-.131.828-.393.195-.261.293-.655.293-1.181zm2.723 2.057h-.88v-1.05h.88v1.05zm3.67-3.373h-.036a.768.768 0 00-.165-.028 3.323 3.323 0 00-.207-.005c-.188 0-.373.04-.558.122-.184.08-.359.201-.523.361v2.923h-.694v-4.117h.694v.612a3.21 3.21 0 01.661-.474 1.25 1.25 0 01.709-.133c.035.004.075.01.12.018v.72zm4.03 3.373h-.694v-.457a3.027 3.027 0 01-.609.426 1.4 1.4 0 01-.64.146c-.18 0-.349-.03-.507-.089a1.063 1.063 0 01-.416-.28 1.302 1.302 0 01-.274-.483 2.224 2.224 0 01-.098-.708v-2.672h.693v2.344c0 .219.008.4.024.545.016.143.053.27.108.377a.527.527 0 00.232.232.949.949 0 00.417.074c.17 0 .352-.048.543-.143.191-.097.367-.214.527-.355v-3.074h.693v4.117z"/></g></g></svg>