<svg xmlns="http://www.w3.org/2000/svg" width="41" height="40" fill="none"><circle cx="20.5" cy="20" r="20" fill="#2C3F79"/><path fill="#fff" fill-rule="evenodd" d="M25.92 20.698c.332-.247.503-.6.503-1.051 0-.322-.107-.59-.31-.826-.205-.215-.59-.418-1.17-.633-.429-.16-.708-.279-.858-.365a.81.81 0 01-.322-.257.554.554 0 01-.096-.332c0-.194.085-.344.268-.451.182-.107.44-.16.794-.16.396 0 .836.096 1.33.3l.257-.601A3.91 3.91 0 0024.772 16c-.558 0-1.009.118-1.33.343a1.109 1.109 0 00-.483.944c0 .225.043.418.14.58.096.16.235.3.428.428.193.118.515.268.966.44.482.193.804.343.965.483a.6.6 0 01.247.483c0 .257-.108.45-.311.568-.204.118-.505.182-.89.182-.247 0-.505-.043-.773-.107a3.492 3.492 0 01-.75-.279v.687c.364.203.868.31 1.512.31.611 0 1.083-.117 1.426-.364zm-16.84-.279c.385.44.932.654 1.64.654.494 0 .912-.085 1.234-.246v-.655a3.367 3.367 0 01-1.255.258c-.472 0-.826-.161-1.073-.483-.246-.322-.364-.783-.364-1.383 0-1.266.504-1.899 1.49-1.899.15 0 .322.021.515.075.193.043.376.097.537.161l.225-.633c-.129-.075-.311-.129-.547-.182a3.178 3.178 0 00-.708-.075c-.73 0-1.287.225-1.684.675-.397.44-.59 1.073-.59 1.888 0 .794.193 1.405.58 1.845zm7.336-.14l.15.698h.558v-3.325c0-.569-.129-.987-.419-1.244-.29-.258-.718-.387-1.297-.387a3.498 3.498 0 00-1.652.418l.214.57c.515-.247.976-.376 1.384-.376.365 0 .633.096.794.279.16.182.246.461.246.847v.3l-.825.022c-1.577.043-2.36.558-2.36 1.544 0 .462.129.816.407 1.062.28.247.655.376 1.137.376.354 0 .655-.054.901-.161.247-.107.483-.311.73-.622h.032zm-.43-.192c-.257.246-.621.375-1.083.375-.29 0-.525-.075-.675-.204-.161-.14-.247-.343-.247-.611 0-.333.129-.59.386-.75.268-.173.687-.258 1.277-.28l.74-.032v.44c0 .461-.14.804-.397 1.062zm5.332-4.076c.214 0 .407.021.579.053l-.107.687a2.59 2.59 0 00-.537-.065c-.397 0-.73.161-1.008.483-.279.322-.418.719-.418 1.201v2.618h-.74v-4.892h.611l.086.901h.032c.182-.321.397-.557.654-.729.268-.172.547-.257.848-.257z" clip-rule="evenodd"/><path fill="#00A564" d="M29.91 28.228l3.764-11.349h-4.912v-.783H34.5v.676l-3.743 11.456h-.848z"/><path fill="#fff" fill-rule="evenodd" d="M9.283 22.822a.312.312 0 00-.268.129.613.613 0 00-.097.364c0 .322.118.494.365.494.107 0 .225-.022.376-.075v.257a.97.97 0 01-.397.075c-.215 0-.376-.064-.483-.193-.107-.129-.172-.311-.172-.558 0-.15.033-.29.086-.397a.641.641 0 01.236-.268.687.687 0 01.365-.096c.14 0 .29.032.429.107l-.097.247a1.045 1.045 0 01-.053-.024c-.036-.017-.072-.034-.107-.04a3.996 3.996 0 01-.05-.008.88.88 0 00-.133-.014zm1.845 1.223l-.107-.344h-.537l-.107.344h-.332l.515-1.47h.375l.515 1.47h-.322zm-.182-.601a17.543 17.543 0 01-.17-.569.289.289 0 01-.013-.064c-.021.086-.085.3-.193.633h.376zm1.18.6v-.557h.15l.354.558h.343l-.185-.273-.244-.36a.524.524 0 00.204-.161.337.337 0 00.075-.225c0-.15-.043-.258-.14-.333-.096-.075-.236-.107-.44-.107h-.428v1.459h.31zm.096-.804h-.107v-.397h.096c.108 0 .183.011.226.043.053.032.075.086.075.15a.188.188 0 01-.075.15.369.369 0 01-.215.054zm2.124.408a.373.373 0 01-.14.31.625.625 0 01-.396.119c-.161 0-.29-.032-.419-.086v-.29c.097.043.183.075.247.097a.597.597 0 00.182.032c.065 0 .118-.01.161-.043.032-.021.054-.064.054-.118a.155.155 0 00-.022-.075c-.01-.021-.043-.043-.075-.064a1.546 1.546 0 00-.193-.097 1.486 1.486 0 01-.204-.118.69.69 0 01-.107-.14c-.021-.053-.043-.107-.043-.182 0-.128.043-.236.129-.3.086-.075.204-.107.365-.107.075 0 .15.01.214.032l.049.016c.052.017.109.035.166.06l-.097.235a1.006 1.006 0 00-.193-.064l-.023-.005c-.043-.009-.081-.017-.127-.017-.054 0-.107.011-.14.043a.137.137 0 00-.042.107c0 .033.01.054.021.076a.11.11 0 00.064.053c.02.013.052.03.097.055l.096.052c.14.065.226.13.28.194.074.042.096.128.096.225zm1.32.397h.31v-1.46h-.31v.57h-.58v-.57h-.311v1.46h.311v-.633h.58v.633zm1.844 0l-.107-.344h-.537l-.107.344h-.332l.515-1.47h.375l.515 1.47h-.322zm-.182-.601a17.543 17.543 0 01-.17-.569.289.289 0 01-.013-.064c-.021.086-.085.3-.193.633h.376zm1.169.6v-.557h.16l.355.558h.332l-.184-.273-.002-.002-.001-.002-.242-.356a.524.524 0 00.204-.161.337.337 0 00.075-.225c0-.15-.043-.258-.14-.333-.096-.075-.235-.107-.44-.107h-.428v1.459h.31zm.096-.804h-.106v-.397h.096c.107 0 .182.011.225.043.053.032.075.086.075.15a.188.188 0 01-.075.15.369.369 0 01-.215.054zm1.116.805v-1.46h.311v1.46h-.311zm1.845 0h.397v-1.46h-.28v.687c0 .086 0 .215.012.408h-.011l-.633-1.094h-.386v1.459h.279v-.687c0-.06-.005-.146-.012-.257a30.271 30.271 0 01-.01-.161h.01l.634 1.105zm1.587-.816h.58v.762a1.378 1.378 0 01-.269.064c-.086.011-.171.022-.257.022-.225 0-.386-.065-.504-.193-.118-.129-.172-.311-.172-.558 0-.236.065-.418.204-.547.14-.129.322-.193.558-.193.15 0 .29.032.429.086l-.108.246a.72.72 0 00-.332-.075.408.408 0 00-.322.14c-.086.085-.118.214-.118.364 0 .161.032.28.097.365.064.086.16.129.279.129.064 0 .128-.011.193-.022v-.3h-.28v-.29h.022zm2.896.472l.108.344h.321l-.515-1.47h-.375l-.515 1.47h.333l.107-.344h.536zm-.236-.793c.011.043.065.225.161.536h-.375c.107-.333.171-.547.193-.633 0 .016.006.037.013.064l.008.033zm2.038.139a.46.46 0 01-.15.365c-.096.085-.236.128-.418.128h-.129v.515h-.311v-1.47h.472c.182 0 .311.044.408.119.085.075.128.193.128.343zm-.686.225h.096a.37.37 0 00.215-.053.228.228 0 00.075-.161c0-.075-.022-.129-.064-.161a.284.284 0 00-.183-.054h-.14v.43zm1.984.14a.46.46 0 00.15-.365c0-.15-.043-.268-.128-.343-.097-.075-.226-.118-.408-.118h-.472v1.47h.311v-.516h.129c.182 0 .322-.043.418-.128zm-.44-.14h-.096v-.429h.14c.085 0 .139.022.182.054.043.032.064.086.064.16a.228.228 0 01-.075.162.37.37 0 01-.215.053z" clip-rule="evenodd" opacity=".7"/></svg>