<svg xmlns="http://www.w3.org/2000/svg" xmlns:xlink="http://www.w3.org/1999/xlink" width="60" height="60"><defs><path id="finam__a" d="M29.703 59.405c16.404 0 29.702-13.298 29.702-29.702C59.405 13.298 46.107 0 29.703 0 13.298 0 0 13.298 0 29.703c0 16.404 13.298 29.702 29.703 29.702z"/><path id="finam__b" d="M0 6.277h5.538V.163H0v6.114z"/></defs><g fill="none" fill-rule="evenodd"><use fill="#EDE5E4" xlink:href="#finam__a"/><path fill="#B4001E" d="M43.42 26.224l4.495 3.466 2.02-2.746-4.691-3.466z"/><path fill="#C7322C" d="M47.329 30.147l-4.496-3.563-1.954 2.256 4.43 3.596z"/><path fill="#D89199" d="M44.788 33.025l-4.496-3.515-2.312 1.962 4.397 3.449z"/><path fill="#F0DBD8" d="M34.527 33.45l2.801-1.537 4.365 3.302-2.964 1.765z"/><path fill="#E2A79F" d="M33.614 33.744l-3.094 1.373 4.267 3.466 3.29-1.374z"/><path fill="#C3001F" d="M29.608 35.444L26.61 36.98s4.072 3.368 4.202 3.303a489.01 489.01 0 013.257-1.406l-4.462-3.433z"/><path fill="#A5091F" d="M23.777 39.334l2.215-1.994 4.348 3.27-2.296 2.32z"/><path fill="#A31322" d="M23.35 39.87l-1.854 2.57 4.202 3.4 1.857-2.419z"/><g transform="translate(19.9 43.029)"><mask id="finam__c" fill="#fff"><use xlink:href="#finam__b"/></mask><path fill="#93131F" d="M1.238.163L0 2.943l4.3 3.334 1.238-2.779z" mask="url(#finam__c)"/></g><path fill="#B76625" d="M17.815 44.451l-4.544-3.482 1.368-3.105 4.251 3.293z"/><path fill="#C78121" d="M19.428 40.871l-4.35-3.53 1.809-2.42 4.153 3.253z"/><path fill="#C69E1B" d="M21.496 37.798l-4.267-3.351 2.394-2.232 4.154 3.458z"/><path fill="#E3B306" d="M24.526 35.231l-4.219-3.318 3.03-1.537 4.218 3.368z"/><path fill="#FAE071" d="M28.223 33.417l-4.292-3.237 3.413-1.373 4.348 3.408z"/><path fill="#FDFAC5" d="M28.11 28.415l2.833-1.537 4.333 3.335-3.095 1.7z"/><path fill="#F9E084" d="M31.562 26.42s2.443-2.092 2.508-1.994c.066.098 4.463 3.466 4.463 3.466l-2.704 2.06-4.267-3.532z"/><path fill="#F8D34B" d="M34.56 24.1l2.116-2.388 4.333 3.303-2.085 2.452z"/><path fill="#E0B511" d="M41.433 24.59L37.1 21.222l1.792-2.583 4.332 3.335z"/><path fill="#D6A613" d="M43.42 21.451l-4.203-3.4 1.531-2.812 4.3 3.4z"/><path fill="#D4971B" d="M45.211 17.92l-4.332-3.367 1.254-3.074 4.381 3.466z"/><path fill="#92141B" d="M11.365 39.465l1.238-3.04-4.267-3.466L7 35.967z"/><path fill="#9F0F1F" d="M12.994 35.738l1.694-2.485-4.398-3.302-1.661 2.485z"/><path fill="#A9081D" d="M15.21 32.665l2.312-1.929-4.43-3.549-2.313 2.208z"/><path fill="#C0001F" d="M18.06 30.254s3.273-1.324 3.151-1.447c-.122-.123-4.3-3.53-4.3-3.53l-3.103 1.601 4.251 3.376z"/><path fill="#E0A597" d="M21.87 28.39l3.3-1.203-4.399-3.554-3.249 1.447z"/><path fill="#F3D9D8" d="M25.902 26.772l3.03-1.496-4.406-3.564-3.03 1.766z"/><path fill="#DA8D97" d="M29.567 24.835l2.516-1.986-4.271-3.482-2.79 2.084z"/><path fill="#CB302E" d="M32.548 22.407l2.011-2.354-4.406-3.408-2.044 2.403z"/><path fill="#B50024" d="M35.048 19.526l-4.406-3.249 1.783-2.648 4.398 3.31z"/><path fill="#A6081E" d="M37.1 16.4l-4.357-3.335 1.466-2.869 4.324 3.237z"/></g></svg>