<svg xmlns="http://www.w3.org/2000/svg" width="60" height="60" fill="none"><path fill="#4E72AA" d="M29.703 59.405c16.404 0 29.702-13.298 29.702-29.702C59.405 13.298 46.107 0 29.703 0 13.298 0 0 13.298 0 29.703c0 16.404 13.298 29.702 29.703 29.702z"/><path fill="#fff" fill-rule="evenodd" d="M14.108 19.493c4.241 3.575 8.678 4.172 13.439 2.046 3.23-1.444 5.572-4.289 6.031-7.478-.181.296-.334.55-.47.777-.243.406-.432.722-.635 1.028-2.179 3.287-6.38 4.724-9.957 3.314-.851-.336-1.698-.886-2.325-1.547-1.759-1.856-1.513-3.062.76-4.2 5.72-2.868 11.427-2.755 17.137.08 1.146.568 1.455 1.24 1.093 2.507-3.048 10.67-16.886 15.458-25.924 8.96-.988-.71-1.314-1.403-.7-2.494.35-.622.672-1.26 1.028-1.965.165-.327.337-.668.523-1.028zm31.107.83c3.104 5.802 3.511 11.54.69 17.238-3.417 6.9-9.177 10.43-16.905 10.353-6.251-.062-11.074-2.962-14.952-8.221 14.504-.066 25.429-5.358 31.167-19.37zm-3.82-4.484a119.55 119.55 0 01-1.039-1.087l-.516.167c-1.01 6.645-4.846 11.135-10.67 14.005-5.824 2.871-11.845 2.9-18.17.583.058.477.116.918.171 1.336.116.876.218 1.65.276 2.426.097 1.315.774 1.876 2.05 2.18 4.138.986 8.274 1.084 12.401.122 8.478-1.977 14.872-6.565 18.176-14.867.22-.551.361-1.462.067-1.831-.848-1.064-1.797-2.05-2.746-3.034z" clip-rule="evenodd"/></svg>