<svg xmlns="http://www.w3.org/2000/svg" xmlns:xlink="http://www.w3.org/1999/xlink" width="40" height="40"><defs><path id="photostrana__a" d="M0 0h21.353v24.946H0z"/></defs><g fill="none" fill-rule="evenodd"><path fill="#ED4133" fill-rule="nonzero" d="M20 0c11.046 0 20 8.955 20 19.997v.006C40 31.047 31.048 40 20 40 8.954 40 0 31.048 0 20 0 8.954 8.952 0 20 0z"/><g transform="translate(10 8)"><mask id="photostrana__b" fill="#fff"><use xlink:href="#photostrana__a"/></mask><path fill="#FFF" d="M9.422 8.004c-.694 0-1.363-.006-2.032 0-1.331.014-2.252.638-2.773 1.864-.446 1.05-.65 2.155-.71 3.284-.066 1.216.45 1.939 1.567 2.063.848.094 1.715.018 2.606.018l1.342-7.23m2.514 7.238c.959 0 1.855.066 2.736-.02.838-.08 1.492-.563 1.87-1.34a8.683 8.683 0 00.87-4.187c-.035-.967-.543-1.509-1.521-1.592-.853-.072-1.718-.014-2.628-.014l-1.327 7.153m-4.497 3.454c-1.04-.047-2.057-.069-3.071-.143C2.26 18.398.756 17.33.243 15.617a5.739 5.739 0 01-.235-1.431 11.94 11.94 0 011.164-5.653C2.32 6.13 4.32 4.944 6.909 4.719c1.024-.09 2.063-.014 3.125-.014l.888-4.68c1.258-.148 2.39.381 2.927 1.323.608 1.068.267 2.16.055 3.355.919 0 1.775-.03 2.629.008 1.044.045 2.052.27 2.954.832 1.367.85 1.852 2.188 1.866 3.692.018 2.093-.381 4.117-1.376 5.984-1.085 2.034-2.857 3.078-5.095 3.327-1.164.13-2.345.11-3.59.162l-1.14 6.177c-1.92.414-3.605-1.323-3.235-3.333l.522-2.857" mask="url(#photostrana__b)"/></g></g></svg>