<svg xmlns="http://www.w3.org/2000/svg" width="41" height="40" fill="none"><circle cx="20.5" cy="20" r="20" fill="url(#lif-car__paint0_linear)"/><path fill="#fff" fill-rule="evenodd" d="M12.5 16a9 9 0 119 9h-7.2a1.8 1.8 0 01-1.8-1.8V16zm5.148 15.33c.129-.04.255-.089.378-.145.129.09.225.189.29.295a.724.724 0 01.097.383c0 .264-.127.469-.378.614-.252.145-.6.218-1.046.218-.406 0-.774-.06-1.103-.18a2.506 2.506 0 01-.846-.503 2.225 2.225 0 01-.547-.78 2.545 2.545 0 01-.193-1.006c0-.426.069-.799.207-1.118.14-.32.328-.582.567-.789a2.4 2.4 0 01.828-.464c.32-.105.655-.157.992-.155.464 0 .822.084 1.074.252.252.168.378.384.378.648 0 .12-.03.238-.087.343a1.2 1.2 0 01-.204.276 3.161 3.161 0 00-.395-.15 1.677 1.677 0 00-.505-.072c-.156 0-.312.026-.46.078a1.067 1.067 0 00-.635.6 1.297 1.297 0 00-.097.522c0 .4.115.7.344.9.229.2.508.3.837.3.194 0 .362-.022.504-.067zm5.212-3.198a2.128 2.128 0 00-.736-.324 3.99 3.99 0 00-.954-.106 5.754 5.754 0 00-.72.048 2.922 2.922 0 00-.664.155.935.935 0 00-.372.256c-.08.1-.12.234-.121.402 0 .13.03.257.087.373a.66.66 0 00.213.265c.204-.082.414-.147.629-.194.235-.052.475-.078.716-.077.31 0 .547.04.711.12.164.081.246.215.247.402v.068l-1.267.135c-.555.058-.965.207-1.23.445-.264.24-.396.581-.395 1.026 0 .265.053.497.16.697.106.2.263.37.454.494.197.129.433.226.707.29.274.065.582.097.923.097.761 0 1.351-.126 1.771-.378.126-.074.239-.167.336-.276a.602.602 0 00.143-.411V29.47c0-.303-.057-.566-.167-.788-.109-.22-.27-.41-.471-.551zm-.946 3.246a.973.973 0 01-.299.092c-.12.021-.242.033-.365.034-.238 0-.409-.04-.509-.121a.385.385 0 01-.15-.315c0-.129.058-.226.174-.29.116-.064.268-.103.448-.116l.7-.058v.774h.001zm4.88-3.668c.31 0 .554.06.735.18.18.119.271.314.271.584 0 .09-.013.18-.038.267a1.213 1.213 0 01-.097.237 4.67 4.67 0 00-.832.077 7.755 7.755 0 00-.383.082 1.87 1.87 0 00-.306.102v3.3c-.054.02-.165.04-.304.058-.142.02-.286.03-.43.03a2.271 2.271 0 01-.382-.03.648.648 0 01-.285-.116.555.555 0 01-.177-.237 1.03 1.03 0 01-.06-.392V28.95c0-.148.025-.276.08-.382a.885.885 0 01.233-.285 1.71 1.71 0 01.383-.228 3.953 3.953 0 011.03-.3c.186-.029.374-.044.562-.044zM18.15 13.133a.75.75 0 00-.329-.134 3.044 3.044 0 00-.926.006c-.104.016-.19.03-.26.043l-.104.018v6.462c0 .186.026.336.074.451a.643.643 0 00.207.273.75.75 0 00.329.134 2.981 2.981 0 00.921-.006l.027-.004c.148-.024.264-.043.332-.056v-6.462c0-.186-.02-.336-.069-.451a.638.638 0 00-.202-.274zm2.802 1.793a.751.751 0 01.329.134c.089.067.154.157.203.273.048.115.069.265.069.45v4.536a9.03 9.03 0 01-.288.05l-.072.011a2.98 2.98 0 01-.921.006.751.751 0 01-.33-.134.642.642 0 01-.206-.273 1.177 1.177 0 01-.073-.451v-4.535c.056-.011.148-.026.262-.045l.1-.016a3.031 3.031 0 01.927-.006zm-.34-2.517c-.312 0-.563.096-.752.29a.979.979 0 00-.284.712c0 .283.095.52.284.713.19.193.44.29.752.29s.563-.097.752-.29a.979.979 0 00.284-.713.979.979 0 00-.284-.713c-.19-.193-.44-.29-.752-.29zm4.646.356c.55 0 .955.072 1.215.217.26.145.39.392.39.741a.843.843 0 01-.095.4.849.849 0 01-.206.268 5.227 5.227 0 00-.44-.094 3.192 3.192 0 00-.53-.04c-.32 0-.569.055-.747.163-.178.107-.268.295-.268.562v.352h1.829c.044.072.087.185.128.307.042.132.063.27.061.408 0 .26-.057.444-.172.559-.116.115-.27.166-.463.166h-1.293v3.545a3.51 3.51 0 01-.835.1 2.633 2.633 0 01-.441-.033.754.754 0 01-.33-.134.646.646 0 01-.208-.273 1.17 1.17 0 01-.076-.451v-4.612c0-.38.068-.704.198-.975.124-.262.306-.49.534-.67.223-.173.485-.302.785-.383.315-.084.639-.125.964-.123z" clip-rule="evenodd"/><defs><linearGradient id="lif-car__paint0_linear" x1="20.5" x2="20.5" y1="40" y2="0" gradientUnits="userSpaceOnUse"><stop stop-color="#FCB316"/><stop offset="1" stop-color="#FFD740"/></linearGradient></defs></svg>