<svg xmlns="http://www.w3.org/2000/svg" width="41" height="40" fill="none"><g clip-path="url(#dodo-pizza__clip0)"><circle cx="20.5" cy="20" r="20" fill="#FF6900"/><mask id="dodo-pizza__a" width="41" height="40" x="0" y="0" maskUnits="userSpaceOnUse"><circle cx="20.5" cy="20" r="20" fill="#FF6900"/></mask><g mask="url(#dodo-pizza__a)"><path fill="#000" d="M30.156 18.214c-.056.442-.553.442-.775.055-.719-1.217-1.659-1.438-3.152-1.549-1.107-.055-2.434.056-3.651.056-.221 0-.276-.166-.276-.221.22-1.051 1.106-2.987 2.046-3.153.443-.056 1.438-.166 1.991-.166 2.545 0 3.927 2.931 3.817 4.978zM15.775 28.225c1.604.443 3.871.72 5.752.553a15.32 15.32 0 007.135-2.323c-.83 2.102-3.982 3.43-6.969 3.761 0 .166-.055.277-.055.443 2.267-.11 4.425-.885 5.42-1.549-.553 2.047-3.319 2.876-5.863 3.042-.055.166-.166.332-.221.443 1.493 0 2.876-.221 3.706-.498-1.162 2.157-6.14 3.65-10.343 1.66.94-1.881 1.382-3.762 1.438-5.532zm13.883-14.713c-.996-.94-2.323-1.382-3.485-1.327-1.66 0-3.042.442-5.088.498-1.383.055-2.655-2.987-4.315-3.374-.719-1.604-2.378-1.826-3.374-.996-.94-.553-2.378-.276-2.433.774-1.051-.331-2.434.222-1.826 1.66-2.6.055-3.042 2.378-1.327 2.6-2.268 1.272-1.217 3.484.664 3.042.331 3.318 1.825 7.633-.609 8.684-.276.11-1.383.387-3.484-.111-.609-.166-1.273-.332-1.881-.498v1.715c1.825.442 3.65.774 4.812.663 3.208-.331 3.374-2.986 3.208-5.31-.166-2.267-.94-4.922-.664-6.803l-.11-.11c-1.162 1.216-1.936.885-2.047.497-.166-.774 1.217-1.77 1.991-2.101 0-.056.056-.111.056-.166-.72.11-1.604 0-1.66-.498-.055-.609 1.217-1.217 2.877-1.051.055 0 .055-.055.11-.055l-.332-.166c-.442-.222-.553-.609-.387-.83.166-.277.609-.387.996-.387.608 0 1.106.166 1.493.332.056 0 .056-.056.11-.056-.11-.11-.276-.22-.331-.331-.11-.166-.11-.443.055-.554.222-.166.83-.22 1.328.222l.276.276c.056 0 .11 0 .166-.055a.598.598 0 01-.166-.387c-.055-.166 0-.387.222-.443.22-.055.497.056.663.277.166.221.277.553.332.719-1.161.11-2.544.553-3.374 1.714-.83 1.107-1.161 2.877-.664 4.536.332 1.715.996 3.319 1.604 4.978v.055c1.328 3.817 3.872 13.22-8.462 18.198.442.276 1.327.498 2.046.498h1.273c2.544-1.328 4.259-2.932 5.475-4.536 5.642 2.49 10.786 1.217 12.998-2.876 1.494-.885 2.434-2.71 2.49-3.983.94-1.161 1.106-2.6.83-3.595-.056-.221-.277-.221-.61-.055-4.59 2.765-8.628 3.208-13.44 1.77-.11-1.88-.498-3.485-.664-4.48-.11-1.936.498-2.877 4.038-1.715 2.323.608 3.374 1.66 4.204 2.212.387.277.885.609 1.161.388.166-.111.222-.443.222-.83-.056-1.051-.554-2.82-.996-3.485 1.383-.055 2.544-.055 3.153 0 1.327.222 1.438.94 1.604 1.217.387 1.106 2.544.83 2.71-.11.332-1.936.442-4.48-1.438-6.25zM5.1 30.106a20.383 20.383 0 00-2.6 0v1.161c1.493-.331 2.434-.497 2.434-.497l.166-.664z"/><path fill="#fff" fill-rule="evenodd" d="M13.728 15.339c1.106 1.659 3.263 2.212 5.2 2.655 2.765.608 3.871 1.936 3.76 2.046-.045.09-.127-.004-.186-.072a.746.746 0 00-.035-.038c-.862-.804-2.496-1.156-4.216-1.527-3.134-.676-6.556-1.413-6.127-5.056.166-1.272 1.05-2.654 2.544-2.986-.11.166-.221.387-.276.663l.22.056c.72-1.217 2.545-1.217 2.711.055 0 0 1.438 1.493 1.77 1.77.055.055.11.11.055.166 0 .055-.22.055-.387 0l-.055.166c.277.221 1.272.442 2.931.332.443 0 .996 0 1.604-.11-.774.773-1.272 1.824-1.548 2.93-.056.166-.11.332-.443.332-3.263.277-6.029-.11-6.969-1.88-.11-.166-.055-.332.11-.443.222-.11.498-.11.775-.055l.055-.166c-.553-.332-1.382-.387-1.825.166-.332.387-.221.885.055 1.328l.166-.056c-.055-.11-.055-.166-.055-.276 0 0 0-.056.055-.056.056 0 .11 0 .11.056zm3.485-3.208c-.277-.609-.885-.996-1.273-.885-.11.055-.22.11-.332.276l.056.056c.166 0 .332.165.442.331.111.222.166.443 0 .553-.11.056-.276 0-.387-.11h-.055c.027.055.041.097.055.138.014.042.028.083.056.138.276.609.884 1.051 1.272.885.387-.166.497-.774.166-1.382zm4.314 16.648a15.32 15.32 0 007.135-2.323c-.83 2.102-3.982 3.374-6.97 3.761 0 .083-.013.152-.027.221-.014.07-.028.139-.028.222 2.268-.111 4.425-.886 5.42-1.55-.552 2.103-3.318 2.932-5.862 3.043-.028.083-.07.152-.11.221-.042.07-.084.139-.111.221 1.438.056 2.876-.22 3.706-.497-.83 1.548-3.54 2.71-6.527 2.6 1.604-1.383 2.268-3.596 2.378-4.204-2.378-.056-3.982-.388-4.923-.609.111-.553.166-1.106.166-1.66 1.66.443 3.872.665 5.753.554z" clip-rule="evenodd"/></g></g><defs><clipPath id="dodo-pizza__clip0"><path fill="#fff" d="M0 0h40v40H0z" transform="translate(.5)"/></clipPath></defs></svg>