<svg xmlns="http://www.w3.org/2000/svg" xmlns:xlink="http://www.w3.org/1999/xlink" width="80" height="80"><defs><circle id="shop-philips__a" cx="40" cy="40" r="40"/></defs><g fill="none" fill-rule="evenodd"><use fill="#0098D0" xlink:href="#shop-philips__a"/><g fill="#FFF"><path d="M19.021 15.18s8.707-1.159 21.3-1.159c12.669 0 21.077 1.159 21.077 1.159v31.341c0 12.317-9.568 21.465-21.188 21.465-11.717 0-21.189-9.271-21.189-21.189V15.18zm12.143 30.25c6.678-1.26 10.564-6.136 18.223-6.136 3.785 0 6.933 1.447 8.479 2.448-1.474-5.615-7.507-13.292-17.662-13.292-2.614 0-4.503.572-4.503.572l.32 2.424c.093.719.343 1.049 1.128 1.177l2.73.355v.187l-2.562.345c-.88.109-1.207.428-1.286 1.128l-.31 2.404 3.158.385v.33l-4.922.65c-1.741.276-2.01.807-2.306 2.872l-.487 4.15zM40.2 65.17c4.09 0 7.356-1.388 8.889-2.306l-.523-3.936c-.166-1.528-.888-2.042-2.439-2.209l-4.675-.592v-.341l4.982-.634c1.558-.26 1.914-.822 2.139-2.118l.641-5.024c-6.072 1.079-10 6.235-18.109 6.235-3.114 0-6.34-1.04-8.587-2.458 2.551 8.54 9.918 13.383 17.682 13.383zm9.502-2.626c2.405-1.553 4.418-3.313 6.227-6.237l-3.573.461c-1.722.22-2.007.86-2.264 2.634l-.39 3.142zm6.59-6.863c1.422-2.64 1.837-4.445 2.147-6.668-1.329-.587-4.187-1.26-6.285-1.26-1.406 0-2.64.208-2.64.208l.613 4.766c.236 1.807.699 2.263 2.557 2.48l3.609.474zM22 44.492c1.442.584 3.708 1.226 6.208 1.226 1.444-.014 2.603-.215 2.603-.215l-.567-4.45c-.203-1.421-.35-1.647-.687-2.025-.35-.385-.873-.537-1.595-.63l-3.813-.488c-1.143 2.148-1.858 4.044-2.15 6.583zm2.532-7.242l3.53-.465c.65-.119 1.205-.263 1.538-.632.393-.46.472-.819.574-1.56l.455-3.436a18.048 18.048 0 00-6.097 6.093zm6.997-4.306l2.316-.291c.819-.124 1.148-.365 1.285-1.133l.32-2.439a16.94 16.94 0 00-4.182 1.685l.261 2.178zm3.907 4.059l-.275-2.15c-.106-.847-.387-1.235-1.181-1.324l-2.406-.34.2 1.447c.139 1.202.677 1.87 1.635 2.07l2.027.297zm-.861-17.834h-1.97v2.565h-2.05v-2.565h-1.97v6.453h1.97v-2.538h2.05v2.538h1.97v-6.453zm6.852 5.157v-5.157h-1.97v6.453h3.562l.296-1.296h-1.888zM38 19.169h-1.97v6.453H38v-6.453zm7.985 0h-1.969v6.453h1.97v-6.453zm9.711 1.647c0-.35.351-.513.917-.513.62 0 1.296.135 1.754.325l-.162-1.405a7.708 7.708 0 00-1.807-.189c-1.592 0-2.67.628-2.67 1.944 0 2.268 3.075 1.81 3.075 2.862 0 .405-.297.62-1.026.62-.646 0-1.645-.215-2.239-.512l.217 1.485c.593.216 1.402.324 2.05.324 1.645 0 2.994-.54 2.994-2.16 0-2.16-3.103-1.755-3.103-2.781zm-5.556 3.267c1.833 0 2.994-.945 2.994-2.592 0-1.809-1.241-2.457-3.264-2.457-.783 0-1.727.054-2.402.135v6.453h1.97v-1.54h.702zm1.051-2.565c0 .837-.404 1.404-1.43 1.404h-.239v-2.666c.115-.007.138-.007.24-.007.97 0 1.43.46 1.43 1.269zm-26.383 2.565c1.835 0 2.995-.945 2.995-2.592 0-1.809-1.241-2.457-3.264-2.457-.783 0-1.727.054-2.401.135v6.453h1.969v-1.54h.701zm1.053-2.565c0 .837-.405 1.404-1.43 1.404h-.236v-2.666c.116-.007.134-.007.236-.007.97 0 1.43.46 1.43 1.269zm-3.9 27.55c2.223 1.37 5.003 2.227 8.345 2.227 8.648 0 12.165-6.345 20.79-6.345 2.885 0 5.219.658 7.47 1.763-.033-.763-.058-1.527-.143-2.29-1.974-1.225-4.895-2.217-8.346-2.217-8.393 0-12.244 6.39-20.77 6.39-3.518 0-5.892-.973-7.475-1.794.013.693.072 1.751.128 2.266z"/><path d="M44.721 63.897h.15l.269-2.027c.127-.827.445-.89 1.028-.997l1.979-.251v-.153l-2.129-.274c-.563-.087-.78-.383-.868-.874l-.27-2.12h-.16l-.278 2.158c-.112.521-.315.73-.88.824l-2.118.286v.153l2.038.26c.673.087.92.4.99 1.038l.25 1.977z"/></g></g></svg>