<svg xmlns="http://www.w3.org/2000/svg" xmlns:xlink="http://www.w3.org/1999/xlink" width="80" height="80"><defs><circle id="kassir__a" cx="40" cy="40" r="40"/></defs><g fill="none" fill-rule="evenodd"><use fill="#FFC627" xlink:href="#kassir__a"/><g fill-rule="nonzero"><path fill="#FFC627" d="M39.352 16.297c-10.777 0-19.542 8.771-19.542 19.548 0 7.22 3.963 13.5 9.804 16.883v-8.943c-4.18-3.385-5.67-8.168-5.696-8.244a1.612 1.612 0 013.087-.926c.121.395 2.938 9.249 12.135 9.249h.193c9.82-.129 12.15-8.809 12.246-9.176a1.614 1.614 0 011.956-1.165 1.607 1.607 0 011.17 1.948c-.02.076-1.317 5.001-5.714 8.414v8.88c5.892-3.37 9.905-9.66 9.905-16.918-.002-10.779-8.767-19.55-19.544-19.55zm-4.49 17.66a2.543 2.543 0 01-2.548-2.545 2.546 2.546 0 112.548 2.546zm9.749-.022a2.545 2.545 0 11.003-5.09 2.545 2.545 0 01-.003 5.09z"/><path fill="#FFF" d="M31.478 45.067v19.162a2.842 2.842 0 012.28-1.169 2.84 2.84 0 012.472 1.464h.547a2.845 2.845 0 012.473-1.464c1.034 0 1.97.576 2.472 1.464h.547a2.836 2.836 0 012.468-1.464c.978 0 1.87.512 2.387 1.318V45.125c-2.042 1.138-4.581 1.918-7.752 1.962h-.234c-3.105-.002-5.618-.824-7.66-2.02z"/><g fill="#111820"><path d="M34.862 28.863a2.543 2.543 0 00-2.548 2.549 2.546 2.546 0 102.548-2.549zm9.749-.02a2.545 2.545 0 10.003 5.09 2.545 2.545 0 00-.003-5.09z"/><path d="M39.352 13.075c-12.55 0-22.765 10.215-22.765 22.77 0 9.064 5.34 16.877 13.027 20.537v10.011h2.685v-.002c0-.674.47-1.217 1.089-1.383a.918.918 0 01.745 0c.618.166 1.084.709 1.084 1.383v.002h2.574v-.002c0-.674.466-1.217 1.089-1.383a.918.918 0 01.74 0c.624.166 1.089.709 1.089 1.383v.002h2.533v-.002c0-.694.497-1.244 1.14-1.394.04-.018.097-.018.143-.03.06-.005.116-.035.177-.035.005 0 .005.002.005.002.01 0 .021-.006.03-.006a.91.91 0 01.385.089c.599.183 1.039.717 1.039 1.373v.002h2.827v-9.956c7.748-3.638 13.128-11.488 13.128-20.592.001-12.554-10.214-22.77-22.764-22.77zm7.773 51.304a2.844 2.844 0 00-2.387-1.318 2.838 2.838 0 00-2.468 1.464h-.546a2.852 2.852 0 00-2.473-1.464 2.845 2.845 0 00-2.472 1.464h-.547a2.838 2.838 0 00-2.473-1.464c-.912 0-1.753.45-2.28 1.169V45.067c2.042 1.196 4.555 2.018 7.662 2.018h.233c3.172-.042 5.71-.823 7.752-1.96v19.254h-.001zm1.863-11.615v-8.887.002c4.388-3.413 5.696-8.332 5.715-8.408a1.606 1.606 0 00-1.17-1.948 1.614 1.614 0 00-1.956 1.165c-.097.368-2.427 9.047-12.247 9.176h-.193c-9.196 0-12.013-8.854-12.135-9.25a1.611 1.611 0 00-3.086.927c.02.076 1.52 4.848 5.695 8.231v8.956c-5.842-3.383-9.803-9.663-9.803-16.883 0-10.777 8.765-19.548 19.542-19.548 10.777 0 19.542 8.771 19.542 19.548.002 7.258-4.01 13.549-9.904 16.919z"/></g></g></g></svg>