<svg xmlns="http://www.w3.org/2000/svg" xmlns:xlink="http://www.w3.org/1999/xlink" width="80" height="80"><defs><circle id="oldi__a" cx="40" cy="40" r="40"/></defs><g fill="none" fill-rule="evenodd"><use fill="#0060AF" xlink:href="#oldi__a"/><path fill="#FFF" d="M27.264 37.424c-1.756-1.831-4.201-2.738-7.334-2.738h-.015c-3.132 0-5.593.907-7.363 2.766-1.584 1.626-2.37 3.675-2.37 6.134 0 2.475.785 4.54 2.4 6.177 1.77 1.832 4.215 2.754 7.333 2.754h.014c3.133 0 5.579-.922 7.364-2.782 1.58-1.626 2.372-3.674 2.372-6.149 0-2.46-.791-4.523-2.401-6.162zm-5.05 8.84c-.614.572-1.36.85-2.284.85h-.015c-.91 0-1.67-.293-2.285-.879-.685-.644-1.009-1.521-1.009-2.648 0-1.126.324-2.021 1.01-2.665.602-.557 1.374-.849 2.284-.849h.015c.909 0 1.67.306 2.33.924.64.612.963 1.464.963 2.59 0 1.142-.337 2.037-1.009 2.678zm47.566-17.8l-5.813 17.684h-7.07l5.812-17.685h7.071zm-11.258 8.84c0 2.477-.79 4.512-2.387 6.15-1.77 1.846-4.216 2.768-7.349 2.768-.484 0-4.496-.03-4.934-.075h-5.504l3.79-11.345h6.59l-2.035 6.018 2.165.028c.878-.028 1.626-.308 2.213-.864.672-.645 1.009-1.536 1.009-2.68 0-1.11-.323-1.99-.98-2.604a3.255 3.255 0 00-2.195-.923H13.856l1.77-5.315h31.785c5.682-.03 6.937.82 8.709 2.665 1.596 1.656 2.402 3.705 2.402 6.178zm3.265 15.14h-33.85l5.814-17.7h7.086l-4.131 12.561h26.763l-1.682 5.138z"/></g></svg>