<svg xmlns="http://www.w3.org/2000/svg" xmlns:xlink="http://www.w3.org/1999/xlink" width="80" height="80"><defs><circle id="nordman__a" cx="40" cy="40" r="40"/></defs><g fill="none" fill-rule="evenodd"><use fill="#0884D6" xlink:href="#nordman__a"/><path fill="#FFF" d="M55.1 22l-15.5 6.1 5.2 19h-1.1l-7.3-14.8-18.2 6.2L12 52.7h15.2l.6-9.4h1l2.8 9.4h2.7l-1.6-1.9 2.7-.7.1-.8s-.5-.9-.4-1.5c.1-.6.3-.9.3-1.1 0-.1 0-.3.1-.5.2-.2.4-.2.4-.3.1-.2.4-.3.4-.3s-.4-1 .4-1.2c.5-.1.8.4.7 1.1 0 0 .4.1.4.4 0 0 .5.1.6.6.1.6.2 1 .2 1.5 0 .4-.3 1.4-.3 1.4l5.5-.4 2.4-.5 2.7-.2.2 1.2-2.8.2-2.4-.2-5.5.4v.1l2.8.7-1.6 1.9h25.6L55.1 22z"/></g></svg>