<svg xmlns="http://www.w3.org/2000/svg" xmlns:xlink="http://www.w3.org/1999/xlink" width="60" height="60"><defs><path id="home-net__a" d="M29.703 59.405c16.404 0 29.702-13.298 29.702-29.702C59.405 13.298 46.107 0 29.703 0 13.298 0 0 13.298 0 29.703c0 16.404 13.298 29.702 29.703 29.702z"/><path id="home-net__c" d="M0 .113v11.988h11.891V.113H0z"/></defs><g fill="none" fill-rule="evenodd"><mask id="home-net__b" fill="#fff"><use xlink:href="#home-net__a"/></mask><use fill="#27A84A" xlink:href="#home-net__a"/><g mask="url(#home-net__b)"><path fill="#FFF" d="M46.776 29.5c0 5.247-4.22 9.5-9.423 9.5-5.205 0-9.423-4.253-9.423-9.5s4.218-9.5 9.423-9.5c5.204 0 9.423 4.253 9.423 9.5"/><g transform="translate(12 23.393)"><mask id="home-net__d" fill="#fff"><use xlink:href="#home-net__c"/></mask><path fill="#FFF" d="M11.891 6.107c0 3.31-2.662 5.994-5.945 5.994C2.662 12.101 0 9.418 0 6.107 0 2.797 2.662.113 5.946.113c3.283 0 5.945 2.683 5.945 5.994" mask="url(#home-net__d)"/></g></g></g></svg>