<svg xmlns="http://www.w3.org/2000/svg" xmlns:xlink="http://www.w3.org/1999/xlink" width="60" height="60"><defs><path id="unicredit__a" d="M29.703 59.405c16.404 0 29.702-13.298 29.702-29.702C59.405 13.298 46.107 0 29.703 0 13.298 0 0 13.298 0 29.703c0 16.404 13.298 29.702 29.703 29.702z"/></defs><g fill="none" fill-rule="evenodd"><use fill="#BC231C" xlink:href="#unicredit__a"/><path fill="#DB322A" d="M30.463 19.24l.042-.058c.347-.49.202-.853-.031-1.048-.147-.125-3.642-2.169-3.642-2.169a.904.904 0 01-.42-.76c0-.5.31-.878 1.015-1.067 2.246-.595 10.147-.907 12.832-.907.932 0 2.536-.005 3.976.034l-.063-.058C40.235 9.96 35.125 8 29.542 8 17.091 8 7 17.743 7 29.762c0 5.285 1.95 10.128 5.193 13.898 2.832-3.932 9.822-13.623 11.354-15.602 1.765-2.282 5.79-7.357 6.471-8.215l.034-.042.411-.562M15.814 47.253c3.804 2.83 8.57 4.513 13.745 4.513 12.448 0 22.54-9.743 22.54-21.764 0-3.636-.924-7.065-2.558-10.079l.001.002c.777-.722 1.671-1.864 1.083-3.296-.183-.427-1.06-1.393-1.285-1.629l.031.084c.55 1.598-.537 2.6-1.316 3.282-.427.376-6.15 5.585-12.862 11.251-5.918 4.995-12.535 10.077-16.368 12.849-5.392 3.895-6.441 4.462-6.441 4.462-.143.075-.38.138-.555.138-.328 0-.615-.142-.796-.37l-.005-.007c-.029.067-.039.126-.013.166.577.905 1.536 1.953 2.095 1.953.174 0 .412-.065.555-.137 0 0 .424-.228 2.149-1.418"/><path fill="#FFF" d="M29.685 18.951c.348-.488.202-.852-.03-1.047-.147-.126-3.643-2.17-3.643-2.17a.904.904 0 01-.42-.759c0-.5.31-.878 1.015-1.067C28.854 13.313 36.755 13 39.44 13c1.267 0 3.777-.008 5.43.097 1.852.117 3.259.489 3.608 1.354.686 1.695-.45 2.742-1.255 3.448-.427.375-6.15 5.585-12.862 11.25C28.444 34.146 21.826 39.228 17.994 42c-5.393 3.895-6.441 4.462-6.441 4.462-.143.075-.38.138-.555.138-.559 0-.998-.412-.998-.953 0-.206.064-.397.177-.553 0 0 10.618-14.769 12.55-17.265 1.933-2.497 6.57-8.34 6.57-8.34s.055-.067.388-.537"/></g></svg>