<svg xmlns="http://www.w3.org/2000/svg" width="41" height="40" fill="none"><path fill="#F0F2F7" d="M20.5 40c11.046 0 20-8.954 20-20s-8.954-20-20-20S.5 8.954.5 20s8.954 20 20 20z"/><path fill="#000" fill-rule="evenodd" d="M20.055 24.504a1.336 1.336 0 01-.386.044c-.284 0-.396-.044-.396-.044V21.59H18.23v2.914c-.128.032-.26.047-.391.044a1.2 1.2 0 01-.392-.044v-3.445h2.607v3.445zm-9.435-3.412c.128-.034.26-.049.391-.044.132-.002.264.013.392.044v2.822h1.041v-2.822c.13-.034.263-.049.396-.044.13-.003.26.012.387.044v2.822h.376v1.294c-.113.032-.23.049-.347.049a1.279 1.279 0 01-.367-.049v-.68H10.62v-3.436zm5.857-.047c.129 0 .256.015.381.044l-.924 2.491c-.283.77-.733.965-1.163.965-.136 0-.272-.02-.401-.06a.8.8 0 01-.054-.294c0-.1.011-.2.034-.299.096.012.192.018.288.02.196 0 .372-.096.534-.44h-.177L13.88 21.09c.138-.032.28-.047.421-.044.142-.006.283.009.42.044l.548 1.161c.077.174.14.353.191.535h.02c.046-.184.103-.366.17-.544l.446-1.152c.124-.032.253-.047.381-.044zm7.057.042v3.417a1.466 1.466 0 01-.386.044 1.313 1.313 0 01-.391-.044v-1.17c-.005-.46.02-.919.073-1.375h-.024s-.103.378-.455 1.154l-.611 1.39a2.012 2.012 0 01-.47.045c-.337 0-.464-.044-.464-.044v-3.417c.126-.032.256-.046.386-.044.135-.002.27.013.4.044v1.093c.004.476-.021.95-.072 1.423h.024c.13-.411.29-.813.474-1.202l.612-1.314c.147-.034.298-.05.45-.044.153-.005.305.01.454.044zM25.705 21c.587 0 .9.191.9.191a.65.65 0 01-.225.518 1.835 1.835 0 00-.572-.099c-.499 0-.817.217-.817 1.154 0 .937.318 1.183.817 1.183.21-.002.418-.039.616-.108.15.145.233.346.23.554 0 0-.323.192-.949.192-.998 0-1.54-.638-1.54-1.826 0-1.188.542-1.76 1.54-1.76zm-12.477-1.39a1.335 1.335 0 01-.386.044c-.284 0-.396-.044-.396-.044v-2.919h-1.042v2.92c-.128.032-.26.047-.391.043a1.2 1.2 0 01-.392-.044v-3.488h2.607v3.488zm2.893-3.488c.03.091.047.16.049.256a.988.988 0 01-.05.314h-1.359v.862h1.115c.031.1.047.202.049.306a.938.938 0 01-.049.307h-1.115v.861h1.409c.032.095.049.195.048.295a.862.862 0 01-.049.304h-2.19v-3.505h2.142zm5.388 0c.635 0 1.017.345 1.017.958 0 .329-.142.574-.382.722.299.147.484.417.484.804 0 .658-.42 1.021-1.1 1.021h-1.457v-3.505h1.438zm-.157 1.43c.264 0 .396-.177.396-.447 0-.28-.132-.414-.396-.414h-.504v.86h.504zm.024 1.462c.304 0 .46-.087.46-.401 0-.33-.156-.446-.46-.446h-.528v.847h.528zm2.668-2.848v1.388h.646c.709 0 1.101.292 1.101.974 0 .687-.392 1.1-1.101 1.1h-1.428v-3.462c.127-.034.259-.05.39-.044.133-.004.264.011.392.044zm0 2.848h.533c.289 0 .455-.125.455-.449 0-.28-.166-.398-.455-.398h-.533v.847zm2.884-2.848v3.444c-.128.031-.26.046-.392.044a1.354 1.354 0 01-.39-.044v-3.444c.127-.032.259-.047.39-.044.132-.003.264.012.392.044zM17.67 19.61c-.128.033-.26.048-.39.044a1.313 1.313 0 01-.392-.044v-3.488h1.428c.71 0 1.101.384 1.101 1.071 0 .682-.392.976-1.101.976h-.646v1.441zm0-2.919v.863h.533c.289 0 .455-.118.455-.398 0-.324-.166-.465-.455-.465h-.533zm12.264-.57c.153-.005.305.01.454.045v3.444a1.466 1.466 0 01-.386.044 1.313 1.313 0 01-.391-.044v-1.175c-.005-.46.02-.918.073-1.375h-.024s-.103.378-.455 1.154l-.611 1.396a2.012 2.012 0 01-.47.044c-.337 0-.464-.044-.464-.044v-3.444c.126-.032.256-.047.386-.044.135-.002.27.013.401.044v1.115c.003.476-.022.95-.073 1.424h.024c.13-.412.29-.813.475-1.203l.611-1.336c.147-.035.298-.05.45-.044zm-1.517-.487a.55.55 0 010-.46h1.215a.552.552 0 010 .46h-1.215z" clip-rule="evenodd"/><path fill="#00B500" fill-rule="evenodd" d="M30.794 13.441h2.265v4.324h1.44V12h-2.265l-1.44 1.441z" clip-rule="evenodd"/><path fill="#BDCFD1" fill-rule="evenodd" d="M10.206 27.03H7.94v-4.324H6.5v5.765h2.266l1.44-1.442z" clip-rule="evenodd"/></svg>