<svg xmlns="http://www.w3.org/2000/svg" id="oriflame__Layer_1" x="0" y="0" enable-background="new 0 0 60 60" version="1.1" viewBox="0 0 60 60" xml:space="preserve"><path id="oriflame__a_1_" fill="#a6c924" d="M29.7 59.4c16.4 0 29.7-13.3 29.7-29.7S46.1 0 29.7 0 0 13.3 0 29.7s13.3 29.7 29.7 29.7z"/><defs><filter id="oriflame__Adobe_OpacityMaskFilter" width="38" height="38" x="11" y="10.2" filterUnits="userSpaceOnUse"><feColorMatrix values="1 0 0 0 0 0 1 0 0 0 0 0 1 0 0 0 0 0 1 0"/></filter></defs><mask id="oriflame__b_1_" width="38" height="38" x="11" y="10.2" maskUnits="userSpaceOnUse"><g filter="url(#oriflame__Adobe_OpacityMaskFilter)"><path id="oriflame__a_2_" d="M29.7 59.4c16.4 0 29.7-13.3 29.7-29.7S46.1 0 29.7 0 0 13.3 0 29.7s13.3 29.7 29.7 29.7z" class="oriflame__st2"/></g></mask><g mask="url(#oriflame__b_1_)"><g transform="translate(11 10.007)"><defs><filter id="oriflame__Adobe_OpacityMaskFilter_1_" width="38" height="38" x="0" y=".2" filterUnits="userSpaceOnUse"><feColorMatrix values="1 0 0 0 0 0 1 0 0 0 0 0 1 0 0 0 0 0 1 0"/></filter></defs><mask id="oriflame__d_1_" width="38" height="38" x="0" y=".2" maskUnits="userSpaceOnUse"><g filter="url(#oriflame__Adobe_OpacityMaskFilter_1_)"><path id="oriflame__c_1_" d="M38 38.1H0V.1h38v38z" class="oriflame__st2"/></g></mask><path fill="#fff" d="M15.8.2h-.5c-1.6.6-3.3.9-4.8 1.7-9 4.5-12.8 15-9 24.5 3.8 9.4 15 14.3 24.3 10.4 6.9-2.8 11-8 12-15.5.8-5.8-.9-10.7-5.6-14.4-3.6-2.9-7.8-4-12.4-3-4 .9-6.8 3.3-9 6.7-.7 1-1.2 2.1-1.7 3.2.1 0 .1.1.2.1.1-.1.2-.3.3-.4.9-1.1 1.7-2.3 2.7-3.2 3.3-3.1 7.1-4.3 11.5-3.2 6.3 1.5 10.1 7.6 8.9 14.2-1 6-5.7 10.6-11.7 11.5-6 1-11.9-2.2-14.6-7.7-1.7-3.4-2-7-1.5-10.7.7-4.9 3-9 7-12 1.2-.8 2.6-1.5 3.9-2.2" mask="url(#oriflame__d_1_)"/></g><g transform="translate(11 10.007)"><defs><filter id="oriflame__Adobe_OpacityMaskFilter_2_" width="38" height="38" x="0" y=".2" filterUnits="userSpaceOnUse"><feColorMatrix values="1 0 0 0 0 0 1 0 0 0 0 0 1 0 0 0 0 0 1 0"/></filter></defs><mask id="oriflame__f_1_" width="38" height="38" x="0" y=".2" maskUnits="userSpaceOnUse"><g filter="url(#oriflame__Adobe_OpacityMaskFilter_2_)"><path id="oriflame__e_1_" d="M38 38.1H0V.1h38v38z" class="oriflame__st2"/></g></mask><path fill="#fff" d="M15.8.2c-1.3.8-2.7 1.5-3.9 2.3-4 3-6.3 7-7 12-.5 3.7-.2 7.3 1.5 10.7 2.7 5.5 8.6 8.6 14.6 7.7 6-.9 10.7-5.5 11.7-11.5 1.1-6.6-2.6-12.6-8.9-14.2-4.4-1.1-8.3.1-11.5 3.2-1 .9-1.8 2.1-2.7 3.2-.1.1-.2.3-.3.4l-.2-.1c.6-1.1 1.1-2.2 1.7-3.2 2.2-3.4 5-5.8 9-6.7 4.6-1 8.7.1 12.4 3 4.7 3.7 6.4 8.6 5.6 14.4-1 7.5-5.1 12.7-12 15.5-9.4 3.8-20.5-1-24.3-10.4-3.8-9.4 0-19.9 9-24.5C12 1.2 13.7.8 15.4.3c.1-.2.2-.1.4-.1" mask="url(#oriflame__f_1_)"/></g></g></svg>