<svg xmlns="http://www.w3.org/2000/svg" xmlns:xlink="http://www.w3.org/1999/xlink" width="80" height="80"><defs><path id="detmir__b" d="M0 0h14.545v14.526H0z"/><path id="detmir__d" d="M0 0h14.545v14.526H0z"/><circle id="detmir__a" cx="40" cy="40" r="40"/></defs><g fill="none" fill-rule="evenodd"><use fill="#F3F3F3" xlink:href="#detmir__a"/><g transform="translate(57.455 33)"><mask id="detmir__c" fill="#fff"><use xlink:href="#detmir__b"/></mask><path fill="#00ADEE" d="M13.385 9.456c-.636 1.748-1.282 3.024-1.782 3.88A2.378 2.378 0 019.1 14.482c-.943-.185-2.296-.525-4.037-1.148-1.737-.624-2.996-1.223-3.84-1.678A2.35 2.35 0 01.034 9.185C.2 8.208.524 6.818 1.16 5.07c.637-1.75 1.282-3.024 1.783-3.88A2.379 2.379 0 015.447.044C6.389.228 7.742.568 9.48 1.19c1.74.625 3 1.223 3.844 1.68a2.35 2.35 0 011.187 2.47c-.165.976-.49 2.368-1.126 4.115" mask="url(#detmir__c)"/></g><path fill="#00A550" d="M54.335 38.044c.643 1.742.974 3.13 1.144 4.103.175 1-.296 1.993-1.174 2.473-.842.46-2.097 1.062-3.83 1.695-1.733.63-3.083.976-4.022 1.165a2.373 2.373 0 01-2.506-1.132c-.504-.853-1.155-2.124-1.797-3.866-.644-1.743-.975-3.13-1.144-4.104a2.347 2.347 0 011.175-2.473c.84-.459 2.094-1.061 3.826-1.694 1.734-.63 3.085-.976 4.026-1.165a2.375 2.375 0 012.504 1.132c.505.852 1.155 2.123 1.798 3.866"/><g transform="translate(24.485 33)"><mask id="detmir__e" fill="#fff"><use xlink:href="#detmir__d"/></mask><path fill="#FCB833" d="M13.385 9.456c-.636 1.748-1.282 3.024-1.782 3.88A2.378 2.378 0 019.1 14.482c-.943-.185-2.296-.525-4.037-1.148-1.737-.624-2.996-1.223-3.84-1.678A2.35 2.35 0 01.034 9.185C.2 8.208.524 6.818 1.16 5.07c.637-1.75 1.282-3.024 1.783-3.88A2.379 2.379 0 015.446.044C6.39.228 7.742.568 9.48 1.19c1.74.625 3 1.223 3.844 1.68a2.35 2.35 0 011.187 2.47c-.165.976-.49 2.368-1.126 4.115" mask="url(#detmir__e)"/></g><path fill="#EC1D24" d="M21.365 38.044c.644 1.742.974 3.13 1.145 4.103.174 1-.296 1.993-1.175 2.473-.841.46-2.096 1.062-3.83 1.695-1.732.63-3.083.976-4.022 1.165a2.373 2.373 0 01-2.506-1.132c-.504-.853-1.154-2.124-1.797-3.866-.643-1.743-.974-3.13-1.144-4.104a2.349 2.349 0 011.175-2.473c.84-.459 2.094-1.061 3.827-1.694 1.734-.63 3.084-.976 4.025-1.165a2.375 2.375 0 012.504 1.132c.505.852 1.155 2.123 1.798 3.866"/></g></svg>