<svg xmlns="http://www.w3.org/2000/svg" xmlns:xlink="http://www.w3.org/1999/xlink" width="80" height="80"><defs><circle id="royalsamples__a" cx="40" cy="40" r="40"/></defs><g fill="none" fill-rule="evenodd"><use fill="#000" xlink:href="#royalsamples__a"/><path fill="#FFEEAD" fill-rule="nonzero" d="M27.428 47.48c-.094-.007-.264.074-.285.149-.062.21.119.212.264.222a3.133 3.133 0 011.461.476c.727.453 1.064 1.09.96 1.95-.113.935-.597 1.586-1.514 1.84-1.074.295-2.082.003-3.027-.496-1.574-.83-2.73-2.1-3.66-3.593-.915-1.467-1.481-3.098-2.167-4.671-.463-1.062-1.015-2.059-1.856-2.866-.288-.277-.628-.501-.944-.75.003-.008.005-.023.013-.025a.681.681 0 01.091-.034c1.798-.47 3.205-1.495 4.227-3.035 1.137-1.712 1.458-3.577.602-5.469-1.174-2.587-3.323-3.95-6.103-4.244-1.43-.152-2.885-.07-4.328-.112-.296-.01-.37.083-.372.371-.039 5.635-.09 11.27-.137 16.905-.006.75-.023 1.5-.018 2.25 0 .1.095.282.155.285.424.025.851.013 1.314.013v-.416c.015-1.775.03-3.551.05-5.327.004-.317-.09-.77.077-.915.192-.169.623-.085.949-.08.638.011 1.29-.031 1.912.08 1.408.257 2.27 1.238 2.817 2.469.415.932.721 1.917 1.004 2.897.461 1.595 1.097 3.09 2.146 4.396 1.66 2.066 3.785 3.146 6.458 3.084 1.48-.035 2.385-.75 2.626-2.107.132-.742.14-1.486-.406-2.099a3.371 3.371 0 00-2.309-1.147zm-12.83-8c-.604.012-1.21.002-1.897.002.102-.13.151-.207.214-.27.318-.322.635-.643.96-.958.323-.311.692-.478 1.163-.44.625.052 1.254.075 1.882.08.271.004.554-.03.813-.11.61-.19.813-.64.533-1.212-.136-.276-.107-.488.052-.726.203-.303.134-.51-.219-.683.38-.471.38-.471-.089-1.03.157-.206.317-.4.458-.606.26-.376.216-.638-.156-.902-.287-.205-.595-.38-.878-.59-.387-.285-.628-.644-.657-1.16-.066-1.224-.736-2.116-1.672-2.834-.328-.251-.68-.47-1.056-.729 1.217-.077 2.344.13 3.36.737 2.155 1.285 3.255 3.181 3.105 5.715-.14 2.392-1.395 4.073-3.49 5.154-.754.39-1.58.546-2.425.562zm51.01 13.2c-.413.05-.836.003-1.255-.004-.272-.004-.41-.158-.417-.412-.012-.526-.003-1.052-.003-1.614.607.058 1.19-.087 1.764.113v-.365h-1.744v-1.924c.43 0 .837.017 1.24-.005.341-.02.612.023.686.42.002.008.037.009.08.017.01-.084.023-.166.026-.249.012-.426.01-.426-.429-.43a764.1 764.1 0 00-2.15-.018c-.109-.001-.217.013-.245.014.069.203.17.367.17.529.007 1.113-.006 2.227-.015 3.34-.002.29.083.614-.308.791 1.04.041 2.05.043 3.06.038.047 0 .134-.064.137-.102.015-.185.007-.371.007-.497-.217.134-.4.335-.605.359zm-50.23-25.934c.164 0 .365.02.372-.216.008-.244-.19-.261-.374-.262l-4.226-.032c-.184 0-.38.008-.37.259.01.24.208.216.371.216.706.002 1.409 0 2.113 0v.037c.705 0 1.41 0 2.113-.002zm55.955 17.512c-.09.135-.213.26-.26.408-.258.813-.624 1.117-1.472 1.185-.098.01-.199.028-.296.021-.832-.054-1.667-.096-2.496-.18-.321-.032-.535-.26-.576-.597-.05-.415-.122-.832-.121-1.246.01-2.802.039-5.602.057-8.403.005-.85.126-1.24 1.092-1.204.083.002.169-.1.252-.153-.088-.061-.171-.132-.267-.181-.043-.023-.108-.008-.164-.008l-3.537-.033c-.077 0-.163-.02-.23.007-.09.037-.164.112-.244.17.076.064.144.162.23.183.148.036.309.012.46.034.487.067.67.27.702.76.018.274.048.55.045.825-.019 2.602-.034 5.204-.077 7.806-.011.67-.11 1.339-.177 2.007-.034.33-.23.497-.561.548-.168.027-.49-.086-.463.211.025.276.332.18.524.18 1.1.008 2.22.098 3.32.099l-.006-.009c1.155 0 2.31.006 3.465-.002.47-.004.612-.11.711-.57.099-.45.17-.91.217-1.37.015-.156-.083-.324-.128-.488zm-60.135-18.33c1.379.006 2.757.02 4.136.038.22.002.367-.066.486-.265.391-.652.804-1.291 1.204-1.938.112-.18.21-.32.474-.325.362-.01.596-.37.564-.76a.688.688 0 00-.668-.61c-.347.003-.705.313-.636.656.08.41-.154.538-.418.694-.189.112-.372.23-.594.37-.09-.19-.17-.335-.227-.488-.1-.276-.268-.316-.515-.189-.214.11-.437.202-.675.31l-.704-1.108c.388-.4.446-.795.181-1.098-.212-.245-.643-.288-.9-.092-.363.276-.346.626.064 1.21l-.71 1.07c-.26-.123-.5-.234-.735-.35-.198-.096-.335-.046-.427.156-.079.177-.17.35-.27.551l-1.032-.703c.022-.088.043-.15.053-.214.06-.443-.188-.806-.58-.85-.339-.04-.676.235-.722.585-.057.426.198.725.638.808a.583.583 0 01.334.25c.413.664.813 1.337 1.203 2.016a.489.489 0 00.476.276zm3.884-2.308c.304.412.295.452-.178.693l-.315-.473.493-.22zm-3.62-.045c.174.078.329.147.528.238l-.341.516-.4-.28c.07-.151.134-.296.214-.474zm-1.008.533c.307.208.616.414.922.623.38.26.441.245.698-.15.395-.609.792-1.215 1.224-1.878l.939 1.481.14.223c.385.602.385.601 1 .208.248-.16.499-.32.811-.43-.26.411-.514.826-.786 1.229-.035.05-.16.054-.244.052-1.257-.006-2.514-.012-3.77-.03-.102 0-.245-.062-.297-.141-.242-.367-.46-.75-.687-1.128l.05-.059zm49.361 28.54a5.72 5.72 0 01-.628-.001c-.613-.03-.808-.228-.804-.838.005-1.026.025-2.05.025-3.077 0-.248.046-.44.313-.544h-1.224c-.034.032-.066.064-.1.094.435-.043.39.21.389.432-.006 1.114-.012 2.228-.022 3.342-.003.29.086.617-.29.79h3.17V51.74c-.083.09-.098.181-.115.273-.08.433-.273.61-.714.635zm10.507-2.239c-.371-.165-.768-.279-1.132-.458-.507-.25-.577-.838-.173-1.237.356-.35.991-.374 1.433-.048.13.098.247.213.37.32.031-.014.062-.03.093-.046-.093-.2-.134-.467-.29-.592-.424-.339-1.453-.163-1.84.267a1.274 1.274 0 00.372 2.013c.375.186.78.311 1.157.489.324.153.519.415.474.794-.046.379-.268.647-.63.727a2.55 2.55 0 01-.911.038c-.548-.078-.75-.329-.818-.878-.01-.082-.029-.163-.043-.244-.028.005-.055.01-.083.013V53c.68-.044 1.346-.08 2.01-.138.119-.012.243-.107.34-.191.772-.66.601-1.85-.329-2.262zM49.42 48.906c-.045-.322-.088-.611.308-.786-.155-.04-.294-.026-.427-.044-.262-.034-.39.071-.486.32-.219.565-.476 1.114-.722 1.667-.24.546-.486 1.088-.757 1.695-.077-.178-.128-.287-.173-.397-.425-1.016-.85-2.031-1.279-3.044-.04-.095-.112-.244-.181-.251-.276-.03-.555-.012-.924-.012.526.283.573.364.501.85a405.02 405.02 0 01-.464 3.1c-.038.256.014.556-.298.704h.627c-.028-.182-.092-.352-.073-.51.08-.666.18-1.33.279-1.994.05-.343.11-.685.166-1.028a2.56 2.56 0 00.066-.005l1.526 3.577.094-.013c.524-1.18 1.045-2.361 1.568-3.544a36.75 36.75 0 01.45 3.005c.02.177-.027.36-.045.563h.885c-.078-.221-.192-.426-.222-.643-.15-1.07-.27-2.142-.419-3.21zm-2.577-2.497a.295.295 0 00.14-.186c.008-.037-.09-.125-.15-.136-.172-.033-.35-.033-.525-.055-.654-.078-.844-.24-.86-.896a93.724 93.724 0 01-.022-3.968c.005-.303.126-.635.284-.9.7-1.174 1.415-2.34 2.16-3.485.45-.692.946-1.354 1.452-2.006.307-.395.731-.62 1.246-.672.113-.01.215-.132.321-.202-.109-.05-.218-.144-.328-.146-.914-.02-1.83-.025-2.744-.034-.034-.001-.071-.01-.098.004-.083.04-.161.09-.242.136.061.07.108.179.182.203.354.117.37.38.292.667a2.197 2.197 0 01-.232.543c-.722 1.213-1.45 2.421-2.176 3.63-.219.366-.434.733-.68 1.153-.779-1.317-1.52-2.567-2.255-3.821a45.985 45.985 0 01-.914-1.608c-.11-.208-.172-.44.123-.592.1-.052.171-.164.257-.248-.118-.041-.235-.116-.353-.117-.993-.018-1.984-.023-2.976-.032-.034 0-.073-.011-.1.003-.085.046-.166.102-.25.154.074.068.139.183.22.195.5.077.878.348 1.198.711.218.247.432.503.606.782.936 1.496 1.855 3 2.784 4.5.295.474.54.97.538 1.54a115.231 115.231 0 01-.06 3.572c-.026.717-.171.837-.886.937-.032.004-.076-.004-.096.014-.06.053-.135.112-.15.18-.01.038.078.124.138.149.078.032.171.031.26.032 1.21.01 2.423.018 3.636.025.088 0 .185.01.26-.026zm7.372 1.753c-.415-.04-.834-.04-1.253-.053-.2-.007-.4-.002-.602-.002l-.052.1c.364.01.328.246.327.457-.007 1.18-.02 2.358-.021 3.537 0 .24-.002.458-.28.577h1.1c-.07-.182-.195-.355-.197-.53-.006-1.223.014-2.447.027-3.67 0-.063.018-.124.027-.18.776-.123 1.238.121 1.397.726.18.675-.038.997-.908 1.338.012.017.02.046.035.05.7.138 1.406-.332 1.502-1.002.107-.739-.314-1.269-1.102-1.348zm6.043-3.102l-.192-.457a372.23 372.23 0 01-1.909-4.676c-.82-2.032-1.622-4.071-2.445-6.102-.05-.125-.185-.264-.304-.29-.074-.017-.198.161-.289.262-.042.047-.062.116-.086.178-.989 2.487-1.977 4.975-2.969 7.461-.48 1.206-.961 2.413-1.461 3.61-.286.684-.798 1.06-1.569 1.052-.109 0-.218.118-.328.18.115.064.228.177.344.18 1.09.021 2.181.028 3.272.023.107-.001.213-.11.32-.167-.1-.063-.197-.181-.295-.181-.643.003-.664-.347-.576-.772a4.24 4.24 0 01.17-.603c.322-.879.66-1.751.975-2.63.085-.24.211-.318.46-.312 1.17.025 2.339.039 3.507.039.228 0 .332.075.41.281.425 1.11.862 2.217 1.298 3.323.2.512.203.51-.186.918.129.046.218.103.307.106 1.068.033 2.138.065 3.208.08.096 0 .194-.125.293-.191-.098-.054-.194-.153-.293-.155-.814-.018-1.36-.444-1.662-1.157zm-6.922-3.997l1.711-4.743c.038-.004.076-.009.115-.012.566 1.577 1.134 3.152 1.71 4.755h-3.536zM35.34 50.09c-.351-.157-.718-.278-1.073-.427-.3-.126-.478-.342-.469-.686.011-.358.188-.603.498-.757.398-.196.94-.104 1.295.213.086.077.168.158.274.257-.005-.54-.106-.673-.555-.763-.556-.11-1.08-.077-1.499.366-.571.603-.409 1.627.333 2 .392.196.823.316 1.213.516.513.264.624.847.244 1.245-.428.449-.971.403-1.512.268-.44-.11-.602-.44-.634-.862-.005-.074-.029-.146-.043-.22H33.3c0 .424-.008.848.01 1.27.001.047.142.125.218.127.442.01.885.036 1.321-.012.282-.03.606-.112.818-.285.793-.645.608-1.835-.326-2.25zm.467-15.202c-1.179-.978-2.576-1.42-4.084-1.526-3.074-.214-5.74 1.193-6.968 4.129-1.008 2.412-.418 5.389 1.455 7.214 1.333 1.299 2.98 1.777 3.893 1.788 4.77.033 7.674-2.694 7.848-6.538.092-2.022-.558-3.754-2.144-5.067zm-.414 8.574c-.751 1.381-1.94 2.125-3.487 2.24-2.746.202-4.928-1.475-5.553-4.243-.331-1.467-.34-2.936.156-4.372.587-1.698 1.798-2.687 3.565-2.954 2.905-.44 5.299 1.277 5.852 4.164.058.302.108.608.139.914.032.318.037.638.046.83-.03 1.272-.16 2.395-.718 3.421zm5.21 4.84c-.05-.128-.116-.25-.21-.454-.093.174-.156.271-.198.376-.417 1.03-.81 2.07-1.252 3.09-.2.461-.235 1.025-.82 1.347h.697c.02-.167.014-.32.062-.453.139-.383.3-.757.45-1.136.202-.516.2-.517.772-.504.154.003.31.018.463.006.207-.018.317.058.386.26.155.449.345.883.5 1.329.056.157.055.334.083.524h.927c-.133-.22-.299-.43-.396-.668-.498-1.236-.977-2.478-1.464-3.718zm-.972 2.024l.563-1.376c.195.498.36.917.538 1.376H39.63z"/></g></svg>