<svg xmlns="http://www.w3.org/2000/svg" xmlns:xlink="http://www.w3.org/1999/xlink" width="80" height="80"><defs><circle id="helptomama__a" cx="40" cy="40" r="40"/></defs><g fill="none" fill-rule="evenodd"><use fill="#D0EFFB" xlink:href="#helptomama__a"/><g fill-rule="nonzero"><path fill="#E7A44A" d="M61.222 56.86a.706.706 0 01.512-.24c.228 0 .399.06.513.24.113.12.17.3.17.54 0 .24-.057.36-.17.54-.114.12-.285.18-.513.18-.227 0-.398-.06-.512-.18-.113-.12-.17-.3-.17-.54 0-.18.057-.36.17-.54z"/><path fill="#669AD4" d="M10.47 53.44c0-.18.058-.36.171-.54.114-.12.285-.18.512-.18.228 0 .399.06.513.18.113.12.17.3.17.54v4.02c0 .24-.057.42-.17.54-.114.12-.285.18-.513.18-.227 0-.398-.06-.512-.18-.113-.12-.17-.3-.17-.54v-1.44H8.764v1.44c0 .24-.057.36-.17.54-.115.12-.285.18-.513.18-.228 0-.398-.06-.512-.18-.114-.12-.17-.3-.17-.54v-4.02a1 1 0 01.17-.54c.114-.12.284-.18.512-.18.228 0 .398.06.512.18.114.12.17.3.17.54v1.32h1.708v-1.32zm2.675 0c0-.18.057-.36.17-.54.114-.12.285-.18.513-.18h2.39c.227 0 .34.06.511.18.114.12.171.24.171.48 0 .18-.057.36-.17.48-.114.12-.285.18-.513.18H14.51v.78h1.309c.228 0 .341.06.512.18.114.12.17.24.17.48 0 .18-.056.36-.17.48-.114.12-.284.18-.512.18H14.51v.84h1.764c.228 0 .398.06.512.18.114.12.17.3.17.48s-.056.36-.17.48c-.114.12-.284.18-.512.18h-2.446c-.228 0-.399-.06-.512-.18-.114-.12-.171-.3-.171-.54v-4.14zm5.348 4.74a.627.627 0 01-.455-.18c-.114-.12-.17-.3-.17-.54v-4.02a1 1 0 01.17-.54c.114-.12.284-.18.512-.18.228 0 .398.06.512.18.114.12.17.3.17.54v3.48h1.708c.227 0 .341.06.455.18.114.12.17.24.17.48 0 .18-.056.36-.17.48a.627.627 0 01-.455.18l-2.447-.06zm3.87-4.62c0-.42.17-.72.568-.78.341-.06.74-.12 1.195-.12.626 0 1.138.18 1.536.48.398.3.569.78.569 1.38 0 .66-.17 1.14-.569 1.44-.398.36-.91.48-1.48.48-.17 0-.34 0-.511-.06v1.02c0 .24-.057.36-.171.54-.114.12-.284.18-.512.18-.228 0-.398-.06-.512-.18-.114-.12-.17-.3-.17-.54v-3.84h.056zm2.275 1.5c.114-.12.17-.3.17-.54 0-.24-.056-.36-.17-.48-.114-.12-.285-.18-.512-.18h-.455v1.32h.398c.284.06.455 0 .569-.12zm6.088-2.34c.227 0 .398.06.512.18.114.12.17.24.17.48 0 .18-.056.36-.17.48-.114.12-.285.18-.512.18h-.967v3.48c0 .24-.057.36-.171.54-.114.12-.285.18-.512.18-.228 0-.398-.06-.512-.18-.114-.12-.17-.3-.17-.54v-3.48h-1.025c-.228 0-.341-.06-.455-.18a.703.703 0 01-.17-.48c0-.18.056-.36.17-.48a.627.627 0 01.455-.18h3.357zm1.877.6c.456-.54 1.081-.78 1.878-.78.797 0 1.422.24 1.878.78.455.54.682 1.2.682 2.04 0 .84-.227 1.5-.682 2.04-.456.54-1.081.78-1.878.78-.797 0-1.422-.24-1.878-.78-.455-.54-.682-1.2-.682-2.04.057-.84.284-1.5.682-2.04zm1.081 3.12c.171.3.456.42.854.42.341 0 .626-.12.853-.42.171-.3.285-.66.285-1.08 0-.48-.114-.84-.285-1.14-.17-.3-.455-.42-.853-.42-.398 0-.683.12-.854.42-.17.3-.284.66-.284 1.14 0 .42.057.84.284 1.08z"/><path fill="#E7A44A" d="M63.669 53.5c0-.48.228-.72.626-.78.284-.06.74-.06 1.252-.06.625 0 1.137.12 1.479.42.341.3.569.72.569 1.32 0 .72-.285 1.2-.797 1.44l.74 1.14c.114.18.17.36.114.6 0 .18-.114.36-.285.48-.17.12-.341.18-.569.12-.227-.06-.341-.18-.455-.36l-.853-1.68h-.456v1.38c0 .24-.056.36-.17.54-.114.12-.285.18-.512.18-.228 0-.399-.06-.512-.18-.114-.12-.171-.3-.171-.54V53.5zm2.447.96c0-.36-.228-.54-.74-.54-.17 0-.285 0-.398.06v1.14h.398c.512 0 .74-.24.74-.66zm3.129 3.06c-.342-.42-.512-.96-.512-1.68v-2.52c0-.18.057-.36.17-.54.114-.12.285-.18.513-.18.227 0 .398.06.512.18.113.12.17.3.17.54v2.58c0 .3.057.54.228.72.114.18.341.24.569.24.227 0 .455-.06.569-.24.114-.18.17-.42.17-.72v-2.58c0-.18.057-.36.171-.54a.627.627 0 01.455-.18c.171 0 .399.06.456.18.113.12.17.3.17.48v2.64c0 .66-.17 1.2-.512 1.56-.341.42-.853.66-1.593.66-.683.06-1.195-.18-1.536-.6z"/><path fill="#669AD4" d="M53.2 53.14c.17-.3.341-.42.626-.42.227 0 .341.06.455.18.114.12.17.3.17.54v4.02c0 .24-.056.42-.17.54-.114.12-.284.18-.512.18-.228 0-.398-.06-.512-.18-.114-.12-.17-.3-.17-.54v-2.22l-.57 1.02c-.17.24-.341.42-.626.42-.227 0-.455-.12-.625-.36l-.57-.96v2.1c0 .48-.227.72-.625.72-.228 0-.399-.06-.455-.18-.114-.12-.171-.3-.171-.54v-4.02c0-.18.057-.36.17-.48a.627.627 0 01.456-.18c.284 0 .512.12.682.42l1.252 2.04 1.195-2.1zm5.234 3.66h-1.65l-.227.72a.877.877 0 01-.341.54c-.171.12-.342.12-.57.06-.17-.06-.284-.18-.284-.36-.057-.18 0-.36.057-.6l1.593-4.02c.114-.36.341-.54.683-.54.284 0 .512.18.626.48l1.593 4.02c.057.18.114.36.057.54-.057.18-.171.36-.342.42-.227.06-.398.06-.569 0-.17-.06-.284-.24-.341-.48l-.285-.78zm-1.308-1.08h.967l-.512-1.32-.455 1.32zM47.112 56.8h-1.65l-.228.72a.877.877 0 01-.34.54c-.172.12-.342.12-.57.06-.17-.06-.284-.18-.284-.36-.057-.18 0-.36.057-.6l1.593-4.02c.113-.36.341-.54.682-.54.285 0 .512.18.626.48l1.65 4.02c.057.18.114.36.057.54-.057.18-.17.36-.341.42-.228.06-.398.06-.57 0-.17-.06-.284-.24-.34-.48l-.342-.78zm-1.309-1.08h.968l-.455-1.32-.513 1.32zm-3.925-2.58c.17-.3.341-.42.625-.42.228 0 .399.06.456.18.113.12.17.3.17.54v4.02c0 .24-.057.42-.17.54-.114.12-.285.18-.512.18-.228 0-.399-.06-.513-.18-.113-.12-.17-.3-.17-.54v-2.22l-.57 1.02c-.113.24-.34.42-.625.42-.228 0-.455-.12-.626-.36l-.626-.96v2.1c0 .48-.227.72-.626.72-.227 0-.398-.06-.512-.18-.113-.12-.17-.3-.17-.54v-4.02c0-.18.057-.36.17-.48a.627.627 0 01.455-.18c.285 0 .513.12.683.42l1.252 2.04 1.309-2.1z"/></g><g fill-rule="nonzero"><path fill="#A36A44" d="M33.921 40.981c.493.894 1.15 1.544 1.643 2.032.904.812 1.561 1.462 1.397 2.843-.082.65-.329 1.138-.74 1.381-.328.244-.739.407-1.15.407.165.081.493.162.74.244.903.08 1.478-.163 1.971-.57.822-.73 1.15-1.787 1.232-2.193.165-1.219-.246-2.112-.739-2.925-.493-.975-1.068-2.031-.821-3.656.164-1.463 1.067-2.275 2.135-2.6.411-.081.904-.163 1.315-.081.41.08.903.162 1.232.406 1.068.569 1.889 1.706 1.643 3.25-.083.812-.575 1.625-.986 2.437-.41.732-.904 1.544-.986 2.275v.407c0 .162 0 .243.082.406.082.406.247.731.411.975.246.244.493.406.821.569.329.08.658.162.986.243-.082-.081-.246-.162-.328-.325-.083-.162-.165-.243-.247-.406-.082-.162-.082-.325-.082-.487v-.488c.082-.812.904-1.544 1.725-2.356.74-.731 1.56-1.544 1.971-2.275l.329-.813.575.65c.41.407.904.732 1.56 1.057.658.325 1.48.568 2.3.73 1.397.245 2.3 0 2.958-.487.328-.243.575-.568.74-.812.081-.163.163-.325.246-.488-.165.082-.411.163-.575.244a4.59 4.59 0 01-2.136.081c-.904-.162-1.56-.731-2.136-1.462-.657-.894-1.15-2.113-1.396-3.088l-.247-.975.986.325c.41.082.821.163 1.314.244.493.081.986.081 1.561.081 3.943 0 5.01-2.925 5.832-5.2.493-1.381.904-2.681 1.89-3.087-.165-.081-.33-.081-.493-.081-1.561 0-2.136 1.137-2.629 2.356-.493.975-.904 2.031-1.89 2.6-.246.162-.492.244-.739.325-.246.081-.575.081-.903.081a8.715 8.715 0 01-1.972-.244c-.821-.406-1.56-.812-2.135-1.218-.657-.488-1.068-1.138-1.068-2.032 0-.243 0-.487.082-.731v-.162c.657-1.788.986-3.575.986-5.363a11.52 11.52 0 00-1.725-6.094c-1.068-1.625-2.711-2.925-4.765-3.737-1.232-.488-2.71-.731-4.271-.65-1.479 0-2.793.244-3.943.65-2.136.731-3.86 2.112-4.928 3.9-1.068 1.787-1.643 3.981-1.643 6.337 0 1.707.328 3.494.985 5.2v.162c0 1.3-.246 2.357-.903 3.17-.657.812-1.725 1.218-3.204 1.218-2.053 0-2.628-1.787-3.121-3.493-.329-.975-.575-1.95-1.15-2.032.493.407.575 1.219.657 2.275.164 2.357.575 6.419 5.34 6.419.492 0 .985-.081 1.396-.244.493-.162.903-.325 1.15-.487l.903-.488v.975c-.082.975-.328 1.788-.739 2.438-.493.812-1.068 1.3-1.643 1.381-.41.081-.986 0-1.643-.081-.739-.081-1.478-.244-2.135-.163-.247.082-.658.163-.986.488a1.698 1.698 0 00-.329.487c.165-.081.411-.162.657-.243 1.315-.244 2.218.325 3.122.893.821.488 1.725 1.057 3.121.894.493-.081.904-.244 1.315-.406.41-.244.821-.488 1.15-.894l.575-.569.492.65zm.822 2.844c-.493-.488-1.068-.975-1.56-1.706a5.534 5.534 0 01-.904.569c-.493.243-1.068.406-1.643.568-1.89.325-2.957-.406-3.943-.975-.74-.487-1.397-.893-2.3-.731-.329.081-.493.488-.575.731-.082.325-.164.65-.493.732h-.164c-.165 0-.329 0-.493-.163-.082-.081-.247-.244-.329-.406 0-.082-.082-.163-.082-.244-.246-1.462.164-2.356.74-2.925.574-.569 1.232-.731 1.56-.812.822-.163 1.725 0 2.464.162.493.081.986.163 1.233.163.246-.082.575-.325.821-.813.164-.244.246-.569.41-.894-.081 0-.246.082-.328.082-.575.162-1.15.325-1.807.325-5.914 0-6.325-4.713-6.49-7.475v-.488l-.574-.406c-.329-.244-.493-.569-.493-.894 0-.244 0-.487.082-.731s.246-.488.493-.65c.328-.244.74-.325 1.15-.244 1.232.163 1.643 1.463 2.136 2.844.41 1.3.821 2.681 1.971 2.681 1.068 0 1.89-.325 2.3-.812.493-.57.657-1.3.657-2.357-.657-1.868-.986-3.737-.986-5.525 0-2.6.575-4.956 1.808-6.906 1.396-2.031 3.203-3.575 5.667-4.387 1.315-.407 2.711-.732 4.354-.732 1.725 0 3.286.244 4.682.732 2.382.812 4.19 2.356 5.422 4.306 1.232 1.869 1.889 4.225 1.889 6.662a17.27 17.27 0 01-.986 5.688v.081c0 .163-.082.244-.082.406 0 .407.246.813.657 1.138.41.325.986.65 1.643.812.575.163 1.15.244 1.643.244.246 0 .41 0 .575-.081.164-.081.328-.081.493-.163.657-.406 1.068-1.218 1.396-2.112.657-1.544 1.314-3.006 3.697-3.006.492 0 .985.162 1.232.325.493.325.821.812.821 1.056v.244c0 .08-.082.162-.164.325-.082.162-.247.243-.493.243-.821 0-1.232 1.138-1.725 2.6-.904 2.6-2.136 6.013-6.9 6.013-.575 0-1.15 0-1.725-.081-.164 0-.329-.082-.493-.082.247.65.575 1.219.904 1.788.41.569.903.975 1.478 1.056.575.081 1.15.081 1.561-.081.329-.081.575-.244.575-.325v-.163a.513.513 0 010-.487c.082-.325.246-.488.493-.569h.082c.246 0 .41 0 .575.163l.246.243c.247.325.329.975.247 1.707a4.219 4.219 0 01-.493 1.3c-.246.406-.575.893-.986 1.218-.821.65-2.135 1.057-3.86.732-.904-.163-1.808-.407-2.629-.813-.493-.244-.986-.487-1.314-.812-.493.73-1.15 1.38-1.807 2.03-.74.65-1.315 1.3-1.397 1.707v.325c0 .081 0 .081.082.081.082.082.247.163.329.244l.328.163c.165 0 .329.08.493.243.082.082.082.163.165.244.082.081.082.244.082.406 0 .163-.082.244-.165.325-.41.407-.903.569-1.396.65-.575.082-1.232-.081-1.725-.243-.575-.163-.986-.488-1.314-.894a2.963 2.963 0 01-.657-1.544c-.083-.162-.083-.406-.083-.569v-.568c.083-.975.575-1.788 1.068-2.682.411-.731.822-1.381.904-2.031.082-1.056-.41-1.787-1.068-2.112a1.598 1.598 0 00-.821-.244c-.329 0-.575 0-.904.081-.657.163-1.15.731-1.232 1.625-.164 1.3.328 2.194.74 3.006.492.975.985 1.95.82 3.575-.082.569-.492 2.032-1.56 2.925-.74.569-1.643.975-2.875.894-.575-.081-1.068-.244-1.479-.569-.493-.406-.821-.893-.739-1.3.082-.406.41-.65.74-.65h.574c.329 0 .575 0 .74-.162.164-.081.328-.325.328-.65-.082-1.138-.657-1.625-1.314-2.194z"/><path fill="#E7A44A" d="M32.525 38.056c.41 5.444 4.19 5.119 3.86 7.638-.081.975-.903 1.381-1.724 1.3-.165 0-.657 0-.657.162-.083.407.657 1.056 1.725 1.219 2.792.325 3.696-2.519 3.86-3.331.329-2.844-1.889-3.575-1.56-6.581.41-3.413 5.585-2.6 5.257.893-.165 1.463-1.807 3.088-1.972 4.713 0 .325 0 .65.082.975.165.975.74 1.625 1.643 2.031.74.244 1.89.488 2.465-.244.082-.081-.083-.162-.247-.162-.164 0-.657-.244-.986-.569a.873.873 0 01-.246-.569v-.325c.164-1.3 3.614-3.087 3.86-5.281.33-2.6-.574-4.144-1.067-4.712-.986-1.22-.575-2.032-.247-2.763 1.808-2.519-14.539-4.875-14.046 5.606z"/><path fill="#D08C48" d="M42.546 37.244c.493.487.822 1.3.74 2.194-.165 1.462-1.807 3.087-1.972 4.712 0 .325 0 .65.082.975.247 1.138.904 1.869 2.136 2.112-1.15-.812-1.643-2.03-1.478-3.168.164-1.138 1.642-3.088 1.807-4.55.164-1.382-1.232-2.194-1.315-2.275zm-8.871 4.55l.082.081c.904 1.219 2.054 1.788 2.464 2.763.165.243.165.568.165.974v.244c-.165.813-.904 1.219-1.643 1.138.986.162 2.218 0 2.3-1.3.082-2.194-1.725-2.113-3.368-3.9z"/><path fill="#E7A44A" d="M60.371 26.6c-3.285 0-2.71 3.819-4.846 5.037-.329.163-.821.326-1.314.326-1.972 0-5.011-.975-4.436-3.25 1.068-3.982-5.504 2.356-2.629 5.28 1.808 1.788 3.45 2.195 5.997 2.195 7.228 0 5.586-8.532 8.625-8.532 0 0 .082 0 .082-.081 0-.325-.41-.975-1.479-.975z"/><path fill="#F1C382" d="M60.454 26.6c-2.629 0-2.875 2.356-3.861 3.981.74-.487 1.15-1.95 2.136-2.925.575-.568 1.396-.893 2.3-.893-.165-.082-.329-.163-.575-.163z"/><path fill="#D08C48" d="M50.104 35.862c.903.244 1.889.325 3.039.325 2.793 0 4.271-1.218 5.175-2.843-1.15 2.194-5.422 2.6-8.46 1.625l.246.893z"/><path fill="#E7A44A" d="M49.775 28.875c3.204-8.287-.986-16.981-10.35-16.9-9.364.081-13.06 8.531-10.104 16.819.165 9.343 19.715 9.668 20.454.081z"/><path fill="#6282B3" d="M52.321 37c.165-.081.329-.163.493-.163l.165-.487c.082-.325.328-.488.739-.488h.164c.082-.243.164-.568.164-.568.083-.325.329-.488.575-.65.247-.163.575-.163.904-.082.329.082.493.326.657.57.164.243.164.568.082.893 0 0 0 .081-.082.163-.082.08-.082.243-.164.406.082 0 .082.081.164.081.247.244.41.488.329.813l-.165.487c.083.162.165.244.247.406.082.325.164.65 0 .975l-1.972 5.85c-.164.406-.657.569-1.314.569-.41-.081-.903-.163-1.478-.406-.575-.163-1.068-.407-1.397-.65-.575-.325-.903-.732-.74-1.219l1.972-5.85a1.64 1.64 0 01.657-.65zm.822.975c-.082 0-.164 0-.247.081-.082 0-.164.082-.164.163l-1.971 5.85c-.082.162.164-.244.164-.244a4.96 4.96 0 001.15.569c.493.162.904.244 1.232.325.082 0 0 .487 0 .325l1.972-5.85v-.244c0-.081-.083-.162-.165-.162l-.41-.244.164-.406.164-.57s-.082 0-.082-.08l-.164-.244v-.65c0 .081-.082.162-.165.244l-.246.325-.329-.082h-.082l-.164.569-.164.488-.493-.163z"/><path fill="#799FC1" d="M55.443 38.138l-2.054-.65a.89.89 0 00-1.15.568l-1.971 5.85c-.082.244.74.732 1.807 1.057 1.068.325 1.971.487 2.054.243l1.971-5.85c.082-.568-.164-1.056-.657-1.218z"/><path fill="#7093C1" d="M55.443 38.138l-2.054-.65h-.164l1.725.568c.493.163.74.65.575 1.219l-1.971 5.85c-.083.244-.822.163-1.643-.081 1.068.325 1.971.487 2.053.244l1.972-5.85c.246-.65 0-1.138-.493-1.3z"/><path fill="#98BED8" d="M55.443 38.138l-2.054-.65a.89.89 0 00-1.15.568l-1.971 5.85c-.082.244.575.65 1.56.975-.492-.243-.82-.487-.82-.65l1.97-5.85a.89.89 0 011.15-.568l1.15.406c-.082-.163.247-.081.165-.081z"/><path fill="#E18F56" d="M53.554 36.513l-.329.975c-.082.162.493.487 1.068.65.657.243 1.232.243 1.314.162l.329-.975-2.382-.813z"/><path fill="#ECB285" d="M53.554 36.513l-.329.975c0 .08.082.162.246.243l.329-.893 1.15.406.986.162-2.382-.893z"/><path fill="#EEB96A" d="M55.443 36.919c0-.325.246-.894.246-1.056.082-.325-.082-.57-.328-.732-.329-.081-.575.082-.74.325 0 0-.164.732-.41 1.057-.329-.082-.657-.082-.657 0-.083.162.41.406 1.067.65.658.243 1.233.325 1.315.162 0-.081-.165-.244-.493-.406z"/><path fill="#A36A44" d="M49.857 41.388c.657.243 1.314.487 2.136.568 1.396.244 2.3 0 2.957-.487.329-.244.575-.488.74-.813.081-.162.164-.325.164-.487a4.028 4.028 0 01-.575.244 4.59 4.59 0 01-2.136.08c-.904-.162-1.643-.73-2.218-1.462-.246-.406-.575-.812-.74-1.3H51.5c.082.244.246.407.41.569.411.569.904.975 1.397 1.056.575.082 1.068.082 1.479-.081.164-.081.328-.081.41-.162 0 0 .658-.407.74-.65-.082-.082-.165-.244-.329-.325 0-.082.082-.163.082-.244.082 0 .082-.081.165-.081a.644.644 0 01.657.162c.164.081.246.162.246.244.247.325.329.975.247 1.706a4.219 4.219 0 01-.493 1.3 6.42 6.42 0 01-.986 1.219c-.904.65-2.136.975-3.86.731-.658-.081-1.233-.244-1.89-.488v-1.3h.082z"/><path fill="#F1C382" d="M36.632 12.3c-5.668 1.219-8.543 6.094-8.214 11.7.328-4.55 2.136-8.938 8.214-11.7z"/><path fill="#6282B3" d="M25.05 19.856c.904.325 1.479 1.056 1.807 1.869.329.813.329 1.706 0 2.6-.328.731-.821 1.219-1.396 1.625-.493.325-1.068.488-1.725.488 0 .08-.082.162-.082.162l-.247.244c-.082.081-.164.081-.246.162l-1.807 4.388.164 1.219v.649c0 .082 0 .163-.082.244 0 .081-.082.163-.082.244 0 .081-.083.162-.083.244 0 .081-.082.162-.082.162-.082.081-.082.163-.164.163l-.164.162c-.165.081-.329.244-.493.325-.164.081-.329.163-.493.163H19.3c-.164 0-.329-.082-.575-.163l-.493-.244c-.164-.08-.246-.243-.41-.406v-.081l-.247-.488c-.082-.162-.082-.325-.164-.487v-.812c0-.082.082-.082.082-.163 0 0 0-.081.082-.081 0-.081.082-.163.082-.163 0-.081.082-.162.164-.243.083-.082.083-.163.165-.163l.164-.162h.246l.986-.732 1.807-4.387c0-.081-.082-.163-.082-.244v-.325c0-.081 0-.162.082-.244-.41-.406-.739-.975-.821-1.543-.164-.65-.164-1.463.164-2.113a3.37 3.37 0 011.89-1.787c.82-.325 1.724-.325 2.628 0v-.082z"/><path fill="#9BC55F" d="M21.764 25.381l.329-.812.082-.081.082.08 1.232.488h.082v.082l-.328.893a1.123 1.123 0 01-.247.325c-.082.082-.246.163-.328.163l-1.972 4.794.247 1.38v.488c0 .082-.082.244-.082.325-.082.082-.082.244-.165.325l-.246.244c-.246.163-.493.325-.74.325-.246 0-.492 0-.82-.081-.247-.081-.494-.244-.576-.488-.164-.243-.246-.487-.328-.731v-.406c0-.081.082-.163.082-.244.082-.162.082-.244.164-.325l.247-.244.164-.081 1.15-.813 2.053-4.793c-.082-.081-.082-.244-.164-.325v-.406l.082-.082zm-1.725 7.8a.513.513 0 000-.487c-.082-.163-.164-.325-.328-.325a.529.529 0 00-.493 0 .638.638 0 00-.329.325.513.513 0 000 .487.638.638 0 00.329.325.529.529 0 00.493 0c.164 0 .246-.162.328-.325z"/><path fill="#8BBE5C" d="M21.764 25.381l.329-.812.082-.081.082.08 1.232.488h.082l-1.067-.406-.083-.081-.082.081-.328.813v.162c0 .081-.082.244 0 .406 0 .082.082.244.164.325l-1.971 4.794-1.15.813-.165.08c-.164 0-.246.082-.328.245-.082.08-.165.243-.165.325 0 .08-.082.162-.082.243v.407c0 .243.165.487.329.73.082.163.246.245.41.407h-.082c-.246-.081-.492-.244-.575-.487-.164-.244-.246-.488-.328-.732v-.406c0-.081.082-.162.082-.244.082-.162.082-.243.164-.325l.247-.243.164-.082 1.15-.812 2.054-4.794c-.083-.081-.083-.244-.165-.325v-.569zm-1.725 7.8a.513.513 0 000-.487c0-.082-.082-.163-.164-.244 0 0 .082 0 .164.081a.638.638 0 01.329.325.513.513 0 010 .488.638.638 0 01-.329.325.529.529 0 01-.493 0c-.082 0-.082-.081-.164-.081h.329c.164-.082.246-.244.328-.407z"/><path fill="#799FC1" d="M24.804 20.344c1.478.65 2.135 2.275 1.56 3.737-.575 1.463-2.3 2.194-3.778 1.544-1.479-.569-2.136-2.275-1.561-3.738.575-1.462 2.3-2.112 3.779-1.543z"/><path fill="#98BED8" d="M24.804 20.344c.082 0 .082.081.164.081a2.748 2.748 0 00-3.368 1.706c-.41 1.138-.164 2.438.657 3.25-.903-.487-1.396-1.462-1.396-2.437v-.488c0-.243.082-.406.164-.65.575-1.381 2.3-2.031 3.779-1.462z"/><path fill="#7093C1" d="M25.543 20.75c1.15.975 1.15 2.356.821 3.25-.575 1.381-2.135 2.194-3.778 1.544 2.71.487 4.353-2.519 2.957-4.794z"/><path fill="#A36A44" d="M23.079 29.2c-.411-1.3-1.068-1.869-1.89-1.462l-.41.893-.247.569-.164-.081c-.329-.244-.493-.569-.493-.894 0-.244 0-.488.082-.731.082-.244.247-.488.493-.569.329-.244.74-.325 1.15-.244.575.081.986.406 1.314.894l.657 1.462-.492.163z"/><path fill="#E7A44A" d="M30.307 34.319c.493 3.006-.903 4.875-1.807 5.037-.821.163-2.464-.487-3.779-.243-.492.08-2.3.568-1.889 3.006.082.325.164.325.247.325.246-.081.082-1.381 1.232-1.544 2.382-.406 3.121 2.194 6.243 1.706 1.725-.243 3.121-1.3 4.271-3.493 4.271-8.044-5.175-10.482-4.518-4.794z"/><path fill="#D08C48" d="M28.746 42.606c.575.163 1.15.163 1.808.082a5.147 5.147 0 002.875-1.463 5.625 5.625 0 01-.986-2.763c-.329.813.082 2.357.246 2.682-1.15 1.056-2.793 1.3-4.271.812-1.068-.325-1.89-.894-2.547-.812.904.325 1.643 1.137 2.875 1.462z"/><path fill="#F1C382" d="M30.06 37.65c-.246.731-.985 1.625-1.56 1.706-.575.082-1.725-.243-2.793-.243 1.232.73 2.957.73 3.368.487.575-.325.904-1.219.986-1.95z"/><path fill="#E7A44A" d="M29.321 28.794c0 2.356-.985 3.819-3.532 3.819-2.875 0-2.218-5.2-4.189-5.526-1.068-.162-1.479.975-.821 1.463l.164-.488h.082c1.314 0-1.068 8.694 6.49 8.694 1.724 0 3.45-1.137 3.45-1.137 8.46-4.957-3.122-10.725-1.644-6.825z"/><path fill="#F1C382" d="M29.321 28.794c0 2.356-.985 3.819-3.532 3.819-.246 0-.493-.082-.657-.163.822.569 2.793.406 3.779-.406.903-.813.739-2.357.41-3.25z"/><path fill="#E7A44A" d="M56.429 38.544c-.083-.081-.165-.163-.329-.163-.082 0-.164.163-.082.325 0 0 .082.163 0 .325-.082.569-1.314 1.138-2.793.894-2.054-.325-3.121-3.494-3.368-5.119-.328-2.518-2.382-3.656-4.025-2.762-1.314 2.6 3.122 4.55 1.725 8.612.904.894 2.464 1.625 4.19 1.95 4.6.813 5.174-3.331 4.682-4.062z"/><path fill="#D08C48" d="M23.16 35.212c.904.975 2.219 1.707 4.354 1.707 1.15 0 2.218-.488 2.875-.813l.165-.975c-1.233 1.138-4.272 1.869-7.393.082zm25.383 4.713c.328-1.869-.493-3.738-.986-4.225.575 1.3.74 3.737.082 4.956 1.232 1.463 5.257 2.519 6.9 1.707-2.053.243-5.503-.732-5.996-2.438z"/><path fill="#A36A44" d="M36.96 18.394c-1.15-.975-3.531 0-4.681 1.706.328-1.3.821-2.275 1.478-2.844 1.068-.975 2.875-.731 3.204 1.138zm5.258 0c1.15-.975 3.532 0 4.682 1.706-.246-1.3-.821-2.275-1.479-2.844-1.15-.975-2.875-.731-3.203 1.138z"/><path fill="#FFF" d="M35.729 19.938c2.464.406 1.971 5.2.492 5.85-2.875 1.3-4.928-6.582-.492-5.85z"/><path fill="#799FC1" d="M36.879 23.35c0-1.056-.575-1.95-1.315-1.95-.739 0-1.314.894-1.314 1.95s.575 1.95 1.314 1.95c.74 0 1.315-.894 1.315-1.95z"/><path fill="#272A2C" d="M36.386 23.512c0-.65-.329-1.218-.822-1.218-.41 0-.821.569-.821 1.218 0 .65.41 1.22.821 1.22s.822-.57.822-1.22z"/><path fill="#FFF" d="M35.318 22.294c0-.244-.164-.407-.41-.407-.247 0-.412.163-.412.407 0 .243.165.406.411.406.247.081.41-.162.41-.406zm7.968-2.357c-2.465.407-1.972 5.2-.493 5.85 2.957 1.3 4.928-6.58.493-5.85z"/><path fill="#799FC1" d="M42.218 23.35c0-1.056.575-1.95 1.314-1.95.74 0 1.314.894 1.314 1.95s-.575 1.95-1.314 1.95c-.74 0-1.314-.894-1.314-1.95z"/><path fill="#272A2C" d="M42.71 23.512c0-.65.411-1.218.822-1.218.493 0 .822.569.822 1.218 0 .65-.329 1.22-.822 1.22-.493 0-.821-.57-.821-1.22z"/><path fill="#FFF" d="M42.382 22.294c0-.244.164-.407.41-.407.247 0 .412.163.412.407 0 .243-.165.406-.411.406-.247.081-.41-.162-.41-.406z"/><path fill="#DC7968" d="M35.646 27.656c1.068.325 2.711.488 4.272.488 1.478 0 2.957-.163 4.19-.65.492-.163.574.081.492.244-.082.243-.41.487-.575.65-.575.65-.986 1.462-1.314 2.193-.657 1.463-1.232 2.763-2.957 2.763-1.89 0-2.465-1.382-3.122-2.844-.41-.813-.821-1.706-1.478-2.356-.329-.325-.411-.569-.247-.731.164 0 .41.162.74.243z"/><path fill="#FFF" d="M35.646 27.656c1.068.325 2.629.488 4.272.488 1.396 0 2.71-.163 3.86-.569-.41 2.113-7.639 2.031-8.132.081z"/><path fill="#F1C382" d="M33.675 34.237c-.657.732-1.15 1.544-1.396 2.925-.411-.65.082-2.6 1.396-2.925z"/><path fill="#D08C48" d="M52.321 31.719c-1.56-.407-2.957-1.382-2.546-2.925.082-.244.493-1.3.657-2.113-1.068 1.138-1.232 2.356-1.232 2.925.082.65.986 2.275 3.121 2.113z"/><path fill="#F4C84C" d="M20.86 22.294c.822 1.3 3.78 2.518 5.258 2.194.164-.244.246-.488.328-.732-1.396.325-4.435-.893-5.257-2.193-.164.243-.246.487-.328.73z"/><path fill="#AB9247" d="M26.446 23.756c-.164.082-.41.082-.657.082-.082.243-.246.487-.41.73.246 0 .492 0 .739-.08.082-.082.164-.244.164-.325.082-.163.082-.244.164-.407z"/><path fill="#F9E99B" d="M21.19 21.563c-.083.08-.165.243-.165.325v.08c0 .082-.082.245-.082.326.082.162.328.406.493.569 0-.244.082-.488.164-.65 0 0 0-.082.082-.082-.246-.244-.41-.406-.493-.569z"/></g></g></svg>