<svg xmlns="http://www.w3.org/2000/svg" xmlns:xlink="http://www.w3.org/1999/xlink" width="80" height="80"><defs><circle id="westwing__a" cx="40" cy="40" r="40"/></defs><g fill="none" fill-rule="evenodd"><use fill="#539E8C" xlink:href="#westwing__a"/><path fill="#FFF" d="M7.329 35.168c.248-.026.246.078.246.162 0 .083-.227.132-.433.188-.206.055-.178.32-.15.51.019.128.931 2.403 2.736 6.826.028.085.065.128.11.128.047 0 .087-.043.122-.128 1.358-3.032 2.037-4.583 2.037-4.652 0-.104-.877-2.152-1.036-2.453-.158-.302-.556-.314-.756-.331-.2-.017-.326-.266.033-.25 1.01.082 2.1 0 2.284 0 .183 0 .165.088.165.141 0 .053-.112.13-.349.153-.3.045-.24.435-.23.494 0 .096.907 2.395 2.72 6.898.03.059.06.088.09.088s.059-.03.086-.088c1.756-4.002 2.72-6.225 2.89-6.67.257-.666-.382-.702-.647-.753-.265-.052-.312-.325.041-.282.354.043 6.678 0 6.858 0 .179 0 .52-.058.52.211 0 .27.032 1.192.032 1.325s-.214.177-.239 0c-.024-.177-.02-.098-.124-.431-.105-.334-.476-.553-.76-.553H21.17c-.15 0-.223.037-.216.11v3.465h2.257c.44 0 .437-.449.493-.605.055-.155.221-.232.221-.031 0 .2.04 2.003.04 2.131 0 .13-.179.208-.218-.128-.04-.337-.223-.71-.536-.748-.21-.026-.949-.026-2.219 0 .019 1.988.029 3.099.029 3.332 0 .35.25.608.462.608.213 0 1.46.017 2.165-.04.705-.057 1.064-.943 1.102-1.075.037-.132.199-.177.198 0-.208.997-.363 1.534-.465 1.61l-5.224.016c-.172 0-.189-.149.213-.246.604-.166.574-.511.574-.784v-7.1c0-.332-.07-.586-.246-.698-.175-.113-.99-.23-1.302.438-.108.227-1.322 3.018-3.641 8.373-.037.062-.083.092-.137.092-.054 0-.096-.03-.124-.092l-2.259-5.445c-.019-.06-.051-.09-.098-.09-.047 0-.083.03-.107.09l-2.378 5.462c-.04.07-.082.105-.127.105-.046 0-.084-.035-.115-.105-2.207-5.298-3.391-8.095-3.553-8.39-.243-.444-.561-.474-.735-.474-.173 0-.324-.288-.042-.288.393.036 1.897 0 2.146-.026zm19.26 7.932c.333.786 1.29.89 1.774.89.483 0 1.704-.313 1.773-1.546.07-1.233-.97-1.845-1.843-2.406-.873-.56-1.42-1.171-1.647-1.605-.228-.434-.31-1.62.227-2.383.668-1.007 1.88-.949 2.145-.949.264 0 1.074.09 1.205.09.132 0 .299.033.299.211-.018.508.05 1.357.05 1.476 0 .12-.2.19-.284-.192-.144-1.083-.99-1.113-1.534-1.11-1.064-.048-1.588.87-1.588 1.606 0 .736.689 1.48 1.935 2.266s1.693 1.531 1.75 2.134c.057.602.007 1.869-1.161 2.51-1.168.64-3.109.244-3.314.153-.043-.619-.196-1.453-.228-1.645-.032-.192.2-.315.27 0 .107.372.057.243.17.5zm6.103-7.338c-.231.025-.838-.016-1.212.862-.095.214-.288.138-.22-.093.068-.231.35-1.245.35-1.347.027-.091.95-.046 1.176-.046.226 0 6.077.046 7.207 0 .282-.026.299.237 0 .31-.3.074-.487.145-.369.614.079.313.99 2.592 2.734 6.838.02.054.048.08.086.08.038 0 .07-.026.095-.08 1.368-3.065 2.053-4.633 2.053-4.705 0-.107-.862-2.27-1.003-2.433-.141-.163-.332-.318-.71-.34-.287-.016-.322-.284-.089-.284.234 0 1.16.087 2.25 0 .293-.035.412.193.077.284-.336.09-.4.223-.4.34 0 .077.906 2.434 2.716 7.071.022.055.054.082.094.082s.072-.027.094-.082c1.986-4.454 2.98-6.739 2.98-6.855.026-.098-.02-.503-.375-.53-.356-.026-.515-.058-.538-.13-.022-.071.027-.18.329-.18.357.029.908.084 1.873.046.242-.046.306.185 0 .238-.306.053-.604.044-.817.512-.214.467-3.586 8.223-3.64 8.357-.054.134-.224.136-.274 0-.05-.137-2.16-5.248-2.239-5.42-.08-.172-.158-.045-.202.028-.045.072-2.33 5.324-2.388 5.455-.058.13-.193.125-.235 0-.042-.126-3.266-7.927-3.406-8.163-.14-.235-.347-.397-.652-.397-.305 0-1.95-.03-2.236 0-.185.015-.181.109-.202.423-.021.314 0 6.952 0 7.157 0 .205.179.575.81.62.631.046.485.297.197.297h-3.09c-.103 0-.126-.213.032-.24.158-.026 1.066-.062 1.083-.643.02-.428.07-7.285.07-7.43 0-.145-.051-.244-.28-.244-.228 0-1.497.002-1.729.028zm20.066-.353c-.238-.005-.28-.254-.065-.254.214 0 2.318.018 2.518.018.2 0 .191.227-.04.265-.232.038-.637.126-.734.641-.097.515-.08 7.16-.04 7.372.04.214.16.54.702.611.419.053.365.28 0 .28-.366 0-2.11-.046-2.375 0-.268.025-.296-.195-.055-.28.241-.085.73-.25.73-.636s.075-7.16.037-7.433c-.013-.235-.169-.548-.678-.584zm4.163-.035c-.157-.098-.268-.289-.04-.289h.996c.128.005.29.138.484.401 3.762 4.676 5.653 7.027 5.673 7.054.03.04.108.06.108-.039 0-.098.09-6.39.046-6.542-.04-.217-.22-.526-.93-.527-.242 0-.275-.286 0-.286.276 0 2.026.043 2.203.021.177-.02.237.237-.065.32-.302.082-.6.132-.625.385-.026.253-.146 8.357-.146 8.503.002.172-.146.256-.281.145-.135-.11-5.693-7.091-5.826-7.22-.133-.129-.178-.005-.178.079 0 .083-.016 5.841.021 6.088.037.247.204.627.858.664.255-.002.332.244-.044.244-.386-.037-2.158-.083-2.344-.041-.129.01-.1-.208.08-.244.18-.036.766-.139.8-.623.031-.406.216-6.659.166-6.909-.058-.298-.18-.447-.257-.523a3.648 3.648 0 00-.699-.66zm17.23 2.28c.01.265-.21.38-.29.126-.088-.312-.175-1.087-.908-1.536-.807-.555-2.742-1.38-4.609.23-1.867 1.611-1.1 5.634.565 6.76 1.48.964 2.847.94 4.044.346.205-.149.111-1.37.111-1.756 0-.387-.537-.48-.766-.48-.23 0-.34-.326 0-.326.734.07 2.153.088 2.388.016.235-.073.465.276.092.342s-.647.18-.677.597c-.03.417 0 1.437 0 1.741-.008.204-2.794 1.414-5.25.444-1.086-.53-2.558-1.86-2.535-4.108 0-1.234.351-2.256.741-2.913.391-.656 1.658-2 3.477-2.098 1.818-.097 3.567.753 3.567.924 0 .172.05 1.528.05 1.69z"/></g></svg>