<svg xmlns="http://www.w3.org/2000/svg" xmlns:xlink="http://www.w3.org/1999/xlink" width="80" height="80"><defs><circle id="pudra__a" cx="40" cy="40" r="40"/></defs><g fill="none" fill-rule="evenodd"><use fill="#F3F3F3" xlink:href="#pudra__a"/><g fill-rule="nonzero"><path fill="#522100" stroke="#522100" stroke-width=".2" d="M5.285 36.901h6.275c2.091 0 4.373.286 4.373 2.187 0 1.901-2.282 2.187-4.373 2.187H8.327v3.422h1.426v.095H5.38v-.095h1.426v-7.796H5.285zm3.042.095v4.184h3.233c1.616 0 2.567-.57 2.567-2.092 0-1.521-.951-2.092-2.567-2.092H8.327zm19.11 0v3.993c0 2.853-2.187 4.088-4.279 4.088-2.186 0-5.133-.57-5.133-4.088v-3.993h-1.426v-.095h4.658v.095h-1.426v3.993c0 3.138 1.901 3.898 3.422 3.898 2.092 0 4.184-1.14 4.184-3.898v-3.993h-1.522v-.095h3.233v.095h-1.711zm2.757-.095h6.274c2.852 0 5.61 1.331 5.61 3.993s-2.853 3.993-5.61 3.993h-6.274v-.095h1.33v-7.796h-1.33v-.095zm2.947.095v7.796h3.422c1.997 0 3.803-1.33 3.803-3.898 0-2.567-1.711-3.898-3.803-3.898h-3.422zm13.12 7.796h1.425v.095h-4.468v-.095h1.426v-7.796h-1.426v-.095h6.18c2.091 0 4.468.19 4.468 2.187 0 1.331-1.14 1.901-2.567 2.092.856.095 1.806.57 2.187 1.616.285 1.046.475 2.091 1.52 2.091.571 0 1.332-.475 1.332-1.33h.095c0 1.235-1.331 1.615-2.377 1.615-1.711-.095-2.091-.76-2.472-2.091-.285-1.046-.665-1.901-1.996-1.901h-3.423v3.612h.095zm0-7.796v4.088h3.137c1.616 0 2.567-.475 2.567-1.996s-1.046-1.996-2.567-1.996H46.26v-.096zm18.348-.095l4.848 7.891h1.426v.095h-4.658v-.095h1.521l-1.711-2.662H59.95l-1.71 2.662h1.425v.095h-3.137v-.095h1.426l4.849-7.796h-1.617v-.095h3.423zm-4.659 5.04h5.99l-2.947-4.754-3.043 4.753z"/><path fill="#ECAABB" d="M70.979 41.084c-3.613-1.996-3.613-3.992-3.518-4.183 0-1.045.856-1.806 1.901-1.806.76 0 1.331.666 1.712 1.236.285-.57.95-1.236 1.71-1.236 1.047 0 1.902.856 1.902 1.806-.19 0-.19 2.092-3.707 4.183z"/><path fill="#522100" d="M69.457 37.567V36.9h.285v.38c.095-.285.285-.475.57-.475h.096v.38h-.095c-.286 0-.476.19-.476.476v1.331h-.38v-1.425zm3.137.855v.57h-.38v-.38c-.095.19-.285.38-.665.38-.286 0-.761-.19-.761-.95v-1.14h.38v1.14c0 .38.095.666.476.666.285 0 .475-.19.475-.38V36.9h.38v1.521h.095z"/></g></g></svg>