<svg xmlns="http://www.w3.org/2000/svg" xmlns:xlink="http://www.w3.org/1999/xlink" width="40" height="40"><defs><path id="blizzard__a" d="M0 .803h4.838v11.016H0z"/><path id="blizzard__c" d="M.973.471H5.6v11.22H.973z"/><path id="blizzard__e" d="M.757.666h4.627V12H.757z"/></defs><g fill="none" fill-rule="evenodd" transform="translate(-242 -318)"><rect width="40" height="40" x="242" y="318" fill="#0F5CC8" fill-rule="nonzero" rx="20" transform="rotate(90 262 338)"/><g transform="translate(249 331.529)"><mask id="blizzard__b" fill="#fff"><use xlink:href="#blizzard__a"/></mask><path fill="#FFF" d="M3 2.008c-.22-.024-.423-.065-.616.021-.05.123-.062 1.785-.018 2.045h.258c.027-.038.062-.082.092-.127.06-.088.118-.178.178-.267a.329.329 0 01.238-.137c.072-.01.144-.026.215-.039.059-.099.037-.193.022-.287l-.054-.324c.06-.078.092-.155.067-.233-.022-.074-.07-.14-.1-.203.02-.105.173-.15.115-.285-.046-.002-.095-.01-.145-.007-.126.01-.224-.018-.252-.157zm-1.075 8.717c.155-.037.289-.068.422-.102a.359.359 0 00.11-.05c.184-.142.362-.287.547-.426a.523.523 0 00.211-.43c.011-.26.035-.52.126-.773.036-.099.055-.202.085-.302a.73.73 0 00-.02-.478c-.016-.047-.03-.096-.056-.14-.08-.138-.066-.27.01-.406.041-.073.073-.15.108-.226-.048-.053-.09-.097-.13-.143-.082-.098-.12-.204-.078-.327.025-.07.04-.145.065-.216a.432.432 0 00-.017-.353.417.417 0 01-.028-.317c.037-.12-.013-.205-.113-.285-.224-.18-.441-.368-.662-.553-.032-.026-.055-.07-.12-.059-.006.03-.014.061-.015.093-.01.212-.017.424-.03.635a.43.43 0 01-.033.17.486.486 0 00-.033.33c.025.135.04.27.018.408-.014.098-.023.197-.035.294-.049.072-.144.111-.165.208l.126.136.022 1.62-.178.227.057 1.125-.194.34zM0 1.17c.005-.006.013-.012.017-.02C.085.96.153.94.382.93c.065-.003.13.007.195.012.14.01.274-.007.41-.048.098-.03.209-.035.315-.039.484-.02.967-.042 1.45-.052.22-.005.438.015.656.021.106.003.19.036.24.124.065.12.175.175.318.196.394.06.57.314.672.623.033.102.036.213.048.321.021.173.04.347.058.52.03.274-.04.528-.188.767-.195.312-.399.618-.664.89-.07.07-.141.144-.123.264.047.011.094.025.14.033.075.01.15.013.222.025.138.022.19.09.165.213-.009.044-.028.087-.04.132-.043.156-.014.217.143.3a.429.429 0 00.048.024.231.231 0 01.158.23c.001.115-.004.232-.012.348-.011.161-.03.322-.043.484-.003.032.003.066.001.1-.002.087.039.15.126.192.047.024.086.06.132.091.038.57.016 1.135.03 1.685-.02.03-.027.047-.04.057-.133.105-.149.242-.136.388.012.111.018.223.028.335a.892.892 0 01-.178.615c-.039.052-.072.107-.112.16a1.128 1.128 0 00-.211.546 2.504 2.504 0 01-.055.282c-.015.055-.044.108-.063.156-.133.055-.255.104-.375.158a2.642 2.642 0 00-.678.455.566.566 0 01-.437.158.427.427 0 00-.329.121h-.126l-.121-.146H1.87l-.188.148c-.29-.043-.581-.018-.875-.007a4.417 4.417 0 01-.487-.017c-.147-.012-.203-.045-.264-.134.011-.067.073-.075.13-.09.062-.015.127-.028.184-.053a.326.326 0 00.208-.247 7.003 7.003 0 00.159-1.534 4.774 4.774 0 00-.055-.856c-.03-.175-.02-.356-.018-.535.002-.56.01-1.122.014-1.683 0-.068.026-.128.048-.192.058-.166.094-.334.025-.51a.824.824 0 01-.043-.257 3.552 3.552 0 01-.003-.423c.007-.094.037-.187.06-.28.017-.06.041-.119.055-.18.034-.156-.003-.23-.163-.32-.004-.043-.014-.096-.013-.148.004-.245.015-.49.019-.736.004-.415.004-.83.007-1.246v-.137l.125-.088c.04-.087.064-.173.001-.269L.642 1.87C.416 1.702.159 1.557 0 1.32v-.15z" mask="url(#blizzard__b)"/></g><g transform="translate(271.4 331.529)"><mask id="blizzard__d" fill="#fff"><use xlink:href="#blizzard__c"/></mask><path fill="#FFF" d="M3.11 5.638c.095.084.11.194.108.309-.008.407-.015.815-.019 1.222l-.013 2.606c-.001.05 0 .1.005.15.006.049.015.099.08.12.068-.025.095-.078.122-.131.083-.167.169-.333.243-.503a.74.74 0 00.058-.253.96.96 0 01.126-.442c.159-.282.245-.578.243-.898-.005-.524.016-1.048.021-1.572a.501.501 0 01.12-.337.545.545 0 00.127-.298.96.96 0 01.108-.32.686.686 0 00.087-.235c.02-.156.03-.315.023-.472-.007-.181-.02-.363-.099-.537a1.495 1.495 0 00-.422-.578c-.062-.05-.108-.114-.16-.173a.683.683 0 00-.56-.253 8.712 8.712 0 01-.28 0c-.05 0-.103-.003-.153.063l-.002.313c.004.437.01.873.011 1.309a.919.919 0 00.086.388c.078.165.132.337.14.522zM1.43.47c.098.023.189.059.277.105.04.02.099.012.148.02.067.01.141.013.202.039.208.09.425.167.59.324a.332.332 0 00.13.068c.132.039.265.075.4.106.043.01.092-.003.138-.003.072 0 .147-.007.218.006.119.022.234.054.35.085a.34.34 0 01.124.054.44.44 0 00.294.093.542.542 0 01.396.156c.066.063.144.117.222.169a.469.469 0 01.196.25c.018.056.03.114.053.168.04.097.075.197.129.287a.617.617 0 01.103.319c.003.158.003.316.008.473.003.12.009.24.018.36a.21.21 0 00.036.107c.1.13.117.278.125.428a4.76 4.76 0 01-.016.884.391.391 0 01-.086.206.379.379 0 00-.088.27c.01.145.018.29.029.435a.533.533 0 01-.113.365.303.303 0 01-.091.092.305.305 0 00-.155.24c-.024.19-.058.38-.058.57 0 .437.018.873.028 1.309.003.1 0 .2.002.299a.553.553 0 01-.085.298.508.508 0 00-.056.227c-.01.162-.005.324-.008.486a.37.37 0 01-.07.237c-.028.037-.03.093-.036.14-.03.186-.041.374-.086.556-.098.397-.378.647-.821.746a4.02 4.02 0 01-.396.07c-.115.015-.22.038-.293.127h-.095c-.157-.146-.35-.14-.496-.004-.117.017-.241.037-.366.05-.068.007-.138 0-.219 0l-.05-.085c.034-.033.062-.065.097-.091a.558.558 0 00.202-.277.493.493 0 01.035-.095c.092-.182.062-.356-.041-.525-.04-.065-.094-.128-.032-.21.134-.077.347-.054.416-.24-.119-.068-.152-.173-.18-.285a.453.453 0 00-.084-.17c-.144-.174-.154-.37-.126-.571.026-.19.058-.378.084-.568.025-.173.05-.346.071-.52a.668.668 0 00-.11-.501c-.061-.084-.108-.175-.169-.26a.716.716 0 01-.12-.452c.002-.12-.003-.24-.004-.367l-.128-.082c-.002-.123-.007-.235-.008-.347 0-.12.006-.241.004-.362a.387.387 0 00-.052-.216c-.023-.036-.021-.088-.022-.133-.005-.195-.006-.39-.01-.586 0-.033.003-.07-.01-.098-.05-.108-.042-.22-.043-.332-.006-.382-.013-.764-.015-1.147 0-.161.01-.323.014-.484l.112-.07c.002-.016.008-.032.007-.048-.008-.157-.018-.315-.025-.472a.221.221 0 01.018-.11c.105-.202.073-.413.048-.623-.01-.082-.067-.143-.139-.195a17.972 17.972 0 01-.559-.413c-.08-.06-.146-.136-.22-.207A1.63 1.63 0 001.01.47h.419z" mask="url(#blizzard__d)"/></g><path fill="#FFF" d="M270.316 333.374l-.006.286-.001 2.13c0 .077-.001.152.007.226.005.047.029.092.041.13a.542.542 0 00.495-.036c.065-.04.123-.09.185-.132a.302.302 0 00.134-.212.579.579 0 01.118-.264.405.405 0 00.09-.257c-.007-.104-.005-.207.076-.295.019-.021.02-.055.027-.084.012-.086.017-.174.035-.26.044-.215-.048-.39-.198-.548l-.037-.038-.512-.51c-.115-.115-.264-.144-.454-.136m-.73 6.788l-.134-.133c-.003-.233-.011-.466-.012-.698 0-.461.004-.923.003-1.384 0-.354-.03-.706-.132-1.05-.01-.031-.012-.067-.03-.095-.084-.13-.085-.27-.08-.411a.413.413 0 00-.048-.23.943.943 0 01-.096-.4c-.013-.181-.018-.366-.052-.545-.047-.25-.116-.494-.179-.741-.019-.077-.046-.153-.062-.23-.046-.222.027-.387.247-.493.227-.11.428-.25.61-.413.045-.04.099-.08.08-.15-.101-.101-.21-.12-.346-.055-.053.024-.105.05-.17.082-.048-.078-.091-.145-.128-.215-.116-.214-.3-.368-.523-.487a.728.728 0 00-.316-.091.464.464 0 01-.147-.033c-.047-.02-.086-.051-.066-.116.021-.006.046-.021.07-.022.206-.004.41-.01.614-.01.232 0 .465.004.698.009a.408.408 0 00.261-.066c.021-.016.05-.023.09-.041.039.025.09.047.125.082.063.06.137.083.224.079.075-.003.15-.002.224-.01a.91.91 0 01.394.06c.064.026.13.047.193.074.158.07.321.108.498.097a.597.597 0 01.294.068c.161.079.306.176.416.307.235.277.422.577.537.91.07.202.073.4.006.6a2.56 2.56 0 00-.053.18.734.734 0 00-.026.346.538.538 0 01-.04.317c-.102.247-.215.486-.407.69-.169.18-.367.318-.635.358-.018.002-.033.01-.048.015-.05.102-.048.117.011.223l.172-.02c.214.125.45.24.593.45l-.068.18.133.024c.01.007.02.014.03.024a.807.807 0 01.21.543c.005.17.001.34.005.51.003.113.01.225.022.336.017.155.084.28.267.328.01.002.015.01.039.028.007.05.025.115.026.18.005.27.038.539.087.806a.284.284 0 01-.07.256c-.042.048-.087.1-.05.183l.224.038a.234.234 0 01.096.185c.005.195.008.389.01.584 0 .063-.009.125-.01.187 0 .25-.014.498-.058.745-.047.258-.092.517-.141.774a.58.58 0 01-.045.143c-.021.045-.054.084-.087.136-.069-.014-.13-.016-.182-.038-.2-.083-.384-.185-.52-.347-.05-.06-.11-.113-.168-.167a.5.5 0 00-.348-.134c-.051 0-.103.002-.154-.004-.063-.007-.125-.02-.177-.03a.2.2 0 01-.005-.184c.043-.105.086-.21.133-.313.03-.062.065-.12.101-.178.164-.26.204-.54.188-.831a20.812 20.812 0 00-.049-.697 4.887 4.887 0 00-.402-1.507l-.156-.09c.004-.077.003-.16.014-.241.011-.086.03-.171.051-.256a.529.529 0 00-.087-.455c-.11-.153-.237-.297-.357-.445-.007-.01-.024-.011-.048-.022-.02.033-.042.063-.056.096-.07.158-.137.317-.208.475-.043.099-.016.197-.003.295.035.26.076.519.104.779.04.372.079.743.158 1.11.016.073.012.149.02.227-.06.03-.11.058-.164.087-.044.11.098.138.12.218.057.223.03.447.007.67-.004.04-.027.079-.046.116-.067.134-.076.264.028.389.074.09.063.199.066.3.007.149-.007.298-.013.44a.477.477 0 00-.113.337c-.004.129-.002.258-.006.386-.003.098-.01.117-.064.213-.037-.071-.065-.134-.1-.194-.11-.184-.218-.368-.335-.546a1.103 1.103 0 00-.323-.308c-.171-.114-.347-.224-.52-.335-.045-.03-.094-.056-.134-.09-.066-.054-.098-.12-.067-.201.063-.165.12-.332.19-.494.11-.26.228-.517.342-.776.037-.082.066-.165.032-.253"/><g transform="translate(263.56 331.529)"><mask id="blizzard__f" fill="#fff"><use xlink:href="#blizzard__e"/></mask><path fill="#FFF" d="M2.84 5.094c.007.082.004.152.02.22.029.134.041.262-.049.384a.196.196 0 00-.029.107c-.006.248-.01.497-.014.747 0 .027.006.054.01.087.238-.003.472-.037.7.041l.072.09a.064.064 0 01.01-.012l.373.23.213-.012c.022-.527.02-1.039.003-1.542l-.101-.054-.031-.51-.108-.02a21.74 21.74 0 01-.099-.11c-.029-.002-.052-.009-.075-.006-.132.02-.211-.04-.265-.138-.02-.033-.038-.066-.06-.099-.044-.07-.091-.139-.147-.225-.069.182-.05.352-.058.483l-.163.314-.201.025m-1.24.944l.16-.055c-.014-.082-.102-.056-.152-.11-.036-.087-.033-.196-.037-.302-.005-.09.01-.183.024-.273a.425.425 0 01.135-.256c.136-.125.164-.274.126-.438a.28.28 0 01.025-.2c.019-.016.04-.04.068-.053.13-.054.158-.156.165-.268.004-.099.002-.199.009-.299.004-.078.01-.158.03-.234a.653.653 0 01.207-.348c.086-.072.119-.157.08-.259-.036-.096-.007-.177.055-.257a.835.835 0 00.114-.198c.048-.127.114-.246.194-.358.032-.045.06-.093.09-.14a.334.334 0 00.047-.277c-.007-.028-.007-.057-.01-.086-.014-.106.034-.186.132-.243.032-.018.062-.037.095-.053.128-.064.182-.16.16-.29a1.265 1.265 0 01-.016-.112C3.284.754 3.48.62 3.664.681c.07.022.122.063.134.132.01.053.024.107.021.16-.009.153.054.284.148.407.067.09.138.177.203.27.056.08.106.165.1.266-.02.353.1.68.233 1.004.072.175.14.351.198.53.035.112.048.23.066.344.027.18.102.344.17.51l.117.081c-.006.044-.001.1-.02.148a.303.303 0 00.053.32c.131.154.16.33.144.517-.027.321-.01.641.072.954.049.18.074.36.075.542.006.624.004 1.248.006 1.871a.326.326 0 01-.066.184 1.715 1.715 0 00-.239.594c-.007.037-.017.073-.022.11a.243.243 0 01-.127.185c-.086.046-.113.117-.108.202l.013.236a.565.565 0 01-.071.314c-.056.1-.106.203-.157.305a.506.506 0 00-.062.303c.016.104.005.2-.098.26-.083.167.041.35-.073.51a.405.405 0 01-.294.051.513.513 0 01-.02-.22c.04-.275.008-.539-.12-.793-.028-.057-.048-.117-.072-.175a.683.683 0 01-.068-.377c.03-.205-.057-.354-.246-.466a1.355 1.355 0 01-.183-.135.253.253 0 01-.094-.27.738.738 0 01.18-.335 1.77 1.77 0 00.375-.634c.036-.098.062-.2.085-.3.037-.163-.023-.295-.17-.395l-.066-.046c-.325-.213-.69-.358-1.062-.52-.033.043-.06.082-.089.121.02.035.03.063.048.086.04.052.044.108.034.167l-.03.172c-.02.114.023.203.129.27.076.047.149.097.206.135.061.165-.083.305-.243.318-.088.007-.178.01-.265-.003a1.417 1.417 0 00-.839.112c-.132.061-.267.118-.4.177a.482.482 0 01-.316.038c-.02-.03-.06-.07-.07-.116a1.02 1.02 0 01-.027-.233c-.002-.072.036-.128.107-.164l.061-.03c.13-.056.189-.143.166-.272l-.001-.038c-.008-.17.018-.209.19-.277.077-.03.158-.055.187-.152-.047-.157-.025-.325 0-.495.01-.069-.002-.14-.005-.21-.005-.067-.014-.133-.018-.199-.003-.057.01-.109.06-.147.075-.056.092-.132.09-.214-.002-.066-.008-.132-.007-.199 0-.044.01-.089.015-.134" mask="url(#blizzard__f)"/></g><path fill="#FFF" d="M255.514 341.98l.16.043-.013.193c.147.049.298.059.451.052.065-.003.13-.01.195-.018.12-.017.238-.04.318-.136.106-.13.247-.14.398-.078.154.064.315.1.485.1a2.5 2.5 0 00.414-.03.572.572 0 00.206-.096.474.474 0 01.256-.083c.312-.008.624-.024.935-.026.625-.003 1.247-.001 1.871 0 .158 0 .316.01.467.016.079.095.075.189.067.285-.015.19-.032.38-.046.57-.004.063.003.126.003.188a.293.293 0 00.085.206c.06.067.12.136.126.223-.033.05-.084.05-.127.05-.4.002-.801 0-1.214 0a82.094 82.094 0 01-.118-.164c-.05.004-.102 0-.149.013a.306.306 0 01-.215-.024c-.02-.01-.043-.017-.062-.028-.183-.102-.385-.11-.592-.1-.204.012-.409.01-.614.013-.037 0-.073-.006-.114-.011l-.118-.141c-.096-.006-.201-.02-.308-.02-.47 0-.94.004-1.41.004-.233 0-.466 0-.699-.007a.59.59 0 01-.212-.048c-.184-.083-.378-.088-.573-.07a.449.449 0 00-.26.114c-.048.044-.1.089-.139.139-.154.195-.37.249-.624.229a4.278 4.278 0 00-.376-.015c-.074 0-.146.02-.211.03a.264.264 0 01-.175-.175c.036-.082.11-.126.184-.17.074-.042.154-.075.23-.116.063-.034.128-.068.187-.108.107-.072.162-.167.155-.29-.006-.095-.001-.19-.001-.283l.136-.076c.004-.034.006-.073.01-.116l-.124-.033a1.842 1.842 0 01-.014-.705l.107-.091v-.328l.152-.072c.006-.041.012-.09.018-.15l-.257-.147c-.01-.034-.028-.077-.028-.121-.004-.366-.002-.731-.002-1.1l.122-.072c.007-.212-.013-.433-.013-.655l.15-.063c.006-.032.02-.072.018-.112-.002-.128-.009-.257-.014-.386l-.022-.52.116-.081c.048-.128.048-.174-.005-.294l-.091-.052c-.005-.01-.014-.021-.015-.033-.007-.12-.02-.24-.018-.36.002-.208.015-.416.017-.624.001-.141-.008-.281-.012-.418-.04-.024-.072-.042-.11-.066-.043-.226-.037-.458-.04-.7.091-.052.182-.105.264-.154a1.85 1.85 0 00-.015-.61 5.863 5.863 0 01-.149-.121c.032-.062.047-.128.09-.171.123-.122.126-.262.104-.41a.138.138 0 00-.034-.078l-.175-.304c-.19-.046-.187-.048-.327-.186-.071-.071-.154-.133-.23-.198-.044-.038-.09-.073-.132-.112a.152.152 0 01-.042-.162c.038-.131.128-.17.293-.118l.076.106c.134.033.27.005.409-.004.078-.006.158-.011.236-.013.09-.002.161.026.212.097.026.038.067.067.097.097h.229c.026.022.059.045.088.07.092.089.181.179.274.266a.38.38 0 01.12.273c.008.232.002.464.002.7a4.456 4.456 0 00-.098.048c-.05.088-.016.169.032.25l.11.049c.062.056.079.243.037.442l-.104.049c-.006.01-.015.022-.015.033-.019.445-.057.889-.02 1.333.015.162.028.324.035.485.003.077.03.139.1.182.094.056.12.134.13.233.05.499.007.996-.022 1.494-.002.042-.006.083-.005.125a.686.686 0 01-.076.313.516.516 0 00-.037.168c-.007.07 0 .14 0 .212 0 .188-.002.188.137.328l.035.463c-.095.108-.297.156-.223.35l.074.054a.195.195 0 01-.014.222l-.13.069.05.41-.112.063c-.054.215.053.428-.016.635-.05.05-.097.1-.162.167m7.744-5.544l.155-.123c0-.079.01-.158-.002-.235a.332.332 0 01.12-.317c.03-.026.056-.054.085-.082a.325.325 0 00.11-.249v-.05c-.025-.26.067-.499.189-.73a2.72 2.72 0 01.357-.548.716.716 0 00.18-.438c.006-.074.019-.148.028-.218-.048-.069-.117-.054-.179-.048-.065.007-.127.024-.191.037-.06.012-.12.013-.177-.027a12.63 12.63 0 01-.11-.148c-.107 0-.205-.008-.3.002a.382.382 0 00-.335.25 1.777 1.777 0 00-.141.581c-.004.128-.03.255-.054.382a.196.196 0 01-.095.147c-.134.073-.27.142-.413.217l-.107-.033a.267.267 0 01-.041-.199.882.882 0 00-.016-.359c-.009-.042 0-.087 0-.13.045-.02.082-.036.13-.055.004-.044.013-.088.011-.133-.003-.332-.01-.664-.015-.997a16.757 16.757 0 01-.005-.449c.001-.042.023-.085.035-.133.062-.003.112-.008.162-.008.223 0 .447 0 .671-.002l2.514-.014c.069 0 .14.01.206.025.091.022.13.077.115.16a.563.563 0 01-.05.168c-.075.146-.146.297-.28.412-.08.068-.099.158-.103.251-.004.074-.003.15-.006.224a.196.196 0 01-.138.186c-.021.01-.04.021-.061.03-.089.035-.121.098-.118.181.003.066.012.133.011.2-.001.046-.016.093-.022.137l-.176.048c-.065.094-.065.2-.078.301-.007.058-.004.117-.008.175a.774.774 0 01-.131.414.51.51 0 00-.085.311c0 .154.01.307.014.461.002.12.003.241.007.361a.302.302 0 01-.065.187.642.642 0 00-.08.157c-.038.115-.07.232-.103.348a.377.377 0 01-.132.215c-.023.018-.04.045-.066.078.005.058.001.126.016.19.023.106-.017.187-.103.255-.018.014-.034.03-.054.04-.138.075-.186.194-.188.328-.001.158.008.315.012.474.003.166.01.332.009.498a.483.483 0 01-.11.291.775.775 0 00-.15.593.992.992 0 01-.175.717 1.437 1.437 0 00-.197.382c-.025.083-.08.16-.123.237-.038.07-.057.14-.008.21.21.065.56.047.734-.042v-.219c.053-.035.097-.073.149-.098.123-.058.25-.11.375-.163.235-.099.473-.196.708-.295.11-.047.208-.107.258-.215.014-.03.052-.054.085-.085l.102.112c.199.047.402-.06.59.023a.51.51 0 01.073.332l-.114.035c-.005.012-.013.023-.015.035a.354.354 0 00.052.276.17.17 0 01.033.08c.036.311.045.622 0 .933-.016.106-.066.14-.187.14l-1.285.01h-.103l-.065-.098a.948.948 0 00-.49-.028.302.302 0 00-.144.07.509.509 0 01-.354.123c-.149.004-.298.004-.446.004a1.08 1.08 0 00-.51.1c-.084.042-.195.051-.295.06a.232.232 0 01-.202-.073c-.054-.208-.033-.429-.001-.653l.136-.033.07-.18-.093-.054c-.027-.109-.005-.157.095-.203.158-.072.163-.086.139-.242-.01-.053-.008-.106-.011-.166l.128-.012c.005-.042.013-.086.014-.13 0-.087-.004-.174-.004-.262 0-.062-.002-.124.04-.179.016-.019.02-.047.02-.07.01-.126.022-.25.021-.374a.475.475 0 00-.07-.264.663.663 0 01-.107-.293c-.051-.427-.074-.854.015-1.279.059-.282.183-.548.299-.814.06-.139.114-.28.224-.399.031-.034.044-.082.064-.124a.217.217 0 00-.037-.257c-.039-.044-.069-.09-.037-.165"/><path fill="#FFF" d="M261.42 333.066l-1.048.024a.369.369 0 00-.227.083c-.088.073-.18.145-.258.227-.087.093-.156.196-.14.33.005.033-.015.07-.029.117l-.195-.022c-.091.03-.138.107-.155.195a1.307 1.307 0 00-.014.248c0 .137.008.274.01.411 0 .05-.009.098-.012.143l-.123.09.028.172c-.088.045-.161.028-.248.006 0-.044-.008-.085.001-.124a.203.203 0 00-.035-.178.503.503 0 01-.088-.234c-.011-.074-.028-.147-.042-.22-.017-.08-.026-.157.027-.229a.106.106 0 00.017-.047c.013-.165.022-.33-.052-.492a17.873 17.873 0 00-.133-.047c-.003-.035-.007-.068-.007-.1 0-.242-.001-.482.001-.724 0-.04.01-.082.019-.122.018-.079.076-.12.161-.136a.586.586 0 01.111-.01c.922 0 1.844.001 2.764.003.018 0 .037.003.066.006.054.181-.018.362.01.551l.102.066c.058.581.004 1.157-.016 1.73l-.088.104c0 .07-.003.15.001.227a.54.54 0 01-.107.355c-.03.042-.057.086-.089.127a.9.9 0 00-.165.34.774.774 0 01-.148.307.482.482 0 00-.111.34c.003.062.001.124 0 .186a.299.299 0 01-.062.184c-.051.004-.105.01-.176.015-.043.031-.1.068-.15.11a.34.34 0 00-.133.348c.011.07.015.14.017.211 0 .027-.015.054-.023.082l-.163.046a2.104 2.104 0 00-.288.485c-.126.303-.249.608-.368.913-.192.49-.379.98-.567 1.47-.01.024-.017.048-.027.071-.032.071-.016.13.052.173.086.018.154-.018.21-.058.2-.143.43-.225.678-.276a.496.496 0 00.357-.274c.015-.03.034-.059.048-.09a.622.622 0 01.303-.299c.081-.04.16-.083.24-.127.102-.059.184-.128.153-.254-.008-.029.01-.064.013-.084.058-.057.115-.05.178-.04.074.012.151.05.234-.004l-.021-.148h.124l.035-.248a.357.357 0 01.317.058l.028.44c-.088.133-.17.244-.239.361a.312.312 0 00-.042.154c.001.253.011.507.011.76 0 .162-.01.324-.017.485 0 .011-.012.022-.025.045h-.25l-.04.158c-.027.005-.058.014-.089.014-.367 0-.735-.002-1.103-.005-.008 0-.016-.006-.033-.013l-.021-.117a.373.373 0 00-.31.042l-.083.158h-.303l-.142-.19c-.088-.002-.18-.009-.272-.005-.125.005-.25.021-.375.028-.073.003-.147-.004-.205-.006-.08-.067-.07-.14-.089-.21l.126-.078c.067-.195-.005-.407.048-.617l.113-.068c.043-.072.06-.145-.007-.224a10.445 10.445 0 00-.15-.05c-.074-.052-.096-.119-.075-.208l.164-.114c-.02-.114-.12-.177-.167-.267-.02-.17.023-.338.058-.505.058-.277.127-.553.188-.83a.706.706 0 01.18-.345l.097-.107a.794.794 0 00.2-.352.946.946 0 01.044-.13c.06-.156.127-.308.313-.358.065-.066.063-.132.059-.199-.021-.378.141-.706.357-1.016.04-.055.101-.098.157-.14a1.72 1.72 0 00.407-.472.365.365 0 00.046-.313c-.012-.04-.015-.082-.02-.123a.21.21 0 01.06-.185c.054-.057.109-.114.161-.172.137-.15.276-.302.409-.457a.458.458 0 00.11-.352c-.006-.078-.005-.157-.014-.236-.004-.047-.021-.094-.034-.148m-5.37-.475a.23.23 0 01.205-.12c.172-.006.344-.006.516-.005.283.003.567.011.85.015.122.002.243-.004.364 0 .05.002.103.009.149.026.067.024.093.08.078.144-.008.032-.02.063-.032.095-.026.073-.079.116-.165.137-.197.047-.334.21-.333.392v.09c.035.029.072.055.102.086.026.027.045.06.062.084-.015.115-.117.17-.166.26v.144c.002.236.004.473.009.71.009.607.018 1.214.032 1.82.002.08.03.163.05.244.043.189.031.214-.157.31-.045.46.042.916.105 1.374l-.197.194v.188l.074.102c.004.113.003.229.016.345.008.077.037.152.055.228.015.06.04.12.041.18.006.179.002.357.002.543-.049.065-.1.134-.161.213l.058.392.22.124c.135.074.273.144.406.219a.24.24 0 01.128.235c-.005.094-.057.133-.162.126-.043-.003-.086-.005-.125-.015a.33.33 0 00-.226.022c-.013-.002-.025-.001-.031-.005-.184-.111-.39-.09-.594-.078-.116.007-.23.03-.347.033a.376.376 0 00-.266.117.87.87 0 01-.126.097c-.025.016-.06.018-.084.024-.142-.113-.157-.21-.036-.324.094-.09.205-.167.356-.286a.554.554 0 00.1-.35c-.006-.223.004-.447.01-.672.002-.141-.01-.285.119-.405l-.124-.133c0-.09-.004-.186.002-.281a.465.465 0 01.037-.144.777.777 0 00.063-.316c-.01-.844-.02-1.688-.032-2.531-.006-.491-.014-.981-.026-1.471-.012-.54-.036-1.08-.04-1.62-.002-.155-.131-.272-.291-.274a.732.732 0 01-.395-.143c-.058-.038-.06-.045-.093-.14"/></g></svg>