<svg xmlns="http://www.w3.org/2000/svg" viewBox="0 0 80 80"><circle id="arthomework__a" cx="40" cy="40" r="40" fill="#50c9f0"/><path fill="#fff" d="M22.8 44c-.4-11.7 5.8-24.2 17-26.8 6.6-1.5 12.2.9 13.7 7.2.2 1 .3 2.1.3 3.1l5.9-1.4-1.9 26.7c-.1 2.1.7 3.1 2.1 2.7.7-.2 3.8-1 5.5-5.6l.3.3c-1.5 6.9-4 10.1-7.6 10.9-4.1.9-7.7-1.1-7.9-7.4-2.2 4.1-5.5 7.2-10 8.3-7.3 1.7-14.4-2.5-16.7-12.5-7-.9-11.2-5.2-12.4-10.5-1-4.4.2-9.2 3.7-12.6l5.7 4.3c-2.2 2.7-2.7 5.1-2.1 7.5.5 2.4 2 4.5 4.4 5.8zm9.2 5c1.7 5 5.4 6.9 9.6 6 2.9-.7 5.1-2.6 6.7-5.2 1.5-2.4 2.3-5.2 2.5-8.1l.4-5.8c-3.4 5.8-10 11-18.8 13 .1 0-.3.1-.4.1zm-.9-4.2l.8-.2c10.5-2.4 17.5-12 16.2-17.6-.6-2.4-2.6-4.2-6-3.5-6.9 1.7-11.8 12.4-11 21.3z"/></svg>