<svg xmlns="http://www.w3.org/2000/svg" width="80" height="80"><g fill="none" fill-rule="evenodd"><circle cx="40" cy="40" r="40" fill="#FF7642"/><path fill="#FFF" fill-rule="nonzero" d="M15.72 43.197c0 2.51-1.213 3.369-3.138 3.369H5.793V34.08h6.74c2.371 0 2.969 1.037 2.969 2.993 0 1.737-.408 2.741-2.54 2.918 2.266.11 2.761 1.255 2.761 3.206h-.004zM8.536 38.9h3.244c.527 0 .77-.321.77-1.184 0-.864-.24-1.181-.77-1.181H8.537V38.9zm3.328 5.21c.583 0 .875-.414.875-1.38 0-1.022-.327-1.476-.938-1.476H8.537v2.867l3.328-.011zm6.266-10.03h2.748v12.486H18.13V34.08zm12.323 7.361h-2.365V38.97h5.176v7.257a17.64 17.64 0 01-4.523.59c-3.823 0-5.622-1.52-5.622-6.61 0-5.093 2.15-6.432 6.11-6.432 1.253.004 2.501.153 3.722.447l-.5 2.542a12.905 12.905 0 00-2.947-.37c-2.565 0-3.45.37-3.45 3.834 0 3.465.885 3.919 3.267 3.919a10.43 10.43 0 001.132-.089v-2.616zm8.113-7.36v9.943h5.358v2.538h-8.106V34.08h2.748zm6.69 0H48v12.485h-2.744V34.08zm16.546 6.095c0 5.143-1.975 6.64-5.78 6.64s-5.784-1.475-5.784-6.64c0-5.07 1.965-6.413 5.784-6.413 3.82 0 5.78 1.354 5.78 6.413zm-2.93.036c0-3.405-.443-3.8-2.854-3.8-2.41 0-2.85.395-2.85 3.8 0 3.406.447 3.96 2.85 3.96 2.404 0 2.854-.502 2.854-3.96zm15.934 6.354h-3.412a211.512 211.512 0 00-4.673-8.523v8.523h-2.698V34.08h3.584a153.36 153.36 0 014.466 8.224V34.08h2.733v12.486z"/></g></svg>