<svg xmlns="http://www.w3.org/2000/svg" width="41" height="40" fill="none"><circle cx="20.5" cy="20" r="20" fill="#666"/><path fill="#FFDD2D" fill-rule="evenodd" d="M27.767 16.342a.671.671 0 100-1.342.671.671 0 000 1.342zM8.322 20.523c.553.558 1.243.838 2.07.838.52 0 .958-.078 1.312-.234.36-.155.693-.397.999-.725l-.79-.845c-.246.225-.48.392-.7.499-.22.107-.48.161-.781.161a1.52 1.52 0 01-1.176-.515c-.306-.344-.46-.763-.46-1.257 0-.5.154-.918.46-1.256a1.52 1.52 0 011.176-.516c.3 0 .555.051.765.153.215.097.443.255.684.476l.741-.854c-.3-.295-.617-.52-.95-.677-.333-.16-.744-.241-1.232-.241-.854 0-1.557.282-2.11.845-.553.564-.83 1.254-.83 2.07 0 .822.274 1.514.822 2.078zm5.245.741v-4.317h1.224v.87c.28-.66.738-.977 1.377-.95v1.28h-.064c-.419 0-.744.13-.975.387-.225.252-.338.63-.338 1.136v1.594h-1.224zm3.675-.523c.424.413.964.62 1.619.62.74 0 1.329-.269 1.764-.806l-.7-.62c-.318.296-.667.443-1.048.443-.28 0-.51-.072-.693-.217-.182-.145-.303-.355-.362-.629h3.004c.01-.15.016-.257.016-.322 0-.66-.18-1.216-.54-1.667-.36-.45-.88-.676-1.562-.676-.617 0-1.127.217-1.53.652-.403.435-.604.966-.604 1.595 0 .665.212 1.208.636 1.627zm2.408-1.974h-1.844c.048-.284.153-.507.314-.668a.842.842 0 01.62-.25.8.8 0 01.612.25c.161.166.26.39.298.668zm3.876 2.578c-.537 0-.998-.202-1.385-.604-.386-.403-.58-.95-.58-1.643 0-.688.19-1.23.572-1.627a1.863 1.863 0 011.393-.604c.537 0 .986.214 1.346.644v-2.126h1.224v5.88h-1.224v-.621c-.344.467-.793.7-1.346.7zm-.434-1.37c.204.22.453.33.748.33.296 0 .543-.11.741-.33.205-.225.307-.518.307-.877 0-.35-.102-.634-.307-.854a.948.948 0 00-.74-.338.972.972 0 00-.75.338c-.204.22-.306.51-.306.87 0 .349.102.636.306.861zm6.977 1.072c.22.193.532.29.934.29.365 0 .688-.084.967-.25v-.983c-.188.102-.39.153-.604.153-.264 0-.395-.14-.395-.419v-1.844h1.015v-1.047H30.97v-1.103h-1.224v1.103h-.516v1.047h.516v2.046c0 .472.107.808.322 1.007zm-8.13.602v5.88h1.224v-1.314l.427-.45 1.128 1.763h1.401l-1.7-2.617 1.644-1.7h-1.466l-1.434 1.57V21.65H21.94zm7.607 1.562v4.317h1.224V25.12c0-.284.067-.502.201-.652.14-.15.328-.226.564-.226.236 0 .419.075.548.226.128.15.193.368.193.652v2.408H33.5v-2.794c0-.5-.129-.892-.386-1.176-.258-.285-.618-.427-1.08-.427-.483 0-.904.23-1.264.692v-.612h-1.224zm-1.22-6.421h-1.118v10.738h1.119V16.79zm-12.789 9.29v1.541l4.96-2.697-4.96-2.697v1.58c-3.542 0-6.021-.616-7.793-1.965.709 1.927 2.834 3.853 7.793 4.238z" clip-rule="evenodd"/></svg>