<svg xmlns="http://www.w3.org/2000/svg" xmlns:xlink="http://www.w3.org/1999/xlink" width="40" height="40"><defs><path id="karos__a" d="M1.168.88H7.2v4.542H1.168z"/><path id="karos__c" d="M0 .93h6.61v4.903H0z"/><path id="karos__e" d="M.184.848H5.65v4.529H.184z"/></defs><g fill="none" fill-rule="evenodd" transform="translate(-106 -250)"><rect width="40" height="40" x="106" y="250" fill="#4C77A0" fill-rule="nonzero" rx="20" transform="rotate(90 126 270)"/><rect width="40" height="40" x="106" y="250" fill="#D11DEA" fill-rule="nonzero" rx="20" transform="rotate(90 126 270)"/><g transform="translate(133.8 266.319)"><mask id="karos__b" fill="#fff"><use xlink:href="#karos__a"/></mask><path fill="#FFF" d="M1.168 4.527c1.293.296 2.668.475 3.931.08.324-.1.675-.28.748-.603.052-.23-.059-.47-.23-.635-.17-.165-.393-.267-.612-.36a11.912 11.912 0 00-3.304-.86C2.218 1.37 3.193.97 4.143.9c.828-.06 2.014.01 2.766.368-.068.059-.982.602-1.003.575-.274-.336-.726-.498-1.167-.522-.44-.023-.877.074-1.306.17.87.176 1.723.432 2.542.766.5.204 1.037.491 1.187.997.129.434-.083.907-.396 1.24-.723.77-1.895.957-2.966.926-.953-.028-1.968-.227-2.632-.892" mask="url(#karos__b)"/></g><g transform="translate(111 266.319)"><mask id="karos__d" fill="#fff"><use xlink:href="#karos__c"/></mask><path fill="#FFF" d="M6.61 5.8c-1.058.097-2.024.024-2.836-.755-.632-.607-1.365-1.115-2.193-1.778.046.736.08 1.31.12 1.933H.314c.065-.359.184-.758.198-1.16.032-.851.01-1.704.01-2.694L0 1.024C.018.994.034.965.052.937h1.94c-.581.558-.336 1.202-.357 1.964L3.72 1.34V.93h1.514c-.93.652-1.817 1.275-2.802 1.97C3.88 3.912 4.939 5.246 6.61 5.8" mask="url(#karos__d)"/></g><path fill="#FFF" d="M125.073 269.198l1.1-.231c.037-.008.076-.017.102-.045.024-.028.027-.067.03-.103.025-.373.115-.558-.164-.8-.232-.203-.658-.324-.962-.26-.035.007-.072.019-.092.048-.018.026-.018.058-.018.089 0 .434.003.868.004 1.302m2.096-1.217c.116.663-.033 1.205-.716 1.645.57.42 1.06.81 1.58 1.158.506.338 1.042.63 1.555.994-.798.03-1.588-.044-2.256-.533-.606-.443-1.164-.947-1.744-1.423-.14-.114-.282-.228-.464-.373v2.088h-1.537l.394-.447v-3.333l-.512-.546c1.352.073 2.639-.282 3.7.77"/><g transform="translate(129 266.319)"><mask id="karos__f" fill="#fff"><use xlink:href="#karos__e"/></mask><path fill="#FFF" d="M2.056 4.776c.118.089.266.129.41.164.376.09.78.157 1.143.031.493-.17.803-.668.885-1.17.16-.975-.19-2.403-1.378-2.561-.57-.076-1.166.191-1.51.64-.344.449-.443 1.055-.298 1.598.101.374.308.714.526 1.038.064.093.128.188.218.258l.004.002M.26 1.755C1.107 1.207 2.097.807 3.112.85 4.805.923 6.215 2.458 5.424 4.1c-.255.53-.74.95-1.31 1.138-.449.146-.934.15-1.408.13-.415-.02-.84-.061-1.214-.237-.433-.203-.763-.574-.996-.982-.27-.476-.421-1.057-.217-1.564.059-.146.146-.284.171-.438.026-.156-.037-.34-.19-.392" mask="url(#karos__f)"/></g><path fill="#FFF" d="M119.729 268.593c-.212.465-.35.777-.507 1.12h1.107l-.6-1.12m2.788 2.985h-1.598c.07-.168.13-.304.193-.454-.168-.29-.33-.569-.51-.883h-1.646l-.449.89.257.442h-1.282a5693.53 5693.53 0 002.1-4.32h1.021l-.261.388 2.175 3.937m6.749-3.501l.013.052-.025-.037z"/></g></svg>