<svg xmlns="http://www.w3.org/2000/svg" width="40" height="40" fill="none"><circle cx="20" cy="20" r="20" fill="#59358C"/><path fill="#fff" fill-rule="evenodd" d="M29.799 16.753a.753.753 0 111.506 0 .753.753 0 01-1.506 0zm.812 6.378a1.881 1.881 0 01-1.883-1.88c0-1.038.843-1.88 1.883-1.88s1.883.842 1.883 1.88c0 1.038-.843 1.88-1.883 1.88zm0-5.263a3.386 3.386 0 00-3.389 3.383 3.386 3.386 0 003.389 3.383A3.386 3.386 0 0034 21.251a3.386 3.386 0 00-3.389-3.383zm-19.45 6.866h2l-2.68-3.998 2.488-2.768h-1.88l-2.488 2.77v-2.77H7v6.766h1.601v-1.905l.736-.819 1.824 2.724zm7.21-6.766l-3.212 4.189v-4.189h-1.602v6.766h1.432l3.204-4.178v4.178h1.602v-6.766H18.37zm6.553 2.64v-2.64h1.601v6.766h-1.601v-2.698h-2.735v2.698h-1.601v-6.766h1.601v2.64h2.735zM28.584 16a.753.753 0 100 1.506.753.753 0 000-1.506zm3.182.753a.753.753 0 111.507 0 .753.753 0 01-1.507 0z" clip-rule="evenodd"/></svg>