<svg xmlns="http://www.w3.org/2000/svg" width="80" height="80" fill="none"><path fill="#41C9F6" d="M40 80c22.091 0 40-17.909 40-40S62.091 0 40 0 0 17.909 0 40s17.909 40 40 40z"/><path fill="#fff" d="M40 60c11.046 0 20-8.954 20-20s-8.954-20-20-20-20 8.954-20 20 8.954 20 20 20z"/><path fill="#41C9F6" fill-rule="evenodd" d="M36 35.984c0-2.2 1.776-3.984 4-3.984 2.21 0 4 1.8 4 3.984v14.032c0 2.2-1.776 3.984-4 3.984-2.21 0-4-1.8-4-3.984V35.984zM40 40a4.001 4.001 0 002.828-6.828 4.001 4.001 0 00-5.656 0 4.001 4.001 0 000 5.656A4.001 4.001 0 0040 40z" clip-rule="evenodd"/><path fill="#41C9F6" d="M40 36a4 4 0 100-8 4 4 0 000 8z"/></svg>