<svg xmlns="http://www.w3.org/2000/svg" xmlns:xlink="http://www.w3.org/1999/xlink" width="60" height="60"><defs><path id="kviku__a" d="M29.703 59.405c16.404 0 29.702-13.298 29.702-29.702C59.405 13.298 46.107 0 29.703 0 13.298 0 0 13.298 0 29.703c0 16.404 13.298 29.702 29.703 29.702z"/><path id="kviku__c" d="M.048 17.748h15.974V.034H.048z"/><path id="kviku__e" d="M5.842 4.064V.218H.078v3.846h5.764z"/></defs><g fill="none" fill-rule="evenodd"><mask id="kviku__b" fill="#fff"><use xlink:href="#kviku__a"/></mask><use fill="#267BC9" xlink:href="#kviku__a"/><g mask="url(#kviku__b)"><g transform="translate(40.255 20.753)"><mask id="kviku__d" fill="#fff"><use xlink:href="#kviku__c"/></mask><path fill="#272426" d="M7.366 13.033c1.468.738 2.849 1.114 4.335.993.82-.066 1.184-.477.598-1.169-.745-.879-1.52-1.726-2.001-3.009-.71 1.508-1.677 2.398-2.932 3.185m.752-6.403c.503.058 1.021.189 1.449-.233-.16-.337-1.036-.218-.488-.883.298-.36.897-.045 1.18-.444-.44-.704-1.646-1.031-.834-2.148.035-.048-.051-.203-.104-.295C8.212.692 5.243.563 3.89 2.385c-.18.243-.33.598-.573.69-1.727.648-1.733 2.32-2.253 3.685-.072.188.023.358.138.525 1.112 1.616 3.663 2.073 5.265.943-.393-.37-1.098-.084-1.573-.756.718 0 1.287.087 1.813-.027.436-.094 1.1.116 1.248-.613l.164-.202M1.69 12.653c-.028.086-.09.177-.08.258.027.195.146.02.221.038.218 1.228 1.307 1.538 2.147 2.175l.493-1.397c-1.017.028-1.862-.285-2.66-.752a137.68 137.68 0 00-.128-.318l-.055.007s.064-.013.062-.011M.425 6.328c.343-1.052.7-2.104 1.384-2.99.283-.368.218-.63.04-1.018-.259-.564-.11-1.118.36-1.56.436-.408.96-.547 1.473-.271 1.435.773 2.752-.05 4.095-.292.494-.089.928-.326 1.38.017.417.317.528.727.27 1.21-.25.466.143.698.376.97 1.054 1.224 1.746 2.48.132 4.126.981-.199 1.757-.608 2.229.172.506.836.323 1.744-.185 2.489-.587.862-.974 1.437.545 1.568.593.05 1.01.646 1.488 1.023.327.256.677.674 1.024.68 1.59.032.875.808.472 1.405-.397.589-.76 1.263-1.523 1.482-.397.114-.375.433-.415.725-.118.887-.695 1.31-1.5 1.508-3.19.78-9.794-1.08-11.38-4.664-.938-2.159-.685-4.366-.265-6.58" mask="url(#kviku__d)"/></g><path fill="#FEFEFE" d="M6.577 30.79c0 1.093-.001 2.186.001 3.278.002.84-.412 1.31-1.252 1.286-.781-.022-1.154-.491-1.153-1.27.003-2.827 0-5.655 0-8.482 0-.777.388-1.252 1.16-1.275.856-.027 1.226.515 1.24 1.317.017.902.004 1.804.004 3.016.927-1.037 1.651-1.851 2.38-2.66.383-.426.755-.863 1.169-1.258.533-.509 1.152-.652 1.735-.111.582.54.501 1.203.03 1.747a27.283 27.283 0 01-2.212 2.278c-.6.548-.706.944-.058 1.561.966.92 1.848 1.928 2.74 2.921.56.624.877 1.354.09 1.996-.762.622-1.456.185-2.004-.41-1.225-1.334-2.413-2.701-3.616-4.054l-.254.12m21.747-1.49c.643-.647 1.277-1.303 1.931-1.94.56-.544 1.209-.75 1.813-.127.625.646.281 1.244-.235 1.8-1.482 1.599-1.475 1.602-.095 3.34.307.389.61.782.885 1.194.382.576.243 1.103-.262 1.52-.588.487-1.185.314-1.625-.19-.751-.864-1.428-1.791-2.14-2.689-.11-.139-.24-.262-.568-.617 0 .854.02 1.446-.005 2.035-.035.835-.133 1.708-1.239 1.701-1.04-.006-1.176-.85-1.182-1.637-.023-2.906-.02-5.812.008-8.717.008-.802.2-1.599 1.241-1.579.968.019 1.134.785 1.168 1.538.042.916.007 1.835.006 2.752v1.559l.299.058m12.356-2.22c-.42 2.214-.673 4.42.264 6.58-1.095 1.242-2.42 1.891-4.12 1.706-1.804-.197-3.009-1.425-3.052-3.237-.03-1.222.008-2.446-.009-3.669-.011-.83.251-1.51 1.16-1.517.881-.006 1.227.613 1.208 1.474-.023 1.031.004 2.064-.002 3.095-.006.883.303 1.528 1.283 1.535 1.014.007 1.253-.685 1.246-1.55-.006-.955-.008-1.91.01-2.866.03-1.499.55-1.893 2.012-1.551m-23.691 4.178c.349-1.043.68-2.092 1.052-3.127.273-.76.68-1.456 1.656-1.134 1.025.337.99 1.136.664 1.965-.683 1.738-1.383 3.47-2.08 5.201-.254.63-.592 1.185-1.378 1.17-.756-.013-1.156-.512-1.411-1.15a540.476 540.476 0 01-2.066-5.21c-.316-.814-.411-1.624.629-1.977.982-.335 1.373.35 1.642 1.124.36 1.036.707 2.076 1.06 3.114l.232.024m6.855-.099c0 .953-.021 1.908.008 2.86.02.654-.294 1.058-.89 1.116-.612.06-.98-.313-1.027-.956-.148-2.018-.11-4.037-.018-6.055.03-.64.443-.978 1.064-.934.646.046.883.478.868 1.108-.023.953-.006 1.907-.005 2.86"/><g transform="translate(51.262 21.364)"><mask id="kviku__f" fill="#fff"><use xlink:href="#kviku__e"/></mask><path fill="#272426" d="M5.843.224c-.475.71-1.117 2.31-1.467 2.795-.452.629-.635 1.208-1.841.64-.332-.157-.38-.135-.594-.295-.048-.035-.51.645-.525.7 0 0-.28-1.569-.37-1.812-.091-.246-.728-.5-.968-.693C1.387 1.028 4.767.134 5.843.224L1.69 2.544c.053.083.065.127.093.143 1.542.865 1.534.859 2.666-.521.23-.28.687-1.771 1.393-1.942" mask="url(#kviku__f)"/></g><path fill="#FEFEFE" d="M48.094 24.889c-.04-.405.022-.955-.534-.812-.786.201-1.25.832-1.375 1.632-.083.533.304.796.766.736.91-.116 1.017-.878 1.143-1.556m.115 2.696c-.15.728-.812.519-1.248.613-.526.114-1.096.027-1.813.027.475.671 1.18.385 1.573.756-1.603 1.13-4.154.673-5.265-.943-.115-.168-.21-.337-.138-.525.52-1.365.526-3.037 2.252-3.686.244-.091.393-.446.574-.69 1.354-1.822 4.323-1.692 5.432.243.053.092.139.247.104.295-.813 1.116.394 1.444.833 2.147-.283.4-.882.084-1.18.445-.547.664.328.545.488.883-.428.421-.945.29-1.449.233-.127-.007-.34-.059-.365-.012-.093.178.081.187.202.214m-.588 6.2c1.255-.786 2.222-1.677 2.931-3.185.481 1.284 1.257 2.13 2.001 3.01.586.692.223 1.102-.598 1.169-1.486.12-2.866-.256-4.334-.994m-5.555-.058c.798.468 1.643.78 2.66.752l-.492 1.397c-.84-.636-1.93-.946-2.147-2.175l-.021.026zm-.094-.324l-.089.018s.076-.01.074-.007l.015-.01"/><path fill="#FEFEFE" d="M42.17 33.757c-.103-.02-.267.187-.304-.044-.014-.097.07-.205.112-.309l-.015.008c.061.125.12.25.178.376l.029-.03"/><path fill="#272426" d="M48.094 24.889c-.126.678-.234 1.44-1.143 1.556-.462.06-.85-.203-.766-.736.126-.8.589-1.431 1.375-1.632.556-.143.494.407.534.812m.131 2.781c-.13-.036-.316-.048-.216-.292.026-.064.255.007.392.016l-.176.276"/><path fill="#FEFEFE" d="M23.728 25.234a.946.946 0 11-1.893.001.946.946 0 011.893 0"/></g></g></svg>