<svg xmlns="http://www.w3.org/2000/svg" xmlns:xlink="http://www.w3.org/1999/xlink" width="60" height="60"><defs><path id="tinkoff__a" d="M30 60c16.569 0 30-13.431 30-30C60 13.431 46.569 0 30 0 13.431 0 0 13.431 0 30c0 16.569 13.431 30 30 30z"/></defs><g fill="none" fill-rule="evenodd"><mask id="tinkoff__b" fill="#fff"><use xlink:href="#tinkoff__a"/></mask><use fill="#272725" xlink:href="#tinkoff__a"/><g mask="url(#tinkoff__b)"><path fill="#FFF" d="M25.456 16.406l-.018.004.015-.02.003.016zm23.578 11.909l.525-1.714-1.738.056c-.147 0-1.214-.031-2.25-.796.077.007.154.018.233.018 1.066 0 2.099-.654 2.512-1.59l.747-1.69c-.938.013-1.795-.108-1.795-.108-.007 0-.683-.09-1.464-.903-.56-.583-1.254-.891-2.005-.891-.329 0-.623.06-.875.142.04-.137.076-.276.098-.42.239-1.581-.76-2.787-.76-2.786l-1.308-1.65-.81 1.938c-.003.006-.208.46-.574.682-.11-.57-.382-1.21-.962-1.822-1.093-1.153-2.425-1.326-3.121-1.326-.323 0-.554.036-.61.045l-1.578.317c.092-.36.286-.986.64-1.549l.871-1.381-2.19.253-.7-1.51-1.35.71-1.25-1.258-1.246 1.258-1.356-.71-.696 1.51-2.19-.254.872 1.383c.355.562.548 1.187.638 1.545l-1.506-.302-.052-.009a3.874 3.874 0 00-.628-.048c-.696 0-2.028.173-3.119 1.326-.58.611-.853 1.252-.964 1.822-.364-.22-.567-.666-.567-.666l-.812-1.95-1.328 1.66c-.163.214-.963 1.348-.745 2.775.022.142.059.28.098.417a2.81 2.81 0 00-.874-.142c-.752 0-1.445.308-2.006.89-.78.81-1.45.903-1.445.903 0 0-.711.13-1.81.11l.743 1.69c.414.935 1.447 1.59 2.51 1.59.08 0 .157-.012.236-.02-1.033.766-2.1.797-2.23.798l-1.77-.057.537 1.713c.27.883 1.17 2.345 2.897 2.503-.187.802-.604 1.701-1.518 2.088l-1.32.553.72 1.277c.406.688 1.36 1.493 2.715 1.493.294-.001.577-.031.85-.09.07.314.157.629.26.942.404 1.225.056 2.079.052 2.088l-.65 1.39 1.452.39c.019.006.458.13 1.007.13.25 0 .488-.027.711-.082.169-.04.332-.093.488-.158.188.344.416.658.683.939.931.973 2.251 1.467 3.923 1.467h.005l1.194-.016-2.466 1.045 1.872.921c.68.338 1.486.737 2.308 1.043l-.234.651.645.3c.057.027 1.299.592 3.36.712 0 0 .498.024.773.024.274 0 .766-.025.766-.025 2.048-.124 3.28-.684 3.337-.71l.647-.301-.236-.653c.844-.314 1.68-.73 2.333-1.054l1.837-.91-2.458-1.043 1.199.016c1.674 0 2.994-.494 3.924-1.469a4.46 4.46 0 00.682-.937 3.037 3.037 0 001.2.24c.54 0 .984-.123.995-.127l1.46-.393-.635-1.364c-.015-.035-.363-.89.04-2.115a9.93 9.93 0 00.26-.942c.274.06.56.09.856.09 1.728 0 2.556-1.238 2.717-1.507l.712-1.263-1.319-.551c-.916-.388-1.332-1.287-1.518-2.088 1.704-.15 2.618-1.615 2.898-2.503z"/><path fill="#FFF" d="M29.32 16.33c-1.397.001-2.444.467-2.671 1.016l2.67 1.074 2.673-1.074c-.227-.549-1.274-1.015-2.672-1.016m.028 28.432h-.054c-.846.005-2.012-.171-2.572-.338l-.676 1.861c.445.162 1.954.472 3.277.472 1.319 0 2.828-.31 3.273-.472l-.674-1.861c-.564.167-1.728.343-2.574.338m5.111-1.853c-.503.29-1.625.725-2.277.927l.547 1.538c1.01-.28 1.844-.609 2.532-.96l-1.137-.386.335-1.119m-10.276 0l.336 1.12-1.138.384c.687.352 1.524.68 2.53.961l.55-1.538c-.652-.202-1.776-.637-2.278-.927M29.32 14.55c1.053 0 2.084.256 2.879.706.072-.247.174-.548.311-.864l-.3.037-.315.034-.133-.293-.402-.864-.732.389-.284.147-.229-.228-.795-.802-.794.802-.227.228-.285-.147-.736-.389-.396.864-.136.293-.315-.034-.299-.037c.138.316.238.617.312.864.797-.45 1.828-.707 2.876-.707m16.071 9.988c.137.048.276.07.413.07.596 0 1.171-.394 1.37-.842 0 0-1.092-.067-2.266-1.282-.374-.393-.77-.511-1.11-.511a1.74 1.74 0 00-.922.283c1.418.77 1.708 2.004 2.515 2.282m-32.554.069c.138 0 .277-.021.41-.07.81-.277 1.102-1.511 2.518-2.28 0 0-.396-.284-.92-.284-.342 0-.737.118-1.112.512-1.173 1.214-2.264 1.281-2.264 1.281.196.448.773.841 1.368.841"/><path fill="#FFF" d="M44.963 33.398c-1.097-.551-1.79-2.014-1.957-2.541-.182 2.901-1.572 4.914-3.197 6.853-.843 1.004-1.137 1.981-1.137 1.981s.162-1.107.891-2.007c1.516-1.856 2.957-4.166 3.064-6.837.074-1.865-.396-3.377-1.13-4.623.41 1.298.352 2.887-1.043 4.37 0 0 2.777-3.39-1.105-6.865-1.553-1.322-3.254-2.14-4.128-2.718 3.161 1.051 4.705-.106 4.705-.106-1.01.892-2.316.877-3.127.748.22.11.449.224.695.358 2.666 1.475 5.061 3.903 5.47 7.265v-.026c.62 3.3 2 4.148 2 4.148m.811-3.846a.842.842 0 00.071.002c1.486 0 1.99-1.622 1.99-1.622h-.03c-.272 0-2.482-.065-4.043-2.088-1.028-1.33-1.871-2.499-3.534-2.959l-.165-.03-.035-.17c-.046-.258.129-.501.524-.763 2.296-1.532.736-3.486.736-3.486s-.655 1.562-2.122 1.562l-.11-.002c-.166-.008-.327-.014-.489-.05l-.27-.053s.419-1.16-.591-2.224a3.024 3.024 0 00-2.22-.94c-.27 0-.44.035-.44.035.507.676.873 1.797.288 2.489-.506.594-1.742.622-1.742 1.508 0 .376.344.814.962 1.207 1.858 1.192 3.702 2.774 4.47 4.894.958 2.644-.122 4.4-1.663 5.406 0 0 .483.454 1.184.512.143.014.282.02.412.02 1.48 0 2.245-.707 2.245-.707s-.126.977-.896 1.884c-.71.837-1.642 1.331-3.065 1.351 0 0-.045.673.584 1.255.404.368 1.334.487 1.334.487s-1.743.36-1.935 2.983c-.104 1.421-.461 1.915-.461 1.915h.031c4.045 0 3.942-3.535 3.942-3.535s.28 1.047 1.41 1.32c.135.036.281.05.42.05.363 0 .679-.087.679-.087s-.592-1.27-.005-3.046c.486-1.474.408-2.566.408-2.566s.544.84 1.896.847h.013a1.895 1.895 0 001.615-.868c-2.696-1.141-2.43-4.822-2.43-4.822s.35.266 1.032.291M18.832 37.71c-1.625-1.939-3.014-3.952-3.198-6.853-.167.527-.858 1.99-1.955 2.541 0 0 1.378-.847 1.998-4.148v.026c.41-3.361 2.805-5.79 5.471-7.264.245-.136.476-.25.694-.358-.81.128-2.117.143-3.126-.749 0 0 1.544 1.157 4.704.106-.874.58-2.573 1.396-4.126 2.718-3.884 3.476-1.106 6.866-1.106 6.866-1.397-1.484-1.453-3.073-1.042-4.37-.736 1.245-1.206 2.757-1.13 4.622.106 2.67 1.546 4.98 3.06 6.837.732.9.896 2.007.896 2.007s-.297-.977-1.14-1.981m.65-.64s.93-.119 1.335-.487c.629-.582.584-1.255.584-1.255-1.424-.02-2.355-.514-3.07-1.35-.765-.908-.892-1.885-.892-1.885s.765.707 2.243.707c.133 0 .27-.006.414-.02.701-.058 1.186-.511 1.186-.511-1.542-1.007-2.623-2.762-1.666-5.407.768-2.12 2.612-3.702 4.47-4.895.618-.392.962-.83.962-1.206 0-.886-1.235-.914-1.74-1.508-.586-.692-.22-1.813.287-2.489 0 0-.169-.035-.44-.035-.534 0-1.458.137-2.219.94-1.012 1.064-.592 2.224-.592 2.224l-.27.053c-.162.035-.324.042-.49.05l-.107.002c-1.471 0-2.123-1.562-2.123-1.562s-1.56 1.954.736 3.486c.395.262.57.505.523.764l-.035.169-.167.03c-1.661.46-2.505 1.63-3.534 2.96-1.56 2.021-3.767 2.087-4.042 2.087h-.03s.504 1.622 1.99 1.622c.024 0 .046 0 .071-.002.683-.025 1.034-.291 1.034-.291s.264 3.68-2.431 4.821c0 0 .49.87 1.615.87h.014c1.352-.008 1.896-.848 1.896-.848s-.079 1.093.406 2.566c.586 1.777-.002 3.047-.002 3.047s.314.087.677.087c.141 0 .285-.015.42-.051 1.128-.273 1.41-1.32 1.41-1.32s-.103 3.535 3.942 3.535h.029s-.354-.494-.458-1.915c-.192-2.623-1.936-2.983-1.936-2.983m8.926-13.025h1.906v.667c-.224-.28-.66-.223-.66-.223v.961s.016.473.178.678h-.943c.165-.205.18-.678.18-.678v-.96s-.436-.058-.661.222v-.667zm-2.079.1c.067.073.132.151.195.231a6.04 6.04 0 01.217.304l.038.056c.067.105.132.212.195.324.584 1.026 1.517 1.639 2.346 1.64.83-.001 1.762-.614 2.347-1.64.064-.115.13-.225.198-.328l.03-.046a4.692 4.692 0 01.219-.307c.065-.083.132-.162.2-.236l.033-.033c.298-.31.652-.546 1.116-.677l-.207-.123h-.012l-.82-.485-.844-.492-2.254 1.25-.006-.005-.004.005-2.255-1.25-.843.492-.822.485h-.01l-.208.123c.464.131.817.365 1.115.675.013.012.022.026.036.037z"/><path fill="#FFF" d="M28.602 19.809v.627l-.118-.055c-.006-.005-.18-.044-.482-.289-.5-.394-.51-.758-.51-.758l1.11.475zm.523 2.943V18.85l-2.438-.843.643 3.782 1.795.963zm.915-2.943l1.11-.475s-.01.364-.512.758c-.3.245-.475.284-.48.289l-.118.055v-.627zm1.271 1.98l.641-3.782-2.436.843v3.902l1.795-.963zM25.677 31.8c.237.087.525.106.673.106l.02-.07c.013-.044.026-.088.035-.137a4.1 4.1 0 00.06-.619.863.863 0 01-.32-.344c-.091-.194-.22-.285-.409-.285-.245 0-.508.15-.622.221-.09.54.301 1.03.563 1.128m5.393-2.07c-.453.501-1.34 1.375-1.382 1.418l-.054.055-2.8-.045a2.999 2.999 0 01-.091.7l-.023.09 3.332.61c.346-.246 1.3-.956 1.67-1.234-.268-.401-.294-.877-.233-1.211a1.678 1.678 0 01-.419-.383"/><path fill="#FFF" d="M31.45 26.297c-.646.652-1.265.894-1.817.95a3.1 3.1 0 01-.305.017h-.014a2.856 2.856 0 01-.605-.065c-.036.147-.082.453.049.744.117.263.355.46.702.59l.117.047.002.128c0 .038.028.868.915 1.099.145-.152.277-.29.374-.405-.181-.436-.086-.88.178-1.097-.012.046-.128 1.135.73 1.54l.14.069-.041.153c-.014.046-.3 1.1.738 1.493l.184.07-.081.182c-.019.04-.425.997.533 1.54h2.079v-1.681c-.74-.092-1.052-.697-1.133-1.126-.344-.06-.61-.211-.792-.457-.436-.585-.061-1.122-.056-1.15-.001.004 0 .574.345.927.172.17.374.301.68.33l.152.015.013.157c.003.033.086.806.79.927v-3.436c0-.532.151-1.067.335-1.56H31.45m-5.596 1.573l-.056 2.188.244.038.597-2.1-.303-.645-.482.52m1.293 8.098a.122.122 0 01-.116-.134.122.122 0 01.13-.115c.07.003.12.065.118.132-.007.07-.066.123-.132.117m5.286 1.936c.019 0 .04.003.06.008.37.108.465 1.471 1.116 1.593a.824.824 0 00.175.018c.188 0 .3-.082.421-.228 0 0-.328-.524-.573-.879-.326-.463-.578-1.023-1.184-1.023a.37.37 0 00-.047.002c-.2.01-.323.11-.323.11a1.236 1.236 0 00-.68-.21c-.38 0-.675.177-.824.177h-.005l-1.354-.136c-.211-.021-.379-.239-.439-.323l-.023-.037c0-.038 0-.076-.003-.11-.045-1.128-.902-1.61-1.208-1.618 0 0 .036-.215-.046-.297l-.299.37-.979-.501.7.832-.593.677c-.074.077-.065.18-.034.225l.256.23.324-.2c.016-.012.046-.016.082-.016.09 0 .224.023.345.023.132 0 .246-.028.26-.155-.04.419-.422 1.145-.172 1.716l.186.431-1.197-.175-.56.964c-.173.32-.2.667-.034.856l.21.267s.294-.317.36-.526l-.096-.107c-.08-.09-.076-.17-.027-.266l.352-.594 1.412.34.075-.13a.41.41 0 01.385-.21c.063 0 .126.007.193.018a5.99 5.99 0 001.125.123c.473 0 .944-.086 1.194-.372.512.772 1.549.895 1.467 1.288l-.273 1.324c.18-.008.355-.02.52-.043l.26-1.377c.029-.15.056-.352.056-.352-.1-.104-.342-.322-.479-.588-.183-.358-.084-.545-.254-1.01 0 0 .053-.109.172-.109"/><path fill="#FFF" d="M25.218 39.159s.468-.197.51-.336l-.063-.16c-.044-.104-.038-.216.048-.277l.505-.356.844.166s-.152-.196-.137-.456l-.806-.174-.76.472a.76.76 0 00-.242.895l.1.226m5.974 2.244c.15-.006.319-.009.501-.009 0 0 .435-1.295.46-1.336-.244-.11-.75-.383-.945-.508.13.197.442.42.38.594l-.396 1.259"/><path fill="#FFE52B" d="M35.328 33.724H23.315v4.603c0 1.884 1.337 3.062 3.31 3.062 1.649 0 2.084.066 2.697.685.423-.429.772-.59 1.49-.649l.017-.071.379-1.193c-.021-.026-.64-.743-.64-.743-.246.083-.452.097-.798.097-.356 0-.757-.043-1.193-.126a.543.543 0 00-.125-.014c-.053 0-.057.004-.071.031l-.075.126-.138.232-.26-.061-1.152-.276-.158.265.023.029.14.158-.062.205c-.084.268-.36.581-.444.668l-.288.315-.263-.339-.197-.252c-.207-.236-.255-.597-.138-.977a.022.022 0 01-.012.005l-.325.137-.146-.324-.103-.23a1.133 1.133 0 01.365-1.35l.928-.535.883.177c.021-.086.053-.395.078-.474-.017-.002-.033-.006-.05-.006l-.509.194-.491-.345s-.192-.189-.018-.377l.475-.733-1.204-1.54 1.85.774.124-.155.25-.305.283.275c.08.078.126.175.149.272.51.203 1.424.8 1.504 1.77l-.286.116v.008c.066.079.12.111.137.114l1.32.132c.035-.005.076-.02.123-.034.165-.057.41-.14.703-.14a1.6 1.6 0 01.69.161c.081-.031.181-.054.297-.062l.064-.002c.707 0 1.059.539 1.34.969a4.9 4.9 0 00.144.213c.246.355.57.875.582.897l.146.232-.178.211c-.138.162-.344.352-.698.352-.073 0-.154-.008-.24-.025a.994.994 0 01-.21-.065c-.01.071-.024.156-.037.229l-.232 1.231c1.386-.347 2.265-1.412 2.265-2.939l-.002-4.603m-12.013-.371h9.343c-.466-.491-.46-1.113-.34-1.517a1.54 1.54 0 01-.349-.234 159.31 159.31 0 01-1.771 1.309l-.063.042-3.667-.675h-.074c-.088 0-.216-.004-.358-.02a.358.358 0 01-.404.278.368.368 0 01-.299-.422l.014-.081c-.377-.272-.727-.878-.572-1.517l.015-.068.053-.039c.008-.006.07-.05.166-.105l-.266-.041a.187.187 0 01-.151-.213c.017-.102.11-.174.208-.155l.635.102.058-2.277.944-1.018.59 1.265-.622 2.19.561.09c.099.016.166.11.151.214a.18.18 0 01-.18.154l-.028-.001-.457-.075c.006.014.015.022.021.036a.503.503 0 00.22.207l2.794.046c.12-.118.413-.41.714-.72a1.534 1.534 0 01-.98-1.271c-.383-.167-.65-.417-.796-.742-.18-.402-.116-.806-.068-1.002-.373-.138-.765-.39-1.165-.796H22.98c.18.494.334 1.03.334 1.561v5.495"/><path fill="#1A1918" d="M27.177 35.721c-.077-.007-.14.053-.146.13a.135.135 0 00.13.148.14.14 0 00.147-.13c.002-.075-.053-.145-.131-.148m5.553 9.654l-.549-1.538c.653-.203 1.775-.638 2.279-.927l-.336 1.118 1.137.385c-.688.352-1.521.68-2.531.962m-3.407 1.382c-1.322 0-2.832-.31-3.277-.471l.676-1.862c.56.166 1.726.343 2.572.338h.054c.846.005 2.01-.172 2.574-.338l.674 1.862c-.445.161-1.954.471-3.273.471m-5.942-2.344l1.139-.385-.337-1.118c.502.289 1.627.724 2.278.927l-.55 1.538c-1.006-.282-1.843-.61-2.53-.962m11.93-.341l-.691-.27.191-.73.21-.793s-1.226.677-2.954 1.186c-.49.143-.861.209-.861.209v.54s-.924.164-1.858.164h-.054c-.935 0-1.857-.164-1.857-.164v-.54s-.372-.066-.862-.209a16.165 16.165 0 01-2.952-1.186l.207.793.195.73-.695.27-.77.292c.883.435 2.106 1.066 3.225 1.379l-.264.735s1.42.658 3.784.664v.002h.032v-.002c2.367-.006 3.785-.664 3.785-.664l-.265-.735c1.12-.313 2.344-.944 3.223-1.379l-.768-.292M26.431 14.43l.315.033.136-.293.396-.863.736.388.285.148 1.02-1.031.796.802.229.229.284-.148.732-.388.402.863.133.293.315-.034.3-.037a7.31 7.31 0 00-.311.865c-.795-.451-1.826-.708-2.88-.708-1.047 0-2.078.257-2.875.708a7.494 7.494 0 00-.312-.865l.3.037zm2.889.57c1.409 0 2.536.476 3.158.982 0 0 .185-1.134.816-2.135l-1.134.132-.594-1.285-1.14.599-1.106-1.114-1.103 1.114-1.143-.6-.592 1.286-1.135-.132c.632 1 .816 2.135.816 2.135.627-.506 1.75-.982 3.157-.982zm17.854 19.082s-.49.87-1.616.87h-.014c-1.35-.008-1.895-.848-1.895-.848s.078 1.092-.408 2.566c-.587 1.777.005 3.046.005 3.046s-.316.088-.68.088a1.67 1.67 0 01-.42-.051c-1.128-.273-1.41-1.32-1.41-1.32s.104 3.535-3.94 3.535h-.032s.357-.494.461-1.915c.192-2.623 1.935-2.983 1.935-2.983s-.93-.119-1.333-.487c-.63-.582-.586-1.255-.586-1.255 1.423-.02 2.356-.514 3.066-1.35.77-.908.896-1.885.896-1.885s-.765.707-2.245.707c-.13 0-.269-.006-.412-.02-.7-.058-1.184-.511-1.184-.511 1.54-1.007 2.621-2.763 1.663-5.407-.768-2.12-2.612-3.702-4.47-4.895-.618-.392-.962-.83-.962-1.206 0-.886 1.236-.914 1.742-1.508.585-.692.218-1.813-.288-2.489 0 0 .17-.035.44-.035.534 0 1.46.137 2.22.94 1.01 1.064.591 2.224.591 2.224l.27.053c.162.035.323.042.49.05l.109.002c1.467 0 2.123-1.562 2.123-1.562s1.559 1.954-.737 3.486c-.395.262-.57.505-.524.764l.036.17.163.029c1.664.46 2.506 1.63 3.535 2.96 1.562 2.022 3.77 2.087 4.043 2.087h.03s-.504 1.622-1.99 1.622c-.025 0-.046 0-.07-.002-.683-.025-1.033-.291-1.033-.291s-.266 3.68 2.43 4.821m-1.327-4.032c1.821 0 2.431-1.888 2.456-1.97l.204-.665-.683.022h-.002c-.241 0-2.251-.054-3.676-1.9l-.135-.17c-.931-1.207-1.814-2.354-3.393-2.878.046-.042.111-.093.2-.153.839-.561 1.326-1.243 1.448-2.035.18-1.19-.566-2.14-.599-2.179l-.507-.639-.317.758c-.022.048-.554 1.261-1.675 1.261h-.084c-.076-.004-.15-.007-.222-.013.04-.541-.057-1.379-.803-2.166-.897-.945-1.996-1.087-2.571-1.087-.308 0-.512.039-.534.04l-.766.156.472.634c.371.49.707 1.392.309 1.864-.128.15-.39.272-.64.394-.516.241-1.221.58-1.221 1.437 0 .555.423 1.136 1.19 1.63 2.267 1.453 3.667 2.97 4.271 4.644.935 2.575-.285 4.043-1.47 4.818l-.531.347.465.436c.063.056.631.567 1.472.64.16.011.312.02.454.02a4.61 4.61 0 001.37-.202 3.49 3.49 0 01-.387.557c-.677.8-1.51 1.163-2.708 1.183l-.445.007-.034.455c-.004.092-.038.936.746 1.653.12.111.264.203.417.277-.532.488-1.072 1.337-1.176 2.791-.09 1.214-.373 1.664-.376 1.668l-.492.765.889.013c1.469 0 2.594-.413 3.373-1.232.461-.484.725-1.03.88-1.515a2.374 2.374 0 001.552.58c.415 0 .762-.089.8-.099l.568-.153-.25-.54c-.019-.043-.492-1.127.017-2.672a8.9 8.9 0 00.386-1.734c.358.19.837.347 1.456.349 1.405 0 2.025-1.07 2.052-1.115l.277-.491-.513-.215c-1.675-.709-2.046-2.612-2.12-3.641.151.03.325.057.52.062l.086.003"/><path fill="#1A1918" d="M43.799 21.972c.34 0 .735.118 1.109.512 1.174 1.214 2.266 1.281 2.266 1.281-.199.448-.774.841-1.37.841a1.23 1.23 0 01-.413-.07c-.808-.277-1.097-1.511-2.515-2.28 0 0 .396-.284.923-.284m-1.154.722c.68.369 1.075.863 1.422 1.301.342.428.665.84 1.172 1.011.18.063.37.093.565.093.76 0 1.524-.474 1.813-1.13l.292-.658-.705-.043c-.033 0-.94-.085-1.948-1.134-.415-.431-.917-.657-1.457-.657-.66 0-1.15.336-1.204.37l-.648.465.698.382m.319 6.556v.026c-.409-3.362-2.804-5.79-5.47-7.265a18.542 18.542 0 00-.695-.358c.81.129 2.118.144 3.127-.748 0 0-1.544 1.157-4.705.106.874.579 2.575 1.396 4.128 2.718 3.882 3.476 1.105 6.865 1.105 6.865 1.395-1.483 1.453-3.072 1.042-4.37.735 1.246 1.204 2.758 1.131 4.623-.106 2.67-1.548 4.98-3.064 6.837-.728.9-.89 2.007-.89 2.007s.293-.977 1.136-1.981c1.625-1.939 3.015-3.952 3.197-6.853.167.527.86 1.99 1.958 2.541 0 0-1.38-.847-2-4.148M21.847 41.968c-4.045 0-3.942-3.535-3.942-3.535s-.282 1.047-1.41 1.32c-.135.036-.279.05-.42.05-.363 0-.677-.087-.677-.087s.588-1.269.002-3.046c-.485-1.473-.406-2.566-.406-2.566s-.544.84-1.896.848h-.014c-1.124 0-1.615-.87-1.615-.87 2.695-1.14 2.431-4.821 2.431-4.821s-.35.266-1.034.291c-.025.002-.047.002-.07.002-1.487 0-1.991-1.622-1.991-1.622h.03c.275 0 2.482-.066 4.042-2.088 1.03-1.33 1.872-2.499 3.534-2.959l.167-.03.035-.17c.046-.258-.128-.501-.523-.763-2.295-1.532-.736-3.486-.736-3.486s.652 1.562 2.123 1.562l.107-.001c.165-.01.328-.016.49-.05l.27-.054s-.42-1.16.592-2.224a3.022 3.022 0 012.22-.94c.27 0 .438.035.438.035-.505.676-.872 1.797-.287 2.489.506.594 1.74.622 1.74 1.508 0 .376-.343.814-.96 1.206-1.86 1.193-3.703 2.776-4.47 4.895-.958 2.645.123 4.4 1.665 5.407 0 0-.485.453-1.186.51a4.31 4.31 0 01-.414.021c-1.478 0-2.243-.707-2.243-.707s.127.977.892 1.885c.715.836 1.646 1.33 3.07 1.35 0 0 .045.673-.584 1.255-.404.368-1.335.487-1.335.487s1.744.36 1.936 2.983c.104 1.421.458 1.915.458 1.915h-.03zm.43-.283c-.002-.004-.284-.454-.375-1.668-.105-1.455-.645-2.303-1.178-2.791a1.7 1.7 0 00.417-.277c.783-.717.75-1.56.744-1.653l-.03-.455-.448-.007c-1.195-.02-2.03-.383-2.706-1.183a3.706 3.706 0 01-.388-.557c.373.115.83.202 1.37.202.144 0 .294-.009.454-.02a2.659 2.659 0 001.473-.64l.466-.436-.531-.347c-1.19-.775-2.405-2.243-1.471-4.818.604-1.674 2.002-3.191 4.273-4.644.767-.494 1.186-1.075 1.186-1.63 0-.858-.703-1.196-1.218-1.437-.252-.122-.514-.244-.64-.394-.4-.472-.064-1.375.307-1.864l.476-.634-.77-.155c-.023-.003-.224-.041-.533-.041-.575 0-1.672.142-2.568 1.087-.747.787-.845 1.625-.807 2.166-.072.006-.144.009-.221.013h-.082c-1.125 0-1.656-1.214-1.676-1.26l-.316-.759-.512.64c-.029.038-.777.988-.595 2.178.12.792.609 1.474 1.447 2.035.09.06.154.11.2.153-1.581.524-2.463 1.671-3.394 2.877l-.134.172c-1.423 1.845-3.438 1.9-3.679 1.9l-.686-.023.209.666c.024.081.632 1.969 2.454 1.969l.088-.003c.193-.005.366-.032.52-.062-.075 1.029-.447 2.932-2.122 3.64l-.512.216.277.491a2.402 2.402 0 002.056 1.115 3.083 3.083 0 001.452-.348c.054.466.167 1.064.386 1.733.51 1.545.035 2.629.017 2.672l-.251.54.568.153c.038.01.388.1.801.1a2.363 2.363 0 001.552-.58 3.9 3.9 0 00.879 1.514c.781.819 1.905 1.232 3.373 1.232l.89-.013-.492-.765z"/><path fill="#1A1918" d="M13.733 22.483c.375-.393.77-.511 1.112-.511.524 0 .92.284.92.284-1.416.769-1.708 2.003-2.517 2.28a1.2 1.2 0 01-.41.07c-.596 0-1.172-.393-1.37-.84 0 0 1.092-.068 2.265-1.283m-.896 2.616c.195 0 .386-.03.566-.092.508-.172.831-.583 1.172-1.012.35-.437.74-.932 1.42-1.3l.7-.383-.65-.465c-.053-.035-.54-.37-1.2-.37-.542 0-1.045.226-1.46.657-1.009 1.05-1.913 1.134-1.945 1.135l-.704.042.289.658c.29.656 1.053 1.13 1.812 1.13m3.179 5.748c-.076-1.865.394-3.377 1.13-4.623-.41 1.298-.355 2.887 1.042 4.37 0 0-2.778-3.39 1.106-6.865 1.553-1.322 3.252-2.14 4.126-2.718-3.16 1.051-4.704-.106-4.704-.106 1.009.892 2.316.877 3.127.748-.22.11-.45.223-.695.358-2.666 1.475-5.06 3.903-5.471 7.265v-.026c-.62 3.3-1.998 4.148-1.998 4.148 1.097-.551 1.788-2.014 1.956-2.541.183 2.901 1.572 4.914 3.197 6.853.843 1.004 1.14 1.981 1.14 1.981s-.165-1.107-.897-2.007c-1.513-1.856-2.953-4.166-3.059-6.837m12.392-6.802v.667c.225-.28.66-.223.66-.223v.961s-.014.473-.18.678h.944c-.162-.205-.179-.678-.179-.678v-.96s.437-.058.661.222v-.667h-1.906m-.406-3.953c.302.244.476.285.482.288l.118.056v-.627l-1.11-.475s.01.363.51.758m2.636 0c.502-.395.511-.758.511-.758l-1.109.475v.627l.117-.056c.006-.003.18-.044.481-.288"/><path fill="#1A1918" d="M29.32 18.42l-2.671-1.075c.227-.548 1.274-1.014 2.67-1.015 1.4.001 2.446.467 2.673 1.015l-2.672 1.076zm1.991 3.369l-1.795.964V18.85l2.437-.843-.642 3.782zm1.112 1.036l.821.485h.012l.206.123a2.42 2.42 0 00-1.115.677l-.032.033a4.053 4.053 0 00-.201.236l-.038.05a4.427 4.427 0 00-.18.257l-.031.046a6.034 6.034 0 00-.198.328c-.585 1.026-1.518 1.639-2.347 1.64-.829-.001-1.762-.614-2.346-1.64a6.94 6.94 0 00-.195-.324l-.038-.056a6.576 6.576 0 00-.173-.248 4.4 4.4 0 00-.238-.287c-.015-.011-.024-.025-.036-.037a2.41 2.41 0 00-1.116-.675l.208-.123h.01l.822-.485.844-.492 2.254 1.25.004-.005.006.005 2.254-1.25.843.492zm3.24 3.472c-.185.494-.337 1.03-.337 1.561l.002 3.436c-.705-.12-.788-.894-.79-.927l-.014-.157-.152-.014a1.067 1.067 0 01-.68-.331c-.345-.352-.346-.923-.345-.928-.005.03-.38.565.055 1.15.183.247.45.399.793.458.08.429.394 1.034 1.133 1.127v1.68h-2.08c-.957-.543-.551-1.499-.533-1.54l.081-.181-.183-.071c-1.038-.392-.752-1.447-.738-1.493l.042-.154-.142-.068c-.857-.405-.741-1.495-.73-1.54-.263.218-.358.661-.177 1.097-.098.115-.23.253-.374.405-.888-.23-.915-1.061-.915-1.1l-.002-.128-.117-.046c-.347-.13-.584-.327-.702-.59-.131-.292-.085-.597-.05-.745a3.014 3.014 0 00.605.065h.015c.102 0 .204-.006.304-.016.553-.056 1.172-.298 1.818-.95h4.212zm-2.598 14.97l.232-1.233c.012-.072.027-.157.037-.228.066.028.135.05.21.065.087.017.167.025.24.025.354 0 .56-.19.698-.352l.177-.21-.145-.233a22.581 22.581 0 00-.583-.897 4.91 4.91 0 01-.142-.214c-.282-.43-.634-.968-1.342-.968l-.063.002a1.021 1.021 0 00-.297.062 1.59 1.59 0 00-.69-.16c-.293 0-.538.082-.702.138-.048.015-.09.03-.123.036l-1.321-.133c-.017-.003-.07-.035-.137-.114v-.007l.286-.117c-.08-.97-.994-1.567-1.505-1.77a.55.55 0 00-.148-.273l-.284-.274-.25.305-.122.155-1.851-.774 1.204 1.54-.475.733c-.174.188.018.377.018.377l.491.344.509-.193c.017 0 .033.004.05.006-.025.079-.057.388-.078.474l-.883-.176-.928.533a1.132 1.132 0 00-.365 1.352l.103.229.147.324.324-.137a.038.038 0 00.012-.006c-.117.38-.069.742.139.978l.197.253.262.338.288-.316c.084-.085.36-.4.444-.667l.062-.205-.14-.158-.023-.029.158-.265 1.152.277.26.06.138-.232.075-.126c.015-.027.018-.031.071-.031a.56.56 0 01.126.014c.435.084.836.125 1.192.125.345 0 .552-.013.798-.096 0 0 .619.716.64.744l-.38 1.191-.016.072c-.718.06-1.067.22-1.49.65-.613-.62-1.048-.686-2.696-.686-1.974 0-3.312-1.178-3.312-3.062v-4.603h12.014l.002 4.603c0 1.527-.88 2.592-2.265 2.94zm-7.4-2.604l.063.16c-.042.139-.51.336-.51.336l-.101-.226a.761.761 0 01.242-.895l.76-.472.806.174a.738.738 0 00.137.456l-.844-.166-.505.356c-.086.061-.092.173-.048.277zm7.273 1.302l-.26 1.376a5.05 5.05 0 01-.52.044l.273-1.323c.082-.394-.955-.516-1.467-1.29-.25.287-.72.372-1.194.372-.431 0-.863-.07-1.125-.122a1.217 1.217 0 00-.193-.019c-.151 0-.29.048-.385.21l-.075.13-1.412-.338-.352.592c-.049.097-.053.177.027.267l.095.106c-.065.21-.36.527-.36.527l-.209-.267c-.166-.19-.14-.536.034-.857l.56-.964 1.197.176-.186-.431c-.25-.571.131-1.297.172-1.716-.014.127-.128.155-.26.155-.121 0-.256-.023-.345-.023-.036 0-.066.004-.082.016l-.324.2-.256-.23c-.03-.044-.04-.148.034-.226l.592-.676-.699-.832.979.5.3-.369c.081.083.045.297.045.297.306.008 1.163.49 1.208 1.617.003.035.003.073.003.11l.023.038c.06.085.228.302.44.322l1.353.137h.005c.149 0 .444-.178.823-.178.207 0 .436.054.68.211 0 0 .125-.1.324-.11.015-.002.032-.002.046-.002.607 0 .86.56 1.185 1.024.245.354.573.878.573.878-.121.146-.233.228-.422.228a.854.854 0 01-.174-.018c-.651-.122-.745-1.486-1.117-1.593a.219.219 0 00-.059-.008c-.12 0-.171.108-.171.108.17.465.07.653.253 1.011.136.266.379.484.479.588 0 0-.027.201-.056.352zm-1.246 1.429c-.182 0-.35.003-.5.009l.396-1.258c.062-.175-.252-.399-.381-.595.195.125.701.399.944.508a68.78 68.78 0 00-.46 1.336zm-5.894-11.335l.056-2.187.482-.52.302.646-.596 2.099-.244-.038zm.346.677c.08.168.22.28.32.344a4.02 4.02 0 01-.059.619c-.01.049-.022.093-.035.137l-.02.07c-.148 0-.436-.019-.673-.106-.262-.099-.652-.588-.562-1.128.113-.07.375-.22.621-.22.189 0 .318.09.408.284zm5.579.588c-.37.278-1.325.988-1.671 1.234l-3.332-.61.023-.09a3 3 0 00.09-.7l2.801.046.054-.056c.042-.043.93-.917 1.382-1.419.107.138.241.269.418.384-.06.334-.034.81.235 1.21zm-4.531-5.027c.4.406.792.658 1.165.796-.048.196-.112.6.068 1.003.146.324.412.574.797.74.042.402.291 1.006.98 1.272-.302.31-.596.602-.715.72l-2.794-.045a.503.503 0 01-.22-.208c-.006-.014-.015-.022-.02-.036l.456.075.029.001a.18.18 0 00.179-.154.186.186 0 00-.15-.214l-.562-.09.623-2.19-.59-1.264-.945 1.017-.058 2.278-.635-.103c-.098-.02-.191.053-.209.155-.015.1.052.195.152.213l.266.041a1.97 1.97 0 00-.166.106l-.053.038-.015.068c-.154.639.195 1.245.572 1.517l-.013.08a.364.364 0 00.064.275.35.35 0 00.292.153.36.36 0 00.347-.283c.14.016.269.02.357.02h.075l3.666.675.063-.042c.292-.208 1.406-1.035 1.77-1.309.101.088.214.168.35.234-.12.404-.126 1.026.34 1.517h-9.344v-5.495c0-.532-.152-1.067-.333-1.56h4.21zm-.505-8.29l2.438.843v3.903l-1.795-.964-.643-3.782zm5.949-.47c0-.953-1.574-1.81-3.31-1.81h-.01c-1.737 0-3.31.857-3.31 1.81l.034.233.693 4.056-.696.412-1.802 1.072h.006s-.405.213-.593.343c-.687.486-.832 1.194-.434 1.487.098-.578.546-1.181 1.386-1.181.604 0 1.065.318 1.437.794.096.12.187.249.271.387.104.175.21.328.313.475H21.98c.341.699.665 1.44.665 2.243v10.47c0 2.533 1.913 3.743 3.982 3.743 1.599 0 1.814-.075 2.696.821.878-.896 1.094-.821 2.694-.821 2.07 0 3.98-1.21 3.98-3.744V27.858c0-.804.324-1.544.667-2.243H32.02c.104-.147.209-.3.313-.475a4.32 4.32 0 01.27-.387c.375-.478.835-.794 1.44-.794.838 0 1.286.603 1.385 1.181.399-.293.255-1.001-.435-1.487a7.288 7.288 0 00-.592-.343h.007l-1.805-1.072-.694-.412.694-4.056.034-.234z"/></g></g></svg>