<svg xmlns="http://www.w3.org/2000/svg" viewBox="0 0 40 40"><rect width="1295" height="636.5" x="-398.2" y="-107.85" fill="none" stroke="#ffb3ce" stroke-miterlimit="10" stroke-width="2.82" rx="54.76"/><g data-name="лого игры"><rect width="40" height="40" fill="#84bf00" rx="20"/><path fill="#fff" d="M5 19.05a4.58 4.58 0 013.82-3.35c.71-.15 1.39-.45 2.09-.66A3.52 3.52 0 0115.59 19a33.48 33.48 0 01-.81 3.86 3.54 3.54 0 01-5.66 1.82 25.84 25.84 0 01-3-2.73 9.31 9.31 0 01-1.12-2zm8.59 0a9.59 9.59 0 000-1.2 1.86 1.86 0 00-2.87-1.55 20 20 0 00-2 1.15 1.82 1.82 0 00-.1 3.12 14 14 0 002.28 1.32 1.84 1.84 0 002.67-1.52c0-.47-.01-.92.02-1.37zm9.03-.33l.4-2.41h2c-.32 2.72-.63 5.43-1 8.15h-1.55L22 23.9a1.07 1.07 0 00-.33.07 3.29 3.29 0 01-1.74.58 1.54 1.54 0 01-1.64-1.31 4.68 4.68 0 01.62-3.24 2.58 2.58 0 012.28-1.3c.43-.05.87-.01 1.43.02zm-.22 1.81c-.67-.56-1.26-.53-1.71.13a2.23 2.23 0 00-.33 1.67.77.77 0 001.11.66 1 1 0 00.77-.94c.04-.51.1-1.05.16-1.52zm6.94-1.6h1.88a8.34 8.34 0 010 1c-.14 1.32-.29 2.63-.46 3.94a6.53 6.53 0 01-.2.85 3.11 3.11 0 01-3.15 2.42l-.47-1.31a2.45 2.45 0 001.78-2.44c.07-1.16.27-2.33.42-3.49.03-.31.12-.62.2-.97zm3.34-.01h2L34 24.44h-2c.14-1.82.41-3.6.68-5.52zm-7.46 5.51l.66-5.43h2c-.1 1.82-.38 3.61-.65 5.48zm.78-6.58l.24-1.57h2l-.15 1.57zm3.59-1.57h2c.23.56-.08 1-.16 1.58h-1.84zm5.21 1.59h-1.93l.13-1.59h2z"/></g></svg>