<svg xmlns="http://www.w3.org/2000/svg" width="41" height="40" fill="none"><path fill="#000" fill-rule="evenodd" d="M20.5 40c11.046 0 20-8.954 20-20s-8.954-20-20-20S.5 8.954.5 20s8.954 20 20 20z" clip-rule="evenodd"/><path fill="#fff" fill-rule="evenodd" d="M21.746 21.12c-.145.033-.308.276-.361.396-.173.389-.306.723-.01 1.075l.1.093c.061.052.164.115.235.152.417.217.984.34 1.527.344h.065c.206-.002.408-.02.596-.058a2.053 2.053 0 001.212-.708c.002.102.053.19.096.273.08.157.247.268.41.331a.895.895 0 00.313.056h2.684c.201 0 .334-.04.478-.13.085-.053.142-.129.2-.169.08.053.184.218.455.277.066.014.148.023.224.023h2.667a.94.94 0 00.344-.062c.272-.123.519-.384.519-.704v-.44a.883.883 0 00-.059-.286.879.879 0 00-.393-.417c-.037-.018-.077-.043-.12-.046.047-.07.07-.082.08-.176.003-.034.01-.04.017-.071.052-.233.027-.51-.023-.743-.012-.056-.037-.072-.048-.12.116-.01.287-.17.354-.254.212-.27.166-.552.166-.881a.73.73 0 00-.158-.44.823.823 0 00-.679-.326H29.98a.825.825 0 00-.412.098c-.184.102-.23.2-.285.236a.197.197 0 00-.054-.069l-.07-.06c-.014-.012-.022-.016-.037-.026a.857.857 0 00-.542-.18h-2.66a.794.794 0 00-.636.289.622.622 0 00-.112.205c-.033-.01-.047-.043-.073-.069a1.472 1.472 0 00-.536-.335c-.618-.236-1.587-.274-2.199-.044a2.645 2.645 0 00-.262.116c-.16.08-.307.191-.432.316-.14.14-.102.119-.176.202-.168.188-.314.527-.361.767a1.62 1.62 0 00.005.668c.053.21.134.4.265.57.143.186.33.305.344.327zm-7.844-1.25l.337 1.182h-.683l.346-1.181zm17.102 1.66L31 21.088h1.056c.22 0 .29.021.44-.093.129-.098.124-.263.124-.413 0-.084.008-.173-.014-.25a.421.421 0 00-.1-.165c-.123-.108-.24-.1-.44-.1h-1.062l-.004-.38h1.637a.407.407 0 00.359-.19c.09-.137.063-.304.064-.483 0-.469-.388-.427-.67-.427h-2.183c-.28 0-.67-.042-.669.427v2.739c0 .178-.006.369 0 .546.006.156.12.265.227.318.118.059.363.038.513.038h2.183c.187 0 .335.018.468-.083.13-.099.157-.175.157-.388 0-.253.038-.483-.211-.607a.453.453 0 00-.229-.049h-1.642zm-4.024 0l-.004-.441h1.065c.22 0 .29.021.44-.093.13-.098.124-.263.124-.413 0-.155.008-.307-.114-.415-.123-.108-.24-.1-.441-.1h-1.07l-.004-.38h1.629c.18 0 .291-.082.356-.194.082-.139.057-.304.057-.479.001-.189-.048-.298-.175-.37-.137-.08-.32-.057-.494-.057h-2.174c-.321 0-.652-.038-.652.436v2.721c0 .18-.005.367 0 .546.005.17.102.27.218.327.12.058.357.038.504.038h2.175c.18 0 .345.018.474-.077.127-.094.151-.19.151-.394 0-.172.026-.352-.06-.487-.08-.126-.222-.169-.372-.169H26.98zm-3.888-3.074c-.385.034-.686.111-.987.328-.043.031-.069.058-.107.087-.101.078-.245.279-.324.434-.207.404-.199.808.01 1.208.073.143.264.275.406.35.374.201.822.213 1.21.307.183.044.393.162.298.402-.115.292-.979.018-1.212-.044-.25-.067-.42-.099-.551.094-.08.118-.21.4-.202.554.027.481 1.315.587 1.68.595.685.011 1.217-.19 1.537-.731.091-.155.164-.369.191-.567.07-.521-.13-.85-.422-1.06-.303-.221-.748-.253-1.158-.357-.193-.049-.45-.082-.442-.31.008-.28.307-.26.495-.225.21.038.422.084.634.122.338.063.556.13.671-.363.026-.111.072-.196.03-.321-.056-.173-.25-.253-.436-.322a3.19 3.19 0 00-1.32-.18zM7.5 18.61v.67c0 .047.02.112.038.146.064.129.203.206.367.206h1.057v2.967c0 .206.172.36.396.36h.792c.129 0 .221-.04.29-.106l.072-.095a.3.3 0 00.044-.15v-2.976h1.056c.225 0 .396-.15.396-.361v-.652c0-.215-.175-.37-.396-.37H7.905a.42.42 0 00-.279.1.38.38 0 00-.126.261zm8.936-.088c0 .232.14.394.25.56.103.154.283.437.389.581.105.146.242.375.348.523.039.055.176.272.202.29l-.308.53c-.192.334-.417.737-.615 1.066-.113.19-.423.647-.15.825.065.041.151.063.254.063h.74a.836.836 0 00.259-.04.62.62 0 00.319-.281l.11-.19c.025-.052.422-.728.43-.766.034.009.02.007.04.04.01.019.018.033.03.05l.245.388c.021.037.04.062.062.096.023.035.037.064.061.098.198.277.29.604.821.604h.696c.317 0 .531-.138.4-.47-.03-.078-.076-.137-.122-.203a2.215 2.215 0 01-.045-.07c-.032-.047-.06-.083-.09-.13l-.756-1.093c-.017-.026-.028-.045-.046-.069a1.916 1.916 0 01-.09-.13c-.013-.02-.03-.04-.045-.06-.008-.013-.01-.019-.02-.033a1.147 1.147 0 00-.12-.162l.175-.293c.167-.267.37-.635.528-.88.031-.048.056-.093.087-.143l.088-.15c.093-.14.295-.512.205-.683-.053-.102-.178-.14-.334-.14h-.783c-.238 0-.369.078-.482.284l-.048.083-.184.328c-.032.063-.22.383-.228.422l-.235-.338-.22-.334c-.072-.109-.082-.136-.166-.248-.113-.152-.282-.198-.507-.198h-.766c-.183 0-.379.072-.379.273zm-4.868 4.12c0 .125.051.218.136.261.166.083.659.056.876.056.487 0 .457-.229.56-.549l.083-.296c.229 0 .43.01.66.009.066 0 .093.01.16.01l.5.008.095.267c.13.35.106.551.557.551.22 0 .727.028.894-.056.271-.137.055-.613-.023-.867l-.733-2.33c-.033-.1-.057-.19-.09-.289-.034-.1-.06-.196-.093-.295-.148-.438-.178-.873-.659-.873h-1.189c-.481 0-.508.427-.66.873-.032.097-.057.192-.09.288l-.642 2.043c-.063.19-.123.391-.183.583-.03.099-.063.19-.09.288-.024.083-.07.212-.07.319z" clip-rule="evenodd"/></svg>