<svg xmlns="http://www.w3.org/2000/svg" enable-background="new 0 0 60 60" viewBox="0 0 60 60"><path fill="#f31929" d="M29.7 59.4c16.4 0 29.7-13.3 29.7-29.7S46.1 0 29.7 0 0 13.3 0 29.7s13.3 29.7 29.7 29.7z"/><defs><filter id="haliava__a" width="28" height="34.2" x="16" y="13" filterUnits="userSpaceOnUse"><feColorMatrix values="1 0 0 0 0 0 1 0 0 0 0 0 1 0 0 0 0 0 1 0"/></filter></defs><mask id="haliava__b" width="28" height="34.2" x="16" y="13" maskUnits="userSpaceOnUse"><g filter="url(#haliava__a)"><path fill="#fff" d="M29.7 59.4c16.4 0 29.7-13.3 29.7-29.7S46.1 0 29.7 0 0 13.3 0 29.7s13.3 29.7 29.7 29.7z"/></g></mask><path fill="#fff" d="M32.7 13L30 21.5 27.2 13H16.1l8 17L16 47.2h11.2l2.8-8.4 2.8 8.4H44L35.9 30l8-17H32.7z" mask="url(#haliava__b)"/></svg>