<svg xmlns="http://www.w3.org/2000/svg" width="80" height="80"><g fill="none" fill-rule="evenodd"><path fill="#F3F3F3" d="M40 0c22.091 0 40 17.909 40 39.993v.014C80 62.095 62.096 80 40 80 17.909 80 0 62.096 0 40 0 17.909 17.904 0 40 0z"/><path fill="#90AD59" fill-rule="nonzero" d="M41.936 18.468l-.422-1.12h-3.376a.978.978 0 00-.68-.926V16h-.614v.422a.973.973 0 00-.66.927h-3.377l-.422 1.119h9.55zM65.908 47.22h7.33v.77h-7.33v-.77zM32.881 29.908h13.403l-4.192-11.027h-7.606l-1.605 11.027zm.798-11.027h-1.45l-4.183 11.027h2.064l3.569-11.027z"/><path fill="#242122" fill-rule="nonzero" d="M10.376 33.34c1.973-.037 3.367.99 3.367 2.632 0 1.487-1.137 2.147-1.77 2.377 1.678.183 2.88 1.385 2.88 3.146 0 1.487-.816 3.652-4.908 3.652H5.872c.77-.532.77-1.202.77-1.68v-8.375c0-.468 0-1.138-.77-1.68l4.504-.073zM8.35 38.1l.917.02c1.762.036 2.56-.909 2.56-1.872 0-.89-.633-1.66-2.156-1.66-.349 0-.936.045-1.321.1v3.413zm0 5.652c.45.065 1.119.147 1.743.147 2.56 0 2.825-1.578 2.825-2.293 0-.973-.568-2.432-3.183-2.432-.138 0-.468 0-1.385.065v4.513zm9.192-7.165a8.665 8.665 0 011.523-.147c2.78 0 3.046 1.771 3.046 2.881v3.266c0 .973.532 1.156 1.202 1.193h.321l-.807 1.12h-.248c-.532 0-2.064-.038-2.064-1.872v-2.634c-.523.35-.936.404-1.77.606-.753.183-1.689.45-1.689 1.477 0 .367.147 1.404 1.688 1.404.45 0 .954-.064 1.459-.22l-1.074 1.33c-.348.1-.706.147-1.073.147-1.624 0-2.716-1.092-2.716-2.643 0-1.807 1.588-2.146 2.844-2.43 1.44-.34 2.257-.469 2.257-1.304 0-.65-.532-1.055-1.54-1.055-.35 0-1.405.046-2.432.624l1.073-1.743z"/><path fill="#242122" fill-rule="nonzero" d="M26.633 36.77l2.413 5.56 2.027-4.752a3.5 3.5 0 00.248-.807h2.817a1.27 1.27 0 00-.588 1.174l.367 5.78c.037.431.12.835.606 1.174h-2.798c.55-.385.587-.835.569-1.174l-.303-5.597-3.028 7.019-.32-.285c-.368-.32-.45-.587-.625-.972l-2.458-5.762-.422 5.597c-.019.32.036.807.568 1.174h-2.348c.385-.248.605-.807.633-1.174l.468-5.78c.046-.569-.285-.954-.587-1.174h2.761zm22.34-.76c-.312-.212-1.514-1.038-3.22-1.038-2.13 0-4.258 1.413-4.258 4.193 0 2.376 1.367 4.908 4.652 4.908 2.247 0 3.33-.798 3.825-1.201l-1.11 2.174c-.963.312-1.77.404-2.844.404-4.88 0-6.394-3.33-6.394-5.854 0-3.119 2.21-6.018 6.321-6.018.99 0 1.578.147 2.11.257.321.082.55.128.908.174v2h.01zm5.77 1.008c1.523-.018 2.505.799 2.505 1.954 0 1.092-.936 1.643-1.798 1.744v.055c1.367-.019 2.403.862 2.403 2.165 0 1.018-.605 2.523-3.679 2.523H50.46c.504-.349.605-.762.605-1.211v-5.964c0-.45-.1-.862-.605-1.21l4.284-.056zm-2.037 3.386l.881.018c1.404.037 1.863-.66 1.863-1.266 0-1.11-1.211-1.11-1.487-1.11-.43 0-.844.037-1.266.082v2.276h.01zm0 3.89c.395.055.936.119 1.468.119 1.716 0 1.881-1.055 1.881-1.486 0-.66-.349-1.57-2.147-1.57-.394 0-1.018.056-1.21.074v2.863h.008zm7.56-3.395c-.083 1.77 1.018 3.284 3.55 3.284 1.294 0 2.312-.284 3.312-.834l-1.1 1.743c-.909.284-1.661.367-2.56.367-2.945 0-4.936-1.578-4.936-4.404 0-2.477 1.688-4.303 4.45-4.303 3.146 0 4.082 2.376 4.036 4.156h-6.752V40.9zm4.844-1.092c-.1-1.091-.954-1.789-2.21-1.789-1.276 0-2.23.707-2.46 1.79h4.67zm6.56 4.422c0 .45.1.872.614 1.22h-2.88c.504-.348.614-.77.614-1.22v-6.018H68.67c-.56 0-1.12.083-1.587.66l.56-2.027c.33.156.54.138.797.138h5.422c.248 0 .487-.019.835-.138l-.422 1.936c-.312-.597-.908-.578-1.156-.578h-1.468v6.027h.019z"/><path fill="#90AD59" fill-rule="nonzero" d="M5 47.23h69.927v.898H5v-.899zM36.817 32.1v.478a.732.732 0 00-.395.651c0 .285.165.532.395.652v1.422h.697V33.89a.732.732 0 00.394-.651.739.739 0 00-.394-.652v-.477a.969.969 0 00.624-.908h8.623l-.33-.863h-18.55l-.33.863h8.623c.01.404.276.752.643.899z"/><path fill="#90AD59" d="M38.138 47.22c-.037-.266-.285-.486-.624-.578v-.403a.732.732 0 00.394-.652.739.739 0 00-.394-.651v-9.817h-.697v9.817a.732.732 0 00-.395.651c0 .285.165.532.395.652v.403c-.34.092-.588.312-.624.578H6.119v.77h62.945v-.77H38.138z"/></g></svg>