<svg xmlns="http://www.w3.org/2000/svg" width="41" height="40" fill="none"><path fill="#252B2E" fill-rule="evenodd" d="M20 40c11.046 0 20-8.954 20-20S31.046 0 20 0 0 8.954 0 20s8.954 20 20 20z" clip-rule="evenodd"/><path fill="#fff" fill-rule="evenodd" d="M27.375 22.06l.166.559h.84l-1.135-3.586h-.977l-1.135 3.586h.84l.159-.56h1.242zm-.621-2.086l.394 1.314h-.788l.394-1.314zm1.703 1.866l.66-.406c.12.3.325.495.703.495.364 0 .455-.154.455-.292 0-.219-.19-.308-.697-.454-.5-.146-.984-.406-.984-1.087 0-.69.545-1.087 1.12-1.087.553 0 .977.284 1.227.811l-.644.406c-.113-.26-.272-.414-.575-.414-.242 0-.356.13-.356.268 0 .162.083.276.606.446.507.162 1.075.357 1.075 1.111 0 .69-.515 1.104-1.242 1.104-.704-.017-1.158-.374-1.348-.901zm5.535-2.799v3.586h-.764v-1.428h-1.053v1.42h-.764V19.04h.764v1.371h1.053v-1.37h.764zm-13.182 0h.803l.576 2.507.643-2.507h.62l.644 2.507.576-2.507h.803l-.924 3.586h-.87l-.546-2.118-.545 2.118h-.871l-.909-3.586zm-2.135 2.767l-.174.17.545.633h-.795l-.227-.252c-.364.227-.697.34-1.007.34a.867.867 0 01-.636-.25.868.868 0 01-.242-.633c0-.195.045-.382.136-.552.098-.17.25-.349.477-.535-.22-.317-.333-.6-.333-.844 0-.179.068-.357.22-.536.15-.178.355-.267.62-.267.273 0 .477.08.621.26.144.17.22.348.22.527 0 .146-.03.275-.099.405-.06.13-.22.317-.454.568l.098.122c.223.278.366.457.44.535l.027-.024c.06-.054.179-.16.351-.317l.386.48-.174.17zm-1.408-2.094c-.06 0-.114.017-.152.065a.23.23 0 00-.06.154c0 .122.053.26.166.414.174-.162.258-.3.258-.422a.216.216 0 00-.06-.154.198.198 0 00-.152-.057zm-.417 2.256a.36.36 0 00.242.089c.137 0 .31-.065.523-.187a8.647 8.647 0 01-.507-.632c-.235.202-.349.38-.349.535 0 .065.03.138.091.195zm-8.412-1.663c0 .673-.515 1.225-1.174 1.225h-.5v1.135H6v-3.585h1.264c.66 0 1.174.543 1.174 1.225zm-.765 0c0-.26-.174-.463-.409-.463h-.5v.925h.5c.235 0 .41-.203.41-.462zm5.588 2.352V21.28l1.128-2.207h-.87l-.636 1.38-.636-1.38h-.871l1.12 2.207v1.38h.765zm-2.665-.568H9.354l-.166.568h-.84l1.135-3.594h.984l1.136 3.586h-.84l-.167-.56zm-.227-.77l-.394-1.315-.394 1.315h.788z" clip-rule="evenodd"/><path fill="#00B8CB" d="M24.664 19.041l-.833 3.586h.758l.924-3.586h-.849z"/><path fill="#FF8500" d="M33.22 19.032l-.007 3.602H34v-3.602h-.78z"/><path fill="#89BE5A" d="M9.483 19.065L8.34 22.66h.848l1.075-3.594h-.78z"/></svg>