<svg xmlns="http://www.w3.org/2000/svg" viewBox="0 0 60 60"><circle cx="30" cy="30" r="29.7" fill="#ee6200"/><path fill="#fff" d="M24.2 31H7.7c-1 0-1.6-1-1.3-1.9l4.7-11.6c.4-.9 1.5-1.1 2.2-.5l11.8 11.6c.9.9.3 2.4-.9 2.4zm2.4-3.8L14.9 15.6c-.7-.7-.5-1.8.4-2.2l11.5-4.9c.9-.4 1.9.3 1.9 1.2l.1 16.5c.1 1.3-1.4 1.9-2.2 1zm8.8 3.8h16.9c1 0 1.7-1 1.3-1.9l-4.8-11.6c-.4-.9-1.6-1.1-2.3-.5L34.4 28.7c-.9.8-.3 2.3 1 2.3zm-2.5-3.8l12-11.7c.7-.7.5-1.8-.4-2.2L32.6 8.5c-.9-.4-1.9.3-1.9 1.2l-.1 16.5c-.1 1.3 1.4 1.9 2.3 1z"/></svg>