<svg xmlns="http://www.w3.org/2000/svg" width="40" height="40" fill="none"><path fill="#E3EDD4" fill-rule="evenodd" d="M20 40c11.046 0 20-8.954 20-20S31.046 0 20 0 0 8.954 0 20s8.954 20 20 20z" clip-rule="evenodd"/><path fill="#0E3630" d="M6.799 20.42a2.045 2.045 0 00-.911-.24c-.195 0-.53.086-.53.336 0 .336.53.384.762.431.79.163 1.384.547 1.384 1.458 0 1.295-1.143 1.832-2.248 1.832a3.606 3.606 0 01-1.923-.566l.613-1.218c.344.249.92.499 1.338.499.214 0 .53-.106.53-.374 0-.384-.53-.403-1.059-.547-.53-.144-1.059-.412-1.059-1.295 0-1.208 1.059-1.745 2.1-1.745.539 0 1.078.086 1.57.316l-.567 1.113zm2.699-.652h.017c.371-.547.829-.777 1.398-.777.639 0 1.191.288 1.51.94.302-.614.897-.94 1.502-.94 1.122 0 1.51.815 1.51 1.947v3.136h-1.571v-2.35c0-.508.017-1.343-.647-1.343-.725 0-.751.758-.751 1.343v2.35h-1.571v-2.35c0-.547 0-1.381-.699-1.381s-.699.834-.699 1.381v2.35H7.926v-4.92h1.571v.614zm11.878 4.306h-1.249l-.442-.547h-.019c-.297.489-.883.71-1.44.71-1.412 0-2.406-1.218-2.406-2.628 0-1.41.976-2.618 2.388-2.618.548 0 1.124.211 1.477.643v-.48h1.691v4.92zm-3.809-2.455c0 .623.399 1.103 1.087 1.103s1.087-.48 1.087-1.103c0-.604-.399-1.113-1.087-1.113s-1.087.508-1.087 1.113zm6.214-1.659h.018c.325-.604.819-.872 1.478-.872l.389.149v1.529c-.232-.134-.455-.163-.715-.163-.938 0-1.171.643-1.171 1.486v1.985h-1.691v-4.92h1.246l.445.806zm4.614 4.114h-1.691v-6.397h1.691v1.477l1.938.003-.419 1.435h-1.519v3.481zm-3.149-2.684a1.15 1.15 0 100-2.301 1.15 1.15 0 000 2.301z"/><path fill="#8DC13F" d="M36.667 17.677l-3.728 1.519-3.728-1.519v-4.485c1.522-.877 5.482-.967 7.455 0v4.485zm-10.118-3.685a6.28 6.28 0 00-4.47 1.851 6.311 6.311 0 00-1.502 2.386h-1.096a7.37 7.37 0 018.826-5.071v1.08a6.367 6.367 0 00-1.759-.247zm6.318 6.108l.004.213c0 1.688-.657 3.276-1.851 4.47s-2.781 1.852-4.47 1.852a6.276 6.276 0 01-4.405-1.788h-1.401a7.366 7.366 0 0013.145-5.163l-1.022.416z"/><path fill="#fff" d="M31.55 17.347h-.755v-3.73h.755v3.73zm.648 0v-3.73h1.545c.571 0 1.03.18 1.376.54.346.36.519.804.519 1.332s-.178.97-.534 1.325c-.356.355-.866.533-1.529.533h-1.376zm.777-.549h.63c.338 0 .624-.113.86-.339.236-.226.353-.562.353-1.008 0-.364-.103-.673-.309-.925a1 1 0 00-.815-.378h-.719v2.651z"/></svg>