<svg xmlns="http://www.w3.org/2000/svg" xmlns:xlink="http://www.w3.org/1999/xlink" width="60" height="60"><defs><path id="sansim__a" d="M30 60c16.569 0 30-13.431 30-30C60 13.431 46.569 0 30 0 13.431 0 0 13.431 0 30c0 16.569 13.431 30 30 30z"/><path id="sansim__b" d="M31.387 21.579V.269H0v21.31h31.387z"/><path id="sansim__d" d="M25.2.065H.064v14.28h25.134V.066z"/><path id="sansim__f" d="M.27 5.756h11.8V.38H.27z"/></defs><g fill="none" fill-rule="evenodd"><use fill="#E0BC03" xlink:href="#sansim__a"/><g transform="translate(14 19.841)"><mask id="sansim__c" fill="#fff"><use xlink:href="#sansim__b"/></mask><path fill="#FFF" d="M25.4 21.574c1.117-1.215 1.587-2.65 1.614-4.226.031-1.819-.433-3.519-1.546-4.978-1.792-2.349-4.813-3.582-8.154-2.233a20.18 20.18 0 00-3.175 1.622c-.624.39-1.244.79-1.87 1.177-.605.374-1.196.777-1.808 1.142-1.337.797-2.72 1.492-4.267 1.796-.94.184-1.885.19-2.815-.056-1.771-.47-2.688-1.735-3.115-3.424-.282-1.117-.31-2.254-.214-3.4.097-1.153.32-2.276.706-3.366A.863.863 0 01.948 5.3l-.082.62c-.123.95.098 1.815.572 2.645.48.843 1.232 1.34 2.091 1.652.884.319 1.78.158 2.63-.228C7.145 9.542 8 8.902 8.826 8.215c2.06-1.712 3.94-3.633 6.133-5.188 1.56-1.108 3.218-2.02 5.1-2.461C21.156.307 22.27.194 23.397.32c1.521.172 2.966.56 4.231 1.47 1.127.81 1.978 1.844 2.603 3.081.42.83.735 1.695.901 2.603.132.72.18 1.453.228 2.188.126 1.9-.213 3.716-.852 5.482-.93 2.573-2.447 4.723-4.735 6.285-.078.053-.16.1-.243.143-.025.012-.06.001-.13.001" mask="url(#sansim__c)"/></g><g transform="translate(15.572 14.01)"><mask id="sansim__e" fill="#fff"><use xlink:href="#sansim__d"/></mask><path fill="#FFF" d="M25.2 5.06c-.743-.259-1.442-.477-2.163-.62-1.636-.324-3.257-.263-4.878.117-1.369.321-2.63.905-3.83 1.604-1.114.648-2.14 1.434-3.144 2.245-.694.56-1.334 1.177-2.004 1.762-.865.754-1.69 1.555-2.571 2.288-.83.691-1.665 1.379-2.719 1.748-.75.263-1.417.144-2.08-.224C.702 13.364.166 12.385.08 11.156c-.121-1.74.493-3.283 1.417-4.71C3.004 4.113 5.09 2.462 7.63 1.35 9.603.49 11.667.046 13.81.065c4.356.038 8.107 1.556 11.164 4.694.058.061.116.123.172.185.013.015.017.037.053.116" mask="url(#sansim__e)"/></g><path fill="#FFF" d="M14.983 35.34c.054.084.086.125.107.169.63 1.278 1.709 1.861 3.077 2.066 1.929.288 3.653-.273 5.314-1.163 1.54-.824 2.973-1.823 4.452-2.748 1.365-.853 2.748-1.673 4.321-2.102.937-.256 1.89-.346 2.836-.092 1.464.393 2.63 1.213 3.448 2.509.924 1.462 1.102 3.045.73 4.695-.346 1.541-1.104 2.857-2.342 3.871a5.146 5.146 0 01-2.624 1.141c-.355.047-.364.03-.238-.297.38-.983.47-1.976.059-2.97-.614-1.484-2.162-2.224-3.858-1.867-.985.207-1.894.613-2.807 1.02-1.143.508-2.259 1.082-3.457 1.46-1.416.445-2.84.618-4.257.019-2.446-1.036-4.05-2.82-4.754-5.39a1.946 1.946 0 01-.045-.215c-.002-.018.013-.039.038-.106"/><g transform="translate(20.594 39.578)"><mask id="sansim__g" fill="#fff"><use xlink:href="#sansim__f"/></mask><path fill="#FFF" d="M.27 3.395c.518-.045 1.017.042 1.524-.01 1.07-.11 2.075-.435 3.038-.89C5.855 2.008 6.858 1.48 7.88.986c.624-.3 1.263-.569 1.973-.604.706-.036 1.237.264 1.635.826 1.007 1.424.689 2.923-.813 3.806-.854.502-1.799.7-2.774.735C5.337 5.844 3.026 5.027.85 3.75c-.195-.115-.386-.237-.58-.355" mask="url(#sansim__g)"/></g></g></svg>