<svg xmlns="http://www.w3.org/2000/svg" width="80" height="80"><defs><linearGradient id="level-travel__a" x1="50%" x2="50%" y1="0%" y2="100%"><stop offset="0%" stop-color="#00D7FF"/><stop offset="100%" stop-color="#3FA9F5"/></linearGradient></defs><g fill="none" fill-rule="evenodd"><path fill="url(#level-travel__a)" d="M79.37 39.881c0 21.864-17.724 39.589-39.588 39.589-21.865 0-39.59-17.725-39.59-39.59C.192 18.016 17.917.29 39.782.29c21.864 0 39.589 17.726 39.589 39.59"/><path fill="#FCEE21" d="M39.782 16.128c-11.711 0-21.206 9.494-21.206 21.206 0 1.376.12 2.197.12 2.197.144 1.004 1.093 1.826 2.108 1.826H58.76c1.015 0 1.964-.822 2.11-1.826 0 0 .118-.821.118-2.197 0-11.712-9.494-21.206-21.206-21.206"/><path fill="#FFF" d="M70.041 46.892c0 1.117-.996 2.03-2.214 2.03H11.552c-1.217 0-2.214-.913-2.214-2.03 0-1.116.997-2.03 2.214-2.03h56.275c1.218 0 2.214.914 2.214 2.03m-8.303 7.75c0 1.116-.996 2.029-2.214 2.029H19.855c-1.218 0-2.214-.913-2.214-2.03 0-1.116.996-2.03 2.214-2.03h39.669c1.218 0 2.214.914 2.214 2.03m-9.963 7.75c0 1.116-.997 2.03-2.214 2.03H29.818c-1.217 0-2.213-.914-2.213-2.03 0-1.116.996-2.03 2.213-2.03h19.743c1.217 0 2.214.914 2.214 2.03"/></g></svg>