<svg xmlns="http://www.w3.org/2000/svg" xmlns:xlink="http://www.w3.org/1999/xlink" width="40" height="40"><defs><path id="fifa-19__a" d="M.765.265H6v7.734H.765z"/><path id="fifa-19__c" d="M0 .166h4.955v7.808H0z"/><path id="fifa-19__e" d="M0 8.5h28v-8H0z"/></defs><g fill="none" fill-rule="evenodd" transform="translate(-242 -114)"><rect width="40" height="40" x="242" y="114" fill="#A82522" fill-rule="nonzero" rx="20" transform="rotate(90 262 134)"/><g transform="translate(248 129)"><path fill="#FFF" d="M14.826 8.5h-1.81c-.004-.078-.015-.158-.015-.239 0-2.001-.003-4.002 0-6.003.002-.879.44-1.497 1.198-1.708a1.37 1.37 0 01.36-.044c.654-.004 1.31-.013 1.965.003.78.02 1.461.71 1.467 1.521.015 2.11.007 4.222.008 6.332 0 .04-.01.082-.018.138h-1.784V5.794h-1.013V4.207h1c0-.605.013-1.184-.007-1.76-.01-.255-.23-.37-.567-.384-.55-.02-.667.048-.775.371-.024.077-.009.167-.009.251V8.5z"/><g transform="translate(22 .5)"><mask id="fifa-19__b" fill="#fff"><use xlink:href="#fifa-19__a"/></mask><path fill="#FFF" d="M2.735 2.85c0 .197.003.395 0 .592-.003.233.118.371.352.414.503.093.896 0 .98-.234.026-.067.023-.146.024-.22.004-.237-.007-.475.004-.712.037-.864-.094-.837-.932-.828-.017 0-.034 0-.052.002-.232.04-.373.158-.376.396v.59M4.167 8H2.251l1.153-2.64c-.33 0-.618.004-.906 0C1.664 5.351 1.01 4.887.81 4.162a1.16 1.16 0 01-.041-.315c-.003-.69-.006-1.38 0-2.067C.776.99 1.486.292 2.31.276A52.46 52.46 0 014.43.275c.83.015 1.554.722 1.562 1.516.008.657.014 1.315-.006 1.97a1.582 1.582 0 01-.145.593C5.308 5.552 4.76 6.746 4.216 7.94c-.01.022-.031.039-.049.058" mask="url(#fifa-19__b)"/></g><path fill="#FFF" d="M13 .52v1.545h-2.471c-.402.002-.568.164-.57.55-.004.352-.002.703-.002 1.088h2.225v1.59H9.957V8.5H8.014c-.006-.083-.013-.149-.013-.216 0-2.025-.003-4.052.001-6.078.001-.831.507-1.469 1.309-1.664.117-.028.24-.038.36-.039a822.55 822.55 0 013.142-.002c.058 0 .116.011.187.018"/><g transform="translate(0 .5)"><mask id="fifa-19__d" fill="#fff"><use xlink:href="#fifa-19__c"/></mask><path fill="#FFF" d="M0 7.974V1.8C.001.881.705.183 1.661.172 2.712.16 3.763.168 4.815.168c.04 0 .082.007.14.012v1.514h-.269c-.723 0-1.447-.001-2.17.001-.412.001-.581.161-.585.552-.004.335-.001.671-.001 1.04h2.216v1.562h-2.21v3.125H0z" mask="url(#fifa-19__d)"/></g><path fill="#FFF" d="M21.977 8.5H20.14V2.697c0-.478-.133-.615-.592-.616H19V.5h.735c.25 0 .502-.004.753.004a1.583 1.583 0 011.504 1.549c.014 2.117.005 4.235.005 6.353 0 .025-.01.048-.02.093"/><mask id="fifa-19__f" fill="#fff"><use xlink:href="#fifa-19__e"/></mask><path fill="#FFF" d="M5 8.5h2v-8H5z" mask="url(#fifa-19__f)"/></g></g></svg>