<svg xmlns="http://www.w3.org/2000/svg" width="40" height="40"><g fill="none" fill-rule="evenodd"><circle cx="20" cy="20" r="20" fill="#FFF"/><path fill="#000" fill-rule="nonzero" d="M11.637 20.122c0 .399-.067.764-.22 1.113a2.622 2.622 0 01-.59.88c-.253.25-.54.433-.895.582-.354.15-.708.216-1.113.216s-.777-.066-1.114-.216a2.67 2.67 0 01-.895-.581 2.71 2.71 0 01-.59-.88A2.978 2.978 0 016 20.121c0-.398.068-.764.22-1.113.134-.332.337-.631.59-.88.253-.25.54-.432.895-.582a3.019 3.019 0 011.114-.216c.405 0 .776.067 1.113.216a2.658 2.658 0 011.485 1.462c.153.332.22.698.22 1.113zm12.878 2.775c-.405 0-.76-.067-1.013-.216a1.628 1.628 0 01-.624-.532 1.876 1.876 0 01-.321-.698 3.576 3.576 0 01-.084-.714v-3.323c0-.033.033-.066.067-.066h.422c.034 0 .068.033.068.066v3.257c0 .215.016.431.084.63.05.2.135.383.253.55.118.165.27.282.456.381.185.1.422.15.709.15s.506-.05.709-.15c.202-.1.337-.232.455-.382a1.63 1.63 0 00.253-.548c.051-.2.085-.416.085-.631v-3.257c0-.033.034-.066.067-.066h.422c.034 0 .068.033.068.066v3.306a3.7 3.7 0 01-.085.715c-.05.249-.168.482-.32.698-.152.215-.372.382-.625.531a2.3 2.3 0 01-1.046.233zm8.928-4.635c-.034-.034-.05-.067-.084-.084a1.84 1.84 0 00-.287-.215c-.186-.1-.405-.15-.658-.15-.136 0-.27.017-.406.066-.135.05-.253.1-.37.183a.825.825 0 00-.27.316.863.863 0 00-.102.432.8.8 0 00.101.415c.068.116.152.2.253.283.102.083.237.132.372.182.135.05.286.1.438.15.186.066.372.116.557.2.186.066.355.165.507.265.152.116.27.25.371.415.101.166.135.382.135.648s-.05.482-.152.681a1.359 1.359 0 01-.405.466 2.188 2.188 0 01-.557.282 2.02 2.02 0 01-.624.083 2.39 2.39 0 01-.49-.05 1.827 1.827 0 01-.456-.15 1.648 1.648 0 01-.405-.248 3 3 0 01-.236-.216c-.067-.083-.118-.1.017-.2.118-.083.101-.083.236-.166.135-.1.135-.05.22.033.1.133.236.25.388.35.202.132.456.182.742.182.136 0 .27-.017.422-.067.135-.033.27-.1.372-.199.118-.083.202-.2.287-.316a.93.93 0 00.1-.448.885.885 0 00-.1-.449.972.972 0 00-.287-.299 1.411 1.411 0 00-.422-.2c-.152-.049-.32-.115-.49-.165a6.53 6.53 0 01-.523-.183 2.038 2.038 0 01-.456-.266 1.11 1.11 0 01-.32-.415c-.085-.166-.118-.366-.118-.598 0-.25.05-.465.152-.648.1-.183.236-.332.405-.449.168-.116.354-.199.557-.265a2.53 2.53 0 01.59-.084c.355 0 .675.067.929.183.118.05.202.116.303.183.051.05.051.033.17.133.117.116.117.15 0 .232-.102.083-.068.067-.187.15-.151.083-.202.033-.219.017zm-14.59 1.565a.467.467 0 01-.46-.451c0-.241.215-.452.46-.452.244 0 .458.211.458.452 0 .24-.214.451-.459.451zm-3.673 0a.467.467 0 01-.459-.451c0-.241.215-.452.46-.452.244 0 .458.211.458.452 0 .24-.214.451-.459.451zm1.591-1.798c-1.603-.15-2.818-1.263-2.666-1.362l.05.016c.152.017.54.748 3.004.748 2.448 0 2.853-.731 3.005-.748h.017c.135.083-1.064 1.213-2.684 1.363h-.017c-.017.016-.05.033-.05.05v1.445c0 .482-.574 1.146-.574 1.146V18.08s0-.017-.017-.033c-.017-.017-.05-.017-.05-.017h-.018zm2.407 5.508c-.123 0-.196-.394-.196-.697 0-.303.073-.303.196-.303.123 0 .196.03.196.303 0 .272-.073.697-.196.697zm-.54 0c-.122 0-.196-.394-.196-.697 0-.303.074-.303.196-.303.123 0 .197.03.197.303 0 .272-.074.697-.197.697zm-.54 0c-.122 0-.195-.394-.195-.697 0-.303.073-.303.196-.303.122 0 .196.03.196.303 0 .272-.049.697-.196.697zm-2.101 0c-.123 0-.196-.394-.196-.697 0-.303.073-.303.196-.303.122 0 .196.03.196.303 0 .272-.074.697-.196.697zm-.54 0c-.122 0-.196-.394-.196-.697 0-.303.074-.303.196-.303.123 0 .196.03.196.303 0 .272-.073.697-.196.697zm-.54 0c-.122 0-.196-.394-.196-.697 0-.303.074-.303.197-.303.122 0 .196.03.196.303 0 .272-.074.697-.196.697zm-3.854-3.415c0-.315-.05-.598-.152-.88a2.294 2.294 0 00-.438-.731 1.816 1.816 0 00-.71-.499 2.368 2.368 0 00-.928-.182c-.337 0-.658.05-.928.166s-.506.299-.709.498a2.294 2.294 0 00-.439.731 2.543 2.543 0 00-.151.88c0 .316.05.599.151.881.102.283.254.515.44.731.185.216.421.382.708.499.27.116.59.182.928.182.338 0 .659-.066.929-.182.27-.117.506-.3.709-.499.185-.216.337-.448.438-.73a2.45 2.45 0 00.152-.865z"/></g></svg>