<svg xmlns="http://www.w3.org/2000/svg" xmlns:xlink="http://www.w3.org/1999/xlink" width="60" height="60"><defs><path id="appolo__a" d="M29.703 59.405c16.404 0 29.702-13.298 29.702-29.702C59.405 13.298 46.107 0 29.703 0 13.298 0 0 13.298 0 29.703c0 16.404 13.298 29.702 29.703 29.702z"/><path id="appolo__c" d="M31.973 38.49V.11H0v38.38z"/></defs><g fill="none" fill-rule="evenodd"><mask id="appolo__b" fill="#fff"><use xlink:href="#appolo__a"/></mask><use fill="#BA2264" xlink:href="#appolo__a"/><g mask="url(#appolo__b)"><g transform="translate(14 11.03)"><mask id="appolo__d" fill="#fff"><use xlink:href="#appolo__c"/></mask><path fill="#F7F7F7" d="M12.91 17.699c.294-.14.489-.215.667-.32.403-.237.8-.487 1.196-.734.815-.508 1.633-1.01 2.441-1.528.416-.266.575-.7.277-1.07-.183-.227-.736-.448-.93-.34a65.209 65.209 0 00-4.115 2.549c-.186.124-.275.601-.194.846.082.246.432.405.659.597m7.567 20.79L15.98 27.004l-2.234.742c-.276-.825-.537-1.613-.803-2.4-.797-2.355-1.648-4.693-2.38-7.067-.991-3.213-3.341-4.774-6.512-5.327-1.129-.197-2.296-.196-3.447-.227-.394-.01-.591-.108-.593-.483-.01-1.948-.02-3.897 0-5.845.002-.187.174-.442.343-.55C4.575 3.186 9.018 1.067 14.039.31c7.797-1.176 14.56 2.94 16.981 10.344 1.317 4.025 1.229 8.02-.016 12.052-1.554 5.03-3.888 9.608-7.644 13.403-.656.663-1.4 1.242-2.114 1.848-.212.18-.457.32-.768.533" mask="url(#appolo__d)"/></g><path fill="#F7F7F7" d="M14.479 26.36c2.862-.821 6.575-.414 8.189 2.367.669 1.153 1.051 2.476 1.494 3.746.843 2.414 1.634 4.844 2.45 7.267.057.17.141.333.228.534l2.2-.742 4.15 10.427c-5.02-2.3-9.27-5.278-12.625-9.426-3.359-4.153-5.242-8.92-6.086-14.172" opacity=".637"/><path fill="#BA2264" d="M26.91 28.728c-.226-.192-.576-.351-.658-.597-.08-.244.008-.721.194-.846a65.209 65.209 0 014.115-2.548c.194-.109.747.113.93.34.298.369.14.803-.277 1.07-.808.518-1.626 1.02-2.44 1.527-.398.247-.794.497-1.197.734-.178.105-.373.181-.666.32"/></g></g></svg>