<svg xmlns="http://www.w3.org/2000/svg" width="41" height="40" fill="none"><circle cx="20.5" cy="20" r="20" fill="#FBAF33"/><path fill="#fff" d="M10.169 19.43h3.346v1.14h-3.346v-1.14zm13.245 1.14h-4.55v1.14h4.55v-1.14zm-4.55-1.14h4.55v-1.14h-4.55v1.14zm12.33-2.28h-3.848l-.042.575.032.575h4.657l-.8-1.15zm1.95 2.855l-.416-.575h-5.53l-.033.575.032.576h5.53l.416-.576zm-1.95 2.856l.799-1.14h-4.657l-.032.575.032.565h3.857z"/><path fill="#231F20" d="M27.336 22.86h-3.964v-5.71h3.964v1.14H24.64v1.14h2.557v1.14H24.64v1.14h2.696v1.15zm-9.537-5.71l-1.61 2.077-1.608-2.078h-1.109v5.712h1.268v-3.645l1.45 1.876 1.449-1.876v3.645h1.268v-5.712h-1.108zM33.1 20.004l-1.918 2.856h1.492l1.161-1.886 1.172 1.886H36.5l-1.907-2.856 1.907-2.856h-1.481l-1.172 1.897-1.172-1.897h-1.482l1.908 2.856zM8.75 19.43c-.02-.555-.362-1.3-1.353-1.3-.99 0-1.374.799-1.427 1.3h2.78zm1.45.554c0 .351-.032.586-.032.586H5.971c.053.65.522 1.29 1.427 1.29.416 0 .768-.16 1.023-.491h1.482c-.214.66-1.14 1.641-2.505 1.641-1.694 0-2.898-1.15-2.898-2.973C4.5 18.151 5.779 17 7.43 17c1.226 0 2.771.757 2.771 2.984z"/></svg>