<svg xmlns="http://www.w3.org/2000/svg" width="60" height="60"><g fill="none" fill-rule="evenodd"><path fill="#4168AF" d="M29.703 59.405c16.404 0 29.702-13.298 29.702-29.702C59.405 13.298 46.107 0 29.703 0 13.298 0 0 13.298 0 29.703c0 16.404 13.298 29.702 29.703 29.702z"/><path fill="#FFF" d="M30.607 32.825c.024-.736-.132-1.401-.863-1.753-.753-.363-1.493-.319-2.2.172-.91.631-1.144 1.594-1.278 2.582-.142 1.046.363 1.867 1.23 2.15.996.326 1.928.004 2.498-.877.448-.692.59-1.469.613-2.274m-12.305 1.032c-.092-2.552.743-4.86 2.206-6.878 1.374-1.898 3.089-3.416 5.544-4 1.429-.34 2.836-.697 4.3-.706 5.977-.038 10.037 4.493 10.31 9.844.074 1.472-.12 2.89-.788 4.257-1.501 3.068-5.831 3.849-8.223 1.422-.348-.353-.546-.312-.863.032-1.27 1.377-2.876 1.555-4.556 1.035-1.644-.51-2.404-1.788-2.573-3.432-.165-1.62.085-3.193.802-4.651 1.159-2.355 3.998-3.507 6.516-2.712 1.878.593 2.97 2.55 2.5 4.482-.277 1.14-.02 2.114.65 2.47 1.032.549 2.137.156 2.639-.951.35-.773.4-1.595.321-2.421-.404-4.248-4.178-6.814-8.505-6.07-1.614.278-3.069.7-4.286 1.78-2 1.772-2.834 4.094-3.064 6.663-.122 1.357.049 2.681.583 3.97 1.595 3.849 5.16 5.484 9.126 4.136.737-.25 1.428-.6 2.111-.972.892-.486 1.47-.306 2.099.604.633.918.579 1.348-.215 2.062-1.773 1.593-3.921 1.992-6.21 1.925-6.109-.177-10.112-4.184-10.42-10.425-.025-.487-.004-.976-.004-1.464m21.633-16.896c.185 2.712-1.737 4.258-4.336 3.69-.427-.094-.842-.257-1.252-.412-2.931-1.112-2.638-3.852-1.35-5.73.602-.88 1.137-1.808 2.186-2.316 1.286-.623 2.252-.517 3.185.574 1.081 1.262 1.58 2.747 1.567 4.194m-15.647 3.725a4.624 4.624 0 01-1.827-.29c-1.612-.587-2.357-1.782-2.177-3.47.163-1.523.807-2.857 1.705-4.065.702-.943 2.106-1.185 3.158-.625.775.412 1.32 1.06 1.811 1.763.487.696.79 1.483 1.027 2.278.71 2.374-.582 4.199-3.076 4.407-.205.017-.414.002-.62.002m21.148.182c2.62.006 4.619 2.499 3.998 4.985-.334 1.337-1.728 2.124-3.053 1.78-.73-.188-1.45-.365-2.082-.797-1.362-.93-2.068-2.702-1.689-4.258.228-.936 1.513-1.713 2.826-1.71M14.78 27.496c-1.283.022-2.187-.361-2.784-1.4-.764-1.33-.397-2.544.376-3.667.835-1.216 2.076-1.762 3.561-1.762 1.957 0 3.068 1.37 2.63 3.266-.394 1.713-1.395 2.91-3.092 3.482-.257.086-.55.066-.69.081"/></g></svg>