<svg xmlns="http://www.w3.org/2000/svg" width="41" height="40" fill="none"><path fill="#E9BA6D" fill-rule="evenodd" d="M20 40c11.046 0 20-8.954 20-20S31.046 0 20 0 0 8.954 0 20s8.954 20 20 20z" clip-rule="evenodd"/><path fill="#fff" fill-rule="evenodd" d="M29.556 18.962c.09.005.17.007.241.007.072 0 .154 0 .246-.007.082-.003.164-.012.245-.026.013-.076.022-.151.027-.228.004-.076.006-.148.006-.218s0-.145-.006-.224a2.05 2.05 0 00-.027-.224 2.398 2.398 0 00-.25-.03 2.838 2.838 0 00-.732.028 2.576 2.576 0 000 .896c.083.014.166.023.25.026zM15.47 22.244c-.039.005-.078.007-.118.007a.643.643 0 01-.201-.027.258.258 0 01-.131-.097.484.484 0 01-.074-.197 1.908 1.908 0 01-.023-.334v-3.509a2.841 2.841 0 00-.948 0v3.714c0 .428.104.737.312.928.208.191.485.286.83.284.086 0 .179-.004.28-.013.087-.007.174-.023.258-.047a.38.38 0 00.014-.097v-.1a2.055 2.055 0 00-.074-.534c-.041.01-.083.017-.125.022zm-2.71-2.473c-.26-.222-.625-.334-1.091-.334a3.625 3.625 0 00-1.143.194c-.003.124.013.248.046.368.037.113.084.223.142.327.248-.09.51-.137.773-.142.102 0 .205.006.306.02.082.01.16.037.232.078a.4.4 0 01.147.159.55.55 0 01.054.26v.08c-.157-.013-.3-.02-.43-.02-.18 0-.361.018-.538.055a1.585 1.585 0 00-.486.188 1.058 1.058 0 00-.357.347.984.984 0 00-.137.538c-.007.186.03.372.109.541.072.146.181.27.316.361.149.099.316.167.492.2.206.042.417.062.628.06.255.003.51-.019.76-.066a5.7 5.7 0 00.572-.14V20.84c0-.49-.132-.846-.394-1.069zm-.534 2.498l-.175.03a1.248 1.248 0 01-.201.018c-.058 0-.127-.004-.205-.01a.74.74 0 01-.222-.055.44.44 0 01-.18-.137.42.42 0 01-.074-.268c0-.173.064-.3.192-.377.128-.078.301-.117.521-.117.055 0 .113.004.168.01.056.006.121.015.175.023l.001.884zm3.669-2.204a1.583 1.583 0 01.033-.536h1.384v3.454a2.811 2.811 0 01-.935 0v-2.734h-.452a1.507 1.507 0 01-.03-.184zm-.01-.181v-.003.003zm-7.202 1.342v-3.059c.153-.026.308-.039.463-.04.136 0 .271.013.404.04v4.806a2.163 2.163 0 01-.39.04 2.295 2.295 0 01-.41-.04L6.867 19.92v3.054a2.39 2.39 0 01-.867 0v-4.806a2.1 2.1 0 01.814 0l1.87 3.059zm7.82-2.264c.09.005.17.007.242.007.071 0 .153 0 .245-.007.082-.003.164-.012.245-.026.013-.076.022-.151.027-.228.004-.076.006-.148.006-.218s0-.145-.006-.224a2.05 2.05 0 00-.027-.224 2.393 2.393 0 00-.249-.03 2.824 2.824 0 00-.733.028 2.557 2.557 0 000 .896c.083.014.166.023.25.026zm16.868 2.031c.02.011.04.026.054.045.017.019.03.041.037.065a.264.264 0 01.012.08h-.382a.34.34 0 01.019-.075.194.194 0 01.098-.113.183.183 0 01.082-.018c.028 0 .055.005.08.016zm-4.433-1.11a1.72 1.72 0 00.04.366h.452v2.734a2.81 2.81 0 00.935 0v-3.454H28.98a1.588 1.588 0 00-.043.355zm-8.361 2.271v.003c.057.098.103.202.135.31.038.136.057.277.055.418a2.092 2.092 0 01-.505.137c-.163.02-.327.03-.491.03a1.944 1.944 0 01-.76-.137 1.455 1.455 0 01-.534-.377 1.604 1.604 0 01-.32-.571 2.461 2.461 0 01-.003-1.427c.066-.211.174-.407.317-.575.144-.167.324-.3.527-.388.231-.1.48-.15.732-.147.099 0 .19.003.273.007a2.08 2.08 0 01.468.081c.075.022.16.05.255.087a1.695 1.695 0 01-.168.708 2.245 2.245 0 00-.353-.09 2.293 2.293 0 00-.346-.023c-.278.001-.488.092-.629.273-.141.18-.212.438-.212.772 0 .36.077.624.23.789.152.165.358.247.618.247.067 0 .129-.001.185-.003a1.268 1.268 0 00.328-.057c.055-.018.122-.04.198-.067zm13.894-2.197A1.802 1.802 0 1035 21.222v.005a1.796 1.796 0 00-.53-1.27zm-1.795 1.757h-.205v-.466c0-.04-.002-.081-.01-.12a.21.21 0 00-.03-.082.125.125 0 00-.057-.046.25.25 0 00-.09-.014.712.712 0 00-.08.005l-.063.008v.715h-.205v-.857a1.382 1.382 0 01.364-.047.489.489 0 01.181.03.287.287 0 01.177.21.74.74 0 01.017.164l.001.5zm1-.418c0 .015 0 .027-.003.039h-.585c.003.062.03.121.076.163a.288.288 0 00.194.059.627.627 0 00.233-.043l.028.168a.335.335 0 01-.047.018.969.969 0 01-.15.03.814.814 0 01-.09.004.547.547 0 01-.203-.034.373.373 0 01-.225-.242.598.598 0 01-.027-.184.546.546 0 01.035-.205.386.386 0 01.224-.234.4.4 0 01.152-.03.368.368 0 01.286.113c.068.076.102.189.102.339v.04zm.668.422a.524.524 0 01-.293-.01.235.235 0 01-.101-.073.298.298 0 01-.055-.117.744.744 0 01-.015-.157v-.764l.204-.034v.268h.316V21h-.312v.36a.264.264 0 00.034.153.134.134 0 00.115.046.362.362 0 00.1-.012.713.713 0 00.067-.022l.034.164a.735.735 0 01-.094.028zm-6.553-2.244c.167 0 .334.014.499.041l-.89 1.6 1.038 1.858a3.302 3.302 0 01-1.029 0L26.4 21.159l.86-1.645a3.54 3.54 0 01.531-.04zm-2.474-1.387v4.883a2.849 2.849 0 00.948 0v-4.883a2.86 2.86 0 00-.948 0zm-2.353 1.402a1.18 1.18 0 01.37-.054c.385.001.678.11.877.323.2.214.3.55.3 1.01v2.211c-.08.014-.161.023-.242.027-.081.007-.16.007-.236.007-.076 0-.154-.003-.235-.007a2.256 2.256 0 01-.242-.027v-1.96c.005-.24-.031-.425-.11-.555-.077-.129-.207-.194-.39-.194a.876.876 0 00-.235.034.49.49 0 00-.218.13.729.729 0 00-.164.273c-.047.147-.069.3-.064.455v1.817c-.08.014-.16.023-.242.027-.08.007-.159.007-.235.007a4.13 4.13 0 01-.232-.007 2.333 2.333 0 01-.239-.027v-4.89c.078-.014.157-.023.235-.028.081-.006.16-.006.236-.006.076 0 .154 0 .235.005.081.005.162.014.242.027v1.837c.031-.04.073-.089.125-.143a1.08 1.08 0 01.464-.291z" clip-rule="evenodd"/></svg>