<svg xmlns="http://www.w3.org/2000/svg" width="41" height="40" fill="none"><path fill="#0096D5" d="M40.5 20.004C40.5 31.054 31.552 40 20.506 40 9.46 40 .5 31.053.5 20.004S9.459 0 20.506 0C31.552 0 40.5 8.955 40.5 20.004z"/><path fill="#fff" fill-rule="evenodd" d="M12.961 18.724c.97-.27 1.967.271 2.229 1.207.262.944-.315 1.922-1.285 2.194-.97.27-1.966-.271-2.229-1.207a2.047 2.047 0 01-.06-.393c-.036-.402-.08-1.224.025-1.862.062-.376.219-.62.455-.839.236-.21.568-.42.961-.524l.3-.08c.289-.077.558-.148.74-.2.254-.07.516.052.569.245.052.192 0 .454-.35.55-.35.096-.822.227-.97.271l-.014.005c-.09.028-.463.148-.66.345-.14.14-.14.33-.14.453v.019c.132-.079.272-.14.43-.184zm-.385 1.94c.14.49.63.779 1.102.648.472-.132.743-.639.594-1.128a.892.892 0 00-1.092-.647c-.472.131-.743.638-.604 1.128zm9.843-1.913h-1.705c-.341 0-.441.35-.478.48l-.003.01c-.043.121-.646 2.15-.646 2.15h-.158a.403.403 0 00-.402.41c0 .227.184.402.402.402h2.998c.21 0 .49-.166.49-.48V19.24a.51.51 0 00-.498-.49zm-.42 2.63h-1.45s.436-1.503.445-1.547l.003-.009c.021-.053.075-.192.198-.192h.603c.105 0 .201.088.201.201v1.548zm-11.634-.873c0 .48-.315.891-.848.891-.516 0-.856-.42-.856-.9v-.009c0-.48.314-.891.847-.891.516 0 .857.42.857.9v.009zm-.857-1.705c-1.022 0-1.774.76-1.774 1.696v.009c0 .935.752 1.687 1.766 1.687 1.022 0 1.774-.76 1.774-1.696v-.009c0-.935-.752-1.687-1.766-1.687zm-2.552-.026H4.981a.485.485 0 00-.481.48v2.483c0 .262.219.48.48.48.263 0 .481-.218.481-.48v-1.88c0-.113.097-.2.202-.2H6.274c.105 0 .201.087.201.2v1.88c0 .262.219.48.481.48s.48-.218.48-.48v-2.482a.485.485 0 00-.48-.481zm10.367.664c-.42 0-.665.245-.734.638h1.424c-.035-.35-.28-.638-.69-.638zm1.224-.332c.332.332.428.734.428 1.066 0 .35-.184.551-.49.542h-1.888c.096.446.402.69.892.69.31 0 .503-.078.662-.143a.818.818 0 01.308-.083c.21 0 .367.183.367.393 0 .2-.14.34-.428.454-.306.132-.647.167-.98.167-.576 0-1.048-.184-1.363-.499-.323-.332-.507-.778-.507-1.31 0-.517.193-.945.49-1.25.306-.298.734-.473 1.276-.473.56 0 .962.175 1.233.446zm6.153 2.456c-.367 0-.664-.236-.664-.516 0-.288.297-.515.664-.515.367 0 .664.236.664.515 0 .28-.297.516-.664.516zm1.53-1.407a1.62 1.62 0 00-.438-.91c-.288-.296-.673-.489-1.197-.489-.306 0-.472 0-.752.123-.262.105-.393.236-.393.428 0 .201.14.367.332.367a.406.406 0 00.21-.06c.092-.048.205-.106.49-.106.393 0 .655.175.769.516-.298-.14-.621-.149-.621-.149s-1.136-.105-1.39.9c-.122.682.271 1.285 1.102 1.39.725.044 1.083-.253 1.083-.253a.43.43 0 00.376.218.438.438 0 00.437-.437c.018 0 .018-1.197-.008-1.538zm2.185 2.02a1.39 1.39 0 100-2.78c-.77 0-1.39.62-1.39 1.39 0 .768.62 1.39 1.39 1.39z" clip-rule="evenodd"/><path fill="#fff" fill-rule="evenodd" d="M33.152 20.787c0 .77-.62 1.39-1.39 1.39-.769 0-1.39-.62-1.39-1.39 0-.769.621-1.39 1.39-1.39.77 0 1.39.621 1.39 1.39z" clip-rule="evenodd" opacity=".8"/><path fill="#fff" fill-rule="evenodd" d="M36.5 20.787c0 .77-.62 1.39-1.39 1.39-.769 0-1.39-.62-1.39-1.39 0-.769.621-1.39 1.39-1.39.76 0 1.39.621 1.39 1.39z" clip-rule="evenodd" opacity=".6"/></svg>