<svg xmlns="http://www.w3.org/2000/svg" xmlns:xlink="http://www.w3.org/1999/xlink" width="60" height="60"><defs><path id="sipnet__a" d="M29.703 59.405c16.404 0 29.702-13.298 29.702-29.702C59.405 13.298 46.107 0 29.703 0 13.298 0 0 13.298 0 29.703c0 16.404 13.298 29.702 29.703 29.702z"/></defs><g fill="none" fill-rule="evenodd"><mask id="sipnet__b" fill="#fff"><use xlink:href="#sipnet__a"/></mask><use fill="#2D64AF" xlink:href="#sipnet__a"/><path fill="#F6F8FC" d="M31.005 14.03c3.67 0 7.341.056 11.01-.028 1.452-.033 1.993.343 1.985 1.907-.02 4.178.057 4.178-4.036 4.177-5.123 0-10.249.09-15.368-.04-2.264-.057-2.67.972-2.653 2.92.016 1.941.215 3.23 2.683 3.156 4.66-.139 9.328-.05 13.991-.037 3.81.01 5.323 1.498 5.34 5.23.013 2.752.041 5.505-.009 8.257-.053 2.916-1.647 4.598-4.549 4.62-7.57.057-15.14.005-22.71.038-1.14.004-1.576-.32-1.627-1.55-.189-4.53-.24-4.529 4.362-4.529 4.817 0 9.634.002 14.451-.001 3.136-.003 3.235-.098 3.239-2.96.003-2.92-.152-3.079-3.146-3.082-4.588-.005-9.176.013-13.763-.006-3.443-.013-5.053-1.598-5.1-5.034a281.83 281.83 0 01-.001-8.029c.051-3.448 1.624-4.98 5.12-5.003 3.593-.025 7.187-.006 10.78-.006" mask="url(#sipnet__b)"/></g></svg>