<svg xmlns="http://www.w3.org/2000/svg" xmlns:xlink="http://www.w3.org/1999/xlink" width="40" height="40"><defs><path id="war-thunder__a" d="M0 12.142h30V0H0z"/></defs><g fill="none" fill-rule="evenodd" transform="translate(-242 -250)"><rect width="40" height="40" x="242" y="250" fill="#8E142A" fill-rule="nonzero" rx="20" transform="rotate(90 262 270)"/><g transform="translate(247 263)"><path fill="#FFF" d="M10.74 4.512h-.3v-.75l.109-.02v-.415c-.172-.06-.347-.12-.532-.186v-.885h.466l.423 1.964.02.003.08-.437 1.302.256c-.162.932-.32 1.857-.481 2.785H9.79V5.131a.592.592 0 00-.363.05c-.282.122-.567.241-.841.373-.426.203-.888.292-1.37.33-.177.013-.354.028-.552.045.273.287.557.554.726.9h-.728L5.493.001h1.41l.654 4.261.027.003c.265-1.232.531-2.463.796-3.7h1.234V1.75l-.338.133c-.008.072-.011.13-.017.196h-.874c.306.155.636.201.993.16v.906l-.522.181v.412l.106.028v.74c-.16.01-.308.015-.454-.059-.23-.117-.472-.216-.72-.328l-.095.138.895.46-.085.257-1.299-.584-.097.136.885.456c-.041.078-.08.153-.128.24l-1.242-.56-.1.135 1.225.628-.105.213c.227-.027.429-.07.614-.15.34-.146.678-.299 1.015-.448l.152-.064a.656.656 0 01.55-.002c.289.128.575.26.863.387.242.107.488.208.76.255l.17.027a142.03 142.03 0 00-.368-.672H10.9a79.428 79.428 0 01-.16-.458"/><mask id="war-thunder__b" fill="#fff"><use xlink:href="#war-thunder__a"/></mask><path fill="#FFF" d="M20.237 3.288h2.65v-2.21h-2.65v2.21zM18.886 0h4.412l.94.784v2.882l-.93.754.41.845-.846.16-.058-.058-.507.11-.091-.123h-.341l-.149-.333h-1l-.016-.125a2.893 2.893 0 00-1.194-.003 2.66 2.66 0 00-.024.122h-.268l-.328.748h-.013V3.934c.207-.04.412-.09.622-.118.187-.025.291-.1.318-.254.021-.122.045-.244.051-.367.009-.136-.04-.182-.21-.196-.213-.017-.427-.024-.64-.034-.042-.003-.086 0-.138 0V0zM13.24 7.74h.87c.582.923 1.161 1.848 1.742 2.772l.023-.004V7.742h.875v4.393h-.874l-1.73-2.753c-.017.001-.022 0-.025.002-.003.001-.005.004-.006.007-.002.004-.004.007-.004.011l-.001.032-.004 2.68c0 .002-.003.006-.012.02h-.854V7.738zm15.512 1.826l.369-.301v-.482a62.755 62.755 0 01-.364-.314H27.36v1.097h1.393zm.332.74l.912 1.83h-.956l-.93-1.826h-.756v1.827h-.87V7.74h2.627l.89.738v1.09l-.917.737zm-9.164 1.1l.37-.305v-2.32l-.368-.314h-1.389v2.94h1.388zm-2.264-3.669h2.632l.878.738v2.932c-.291.242-.582.481-.88.73h-2.63v-4.4zm-12.37 4.399h-.872V7.733h.865v1.834h1.768V7.735c.297-.003.582-.003.873.001v4.397c-.024.003-.044.008-.065.008H7.06v-1.828H5.286v1.823zM25.578 8.46H22.95v1.11h1.303v.734h-1.307v1.109h2.633v.722h-3.508V7.742h3.507zM8.822 7.74h.868v3.35l.395.32h1.005l.38-.317V7.742h.861v3.664l-.884.733H9.705l-.883-.738V7.74zm-7.501.72H0v-.72h3.506v.72H2.191v3.677c-.042.002-.07.005-.1.005h-.77v-3.68zm15.537-5.539c-.357-.031-.695.004-1.036-.077-.012-.057-.029-.109-.031-.161-.01-.232-.012-.465-.026-.697-.02-.321-.04-.372-.362-.691l-.073-.005h-.08c-.191.181-.36.366-.363.622-.003.233-.016.465-.024.697-.007.242-.02.259-.307.279-.247.016-.495.02-.769.03.302-.98.608-1.945.91-2.916h1.243l.918 2.919M15 6.132l-.8.194-.074.021c-.218.067-.24.093-.24.285v.193h-1.324l.798-2.549c.018-.004.023-.006.026-.005.412.091.824.179 1.233.277.155.037.237.128.25.272.038.42.087.838.131 1.258.002.017 0 .035 0 .054m2.28-1.872l.807 2.566h-1.33v-.232c-.002-.15-.02-.184-.194-.232-.259-.072-.524-.13-.787-.195-.037-.01-.075-.017-.127-.029.004-.064.006-.128.013-.19.041-.377.089-.753.119-1.129.013-.14.091-.225.239-.268.151-.046.305-.085.46-.12.26-.059.521-.112.8-.17M13.005.004L12.5 2.937l-1.372.049c.156-1 .312-1.987.47-2.982h1.408zM3.308 3.207c.365.04.726.076 1.115.117l-.819.644.21.92c-.34-.155-.66-.3-.986-.45l-.986.45.21-.92c-.266-.208-.53-.417-.82-.643l1.115-.118.481-.848.48.848m23.218.76l-.82-.643 1.116-.117.48-.849.48.848 1.107.117c-.265.23-.546.427-.81.646l.21.92-.987-.452-.984.451.208-.92m-2.629 1.667l.58 1.192h-2.38v-.11h.364l-.19-.45c.028-.06.057-.117.09-.183l.636-.144.015-.075.885-.23M10.443 2.076h-.3a9.426 9.426 0 00-.013-.19l-.35-.14V.568h.339l.324 1.508" mask="url(#war-thunder__b)"/><path fill="#FFF" d="M19.787 6.241l-.367.165.073-.344-.298-.243.41-.048.184-.312.182.312.406.047-.291.254.072.332-.371-.163" mask="url(#war-thunder__b)"/></g></g></svg>