<svg xmlns="http://www.w3.org/2000/svg" width="41" height="40" fill="none"><path fill="#103852" d="M40.5 20.004C40.5 31.054 31.552 40 20.506 40 9.46 40 .5 31.053.5 20.004S9.459 0 20.506 0C31.552 0 40.5 8.955 40.5 20.004z"/><path fill="#2E9BFC" d="M15.864 18.22l-.201 1.233a3.785 3.785 0 00-1.027-.265c-.736 0-1.407.52-1.407 1.27 0 .938.582 1.173 1.24 1.142.253-.014.5-.075.73-.18l.426-.136.188 1.149-.345.133c-.441.199-.923.29-1.407.265-1.64-.035-2.391-1.23-2.286-2.448a2.754 2.754 0 011.053-1.913 2.77 2.77 0 011.623-.469c.476.01.95.083 1.406.218h.008zm13.163-.111l-.886 4.638h1.36l.345-1.827.886 1.827h2.553l1.595-3.079.173 1.756-.548-.234-.425.856 1.135.703H36.5l-.657-4.638h-1.467l-2.32 4.242-.993-1.986 2.161-2.256h-1.613l-1.517 1.517.289-1.517-1.356-.002zm-4.628 0l1.7-.052c.755-.016 1.599.17 1.864.976a1.139 1.139 0 01-.485 1.313c.722.51.544 1.568-.099 2.04-.527.387-1.022.391-1.641.384l-2.148-.023.81-4.638zm1.018 1.046l-.125.738h.847c.234 0 .49 0 .593-.272a.345.345 0 00-.368-.469l-.947.003zm-.444 2.457h.905c.282 0 .636-.052.704-.392a.355.355 0 00-.387-.405h-1.083l-.138.806v-.01zm-3.788-3.5l-2.544 4.635h.729c.614-.026.757-.2.867-.345.554-.917.96-1.784 1.452-2.736l.164 1.784-.549-.234-.427.862 1.295.66h1.142l-.662-4.627h-1.468zm-4.816 0h3.49l-.234 1.289h-1.017l-.638 3.346h-1.355l.638-3.34h-1.11l.226-1.296z"/><path fill="#fff" d="M10.88 22.744h1.151l-1.67-2.515 2.13-2.11h-1.895l-4.22 4.243.771-4.253H6.104L4.5 19.157v1.189l.964-.448-.132.392-.443 2.454h3.1l1.282-1.369.526.8a1.325 1.325 0 001.083.572v-.003zm-2.502-2.898L7.26 18.11h1.278a1.325 1.325 0 01.937.469l.075.103-1.172 1.165z"/></svg>