<svg xmlns="http://www.w3.org/2000/svg" width="40" height="40" fill="none"><circle cx="20" cy="20" r="20" fill="#D9232E"/><path fill="#fff" fill-rule="evenodd" d="M20 9c5.527 0 10 4.488 10 10a9.96 9.96 0 01-2.922 7.063L20 33.142l-1.16-1.145 7.079-7.078A8.292 8.292 0 0028.373 19c0-4.608-3.75-8.373-8.373-8.373-4.623 0-8.373 3.765-8.373 8.373 0 2.304.933 4.398 2.44 5.904.15.15.255.361.255.587a.82.82 0 01-1.4.572A9.933 9.933 0 0110 19c0-5.512 4.473-10 10-10zm5 15.015l.015-.015a7.032 7.032 0 002.063-5c0-3.9-3.177-7.078-7.078-7.078-3.9 0-7.078 3.177-7.078 7.078 0 1.958.798 3.735 2.063 5 .15.15.361.241.587.241a.81.81 0 00.814-.813.845.845 0 00-.256-.588A5.404 5.404 0 0114.547 19 5.45 5.45 0 0120 13.548 5.45 5.45 0 0125.452 19a5.39 5.39 0 01-1.597 3.855l-7.078 7.079 1.16 1.144L25 24.015zm-5-9.172c-2.304 0-4.172 1.868-4.172 4.157A4.171 4.171 0 0020 23.172 4.181 4.181 0 0024.172 19c0-2.29-1.883-4.157-4.172-4.157zm0 6.702A2.552 2.552 0 0117.455 19c0-1.4 1.144-2.53 2.545-2.53 1.4 0 2.545 1.13 2.545 2.53S21.401 21.545 20 21.545z" clip-rule="evenodd"/></svg>