<svg xmlns="http://www.w3.org/2000/svg" width="40" height="40"><circle cx="20" cy="20" r="20" fill="#1AAD19"/><path fill="#fff" fill-rule="evenodd" d="M17.251 22.752a.73.73 0 01-.97-.296l-.047-.105-2.003-4.384a.366.366 0 01.551-.447l2.363 1.678a1.094 1.094 0 00.977.111l11.113-4.935C27.243 12.03 23.963 10.5 20.25 10.5c-6.075 0-11 4.095-11 9.147 0 2.757 1.482 5.237 3.8 6.914a.73.73 0 01.27.83l-.496 1.845c-.022.086-.059.176-.059.267 0 .202.164.366.367.366.08 0 .145-.03.212-.068l2.408-1.387a1.15 1.15 0 01.584-.17c.113 0 .22.018.324.049 1.123.323 2.335.502 3.59.502 6.075 0 11-4.096 11-9.148 0-1.53-.454-2.971-1.253-4.239l-12.665 7.297-.08.047z" clip-rule="evenodd"/></svg>