<svg xmlns="http://www.w3.org/2000/svg" xmlns:xlink="http://www.w3.org/1999/xlink" width="60" height="60"><defs><path id="metall-invest-bank__a" d="M29.703 59.405c16.404 0 29.702-13.298 29.702-29.702C59.405 13.298 46.107 0 29.703 0 13.298 0 0 13.298 0 29.703c0 16.404 13.298 29.702 29.703 29.702z"/></defs><g fill="none" fill-rule="evenodd"><use fill="#032766" xlink:href="#metall-invest-bank__a"/><path fill="#FFF" d="M26.637 21.576c-.48-.322-.74-.63-1.006-.635-.217-.004-.441.353-.662.55.215.233.404.616.652.659.233.04.527-.28 1.016-.574m1.757-12.574v5.518c-7.464 1.155-12.217 5.269-13.574 12.816-.894 4.969 1.693 11.102 5.512 13.47l5.619-14.778c-2.127.419-4.123-.535-5.868.837-1.25-3.64 1.379-7.497 5.174-7.525 3.63-.027 7.26-.006 10.894-.006 0 .101.027.207-.004.23-1.383.973-1.295 2.21-.938 3.713 1.341 5.651 2.55 11.335 3.852 17.203.408-.33.759-.546 1.026-.84 4.076-4.48 5.346-9.649 3.25-15.349-2.006-5.458-6.096-8.646-11.857-9.547-.92-.144-1.125-.451-1.094-1.286.056-1.485.016-2.973.016-4.455 8.452-.162 18.638 7.003 19.537 18.783.9 11.8-8.29 21.888-20.41 21.989-11.67.097-20.749-9.518-20.525-20.835.24-12.142 10.544-19.927 19.39-19.938"/></g></svg>