<svg xmlns="http://www.w3.org/2000/svg" xmlns:xlink="http://www.w3.org/1999/xlink" width="60" height="60"><defs><path id="obit__a" d="M29.703 59.405c16.404 0 29.702-13.298 29.702-29.702C59.405 13.298 46.107 0 29.703 0 13.298 0 0 13.298 0 29.703c0 16.404 13.298 29.702 29.703 29.702z"/><path id="obit__c" d="M7.922.777H.398v7.486h7.524V.777z"/></defs><g fill="none" fill-rule="evenodd"><mask id="obit__b" fill="#fff"><use xlink:href="#obit__a"/></mask><use fill="#F68F1F" xlink:href="#obit__a"/><g mask="url(#obit__b)"><g transform="translate(34.588 9.001)"><mask id="obit__d" fill="#fff"><use xlink:href="#obit__c"/></mask><path fill="#FFF" d="M6.922 1.777c-.022 2.197-.07 4.395-.052 6.592.006.673-.137.913-.85.893-1.95-.054-3.9-.043-5.85-.004-.613.012-.765-.191-.76-.788.024-2.231-.004-4.462-.012-6.693h7.524z" mask="url(#obit__d)"/></g></g><g mask="url(#obit__b)"><path fill="#FFF" d="M28.647 37.87c1.557 0 3.114-.018 4.67.01.534.01.753-.111.748-.714a607.807 607.807 0 01-.002-9.593c.005-.598-.227-.72-.757-.717-3.083.02-6.165.023-9.249-.002-.556-.005-.733.145-.728.727a542.1 542.1 0 01-.002 9.593c-.005.608.212.717.742.707 1.525-.03 3.052-.01 4.578-.01zM16 24.965c.227-.05.24-.268.295-.43.762-2.242 2.446-3.246 4.636-3.275a609.471 609.471 0 0115.594-.001c2.778.034 4.51 1.698 4.827 4.499.306 2.694.103 5.405.12 8.108.013 1.8.126 3.606-.136 5.402-.374 2.564-2.17 4.175-4.702 4.176-5.168.004-10.335.002-15.503.002-2.604 0-3.958-.937-4.888-3.378-.052-.139-.056-.312-.243-.356V24.964z"/></g></g></svg>