<svg xmlns="http://www.w3.org/2000/svg" width="80" height="80"><g fill="none" fill-rule="evenodd"><circle cx="40" cy="40" r="40" fill="#FF9C00"/><path fill="#FFF" d="M19.068 32.92a2.383 2.383 0 100 4.766 2.383 2.383 0 000-4.765zm7.781-4.77a2.383 2.383 0 100 4.766 2.383 2.383 0 000-4.766z"/><path fill="#5A2814" fill-rule="nonzero" d="M51.456 24.153H31.992l-.387-.17-.676-.739a35.17 35.17 0 01-.802-.87l-.43-.483a16.467 16.467 0 00-1.2-1.19 9.488 9.488 0 00-2.991-1.933 4.52 4.52 0 00-.918-.217l-.121-.034a2.175 2.175 0 00-1.484.242 2.238 2.238 0 00-.314.251c-.284.3-.488.665-.595 1.063-.483 1.586-.358 3.132-.242 4.626.025.372.054.754.073 1.121.02.368.029.716.029 1.015h-.048a9.024 9.024 0 00-2.015.778l-.185.112-.048.029-.179.12c-.441.321-.85.684-1.223 1.083-.135.135-.25.27-.352.392a.29.29 0 01-.039.038c-.266-.13-.556-.28-.899-.483-.343-.203-.657-.367-.967-.556-1.305-.71-2.629-1.489-4.282-1.75a2.45 2.45 0 00-1.213.102c-.128.043-.25.102-.363.174a2.127 2.127 0 00-.86 1.208l-.029.068c-.1.298-.166.606-.198.918a9.522 9.522 0 00.45 3.543 16 16 0 00.555 1.595c.082.203.16.401.242.6.154.377.304.734.44 1.101l.377.967c-.034 1-.034 1.02-.034 1.054 0 .164-.034.826-.063 1.363-.068.865-.068 1.426-.068 1.658.03 1.826.53 3.614 1.45 5.19a10.938 10.938 0 003.224 3.48 9.285 9.285 0 009.26 8.894h32.466a9.285 9.285 0 009.275-9.275V39.6c-.014-8.516-6.805-15.447-15.152-15.447zM20.088 36.927a1.933 1.933 0 01-2.04-3.248c.086-.051.175-.098.266-.14a1.128 1.128 0 102.165.498c.339.382.512.882.484 1.392a1.933 1.933 0 01-.875 1.498zm7.67-4.794a1.933 1.933 0 01-2.929-1.73c.037-.62.37-1.185.894-1.518.088-.055.18-.102.276-.14a.996.996 0 00-.082.372 1.133 1.133 0 102.262.13 1.933 1.933 0 01-.416 2.9l-.005-.014z"/><path fill="#FF9C00" d="M60.001 54.25c.418-.716.64-1.53.643-2.359V40.074a9.667 9.667 0 00-.483-3.079l-.179-.106a6.912 6.912 0 00-2.078-.692 19.372 19.372 0 00-1.45-.236 14.389 14.389 0 00-3.021 0 12.707 12.707 0 00-3.316.744 13.838 13.838 0 00-6.1 4.93 10.546 10.546 0 00-1.7 3.659 16.486 16.486 0 00-.363 2.257c-.063.6-.102 1.204-.136 1.788-.024.402-.048.817-.082 1.228v.087c0 .213-.038.43-.077.648a2.01 2.01 0 01-.527 1.063 1.86 1.86 0 01-1.228.435h-2.107a2.088 2.088 0 00-1.933 2.194c.003.263.044.523.12.774.145.417.407.785.755 1.058.167.127.357.22.56.276.113.031.227.055.343.072.097 0 .208.039.31.044l.72.072h17.506a8.425 8.425 0 002.673-1.658c.461-.39.85-.857 1.15-1.382z"/><path fill="#FF9C00" d="M37.792 51.49h1.88a.715.715 0 00.561-.242.967.967 0 00.208-.671c0-.078.106-2.417.183-2.992.202-1.571.605-3.11 1.2-4.577a12.518 12.518 0 011.7-2.9 15.81 15.81 0 013.055-2.958 12.18 12.18 0 013.731-1.885 14.297 14.297 0 012.074-.455c.097 0 .193-.01.29-.029h.092c.585-.058 1.271-.12 1.977-.13h.145c.372 0 .802 0 1.232.034.43.034.836.067 1.238.125.411.059.82.14 1.222.242.266.073.522.16.779.251a9.966 9.966 0 00-4.22-3.634 2.02 2.02 0 01-.377-.174 12.75 12.75 0 00-2.19-.71 2.2 2.2 0 01-.41-.083c-.102-.024-.208-.039-.31-.058a23.587 23.587 0 00-2.735-.237c-.484 0-.923 0-1.383-.024a3.113 3.113 0 01-2.349-5.05H34.752c.275.12.483.207.594.265a10.595 10.595 0 014.036 3.582 10.856 10.856 0 011.808 4.934 12.112 12.112 0 01-1.75 7.25 17.236 17.236 0 01-3.456 4.35 20.585 20.585 0 01-2.74 2.02l-.072.049-.653.41-.652.412-.073.038a21.32 21.32 0 01-3.006 1.595 16.433 16.433 0 01-3.123.928 8.217 8.217 0 002.113.32h.565l.967.033c2.146 0 3.9 1.6 3.9 3.567a3.354 3.354 0 01-.85 2.214h3.078a3.765 3.765 0 01-.763-2.296c0-1.924 1.392-3.514 3.117-3.514z"/><path fill="#FF9C00" d="M51.456 25.332h-3.625a1.933 1.933 0 00-1.933 1.933c.003.233.044.463.12.682.15.38.414.704.755.928.17.116.36.2.56.246.112.028.225.05.339.063.101 0 .203.034.309.039.382 0 .754.068 1.136.082.382.015.773 0 1.155.039.975.08 1.944.224 2.9.43.935.217 1.841.542 2.702.967.82.411 1.592.914 2.3 1.498a9.328 9.328 0 011.736 1.933c.47.687.864 1.422 1.174 2.195.32.803.513 1.65.57 2.513l.078 1.194v12.243a5.085 5.085 0 01-1.537 3.543 7.888 7.888 0 01-1.856 1.406 8.091 8.091 0 007.07-8.028V39.6c.006-7.878-6.244-14.268-13.953-14.268zM30.813 53.017a3.306 3.306 0 00-1.77-.406H27.98a9.531 9.531 0 01-4.48-1.135h-.106a12.465 12.465 0 01-6.496-1.131 8.081 8.081 0 007.99 6.984h5.35a1.79 1.79 0 00.55-.116c.393-.196.716-.506.929-.89a2.24 2.24 0 00.343-1.208 2.552 2.552 0 00-.184-.865 2.634 2.634 0 00-1.063-1.233z"/><path fill="#FF9C00" fill-rule="nonzero" d="M23.297 50.296l.3-.029a16.013 16.013 0 004.736-1.116c.983-.427 1.93-.93 2.833-1.508l.72-.45.715-.454a19.269 19.269 0 002.59-1.9 16.163 16.163 0 003.215-4.04c2.861-5.022 1.397-8.83 0-10.957a9.396 9.396 0 00-3.577-3.176c-.391-.198-2.392-1-2.774-1.189l-.329-.145-.812-.358-.459-.483-.28-.304-.111-.116c-.43-.45-.836-.914-1.252-1.373-.349-.39-.72-.76-1.112-1.107a8.217 8.217 0 00-2.605-1.696 2.692 2.692 0 00-.648-.155c-.309-.034-.652-.106-.894.135-.153.15-.267.336-.328.542-.518 1.75-.213 3.542-.121 5.355v1.295c0 .416.038.58-.392.75-.314.125-.652.183-.966.294a8.019 8.019 0 00-1.315.546l-.15.092-.155.102a7.917 7.917 0 00-1.063.966 4.21 4.21 0 00-.242.271 4.568 4.568 0 01-.444.483c-.334.315-.484.208-.846.03a30.15 30.15 0 01-1.17-.6c-1.561-.884-3.05-1.933-4.852-2.223a1.334 1.334 0 00-.634.024c-.323.116-.41.454-.512.75a2.76 2.76 0 00-.14.652 8.255 8.255 0 00.396 3.083c.144.501.317.993.517 1.475.228.575.484 1.14.687 1.73l.483 1.16-.039 1.247c0 .425-.14 2.576-.135 3.011a9.483 9.483 0 001.3 4.64 9.986 9.986 0 002.185 2.59l.372.286c.26.184.529.354.807.507a10.353 10.353 0 004.974 1.368c.508.027 1.018.026 1.527-.005zm2.088-21.953a2.557 2.557 0 11-.005 0h.005zm-7.685 4.79c.08-.046.162-.088.247-.125a2.52 2.52 0 011.257-.261 2.562 2.562 0 11-2.601 3.257 2.45 2.45 0 01-.097-.846 2.566 2.566 0 011.194-2.025zm2.475 10.924a7.25 7.25 0 01-1.117 0c-.691.444-1.401.855-2.122 1.251l-.15.087-.966.537-.174.092a4.616 4.616 0 01-.701.343h-.058c-.039 0-.116 0-.092-.068a.541.541 0 01.189-.174l.309-.198c.116-.077.237-.14.353-.213l.082-.048.077-.048c.14-.087.276-.18.42-.261l.508-.29.083-.049c.55-.333 1.111-.662 1.657-1.01a4.5 4.5 0 01-1.208-.348l-.092-.043-.377.164-.793.348-.357.145h-.03l-.816.372c-.296.135-.601.25-.914.343h-.053c-.034 0-.11 0-.082-.077a.706.706 0 01.203-.155l.334-.164c.15-.077.304-.135.454-.213l.512-.28.363-.17.179-.081.966-.455a4.35 4.35 0 01-.995-.88l-.107.034h-.024l-.609.18-1.266.343c-.307.095-.62.168-.938.217h-.053c-.034 0-.101-.043-.068-.092a.667.667 0 01.223-.125l.343-.121c.16-.053.319-.097.483-.155.165-.058.363-.126.546-.179l.57-.183c.223-.078.445-.145.673-.218a1.174 1.174 0 01-.068-.097 1.585 1.585 0 01.077-1.773l.087-.102c.084-.089.177-.17.276-.242l.106-.072c.236-.16.513-.25.798-.256.07 0 .14.008.207.024.197.059.36.2.445.386.188.398.113.87-.188 1.19a.6.6 0 01-.484.154.798.798 0 01-.227-.048 1.015 1.015 0 01-.198-.116c-.063-.039-.164-.107-.193-.087-.03.02-.063.164-.03.256.078.177.184.34.315.483l.333-.12c.472-.16.935-.344 1.387-.552a23.35 23.35 0 002.78-1.566c.059-.038.12-.074.183-.106.14-.043.266-.034.324.073a.304.304 0 01-.12.386s-.15.092-.204.121l-.314.193-.406.242c-.87.511-1.782.948-2.726 1.305-.295.106-.59.203-.884.3h-.034l.034.029c.317.276.68.495 1.073.647.377-.193.744-.391 1.102-.613a22.89 22.89 0 002.561-1.905 1.61 1.61 0 01.174-.125c.13-.058.261-.068.329.029a.29.29 0 01-.058.391l-.189.15-.29.227c-.145.116-.29.232-.372.29a18.193 18.193 0 01-2.561 1.648l-.155.073c.138.03.279.051.42.063.218 0 .484.024.716 0h.193c.81-.648 1.576-1.35 2.291-2.103.048-.052.102-.099.16-.14.12-.077.25-.097.333 0a.285.285 0 010 .391l-.17.165-.265.26c-.135.126-.261.257-.338.325-.416.386-.807.725-1.19 1.034.143-.027.283-.063.421-.106a4.534 4.534 0 002.282-1.45c1.077-1.383 1.372-3.103 1.498-4.476l-1.339-.57a.715.715 0 01-.44-.324c-.3-.484-.067-.967.696-1.45l.198-.121h.03l.198-.126c.234-.161.496-.277.773-.343a.759.759 0 01.938.856c0 .029 0 .212-.073 1.45 1.295.483 2.973.966 4.684.594a4.568 4.568 0 002.31-1.42c.087-.098.179-.204.26-.315-.482.227-.966.445-1.522.662l-.44.164-.352.126-.223.077c-.154.03-.304 0-.357-.154-.053-.155.034-.223.154-.3.062-.033.127-.06.194-.082a22.93 22.93 0 002.963-1.175h.033c.034-.062.073-.125.102-.188.111-.222.208-.445.295-.657.052-.14.095-.281.13-.426l-.232.184a18.019 18.019 0 01-2.595 1.6l-.42.208-.334.135-.213.101c-.155.044-.31.03-.377-.116-.068-.145 0-.217.111-.309 0 0 .082-.048.194-.101a23.2 23.2 0 002.822-1.508 15.35 15.35 0 001.126-.798 3.712 3.712 0 00-.14-1.305c-.251.261-.483.522-.759.778-.732.7-1.523 1.338-2.363 1.905l-.396.26-.31.204-.198.125a.3.3 0 01-.396-.058c-.073-.101-.03-.217.067-.319a.967.967 0 01.174-.12 22.52 22.52 0 002.62-1.832c.5-.419.974-.866 1.421-1.34a1.605 1.605 0 00-.285-.483c-.068-.067-.193-.11-.242-.082-.048.03 0 .14 0 .213a.9.9 0 010 .232.653.653 0 01-.396.575 1.078 1.078 0 01-1.155-.324.71.71 0 01-.15-.57 1.3 1.3 0 01.633-.802c.178-.114.374-.196.58-.242a1.585 1.585 0 011.634.7.85.85 0 01.043.078l.406-.43.416-.435c.13-.145.26-.28.401-.416.14-.135.227-.246.343-.362l.261-.261a.575.575 0 01.213-.145c.058 0 .053.063.048.101a.174.174 0 010 .049 6.95 6.95 0 01-.6.754l-.845.99c-.145.165-.295.324-.445.484.198.418.325.865.377 1.324l.745-.609.483-.377c.15-.126.305-.246.46-.362.154-.116.255-.218.386-.324.13-.107.193-.145.295-.227a.677.677 0 01.227-.116c.058 0 .043.072.039.106v.053a8.7 8.7 0 01-.701.677l-.967.875c-.29.256-.585.483-.884.758v.097c-.015.42-.084.836-.208 1.237.546-.338 1.078-.7 1.614-1.044l.483-.333c.165-.111.329-.213.484-.314.154-.102.28-.189.425-.28l.314-.194a.619.619 0 01.237-.092c.058 0 .034.078 0 .111a.15.15 0 01-.024.049 6.975 6.975 0 01-.773.6c-.353.26-.711.516-1.069.772-.638.45-1.28.89-1.933 1.3a7.98 7.98 0 01-.532 1.016 6.336 6.336 0 01-.575.778 6.013 6.013 0 01-1.334 1.15c-.43.271-.898.48-1.387.619-1.817.517-3.678.034-5.138-.484-.164 1.547-.532 3.432-1.783 4.834a5.8 5.8 0 01-2.78 1.682c-.311.088-.63.15-.952.183h-.01z"/></g></svg>