<svg xmlns="http://www.w3.org/2000/svg" id="pervomaisky__Layer_1" enable-background="new 0 0 60 60" viewBox="0 0 60 60"><g id="pervomaisky__Symbols"><g id="pervomaisky__pervomaisky"><g id="pervomaisky__Group-3" transform="translate(0 .231)"><defs><filter id="pervomaisky__Adobe_OpacityMaskFilter" width="58.6" height="59.4" x=".6" y="-.2" filterUnits="userSpaceOnUse"><feColorMatrix values="1 0 0 0 0 0 1 0 0 0 0 0 1 0 0 0 0 0 1 0"/></filter></defs><mask id="pervomaisky__mask-4" width="58.6" height="59.4" x=".6" y="-.2" maskUnits="userSpaceOnUse"><g filter="url(#pervomaisky__Adobe_OpacityMaskFilter)"><path id="pervomaisky__path-3" fill="#fff" d="M59.2 59.2V-.2H.6v59.4z"/></g></mask><path id="pervomaisky__Fill-1" fill="#f9dc06" d="M59.2 29.5c0 16.4-13.1 29.7-29.3 29.7S.6 45.9.6 29.5 13.8-.2 29.9-.2s29.3 13.3 29.3 29.7" mask="url(#pervomaisky__mask-4)"/></g><path id="pervomaisky__Fill-4" d="M43.1 32.7c-1.8-1.1-1.1-3.2-.7-5 1.2 2.6 3.8 3.1 6 4.3-1.7.9-3.6 1.7-5.3.7m-5.7 3.6c-1.6.7-3.3.6-4.9.5-1.5-.1-3-.3-4.5-.5s-2.7.6-3.9 1.1c-.8.3-1.3.2-2-.5-1.6-1.5-2.1-3.2-1.6-5.3.1-.4.1-.8.1-1.3 1.1.1 2.1.6 3.1 1 2.3.9 4.5.6 6.8.1.5-.1 1-.4 1.5-.3 2.4.1 3.3-1.5 4-3.4-2.6-.6-5.2-.8-7.8-1.1-1.2-.1-2.1-.9-3-1.5-1.3-.7-2.5-1.5-3.8-2.3-.3-.2-.4-.4-.4-.7.1-.5.4-.3.7-.3 1.6-.1 3.3-.2 4.9-.3.7 0 1.3.1 1.9.3 3.4 1.4 6.9 2.4 10.3 3.6.6.2 1 .3.7 1.2-.4 1.1-.6 2.4-.9 3.5-.4 1.2-.1 1.8 1 2.3 1.1.5 2.2 1.1 3.5 1.7-2.1.9-3.9 1.5-5.7 2.2m14.4-8.9c.1-1.1-.4-1.8-1.4-2.1-.3-.1-.6-.2-.7-.4-.7-.3-1.6-.7-2.2-1-.1 0-.3-.1-.6-.2-.3-.2-.8-.1-1.2-.1-3.7.2-7.2-.4-10.8-1.3-3.8-.9-7.6-2.1-11.5-2.6-3.3-.4-6-1.9-8.6-3.8-.6-.4-1.2-1-1.8-1.4-.1-.1-.2-.1-.2-.2-.4-.1-1-.3-1.6-.5-.1.1-.3.2-.7.2-1.6-.1-3.1 0-4.7 0 1.5.9 3 1.9 4.6 2.7.1.1.2.1.3.2 1 .4 2.6 1.5 3.2 1.8.8.5 1.7 1 2.5 1.5.5.3.7.8.5 1.4v.1c-.4.2-.2.3-.3.5-.2.4-.3.8-.5 1.1l-.3.6c-.2.4-.2.8 0 1.1 1.8 2.1 2.1 4.7 2.3 7.2.3 2.6 1.8 4.5 3.2 6.4l5.4 8.1h.9c-.3-.4-.6-1.6-.7-1.8-.8-1.6-1.7-3.2-2.7-4.7-.2-.3-.3-.5-.3-.7 0-.3.2-.6.7-.7.1 0 .2-.1.4-.1 2.8-.9 2.8-.8 4.5 1.5 1 1.4 2.2 2.8 3.3 4.2.2.2.4.4.4.7.3.5 1.3 2.8 1.5 3.2.5 0 1 .2 1.4.2-.1-.5-1.1-3.2-1.2-3.5l-.1-.1c-1.5-2.2-3.1-4.2-4.4-6.6 1.2 0 2.3-.3 3.3 0 3.1 1 5.3-1.3 7.9-2.1 1.8-.5 3.5-1.4 5.3-2.1.7-.3 2.9-1.5 3.8-1.4 1-.1 2.1-.3 3.1-.5.1-.1.1-.2.2-.2-2-.9-2.3-2.7-2.2-4.6" class="pervomaisky__st3"/><path id="pervomaisky__Fill-6" fill="#fcfcfd" d="M42.4 27.7c1.2 2.6 3.8 3.1 6 4.3-1.8 1-3.6 1.8-5.3.8-1.8-1.2-1.1-3.3-.7-5.1"/><path id="pervomaisky__Fill-8" d="M26.8 45.8L2.6 41l.8 1.5L49 52.3s2.3-1.9 1.8-2c-.3-.1-24-4.5-24-4.5" class="pervomaisky__st3"/></g></g></svg>