<svg xmlns="http://www.w3.org/2000/svg" xmlns:xlink="http://www.w3.org/1999/xlink" width="80" height="80"><defs><linearGradient id="mchost__u" x1="14.791%" x2="54.42%" y1="-481.156%" y2="116.839%"><stop offset="0%" stop-color="#FFE6A2"/><stop offset="50%" stop-color="#FFC905"/><stop offset="100%" stop-color="#F9AB18"/></linearGradient><linearGradient id="mchost__O" x1="-13.017%" x2="253.939%" y1="92.824%" y2="-94.659%"><stop offset="11.2%" stop-color="#EFC73B"/><stop offset="24.2%" stop-color="#F0563C"/><stop offset="26.8%" stop-color="#E65451"/><stop offset="32.3%" stop-color="#D24F79"/><stop offset="36.6%" stop-color="#C64C91"/><stop offset="39.3%" stop-color="#C24B9A"/><stop offset="78.6%" stop-color="#00B2C0"/><stop offset="81.5%" stop-color="#00B26C"/><stop offset="100%" stop-color="#00B2C0"/></linearGradient><linearGradient id="mchost__c" x1="50.004%" x2="50.004%" y1="-12.161%" y2="103.009%"><stop offset="3.9%" stop-color="#7C9BBC"/><stop offset="5.7%" stop-color="#7497B9"/><stop offset="25.7%" stop-color="#21709E"/><stop offset="34.8%" stop-color="#006193"/><stop offset="45.3%" stop-color="#166399"/><stop offset="58.4%" stop-color="#3666A1"/><stop offset="70.3%" stop-color="#4C75A7"/><stop offset="77.5%" stop-color="#5B7FAC"/><stop offset="86.1%" stop-color="#3F6695"/><stop offset="97.2%" stop-color="#1E497B"/></linearGradient><linearGradient id="mchost__d" x1="80.824%" x2=".226%" y1="-6.975%" y2="116.469%"><stop offset="0%" stop-color="#00B7B4"/><stop offset="50%" stop-color="#B6E1DF"/><stop offset="100%" stop-color="#00ADA7"/></linearGradient><linearGradient id="mchost__e" x1="209.838%" x2="35.559%" y1="-499.368%" y2="99.664%"><stop offset="0%" stop-color="#00B7B4"/><stop offset="50%" stop-color="#B6E1DF"/><stop offset="100%" stop-color="#00ADA7"/></linearGradient><linearGradient id="mchost__f" x1="-16.55%" x2="106.64%" y1="-20.843%" y2="82.888%"><stop offset="0%" stop-color="#00A894"/><stop offset="50%" stop-color="#006EB8"/><stop offset="100%" stop-color="#00A94F"/></linearGradient><linearGradient id="mchost__g" x1="-106.767%" x2="997.39%" y1="-39.103%" y2="501.039%"><stop offset="0%" stop-color="#00A894"/><stop offset="50%" stop-color="#006EB8"/><stop offset="100%" stop-color="#00A94F"/></linearGradient><linearGradient id="mchost__h" x1="50.007%" x2="50.007%" y1="-198.878%" y2="201.073%"><stop offset="0%" stop-color="#282881"/><stop offset="9.7%" stop-color="#2A2C84"/><stop offset="19.8%" stop-color="#2F398C"/><stop offset="30.1%" stop-color="#384E99"/><stop offset="40.5%" stop-color="#456BAB"/><stop offset="48.9%" stop-color="#5188BE"/><stop offset="60.3%" stop-color="#3B5C99"/><stop offset="72.3%" stop-color="#273478"/><stop offset="83.4%" stop-color="#191860"/><stop offset="93%" stop-color="#100651"/><stop offset="100%" stop-color="#0D004C"/></linearGradient><linearGradient id="mchost__i" x1="50.049%" x2="50.049%" y1="-37.154%" y2="102.921%"><stop offset="0%" stop-color="#282881"/><stop offset="9.7%" stop-color="#2A2C84"/><stop offset="19.8%" stop-color="#2F398C"/><stop offset="30.1%" stop-color="#384E99"/><stop offset="40.5%" stop-color="#456BAB"/><stop offset="48.9%" stop-color="#5188BE"/><stop offset="60.3%" stop-color="#3B5C99"/><stop offset="72.3%" stop-color="#273478"/><stop offset="83.4%" stop-color="#191860"/><stop offset="93%" stop-color="#100651"/><stop offset="100%" stop-color="#0D004C"/></linearGradient><linearGradient id="mchost__j" x1="50%" x2="50%" y1="-37.154%" y2="102.921%"><stop offset="0%" stop-color="#282881"/><stop offset="9.7%" stop-color="#2A2C84"/><stop offset="19.8%" stop-color="#2F398C"/><stop offset="30.1%" stop-color="#384E99"/><stop offset="40.5%" stop-color="#456BAB"/><stop offset="48.9%" stop-color="#5188BE"/><stop offset="60.3%" stop-color="#3B5C99"/><stop offset="72.3%" stop-color="#273478"/><stop offset="83.4%" stop-color="#191860"/><stop offset="93%" stop-color="#100651"/><stop offset="100%" stop-color="#0D004C"/></linearGradient><linearGradient id="mchost__k" x1="49.951%" x2="49.951%" y1="-37.154%" y2="102.921%"><stop offset="0%" stop-color="#282881"/><stop offset="9.7%" stop-color="#2A2C84"/><stop offset="19.8%" stop-color="#2F398C"/><stop offset="30.1%" stop-color="#384E99"/><stop offset="40.5%" stop-color="#456BAB"/><stop offset="48.9%" stop-color="#5188BE"/><stop offset="60.3%" stop-color="#3B5C99"/><stop offset="72.3%" stop-color="#273478"/><stop offset="83.4%" stop-color="#191860"/><stop offset="93%" stop-color="#100651"/><stop offset="100%" stop-color="#0D004C"/></linearGradient><linearGradient id="mchost__l" x1="17.788%" x2="48.594%" y1="-381.967%" y2="31.055%"><stop offset="0%" stop-color="#FFE6A2"/><stop offset="50%" stop-color="#FFC905"/><stop offset="100%" stop-color="#F9AB18"/></linearGradient><linearGradient id="mchost__m" x1="50%" x2="50%" y1="-1453.656%" y2="104.981%"><stop offset="3.9%" stop-color="#7C9BBC"/><stop offset="5.7%" stop-color="#7497B9"/><stop offset="25.7%" stop-color="#21709E"/><stop offset="34.8%" stop-color="#006193"/><stop offset="45.3%" stop-color="#166399"/><stop offset="58.4%" stop-color="#3666A1"/><stop offset="70.3%" stop-color="#4C75A7"/><stop offset="77.5%" stop-color="#5B7FAC"/><stop offset="86.1%" stop-color="#3F6695"/><stop offset="97.2%" stop-color="#1E497B"/></linearGradient><linearGradient id="mchost__n" x1="91.363%" x2="14.881%" y1="-55.274%" y2="139.35%"><stop offset=".6%" stop-color="#FAC826"/><stop offset="25.3%" stop-color="#FFFACB"/><stop offset="30.5%" stop-color="#F8EEBA"/><stop offset="40.8%" stop-color="#E7D08D"/><stop offset="55.2%" stop-color="#CBA145"/><stop offset="59.6%" stop-color="#C2912E"/><stop offset="87.1%" stop-color="#EDD587"/><stop offset="100%" stop-color="#FFFACB"/></linearGradient><linearGradient id="mchost__o" x1="205.893%" x2="-167.158%" y1="-428.107%" y2="715.976%"><stop offset=".6%" stop-color="#FAC826"/><stop offset="25.3%" stop-color="#FFFACB"/><stop offset="30.5%" stop-color="#F8EEBA"/><stop offset="40.8%" stop-color="#E7D08D"/><stop offset="55.2%" stop-color="#CBA145"/><stop offset="59.6%" stop-color="#C2912E"/><stop offset="87.1%" stop-color="#EDD587"/><stop offset="100%" stop-color="#FFFACB"/></linearGradient><linearGradient id="mchost__p" x1="253.342%" x2="-119.007%" y1="-573.984%" y2="568.367%"><stop offset=".6%" stop-color="#FAC826"/><stop offset="25.3%" stop-color="#FFFACB"/><stop offset="30.5%" stop-color="#F8EEBA"/><stop offset="40.8%" stop-color="#E7D08D"/><stop offset="55.2%" stop-color="#CBA145"/><stop offset="59.6%" stop-color="#C2912E"/><stop offset="87.1%" stop-color="#EDD587"/><stop offset="100%" stop-color="#FFFACB"/></linearGradient><linearGradient id="mchost__q" x1="297.486%" x2="-74.739%" y1="-709.534%" y2="432.52%"><stop offset=".6%" stop-color="#FAC826"/><stop offset="25.3%" stop-color="#FFFACB"/><stop offset="30.5%" stop-color="#F8EEBA"/><stop offset="40.8%" stop-color="#E7D08D"/><stop offset="55.2%" stop-color="#CBA145"/><stop offset="59.6%" stop-color="#C2912E"/><stop offset="87.1%" stop-color="#EDD587"/><stop offset="100%" stop-color="#FFFACB"/></linearGradient><linearGradient id="mchost__r" x1="200.491%" x2="-171.963%" y1="-411.456%" y2="730.673%"><stop offset=".6%" stop-color="#FAC826"/><stop offset="25.3%" stop-color="#FFFACB"/><stop offset="30.5%" stop-color="#F8EEBA"/><stop offset="40.8%" stop-color="#E7D08D"/><stop offset="55.2%" stop-color="#CBA145"/><stop offset="59.6%" stop-color="#C2912E"/><stop offset="87.1%" stop-color="#EDD587"/><stop offset="100%" stop-color="#FFFACB"/></linearGradient><linearGradient id="mchost__s" x1="248.405%" x2="-124.233%" y1="-557.903%" y2="583.826%"><stop offset=".6%" stop-color="#FAC826"/><stop offset="25.3%" stop-color="#FFFACB"/><stop offset="30.5%" stop-color="#F8EEBA"/><stop offset="40.8%" stop-color="#E7D08D"/><stop offset="55.2%" stop-color="#CBA145"/><stop offset="59.6%" stop-color="#C2912E"/><stop offset="87.1%" stop-color="#EDD587"/><stop offset="100%" stop-color="#FFFACB"/></linearGradient><linearGradient id="mchost__t" x1="292.699%" x2="-80.061%" y1="-694.235%" y2="448.707%"><stop offset=".6%" stop-color="#FAC826"/><stop offset="25.3%" stop-color="#FFFACB"/><stop offset="30.5%" stop-color="#F8EEBA"/><stop offset="40.8%" stop-color="#E7D08D"/><stop offset="55.2%" stop-color="#CBA145"/><stop offset="59.6%" stop-color="#C2912E"/><stop offset="87.1%" stop-color="#EDD587"/><stop offset="100%" stop-color="#FFFACB"/></linearGradient><linearGradient id="mchost__b" x1="50%" x2="50%" y1="-12.161%" y2="103.021%"><stop offset="3.9%" stop-color="#7C9BBC"/><stop offset="5.7%" stop-color="#7497B9"/><stop offset="25.7%" stop-color="#21709E"/><stop offset="34.8%" stop-color="#006193"/><stop offset="45.3%" stop-color="#166399"/><stop offset="58.4%" stop-color="#3666A1"/><stop offset="70.3%" stop-color="#4C75A7"/><stop offset="77.5%" stop-color="#5B7FAC"/><stop offset="86.1%" stop-color="#3F6695"/><stop offset="97.2%" stop-color="#1E497B"/></linearGradient><linearGradient id="mchost__v" x1="179.258%" x2="-372.999%" y1="166.828%" y2="-276.164%"><stop offset=".6%" stop-color="#71A543"/><stop offset="3.6%" stop-color="#72973D"/><stop offset="11.2%" stop-color="#73762F"/><stop offset="17.5%" stop-color="#747830"/><stop offset="19.7%" stop-color="#767F36"/><stop offset="21.3%" stop-color="#7A8A3F"/><stop offset="22.6%" stop-color="#809B4C"/><stop offset="23.6%" stop-color="#87AE5A"/><stop offset="30.3%" stop-color="#8A865C"/><stop offset="40.8%" stop-color="#8E4E5F"/><stop offset="48.6%" stop-color="#912B60"/><stop offset="52.8%" stop-color="#921E61"/><stop offset="74.2%" stop-color="#76244B"/><stop offset="99.4%" stop-color="#57224D"/></linearGradient><linearGradient id="mchost__w" x1="150.658%" x2="-25.663%" y1="113.782%" y2="-.342%"><stop offset=".6%" stop-color="#71A543"/><stop offset="3.6%" stop-color="#72973D"/><stop offset="11.2%" stop-color="#73762F"/><stop offset="17.5%" stop-color="#747830"/><stop offset="19.7%" stop-color="#767F36"/><stop offset="21.3%" stop-color="#7A8A3F"/><stop offset="22.6%" stop-color="#809B4C"/><stop offset="23.6%" stop-color="#87AE5A"/><stop offset="30.3%" stop-color="#8A865C"/><stop offset="40.8%" stop-color="#8E4E5F"/><stop offset="48.6%" stop-color="#912B60"/><stop offset="52.8%" stop-color="#921E61"/><stop offset="74.2%" stop-color="#76244B"/><stop offset="99.4%" stop-color="#57224D"/></linearGradient><linearGradient id="mchost__N" x1="-136.449%" x2="117.24%" y1="186.411%" y2="1.201%"><stop offset="11.2%" stop-color="#EFC73B"/><stop offset="24.2%" stop-color="#F0563C"/><stop offset="26.8%" stop-color="#E65451"/><stop offset="32.3%" stop-color="#D24F79"/><stop offset="36.6%" stop-color="#C64C91"/><stop offset="39.3%" stop-color="#C24B9A"/><stop offset="78.6%" stop-color="#00B2C0"/><stop offset="81.5%" stop-color="#00B26C"/><stop offset="100%" stop-color="#00B2C0"/></linearGradient><linearGradient id="mchost__y" x1="47.673%" x2="56.176%" y1="-19.132%" y2="99.861%"><stop offset="2.2%" stop-color="#C79319"/><stop offset="6.8%" stop-color="#DFA31A"/><stop offset="10.1%" stop-color="#F3B11B"/><stop offset="23.3%" stop-color="#FBC533"/><stop offset="28.1%" stop-color="#FFCD3D"/><stop offset="44.9%" stop-color="#F7CA3A"/><stop offset="51%" stop-color="#F3D252"/><stop offset="63.9%" stop-color="#E8E890"/><stop offset="65.7%" stop-color="#E6EB99"/><stop offset="67.2%" stop-color="#E9E484"/><stop offset="70%" stop-color="#EEDA61"/><stop offset="72.9%" stop-color="#F2D144"/><stop offset="76.1%" stop-color="#F5CA2E"/><stop offset="79.5%" stop-color="#F7C51E"/><stop offset="83.4%" stop-color="#F9C215"/><stop offset="88.8%" stop-color="#F9C112"/><stop offset="90.5%" stop-color="#F6C92A"/><stop offset="94%" stop-color="#EDDC68"/><stop offset="96.6%" stop-color="#E6EB99"/></linearGradient><linearGradient id="mchost__z" x1="88.124%" x2="37.976%" y1="-56.665%" y2="90.401%"><stop offset=".6%" stop-color="#2B275C"/><stop offset="5.5%" stop-color="#312B63"/><stop offset="30.3%" stop-color="#4A3C84"/><stop offset="50%" stop-color="#5D4A92"/><stop offset="55.8%" stop-color="#5F4D94"/><stop offset="59.5%" stop-color="#659"/><stop offset="62.5%" stop-color="#7164A1"/><stop offset="65.2%" stop-color="#8278AD"/><stop offset="66.8%" stop-color="#8F89B7"/><stop offset="100%" stop-color="#2B275C"/></linearGradient><linearGradient id="mchost__A" x1="111.824%" x2="-90.668%" y1="-151.009%" y2="473.467%"><stop offset=".6%" stop-color="#2B275C"/><stop offset="5.5%" stop-color="#312B63"/><stop offset="30.3%" stop-color="#4A3C84"/><stop offset="50%" stop-color="#5D4A92"/><stop offset="55.8%" stop-color="#5F4D94"/><stop offset="59.5%" stop-color="#659"/><stop offset="62.5%" stop-color="#7164A1"/><stop offset="65.2%" stop-color="#8278AD"/><stop offset="66.8%" stop-color="#8F89B7"/><stop offset="100%" stop-color="#2B275C"/></linearGradient><linearGradient id="mchost__B" x1="51.017%" x2="49.26%" y1="-5.903%" y2="90.938%"><stop offset="0%" stop-color="#76723E"/><stop offset="2.3%" stop-color="#827241"/><stop offset="12.3%" stop-color="#B2734B"/><stop offset="19.9%" stop-color="#D07352"/><stop offset="24.2%" stop-color="#DB7354"/><stop offset="30.3%" stop-color="#E28345"/><stop offset="47%" stop-color="#F2AB21"/><stop offset="60.4%" stop-color="#FBC30B"/><stop offset="68.5%" stop-color="#FFCC03"/><stop offset="81.5%" stop-color="#DB7354"/><stop offset="100%" stop-color="#932E40"/></linearGradient><linearGradient id="mchost__C" x1="-79.882%" x2="2661.448%" y1="72.607%" y2="-404.411%"><stop offset="11.2%" stop-color="#EFC73B"/><stop offset="24.2%" stop-color="#F0563C"/><stop offset="26.8%" stop-color="#E65451"/><stop offset="32.3%" stop-color="#D24F79"/><stop offset="36.6%" stop-color="#C64C91"/><stop offset="39.3%" stop-color="#C24B9A"/><stop offset="78.6%" stop-color="#00B2C0"/><stop offset="81.5%" stop-color="#00B26C"/><stop offset="100%" stop-color="#00B2C0"/></linearGradient><linearGradient id="mchost__D" x1="-3259.021%" x2="588.221%" y1="526.809%" y2="-27.541%"><stop offset="11.2%" stop-color="#EFC73B"/><stop offset="24.2%" stop-color="#F0563C"/><stop offset="26.8%" stop-color="#E65451"/><stop offset="32.3%" stop-color="#D24F79"/><stop offset="36.6%" stop-color="#C64C91"/><stop offset="39.3%" stop-color="#C24B9A"/><stop offset="78.6%" stop-color="#00B2C0"/><stop offset="81.5%" stop-color="#00B26C"/><stop offset="100%" stop-color="#00B2C0"/></linearGradient><linearGradient id="mchost__E" x1="-196.541%" x2="318.342%" y1="120.219%" y2="-26.438%"><stop offset="11.2%" stop-color="#EFC73B"/><stop offset="24.2%" stop-color="#F0563C"/><stop offset="26.8%" stop-color="#E65451"/><stop offset="32.3%" stop-color="#D24F79"/><stop offset="36.6%" stop-color="#C64C91"/><stop offset="39.3%" stop-color="#C24B9A"/><stop offset="78.6%" stop-color="#00B2C0"/><stop offset="81.5%" stop-color="#00B26C"/><stop offset="100%" stop-color="#00B2C0"/></linearGradient><linearGradient id="mchost__F" x1="-1985.374%" x2="169.298%" y1="439.574%" y2="23.583%"><stop offset="11.2%" stop-color="#EFC73B"/><stop offset="24.2%" stop-color="#F0563C"/><stop offset="26.8%" stop-color="#E65451"/><stop offset="32.3%" stop-color="#D24F79"/><stop offset="36.6%" stop-color="#C64C91"/><stop offset="39.3%" stop-color="#C24B9A"/><stop offset="78.6%" stop-color="#00B2C0"/><stop offset="81.5%" stop-color="#00B26C"/><stop offset="100%" stop-color="#00B2C0"/></linearGradient><linearGradient id="mchost__G" x1="49.997%" x2="49.997%" y1="-68.285%" y2="183.745%"><stop offset="11.2%" stop-color="#EFC73B"/><stop offset="24.2%" stop-color="#F0563C"/><stop offset="26.8%" stop-color="#E65451"/><stop offset="32.3%" stop-color="#D24F79"/><stop offset="36.6%" stop-color="#C64C91"/><stop offset="39.3%" stop-color="#C24B9A"/><stop offset="78.6%" stop-color="#00B2C0"/><stop offset="81.5%" stop-color="#00B26C"/><stop offset="100%" stop-color="#00B2C0"/></linearGradient><linearGradient id="mchost__H" x1="49.984%" x2="49.984%" y1="165.136%" y2="-19.095%"><stop offset="11.2%" stop-color="#EFC73B"/><stop offset="24.2%" stop-color="#F0563C"/><stop offset="26.8%" stop-color="#E65451"/><stop offset="32.3%" stop-color="#D24F79"/><stop offset="36.6%" stop-color="#C64C91"/><stop offset="39.3%" stop-color="#C24B9A"/><stop offset="78.6%" stop-color="#00B2C0"/><stop offset="81.5%" stop-color="#00B26C"/><stop offset="100%" stop-color="#00B2C0"/></linearGradient><linearGradient id="mchost__I" x1="50%" x2="50%" y1="-45.612%" y2="126.473%"><stop offset="0%" stop-color="#282881"/><stop offset="9.7%" stop-color="#2A2C84"/><stop offset="19.8%" stop-color="#2F398C"/><stop offset="30.1%" stop-color="#384E99"/><stop offset="40.5%" stop-color="#456BAB"/><stop offset="48.9%" stop-color="#5188BE"/><stop offset="60.3%" stop-color="#3B5C99"/><stop offset="72.3%" stop-color="#273478"/><stop offset="83.4%" stop-color="#191860"/><stop offset="93%" stop-color="#100651"/><stop offset="100%" stop-color="#0D004C"/></linearGradient><linearGradient id="mchost__J" x1="50.032%" x2="50.032%" y1="-64.581%" y2="141.644%"><stop offset="0%" stop-color="#282881"/><stop offset="9.7%" stop-color="#2A2C84"/><stop offset="19.8%" stop-color="#2F398C"/><stop offset="30.1%" stop-color="#384E99"/><stop offset="40.5%" stop-color="#456BAB"/><stop offset="48.9%" stop-color="#5188BE"/><stop offset="60.3%" stop-color="#3B5C99"/><stop offset="72.3%" stop-color="#273478"/><stop offset="83.4%" stop-color="#191860"/><stop offset="93%" stop-color="#100651"/><stop offset="100%" stop-color="#0D004C"/></linearGradient><linearGradient id="mchost__K" x1="50%" x2="50%" y1="-303.942%" y2="333.09%"><stop offset="0%" stop-color="#282881"/><stop offset="9.7%" stop-color="#2A2C84"/><stop offset="19.8%" stop-color="#2F398C"/><stop offset="30.1%" stop-color="#384E99"/><stop offset="40.5%" stop-color="#456BAB"/><stop offset="48.9%" stop-color="#5188BE"/><stop offset="60.3%" stop-color="#3B5C99"/><stop offset="72.3%" stop-color="#273478"/><stop offset="83.4%" stop-color="#191860"/><stop offset="93%" stop-color="#100651"/><stop offset="100%" stop-color="#0D004C"/></linearGradient><linearGradient id="mchost__L" x1="344.075%" x2="4.463%" y1="-96.132%" y2="73.005%"><stop offset="0%" stop-color="#FFE6A2"/><stop offset="50%" stop-color="#FFC905"/><stop offset="100%" stop-color="#F9AB18"/></linearGradient><linearGradient id="mchost__M" x1="50%" x2="50%" y1="-229.475%" y2="2180.797%"><stop offset="3.9%" stop-color="#7C9BBC"/><stop offset="5.7%" stop-color="#7497B9"/><stop offset="25.7%" stop-color="#21709E"/><stop offset="34.8%" stop-color="#006193"/><stop offset="45.3%" stop-color="#166399"/><stop offset="58.4%" stop-color="#3666A1"/><stop offset="70.3%" stop-color="#4C75A7"/><stop offset="77.5%" stop-color="#5B7FAC"/><stop offset="86.1%" stop-color="#3F6695"/><stop offset="97.2%" stop-color="#1E497B"/></linearGradient><radialGradient id="mchost__x" cx="49.995%" cy="49.989%" r="55.434%" fx="49.995%" fy="49.989%" gradientTransform="matrix(1 0 0 .82815 0 .086)"><stop offset="0%" stop-color="#FFFACB"/><stop offset="11.5%" stop-color="#FAF1BA"/><stop offset="34.1%" stop-color="#EFD88D"/><stop offset="37.1%" stop-color="#EDD587"/><stop offset="68.5%" stop-color="#EABA10"/><stop offset="100%" stop-color="#C2912E"/></radialGradient><circle id="mchost__a" cx="40" cy="40" r="40"/></defs><g fill="none" fill-rule="evenodd"><use fill="#F3F3F3" xlink:href="#mchost__a"/><g fill-rule="nonzero" transform="translate(13 13)"><path fill="url(#mchost__b)" d="M25.987 24.634l.865-1.497-.274-.64-6.994-8.574-1.072.874 6.871 8.422"/><path fill="url(#mchost__c)" d="M28.377 29.76a1.524 1.524 0 01-.533-.107l-7.126 20.631 1.306.452 7.245-20.977h-.893z"/><path fill="url(#mchost__d)" d="M1.046 23.016A21.89 21.89 0 017.422 6.45l.976.977a20.51 20.51 0 00-5.973 15.52l-1.38.07.001-.001z"/><path fill="url(#mchost__e)" d="M3.319 22.434l-3.186.227.227 3.186 3.186-.229-.227-3.185z"/><path fill="url(#mchost__f)" d="M48.002 19.917l-1.321.404c-.098-.32-.204-.638-.317-.952l1.3-.467c.12.334.234.674.338 1.015zm-.723-2.013l-1.276.529a19.91 19.91 0 00-.406-.917l1.25-.59c.152.323.297.652.432.977zm-.914-1.934l-1.218.65a20.504 20.504 0 00-.494-.871l1.184-.71c.184.304.362.618.529.93v.001zm-1.1-1.836l-1.149.768a19.373 19.373 0 00-.577-.82l1.11-.822c.21.283.417.577.616.874zm-1.276-1.717l-1.067.876c-.21-.256-.432-.511-.656-.758l1.023-.93c.241.264.477.537.701.811zm-1.439-1.585l-.976.978a19.913 19.913 0 00-.726-.69l.927-1.024c.261.235.522.484.775.736zm-1.586-1.436l-.876 1.069c-.257-.21-.522-.418-.79-.616l.822-1.11c.286.212.57.433.845.658zm-1.719-1.272l-.768 1.148c-.278-.185-.56-.364-.846-.535l.709-1.186c.303.182.607.374.905.573zm-1.837-1.1l-.649 1.22-.036-.02c-.283-.15-.57-.295-.86-.432l.59-1.25c.31.146.618.301.92.462l.036.02h-.001zm-2.462.361a19.69 19.69 0 00-.935-.361l.467-1.3c.335.12.67.251.996.386l-.53 1.276h.002zm-1.887-.676c-.319-.097-.64-.187-.964-.269l.336-1.34c.345.086.692.183 1.031.287L33.06 6.71zm-1.941-.49a21.627 21.627 0 00-.99-.173l.206-1.366c.353.053.708.115 1.054.184l-.27 1.355zm-1.982-.297a20.575 20.575 0 00-1-.074l.07-1.38c.355.018.714.045 1.066.08l-.138 1.375h.002zm-2.003-.1c-.33 0-.667.007-1 .025l-.068-1.38c.357-.018.717-.028 1.07-.026l-.002 1.382zm-2 .098c-.33.032-.664.074-.995.122l-.202-1.367c.353-.052.707-.096 1.062-.13l.135 1.375zm-1.982.294a20.81 20.81 0 00-.98.219l-.332-1.342c.346-.085.693-.163 1.043-.233l.27 1.355h-.001z"/><path fill="#000" d="M46.547 50.028l-1.151-4.301 4.3 1.153M11.36 37.805l.96-2.471 1.658 2.067"/><path fill="url(#mchost__g)" d="M22.566 7.285l-2.919-1.043 2.363-2.007"/><path fill="#000" d="M35.546 42.816l-1.804-7.45 1.341-.323 1.807 7.447-1.344.325M19.71 44.85l-1.298-.479 2.05-5.561 1.298.477-2.05 5.563"/><path fill="url(#mchost__h)" d="M44.463 31.58H34.52v-1.382h9.943v1.382"/><path fill="url(#mchost__i)" d="M37.736 32.862h-1.382v-3.946h1.382v3.946"/><path fill="url(#mchost__j)" d="M40.104 32.862h-1.382v-3.946h1.382v3.946"/><path fill="url(#mchost__k)" d="M42.472 32.862H41.09v-3.946h1.382v3.946"/><path fill="url(#mchost__l)" d="M17.424 13.47l-3.195-3.933 1.072-.871 3.195 3.933-1.072.871"/><path fill="url(#mchost__m)" d="M22.996 51.708l-3.913-1.423.472-1.297 3.911 1.421-.472 1.299"/><path fill="url(#mchost__n)" d="M21.43 56.248l-3.948-1.407 1.406-3.949 3.949 1.407"/><path fill="url(#mchost__o)" d="M18.245 51.661l-.886-.316.211-.596.887.317"/><path fill="url(#mchost__p)" d="M17.775 53.02l-.887-.316.213-.596.887.317"/><path fill="url(#mchost__q)" d="M17.374 54.293l-.886-.317.212-.596.887.317"/><path fill="url(#mchost__r)" d="M23.769 53.665l-.887-.316.213-.596.886.317"/><path fill="url(#mchost__s)" d="M23.299 55.025l-.887-.317.212-.596.887.317"/><path fill="url(#mchost__t)" d="M22.898 56.296l-.887-.317.212-.595.887.317"/><circle cx="14.132" cy="8.198" r="1.563" fill="url(#mchost__u)"/><path fill="url(#mchost__v)" d="M13.437 45.209l1.341 2.794-3.091-.236"/><path fill="url(#mchost__w)" d="M4.712 36.427c.127.306.265.614.409.915l-1.247.596a24.098 24.098 0 01-.437-.975l1.274-.535h.001zm.863 1.809c.158.291.326.585.497.87l-1.182.714a18.869 18.869 0 01-.53-.93l1.216-.654zm1.037 1.714c.186.274.381.55.581.818l-1.107.826c-.213-.286-.422-.58-.619-.873l1.145-.772zm1.2 1.604c.212.257.433.51.658.755l-1.02.933a22.175 22.175 0 01-.704-.806l1.065-.882h.001zm1.352 1.48c.234.231.478.463.728.687L8.97 44.75a20.95 20.95 0 01-.779-.735l.973-.981zm1.49 1.337c.256.209.524.415.794.613l-.818 1.113a20.85 20.85 0 01-.846-.653l.871-1.073h-.001zm1.616 1.187c.275.182.561.36.85.532l-.706 1.187c-.308-.182-.61-.373-.905-.568l.761-1.153v.002z"/><path fill="url(#mchost__x)" d="M29.142 18.883a3.789 3.789 0 01-3.53-2.416 3.169 3.169 0 011.807-4.094 2.67 2.67 0 013.451 1.524l-1.287.5a1.288 1.288 0 00-1.665-.735 1.783 1.783 0 00-1.018 2.306 2.403 2.403 0 003.105 1.37 3.175 3.175 0 001.812-4.106 4.108 4.108 0 00-2.188-2.29 4.118 4.118 0 00-3.169-.071l-.499-1.288a5.485 5.485 0 014.225.095 5.484 5.484 0 012.92 3.056 4.559 4.559 0 01-2.6 5.892c-.449.176-.91.256-1.364.256v.001z"/><path fill="url(#mchost__y)" d="M40.425 49.02l-2.989-11.155 11.156 2.989-8.167 8.167zm-1.035-9.202l1.75 6.533 4.782-4.781-6.532-1.752z"/><path fill="url(#mchost__z)" d="M28.014 48.95v-1.383c11.285 0 20.467-9.182 20.467-20.467h1.382c0 12.047-9.802 21.85-21.85 21.85z"/><path fill="url(#mchost__A)" d="M49.143 24.27l.836 1.694 1.87.271-1.353 1.319.32 1.861-1.672-.879-1.672.879.319-1.861-1.352-1.32 1.869-.271"/><path fill="#000" d="M8.982 24.822v-.691l6.789-.008.001.691-6.79.007"/><path fill="#000" d="M6.584 24.479l3.377-1.384-.802 1.382.806 1.379m.845-2.496l-.001-.692 6.789-.007.002.69-6.79.007"/><path fill="#000" d="M19.998 23.002l-3.378 1.386.8-1.382-.803-1.38m33.196-8.815l-2.319-2.829.534-.438 2.32 2.829-.533.438"/><path fill="#000" d="M46.463 9.096c.375.905.56 1.54.802 2.314l2.213-1.813c-.27-.127-1.3-.696-2.112-1.24-.871-.585-1.609-1.156-2.04-1.565.317.502.734 1.336 1.136 2.304z"/><path fill="url(#mchost__B)" d="M23.162 31.889l-5.953 3.2 2.375.748-2.984 2.71 6.234-3.485-2.11-.695"/><path fill="url(#mchost__C)" d="M2.933 36.155l-.966-2.998 1.314-.425.968 2.999-1.315.425"/><path fill="url(#mchost__D)" d="M52.926 19.673l.87.632.346-1.018-.409-1.294-.868-.633-.348 1.018"/><path fill="url(#mchost__E)" d="M35.473 24.766l-1.895-3.283a2.28 2.28 0 00-.836-.836 2.245 2.245 0 00-1.14-.308h-3.79c-.816 0-1.57.434-1.979 1.14l-1.896 3.283a2.288 2.288 0 00-.002 2.284l1.894 3.283a2.287 2.287 0 001.977 1.143h3.79a2.279 2.279 0 001.98-1.139l1.893-3.283a2.28 2.28 0 00.004-2.283v-.001zm-1.769 1.918l-1.326 2.299a1.557 1.557 0 01-1.348.777h-2.653a1.554 1.554 0 01-1.348-.778l-1.326-2.299a1.55 1.55 0 010-1.556l1.326-2.297a1.552 1.552 0 011.348-.779h2.653c.283 0 .55.076.778.209.23.131.43.324.571.568l1.327 2.298a1.569 1.569 0 010 1.558h-.002z"/><path fill="url(#mchost__F)" d="M57.434 15.361a2.903 2.903 0 001.208 3.924L60 16.718l-2.566-1.358v.001z"/><path fill="url(#mchost__G)" d="M10.685 19.348l-2.658-2.67c-.832-.835-.66-1.965.149-2.546.902-.65 2.231-.194 2.51.953.28-1.147 1.607-1.603 2.51-.953.809.581.98 1.71.148 2.547l-2.659 2.67z"/><path fill="#000" d="M36.191 19.444l1.099-1.562-1.825-.561.261-.851 1.825.562-.031-1.908.889-.013.031 1.907 1.805-.618.29.842-1.807.618 1.146 1.526-.711.535-1.146-1.527-1.099 1.562"/><path fill="#000" d="M36.922 19.967l-.735-.516 1.095-1.574-1.82-.548.256-.86 1.834.555-.04-1.9.897-.022.039 1.917 1.794-.627.3.848-1.81.63 1.15 1.513-.714.546-1.156-1.53-1.09 1.569zm-1.2-3.489l-.25.846 1.819.55-1.093 1.575.719.495 1.093-1.556 1.16 1.527.699-.536-1.148-1.514 1.81-.632-.293-.83-1.795.623-.04-1.916-.883.021.039 1.902-1.836-.555z"/><path fill="url(#mchost__H)" d="M31.667 43.645h-1.383V40.93c.007-.485-.064-.806-.211-.955-.05-.05-.142-.116-.374-.116-.259 0-.341.084-.37.112-.21.215-.201.767-.198.948l.002.084v2.642h-1.382v-2.703c-.007-.357-.023-1.312.595-1.94.236-.239.662-.525 1.353-.525.693 0 1.12.287 1.358.527.627.637.615 1.587.61 1.945v2.695z"/><path fill="url(#mchost__I)" d="M4.25 8.184A3.93 3.93 0 01.322 4.26 3.93 3.93 0 014.249.333a3.93 3.93 0 013.925 3.926A3.93 3.93 0 014.25 8.184zm0-6.47A2.547 2.547 0 001.704 4.26a2.546 2.546 0 002.544 2.544A2.546 2.546 0 006.791 4.26 2.548 2.548 0 004.25 1.715z" transform="translate(6.067)"/><path fill="url(#mchost__J)" d="M4.21 7.534l-1.022-.175L4.287.983l1.021.175-1.099 6.376" transform="translate(6.067)"/><path fill="url(#mchost__K)" d="M7.348 5.319L.973 4.22l.175-1.022 6.376 1.099-.175 1.022" transform="translate(6.067)"/><path fill="url(#mchost__L)" d="M20.066 12.915l-.716-.713-3.801.887.772.769"/><path fill="url(#mchost__M)" d="M16.893 14.427l.82.816 3.802-.886-.876-.873"/><path fill="url(#mchost__N)" d="M31.008 8.947c.093.162.143.336.173.51l24.05-7.496-.41-1.32L30.575 8.2l.432.748z" transform="translate(2.697 16.18)"/><path fill="url(#mchost__O)" d="M23.033 10.551l-2.796.871-5.174-1.18-6.135 6.827-4.007-.874-4.61 1.438.412 1.318 4.26-1.328 4.436.966 6.127-6.82 4.746 1.082 3.449-1.075" transform="translate(2.697 16.18)"/></g></g></svg>