<svg xmlns="http://www.w3.org/2000/svg" xmlns:xlink="http://www.w3.org/1999/xlink" width="80" height="80"><defs><circle id="icases__a" cx="40" cy="40" r="40"/></defs><g fill="none" fill-rule="evenodd"><use fill="#000" xlink:href="#icases__a"/><g fill-rule="nonzero"><path fill="#499831" d="M13 39.765c0-2.3 1.874-4.165 4.183-4.165 2.311 0 4.185 1.866 4.185 4.165 0 5.099 2.097 9.737 5.476 13.1C30.224 56.23 34.88 58.32 40 58.32c5.12 0 9.778-2.089 13.156-5.453 3.379-3.364 5.477-8.002 5.477-13.1 0-2.3 1.873-4.166 4.183-4.166 2.312 0 4.184 1.866 4.184 4.165 0 7.399-3.037 14.12-7.928 18.991C54.18 63.626 47.43 66.65 40 66.65s-14.18-3.023-19.072-7.894C16.036 53.886 13 47.164 13 39.766z"/><path fill="#A9DB44" d="M45.634 21.063c-2.192-.668-3.423-2.975-2.75-5.15.675-2.177 2.997-3.4 5.19-2.73a26.747 26.747 0 0115.804 13.053c3.21 6.041 4.11 13.294 1.925 20.302-.675 2.176-2.997 3.398-5.19 2.729-2.19-.669-3.422-2.976-2.748-5.151 1.508-4.84.883-9.854-1.338-14.037-2.221-4.18-6.031-7.52-10.893-9.016z"/><path fill="#9CC244" d="M26.5 26.5a5.4 5.4 0 11-10.8 0 5.4 5.4 0 0110.8 0z"/><path fill="#006B34" d="M32.112 65.802c-2.177-.673-3.398-2.997-2.729-5.189.669-2.191 2.976-3.422 5.15-2.749 4.84 1.509 9.854.884 14.038-1.337 4.18-2.22 7.522-6.03 9.015-10.894.669-2.192 2.976-3.423 5.152-2.748 2.176.673 3.398 2.997 2.73 5.188a26.754 26.754 0 01-13.053 15.805c-6.042 3.21-13.296 4.11-20.303 1.924z"/><path fill="#8DBD2D" d="M26.5 26.5a5.4 5.4 0 11-10.8 0 5.4 5.4 0 0110.8 0z"/></g></g></svg>