<svg xmlns="http://www.w3.org/2000/svg" width="80" height="80"><defs><linearGradient id="youla__a" x1=".075%" x2="100.108%" y1="50.104%" y2="50.104%"><stop offset="0%" stop-color="#8574B4"/><stop offset="100%" stop-color="#305F83"/></linearGradient><linearGradient id="youla__b" x1="-.183%" x2="99.923%" y1="50.069%" y2="50.069%"><stop offset="0%" stop-color="#2D6785"/><stop offset="100%" stop-color="#499E63"/></linearGradient><linearGradient id="youla__c" x1=".01%" x2="100.002%" y1="49.938%" y2="49.938%"><stop offset="0%" stop-color="#96A239"/><stop offset="100%" stop-color="#AC7129"/></linearGradient><linearGradient id="youla__d" x1="-.014%" x2="99.968%" y1="50.117%" y2="50.117%"><stop offset="0%" stop-color="#D97A29"/><stop offset="100%" stop-color="#A42774"/></linearGradient><linearGradient id="youla__e" x1="-.09%" x2="99.848%" y1="49.952%" y2="49.952%"><stop offset="0%" stop-color="#5ACAEE"/><stop offset="100%" stop-color="#3492CD"/></linearGradient><linearGradient id="youla__f" x1=".039%" x2="99.898%" y1="50.26%" y2="50.26%"><stop offset="0%" stop-color="#D4DF4C"/><stop offset="100%" stop-color="#93C83F"/></linearGradient><linearGradient id="youla__g" x1="-.076%" x2="99.96%" y1="50.069%" y2="50.069%"><stop offset="0%" stop-color="#F8D10B"/><stop offset="100%" stop-color="#F89C1E"/></linearGradient><linearGradient id="youla__h" x1="24.258%" x2="76.983%" y1="50.097%" y2="50.097%"><stop offset="0%" stop-color="#EF4676"/><stop offset="100%" stop-color="#EF4676"/></linearGradient></defs><g fill="none" fill-rule="evenodd"><path fill="#F3F3F3" d="M40 0c22.091 0 40 17.909 40 39.993v.014C80 62.095 62.096 80 40 80 17.909 80 0 62.096 0 40 0 17.909 17.904 0 40 0z"/><path fill="url(#youla__a)" d="M18.621.553s15.303 3.873 16.543 4.212c1.28.3 1.038.64 1.038.64l-3.115 7.482L18.62.553z" transform="translate(16 16)"/><path fill="url(#youla__b)" d="M14.545 6.988c.399-.83 1.398-1.241 2.318-.941 0 0 28.49 9.25 29.688 9.59 1.2.338 1.04.64 1.04.64l-3.156 7.332c-.12.339-.56.488-.88.376 0 0-30.009-9.288-31.088-9.59-1.08-.338-1-.676-1-.676l3.078-6.731z" transform="translate(16 16)"/><path fill="url(#youla__c)" d="M3.117 17.443c.16-.415.68-.64 1.119-.527 0 0 34.923 9.176 36.122 9.477 1.2.339 1.04.64 1.04.64l-2.678 6.88c-.32.829-1.32 1.318-2.237 1.054 0 0-34.205-9.44-35.324-9.777-1.12-.301-1.04-.64-1.04-.64l2.997-7.107h.001z" transform="translate(16 16)"/><path fill="url(#youla__d)" d="M9.031 28.753c.36-.826 1.318-1.165 2.157-.752 0 0 17.663 8.575 18.861 9.102 1.199.564 1.039.79 1.039.79l-2.637 6.655c-.32.828-1.28 1.165-2.118.79 0 0-17.822-8.537-19.021-9.1-1.199-.564-1.039-.827-1.039-.827l2.758-6.658z" transform="translate(16 16)"/><path fill="url(#youla__e)" d="M14.225 6.458c.16-.414.68-.752 1.16-.752h19.859c.919 0 1.038-.339 1.038-.339l-2.797 7.22c-.16.414-.68.753-1.158.753 0 0-18.902-.038-19.86 0-.96.037-1.039.339-1.039.339l2.797-7.22z" transform="translate(16 16)"/><path fill="url(#youla__f)" d="M2.836 17.295c.16-.415.681-.752 1.16-.752h42.596c1.039 0 1.039-.34 1.039-.34l-2.677 7.221c-.16.413-.68.752-1.16.752H1.16c-1.04 0-1.04.339-1.04.339l2.717-7.22z" transform="translate(16 16)"/><path fill="url(#youla__g)" d="M9.031 28.16c.16-.415.68-.752 1.158-.752h30.169c1.04 0 1.04-.339 1.04-.339l-2.758 7.22c-.16.414-.68.752-1.16.752H7.354c-1.039 0-1.039.34-1.039.34l2.717-7.221z" transform="translate(16 16)"/><path fill="url(#youla__h)" d="M20.742 38.273h9.309c1.04 0 1.04-.338 1.04-.338l-2.836 7.22c-.16.413-.68.752-1.16.752h-9.469l3.116-7.634z" transform="translate(16 16)"/></g></svg>