<svg xmlns="http://www.w3.org/2000/svg" viewBox="0 0 80 80"><circle cx="40" cy="40" r="40" fill="#1c6763"/><path fill="#fff" d="M28.7 36.9c1.8-1.2 4-1 6-.4.1.7.1 1.4.1 2.1-1.1-.5-2.5-1-3.7-.4-1.2.5-1.4 2.1-.8 3.1.5.8 1.5.9 2.3.8v-.9h-.9c0-.5-.1-1.1 0-1.7h3.2v4.2c-1.8.3-3.7.6-5.4 0-.7-.2-1.3-.7-1.7-1.2.2.5.4 1 .5 1.4h-3c-.2-.4-.2-.9-.5-1.2h-2.3c-.2.4-.3.8-.5 1.2h-2.9c.2-.7.5-1.4.8-2.1-1 .2-2 .4-3 .1-.8-.2-1.5-.8-2-1.4-.1 1-.6 2.1-1.5 2.7-.8.6-1.8.8-2.7.8h-4v-7.7c1.5 0 3.1-.1 4.6 0 1.3.1 2.5.9 3.2 2 .2-.8.6-1.6 1.3-2 1.1-.1 2.2-.1 3.3 0 1.1.5 1.5 1.9 1.4 3h-3.8c.2.4.5.9 1 1 1 .2 2.1 0 2.9-.7.5-1.1.9-2.3 1.3-3.4h3.6c.6 1.5 1.1 2.9 1.6 4.4-.1-1.4.4-2.9 1.6-3.7m-12.1 1.3h2.2c-.1-.3-.1-.5-.3-.8-.3-.4-.8-.5-1.2-.3-.4.2-.5.7-.7 1.1m-7.2-.1V42c.7 0 1.6 0 2.1-.6.6-.9.5-2.4-.5-3-.4-.4-1-.3-1.6-.3m14.2.2c-.3.9-.5 1.8-.8 2.6h1.6c-.2-.9-.5-1.7-.8-2.6zm15.2-2.2c1.3-.2 2.6-.1 3.7.7 1 .7 1.6 1.9 1.7 3.1 0 1.2-.5 2.5-1.5 3.3-1.1.9-2.7 1.1-4.1.8-1.5-.3-2.8-1.5-3.1-2.9-.2-.9-.1-2 .3-2.8.5-1.3 1.7-2 3-2.2m.6 2.1c-.8.2-1.3 1.1-1.2 1.9-.1.9.7 1.9 1.7 1.8 1.1-.1 1.6-1.4 1.3-2.4-.2-.9-1-1.6-1.8-1.3zm5.9-1.6c1.4-1 3.3-.7 4.8-.1v2c-.8-.4-1.7-.8-2.6-.7-.2.1-.4.2-.5.4.8.7 2.1.8 2.9 1.6.7.7.8 1.9.3 2.8-.3.6-1 1-1.7 1.2-1.4.3-2.8.1-4.1-.4v-2.1c1 .4 2.1.9 3.2.5v-.5c-.9-.5-2.1-.7-2.8-1.6-.7-.9-.4-2.4.5-3.1zm5.3-.4h6.3v2h-1.8v5.6h-2.7v-5.6h-1.8c-.1-.7-.1-1.3 0-2zm6.8 0h2.8v7.7h-2.8v-7.7zm3.7 0h3c.9 1.2 1.8 2.5 2.7 3.8v-3.8h2.7v7.7h-2.9c-1-1.3-1.9-2.7-2.9-4-.1 1.3.1 2.7.1 4H61c.1-2.6.1-5.2.1-7.7zm9.5 0h2.7v7.6c-.9 0-1.7.1-2.6 0l-.1-.1c-.1-2.5 0-5 0-7.5z"/></svg>