<svg xmlns="http://www.w3.org/2000/svg" width="41" height="40" fill="none"><circle cx="20.5" cy="20" r="20" fill="#354656"/><path fill="#fff" fill-rule="evenodd" d="M29.159 17.577h-.395s0-.198-.011-.894c0-1.207-1.173-1.288-1.173-1.288H20.71c-.975 0-1.242 1.021-1.242 1.021v1.16h-.395v-.893c0-1.497 1.533-1.683 1.533-1.683h6.87c1.637 0 1.684 1.648 1.684 1.648v.929zm-10.087 5.385H19.48v.326c0 1.265 1.172 1.392 1.172 1.392s5.664.012 6.837.012c1.23 0 1.311-1.3 1.311-1.3l-.011-.441h.383v.453c0 1.59-1.683 1.683-1.683 1.683h-6.733c-1.764 0-1.683-1.788-1.683-1.788v-.337zm2.832-4.817l5.212-1.775-1.706 6.221-1.973.557 1.416-5.165-3.204 1.091.255-.929zm2.52.256l-.999.348-1.312 4.77.987-.278 1.323-4.84zM7.5 18.122h.592v2.113l1.59-2.113h.72l-1.393 1.811 1.462 2.391h-.72l-1.148-1.892-.523.673v1.22H7.5v-4.203zm3.83 0h-.58v4.202h.557l1.695-3.053v3.053h.58v-4.202h-.557l-1.695 3.065v-3.065zm2.856 0h.592v1.741h1.601v-1.74h.592v4.201h-.591V20.56h-1.614v1.764h-.592v-4.202h.012zm4.98-.07c-1.034 0-1.765.987-1.765 2.171 0 1.196.72 2.17 1.753 2.17s1.764-.986 1.764-2.17c0-1.195-.72-2.17-1.753-2.17zm-.012.674c.661 0 1.137.685 1.137 1.497 0 .836-.464 1.498-1.137 1.498-.662 0-1.138-.685-1.138-1.498 0-.835.476-1.497 1.138-1.497zm9.529.081h-1.068v-.685h2.728v.685h-1.068v3.517h-.592v-3.517zm3.529-.685h-1.51v4.202h1.556c.743 0 1.242-.395 1.242-1.149 0-.58-.267-.87-.662-1.033.244-.162.476-.441.476-.94 0-.29-.07-.523-.22-.708-.198-.244-.5-.372-.882-.372zm.522 1.196c0 .394-.255.58-.639.58h-.8v-1.114h.847c.383 0 .592.209.592.534zm.174 1.764c0 .395-.244.592-.65.592v-.011h-.987v-1.15h.94c.477 0 .697.22.697.57z" clip-rule="evenodd"/></svg>