<svg xmlns="http://www.w3.org/2000/svg" width="41" height="40" fill="none"><circle cx="20.5" cy="20" r="20" fill="#EC7C1C"/><path fill="#fff" fill-rule="evenodd" d="M7.834 15.838H7.5v2.121h.334v-1.787h1.11v.833h1.701v-3.839h1.569v-.832h1.815v3.146h.537v1.202h1.437v-3.146h3.11v1.228h.804V15.773H21.51v-2.237h4.126V16.554H27.547v-1.228h1.95v-.693h1.749v.693H32.857v2.628h.334v-2.962H31.58V14.3h-2.416v.694h-1.951v1.227H25.97V13.202h-4.794v2.237h-.924V14.43h-.804v-1.228h-3.779v3.146H14.9v-1.202h-.537V12H11.88V12.832H10.311v3.839H9.279v-.833H7.834zm.954 2.983H7.5v1.902h.385v-1.58h.903v-.322zm.172.474a1.214 1.214 0 00-.087.489c0 .304.083.542.25.715.167.173.392.259.675.259.28 0 .503-.087.67-.26.167-.174.25-.415.25-.723 0-.31-.083-.552-.252-.727-.168-.174-.392-.261-.673-.261-.155 0-.292.025-.41.075a.748.748 0 00-.246.172.891.891 0 00-.177.261zm.458.967c-.1-.112-.15-.275-.15-.491 0-.22.049-.383.146-.492a.49.49 0 01.383-.163c.16 0 .286.054.382.161.096.107.144.27.144.489 0 .22-.05.386-.148.497a.484.484 0 01-.378.165.488.488 0 01-.379-.166zm1.6-1.44v1.901h.386v-.717h.25c.173 0 .305-.01.397-.027a.525.525 0 00.36-.278.624.624 0 00.063-.294.59.59 0 00-.11-.37.499.499 0 00-.274-.187c-.07-.02-.222-.029-.456-.029h-.615zm.386.863v-.542h.184c.139 0 .23.004.276.013.062.011.113.04.154.085.04.045.06.102.06.171a.248.248 0 01-.163.242.983.983 0 01-.302.03h-.21zm1.359-.39a1.214 1.214 0 00-.087.489c0 .304.083.542.25.715.167.173.393.259.676.259.279 0 .502-.087.67-.26.166-.174.25-.415.25-.723 0-.31-.084-.552-.252-.727-.169-.174-.393-.261-.674-.261-.155 0-.291.025-.41.075a.748.748 0 00-.246.172.891.891 0 00-.177.261zm.458.967c-.1-.112-.15-.275-.15-.491 0-.22.05-.383.146-.492a.49.49 0 01.384-.163c.159 0 .286.054.381.161.096.107.144.27.144.489 0 .22-.049.386-.147.497a.485.485 0 01-.378.165.488.488 0 01-.38-.166zm3.032-1.44h-1.312v.2c0 .328-.013.6-.038.815a1.763 1.763 0 01-.156.565h-.162v.736h.321v-.415H16.1v.415h.322v-.736h-.168v-1.58zm-1.105 1.58c.106-.264.16-.684.16-1.26h.56v1.26h-.72zm3.12-.266l-.372-.114a.565.565 0 01-.159.306.385.385 0 01-.264.098.422.422 0 01-.337-.153c-.087-.102-.13-.273-.13-.514 0-.226.044-.39.132-.491a.433.433 0 01.343-.152c.102 0 .189.029.26.086a.405.405 0 01.142.233l.38-.09a.75.75 0 00-.195-.351.79.79 0 00-.568-.207.84.84 0 00-.645.263c-.163.175-.245.421-.245.738 0 .3.082.536.244.708a.82.82 0 00.623.26.809.809 0 00.506-.153c.132-.102.228-.257.285-.467zm.72-1.315h-.385v1.902h.385v-.831c.064 0 .112.013.143.036.031.024.07.082.12.176l.047.09.008.012.015.028.228.49H20l-.259-.521a1.986 1.986 0 00-.183-.311.394.394 0 00-.212-.147.387.387 0 00.145-.125.865.865 0 00.076-.165c.044-.124.077-.206.1-.246a.221.221 0 01.087-.089.383.383 0 01.173-.029l.055.001v-.284l-.056.001c-.177 0-.305.026-.385.076-.08.05-.16.178-.24.384-.062.162-.11.26-.14.296-.03.036-.088.058-.173.067v-.81zm1.239.474a1.212 1.212 0 00-.088.489c0 .304.084.542.25.715.168.173.393.259.676.259.28 0 .503-.087.67-.26.167-.174.25-.415.25-.723 0-.31-.084-.552-.252-.727-.169-.174-.393-.261-.673-.261-.155 0-.292.025-.41.075a.75.75 0 00-.246.172.89.89 0 00-.177.261zm.458.967c-.1-.112-.15-.275-.15-.491 0-.22.049-.383.146-.492a.49.49 0 01.383-.163c.16 0 .286.054.382.161.096.107.144.27.144.489 0 .22-.05.386-.148.497a.485.485 0 01-.378.165.488.488 0 01-.38-.166zm1.6-1.44v1.901h1.445v-.321h-1.06v-.515h.951v-.322h-.95v-.422h1.022v-.322h-1.408zm2.938.32v1.581h.385v-1.58h.56v-.322H24.66v.322h.563zm2.326 1.581h.415l-.762-1.902h-.407l-.738 1.902h.407l.158-.433h.763l.164.433zm-.553-1.458l.264.704h-.521l.257-.704zm1.564-.444h-.386v1.902h.386v-.831c.064 0 .111.013.143.036.03.024.07.082.119.176a2.022 2.022 0 00.055.102l.015.028.228.49h.452l-.26-.521a1.988 1.988 0 00-.183-.312.394.394 0 00-.211-.146.387.387 0 00.144-.125.86.86 0 00.076-.165c.044-.124.077-.206.1-.246a.22.22 0 01.088-.089.383.383 0 01.173-.03l.054.002v-.284l-.056.001c-.177 0-.305.026-.384.076-.08.05-.16.178-.24.384-.063.162-.11.26-.14.296-.03.036-.088.058-.174.066v-.81zm2.784 1.315l-.372-.114a.565.565 0 01-.159.306.385.385 0 01-.263.098.422.422 0 01-.338-.153c-.087-.102-.13-.273-.13-.514 0-.226.044-.39.132-.491a.433.433 0 01.344-.152c.101 0 .188.029.26.086a.404.404 0 01.14.233l.38-.09a.75.75 0 00-.194-.351.79.79 0 00-.567-.207.84.84 0 00-.645.263c-.164.175-.246.421-.246.738 0 .3.082.536.244.708a.82.82 0 00.624.26c.204 0 .372-.052.505-.153.133-.102.228-.257.285-.467zm.694-1.315h-.359v1.902h.383l.77-1.245v1.245h.359v-1.902h-.383l-.77 1.267V18.82z" clip-rule="evenodd"/><path fill="#2B2B2A" d="M11.08 22.028v.278L8.75 27.12H7.616l2.067-4.15H7.5v-.942h3.58zm2.569 0v5.092h-1.042v-3.857l-.964.308-.247-.918 1.906-.625h.347zm3.155 5.185c-.442 0-.815-.118-1.118-.355a2.113 2.113 0 01-.68-.96 3.91 3.91 0 01-.223-1.362c0-.777.172-1.404.517-1.883.345-.478.846-.717 1.504-.717.659 0 1.159.239 1.501.717.342.479.513 1.106.513 1.883 0 .504-.075.958-.224 1.361-.149.404-.374.725-.675.961-.3.237-.672.355-1.115.355zm.942-2.67c0-.54-.076-.948-.228-1.226-.152-.278-.39-.417-.714-.417-.329 0-.57.14-.72.417-.153.277-.229.686-.229 1.227 0 1.136.317 1.704.95 1.704.627 0 .94-.568.94-1.704zm1.851-.331h1.944v.872h-1.944v-.872zm6.165-2.184v.278l-2.33 4.814h-1.134l2.067-4.15h-2.183v-.942h3.58zm2.569 0v5.092h-1.042v-3.857l-.964.308-.247-.918 1.906-.625h.347zm3.155 5.185c-.442 0-.815-.118-1.118-.355a2.113 2.113 0 01-.68-.96 3.909 3.909 0 01-.223-1.362c0-.777.172-1.404.517-1.883.345-.478.846-.717 1.504-.717.659 0 1.159.239 1.5.717.343.479.514 1.106.514 1.883 0 .504-.075.958-.224 1.361-.149.404-.374.725-.675.961-.3.237-.672.355-1.115.355zm.942-2.67c0-.54-.076-.948-.228-1.226-.152-.278-.39-.417-.714-.417-.329 0-.57.14-.721.417-.152.277-.228.686-.228 1.227 0 1.136.317 1.704.95 1.704.627 0 .94-.568.94-1.704z"/></svg>