<svg xmlns="http://www.w3.org/2000/svg" width="40" height="40" fill="none"><path fill="#262626" d="M20 40c11.046 0 20-8.954 20-20S31.046 0 20 0 0 8.954 0 20s8.954 20 20 20z"/><path fill="url(#yandex-money__paint0_linear)" d="M24.161 5.564l-11.966 7.698a3.6 3.6 0 00-1.655 3.033l-.025 12.382a1.821 1.821 0 001.819 1.823h15.825a1.455 1.455 0 001.452-1.453V16.073a.988.988 0 00-.988-.988h-4.318l.03-9.427a.11.11 0 00-.117-.112c-.02 0-.04.007-.057.018z"/><path fill="url(#yandex-money__paint1_linear)" d="M29.606 24.715l-15.094 3.823c-.346.09-.548-.375-.252-.573l10.03-6.561.005-6.319h4.5c.45 0 .81.36.81.81v8.82z"/><path fill="#171717" d="M20.922 16.9c.694-.804.833-1.821.31-2.273-.522-.45-1.508-.165-2.202.638-.694.804-.832 1.82-.31 2.272.523.451 1.509.166 2.202-.638z"/><defs><linearGradient id="yandex-money__paint0_linear" x1="9.095" x2="29.999" y1="10.578" y2="20.849" gradientUnits="userSpaceOnUse"><stop stop-color="#FFF000"/><stop offset=".598" stop-color="gold"/><stop offset="1" stop-color="#FC0"/></linearGradient><linearGradient id="yandex-money__paint1_linear" x1="19.663" x2="35.226" y1="21.776" y2="18.871" gradientUnits="userSpaceOnUse"><stop stop-color="#F0B200"/><stop offset="1" stop-color="#FFD900"/></linearGradient></defs></svg>