<svg xmlns="http://www.w3.org/2000/svg" width="40" height="40"><circle cx="20" cy="20" r="20"/><path fill="#fff" d="M19.78 20.544v3.943h-1.232v-9.733h3.268a2.906 2.906 0 012.111.846 2.838 2.838 0 010 4.113c-.573.552-1.277.83-2.111.83H19.78zm0-4.595v3.4h2.066a1.6 1.6 0 001.217-.505 1.73 1.73 0 00-.038-2.414 1.668 1.668 0 00-1.179-.481H19.78zm7.874 1.659c.91 0 1.63.249 2.158.738s.788 1.172.788 2.033v4.106h-1.178v-.923h-.054c-.513.76-1.186 1.14-2.035 1.14-.72 0-1.332-.217-1.814-.651a2.071 2.071 0 01-.727-1.63c0-.691.26-1.234.773-1.646.513-.411 1.201-.613 2.058-.613.735 0 1.332.14 1.806.404v-.287c0-.427-.183-.831-.505-1.11a1.777 1.777 0 00-1.186-.458c-.689 0-1.232.295-1.63.885l-1.086-.691c.581-.862 1.461-1.297 2.632-1.297zm-1.592 4.836c0 .326.153.629.406.815.275.217.612.334.956.326.52 0 1.018-.21 1.385-.582.406-.388.613-.846.613-1.374-.383-.31-.919-.466-1.607-.458-.498 0-.919.124-1.255.365-.33.24-.498.543-.498.908z"/><path fill="#fff" fill-rule="evenodd" d="M37.364 17.826l-4.116 9.586h-1.27l1.53-3.353-2.701-6.233h1.339l1.951 4.782h.023l1.905-4.782h1.34z" clip-rule="evenodd"/><path fill="#4285F4" fill-rule="evenodd" d="M14.799 19.69c0-.38-.03-.76-.092-1.133H9.511v2.15h2.977a2.59 2.59 0 01-1.102 1.7v1.397h1.776c1.04-.97 1.637-2.406 1.637-4.114z" clip-rule="evenodd"/><path fill="#34A853" fill-rule="evenodd" d="M9.511 25.155c1.485 0 2.74-.497 3.65-1.35l-1.775-1.398c-.497.342-1.132.536-1.874.536-1.44 0-2.656-.986-3.092-2.305H4.591v1.443a5.495 5.495 0 004.92 3.074z" clip-rule="evenodd"/><path fill="#FBBC04" fill-rule="evenodd" d="M6.42 20.637a3.418 3.418 0 010-2.143V17.06H4.59a5.612 5.612 0 000 5.014l1.829-1.436z" clip-rule="evenodd"/><path fill="#EA4335" fill-rule="evenodd" d="M9.512 16.19a2.942 2.942 0 012.112.837l1.576-1.599a5.276 5.276 0 00-3.688-1.451 5.502 5.502 0 00-4.92 3.081l1.829 1.444c.436-1.327 1.652-2.313 3.091-2.313z" clip-rule="evenodd"/></svg>