<svg xmlns="http://www.w3.org/2000/svg" viewBox="0 0 80 80"><circle cx="40" cy="40" r="40" fill="#2e3191"/><path fill="#f7f7f7" d="M16.2 47c-1.8 1.8-5 2-5-1.6 0-2.3 1-3.7 1.6-3.7.7 0 .8 1.5.6 2.8 1.9.4 2.7-.7 2.7-2s-1.2-2.1-3.3-2.1c-2.9 0-4.9 2.4-4.9 5.2 0 3.5 1.9 5 4.8 5 1.8 0 4-1.3 3.5-3.5.2 0 .1 0 0-.1zm37.1.9v-2.7c0-1 .3-1.7.3-1.7s-.5-.5-1.7-.5c-1.1 0-1.7.5-1.7.5s.3.6.3 1.7v.9c-.1.5-.3.8-.8.8-.3 0-.5-.2-.5-.7v-1.3c0-1.4-.7-2-1.8-2-1.4 0-1.9 1.1-1.9 1.1s.9.3.9 1.5v1.3c0 1.4.8 1.9 1.9 1.9 1.1 0 1.9-.7 2.2-1.4v1.1c0 1.4.7 2 1.8 2 1.4 0 1.9-1.1 1.9-1.1s-.9-.2-.9-1.4zm17.5 0v-2.7c0-1 .3-1.7.3-1.7s-.5-.5-1.7-.5c-1.1 0-1.7.5-1.7.5s.3.6.3 1.7v2.4c-.1.5-.4.9-.8.9-.3 0-.5-.2-.5-.7v-2.9c0-1.4-.7-2-1.8-2C63.5 43 63 44 63 44s.9.3.9 1.5v3c0 1.4.8 1.9 1.9 1.9 1.1 0 2-.7 2.2-1.5.1 1.1.8 1.5 1.8 1.5 1.4 0 1.9-1.1 1.9-1.1s-.9-.2-.9-1.4zm-29.3-5c-2.3 0-3.9 1.6-3.9 3.8 0 2.2 1.6 3.8 3.9 3.8s3.9-1.6 3.9-3.8c0-2.2-1.6-3.8-3.9-3.8zm0 6.4c-.5 0-.8-1-.8-2.5 0-1.6.3-2.5.8-2.5.6 0 .8.9.8 2.5 0 1.5-.2 2.5-.8 2.5zm18.7-2.9c.9-.7 1.7-1.6 2.2-2.7 0 0-.6-.8-1.9-.8-1.3 0-1.9.8-1.9.8 1 .7.8 1.3.5 1.7-.3.4-.6.8-1 1.2v-1.7c0-1.4-.7-2-1.8-2-1.3.1-1.8 1.1-1.8 1.1s.9.3.9 1.6v2.7c0 1-.3 1.7-.3 1.7s.6.5 1.7.5 1.7-.5 1.7-.5-.3-.6-.3-1.7v-1.1.1c.3 1.2 1.3 3.2 2.8 3.2 1.7 0 1.9-1.9 1.9-1.9-1.3-.4-2.2-1.2-2.7-2.2zm-38.9-1c-.5 0-.8.1-1 .1v-.6c0-1.4-.7-2-1.8-2-1.4 0-1.9 1.1-1.9 1.1s.9.3.9 1.6V48c0 1.5.7 2.6 3.2 2.6 2.1 0 3.2-1.1 3.2-2.6.2-2-1.2-2.6-2.6-2.6zm-.4 3.9c-.4 0-.6-.6-.6-1.3v-1.4c.8 0 1.1.3 1.1 1.4.1.7-.1 1.3-.5 1.3zm15.4-1.4v-2.7c0-1 .3-1.7.3-1.7s-.6-.5-1.7-.5-1.7.5-1.7.5.3.6.3 1.7v.7h-1.4V45c0-1.4-.7-2-1.8-2-1.4 0-1.9 1.1-1.9 1.1s.9.3.9 1.5v2.7c0 1-.3 1.7-.3 1.7s.6.5 1.7.5 1.7-.5 1.7-.5-.3-.6-.3-1.7v-.8h1.4v1c0 1.4.7 2 1.8 2 1.4 0 1.9-1.1 1.9-1.1s-.9-.3-.9-1.5zm-9 0v-2.7c0-1 .3-1.7.3-1.7s-.6-.5-1.7-.5-1.7.5-1.7.5.3.6.3 1.7v3.4c0 1.4.7 2 1.8 2 1.4 0 1.9-1.1 1.9-1.1s-.9-.4-.9-1.6zm39.2-15.3s-.7.7-1.2.7h-1.4c-.7 0-1.1.6-1.1 1v1.1h2.7c1.1 0 1.6-.5 1.6-1.3 0-1.1-.6-1.5-.6-1.5zm-38.9 3.7h-1.1v-7s-1.3-.2-3.3-.2c-2 0-3.4.2-3.4.2v1.9c0 3.9-1.3 5.2-1.3 5.2h-1.1v3c0 1.2.6 1.7 1.7 1.7 1 0 1.7-.6 1.7-.6s-.5-.9-.5-2.2h4.4v1c0 1.2.4 1.7 1.6 1.7 1 0 1.7-.6 1.7-.6s-.4-.8-.4-2.3v-1.8zm-3.9 0h-2.3c.4-.6 1-2.5 1-5.4 0 0 .3-.1.7-.1.4 0 .6.1.6.1v5.4zm27.1-1.9c.9-.7 1.7-1.6 2.2-2.7 0 0-.6-.8-1.9-.8-1.3 0-1.9.8-1.9.8 1 .7.8 1.3.5 1.7-.4.6-.8 1-1 1.2v-1.7c0-1.4-.7-2-1.8-2-1.4 0-1.9 1.1-1.9 1.1s.9.3.9 1.6v2.7c0 1-.3 1.7-.3 1.7s.6.5 1.7.5S49 38 49 38s-.3-.6-.3-1.7v-1.1.1c.4 1.2 1.3 3.2 2.8 3.2 1.7 0 1.9-1.9 1.9-1.9-1.2-.5-2.1-1.2-2.6-2.2zm10.6 1.5v-2.7c0-1 .3-1.7.3-1.7s-.6-.5-1.7-.5-1.7.5-1.7.5.3.7.3 1.7v2.4c-.1.5-.4.9-.8.9-.3 0-.5-.2-.5-.7v-2.9c0-1.4-.7-2-1.8-2-1.4 0-1.9 1.1-1.9 1.1s.9.3.9 1.5v3c0 1.4.8 1.9 1.9 1.9 1.1 0 2-.7 2.2-1.5.1 1.1.8 1.5 1.8 1.5 1.4 0 1.9-1.1 1.9-1.1s-.9-.2-.9-1.4zm-29.3-5c-2.3 0-3.9 1.6-3.9 3.8 0 2.2 1.6 3.8 3.9 3.8s3.9-1.6 3.9-3.8c0-2.2-1.6-3.8-3.9-3.8zm0 6.4c-.5 0-.8-1-.8-2.5 0-1.6.3-2.5.8-2.5.6 0 .8.9.8 2.5 0 1.5-.3 2.5-.8 2.5zm11.8-1.4v-2.7c0-1 .3-1.7.3-1.7s-.6-.5-1.7-.5-1.7.5-1.7.5.3.7.3 1.7v.8c-.1.5-.3.8-.8.8-.3 0-.5-.2-.5-.7v-1.3c0-1.4-.7-2-1.8-2-1.4 0-1.9 1.1-1.9 1.1s.9.3.9 1.5v1.3c0 1.4.8 1.9 1.9 1.9 1.1 0 1.9-.7 2.2-1.4v1.1c0 1.4.7 2 1.8 2 1.4 0 1.9-1.1 1.9-1.1s-.9-.1-.9-1.3z"/></svg>