<svg xmlns="http://www.w3.org/2000/svg" width="41" height="40" fill="none"><path fill="url(#yandex-eda__paint0_linear)" fill-rule="evenodd" d="M20.5 40c11.046 0 20-8.954 20-20s-8.954-20-20-20S.5 8.954.5 20s8.954 20 20 20z" clip-rule="evenodd"/><path fill="#fff" d="M20.723 18.3h-.167a.834.834 0 00-.4.225 1.167 1.167 0 00-.316.559 1.51 1.51 0 00.025.816c.103.324.293.612.55.834.297.262.66.438 1.05.508.447.082.909.038 1.333-.125a2.833 2.833 0 001.233-.9c.36-.452.591-.993.667-1.567a3.542 3.542 0 00-.25-1.858 3.866 3.866 0 00-2.2-2.167 4.334 4.334 0 00-2.292-.25 4.659 4.659 0 00-2.266 1 5.034 5.034 0 00-1.55 2.167 5.4 5.4 0 00-.267 2.833 5.733 5.733 0 001.258 2.734 6.042 6.042 0 004.234 2.183 6.5 6.5 0 003.375-.625 6.866 6.866 0 002.75-2.35 7.25 7.25 0 001.25-3.592 7.616 7.616 0 00-.75-3.908 7.916 7.916 0 00-2.717-3.133 8.209 8.209 0 00-4.083-1.392 8.525 8.525 0 00-4.392.883 8.891 8.891 0 00-3.492 3.092 9.283 9.283 0 00-1.525 4.608 9.659 9.659 0 001.009 4.917 9.951 9.951 0 005.866 5.058c1.753.582 3.628.686 5.434.3a10.717 10.717 0 005-2.558c.358.392 1.241 1.383 1.525 1.683a13.183 13.183 0 01-6.059 3.092 12.8 12.8 0 01-6.608-.358 12.5 12.5 0 01-5.392-3.559 12.217 12.217 0 01-2.816-5.616 11.925 11.925 0 01.358-6.109 11.55 11.55 0 013.267-4.958 11.167 11.167 0 015.15-2.558 10.8 10.8 0 015.566.358 10.474 10.474 0 014.484 3.025 10.183 10.183 0 012.283 4.717 9.883 9.883 0 01-.367 5.05 9.524 9.524 0 01-2.75 4.041 9.141 9.141 0 01-4.25 2.034 8.774 8.774 0 01-4.516-.375 8.459 8.459 0 01-3.575-2.509 8.169 8.169 0 01-1.75-3.808 7.851 7.851 0 01.375-4 7.484 7.484 0 012.25-3.133 7.108 7.108 0 013.35-1.492 6.758 6.758 0 013.466.4 6.433 6.433 0 012.667 2 6.133 6.133 0 011.2 2.917 5.809 5.809 0 01-.4 2.95 5.449 5.449 0 01-1.75 2.2 5.09 5.09 0 01-2.467.941 4.743 4.743 0 01-2.425-.433 4.417 4.417 0 01-1.733-1.517 4.109 4.109 0 01-.642-2.041c-.014-.67.15-1.332.475-1.917a3.417 3.417 0 011.3-1.258 3.084 3.084 0 011.634-.325 2.584 2.584 0 011.408.583c.323.28.562.643.692 1.05a1.131 1.131 0 01-.713 1.438 1.135 1.135 0 01-1.437-.713l-.034-.058a.476.476 0 00-.133-.042v.008z"/><defs><linearGradient id="yandex-eda__paint0_linear" x1=".5" x2="40.5" y1="40" y2="0" gradientUnits="userSpaceOnUse"><stop stop-color="#F4970F"/><stop offset="1" stop-color="#FFE600"/></linearGradient></defs></svg>