<svg xmlns="http://www.w3.org/2000/svg" width="60" height="60"><g fill="none" fill-rule="evenodd"><path fill="#00985F" d="M30 0c16.569 0 30 13.432 30 29.995v.01C60 46.571 46.572 60 30 60 13.431 60 0 46.572 0 30 0 13.431 13.428 0 30 0z"/><path fill="#FFF" d="M31.835 15v15.534l-.002.002a1.225 1.225 0 01-1.226 1.215H28.76a.167.167 0 00-.166.168v13.016c.457.042.92.065 1.388.065C38.276 45 45 38.258 45 29.942 45 22.256 39.255 15.916 31.835 15zm-.429 23.438a1.875 1.875 0 110-3.75 1.875 1.875 0 010 3.75zm4.688 0a1.875 1.875 0 110-3.75 1.875 1.875 0 010 3.75zm4.218 0a1.875 1.875 0 110-3.75 1.875 1.875 0 010 3.75zM30.09 29.934c.09 0 .163-.069.169-.156V15.003h.21a14.177 14.177 0 00-.26-.003C21.81 15 15 21.687 15 29.935c0 7.16 5.13 13.14 11.977 14.596V31.13a1.23 1.23 0 011.194-1.193h1.919zm-2.902-2.748a1.875 1.875 0 110-3.75 1.875 1.875 0 010 3.75z"/></g></svg>