<svg xmlns="http://www.w3.org/2000/svg" xmlns:xlink="http://www.w3.org/1999/xlink" width="80" height="80"><defs><circle id="rosemarkt__a" cx="40" cy="40" r="40"/></defs><g fill="none" fill-rule="evenodd"><use fill="#F3F3F3" xlink:href="#rosemarkt__a"/><g fill-rule="nonzero"><path fill="#458B40" d="M61.267 40.733c6.667-2.4 7.333-4.133 7.067-5.066-.134-1.067-1.334-2.4-8.4-2.4C65.4 28.6 65.4 27 64.867 26.067c-.533-.934-2-1.734-8.8.666 3.6-6.266 2.933-7.866 2.133-8.533-.8-.667-2.533-.933-8 3.6 1.2-7.067.134-8.4-.8-8.667-.933-.4-2.666-.133-6.266 6.134-1.2-7.067-2.8-7.867-3.734-7.867-1.066 0-2.533.8-3.733 7.867-3.6-6.134-5.333-6.534-6.267-6.134-.933.4-2.133 1.734-.8 8.667-5.466-4.533-7.2-4.267-8-3.6-.8.667-1.466 2.267 2.134 8.533-6.667-2.4-8.267-1.6-8.8-.666-.534.933-.534 2.666 4.933 7.2-7.2 0-8.267 1.333-8.4 2.4-.133 1.066.4 2.666 7.067 5.066-6.667 2.4-7.334 4.134-7.067 5.067.133 1.067 1.333 2.4 8.4 2.4-5.467 4.667-5.467 6.267-4.933 7.2.266.4.8.933 2.133.933s3.333-.4 6.533-1.6C19 61 19.667 62.6 20.467 63.267c.267.266.533.4 1.067.4 1.066 0 3.066-.8 6.933-4-1.2 7.066-.133 8.4.8 8.666.133 0 .4.134.533.134 1.067 0 2.667-1.067 5.734-6.267 1.2 7.067 2.8 7.867 3.733 7.867 1.067 0 2.533-.8 3.733-7.867 2.934 5.2 4.667 6.267 5.734 6.267.266 0 .4 0 .533-.134.933-.4 2.133-1.733.8-8.666 3.733 3.2 5.733 4 6.933 4 .534 0 .8-.134 1.067-.4.8-.667 1.467-2.267-2.133-8.534 3.2 1.2 5.333 1.6 6.533 1.6 1.333 0 1.867-.4 2.133-.933.534-.933.534-2.667-4.933-7.2 7.2 0 8.267-1.333 8.4-2.4.533-.933 0-2.533-6.8-5.067zm5.6-4.8c0 .134-.667 1.467-7.6 3.867-.133 0-.267.133-.4.133-1.733-.533-3.6-1.066-5.6-1.6 1.733-1.2 3.2-2.266 4.667-3.466h.533c7.333-.134 8.267.933 8.4 1.066zm-23.6 4.8v.667c-.133.267-.267.533-.267.667-.133.266-.133.4-.266.666-.134.134-.267.4-.4.534-.134.133-.267.4-.4.533-.134.133-.4.267-.534.267-.133.133-.4.266-.533.266-.267 0-.4.134-.667.134-.266 0-.4.133-.666.133-.267 0-.4-.133-.667-.133s-.4-.134-.667-.134c-.133-.133-.4-.266-.533-.266-.133-.134-.4-.267-.533-.267-.134-.133-.267-.4-.4-.533-.134-.134-.267-.4-.4-.534-.134-.266-.134-.4-.267-.666-.133-.267-.133-.4-.267-.667v-1.333c.134-.267.134-.4.267-.667s.133-.4.267-.667c.133-.133.266-.4.4-.533.133-.133.266-.4.4-.533.133-.134.4-.267.533-.267.133-.133.4-.267.533-.267.267 0 .4-.133.667-.133s.4-.133.667-.133c.266 0 .4.133.666.133.267 0 .4.133.667.133.133.134.4.267.533.267.134.133.4.267.534.267.133.133.266.4.4.533.133.133.266.4.4.533.133.267.133.4.266.667.134.267.134.4.267.667v.666zm2.667-2.266v-.134h.266c0 .134-.133.134-.133.267 0-.133-.133-.133-.133-.133zm-1.2-2.134V36.2H45c0 .133 0 .133-.133.267 0 0 0-.134-.133-.134zm-1.867-1.466s0-.134-.133-.134c.133 0 .133-.133.266-.133v.267h-.133zm-2.133-.8l-.134-.134c0-.133.134-.133.134-.266 0 .133.133.133.133.266-.133 0-.133 0-.133.134zm-2.4 0s-.134 0-.134-.134c0-.133.134-.133.134-.266 0 .133.133.133.133.266-.133 0-.133 0-.133.134zm-2.267.8h-.133V34.6c.133 0 .133.133.266.133-.133 0-.133 0-.133.134zM34.2 36.333h-.133c0-.133 0-.133-.133-.266h.266v.266zM33 38.467l-.133.133c0-.133-.133-.133-.133-.267H33v.134zm-.4 2.266l-.133.134c-.133 0-.133-.134-.267-.134.134 0 .134-.133.267-.133 0 .133.133.133.133.133zm.4 2.4v.134h-.266c0-.134.133-.134.133-.267 0 .133.133.133.133.133zm1.2 2.134v.133h-.266c0-.133 0-.133.133-.267l.133.134zm1.867 1.466s0 .134.133.134c-.133 0-.133.133-.266.133v-.267h.133zm2.267.8l.133.134c0 .133-.133.133-.133.266 0-.133-.134-.133-.134-.266l.134-.134zm2.4 0s.133 0 .133.134c0 .133-.133.133-.133.266 0-.133-.134-.133-.134-.266l.134-.134zm2.133-.8H43V47h-.133v-.267zm1.867-1.466h.133c0 .133 0 .133.133.266h-.266v-.266zm1.2-2.134l.133-.133c0 .133.133.133.133.267h-.266v-.134zm.4-2.4l.133-.133c.133 0 .133.133.267.133-.134 0-.134.134-.267.134 0 0-.133 0-.133-.134zm1.2-1.333c.133-.267.4-.4.533-.667.533.134.933.267 1.467.4-.4.267-.8.534-1.334.8-.266-.266-.533-.4-.666-.533zm1.6-2.133c.4-.667.933-1.2 1.333-1.867l4.8-.4c-1.2.933-2.533 1.867-3.867 2.8-.8-.133-1.6-.267-2.266-.533zm-1.734-.4c-.266 0-.533-.134-.8-.134.134-.266.134-.533.267-.8.533 0 1.067-.133 1.467-.133-.4.267-.667.667-.934 1.067zm-.133-2.667c.267-.8.4-1.467.667-2.133 1.466-.667 2.933-1.467 4.4-2-.8 1.2-1.734 2.533-2.667 3.866-.8.134-1.6.267-2.4.267zm-1.733.267c-.267 0-.534.133-.934.133v-.933c.4-.267.934-.4 1.334-.667-.134.533-.267.933-.4 1.467zm-.934-2.534c0-.8-.133-1.466-.133-2.266l3.333-3.334C47.4 27.8 47 29.4 46.6 31c-.666.267-1.333.667-2 .933zm-1.6.8l-.8.4c-.133-.266-.266-.533-.266-.8.4-.4.666-.8 1.066-1.066v1.466zm-1.733-2c-.267-.666-.667-1.466-.933-2.133.666-1.467 1.333-2.933 2-4.267a366 366 0 01.4 4.8c-.4.534-.934 1.067-1.467 1.6zm-1.2 1.334c-.133.266-.4.4-.533.666-.134-.266-.4-.4-.534-.666.134-.534.4-.934.534-1.334.133.4.4.8.533 1.334zm-2.4-1.334l-1.6-1.6.4-4.8c.667 1.334 1.333 2.8 2 4.267a5.89 5.89 0 01-.8 2.133zm-.667 1.6c-.133.267-.266.534-.266.8l-.8-.4c0-.533 0-1.066.133-1.466.267.4.667.666.933 1.066zm-2.666-.4c-.667-.4-1.334-.666-2-1.066-.4-1.6-.934-3.2-1.2-4.667 1.066 1.067 2.266 2.133 3.333 3.333 0 .934 0 1.6-.133 2.4zm0 1.734v.933c-.267 0-.534-.133-.934-.133-.133-.534-.266-.934-.4-1.467.4.267.8.533 1.334.667zm-2.667.533c-.8-.133-1.467-.133-2.267-.267a215.707 215.707 0 01-2.666-3.866c1.333.666 2.8 1.333 4.4 2 .133.666.266 1.466.533 2.133zm.533 1.733c.134.267.134.534.267.8-.267 0-.533.134-.8.134-.267-.4-.667-.8-.933-1.2.4.133.933.133 1.466.266zm-2.266 1.334c-.8.133-1.467.4-2.267.533C26.334 36.867 25 35.933 23.8 35c1.467.133 3.067.267 4.8.4.4.667.8 1.333 1.334 1.867zM31 38.733c.134.267.4.4.534.667-.267.133-.534.267-.8.533-.4-.266-.8-.533-1.334-.8.534-.266 1.067-.266 1.6-.4zm-1.733 2c-.667.4-1.333.8-1.867 1.2-1.6-.4-3.2-.8-4.666-1.2 1.466-.4 2.933-.8 4.666-1.2.534.4 1.2.8 1.867 1.2zm1.467 1.067c.266.133.533.267.8.533-.134.267-.4.4-.534.667-.533-.133-.933-.267-1.466-.4l1.2-.8zm-.8 2.533c-.4.667-.934 1.2-1.334 1.867l-4.8.4c1.2-.933 2.534-1.867 3.867-2.8.667.133 1.467.267 2.267.533zm1.6.4c.266 0 .533.134.8.134-.134.266-.134.533-.267.8-.533 0-1.067.133-1.467.133.4-.267.667-.667.934-1.067zm.133 2.667c-.267.8-.4 1.467-.667 2.133-1.466.667-2.933 1.467-4.4 2 .8-1.2 1.734-2.533 2.667-3.866.933-.134 1.6-.267 2.4-.267zm1.733-.267c.267 0 .534-.133.934-.133v.933c-.4.267-.934.4-1.334.667.134-.533.267-.933.4-1.467zm.934 2.534c0 .8.133 1.466.133 2.266l-3.333 3.334c.4-1.467.8-3.067 1.2-4.667.666-.267 1.333-.667 2-.933zm1.6-.8l.8-.4c.133.266.266.533.266.8-.4.4-.666.8-1.066 1.066v-1.466zm1.733 2c.267.666.667 1.466.933 2.133-.666 1.467-1.333 2.933-2 4.267a348.614 348.614 0 01-.4-4.8c.4-.534.934-1.067 1.467-1.6zm1.2-1.334c.133-.266.4-.4.533-.666.134.266.4.4.534.666-.134.534-.4.934-.534 1.334-.133-.4-.266-.8-.533-1.334zm2.4 1.334l1.6 1.6-.4 4.8c-.667-1.334-1.333-2.8-2-4.267.133-.8.533-1.467.8-2.133zm.667-1.6c.133-.267.266-.534.266-.8l.8.4c0 .533 0 1.066-.133 1.466-.267-.4-.667-.666-.933-1.066zm2.666.4c.667.4 1.334.666 2 1.066.4 1.6.934 3.2 1.2 4.667-1.066-1.067-2.266-2.133-3.333-3.333 0-.934.133-1.6.133-2.4zm0-1.734V47c.267 0 .534.133.934.133.133.534.266.934.4 1.467-.4-.267-.8-.533-1.334-.667zm2.667-.533c.8.133 1.467.133 2.267.267.933 1.333 1.866 2.666 2.666 3.866a70.486 70.486 0 00-4.4-2c0-.666-.266-1.466-.533-2.133zm-.533-1.733c-.134-.267-.134-.534-.267-.8.267 0 .533-.134.8-.134.267.4.667.8.933 1.2-.4-.133-.933-.133-1.466-.266zm2.4-1.334c.8-.133 1.466-.4 2.266-.533 1.334.933 2.667 1.867 3.867 2.8a348.613 348.613 0 00-4.8-.4c-.533-.667-.933-1.333-1.333-1.867zm-1.067-1.466c-.133-.267-.4-.4-.533-.667.266-.133.533-.267.8-.533.4.266.8.533 1.333.8-.667.266-1.2.266-1.6.4zm1.6-2.134c.667-.4 1.333-.8 1.867-1.2 1.6.4 3.2.8 4.666 1.2-1.466.4-2.933.8-4.666 1.2-.534-.266-1.2-.666-1.867-1.2zm13.867-13.866c0 .133-.134 1.6-5.734 6.133-.133.133-.266.133-.4.267-1.733 0-3.733.133-5.733.4 1.2-1.734 2.267-3.334 3.2-4.8.133 0 .267-.134.4-.134 6.8-2.533 8.133-1.866 8.267-1.866zM57.4 19.533c0 .134.534 1.6-3.333 7.734-.133.133-.133.266-.267.4-1.6.666-3.466 1.466-5.333 2.266.533-2 1.067-3.866 1.333-5.6.134-.133.267-.266.4-.266 5.467-4.8 7.067-4.667 7.2-4.534zM49 14.6c.134.133.934 1.333-.4 8.4 0 .133 0 .267-.133.533-1.333 1.2-2.667 2.534-4.133 4-.134-2-.4-4-.667-5.733.133-.133.133-.267.267-.4C47.4 15 48.867 14.733 49 14.6zM39.534 13c.133 0 1.333.933 2.533 8.133 0 .134 0 .267.133.534-.8 1.6-1.733 3.333-2.533 5.2-.8-1.867-1.733-3.6-2.533-5.2 0-.134 0-.267.133-.534.8-7.2 2.133-8.133 2.267-8.133zm-9.6 1.6c.133 0 1.6.4 5.066 6.8.134.133.134.267.267.4-.267 1.733-.4 3.733-.667 5.733-1.466-1.466-2.8-2.8-4.133-4 0-.133-.133-.266-.133-.533-1.334-7.067-.534-8.267-.4-8.4zm-8.4 4.933c.133 0 1.6-.266 7.066 4.667.134.133.267.267.4.267.4 1.733.8 3.6 1.334 5.6-1.867-.934-3.6-1.6-5.334-2.267-.133-.133-.133-.267-.266-.4-3.6-6.4-3.2-7.733-3.2-7.867zM15.4 26.867c.134-.134 1.467-.8 8.267 1.866.133 0 .267.134.4.134.933 1.466 2 3.066 3.2 4.8-2-.134-4-.267-5.733-.4-.134-.134-.267-.267-.4-.267-5.734-4.533-5.734-6-5.734-6.133zm-3.333 9.066c.133-.133 1.067-1.2 8.4-1.066H21c1.467 1.066 2.934 2.266 4.667 3.466-2 .534-3.867 1.067-5.6 1.6-.133 0-.267-.133-.4-.133-6.933-2.267-7.6-3.733-7.6-3.867zm0 9.734c0-.134.667-1.467 7.6-3.867.133 0 .267-.133.4-.133 1.733.533 3.6 1.066 5.6 1.6-1.733 1.2-3.2 2.266-4.667 3.466h-.533c-7.333.134-8.267-.933-8.4-1.066zm3.333 9.066c0-.133.134-1.6 5.734-6.133.133-.133.266-.133.4-.267 1.733 0 3.733-.133 5.733-.4a149.658 149.658 0 00-3.2 4.8c-.133 0-.267.134-.4.134-6.8 2.533-8.133 1.866-8.267 1.866zm6.134 7.334c0-.134-.534-1.6 3.333-7.734.133-.133.133-.266.267-.4 1.6-.666 3.466-1.466 5.333-2.266-.533 2-1.067 3.866-1.333 5.6-.134.133-.267.266-.4.266-5.467 4.8-7.067 4.667-7.2 4.534zm8.4 4.933c-.134-.133-.934-1.333.4-8.4 0-.133 0-.267.133-.533 1.333-1.2 2.667-2.534 4.133-4 .134 2 .4 4 .667 5.733-.133.133-.133.267-.267.4-3.466 6.4-4.933 6.667-5.066 6.8zm9.6 1.6c-.134 0-1.334-.933-2.534-8.133 0-.134 0-.267-.133-.534.8-1.6 1.733-3.333 2.533-5.2.8 1.867 1.734 3.6 2.534 5.2 0 .134 0 .267-.134.534-.933 7.2-2.133 8.133-2.266 8.133zM49 67c-.133 0-1.6-.4-5.066-6.8-.134-.133-.134-.267-.267-.4.267-1.733.4-3.733.667-5.733 1.466 1.466 2.8 2.8 4.133 4 0 .133.133.266.133.533 1.334 7.067.534 8.267.4 8.4zm8.4-4.933c-.133 0-1.6.266-7.066-4.667-.134-.133-.267-.267-.4-.267-.4-1.733-.8-3.6-1.334-5.6 1.867.934 3.6 1.6 5.334 2.267.133.133.133.267.266.4 3.6 6.4 3.2 7.733 3.2 7.867zm6.134-7.334c-.134.134-1.467.8-8.267-1.866-.133 0-.267-.134-.4-.134-.933-1.466-2-3.066-3.2-4.8 2 .134 4 .267 5.733.4.134.134.267.267.4.267 5.734 4.4 5.734 6 5.734 6.133zM58.467 46.6h-.533c-1.467-1.067-2.934-2.267-4.667-3.467a152 152 0 005.6-1.6c.133 0 .267.134.4.134 6.933 2.266 7.467 3.733 7.6 3.866-.133.267-1.067 1.334-8.4 1.067z"/><g transform="translate(31 13.667)"><ellipse cx="8.525" cy="26.132" fill="#FFF" rx="3.867" ry="24.8" transform="rotate(-10.003 8.525 26.132)"/><path fill="#8AC640" d="M12.667 51.467c-1.067 0-2.534-1.067-4.667-7.2-1.6-4.534-3.067-10.667-4.267-17.2-1.2-6.534-1.866-12.8-1.866-17.6C1.733 2.4 2.933 1.2 4 1.067c1.067-.134 2.533.4 4.933 7.2 1.6 4.533 3.067 10.666 4.267 17.2 1.2 6.533 1.867 12.8 1.867 17.6.133 7.066-1.067 8.266-2.134 8.4h-.266zM4.4 2.533C4.133 2.667 3.333 4 3.6 9.867c.133 4.666.8 10.666 1.867 16.8 1.066 6.266 2.533 12 4 16.4 1.866 5.6 3.066 6.533 3.333 6.666.133-.266.933-1.466.8-7.333-.133-4.667-.8-10.667-1.867-16.8-1.066-6.267-2.533-12-4-16.4-2-5.6-3.066-6.533-3.333-6.667z"/></g><g transform="translate(23 16.333)"><ellipse cx="16.507" cy="23.476" fill="#FFF" rx="3.867" ry="24.8" transform="rotate(-30.001 16.507 23.476)"/><path fill="#8AC640" d="M28.533 46c-1.066 0-2.8-1.067-6.266-5.333-3.067-3.734-6.534-8.934-9.867-14.8C9.067 20.133 6.267 14.4 4.533 10 2 3.333 2.667 1.867 3.6 1.333 4.533.8 6.133.933 10.667 6.4c3.066 3.733 6.533 8.933 9.866 14.8 3.334 5.733 6.134 11.467 7.867 15.867 2.533 6.666 1.867 8.133.933 8.666-.133.134-.4.267-.8.267zm-24-43.333c-.133.266-.4 1.733 1.734 7.2 1.733 4.266 4.4 9.733 7.6 15.2C17.067 30.533 20.4 35.6 23.2 39.2c3.733 4.667 5.067 5.067 5.333 5.2.134-.267.4-1.733-1.733-7.2-1.733-4.267-4.4-9.733-7.6-15.2-3.2-5.467-6.533-10.533-9.333-14.133C6.133 3.2 4.8 2.8 4.533 2.667z"/></g><g transform="translate(17.667 20.333)"><ellipse cx="21.829" cy="19.494" fill="#FFF" rx="3.867" ry="24.8" transform="rotate(-49.998 21.829 19.494)"/><path fill="#8AC640" d="M40.133 36.533c-1.2 0-3.2-.666-6.933-2.933-4.133-2.533-9.2-6.133-14.267-10.533-5.066-4.267-9.6-8.667-12.8-12.267C1.467 5.467 1.6 3.733 2.4 2.933c.667-.8 2.267-1.333 8.4 2.4 4.133 2.534 9.2 6.134 14.267 10.534 5.066 4.266 9.6 8.666 12.8 12.266C42.533 33.467 42.4 35.2 41.6 36c-.4.267-.8.533-1.467.533zM3.467 4.133c0 .267.133 1.734 4.133 6.134 3.067 3.466 7.467 7.6 12.267 11.733 4.8 4 9.733 7.6 13.6 10 5.066 3.067 6.533 3.067 6.8 2.933 0-.266-.134-1.733-4.134-6.133-3.066-3.467-7.466-7.6-12.266-11.733-4.8-4-9.734-7.6-13.6-10C5.2 4 3.733 4 3.467 4.133z"/></g><g transform="translate(13.667 27)"><ellipse cx="25.819" cy="12.84" fill="#FFF" rx="3.867" ry="24.8" transform="rotate(-70.001 25.819 12.84)"/><path fill="#8AC640" d="M46.8 22.933c-1.2 0-3.067-.133-5.467-.666-4.666-.934-10.8-2.667-17.066-4.934-6.267-2.266-12-4.8-16.267-7.2C1.733 6.667 1.333 5.067 1.733 4c.4-1.067 1.734-2 8.667-.667C15.067 4.267 21.2 6 27.467 8.267c6.266 2.266 12 4.8 16.266 7.2C50 18.933 50.4 20.533 50 21.6c-.267.667-.933 1.333-3.2 1.333zM3.333 4.667c.134.266.8 1.6 6 4.4 4.134 2.266 9.6 4.666 15.467 6.8 5.867 2.133 11.733 3.866 16.267 4.8 5.866 1.2 7.2.666 7.466.533-.133-.267-.8-1.6-6-4.4-4.133-2.267-9.6-4.667-15.466-6.8C21.2 7.867 15.333 6.133 10.8 5.2c-5.867-1.333-7.333-.667-7.467-.533z"/></g><g transform="translate(13.667 35)"><ellipse cx="25.867" cy="4.8" fill="#FFF" rx="24.8" ry="3.867"/><path fill="#8AC640" d="M25.867 9.6c-6.667 0-12.934-.4-17.734-1.2-7.066-1.067-8-2.533-8-3.6 0-1.067.934-2.4 8-3.6C12.933.4 19.2 0 25.867 0 32.533 0 38.8.4 43.6 1.2c7.067 1.067 8 2.533 8 3.6 0 1.067-.933 2.4-8 3.6-4.8.8-11.067 1.2-17.733 1.2zm-24-4.8c.133.267 1.2 1.2 7.2 2.133C13.6 7.6 19.6 8 26 8c6.267 0 12.267-.4 16.933-1.067C48.8 6 49.867 5.067 50.133 4.8c-.133-.267-1.2-1.2-7.2-2.133C38.4 2 32.4 1.6 26 1.6S13.733 2 9.067 2.667c-6 .933-7.067 2-7.2 2.133z"/></g><g transform="translate(13.667 27)"><ellipse cx="25.827" cy="12.876" fill="#FFF" rx="3.867" ry="24.8" transform="rotate(-109.999 25.827 12.876)"/><path fill="#8AC640" d="M4.933 22.933c-2.266 0-2.933-.666-3.2-1.333-.4-1.067 0-2.667 6.267-6.133 4.133-2.267 10-4.8 16.267-7.2 6.266-2.267 12.266-4 17.066-4.934C48.4 2 49.6 2.933 50 4c.4 1.067 0 2.667-6.267 6.133-4.133 2.267-10 4.8-16.266 7.2-6.267 2.267-12.267 4-17.067 4.934-2.4.533-4.133.666-5.467.666zm-1.6-1.866c.267.133 1.6.666 7.467-.534 4.533-.933 10.267-2.666 16.267-4.8 5.866-2.133 11.466-4.533 15.466-6.8 5.2-2.8 5.867-4.133 6-4.4-.266-.133-1.6-.666-7.466.534C36.533 6 30.8 7.733 24.8 9.867c-5.867 2.133-11.467 4.666-15.467 6.8-5.333 2.8-6 4.133-6 4.4z"/></g><g transform="translate(17.667 20.333)"><ellipse cx="21.833" cy="19.56" fill="#FFF" rx="4" ry="24.8" transform="rotate(-130.002 21.833 19.56)"/><path fill="#8AC640" d="M3.6 36.533c-.667 0-1.067-.266-1.333-.533-.667-.8-.934-2.4 3.733-7.867 3.2-3.6 7.733-8 12.8-12.266 5.067-4.267 10.133-8 14.267-10.534 6.133-3.733 7.733-3.2 8.4-2.4.666.8.933 2.4-3.734 7.867-3.2 3.6-7.733 8-12.8 12.267-5.066 4.266-10.133 8-14.266 10.533C6.8 35.867 4.8 36.533 3.6 36.533zm-.133-1.6c.266 0 1.733.134 6.8-2.933 4-2.4 8.8-6 13.6-10 4.8-4 9.2-8.267 12.266-11.733 4-4.4 4.134-5.867 4.134-6.134-.267 0-1.734-.133-6.8 2.934-4 2.4-8.8 6-13.6 10-4.8 4-9.2 8.266-12.267 11.733-4 4.4-4.133 5.867-4.133 6.133z"/></g><g transform="translate(23 16.333)"><ellipse cx="16.519" cy="23.567" fill="#FFF" rx="4" ry="24.8" transform="rotate(-149.999 16.519 23.567)"/><path fill="#8AC640" d="M4.533 46c-.266 0-.533-.133-.8-.267-.933-.533-1.733-2 .934-8.666C6.4 32.533 9.2 26.933 12.533 21.2c3.334-5.733 6.8-11.067 9.867-14.8 4.4-5.6 6-5.6 6.933-5.067.934.534 1.734 2-.933 8.667-1.733 4.533-4.533 10.133-7.867 15.867-3.333 5.733-6.8 11.066-9.866 14.8C7.333 44.933 5.6 46 4.533 46zm9.334-24c-3.2 5.467-5.867 10.8-7.6 15.2-2.134 5.6-1.867 6.933-1.734 7.2.267 0 1.734-.533 5.334-5.2 2.933-3.6 6.266-8.667 9.333-14.133 3.2-5.467 5.867-10.8 7.6-15.2 2.133-5.6 1.867-6.934 1.733-7.2-.266 0-1.733.533-5.333 5.2-2.933 3.6-6.267 8.666-9.333 14.133z"/></g><g transform="translate(31 13.667)"><ellipse cx="8.535" cy="26.241" fill="#FFF" rx="3.867" ry="24.8" transform="rotate(-170.003 8.535 26.241)"/><path fill="#8AC640" d="M4.4 51.467h-.267c-1.066-.134-2.266-1.334-2.133-8.4 0-4.8.667-11.067 1.867-17.734l.8.134-.8-.134c1.2-6.533 2.666-12.666 4.266-17.2C10.4 1.333 12 .8 12.933.933c1.067.134 2.267 1.334 2.134 8.4-.134 4.8-.8 11.067-1.867 17.6-1.2 6.534-2.667 12.667-4.267 17.2C6.8 50.4 5.467 51.467 4.4 51.467zm8.267-48.934C12.4 2.667 11.2 3.6 9.333 9.2c-1.466 4.4-2.933 10.267-4 16.4C4.267 31.867 3.6 37.733 3.467 42.4c-.134 6 .666 7.2.8 7.333.266-.133 1.466-1.066 3.333-6.666 1.467-4.4 2.933-10.267 4-16.4 1.067-6.267 1.733-12.134 1.867-16.8.266-5.867-.534-7.2-.8-7.334z"/></g><path fill="#FFF" d="M35.534 36.067c0-5.867 4-10.667 4-10.667s4 4.8 4 10.667c0 5.866-1.867 10.666-4 10.666-2.267 0-4-4.8-4-10.666z"/><path fill="#E81E25" d="M39.534 47.533c-3.2 0-4.8-5.866-4.8-11.466 0-6.134 4.133-10.934 4.266-11.2l.667-.667.667.667c.133.266 4.266 5.066 4.266 11.2-.266 5.6-2 11.466-5.066 11.466zm0-20.8c-1.067 1.6-3.2 5.2-3.2 9.334 0 6.133 1.866 9.866 3.2 9.866 1.333 0 3.2-3.733 3.2-9.866 0-4.134-2.134-7.734-3.2-9.334z"/><path fill="#FFF" d="M35.667 43.667c0 5.866 4 10.666 4 10.666s4-4.8 4-10.666c0-5.867-1.867-10.667-4-10.667-2.133-.133-4 4.667-4 10.667z"/><path fill="#8AC640" d="M39.8 55.533l-.666-.666c-.134-.267-4.267-5.067-4.267-11.2 0-5.6 1.733-11.467 4.8-11.467 3.2 0 4.8 5.867 4.8 11.467 0 6.133-4 11.066-4.267 11.2l-.4.666zm-.133-21.866c-1.333 0-3.2 3.733-3.2 9.866 0 4.134 2.133 7.734 3.2 9.334 1.067-1.6 3.2-5.2 3.2-9.334.133-6-1.867-9.866-3.2-9.866z"/><path fill="#FFF" d="M38.734 35.133c2.4-5.333 8-7.866 8-7.866s1.733 6.133-.667 11.466c-2.4 5.334-6 8.934-8 7.867-2.133-.933-1.867-6.133.667-11.467z"/><path fill="#E81E25" d="M38.734 47.533c-.4 0-.8-.133-1.067-.266-2.8-1.334-1.867-7.467.4-12.534 2.533-5.6 8.267-8.133 8.4-8.266l.8-.4.267.933c.133.267 1.733 6.4-.8 12-1.867 4.267-4.667 7.467-6.934 8.267-.4.266-.8.266-1.066.266zm.666-12c-2.533 5.6-2.4 9.867-1.066 10.4.266.134.533.134.933 0 1.867-.666 4.267-3.733 6-7.466 1.733-3.734 1.2-8 .933-9.867-1.6.8-5.066 3.2-6.8 6.933z"/><path fill="#FFF" d="M36.867 51.267c-5.333 2.666-11.2 1.066-11.2 1.066s2.533-5.733 7.867-8.4c5.2-2.666 10.266-3.066 11.2-1.066.8 2.133-2.667 5.866-7.867 8.4z"/><path fill="#E81E25" d="M29.934 53.667c-2.534 0-4.4-.534-4.534-.534l-.933-.266.4-.8c.133-.267 2.667-6.134 8.133-8.8 4.134-2 8.267-2.934 10.667-2.134.8.267 1.333.8 1.733 1.467 1.334 2.8-3.2 6.933-8.133 9.467-2.533 1.2-5.2 1.6-7.333 1.6zm-3.2-1.867c1.866.267 6 .667 9.733-1.2 5.467-2.667 8-6.133 7.467-7.333-.134-.267-.4-.4-.8-.534-1.867-.666-5.734.134-9.334 2-3.733 1.734-6.133 5.334-7.066 7.067z"/><path fill="#FFF" d="M42.867 51.8c3.867 1.867 8.667 1.733 11.2 1.067 0 0-2.533-5.734-7.867-8.4C41 41.8 35.934 41.4 35 43.4c-.933 2 2.534 5.733 7.867 8.4z"/><path fill="#EC0044" d="M49.934 54.067c-2.267 0-4.934-.4-7.334-1.6-4.933-2.4-9.466-6.534-8.133-9.467.267-.667.933-1.2 1.733-1.467 2.267-.8 6.4 0 10.667 2.134C52.334 46.333 55 52.2 55 52.467l.4.8-.933.266c-1.2.267-2.8.534-4.533.534zm-11.867-11.2c-.667 0-1.2.133-1.6.266-.4.134-.667.4-.8.534-.533 1.2 2 4.666 7.467 7.333 3.066 1.467 6.933 1.733 9.733 1.2-.933-1.6-3.2-5.333-6.933-7.2-2.8-1.333-5.867-2.133-7.867-2.133z"/><path fill="#FFF" d="M39.934 35.133c-2.4-5.333-8.134-7.866-8.134-7.866s-1.733 6.133.8 11.466c2.4 5.334 6 8.8 8.134 7.867 2-.933 1.6-6.133-.8-11.467z"/><path fill="#E81E25" d="M39.934 47.533c-.4 0-.8-.133-1.067-.266-2.267-.8-5.067-4.134-6.933-8.267-2.534-5.467-.934-11.733-.8-12l.266-.933.8.4c.267.133 6 2.666 8.534 8.266 2.266 5.067 3.2 11.067.4 12.534-.4.266-.8.266-1.2.266zm-7.6-19.066c-.4 1.866-.8 6.133.933 9.866 1.733 3.734 4.133 6.8 6 7.467.4.133.667.133.933 0 1.2-.667 1.334-4.8-1.2-10.4-1.6-3.6-4.933-6-6.666-6.933z"/><path fill="#FFF" d="M49.267 41c-3.6 4.533-9.6 5.733-9.6 5.733S39.4 40.333 43 35.8c3.6-4.533 9.6-5.733 9.6-5.733s.134 6.4-3.333 10.933z"/><path fill="#E81E25" d="M38.867 47.667v-.934c0-.266-.267-6.666 3.467-11.466 3.733-4.8 9.866-6 10.133-6l.933-.134v.934c0 .266.267 6.666-3.466 11.466-3.734 4.8-9.867 6-10.134 6l-.933.134zM51.8 31.133c-1.733.534-5.733 2-8.133 5.2-2.533 3.2-3.067 7.467-3.2 9.467 1.733-.533 5.733-2 8.133-5.2 2.534-3.333 3.067-7.6 3.2-9.467z"/><path fill="#FFF" d="M29.934 41c3.6 4.533 9.6 5.733 9.6 5.733s.266-6.4-3.334-10.933c-3.6-4.533-9.6-5.733-9.6-5.733s-.266 6.4 3.334 10.933z"/><path fill="#E81E25" d="M40.334 47.667l-.934-.134c-.266 0-6.4-1.2-10.133-6-3.733-4.8-3.6-11.2-3.6-11.466v-.934l.933.134c.267 0 6.4 1.2 10.134 6 3.733 4.8 3.6 11.2 3.6 11.466v.934zM30.467 40.6c2.533 3.2 6.4 4.667 8.267 5.2-.134-1.867-.667-6.133-3.2-9.467-2.534-3.2-6.4-4.666-8.267-5.2.133 1.867.667 6.134 3.2 9.467z"/><path fill="#FFF" d="M50.867 47.8c-5.6 2-11.333-.133-11.333-.133S43 42.2 48.734 40.2c5.6-2 11.333.133 11.333.133S56.6 45.8 50.867 47.8z"/><path fill="#E81E25" d="M45.667 49.533c-3.6 0-6.267-1.066-6.4-1.066l-.933-.4.533-.8c.133-.267 3.733-5.734 9.6-7.734 5.867-2.133 11.733.134 11.867.134l.933.4-.533.8c-.134.266-3.734 5.733-9.6 7.733a16.254 16.254 0 01-5.467.933zm-4.8-2.266c1.867.533 5.867 1.2 9.867-.134 4-1.466 6.933-4.666 8.133-6.266C57 40.333 53 39.667 49 41c-4 1.333-6.933 4.667-8.133 6.267z"/><path fill="#FFF" d="M29 47.4c5.734 2 11.334-.267 11.334-.267s-3.467-5.466-9.2-7.466c-5.734-2-11.334.266-11.334.266s3.467 5.6 9.2 7.467z"/><path fill="#E81E25" d="M34.2 49.133c-1.733 0-3.6-.266-5.466-.933-5.867-2-9.467-7.467-9.6-7.733l-.534-.8.934-.4c.266-.134 6-2.267 11.866-.267 5.867 2 9.467 7.467 9.6 7.733l.534.8-.934.4c-.133.134-2.8 1.2-6.4 1.2zm-13.066-8.666c1.2 1.6 4.133 4.8 8.133 6.266 4 1.334 8 .667 9.867.134-1.2-1.6-4.134-4.8-8.134-6.267-4-1.467-8-.667-9.866-.133z"/></g></g></svg>