<svg xmlns="http://www.w3.org/2000/svg" width="40" height="40" fill="none"><circle cx="20" cy="20" r="20" fill="#000"/><path fill="#fff" fill-rule="evenodd" d="M27.725 17.46v1.458l-.09-.093a1.775 1.775 0 00-1.046-.527 2.973 2.973 0 00-.68 0c-.773.118-1.413.592-1.795 1.326-.294.565-.404 1.272-.306 1.95.089.614.36 1.189.746 1.59.368.38.788.606 1.304.7.134.025.51.034.66.017.483-.055.91-.273 1.187-.605a.378.378 0 01.076-.078c.004.003.078.13.166.283l.16.277h1.314V16h-1.696v1.46zm-.894 2.425c.178.026.341.09.479.188.082.058.218.2.274.286.265.399.274.996.024 1.417a1.31 1.31 0 01-.348.355 1.152 1.152 0 01-.704.163c-.63-.053-1.053-.58-1.02-1.273.006-.161.031-.293.077-.414.136-.363.405-.613.753-.7.162-.04.302-.047.465-.022zM7.294 18.28a2.339 2.339 0 00-1.473.647c-.433.413-.71.979-.801 1.628a4.667 4.667 0 00-.006.787c.16 1.26 1.009 2.166 2.163 2.305.141.017.468.014.611-.006a1.725 1.725 0 001.073-.56l.067-.078v.199c0 .215-.01.332-.044.46-.094.37-.356.645-.746.782-.2.07-.295.083-.584.083a2.356 2.356 0 01-.63-.066 2.82 2.82 0 01-.784-.31.946.946 0 00-.132-.07c-.009.01-.726 1.267-.726 1.275a.61.61 0 00.087.062c.483.31 1.108.513 1.814.592.213.023.86.02 1.042-.006.705-.1 1.255-.36 1.662-.784.366-.383.585-.854.684-1.467l.024-.156.004-2.585.003-2.585H9.265l-.153.266a4.216 4.216 0 01-.16.266.222.222 0 01-.048-.053c-.17-.22-.492-.44-.782-.534a2.291 2.291 0 00-.828-.092zm.808 1.583c.173.036.313.102.453.215.346.28.481.795.335 1.28a1.042 1.042 0 01-1.037.74.857.857 0 01-.271-.029c-.443-.116-.74-.451-.81-.913a1.098 1.098 0 010-.371c.032-.204.104-.38.225-.537.24-.316.682-.47 1.105-.385zm4.157-.951a2.962 2.962 0 011.62-.628c.937-.072 1.799.232 2.392.843.433.446.68.976.755 1.628.022.192.016.581-.011.762-.058.377-.18.73-.356 1.024-.442.74-1.178 1.207-2.095 1.33a5.502 5.502 0 01-.875-.005c-.632-.095-1.175-.352-1.597-.754a2.679 2.679 0 01-.75-1.299c-.068-.27-.08-.383-.08-.726 0-.347.012-.457.083-.737a2.672 2.672 0 01.914-1.439zm2.937 1.656a1.109 1.109 0 00-.785-.667 1.455 1.455 0 00-.414-.022c-.635.09-1.042.635-.989 1.325.023.296.129.546.314.744a.994.994 0 00.329.242c.447.21.995.11 1.323-.24.126-.135.224-.316.278-.514.03-.104.031-.125.031-.343.002-.26-.012-.34-.087-.525zm4.936-2.285c-1.072.09-1.94.665-2.364 1.565a2.78 2.78 0 00-.246.847c-.027.183-.027.6 0 .785.066.457.203.826.436 1.178.463.7 1.223 1.138 2.123 1.223.202.019.614.008.806-.022.823-.128 1.51-.551 1.944-1.202.155-.232.288-.536.361-.822.189-.738.089-1.545-.268-2.167-.439-.762-1.194-1.25-2.12-1.368a4.402 4.402 0 00-.672-.017zm.4 1.596c.557.069.941.483 1 1.077a1.34 1.34 0 01-.13.724c-.194.396-.56.618-1.02.617a1.078 1.078 0 01-.997-.617c-.266-.54-.134-1.223.3-1.568.232-.184.544-.27.847-.233zm11.712-1.588l.014-.001c.075-.01.805.003.92.014.293.03.612.089.88.163.28.078.782.252.782.271 0 .01-.692 1.215-.705 1.229-.002.003-.1-.026-.218-.064a4.986 4.986 0 00-.634-.167c-.543-.109-.946-.102-1.138.02-.134.085-.17.244-.08.343.1.112.25.152.999.268.557.085.816.156 1.11.303.297.15.549.393.682.659.174.346.193.91.043 1.326-.232.643-.838 1.06-1.732 1.192-.723.106-1.771.013-2.456-.218-.214-.072-.522-.215-.617-.287-.02-.014 0-.053.338-.636.196-.341.362-.622.368-.622.005 0 .065.027.133.06.369.181.738.286 1.192.342.179.022.645.018.773-.006.266-.049.389-.155.377-.323-.003-.06-.01-.08-.037-.112-.096-.118-.33-.187-.947-.276a8.612 8.612 0 01-.387-.063c-.988-.192-1.52-.628-1.623-1.328-.09-.621.069-1.15.461-1.525.313-.298.795-.494 1.355-.547l.147-.015z" clip-rule="evenodd"/></svg>