<svg xmlns="http://www.w3.org/2000/svg" viewBox="0 0 60 60"><path fill="#16926c" d="M29.7 59.4c16.4 0 29.7-13.3 29.7-29.7S46.1 0 29.7 0 0 13.3 0 29.7s13.3 29.7 29.7 29.7z"/><path fill="#fff" fill-rule="evenodd" d="M29.5 18.5c2.9-1.3 5.9-2.2 9.3-2.8-2-1.7-4.3-2.7-6.7-4 3.6.4 6.8 1.1 9.7 2.6.9.4 1.7.5 2.6.3.6-.1 1.3-.2 2-.1 0 .4-.3.8-.6 1-1.2.7-1.3 1.7-1.3 2.9-.1 2.4-.6 4.9-1.4 7.4-.5-1.4-.2-2.7-.5-4-.2-.8-.3-1.7-.6-2.5-.2-.7-.5-.9-1.3-.5-1.5.9-3.1 1.6-4.6 2.4-.2.1-.3.1-.6 0 .9-1.2 1.9-2.2 2.7-3.5-3 0-5.8.5-8.7.8zm.6 24.8c.1.3-.2.4-.4.4-1.5-.2-2.7.8-4 1.2-.4.1-.8.4-1.3.1.5-.4 1-.8 1.6-1.3-.8-.3-1.4-.5-2.1-.8 2.5.1 4.3-.8 5.4-3 .6.3-.2 1.4.8 1.3.5 0 1-.6 1.6-.7 0 .5-.4.6-.6.8-.5.6-1.5.9-1 2zm-13.4-.8c.1.5 0 1 0 1.7-.4-.5-.9-.9-1.1-1.4-.8-1.7-2.2-2.7-3.9-3.5-.2-.1-.4-.3-.6-.4 0-.1 0-.2.1-.2.8-.3 1.9-.4 2.2-.9.3-.6 0-1.6 0-2.4 0-.8-.2-1.5.3-2.4.3 1.3.7 2.4 1.1 3.5.3.8.7 1.1 1.6.9.6-.2 1.4-.2 2.2-.3-.4.8-.8 1.5-1.2 2.2-.2.4-.1.6.2.9.9.8 1.9 1.3 3.2 1.9-1.2.2-2.2-.2-3.1-.4-.9 0-1.1.1-1 .8zm3.4-15.8c-.2-.7-.4-.7-.9-.3-1.5 1.1-2.8 2.2-4.2 3.4-.1.1-.3.2-.5.2 1-2.1 2.3-4 4.1-5.8-1.2-1-2.6-1.1-4.2-1.3 1.8-.5 3.4-.8 5.1-.7 1 0 2-.1 2.9-.7.8-.6 1.7-1 2.9-1.3-.3.9-1.2 1.5-.9 2.2.3.6 1.3.4 2.1.6 1.1.3 2.3.7 3.3 1.2.3.1.8.2.7.8-2.1-.3-4.2-.5-6.3-.2-.8.1-1.1.4-1.3 1-.5 1.5-.8 3-1.3 4.5-.7-1.2-1.2-2.4-1.5-3.6z" clip-rule="evenodd"/></svg>