<svg xmlns="http://www.w3.org/2000/svg" width="41" height="40" fill="none"><path fill="#3DFF9C" fill-rule="evenodd" d="M20 40c11.046 0 20-8.954 20-20S31.046 0 20 0 0 8.954 0 20s8.954 20 20 20z" clip-rule="evenodd"/><path fill="#000" fill-rule="evenodd" d="M6.596 18.507a.255.255 0 00.256-.254.255.255 0 00-.256-.253.255.255 0 00-.256.253c0 .14.114.254.256.254zm-1.352 3.167a.83.83 0 00.587.242h3.126a.83.83 0 00.831-.822v-2.048a.038.038 0 00-.037-.037h-.309a.038.038 0 00-.037.037v2.048a.446.446 0 01-.448.443H5.831a.447.447 0 01-.448-.443v-2.048a.038.038 0 00-.037-.037h-.309a.038.038 0 00-.037.037v2.048c0 .219.087.425.244.58zm23.238.242a.696.696 0 01-.388-.116l-3.562-2.313v2.39c0 .019-.017.036-.037.036h-.308a.038.038 0 01-.038-.037v-2.83c0-.02.018-.037.038-.037h.097c.14 0 .273.04.388.116l3.562 2.313v-2.39c0-.02.017-.036.037-.036h.308c.02 0 .038.017.038.037v2.83c0 .02-.018.037-.038.037h-.097zm-13.338 0a.043.043 0 01-.032-.018l-.299-.473a.3.3 0 00-.256-.14h-2.47v.596c0 .02-.017.037-.037.037h-.309a.038.038 0 01-.037-.037v-2.83c0-.02.017-.037.037-.037h2.963c.306 0 .594.118.81.335a1.124 1.124 0 01-.39 1.857l.413.655c.007.012.007.027 0 .037a.039.039 0 01-.032.02h-.361v-.003zm-.44-1.01a.755.755 0 00.54-.224.753.753 0 00.226-.534.769.769 0 00-.766-.758h-2.617v1.516h2.617zm3.063.972c0 .02.018.037.038.037h4.392c.02 0 .038-.017.038-.037v-.305a.038.038 0 00-.038-.037H18.15v-.883h2.707c.02 0 .037-.017.037-.037v-.305a.038.038 0 00-.037-.037H18.15v-.884h4.047c.02 0 .038-.017.038-.037v-.305a.038.038 0 00-.038-.037h-4.392a.038.038 0 00-.038.037v2.83zm14.845.037a.038.038 0 01-.037-.037V19.39H30.57a.038.038 0 01-.037-.037v-.305c0-.02.017-.037.037-.037h4.392c.02 0 .038.018.038.037v.305c0 .02-.018.037-.038.037h-2.004v2.488c0 .02-.018.037-.038.037h-.308zM8.451 18.757c0 .14-.115.254-.257.254a.255.255 0 01-.256-.254c0-.14.115-.253.256-.253.142 0 .257.113.257.253z" clip-rule="evenodd"/></svg>