<svg xmlns="http://www.w3.org/2000/svg" xmlns:xlink="http://www.w3.org/1999/xlink" width="60" height="60"><defs><path id="ss__a" d="M29.703 59.405c16.404 0 29.702-13.298 29.702-29.702C59.405 13.298 46.107 0 29.703 0 13.298 0 0 13.298 0 29.703c0 16.404 13.298 29.702 29.703 29.702z"/></defs><g fill="none" fill-rule="evenodd"><mask id="ss__b" fill="#fff"><use xlink:href="#ss__a"/></mask><use fill="#6FCEF4" xlink:href="#ss__a"/><g mask="url(#ss__b)"><path fill="#0A5DAA" d="M24.642 15.97c3.885.435 6.541 3.29 7.294 7.425.068.374-.071.45-.41.445a72.083 72.083 0 00-2.786.002c-.408.01-.532-.164-.615-.532a6.072 6.072 0 00-.696-1.738c-1.019-1.738-2.527-2.617-4.585-2.534-2.012.081-3.441 1.086-4.195 2.86-1.261 2.967-1.257 6.001 0 8.972.803 1.896 2.294 2.966 4.448 2.965 2.139 0 3.606-1.044 4.503-2.908.222-.462.39-.949.607-1.486.86.911 1.652 1.783 2.484 2.617.345.346.154.597-.022.893-1.818 3.063-4.65 4.253-8.11 4.042-4.344-.264-7.16-2.681-8.093-6.885-.757-3.412-.695-6.793.964-9.982 1.14-2.193 2.988-3.532 5.447-4.062.491-.106.841-.072 1.166.357.326.431 2.179.766 2.617.482.428-.278-.181-.577-.018-.933"/><path fill="#FFF" d="M35.128 44.801c-4.181-.454-6.695-3.632-7.348-7.412-.064-.369.038-.476.384-.474.956.006 1.912.01 2.867-.003.33-.005.446.132.526.438.21.81.522 1.58 1.008 2.282 2.101 3.028 6.774 2.835 8.311-.489 1.647-3.56 1.726-7.228-.671-10.543-1.811-2.504-5.93-2.192-7.626.41-.388.596-.71 1.223-.888 1.91-.099.381-.254.343-.47.114-.759-.803-1.51-1.61-2.27-2.411-.281-.296-.052-.539.081-.775 1.189-2.11 2.997-3.44 5.392-3.896 2.492-.475 4.935-.298 7.118 1.12 2.48 1.612 3.565 4.059 3.973 6.841.344 2.345.26 4.682-.467 6.957-.958 3-2.89 5.045-6.083 5.8-.517.123-.944.147-1.103-.49-.085-.34-.347-.408-.675-.392-.45.022-.902.005-1.353.013-.967.018-.967.02-.706 1"/><path fill="#105FAC" d="M15 8h4.208c2.18 0 2.18 0 3.006 1.966.556 1.321 1.105 2.645 1.683 3.957.18.412.112.514-.353.53-2.377.083-2.38.099-4.001-1.616C18.069 11.277 16.605 9.71 15 8"/><path fill="#FEFEFE" d="M43.99 52.482h-4.21c-2.18 0-2.18 0-3.006-1.966-.556-1.321-1.105-2.645-1.682-3.958-.182-.411-.113-.514.352-.53 2.377-.082 2.38-.098 4.002 1.617 1.473 1.56 2.937 3.127 4.542 4.837"/></g></g></svg>