<svg xmlns="http://www.w3.org/2000/svg" width="41" height="40" fill="none"><circle cx="20.5" cy="20" r="20" fill="#F05023"/><path fill="#fff" fill-rule="evenodd" d="M9.698 18a2.245 2.245 0 00-2.187 1.74h1.155a1.148 1.148 0 012.062 0H9.38v.956h1.372a1.147 1.147 0 01-2.108 0H7.5A2.245 2.245 0 109.698 18zm7.785.378a2.244 2.244 0 112.493 3.731 2.244 2.244 0 01-2.493-3.73zm.609 2.82c.189.125.41.193.637.193v-.004a1.147 1.147 0 00.955-1.781 1.147 1.147 0 10-1.592 1.591zM27.202 18a2.244 2.244 0 100 4.488 2.244 2.244 0 000-4.488zm0 3.39a1.148 1.148 0 111.147-1.147 1.148 1.148 0 01-1.146 1.144v.004zm-4.84-2.265h-1.304v-1.057h3.816v1.056h-1.305v3.295h-1.206v-3.294zm7.464-1.057h1.864c1.1 0 1.809.566 1.81 1.542 0 1.025-.79 1.566-1.87 1.566h-.598v1.243h-1.206v-4.35zm1.206 2.164h.572c.428 0 .689-.225.689-.579 0-.372-.261-.572-.696-.572h-.566v1.15zm-14.915-1.049c0 .541-.332.906-.742.997.462.072.827.515.827 1.062 0 .631-.423 1.178-1.276 1.178h-2.54v-4.344h2.462c.86 0 1.27.566 1.27 1.107zm-1.524-.159h-1.088v.723h1.088a.363.363 0 00.352-.504.363.363 0 00-.352-.219zm-1.088 2.455h1.128v-.003c.27 0 .43-.156.43-.39 0-.216-.157-.391-.43-.391h-1.127v.784z" clip-rule="evenodd"/></svg>