<svg xmlns="http://www.w3.org/2000/svg" width="60" height="60"><g fill="none" fill-rule="evenodd"><path fill="#778A9B" fill-rule="nonzero" d="M30 0c16.569 0 30 13.432 30 29.995v.01C60 46.571 46.572 60 30 60 13.431 60 0 46.572 0 30 0 13.431 13.428 0 30 0z"/><path fill="#FFF" d="M24.296 35.704L27 33h-7v7l2.858-2.858A10.279 10.279 0 0030 40c4.937 0 9.055-3.436 10-8h-2.107c-.924 3.454-4.107 6-7.893 6a8.187 8.187 0 01-5.704-2.296zm11.408-11.408L33 27h7v-7l-2.858 2.858A10.279 10.279 0 0030 20c-4.937 0-9.055 3.436-10 8h2.107c.924-3.454 4.107-6 7.893-6 2.22 0 4.232.875 5.704 2.296z"/></g></svg>