<svg xmlns="http://www.w3.org/2000/svg" width="80" height="80"><g fill="none" fill-rule="evenodd"><circle cx="40" cy="40" r="40" fill="#394874"/><g fill="#FFF"><path d="M40.622 11l-7.46 4.357v20.508l7.46-4.357z"/><path d="M52.802 21.733v3.448c4.34 3.664 7.16 9.159 7.16 15.3 0 6.789-3.363 12.715-8.57 16.378V20.764l-1.52-.862v37.927c-.433.215-.976.539-1.41.754V19.04l-1.519-.862V59.23c-.434.215-.976.323-1.41.43V17.317l-1.41-.862v43.53c-.434.108-.977.215-1.41.215V15.592l-1.52-.862v45.685h-1.518V33.8l-11.283 6.573v16.7c-5.208-3.663-8.68-9.697-8.68-16.593 0-7.757 4.448-14.438 10.85-17.778v-3.017C22.641 23.242 17 31.216 17 40.481c0 8.405 4.665 15.84 11.5 19.718a22.351 22.351 0 0011.283 3.017h1.519c.542 0 .976-.108 1.519-.108.434-.107.976-.107 1.41-.215.543-.108.977-.216 1.519-.323.434-.108.976-.216 1.41-.431.543-.216.977-.324 1.52-.539.433-.215.976-.431 1.41-.646.542-.216.976-.54 1.518-.755C58.443 56.213 63 48.994 63 40.59c-.217-7.865-4.123-14.761-10.198-18.856z"/></g></g></svg>