<svg xmlns="http://www.w3.org/2000/svg" width="41" height="40" fill="none"><path fill="#00B33C" fill-rule="evenodd" d="M20.5 40c11.046 0 20-8.954 20-20s-8.954-20-20-20S.5 8.954.5 20s8.954 20 20 20z" clip-rule="evenodd"/><path fill="#fff" fill-rule="evenodd" d="M11.49 22.51h-1.132c-1.766 0-.483-3.751 1.004-3.751h1.788c.287 0 .793.052 1.042-.657L14.577 17h-2.453c-1.328 0-2.363.468-3.11 1.253-1.29 1.343-1.728 3.442-1.419 4.446.295.928 1.095 1.54 2.348 1.555l.973.007h1.2l.295-.883c.219-.626-.272-.868-.921-.868zm13.783-1.555l.37-1.2h-3.948c-.657 0-.951.181-1.064.559l-.37 1.2h3.947c.657 0 .951-.181 1.065-.559zm-5.601 2.114l-.37 1.2h3.948c.649 0 .95-.181 1.064-.559l.37-1.2h-3.948c-.649 0-.943.181-1.064.559zm6.521-4.861l.37-1.2h-3.947c-.657 0-.951.18-1.064.558l-.37 1.2h3.947c.65 0 .944-.18 1.064-.558zm-5.962.241c-.167-1.117-.763-1.442-2.212-1.442h-2.642l-1.54 4.507h.974c.581 0 .876.007 1.185-.823l.642-1.932h.981c.838 0 .65 1.049.226 2.068-.377.898-1.034 1.69-1.826 1.69H14.38c-.657 0-.959.182-1.08.56l-.407 1.2h1.2l1.178-.008c1.041-.008 1.894-.083 2.89-.981 1.057-.96 2.28-3.42 2.069-4.839zM33.5 17h-2.287l-2.151 2.287c-.25.264-.506.528-.755.838h-.023L29.356 17h-1.864l-2.514 7.269h1.865l.8-2.287.83-.702.657 2.068c.204.642.415.92.868.92h1.426l-1.464-4.06L33.5 17z" clip-rule="evenodd"/></svg>