<svg xmlns="http://www.w3.org/2000/svg" xmlns:xlink="http://www.w3.org/1999/xlink" width="80" height="80"><defs><circle id="vezetvsem__a" cx="40" cy="40" r="40"/></defs><g fill="none" fill-rule="evenodd"><use fill="#F3F3F3" xlink:href="#vezetvsem__a"/><g fill-rule="nonzero"><path fill="#EDD256" d="M50.01 57.423c-.245 0-.367 0-.539-.05L23.219 49.88a2.556 2.556 0 01-1.791-2.815l4.294-25.895c.122-.629.49-1.207 1.055-1.383l9.323-4.148a4.978 4.978 0 011.962-.378c.368 0 .614.05.982.126l25.442 5.079c.196 0 .245.125.245.301l-4.857 26.348c-.123.628-.368 1.207-.86 1.71l-7.531 7.969c-.368.427-.859.629-1.472.629"/><path fill="#000" d="M36.04 15.492l-9.323 4.148c-.54.302-1.03.805-1.178 1.509L21.27 47.094c-.245 1.307.614 2.64 1.914 3.017l26.178 7.366c.785.251 1.669 0 2.16-.578l7.605-8.096c.442-.452.736-1.055.859-1.76l4.858-26.347c.049-.176-.123-.377-.368-.452-2.748-.503-20.192-3.948-25.467-5.029-1.055-.226-2.11-.1-2.969.277m19.824 12.696l-.859 4.324c-.049.377.368.704.663.453l3.803-2.766-4.711 5.481a2.12 2.12 0 00-.613 1.182l-.442 2.388c-.05.377.368.704.687.503 0 0 4.416-3.319 4.22-3.143l-5.201 6.235c-.368.377-.614.805-.687 1.257l-.368 1.961c-.05.377.294.704.662.453 0 0 4.244-3.143 4.17-3.017l-4.096 5.053c-1.472 1.634-1.669 2.388-1.767 3.143l-.859 4.4c-.122.552-.54.88-1.104.753l-25.834-7.24c-1.154-.377-1.89-1.458-1.644-2.715l4.293-25.996c0-.05.123-.176.295-.176l28.46 6.034c0-.025 1.177.302.932 1.433m-.859-2.011l-21.418-4.601-5.275-1.634c-.196-.05-.196-.302 0-.377l8.145-3.57c.736-.377 1.472-.377 2.208-.252L63.2 20.57c.196 0 .245.302.049.453l-6.232 4.701c-.613.453-1.35.629-2.012.453"/><path fill="#000" d="M52.724 33.677l-.123.201h-.049c-2.699-1.885-5.103-2.891-8.538-3.645-.294-.126-.54-.453-.442-.754l.123-.629c.05-.377.368-.503.736-.503 3.067.704 5.398 1.71 7.802 3.218.687.403.932 1.408.49 2.112"/><path fill="#000" d="M52.595 33.798c-1.226 5.48-5.03 5.405-7.973 4.978-2.748-.377-4.171-2.137-4.662-4.324-.196-.553-.368-1.132-.859-1.257l-1.153-.377c-.49-.126-1.104.125-1.472.553-1.472 1.71-3.606 2.715-5.692 2.061-3.754-1.207-4.735-4.073-4.416-7.416l26.227 5.782M35.912 27.06l-.196.629c-.05.251-.295.377-.54.377-3.73-.453-8.955-.126-8.955-.126s-.295-1.383 1.35-1.885c2.698-.252 4.783-.176 7.85.301.368.076.565.453.49.704"/><path fill="#84A7E0" d="M29.303 44.148c-4.907-1.508-9.986 1.207-11.531 6.16-1.423 4.978 1.226 10.182 6.06 11.69 4.833 1.559 9.985-1.207 11.457-6.16 1.497-4.977-1.153-10.181-5.986-11.69m-.687 2.137c2.33.754 3.925 2.565 4.539 4.777.294.804-.614 1.559-1.35 1.131-.736-.377-1.423-.804-2.208-1.056-1.423-.628-2.895-1.056-4.49-1.382a8.475 8.475 0 01-.98-.202l-1.473-.2c-.785-.05-1.104-1.132-.49-1.71 1.741-1.484 4.121-2.062 6.452-1.358m-7.655 5.707c.368 0 .663 0 .982.05.736.05 1.226.629 1.349 1.257.123.88.49 1.71 1.104 2.263l-.613 2.062c-.295.804-1.35 1.131-2.086.553-1.227-1.257-2.012-3.017-2.085-4.903.049-.78.613-1.282 1.35-1.282m5.274 6.486l.687-2.061a3.203 3.203 0 002.33-1.207c.491-.553 1.277-.704 1.914-.302.295.202.54.378.786.554.54.377.736 1.13.294 1.71-1.104 1.633-2.748 2.639-4.662 2.89-.932.1-1.594-.779-1.349-1.584"/><path fill="#2F4155" d="M26.604 62.752c-.957 0-1.938-.15-2.87-.452-5.006-1.559-7.753-6.864-6.281-12.068 1.594-5.154 6.82-7.944 11.923-6.36 4.956 1.533 7.729 6.964 6.208 12.092-.736 2.464-2.38 4.5-4.613 5.707a9.447 9.447 0 01-4.367 1.081zm-.074-18.704c-3.802 0-7.262 2.463-8.464 6.36-1.374 4.878 1.202 9.83 5.864 11.288 2.282.73 4.686.528 6.796-.603 2.085-1.131 3.606-3.017 4.293-5.33 1.423-4.802-1.177-9.855-5.814-11.288a8.26 8.26 0 00-2.675-.427zm.884 16.316c-.442 0-.884-.201-1.178-.553a1.518 1.518 0 01-.294-1.433l.736-2.263.196-.025c.834-.05 1.62-.452 2.11-1.081a1.805 1.805 0 012.306-.377c.32.201.564.402.834.578.344.226.59.604.638 1.03a1.37 1.37 0 01-.294 1.107 7.002 7.002 0 01-4.858 3.017h-.196zm-.884-1.785c-.073.277-.024.603.172.83a.883.883 0 00.834.326 6.3 6.3 0 004.441-2.765.805.805 0 00.172-.654c-.05-.251-.172-.477-.393-.603-.27-.201-.49-.377-.785-.553a1.185 1.185 0 00-1.52.251c-.565.704-1.4 1.157-2.332 1.282l-.589 1.886zm-3.999.251c-.368 0-.711-.125-1.006-.352l-.024-.025a7.818 7.818 0 01-2.184-5.103v-.051c.074-.955.736-1.609 1.644-1.609.368 0 .687 0 1.03.076.81.075 1.448.679 1.595 1.508.123.855.466 1.61 1.006 2.087l.147.126-.662 2.262c-.196.503-.564.855-1.08 1.006a1.63 1.63 0 01-.466.075zm-.638-.854c.27.2.614.251.933.176.319-.1.564-.302.662-.604l.54-1.86c-.564-.578-.932-1.383-1.055-2.313-.098-.453-.466-.93-1.08-.98h-.024c-.27-.05-.564-.05-.932-.05-.59 0-.982.376-1.03 1.005a7.124 7.124 0 001.986 4.626zm10.379-5.33c-.221 0-.418-.05-.614-.176l-.589-.302c-.515-.276-1.006-.553-1.57-.729h-.024c-1.325-.603-2.773-1.03-4.417-1.358-.368-.05-.662-.125-.981-.2l-1.448-.177c-.466-.025-.858-.352-1.005-.83a1.318 1.318 0 01.368-1.407 7.087 7.087 0 016.722-1.458c2.33.754 4.073 2.564 4.735 4.978.172.477.025 1.005-.368 1.357a1.34 1.34 0 01-.81.302zm-2.552-1.81a9.035 9.035 0 011.644.779c.196.1.392.201.589.327a.595.595 0 00.736-.076c.073-.075.319-.301.171-.678v-.026c-.613-2.212-2.183-3.871-4.342-4.55a6.447 6.447 0 00-6.158 1.332.666.666 0 00-.172.73c.073.226.27.402.49.402l1.497.2c.32.076.638.127 1.006.202 1.668.277 3.165.73 4.539 1.358z"/><path fill="#000" d="M36.767 45.626c-5.765-1.71-7.556-6.462-8.096-8.498-.049-.377.294-.629.54-.453 1.521.704 4.956 2.263 8.587 3.269 2.993.88 8.538 1.08 10.255 1.131.295 0 .368.302.295.503-.859 1.483-3.926 5.757-11.58 4.048"/><path fill="#FFF" d="M46.987 42.403c.196-.201.049-.453-.197-.453-2.821.076-5.937-.176-9.126-1.005-3.263-.755-6.502-2.263-7.802-2.892-.246-.125-.442.126-.368.378 1.177 2.388 3.385 5.28 7.9 5.983 3.46.629 7.017.251 9.593-2.011"/><path fill="#000" d="M48.795 23.837l5.692 1.006c.981.176 1.962-.076 2.748-.553l3.778-2.59c-3.754 1.508-5.275 2.338-12.218 2.137"/><path fill="#EDD256" d="M34.848 59.408a1.484 1.484 0 01-1.227-1.383c-.123-1.382-.049-3.343.785-5.732.246-.704.859-.955 1.472-.804l2.895.377c1.03.125 2.65 1.307 2.086 4.525-.246 1.307-.687 2.263-1.227 2.816-.613.628-1.227.628-1.668.553l-3.116-.352z"/><path fill="#000" d="M38.307 60.137c-.171 0-.294-.025-.368-.025l-3.14-.377c-.81-.151-1.399-.83-1.472-1.66-.172-1.91.098-3.871.81-5.857.27-.78.98-1.182 1.815-1.006l2.87.377c.663.076 1.325.503 1.767 1.106.466.629.932 1.81.589 3.797-.246 1.357-.687 2.363-1.3 2.991-.59.528-1.178.654-1.57.654zm-3.41-1.03l3.116.376c.392.05.883.05 1.398-.477.516-.528.908-1.458 1.153-2.665.295-1.76-.098-2.766-.49-3.294-.344-.477-.834-.804-1.35-.854l-2.895-.377c-.54-.101-.981.125-1.153.603-.687 1.885-.932 3.771-.785 5.581.098.553.466 1.006 1.006 1.106z"/><path fill="#EDD256" d="M21.968 44.024c.49.503.54 1.257.196 1.885-.736 1.132-1.89 2.715-3.975 4.023-.613.377-1.226.2-1.717-.252l-.442-.452c-.736-.754-1.349-2.715.982-4.903.981-.88 1.84-1.382 2.65-1.508.858-.126 1.349.251 1.717.553l.589.654z"/><path fill="#000" d="M17.478 50.435c-.417 0-.859-.176-1.251-.528l-.442-.453c-.49-.503-.76-1.257-.76-2.036.024-.78.318-1.986 1.741-3.319 1.055-.93 1.963-1.458 2.797-1.584 1.03-.15 1.644.352 1.963.629l.025.025.613.628c.589.604.687 1.509.22 2.263-.784 1.232-1.962 2.79-4.096 4.123-.221.176-.516.252-.81.252zm2.503-7.316c-.099 0-.197 0-.295.025-.711.126-1.521.578-2.478 1.433-.981.93-1.521 1.91-1.546 2.866-.024.905.442 1.433.565 1.584l.441.452c.295.277.785.528 1.35.201 2.012-1.282 3.14-2.765 3.9-3.922.295-.502.246-1.08-.146-1.483l-.614-.628c-.319-.302-.662-.528-1.177-.528z"/></g></g></svg>