<svg xmlns="http://www.w3.org/2000/svg" xmlns:xlink="http://www.w3.org/1999/xlink" width="80" height="80"><defs><circle id="hatsandcaps__a" cx="40" cy="40" r="40"/></defs><g fill="none" fill-rule="evenodd"><use fill="#F3F3F3" xlink:href="#hatsandcaps__a"/><g fill-rule="nonzero"><path fill="#000" d="M19.371 53.343h-2.4l-.685 1.6H15.6L18.229 49l2.571 5.943h-.686l-.743-1.6zm-.228-.629l-.972-2.285-.971 2.285h1.943zm4.114-2.857v5.086h-.628v-5.086h-1.372v-.571h3.372v.571zm5.143.514a.804.804 0 00-.343-.4 1.39 1.39 0 00-.628-.171c-.572 0-.972.343-.972.857 0 .229.057.343.229.514.171.172.4.286.571.343l.572.229c.342.171.628.286.857.514.285.286.4.629.4 1.029 0 1.028-.8 1.771-1.772 1.771-.4 0-.857-.057-1.257-.457a1.958 1.958 0 01-.514-1.029l.628-.171c.058.286.172.571.343.743.229.228.515.343.8.343.8 0 1.143-.572 1.143-1.143a.905.905 0 00-.286-.686c-.171-.171-.4-.228-.685-.4l-.515-.228c-.228-.115-.514-.229-.742-.458-.229-.228-.4-.514-.4-.914 0-.857.685-1.486 1.6-1.486.342 0 .628.058.914.229.228.171.4.4.571.629l-.514.342z"/><path fill="#3AA1D4" d="M34.057 53.343h-2.4l-.686 1.6h-.685L32.914 49l2.572 5.943H34.8l-.743-1.6zm-.228-.629l-.972-2.285-.971 2.285h1.943zm3.028 2.229V49l4.457 4.629v-4.4h.629v5.942l-4.457-4.628v4.4h-.629zm7.2-5.714H45.2c.571 0 1.371.057 2.114.685a2.79 2.79 0 01.972 2.172c0 1.2-.572 1.828-.972 2.171-.514.457-1.085.629-2.057.629h-1.143v-5.657h-.057zm.629 5.085h.571c.457 0 1.086-.057 1.6-.514.4-.343.743-.914.743-1.714 0-1.372-.971-2.229-2.4-2.229h-.571v4.457h.057z"/><path fill="#000" d="M54.4 50.486c-.171-.172-.457-.4-.743-.515-.286-.114-.628-.228-.971-.228-1.315 0-2.286 1.028-2.286 2.343 0 1.543 1.257 2.343 2.286 2.343.4 0 .743-.115 1.028-.286.343-.172.572-.4.629-.457v.8a3.015 3.015 0 01-1.714.571c-1.715 0-2.915-1.257-2.915-2.914 0-1.714 1.257-2.972 2.972-2.972.343 0 .971.058 1.657.572v.743h.057zm4.914 2.857h-2.4l-.685 1.6h-.686L58.17 49l2.572 5.943h-.686l-.743-1.6zm-.228-.629l-.972-2.285-.971 2.285h1.943zm4.057-3.485c.571 0 1.028.057 1.428.4.4.342.515.857.515 1.2 0 .8-.515 1.6-1.772 1.6h-.571v2.457h-.629v-5.657h1.029zm-.4 2.628h.514c.743 0 1.2-.4 1.2-1.028 0-.915-.857-.972-1.257-.972h-.457v2zm-52.114-.286h2.914v-2.285h.628v5.657h-.628v-2.8h-2.914v2.8H10v-5.657h.629zm58.571-1.2a.804.804 0 00-.343-.4 1.39 1.39 0 00-.628-.171c-.572 0-.972.343-.972.857 0 .229.057.343.229.514.171.172.4.286.571.343l.572.229c.342.171.628.286.857.514.285.286.4.629.4 1.029 0 1.028-.8 1.771-1.772 1.771-.4 0-.857-.057-1.257-.457a1.958 1.958 0 01-.514-1.029l.628-.171c.058.286.172.571.343.743.229.228.515.343.8.343.8 0 1.143-.572 1.143-1.143a.905.905 0 00-.286-.686c-.171-.171-.4-.228-.685-.4l-.515-.228c-.228-.115-.514-.229-.742-.458-.229-.228-.4-.514-.4-.914 0-.857.685-1.486 1.6-1.486.342 0 .628.058.914.229.228.171.4.4.571.629l-.514.342z"/></g><g fill-rule="nonzero"><path fill="#3AA1D4" d="M5 39.846h9.692v3.051H5z"/><path fill="#000" d="M74.103 43.077h-56.36v-7.898C17.744 23.513 27.796 14 40 14c12.205 0 22.256 9.513 22.256 21.18v4.666h11.847v3.23zm-53.308-3.23h38.23v-4.668c0-10.05-8.615-18.128-19.204-18.128-10.59 0-19.206 8.077-19.206 18.128v4.667h.18z"/></g></g></svg>