<svg xmlns="http://www.w3.org/2000/svg" xmlns:xlink="http://www.w3.org/1999/xlink" width="60" height="60"><defs><path id="finance-flexbank__a" d="M29.703 59.405c16.404 0 29.702-13.298 29.702-29.702C59.405 13.298 46.107 0 29.703 0 13.298 0 0 13.298 0 29.703c0 16.404 13.298 29.702 29.703 29.702z"/><path id="finance-flexbank__b" d="M31.794.072H.05V34.65h31.745V.072z"/><path id="finance-flexbank__d" d="M0 .117v25.095h14.079V.117H0z"/></defs><g fill="none" fill-rule="evenodd"><use fill="#E3EDD5" xlink:href="#finance-flexbank__a"/><g transform="translate(13.55 12.07)"><mask id="finance-flexbank__c" fill="#fff"><use xlink:href="#finance-flexbank__b"/></mask><path fill="#8FC741" d="M6.925 34.65c-.287-.25-.661-.195-.995-.267-2.174-.467-4.037-1.53-5.881-2.96 1.14-.026 2.14-.119 3.12-.349 2.903-.681 4.556-2.736 5.742-5.254 1.197-2.538 1.72-5.264 2.153-8.011.572-3.626 1.1-7.272 2.701-10.63 1.576-3.305 3.93-5.846 7.62-6.794 2.901-.745 5.639-.112 8.192 1.369.734.425 1.433.912 2.217 1.415-.734.276-1.438.187-2.116.268-2.59.309-4.468 1.694-5.84 3.827-1.468 2.282-2.167 4.843-2.668 7.466-.608 3.185-.927 6.425-1.862 9.548-.878 2.93-2.12 5.645-4.493 7.713-1.626 1.418-3.465 2.368-5.658 2.545-.082.007-.16.075-.239.114H6.925z" mask="url(#finance-flexbank__c)"/></g><g transform="translate(7 15.605)"><mask id="finance-flexbank__e" fill="#fff"><use xlink:href="#finance-flexbank__d"/></mask><path fill="#034F44" d="M14.079 2.178C8.903 4.418 7.45 10.473 7.84 14.355c.162 1.606.58 3.134 1.318 4.58.74 1.444 1.764 2.622 3.2 3.4.49.265.386.427.08.746-2.928 3.056-7.052 2.804-9.682-.614C1.017 20.207.213 17.6.043 14.8-.243 10.116.877 5.877 4.3 2.459 5.724 1.04 7.408.067 9.524.12c1.804.044 3.25.864 4.555 2.059" mask="url(#finance-flexbank__e)"/></g><path fill="#034F44" d="M39.207 20.597c2.443-3.246 6.804-3.458 9.482-.448 2.289 2.574 3.17 5.678 3.269 9.04.11 3.757-.788 7.228-3.103 10.264-.792 1.038-1.724 1.942-2.851 2.628-2.735 1.666-5.753 1.3-8.072-1.005 4.134-2.033 5.871-5.6 6.172-9.918.302-4.335-.869-8.114-4.897-10.561"/></g></svg>