<svg xmlns="http://www.w3.org/2000/svg" width="41" height="40" fill="none"><circle cx="20.5" cy="20" r="20" fill="#4482B0"/><path fill="#FEFEFE" d="M11.63 21.847a23.58 23.58 0 01-2.41-1.79 6.21 6.21 0 01-1.144-1.262 1.97 1.97 0 01-.308-.777 1.27 1.27 0 01.258-.938c.316-.42.768-.707 1.223-.956a15.44 15.44 0 012.504-.987L11.715 15a.79.79 0 00-.17.047c-.782.24-1.543.54-2.278.896-.54.28-1.081.613-1.444 1.115-.204.277-.317.61-.322.954-.017.463.155.906.365 1.314.353.62.778 1.195 1.267 1.713.583.647 1.21 1.241 1.852 1.82 1.424 1.283 2.928 2.477 4.443 3.652a230.414 230.414 0 004.084 3.064c.023-.042.104-.093.05-.14a196.03 196.03 0 01-5.117-3.874c-1.321-1.048-2.628-2.115-3.862-3.265a18.77 18.77 0 01-1.897-2.006 5.479 5.479 0 01-.946-1.622.81.81 0 01-.019-.28c.062.184.15.358.259.518.256.374.554.716.889 1.022a20.9 20.9 0 002.514 1.921c1.652 1.103 3.363 2.112 5.078 3.116 2.638 1.537 5.293 3.048 7.93 4.588a.316.316 0 00.063-.13c-2.588-1.506-5.19-2.992-7.78-4.498-1.704-.995-3.401-1.994-5.043-3.078z"/><path fill="#FEFEFE" d="M16.496 21.323a.049.049 0 00-.016-.02.027.027 0 00-.009-.006.027.027 0 00-.01-.002h-.543v-.418h.456a.036.036 0 00.02 0 .043.043 0 00.014-.019.17.17 0 00.009-.035v-.108a.16.16 0 00-.01-.037.055.055 0 00-.013-.02.04.04 0 00-.02 0h-.456v-.361h.539a.031.031 0 00.018 0 .04.04 0 00.014-.021.152.152 0 00.01-.035v-.111a.192.192 0 00-.01-.038.047.047 0 00-.014-.02.031.031 0 00-.018 0h-.753a.101.101 0 00-.066.024.091.091 0 00-.026.073v1.293a.086.086 0 00.023.07.083.083 0 00.068.025h.758a.025.025 0 00.02 0 .056.056 0 00.015-.02.185.185 0 00.008-.036.369.369 0 000-.056.345.345 0 000-.055.116.116 0 00-.008-.067zm3.951-2.663a.195.195 0 00.048.009c.024.002.05.002.074 0h.075a.272.272 0 00.046-.01.058.058 0 00.025-.013.032.032 0 00.008-.021v-.474h.129a.865.865 0 00.259-.035.495.495 0 00.186-.1c.05-.044.09-.1.115-.162a.562.562 0 00.015-.384.385.385 0 00-.193-.219.5.5 0 00-.137-.05.992.992 0 00-.117-.016h-.458a.105.105 0 00-.075.027.101.101 0 00-.028.08v1.333c0 .007.002.015.006.02a.06.06 0 00.022.015zm.276-1.243h.129c.031 0 .062.001.093.006.03.004.06.014.086.03a.19.19 0 01.068.075c.02.04.03.084.029.13a.344.344 0 01-.017.105.244.244 0 01-.048.084.22.22 0 01-.082.055.336.336 0 01-.123.02h-.137l.002-.505zm-5.311 1.244a.29.29 0 00.047.01h.148a.273.273 0 00.046-.01.063.063 0 00.026-.014.03.03 0 00.008-.02V17.43h.5a.028.028 0 00.02 0 .04.04 0 00.014-.021.131.131 0 00.01-.038.377.377 0 000-.058.244.244 0 00-.013-.096.036.036 0 00-.035-.028h-.717a.087.087 0 00-.066.023.093.093 0 00-.025.071v1.343a.024.024 0 00.008.021.058.058 0 00.029.014zm1.027 0a.166.166 0 00.044.01h.132a.142.142 0 00.039-.008.07.07 0 00.026-.015.169.169 0 00.019-.022l.517-.776c.012-.014.022-.031.033-.047.01-.015.022-.032.03-.047l.03-.046.025-.035v.94c0 .008.002.016.007.022a.058.058 0 00.024.014c.015.005.03.008.047.009h.147a.261.261 0 00.048-.01.06.06 0 00.025-.013.03.03 0 00.008-.021v-1.393a.033.033 0 00-.007-.022.06.06 0 00-.022-.015.183.183 0 00-.044-.008.548.548 0 00-.072 0h-.06a.147.147 0 00-.039.008.116.116 0 00-.024.015.137.137 0 00-.018.02l-.524.776c-.022.03-.043.063-.064.094-.02.03-.037.06-.05.082v-.952a.032.032 0 00-.008-.02.052.052 0 00-.025-.015.713.713 0 00-.24 0 .055.055 0 00-.026.015.032.032 0 00-.008.02v1.404a.033.033 0 000 .022.044.044 0 00.03.014zm6.425.004a.033.033 0 00.02.017.6.6 0 00.198-.02.297.297 0 00.13-.072.494.494 0 00.105-.141c.036-.074.064-.15.085-.23.029-.11.053-.223.071-.335.026-.153.05-.306.068-.46h.324v1.197c0 .008.002.015.007.02a.058.058 0 00.024.015l.047.01h.149a.267.267 0 00.046-.01.05.05 0 00.025-.014.03.03 0 00.008-.02v-1.345a.096.096 0 00-.024-.071.086.086 0 00-.064-.024h-.74a.08.08 0 00-.063.024.153.153 0 00-.028.081c-.018.166-.036.31-.054.43-.018.12-.038.222-.056.306a1.603 1.603 0 01-.056.202.48.48 0 01-.06.12.152.152 0 01-.128.07.048.048 0 00-.023 0 .041.041 0 00-.014.022.272.272 0 00-.009.047v.08a.435.435 0 000 .058c0 .015.005.03.012.043zm-3.756-1.248a.022.022 0 00.01.002c.003 0 .006 0 .01-.002h.378v1.196c0 .008.003.015.008.021a.053.053 0 00.025.014c.015.005.03.008.046.01h.149a.266.266 0 00.047-.01.064.064 0 00.026-.014.032.032 0 00.007-.02v-1.186h.378a.038.038 0 00.02 0 .072.072 0 00.014-.02.206.206 0 00.009-.04v-.114a.178.178 0 00-.01-.038.043.043 0 00-.013-.02.03.03 0 00-.02 0h-1.065a.027.027 0 00-.019 0 .04.04 0 00-.014.02.178.178 0 00-.01.038.85.85 0 000 .115c0 .013 0 .026.01.038l.014.01zm-1.654 2.653a1.316 1.316 0 00-.115-.018c-.032-.004-.066 0-.102 0h-.356a.105.105 0 00-.075.027.106.106 0 00-.028.082v1.334c0 .007.002.014.006.02a.051.051 0 00.025.016.289.289 0 00.048.009c.024.002.049.002.073 0h.076a.263.263 0 00.046-.01.05.05 0 00.025-.015.03.03 0 00.007-.02v-.474h.13a.915.915 0 00.259-.034.527.527 0 00.186-.1c.05-.044.09-.1.115-.162a.567.567 0 00.014-.386.38.38 0 00-.194-.218.47.47 0 00-.14-.05zm.02.558a.231.231 0 01-.048.083.204.204 0 01-.081.054.335.335 0 01-.13.02h-.137v-.504h.13a.723.723 0 01.093 0c.03.005.059.016.085.031a.198.198 0 01.069.074c.02.04.03.084.028.13a.358.358 0 01-.01.112zm.603-2.125c.06.062.132.11.212.14.09.032.185.048.28.047a.747.747 0 00.147-.013.64.64 0 00.261-.105.08.08 0 00.018-.023.082.082 0 00.01-.025.34.34 0 000-.035v-.114a.21.21 0 000-.038.033.033 0 00-.01-.019.04.04 0 00-.019 0 .079.079 0 00-.043.018l-.07.042a.46.46 0 01-.243.06.4.4 0 01-.161-.03.317.317 0 01-.123-.092.462.462 0 01-.08-.158.855.855 0 01-.004-.439.478.478 0 01.076-.161.334.334 0 01.28-.141.432.432 0 01.242.064.642.642 0 01.07.046c.013.01.028.017.044.019a.032.032 0 00.02 0 .055.055 0 00.013-.022.14.14 0 00.009-.039v-.112a.26.26 0 000-.038.113.113 0 00-.01-.027.136.136 0 00-.021-.026.471.471 0 00-.145-.075.728.728 0 00-.229-.038.758.758 0 00-.284.052.609.609 0 00-.22.152.672.672 0 00-.144.247.989.989 0 00-.052.335c-.002.11.015.22.048.326.027.082.07.158.128.222zm7.537-.33v.002-.002zm-10.636 1.899a1.008 1.008 0 00-.234-.024h-.38a.1.1 0 00-.065.024.091.091 0 00-.026.072v1.294a.083.083 0 00.055.09.086.086 0 00.037.004h.4c.055.001.11-.002.165-.01a.735.735 0 00.14-.034.546.546 0 00.12-.06.366.366 0 00.154-.197.452.452 0 00-.001-.28.345.345 0 00-.158-.18.405.405 0 00-.119-.04.33.33 0 00.09-.049.292.292 0 00.108-.16.387.387 0 00-.022-.27.3.3 0 00-.1-.116.452.452 0 00-.164-.064zm-.403.203h.155a.378.378 0 01.112.013c.026.006.05.019.072.036a.144.144 0 01.042.058c.01.026.014.053.013.08a.209.209 0 01-.013.076.17.17 0 01-.105.106.29.29 0 01-.106.016h-.17v-.385zm.455.905a.175.175 0 01-.05.065.243.243 0 01-.076.039.38.38 0 01-.108.013h-.221v-.422h.18a.56.56 0 01.138.014c.031.01.06.024.086.043.023.018.04.042.05.068.013.03.02.062.019.094a.206.206 0 01-.018.091v-.005zm6.39-2.564a.038.038 0 00.01.036.06.06 0 00.04.017h.085a.715.715 0 00.08 0 .184.184 0 00.048-.008.05.05 0 00.024-.018.088.088 0 00.013-.027l.096-.29h.564l.1.298a.086.086 0 00.013.024.04.04 0 00.024.015.331.331 0 00.05.007h.184a.078.078 0 00.046-.015.041.041 0 00.009-.037.34.34 0 00-.018-.064l-.466-1.316a.12.12 0 00-.017-.034.06.06 0 00-.034-.019.321.321 0 00-.063-.008h-.204a.26.26 0 00-.057.008.055.055 0 00-.03.018.11.11 0 00-.017.032l-.464 1.316a.434.434 0 00-.016.065zm.677-1.15l.213.63h-.428l.215-.63zM11.873 18.66c.015.005.03.008.045.009a.51.51 0 00.07 0h.071a.264.264 0 00.044-.01.048.048 0 00.024-.013.035.035 0 00.007-.021v-1.208l.423 1.205a.046.046 0 00.015.022.1.1 0 00.028.016c.015.004.03.007.046.009h.135a.267.267 0 00.046-.008l.03-.015a.059.059 0 00.014-.025l.438-1.204v1.207c0 .007.003.015.008.02a.048.048 0 00.023.015.166.166 0 00.044.009.627.627 0 00.07 0 .649.649 0 00.071 0 .183.183 0 00.045-.01.053.053 0 00.024-.014.043.043 0 000-.02v-1.321a.162.162 0 00-.008-.052.136.136 0 00-.022-.038.087.087 0 00-.037-.023.172.172 0 00-.055-.008h-.207a.326.326 0 00-.075.008.142.142 0 00-.057.03.2.2 0 00-.041.054.405.405 0 00-.034.082l-.339.88-.327-.883a.347.347 0 00-.032-.081.188.188 0 00-.047-.053.2.2 0 00-.067-.029.457.457 0 00-.092-.008h-.2a.118.118 0 00-.085.032.12.12 0 00-.03.089v1.322c0 .007.002.015.006.02a.054.054 0 00.028.015zm.079 2.71c.059.062.131.11.212.139.09.033.184.05.28.048a.752.752 0 00.269-.044.626.626 0 00.09-.04.3.3 0 00.05-.034.163.163 0 00.018-.023.099.099 0 00.01-.025v-.149a.196.196 0 00-.007-.039.043.043 0 00-.011-.018.03.03 0 00-.02 0 .097.097 0 00-.042.018.712.712 0 01-.172.085.494.494 0 01-.303-.012.316.316 0 01-.122-.093.433.433 0 01-.079-.157.845.845 0 01-.027-.227.788.788 0 01.026-.214.48.48 0 01.075-.163.34.34 0 01.28-.139.432.432 0 01.243.065.667.667 0 01.07.044.077.077 0 00.044.021.026.026 0 00.018-.008.048.048 0 00.014-.02.142.142 0 00.01-.04v-.112-.039a.09.09 0 00-.01-.025.136.136 0 00-.022-.026.473.473 0 00-.145-.075.713.713 0 00-.229-.038.728.728 0 00-.283.052.569.569 0 00-.222.151.677.677 0 00-.143.246.999.999 0 00-.052.336c-.002.11.014.22.047.325a.62.62 0 00.133.23zm1.895-2.701a.694.694 0 00.085 0 .739.739 0 00.081 0 .205.205 0 00.048-.008.063.063 0 00.023-.018.087.087 0 00.013-.027l.096-.29h.566l.101.299a.102.102 0 00.012.023.04.04 0 00.025.015.33.33 0 00.05.007h.184a.074.074 0 00.045-.015.036.036 0 00.01-.037.452.452 0 00-.018-.064l-.467-1.316a.118.118 0 00-.017-.034.06.06 0 00-.033-.019.325.325 0 00-.062-.008h-.206a.274.274 0 00-.057.008.056.056 0 00-.03.018.112.112 0 00-.016.032l-.465 1.316a.371.371 0 00-.018.065.04.04 0 000 .02.039.039 0 00.009.016.06.06 0 00.041.017zm.627-1.203l.213.63h-.428l.215-.63zm-.483 3.857a.04.04 0 00-.02-.025.026.026 0 00-.019-.008h-.543v-.418h.455a.034.034 0 00.02 0 .043.043 0 00.014-.02.117.117 0 00.009-.034.344.344 0 000-.056.314.314 0 000-.053.161.161 0 00-.01-.036.048.048 0 00-.013-.02.032.032 0 00-.02 0h-.45v-.362h.538a.038.038 0 00.02 0 .048.048 0 00.013-.02.106.106 0 00.009-.035.399.399 0 00-.01-.149.046.046 0 00-.012-.02.034.034 0 00-.02 0h-.758a.1.1 0 00-.065.024.088.088 0 00-.027.072v1.294a.088.088 0 00.027.073.093.093 0 00.065.022h.758a.025.025 0 00.018 0 .038.038 0 00.016-.02.182.182 0 00.009-.036v-.111a.162.162 0 00-.004-.062zm10.57-2.662a.169.169 0 00.038 0h.376a.98.98 0 00.316-.04.517.517 0 00.188-.105.368.368 0 00.103-.154.546.546 0 00-.006-.383.38.38 0 00-.109-.142.5.5 0 00-.172-.087 1.036 1.036 0 00-.273-.028h-.211v-.5a.032.032 0 00-.008-.021.052.052 0 00-.024-.015.194.194 0 00-.047-.008.604.604 0 00-.074 0 .674.674 0 00-.072 0 .195.195 0 00-.048.008.055.055 0 00-.026.015.032.032 0 00-.008.02v1.35a.082.082 0 00.008.042.079.079 0 00.05.048zm.25-.7h.177a.538.538 0 01.158.017.216.216 0 01.087.047c.023.02.04.046.05.075a.294.294 0 01.017.1.26.26 0 01-.014.08.194.194 0 01-.13.13.467.467 0 01-.162.022h-.184l.001-.47zm-.807 2.043a.748.748 0 00-.284.052.606.606 0 00-.22.151.724.724 0 00-.143.247 1.164 1.164 0 000 .664.555.555 0 00.342.375c.089.033.184.048.279.047.049 0 .098-.004.146-.013a.66.66 0 00.21-.071.204.204 0 00.05-.034.1.1 0 00.029-.048v-.15a.212.212 0 00-.007-.039.072.072 0 00-.012-.018.042.042 0 00-.018 0 .079.079 0 00-.042.018l-.07.042a.506.506 0 01-.404.03.318.318 0 01-.122-.092.44.44 0 01-.078-.158.845.845 0 01-.028-.228.802.802 0 01.026-.215.48.48 0 01.075-.163.344.344 0 01.12-.103.351.351 0 01.16-.036.46.46 0 01.24.064c.025.015.048.03.07.046a.077.077 0 00.044.02.029.029 0 00.02-.007.059.059 0 00.013-.021.142.142 0 00.009-.04v-.113a.26.26 0 000-.037.1.1 0 00-.01-.026.093.093 0 00-.021-.026.256.256 0 00-.055-.038.65.65 0 00-.197-.066.746.746 0 00-.122-.014zm-1.796.682v.784c0 .008.002.015.006.02a.059.059 0 00.025.015c.015.004.03.007.046.009h.148a.263.263 0 00.047-.009.065.065 0 00.026-.014.03.03 0 00.007-.02v-1.409a.041.041 0 00-.006-.022.065.065 0 00-.024-.014.183.183 0 00-.044-.008.527.527 0 00-.07 0h-.06a.215.215 0 00-.039.008.114.114 0 00-.025.014l-.018.021-.517.776a1.475 1.475 0 00-.062.095c-.02.032-.038.06-.05.083v-.954a.032.032 0 00-.008-.02.058.058 0 00-.025-.015.7.7 0 00-.24 0 .07.07 0 00-.027.014.032.032 0 00-.007.021v1.408a.04.04 0 00.006.02.04.04 0 00.02.016l.045.009h.132a.127.127 0 00.039 0 .058.058 0 00.024-.014.104.104 0 00.02-.022l.517-.777c.01-.015.022-.03.032-.047l.031-.048.028-.046.022-.037a.694.694 0 000 .076v.087zm-.49-.767a.646.646 0 00.195.024.676.676 0 00.198-.026.37.37 0 00.13-.07.27.27 0 00.07-.103.348.348 0 00.022-.122.053.053 0 00-.006-.027.038.038 0 00-.022-.018.172.172 0 00-.044-.01h-.07a.338.338 0 00-.057 0 .089.089 0 00-.036.01.033.033 0 00-.018.017.072.072 0 000 .025.117.117 0 01-.043.097.196.196 0 01-.052.028.213.213 0 01-.19-.03.122.122 0 01-.044-.094.049.049 0 000-.025.035.035 0 00-.018-.018.096.096 0 00-.036-.01.402.402 0 00-.062 0h-.066a.148.148 0 00-.042.01.04.04 0 00-.02.018.043.043 0 00-.007.027.34.34 0 00.022.13c.016.04.042.075.075.102.036.03.078.051.122.065zm11.142.77a.482.482 0 00-.171-.086 1.06 1.06 0 00-.27-.028h-.188v-.518a.033.033 0 00-.008-.02.057.057 0 00-.024-.015.193.193 0 00-.047-.007.604.604 0 00-.074 0 .585.585 0 00-.072 0 .204.204 0 00-.048.007.074.074 0 00-.026.015.033.033 0 00-.008.02v1.357c0 .015.003.03.008.043a.083.083 0 00.02.03.077.077 0 00.03.018.168.168 0 00.037 0h.354c.106.003.212-.01.313-.04a.53.53 0 00.185-.104.415.415 0 00.104-.154.544.544 0 00.033-.194.387.387 0 00-.149-.325zm-.179.437a.2.2 0 01-.044.075.218.218 0 01-.084.056.498.498 0 01-.16.02h-.162v-.472h.157a.528.528 0 01.155.017c.031.01.06.026.085.048.023.02.04.046.05.075.011.031.017.065.016.098a.27.27 0 01-.01.083h-.003zm-2.677-1.1a.172.172 0 00-.044-.008.529.529 0 00-.07 0h-.06a.142.142 0 00-.04.008.143.143 0 00-.024.014l-.018.021-.517.776a1.52 1.52 0 00-.063.095l-.05.083v-.954a.032.032 0 00-.008-.02.051.051 0 00-.024-.015.7.7 0 00-.24 0 .072.072 0 00-.027.014.032.032 0 00-.008.021v1.408a.04.04 0 00.007.02.04.04 0 00.02.016.175.175 0 00.045.009h.132a.126.126 0 00.038 0 .058.058 0 00.025-.014.077.077 0 00.02-.022l.523-.777.033-.047.03-.048.028-.046.022-.037v.948c0 .008.002.015.006.021a.059.059 0 00.025.014c.015.005.03.008.047.01h.147a.263.263 0 00.047-.01.064.064 0 00.026-.014.03.03 0 00.007-.02v-1.41a.04.04 0 00-.006-.022.065.065 0 00-.029-.014zm-10.212.179a.66.66 0 00-.137.246 1.013 1.013 0 00-.046.324c-.002.115.012.23.042.34.025.088.07.169.13.237.06.064.135.111.218.139a.946.946 0 00.307.045.866.866 0 00.313-.053.609.609 0 00.366-.404c.06-.218.06-.448 0-.666a.525.525 0 00-.347-.373.936.936 0 00-.302-.045.842.842 0 00-.315.054.61.61 0 00-.229.156zm.343.08a.396.396 0 01.19-.041.416.416 0 01.186.037c.048.024.089.06.119.106a.45.45 0 01.063.165 1.069 1.069 0 01-.001.415.449.449 0 01-.065.165.33.33 0 01-.123.113.388.388 0 01-.188.041.426.426 0 01-.187-.036.29.29 0 01-.12-.105.506.506 0 01-.061-.167 1.233 1.233 0 010-.416.477.477 0 01.066-.165.361.361 0 01.12-.112h.001zm11.525.974h-.129v-1.198a.038.038 0 000-.02.057.057 0 00-.025-.015.193.193 0 00-.046-.008.588.588 0 00-.075 0 .566.566 0 00-.074 0 .193.193 0 00-.046.008.058.058 0 00-.025.014.032.032 0 00-.008.021v1.198h-.556v-1.198a.031.031 0 00-.007-.02.058.058 0 00-.024-.015.7.7 0 00-.242 0 .057.057 0 00-.025.014.032.032 0 00-.008.021v1.353a.096.096 0 00.024.072.084.084 0 00.065.024h.996v.35a.027.027 0 000 .02c.006.006.013.01.022.013a.224.224 0 00.041.008h.065a.559.559 0 00.066 0 .21.21 0 00.041-.008.044.044 0 00.02-.013.032.032 0 000-.02v-.539a.088.088 0 00-.01-.049.052.052 0 00-.04-.013zm1.832-1.219a.057.057 0 00-.024-.014.193.193 0 00-.048-.008.568.568 0 00-.074 0 .583.583 0 00-.072 0 .193.193 0 00-.047.008.055.055 0 00-.026.014.032.032 0 00-.007.021v1.41a.03.03 0 00.007.02.056.056 0 00.026.014c.015.004.031.007.047.009h.147a.263.263 0 00.047-.009.059.059 0 00.024-.014.032.032 0 00.008-.02v-1.41a.032.032 0 00-.008-.02zm-7.863.01a.058.058 0 00-.015-.023.036.036 0 00-.019 0h-1.06a.025.025 0 00-.02 0 .05.05 0 00-.015.022.178.178 0 00-.009.038.568.568 0 000 .115.185.185 0 00.01.039.047.047 0 00.014.02.028.028 0 00.009.007.028.028 0 00.01.001h.377v1.2a.025.025 0 00.007.02.052.052 0 00.025.015.2.2 0 00.048.009h.147a.2.2 0 00.047-.01.053.053 0 00.026-.015.032.032 0 00.006-.02V20.27h.378a.026.026 0 00.02-.006.06.06 0 00.015-.02.183.183 0 00.008-.04.36.36 0 000-.056.404.404 0 000-.059.13.13 0 00-.01-.039zm-7.147.014a.03.03 0 00-.008-.021.045.045 0 00-.025-.015.278.278 0 00-.045-.01.627.627 0 00-.075 0 .566.566 0 00-.074 0 .246.246 0 00-.046.01.048.048 0 00-.026.015.03.03 0 00-.008.02v1.406c0 .003 0 .007.002.01a.048.048 0 00.032.024.19.19 0 00.046.01h.149a.278.278 0 00.045-.01.045.045 0 00.025-.015.029.029 0 00.008-.02v-.6h.563v.6l.001.011a.028.028 0 00.006.01.047.047 0 00.024.015.2.2 0 00.046.009h.149a.274.274 0 00.047-.01.052.052 0 00.024-.015.028.028 0 00.006-.009.027.027 0 00.002-.01v-1.405a.03.03 0 00-.008-.021.05.05 0 00-.024-.015.274.274 0 00-.047-.01.566.566 0 00-.074 0 .297.297 0 00-.122.01.047.047 0 00-.023.015.03.03 0 00-.007.02v.547h-.563v-.546zm8.457.114a.524.524 0 00-.217-.138.935.935 0 00-.302-.045.844.844 0 00-.315.054.597.597 0 00-.227.156.662.662 0 00-.138.246 1.055 1.055 0 00-.047.324c-.002.115.013.23.044.34a.582.582 0 00.13.237c.06.064.134.112.217.139.1.031.203.047.307.045a.862.862 0 00.313-.053.61.61 0 00.366-.404c.033-.107.048-.219.047-.33a1.124 1.124 0 00-.046-.336.598.598 0 00-.132-.235zm-.161.789a.473.473 0 01-.066.165.318.318 0 01-.122.113.395.395 0 01-.189.041.415.415 0 01-.186-.036.283.283 0 01-.12-.105.484.484 0 01-.063-.167 1.233 1.233 0 01.002-.416.466.466 0 01.066-.165.35.35 0 01.121-.112.389.389 0 01.188-.041.416.416 0 01.186.037c.049.024.09.06.12.106.032.05.053.106.063.165.013.07.02.141.019.213 0 .068-.006.135-.018.202h-.001zm1.616-.945h-.74a.08.08 0 00-.061.024.154.154 0 00-.027.082 9.455 9.455 0 01-.11.738 1.47 1.47 0 01-.056.202.515.515 0 01-.06.12.168.168 0 01-.063.057.188.188 0 01-.07.014.041.041 0 00-.022 0 .035.035 0 00-.014.022.142.142 0 00-.01.048v.08a.436.436 0 000 .059.115.115 0 00.011.036.042.042 0 00.02.016.672.672 0 00.2-.02.319.319 0 00.13-.071.501.501 0 00.104-.143c.036-.073.064-.15.084-.23.03-.11.054-.223.072-.336.026-.153.047-.306.067-.46h.323v1.2c0 .007.003.014.007.02a.057.057 0 00.024.015c.016.004.031.007.047.009h.147a.25.25 0 00.048-.01.057.057 0 00.025-.014.036.036 0 000-.02v-1.343a.102.102 0 00-.022-.071.088.088 0 00-.054-.024z"/></svg>