<svg xmlns="http://www.w3.org/2000/svg" xmlns:xlink="http://www.w3.org/1999/xlink" width="80" height="80"><defs><circle id="kupibilet__a" cx="40" cy="40" r="40"/></defs><g fill="none" fill-rule="evenodd"><mask id="kupibilet__b" fill="#fff"><use xlink:href="#kupibilet__a"/></mask><use fill="#F3F3F3" xlink:href="#kupibilet__a"/><g mask="url(#kupibilet__b)"><path d="M-49-30h153v153H-49z"/><path fill="#FFF5C7" fill-rule="nonzero" d="M27.5 105C59.17 105 85 79.17 85 47.5S59.17-10 27.5-10-30 15.83-30 47.5-4.17 105 27.5 105"/><path fill="#90D3FF" fill-rule="nonzero" d="M56.241 81.718c3.418-.702 6.806-1.45 10.018-2.478 8.336-1.664 7.873 5.83 4.331 7.298C63.46 89.496 57.958 94.005 53 99l3.241-17.283z"/><path fill="#C7E9FF" fill-rule="nonzero" d="M41 21.086C38.726-1.851 11.958-10.116-7.58-8.881c-13.156.831-17.222 8.51.142 23.513L11.26 31 41 21.085v.001z"/><path fill="#90D3FF" fill-rule="nonzero" d="M30 15c-12.605.977-22.11 3.51-27.544 4.758C-18.614 24.595-50.7 38.563-48.93 46.21c3.64 15.632 45.685 28.714 61.232-1.03L30 15zm18.97 64.884c.58 12.069-7.41 14.487-18.77 6.387L25 82.853c1.024-2.71 1.81-4.466 3.401-6.117L39.653 74c.097.046.196.096.295.148 3.487 1.84 6.914 2.55 9.022 5.736"/><path fill="#FFB640" fill-rule="nonzero" d="M49.577 78c3.085 3.146 8.141 11.067 9.423 18.892C50.134 102.66 39.626 106 28.359 106c-1.844 0-3.667-.09-5.466-.265 2.268-9.502.682-15.199-2.893-22.362l6.8.025 17.961 7.686 1.902-4.385 1.601-5.673L49.577 78z"/><path fill="#90D3FF" fill-rule="nonzero" d="M5 82.864C.533 81.931-.77 81.67-4.532 80.29l-1.83-1.638c-.517-.522-1.32-.882-2.475-.48-2.181.762-2.706 3.725-.86 4.918.488.224 1.038.856.132 1.81-.642.675-1.39 1.16-2.061 1.82-2.105 2.067-3.382 3.911-1.355 6.413-.51 2.514.919 5.882 4.537 3.685 1.177 1.645 3.085 1.493 4.4.038a8.632 8.632 0 001.331-2.003c1.076-2.27 2.023-3.41 3.494-4.023l3.054-.306L5 82.864zm-8.1-13.062c8.32 12.227 28.275 14.793 42.81 14.092 15.01-.724 28.317-6.922 36.668-19.734 11.072-16.984-5.155-39.69-22.887-46.642-16.038-6.289-32.934-3.722-45.665 4.335C-7.445 31.517-15.107 52.158-3.1 69.802"/><path fill="#C7E9FF" fill-rule="nonzero" d="M6.672 78.818c9.618 4.514 21.961 5.549 31.836 5.078 15.1-.72 28.424-6.707 36.933-19.446 3.213-4.81 3.74-14.366-.39-16.9-6.742-4.138-13.685-2.312-22.496-.946-8.016 1.243-16.7.708-25.576.522-9.764-.204-19.891 3.422-23.884 6.012-3.993 2.59-5.926 6.908-6.637 8.967-2.316 6.714 4.62 14.087 10.214 16.714"/><path fill="#FFF" fill-rule="nonzero" d="M32.805 39.952c2.188-2.12 5.711-3.413 8.68-4.147 2.967-.735 5.381-.91 7.611-.752 2.23.157 4.278.648 5.784 1.459 1.506.81 2.474 1.942 3.124 3.445.65 1.503.984 3.379.996 4.734.013 1.356-.297 2.19-.878 3.4-.58 1.21-1.432 2.794-3.562 3.976-2.131 1.182-5.54 1.962-9.31 1.932-3.769-.03-7.898-.87-10.68-2.012-2.785-1.14-4.222-2.58-4.515-4.774-.292-2.194.562-5.141 2.75-7.261"/><path fill="#FFF" fill-rule="nonzero" d="M31 49.211l23.086-3.823c.581-.096 2.34.085 2.914-.388-2.007 3.928-7.305 8.65-6.463 19.433 1.923 6.256-4.665 8.468-8.418 4.768C38.227 65.365 41.06 57.778 31 49.211"/><path fill="#FF8797" fill-rule="nonzero" d="M43.326 40.07c-.423.47-.47.79.07 1.237.542.447 1.67 1.02 2.67 1.543 1 .522 1.87.995 2.482 1.118.611.123.963-.103 1.467-.755.505-.651 1.16-1.728 1.545-2.444.385-.715.5-1.07.412-1.401-.087-.33-.375-.637-.972-.893-.596-.257-1.498-.463-2.492-.475-.993-.01-2.077.172-3.019.574-.941.403-1.74 1.024-2.163 1.495"/><path fill="#333" fill-rule="nonzero" d="M37.45 47.44c.489-.898 2.207-2.078 1.28-2.344-1.304-.376-3.302.384-3.655 1.723-.119.452-.175 1.483.456 1.927 1.079.76 1.39-.335 1.918-1.306"/><path fill="#333" fill-rule="nonzero" d="M36 48.247c4.113.075 11.547.788 16.662-1.793.515-.26 1.772-.991 2.338-1.454-.208 1.245-2.502 3.02-3.619 3.759-2.247 6.702-2.45 10.816-3.145 16.38-.695 5.564-5.828 4.406-7.578.976-2.904-5.692-4.645-17.822-4.658-17.868"/><path fill="#FFF" fill-rule="nonzero" d="M44 50.047c.14 2.343 2.156 3.234 4.806 2.877C51.423 52.571 52.795 51.558 53 49c-2.93.703-5.94 1.007-9 1.047"/><path fill="#FF8797" fill-rule="nonzero" d="M48 68.103c-2.452 2.378-6.754-.11-7-5.83 4.803-1.249 6.393 1.964 7 5.83"/><path fill="#FFF" fill-rule="nonzero" d="M17.664 28.063c-5.763.66-10.956 6.315-11.598 12.631-.643 6.317 3.507 10.903 9.27 10.243 5.763-.66 10.955-6.315 11.598-12.632.643-6.316-3.508-10.9-9.27-10.242"/><path fill="#333" fill-rule="nonzero" d="M17.369 34.05c-4.694.514-8.44 4.875-8.368 9.739.04 2.718 1.265 5.018 3.157 6.428 1.426.647 3.09.918 4.906.719 2.579-.283 5.05-1.468 7.098-3.225 1.177-1.65 1.868-3.67 1.837-5.786-.073-4.863-3.936-8.39-8.63-7.875"/><path fill="#FFF" fill-rule="nonzero" d="M57.516 25.057c3.659-.57 8.632 3.197 11.108 8.412 2.477 5.216 1.518 9.905-2.14 10.474-3.66.57-8.632-3.197-11.108-8.412-2.477-5.216-1.519-9.905 2.14-10.474"/><path fill="#333" fill-rule="nonzero" d="M56.857 30.042c2.972-.423 7.014 2.375 9.025 6.249C67.808 40 67.177 43.35 64.512 44c-3.581-.674-7.658-3.961-9.878-8.235-.224-.43-.42-.857-.593-1.28-.263-2.365.743-4.148 2.816-4.443"/><path fill="#FFF" fill-rule="nonzero" d="M24.453 33.182c-2.2.254-4.182 2.427-4.428 4.856-.245 2.429 1.34 4.192 3.54 3.938 2.199-.254 4.181-2.428 4.426-4.856.246-2.43-1.338-4.192-3.538-3.938zM66.083 29c-1.777.206-3.352 2.221-3.52 4.502-.167 2.281 1.137 3.965 2.914 3.76 1.776-.205 3.352-2.22 3.518-4.501L69 32.69A18.633 18.633 0 0066.083 29z"/><path fill="#333" fill-rule="nonzero" d="M56.364 45.903c.015-.898.172-2.052.694-1.887.69.217 1.029 1.205.923 2.08-.073.603-.356 1.152-.882 1.358-.88.343-.753-.58-.735-1.551zM49 48.638c.322.324.564.818.666 1.362.034-.753.262-1.335.678-1.56L49 48.637z"/><path fill="#FFF" fill-rule="nonzero" d="M21.397 42.51c-.69.072-1.312.686-1.39 1.372-.076.685.421 1.183 1.11 1.111.69-.071 1.312-.685 1.389-1.37.077-.687-.42-1.184-1.109-1.113m41.762-4.505c-.518.054-.986.516-1.044 1.032-.058.515.316.89.835.836.519-.054.986-.516 1.044-1.032.058-.515-.316-.89-.835-.836"/><path fill="#333" fill-rule="nonzero" d="M15.205 17.988c-1.632.652-3.324 1.896-4.256 3.263-.933 1.367-1.106 2.859-.828 3.44.277.58 1.007.25 1.955-.226.948-.477 2.116-1.102 3.482-1.632 1.368-.53 2.935-.964 3.762-1.568.827-.604.911-1.379.898-2.082-.013-.703-.126-1.335-.968-1.62-.842-.287-2.413-.227-4.045.425m35.28-2.62c-1.23.668-1.732 2.286-1.085 2.975.648.69 2.444.454 3.95.757 1.506.303 2.722 1.147 3.557 1.422.835.274 1.288-.02 1.012-.994-.276-.973-1.281-2.624-2.763-3.588-1.482-.965-3.44-1.242-4.67-.573"/><path fill="#90D3FF" fill-rule="nonzero" d="M64 78.916c3.665-1.357 5.743-1.83 7.04-4.447.607-1.229 1.376-1.595 2.405-1.433 1.783.28 2.843 2.247 1.042 4.416.189.054.018-.004.227.066 1.263.4 2.768.964 3.857 1.827.771.611 1.624 1.729 1.154 2.964 1.267 1.451 2.19 4.07-.26 4.556-.183 1.757-1.047 2.572-2.889 1.901-2.512-2.676-4.437-3.123-7.68-2.532L64 78.916z"/><path fill="#FFF" fill-rule="nonzero" d="M74.031 79.513c.177 1.196.532 1.888 1.124 2.551 1.496 1.674 1.934.804 1.83-.292-.11-1.181-.838-2.42-2.76-2.768-.18-.033-.28.145-.194.51"/></g></g></svg>