<svg xmlns="http://www.w3.org/2000/svg" width="41" height="40" fill="none"><g clip-path="url(#yandex-market__clip0)"><path fill="#ADE9FF" d="M20.5 40c11.046 0 20-8.954 20-20s-8.954-20-20-20S.5 8.954.5 20s8.954 20 20 20z"/><path fill="#04E" fill-rule="evenodd" d="M16.5 8.72a2.12 2.12 0 011.99 1.39l1.15 3.1H33.3l.14 6.07a3.51 3.51 0 01-2.28 3.52l-15 4.94 1.3-12.85-1.35-3.66h-5.84v-2.5l6.23-.01z" clip-rule="evenodd"/><path fill="#000" d="M14.89 29.4a2.305 2.305 0 110 4.61 2.305 2.305 0 010-4.61zm11.22 0a2.305 2.305 0 110 4.61 2.305 2.305 0 010-4.61z"/><path fill="#07F" fill-rule="evenodd" d="M30.02 19.28l-.15-6.07H13.6l-1.15-3.1a2.12 2.12 0 00-2-1.39H8.42a1.26 1.26 0 000 2.51h1.67l6.1 16.5 11.55-4.93a3.51 3.51 0 002.29-3.52h-.01z" clip-rule="evenodd"/></g><defs><clipPath id="yandex-market__clip0"><path fill="#fff" d="M0 0h40v40H0z" transform="translate(.5)"/></clipPath></defs></svg>