<svg xmlns="http://www.w3.org/2000/svg" width="41" height="40" fill="none"><path fill="#7538C4" fill-rule="evenodd" d="M20 40c11.046 0 20-8.954 20-20S31.046 0 20 0 0 8.954 0 20s8.954 20 20 20z" clip-rule="evenodd"/><path fill="#fff" fill-rule="evenodd" d="M5 20.807C5 19.644 5.723 19 6.61 19a1.405 1.405 0 011.026.44l-.498.559a.686.686 0 00-.529-.221c-.375 0-.68.37-.68.992 0 .646.237 1.005.732 1.005a.4.4 0 00.232-.063v-.471H6.47v-.74h1.237v1.639a1.737 1.737 0 01-1.094.423C5.73 22.563 5 21.98 5 20.807zm3.441.931h.787v-1.913H8.44v-.762h2.475v.762h-.782v1.913h.782v.76H8.44v-.76zm4.008-2.675h-.963l1.014 3.435h1.1l1.016-3.435h-.931l-.349 1.5c-.041.168-.079.336-.116.506-.043.193-.086.387-.137.584h-.022a15.101 15.101 0 01-.124-.535c-.04-.184-.08-.368-.13-.554l-.358-1.501zm2.782 0h2.343v.762h-1.436v.538h1.215v.762h-1.215v.613h1.48v.76h-2.387v-3.435zm4.11 0h-.923l.006 3.43h.732v-.809c0-.407-.075-1.343-.117-1.744h.029l.263 1.025.184.624h.402l.18-.618.293-1.025h.016c-.042.401-.117 1.337-.117 1.744v.808h.751v-3.435h-.925l-.28 1.12-.095.44h-.02l-.096-.44-.282-1.12zm2.468 1.702c0-1.163.571-1.758 1.406-1.758s1.407.602 1.407 1.765c0 1.195-.57 1.798-1.407 1.798-.836 0-1.406-.61-1.406-1.805zm1.882 0c0-.655-.179-.983-.476-.983s-.474.328-.474.983c0 .688.178 1.014.474 1.014s.476-.323.476-1.014zm2.637-1.702h-.92v3.441h.867v-.993a12.435 12.435 0 00-.127-1.317h.022l.28.767.577 1.537h.92v-3.435h-.868v.994c.02.44.062.877.128 1.31h-.022l-.28-.77-.577-1.534zm2.563 0h2.335v.762H29.8v.538h1.215v.762H29.8v.613h1.48v.76h-2.39v-3.435zm3.02 0L33 21.362l.003 1.136h.909v-1.136L35 19.063h-.944l-.293.751-.118.312a14.03 14.03 0 00-.175.47h-.02c-.048-.137-.096-.266-.142-.394-.048-.128-.094-.256-.14-.388l-.284-.751h-.974z" clip-rule="evenodd"/></svg>