<svg xmlns="http://www.w3.org/2000/svg" width="60" height="60"><g fill="none" fill-rule="evenodd"><path fill="#F68E1E" d="M30 0c16.569 0 30 13.432 30 29.995v.01C60 46.571 46.572 60 30 60 13.431 60 0 46.572 0 30 0 13.431 13.428 0 30 0z"/><path fill="#FFF" d="M28.134 27.595c.623-.7 1.384-1.074 2.317-1.053.906.02 1.715.257 2.238 1.098.143-.178.274-.355.437-.504.448-.408.993-.557 1.579-.59.42-.025.843.012 1.253.11.78.19 1.209.699 1.346 1.473.041.234.062.47.061.707a917.02 917.02 0 00.002 3.73c0 .132-.022.18-.17.179-.863-.008-1.727-.007-2.591 0-.12 0-.152-.032-.148-.149.008-.31.007-.622 0-.932-.003-.105.031-.133.132-.13.237.007.474 0 .711.003.068 0 .122.002.122-.095-.004-.859.019-1.718-.012-2.575-.031-.875-.638-1.16-1.39-1.044-.728.113-1.202.699-1.215 1.475-.013.706-.003 1.412-.007 2.118 0 .098.032.125.127.122.232-.007.464 0 .695-.004.084-.001.109.027.107.11-.004.326-.004.652 0 .979 0 .085-.019.121-.112.12a776.26 776.26 0 00-3.573 0c-.078 0-.112-.017-.111-.104a36.67 36.67 0 000-.995c-.002-.099.042-.11.122-.109.232.004.464-.002.696.003.083.002.108-.024.107-.107-.004-.837.006-1.675-.009-2.513-.007-.43-.143-.81-.575-1.008-.507-.232-1.213-.107-1.621.278-.326.309-.468.696-.474 1.134-.01.695 0 1.39-.005 2.086 0 .109.037.131.136.129.258-.006.516.004.774-.005.115-.004.14.034.138.143-.007.3-.009.6 0 .9.004.127-.025.17-.162.169-.89-.007-1.78-.007-2.67 0-.13 0-.155-.041-.155-.16.004-1.733.005-3.467.002-5.2 0-.236.028-.205-.212-.206-.206 0-.411-.004-.617 0-.076.001-.101-.025-.101-.1a79.87 79.87 0 000-.979c0-.076.027-.099.101-.099.875.002 1.75.002 2.624 0 .104 0 .105.05.105.126-.003.49-.002.98-.002 1.47zm-1.57 5.778c0-.088-.023-.122-.113-.12-.184.005-.37-.014-.552.006-.175.02-.193-.052-.193-.2.005-.96.01-1.918-.005-2.877a1.7 1.7 0 00-.455-1.166c-.29-.312-.664-.478-1.069-.576-.86-.208-1.73-.218-2.602-.111-.55.067-1.075.214-1.492.613a.074.074 0 01-.031-.006c.01-.295-.013-.59-.07-.879-.145-.722-.556-1.196-1.276-1.393a4.196 4.196 0 00-1.44-.115c-.55.042-1.05.217-1.464.596-.158.144-.285.316-.417.484-.533-.83-1.338-1.072-2.248-1.093-.93-.022-1.68.35-2.276 1.063-.049-.086-.03-.161-.032-.232 0-.406-.002-.811.006-1.217.002-.116-.027-.15-.148-.15-.896.005-1.791.003-2.687.003v1.17c.242 0 .485.01.727-.004.158-.01.2.031.2.195-.007 1.738-.005 3.477-.006 5.216 0 .095-.007.166.133.165.912-.007 1.823-.006 2.734 0 .11 0 .13-.04.129-.138a27.098 27.098 0 010-.948c.003-.11-.039-.132-.137-.13-.258.006-.517-.002-.775.005-.108.003-.145-.029-.144-.141.005-.674-.007-1.349.005-2.023.017-.988.628-1.585 1.586-1.569.657.011 1.064.387 1.08 1.046.021.858.01 1.717.017 2.575 0 .095-.042.113-.125.111-.227-.004-.453.003-.68-.003-.095-.003-.126.025-.126.124.005.32.005.642 0 .964 0 .095.025.126.123.126 1.19-.003 2.382-.003 3.572 0 .093 0 .117-.031.116-.119a39.974 39.974 0 010-.98c0-.091-.032-.117-.12-.115-.226.005-.453-.004-.679.004-.11.004-.142-.029-.141-.14.005-.685.006-1.37.002-2.055-.004-.838.605-1.622 1.629-1.537.511.043.848.312.953.81.025.118.039.238.04.36.003.81 0 1.622.005 2.434 0 .11-.04.13-.137.126-.232-.006-.464.003-.696-.004-.094-.002-.126.025-.126.124.006.31.008.622 0 .932-.003.12.025.162.154.16.569-.007 1.138.003 1.707-.007.151-.002.197.043.204.19.022.439.222.792.547 1.082.445.397.977.571 1.558.61.938.064 1.792-.126 2.456-.856.02-.023.032-.071.088-.049 0 .215.004.43-.002.647-.002.091.03.115.117.115.822-.003 1.644-.003 2.466 0 .083 0 .109-.025.108-.108-.001-.332-.002-.664.003-.995zm25.386-1.725c.002-.104-.039-.123-.13-.12-.184.006-.369-.007-.552.005-.136.008-.179-.026-.178-.171.006-.953.012-1.907-.004-2.86-.014-.843-.456-1.452-1.256-1.704-1.114-.35-2.252-.364-3.382-.097-.945.223-1.405.772-1.54 1.732-.015.098.003.129.106.127a94.461 94.461 0 011.597 0c.075 0 .107-.017.122-.1.07-.393.325-.615.696-.714.327-.084.67-.09 1-.014.645.138.833.377.836 1.028 0 .13-.034.167-.166.167-.684 0-1.37-.022-2.054.016-.4.017-.796.096-1.172.234-.478.182-.875.467-1.125.949l-.047-.108c-.287-.72-.785-1.224-1.517-1.486-.557-.2-1.133-.227-1.713-.145-.525.074-.996.266-1.357.672-.095.107-.178.225-.283.358v-3.269c0-.068.028-.147-.098-.146-.906.003-1.813.003-2.719 0-.071 0-.106.018-.105.094.003.327.005.654.002.98 0 .08.03.097.102.095.226-.004.454.012.68-.005.17-.014.193.05.192.2-.007.875-.003 1.75-.003 2.624 0 1.038-.002 2.076.002 3.114 0 .117-.029.156-.15.151-.225-.01-.452 0-.678-.005-.104-.003-.152.02-.149.138.008.316.008.632 0 .948-.003.115.039.14.145.139a249.83 249.83 0 012.45 0c.119 0 .151-.03.148-.148-.01-.289-.004-.58-.004-.879a.145.145 0 01.031.012c.017.02.034.04.05.062.578.79 1.367 1.132 2.335 1.112 1.435-.03 2.46-.835 2.783-2.2.03-.123.048-.249.073-.39.846 1.116 3.336 1.196 4.342-.09 0 .234.004.448-.002.66-.003.096.023.127.122.127.817-.003 1.634-.003 2.45 0 .087 0 .12-.022.119-.114a29.046 29.046 0 010-.979zm-28.072-1.057c-.022.095-.09.056-.138.057-.538.002-1.075 0-1.613.002-.523.002-1.039.056-1.54.221-.18.06-.34.161-.536.253 0-.255.004-.486-.002-.717-.003-.097.04-.111.124-.112.352 0 .705-.008 1.057-.008.075 0 .106-.017.123-.1.081-.399.337-.632.729-.715.42-.09.838-.08 1.243.071.48.179.668.552.551 1.048h.002zm-.007 1.338c-.113.927-.74 1.498-1.732 1.451a1.405 1.405 0 01-.402-.072c-.316-.111-.501-.342-.521-.662-.02-.32.11-.53.431-.682.37-.176.77-.2 1.193-.218.288-.005.597.006.907.025.11.006.136.052.124.158zm19.138-.401c0 .49-.09.957-.435 1.33-.47.506-1.066.588-1.697.424-.622-.161-.963-.613-1.097-1.222a2.521 2.521 0 01.019-1.173c.205-.807.838-1.245 1.672-1.203 1.011.05 1.515.737 1.538 1.718v.126zm6.247-1.37c-.116 1.029-.808 1.566-1.805 1.49a1.103 1.103 0 01-.44-.113c-.264-.14-.407-.351-.417-.656-.01-.304.14-.497.391-.63.33-.172.693-.205 1.056-.23.141-.01.284-.001.426-.001v-.013c.23.013.461.032.692.037.089.003.105.038.097.116z"/></g></svg>