<svg xmlns="http://www.w3.org/2000/svg" width="41" height="40" fill="none"><path fill="#1F398D" fill-rule="evenodd" d="M20 40c11.046 0 20-8.954 20-20S31.046 0 20 0 0 8.954 0 20s8.954 20 20 20z" clip-rule="evenodd"/><path fill="#fff" fill-rule="evenodd" d="M9.18 22.416a.152.152 0 00.039.108.135.135 0 00.104.042h2.735a.158.158 0 00.112-.042.14.14 0 00.045-.108v-.235a.146.146 0 00-.157-.156H9.78v-1.507h2.084a.154.154 0 00.114-.042.144.144 0 00.042-.108v-.221a.146.146 0 00-.156-.157H9.78v-1.456h2.227a.162.162 0 00.114-.038.135.135 0 00.043-.104v-.235a.155.155 0 00-.043-.114.154.154 0 00-.114-.042H9.323a.135.135 0 00-.104.043.162.162 0 00-.038.113v4.259zm-2.77 0a.145.145 0 00.151.151h.311a.158.158 0 00.112-.043.14.14 0 00.045-.107v-3.855h1.253a.146.146 0 00.152-.15v-.254a.162.162 0 00-.038-.114.143.143 0 00-.11-.043H5.151a.145.145 0 00-.11.043.154.154 0 00-.042.114v.255a.145.145 0 00.152.15h1.259v3.854zm6.76.108a.151.151 0 01-.038-.108v-4.264a.151.151 0 01.037-.107.135.135 0 01.105-.044h.327a.136.136 0 01.104.042c.026.03.04.069.038.108v3.87h2.181a.155.155 0 01.114.042.146.146 0 01.043.107v.248a.14.14 0 01-.046.108.157.157 0 01-.111.042h-2.65a.135.135 0 01-.104-.044zm3.625-.108a.151.151 0 00.038.108.135.135 0 00.105.042h2.735a.158.158 0 00.111-.042.14.14 0 00.046-.108v-.235a.146.146 0 00-.157-.156h-2.278v-1.507h2.083a.154.154 0 00.114-.042.145.145 0 00.043-.108v-.221a.147.147 0 00-.157-.157h-2.083v-1.456h2.227a.162.162 0 00.114-.038.135.135 0 00.042-.104v-.235a.155.155 0 00-.042-.114.154.154 0 00-.114-.042h-2.684a.135.135 0 00-.105.043.161.161 0 00-.038.113v4.259z" clip-rule="evenodd"/><path fill="#E9C351" fill-rule="evenodd" d="M30.972 22.416c-.002.04.014.08.042.107.028.03.067.047.108.046h.292a.145.145 0 00.152-.152v-3.241l1.11 2.157a.228.228 0 00.21.137h.195a.217.217 0 00.209-.137l1.117-2.157v3.241a.151.151 0 00.038.108.135.135 0 00.104.043h.3a.145.145 0 00.15-.152v-4.26a.162.162 0 00-.037-.113.143.143 0 00-.111-.043h-.307a.167.167 0 00-.157.098l-1.405 2.668-1.39-2.668a.165.165 0 00-.163-.098h-.307a.143.143 0 00-.112.043.161.161 0 00-.038.114v4.259zm-6.575.02a.125.125 0 00.13.126h.313a.172.172 0 00.163-.11l.359-.94h2.162l.365.94a.17.17 0 00.056.075.16.16 0 00.107.038h.307c.035 0 .07-.014.095-.038a.121.121 0 00.042-.091l-.013-.072-1.62-4.22a.203.203 0 00-.208-.143h-.418a.203.203 0 00-.209.143l-1.618 4.22-.013.072zm2.944-1.461h-1.79l.895-2.342.895 2.342zm-6.714 1.435a.152.152 0 00.043.114c.028.03.067.045.108.045h3.069a.157.157 0 00.11-.043.14.14 0 00.046-.108v-.247a.147.147 0 00-.042-.108.156.156 0 00-.114-.042h-2.423l2.423-3.375a.372.372 0 00.085-.228v-.26a.156.156 0 00-.043-.114.154.154 0 00-.114-.043h-2.938a.145.145 0 00-.11.043.154.154 0 00-.042.114v.24a.145.145 0 00.152.151h2.337l-2.449 3.353a1.192 1.192 0 00-.052.072.3.3 0 00-.046.176v.26zm8.614.113a.152.152 0 01-.038-.107v-4.264a.152.152 0 01.038-.108.135.135 0 01.105-.044h.326c.04-.002.08.011.111.038.027.03.041.07.038.111v4.267a.145.145 0 01-.152.151h-.326a.135.135 0 01-.102-.044z" clip-rule="evenodd"/></svg>