<svg xmlns="http://www.w3.org/2000/svg" width="41" height="40" fill="none"><path fill="#004B46" fill-rule="evenodd" d="M20.5 40c11.046 0 20-8.954 20-20s-8.954-20-20-20S.5 8.954.5 20s8.954 20 20 20z" clip-rule="evenodd"/><path fill="#fff" fill-rule="evenodd" d="M7.64 18.175c.378 0 .69-.222.768-.575.078-.358-.148-.6-.526-.6-.415 0-.698.242-.776.559-.09.37.119.616.534.616zm2.22 3.446c.666 0 1.093-.472 1.22-1.105.14-.702-.176-1.175-.825-1.175-.666 0-1.118.456-1.245 1.118-.132.673.172 1.162.85 1.162zm-1.964-1.253c.214-1.17 1.134-2.009 2.474-2.009 1.29 0 2.07.867 1.824 2.219-.148.813-.62 1.468-1.346 1.795h.881c-.324 1.315-1.257 2-2.473 2-.558 0-1.191-.143-1.532-.447l.427-.99c.296.263.666.431 1.2.431.597 0 1.03-.293 1.21-.886a2.814 2.814 0 01-.824.118c-1.286 0-2.087-.875-1.84-2.23zM5.5 22.55l1.438-4.108h1.06l-1.45 4.108H5.5zm29.663-2.868a2.786 2.786 0 00-1.421-.398c-.522 0-.74.172-.74.373 0 .124.078.19.25.247.1.032.215.063.335.095.11.03.223.06.331.094.292.086.559.205.76.402.198.202.329.485.267.937-.053.37-.275.695-.587.892-.341.213-.801.28-1.27.28-.464 0-.854-.063-1.17-.157a2.391 2.391 0 01-.674-.312l.28-.957c.406.3.968.53 1.626.53.46 0 .699-.124.699-.39 0-.12-.05-.194-.165-.251-.1-.049-.225-.083-.367-.122-.088-.023-.181-.049-.278-.08-.366-.119-.641-.23-.822-.431-.172-.197-.25-.489-.201-.834.127-.875.912-1.24 1.849-1.24.444 0 .846.069 1.167.172.189.061.349.131.468.213l-.337.937zm-6.33 1.94c-.678 0-.982-.488-.85-1.162.127-.661.579-1.117 1.244-1.117.65 0 .966.472.826 1.175-.127.632-.555 1.105-1.22 1.105zm2.178-4.305l-.456 1.626c-.226-.37-.645-.582-1.323-.582-1.217 0-2.15.838-2.371 2.066-.238 1.299.472 2.174 1.623 2.174.556 0 .977-.197 1.296-.47l-.076.42h.867l.559-2.004.895-3.23h-1.014zm-11.674 4.304c.666 0 1.093-.472 1.22-1.105.14-.702-.177-1.175-.826-1.175-.665 0-1.117.456-1.245 1.118-.131.673.173 1.162.85 1.162zm-1.964-1.253c.214-1.17 1.134-2.009 2.473-2.009 1.29 0 2.07.867 1.825 2.219-.214 1.175-1.106 2.021-2.457 2.021-1.286 0-2.087-.875-1.84-2.23zm-1.556.148c-.123.633-.555 1.105-1.22 1.105-.678 0-.982-.489-.85-1.162.13-.662.579-1.118 1.244-1.118.65 0 .966.473.826 1.175zm-.71-2.157c-1.34 0-2.26.838-2.474 2.01-.247 1.355.555 2.23 1.84 2.23 1.352 0 2.244-.846 2.457-2.021.247-1.352-.534-2.219-1.824-2.219zm8.973 3.262c.665 0 1.093-.472 1.22-1.105.14-.702-.177-1.175-.826-1.175-.665 0-1.117.456-1.245 1.118-.131.673.173 1.162.85 1.162zm-1.964-1.253c.214-1.17 1.134-2.009 2.473-2.009 1.29 0 2.07.867 1.825 2.219-.214 1.175-1.106 2.021-2.457 2.021-1.286 0-2.088-.875-1.841-2.23z" clip-rule="evenodd"/></svg>