<svg xmlns="http://www.w3.org/2000/svg" width="40" height="40" fill="none"><circle cx="20" cy="20" r="20" fill="#002476"/><path fill="#fff" d="M19.264 16.18c2.336.005 4.672-.005 7.009.004-.133.498-.321.978-.476 1.47-.75.01-1.5-.003-2.248.005-.011 2.437.003 4.873-.007 7.308-.59 0-1.178.018-1.766-.015-.002-2.41.007-4.822-.004-7.233l-.067-.052c-.822-.03-1.646.004-2.47-.013.002-.491-.025-.985.029-1.474zm7.564.021c1.898-.044 3.799-.005 5.697-.018-.148.498-.314.99-.49 1.48-1.146-.006-2.29-.005-3.436-.003-.013.64-.005 1.28-.005 1.922.81.002 1.629-.014 2.43.113.77.153 1.474.683 1.752 1.429.433 1.09.26 2.518-.7 3.276-.62.512-1.458.555-2.225.572-1.004-.002-2.008.005-3.013-.004-.014-2.921.006-5.844-.01-8.767zm1.764 4.864c-.003.806 0 1.613.004 2.42.6 0 1.214.078 1.805-.054 1.027-.276 1.03-2.042 0-2.317-.593-.12-1.208-.059-1.809-.049zm-11.735-4.809c.642.074 1.27.401 1.64.941.442.693.448 1.648.002 2.342-.221.325-.553.551-.876.766.549.282 1.136.635 1.35 1.25.353.962.176 2.192-.652 2.862-.505.439-1.198.529-1.842.553-1.13.01-2.26-.012-3.39.01.257-1.018.102-2.067.13-3.101.003-1.835-.004-3.67.027-5.506 1.286-.049 2.254-.115 3.577-.117-.083-.073.116.069.034 0zm-2.085 1.388c-.01.678-.016 1.358-.002 2.036.523-.015 1.051.032 1.572-.037.856-.21.934-1.698.056-1.939-.531-.127-1.087-.04-1.627-.06zm.015 3.581c-.028.762-.006 1.525-.01 2.288.536.007 1.074.034 1.609-.011.54-.055.94-.597.871-1.13.056-.51-.298-1.047-.82-1.122-.547-.058-1.1-.017-1.65-.025z"/><path fill="#049FE4" d="M3.594 18.457L3 19.893h7.378l.545-1.436H3.594zm.793-2.18l-.594 1.437h7.378l.545-1.436H4.387zM5.278 14l-.594 1.436h7.378L12.607 14h-7.33z"/></svg>