<svg xmlns="http://www.w3.org/2000/svg" width="40" height="40" fill="none"><circle cx="20" cy="20" r="20" fill="#0033A0"/><path fill="#fff" fill-rule="evenodd" d="M20 8c-2.42 2.213-9 7.797-9 13.857 0 4.955 4.034 8.978 9 8.978s9-4.023 9-8.978c0-6.06-6.58-11.644-9-13.857zm0 4.19c-1.69 1.546-6.284 5.445-6.284 9.677 0 3.46 2.816 6.27 6.285 6.27 3.467 0 6.283-2.81 6.283-6.27 0-4.232-4.593-8.13-6.283-9.676z" clip-rule="evenodd"/><path fill="#FF6900" stroke="#FF6900" stroke-width=".212" d="M19.975 20.473c-.982.352-3.15 1.257-4.487.276.43 3.094 3.1 2.415 4.538 1.962.832-.251 3.152-1.257 4.487-.277-.428-3.093-3.1-2.489-4.538-1.961z"/></svg>