<svg xmlns="http://www.w3.org/2000/svg" width="60" height="60"><g fill="none" fill-rule="evenodd"><path fill="#00AFF0" d="M30 0c16.569 0 30 13.432 30 29.995v.01C60 46.571 46.572 60 30 60 13.431 60 0 46.572 0 30 0 13.431 13.428 0 30 0z"/><path fill="#FFF" d="M46.726 32.955c-.012.063-.02.127-.032.19l-.061-.363c.033.057.061.116.093.173a17.08 17.08 0 00.283-3.082c0-2.295-.45-4.52-1.337-6.617a16.927 16.927 0 00-3.643-5.403 16.937 16.937 0 00-12.019-4.978c-1.082 0-2.165.101-3.219.303l-.008.002c.06.03.12.059.177.091l-.357-.056c.06-.01.12-.023.18-.035a10.075 10.075 0 00-4.72-1.18 9.996 9.996 0 00-7.115 2.948A10 10 0 0012 22.064c0 1.711.44 3.393 1.266 4.88.011-.062.018-.124.03-.186l.062.356c-.032-.056-.06-.114-.092-.17a17.12 17.12 0 00-.256 2.93c0 2.294.45 4.52 1.337 6.616a16.92 16.92 0 003.642 5.403 16.908 16.908 0 005.404 3.642 16.86 16.86 0 006.617 1.338c.999 0 2-.09 2.977-.264-.057-.032-.115-.061-.173-.095l.363.064c-.063.012-.126.02-.19.03a10.056 10.056 0 004.951 1.305 9.99 9.99 0 007.114-2.947A9.992 9.992 0 0048 37.851a10.06 10.06 0 00-1.274-4.896zm-16.648 7.329c-6.04 0-8.741-2.97-8.741-5.194 0-1.142.842-1.942 2.004-1.942 2.584 0 1.915 3.711 6.737 3.711 2.468 0 3.832-1.34 3.832-2.712 0-.825-.407-1.74-2.033-2.14l-5.372-1.34c-4.326-1.086-5.11-3.424-5.11-5.623 0-4.564 4.297-6.278 8.333-6.278 3.717 0 8.1 2.055 8.1 4.793 0 1.173-1.016 1.856-2.177 1.856-2.206 0-1.8-3.053-6.242-3.053-2.205 0-3.426.998-3.426 2.427 0 1.426 1.74 1.881 3.253 2.226l3.976.882c4.355.97 5.46 3.513 5.46 5.908 0 3.71-2.848 6.479-8.594 6.479zm2.736 6.23c.058.034.116.063.173.095.064-.011.127-.019.19-.03l-.363-.065zm13.88-13.369c.012-.063.02-.127.032-.19-.032-.057-.06-.116-.093-.173l.061.363zm-33.398-6.387c-.012.062-.019.124-.03.185.032.057.06.115.092.171l-.062-.356zM26.96 13.271c-.058-.032-.118-.06-.177-.091l-.18.035.357.056z"/></g></svg>