<svg xmlns="http://www.w3.org/2000/svg" width="40" height="40" fill="none"><path fill="#212121" d="M20 40c11.046 0 20-8.954 20-20S31.046 0 20 0 0 8.954 0 20s8.954 20 20 20z"/><path fill="#fff" fill-rule="evenodd" d="M23.409 8.229l1.774-.916c.154-.076.231-.305.154-.496l-2.044-3.929c-.116-.191-.309-.229-.501-.153l-1.774.916c-.193.114-.231.305-.154.496l2.044 3.929c.116.191.309.229.501.153zm-4.281 17.663a4.3 4.3 0 01-.386 1.373l-1.466 2.976c0 .076-.077.076-.154.076-4.512-1.221-7.829-5.341-7.829-10.186 0-5.837 4.821-10.605 10.761-10.567.656 0 1.273.038 1.89.153l.077.076c-.061.5-.206 1.597-.342 2.622-.123.93-.238 1.8-.275 2.109-.138.99-.677 1.277-1.231 1.573l-.196.106-.054.028c-.858.444-1.477.763-2.761.277-.932-.348-1.663-.632-2.297-.879-.756-.294-1.372-.534-2.023-.762-.386-.152-.926 0-1.08.42-.154.42 0 .839.424.992 0 0 2.16.801 3.047 1.183.33.148.637.275.921.393 1.177.486 1.968.813 2.434 1.858.27.649.81 2.022.81 2.632-.038.877-.27 3.548-.27 3.548v-.001zm11.571-5.303c-.231 5.494-4.782 9.957-10.336 10.109-.424 0-.848 0-1.273-.038-.077 0-.116-.114-.077-.153l1.504-2.632c.231-.381.386-.763.424-1.221l.309-2.289c.039-.458.27-.916.694-1.068l.733-.191c.424-.153.771 0 .964.381.154.267.54 1.03.694 1.335.116.191.077.42-.039.534l-.515.58-.835.946c-.309.343-.579.878-.039 1.335.501.458 1.003-.038 1.311-.343.386-.381 1.003-1.106 1.389-1.564.347-.381.54-.648.579-1.144 0-.191 0-.381-.077-.61-.072-.214-.354-.91-.718-1.806-.414-1.022-.933-2.302-1.365-3.421-.694-1.831-1.041-3.7-.81-5.646l.386-3.51c0-.038.038-.076.116-.076 4.204 1.602 7.174 5.722 6.981 10.491v.001zM18.01 11.281c-1.119.114-1.967 1.106-1.851 2.213.116 1.106 1.118 1.907 2.237 1.831 1.119-.114 1.967-1.106 1.851-2.212-.116-1.106-1.118-1.946-2.237-1.831v-.001z" clip-rule="evenodd"/></svg>