<svg xmlns="http://www.w3.org/2000/svg" width="41" height="40" fill="none"><circle cx="20.5" cy="20" r="20" fill="#F28A1E"/><path fill="#fff" fill-rule="evenodd" d="M23.761 16.009h1.926v7.157c0 .416-.24.788-.59.941a1.03 1.03 0 01-.373.088.898.898 0 01-.678-.306l-6.457-4.881v5.187h-1.926v-7.18c0-.415.24-.787.59-.94a.936.936 0 011.051.219l6.457 4.88V16.01zm12.017 3.83a2.345 2.345 0 00-.766-.547 2.342 2.342 0 00-.941-.197h-5.166a.514.514 0 01-.504-.525c0-.285.22-.526.504-.526h6.128c.526 0 .964-.46.964-1.006 0-.57-.438-1.007-.964-1.007h-6.128c-.328 0-.657.066-.941.197a2.345 2.345 0 00-.766.547c-.22.24-.394.503-.526.81a2.55 2.55 0 00-.197.985c0 .35.066.678.197.985.132.306.307.569.526.81.219.24.481.416.766.547.306.131.613.197.94.197h5.167c.284 0 .503.24.503.525a.514.514 0 01-.503.525h-6.633c-.525 0-.963.46-.963 1.007 0 .57.438 1.007.963 1.007h6.633c.328 0 .656-.066.94-.197.285-.131.548-.306.767-.547.219-.24.394-.503.525-.81a2.553 2.553 0 000-1.97 2.585 2.585 0 00-.525-.81zm-21.231.263c0 2.254-1.752 4.093-3.897 4.093H4.5v-8.186h6.129c2.167 0 3.918 1.838 3.918 4.093zm-1.861.175c0-.547-.131-1.335-.503-1.73-.373-.393-.963-.743-1.51-.743H6.36v4.509h4.312c.548 0 1.051-.22 1.423-.591.372-.372.591-.898.591-1.445z" clip-rule="evenodd"/></svg>