<svg xmlns="http://www.w3.org/2000/svg" xmlns:xlink="http://www.w3.org/1999/xlink" width="80" height="80"><defs><circle id="happypet__a" cx="40" cy="40" r="40"/></defs><g fill="none" fill-rule="evenodd"><mask id="happypet__b" fill="#fff"><use xlink:href="#happypet__a"/></mask><use fill="#549A2A" xlink:href="#happypet__a"/><g fill-rule="nonzero" mask="url(#happypet__b)" transform="translate(10 8)"><path fill="#1B1E24" d="M75 72c-7.408-7.588-8.587-19.222-13.806-27.822-5.556-9.78-8.418-15.682-8.923-23.438-.169-8.262-1.179-16.019-6.398-20.74-2.02 2.53-6.061 6.576-8.25 10.117-3.873.843-7.408 1.855-10.439 3.035-3.199-2.698-6.061-3.204-7.408-5.227-1.852 4.047-3.872 8.768-2.525 12.984-.169.337-.337.506-.506.843-.336.168-.841.337-1.515.506h1.347c.168 0 .337.168.505.168.505.337.674 1.518.337 2.192-.337 1.012-1.347 2.867-2.189 3.878-1.852 2.024-4.546 5.059-6.735 8.6-.673.337-1.346.843-2.02 1.349-1.01 1.349-1.178 2.698 0 3.878 0 .675 0 1.35.168 2.024-1.178-.506-3.03-.506-4.882.843C-.091 46.2-.26 47.888.246 49.237c.336 2.023-.337 3.035.168 4.89.673 2.023 1.684 2.697 3.367 3.035 1.852.337 3.03-.169 4.378-1.012.673-.506 1.347-.843 2.02-1.18 1.515-.844 3.03-1.35 4.714-1.687 2.526 2.192 6.23 3.036 9.597 2.53-.168 1.011-.505 4.384-.505 7.082.169 3.372.337 6.407.337 9.105H75z"/><path fill="#FFF" d="M42.833 56.31c-.833-.344-1.832-.862-2.999-1.379-1.666-.862-3.332-1.724-5.332-2.414A52.627 52.627 0 0132.17 52c-1.666 1.38-3.832 2.586-5.998 3.103-.667 5.345.666 11.38 2.999 16.897H43c-.333-7.586-.666-13.793-.167-15.69z"/><path fill="#FFF" d="M40.167 72c-.167-1.897-.334-3.62-.5-5.69-.167-1.379-.167-2.586-.334-4.138-.333-4.31-2.333-5-5.5-6.896-2 1.207-4.666 2.069-7.833 2.069 0-.69.167-1.552.167-2.242 2.166-.517 4.333-1.724 6-3.103.666.172 1.5.345 2.333.517 2 .69 3.667 1.552 5.333 2.414 1.167.517 2.167 1.035 3 1.38-.5 1.896-.166 8.103.167 15.689h-2.833z"/><path fill="#FEFEFE" d="M27.209 24.736c2.65.487 5.135.162 6.791-2.112l-.994-.974c-.166 3.898-4.472 2.76-3.975-.65-.829.65-1.491 1.787-1.822 3.736zm-6.626-.65c.166-.325 0-.65 0-.975-.994 2.437-3.313.975-2.65-1.299-.166 0-.497.163-.829.487-.662 1.95 1.988 3.898 3.479 1.787z"/><path fill="#E18C1C" d="M33.265 41.74c.337.17.505.677.337 1.184-.168.676-.673 1.014-1.01.845-.337 0-.337-.676-.169-1.183.169-.507.506-.846.842-.846zM73 72H62.561c.674-1.86 1.179-3.719 1.347-5.917-.673 2.198-1.347 4.057-2.189 5.917H44.21c.169-4.733.337-9.636 1.179-14.707.673.169 1.515.169 2.357 0 2.525-.507 3.872-2.029 4.377-3.55.337-1.353.169-2.367-.168-3.381-.842-2.029-1.178-2.536-.505-4.226 1.347-3.888-2.526-5.748-5.893-5.41-2.02.17-3.872 1.184-5.556 2.198 1.684-2.367 2.694-5.41 3.367-8.96.505.846.842 1.69 1.01 2.536.337-4.226-2.02-4.564-5.556-5.917 2.02 1.015 3.536 2.198 4.378 3.381-1.852 4.734-2.862 7.27-7.071 10.481-1.684 1.015-3.031 1.522-4.546 2.029-2.694.845-5.388.845-8.924.507-2.525-.338-4.377-.845-6.903-1.352.674.507 1.347.845 2.189 1.183-4.21 2.536-8.418 1.183-10.102-1.352 0-.17-.169-.339-.169-.508C7.168 44.276 7 43.431 7 42.586c1.852 1.183 4.714.845 6.903.169 1.179-.17 8.587-3.212 9.597-6.086.337-.676-1.515-1.014-3.872-1.014-1.852 0-4.546 0-6.735.169-.842.169-1.684.338-2.357.507 1.515-3.888 4.377-7.27 6.903-9.129 1.01-.845 2.189-1.352 4.04-1.521-1.178-.17-3.198.169-4.377 1.014.168-.507.842-1.69.842-2.028 1.347 1.183 2.862.845 3.704.169 0-.17.337.338.337.845V24.16c0-1.353-1.01-3.55-3.2-2.705 1.348-.845 2.526-1.353 3.368-2.705-1.852 0-2.189.676-3.704 1.86-.337.338-.673.507-1.01.676 2.862-5.579 12.627-8.79 19.194-9.298-.505 1.014-.674 1.86-.505 2.705C37.98 7.593 43.536 6.24 46.06 1c4.041 3.888 5.22 14.2 5.22 19.948-.169 5.41 1.347 9.466 3.535 14.03-1.347-1.014-3.367-1.352-5.893-2.535 3.705 2.028 5.893 3.38 7.577 5.41 1.515 2.873 3.199 5.578 4.378 8.79 2.188 5.578 4.04 10.988 6.566 16.397C68.79 66.083 70.474 69.295 73 72zM25.857 42.248c.337 0 .505.676.337 1.352-.168.507-.674 1.014-1.01.845-.337 0-.505-.676-.337-1.352.168-.507.673-1.014 1.01-.845zm6.566-4.227c.337.17.337.508.169 1.015 0 .507-.337.845-.674.676-.336 0-.336-.507-.168-1.014.168-.338.505-.677.673-.677zm16.332-16.397c-2.189-2.874-3.872-4.057-5.22-7.438-.841-1.86-.168-3.72.674-5.41.505-1.352 1.684-3.043 2.02-6.255.674 2.705-1.515 7.1-1.683 9.467 0 3.381 2.694 7.776 4.21 9.636zm-19.194-4.395c3.2 2.366 8.082.676 9.092-.17-1.852.508-3.03.339-4.21.17-2.188-.508-3.03-1.184-4.882 0zm-2.862 8.96c.337-.508.842-1.015 1.179-1.353.168-4.057 3.199-7.607 8.25-2.029.673.338 1.515 1.014 2.862 1.522a16.166 16.166 0 01-3.03-1.184c-.338.676-1.348 1.522-3.2 2.029 2.357.169 5.051.845 7.072 3.212-2.19-2.198-5.051-2.705-8.25-3.043-1.01.169-2.19.169-3.536-.17-.337.17-.505.339-1.347 1.015z"/><path fill="#E18C1C" d="M62.134 72c.376-.85.564-1.7.752-2.55 0 .85-.188 1.7-.188 2.55h-.564zM65 58.574c-.337 3.059-.843 6.118-1.686 8.837.169-.34.169-.85.169-1.36-.674 2.21-1.349 4.08-2.191 5.949h-3.203c.505-2.38.843-4.929 1.011-7.478 1.18-11.217-.674-21.584-4.214-28.042.506.34.843.85 1.18 1.19 1.517 2.89 3.203 5.608 4.383 8.837 1.685 4.08 3.034 7.988 4.551 12.067zM45.952 3c1.349 2.38 2.191 6.288 2.191 10.367 0 2.55-.168 4.759-.674 6.628-1.517-2.04-3.371-5.438-3.371-8.328C44.266 9.628 46.12 5.72 45.952 3zm-9.777 8.667c-2.023 3.23-4.383 2.21-7.08 5.269 1.855-1.19 2.697-.51 4.889 0 .674.17 1.348.17 2.191.17-.168-.34-.337-.85-.506-1.19v-2.21c0-.679.17-1.359.506-2.039zm-4.214 6.289c2.866 1.53 4.551.34 6.574 6.118 0-2.55-1.011-4.419-2.023-6.458-1.18.34-2.865.68-4.551.34zm-14.665 1.7c1.685-2.55 4.382-4.59 7.585-6.12-1.517-2.378-3.877-2.548-5.225-4.758-2.192 3.23-3.203 8.498-2.36 10.877z"/><path fill="#FFF" d="M29 51.266c-1.902-.321-3.963-.321-6.183-.16-1.744.16-3.646.321-5.549.643-.475.16-.792.16-1.268.321 1.585 1.608 3.963 1.93 5.707 1.93 2.537 0 6.025-1.447 7.293-2.734z"/><path fill="#FEFEFE" d="M38.81 43.75c-1.515 1.449-3.537 2.415-6.4 3.22-3.37.645-7.075.645-9.77.323-.843-.162-1.853-.323-2.864-.645-4.211 2.738-8.76 2.255-11.286-.16-1.685-1.611-4.211-2.9-6.233-1.45-2.527 1.932-.842 4.832 1.516 5.959-.674 0-1.347-.322-2.021-.805-.337 1.127-.337 1.932 0 2.577.674 1.127 1.347 1.61 2.19 1.932 1.853.645 2.695.162 3.874-.644.842-.644 1.684-.966 2.527-1.45 2.358-.966 5.053-1.449 7.58-2.093 2.19-.322 4.043-.644 6.064-.644 3.538-.162 7.412 0 11.118.966 2.021.483 4.043 1.288 5.896 2.255 2.695 1.45 4.716 2.094 6.57 1.45 1.515-.484 2.526-1.29 3.031-2.255 1.348-2.9-1.01-4.993-2.863-7.087.505.322 1.01.644 1.347.966.337-.161 1.01-.644 1.18-1.127 1.178-2.577-2.022-4.188-4.044-4.027-2.526.322-5.053 1.772-7.411 2.738z"/><path fill="#FFF" d="M7.332 38.597c-.318.532-.476 1.064-.159 1.596 1.429 2.307 6.192-.887 6.827-2.66 0-.356-.635-.533-1.588-.533-1.27 0-4.286.532-5.08 1.597z"/><path fill="#F3F4F4" d="M45.954 41c-2.335.967-3.67 2.257-5.838 3.707-2.169 2.096-6.672 3.385-11.676 3.385-2.503 0-4.671-.322-6.673-.806-1.5.968-3.67 1.774-6.171 1.774-1.502 0-2.836-.323-4.004-.645 2.335.322 5.004-.161 7.506-1.773 1.001.322 2.002.483 2.836.644 2.669.323 6.339.323 9.675-.322 2.836-.806 4.837-1.773 6.338-3.224 2.336-.967 4.838-2.418 7.34-2.74h.667zM1.25 50.188c-.333 1.128-.333 1.934 0 2.579.667 1.128 1.335 1.612 2.169 1.934 1.835.645 2.669.161 3.836-.645.834-.644 1.668-.967 2.502-1.45 1.502-.484 3.17-.967 4.67-1.451-3.335.161-6.004 1.773-9.007 1.934-2.335 0-4.17-.967-4.17-2.901zm22.019-.323c3.503-.16 7.339 0 11.009.968 2.001.483 4.003 1.29 5.838 2.256 2.669 1.451 4.67 2.096 6.505 1.451 1.502-.484 2.502-1.29 3.003-2.257 1-2.256-.167-4.03-1.501-5.641 1.167 3.868-2.336 6.125-7.173 4.835-3.837-1.128-10.175-2.74-17.681-1.612z"/><path fill="#FFF" d="M29 51.31c-1.97-.374-4.104-.374-6.403-.187-1.478 0-3.12.188-4.597.563h1.478c2.626 0 5.09.563 7.06 1.314 1.149-.563 1.97-1.126 2.462-1.69z"/><path fill="#D37420" d="M12 47c-1.724-.313-3.276-1.094-4.138-2.344 0-.156-.172-.312-.172-.468C7.172 43.562 7 42.78 7 42c.69.469 1.552.625 2.586.625A6.387 6.387 0 0012 47z"/><path fill="#FFF" d="M32.284 37.418c.335.16.335.48.167.958 0 .48-.335.799-.67.639-.334 0-.334-.479-.167-.958.167-.32.502-.639.67-.639zm-6.53 3.992c.334 0 .502.638.334 1.277-.167.479-.67.958-1.004.798-.335 0-.503-.638-.335-1.277.167-.479.67-.958 1.004-.798zm14.232-10.378c-5.023-.319-12.223 1.757-16.577 4.79v.32c-.335.957-1.674 2.075-3.014 2.873-2.511 1.596-5.86 2.874-6.53 2.874-2.177.638-5.023.958-6.865-.16 0 .798.167 1.597.67 2.235 0 .16.167.32.167.48 1.675 2.394 5.86 3.671 10.047 1.276-.837-.319-1.507-.638-2.177-1.117 2.512.479 4.353.958 6.865 1.277 3.516.32 6.195.32 8.875-.479 1.506-.479 2.846-.958 4.52-1.916 4.186-3.033 5.191-5.428 7.033-9.898a7.764 7.764 0 00-1.674-1.597l-1.34-.958zm-6.865 9.899c.335.16.502.638.335 1.117-.168.639-.67.958-1.005.799-.335 0-.335-.48-.167-1.118.167-.479.502-.798.837-.798z"/><path fill="#FFF" d="M40.09 31c1.294.798 2.264 1.596 2.91 2.553-1.778 4.468-2.747 6.862-6.788 9.894-1.616.957-2.909 1.436-4.364 1.915-1.616.478-3.07.638-4.848.638 6.788-1.596 12.121-7.5 13.09-15z"/><path fill="#E18C1C" d="M28 72c-.91-1.667-1.455-3.167-2-5v5h2z"/><path fill="#E18C1C" d="M26 67c.545 1.833.91 3.5 1.273 5H28c-.91-1.667-1.455-3.167-2-5z"/><path fill="#FFF" d="M34 21.667c-.326.5-.814.833-1.465.833-.651 0-1.302-.667-1.465-1.5h.65c.978 0 1.629.167 2.28.667zm-12.21 1c-.162.333-.325.333-.65.333-.489 0-.977-.333-1.14-1h.326c.65 0 1.302.333 1.465.667z"/></g></g></svg>