<svg xmlns="http://www.w3.org/2000/svg" xmlns:xlink="http://www.w3.org/1999/xlink" width="40" height="40"><defs><path id="allod-onlain__a" d="M0 1.071h30v5.786H0z"/><path id="allod-onlain__c" d="M0 6.929h30V1.143H0z"/></defs><g fill="none" fill-rule="evenodd"><path fill="#2571DB" fill-rule="nonzero" d="M20 0c11.046 0 20 8.955 20 19.997v.006C40 31.047 31.048 40 20 40 8.954 40 0 31.048 0 20 0 8.954 8.952 0 20 0z"/><g transform="translate(5 16)"><g transform="translate(0 .072)"><mask id="allod-onlain__b" fill="#fff"><use xlink:href="#allod-onlain__a"/></mask><path fill="#FFF" d="M21.012 6.054V6.05h-.153v.005h.153zm1.845-.857c.01-.007.022-.012.033-.018a4.233 4.233 0 00-.055-.102.48.48 0 01-.024.01l.046.11zm-11.859.06a.178.178 0 01-.026-.006c-.009.025-.02.049-.025.074-.003.017.006.038.01.056l.023-.003.018-.121zm14.099.064c.01-.003.02-.003.029-.005l-.018-.13c-.013 0-.025.003-.039.005l.028.13zm3.084.224h-.01v.184h.01v-.184zM3.792 4.804h-.014v.184h.014v-.184zM8.75 5.837l.046-.004-.028-.124a.257.257 0 01-.04.008l.022.12zm18.584-.106l.044.017.029-.131-.028-.007-.045.12zM3.569 4.773c-.007.006-.014.013-.023.018l.072.155.043-.023c-.03-.05-.06-.1-.092-.15zm.253.826l.031-.01-.051-.155-.033.01.053.155zm.892-.754a.973.973 0 01-.048-.011l-.023.116.044.008c.01-.037.018-.075.027-.113zm16.851-.228a.672.672 0 01-.051.014l.062.154.037-.013-.048-.155zM4.347 4.77l-.044.001.009.14.035-.003V4.77zm-.627.55l.03-.006-.075-.248a.344.344 0 00-.033.009c.027.081.053.165.078.246zm17.881.733l.006-.009h-.378v.01h.372zm3.855.248l-.173-.188.04.188h.133zM4.12 5.33h.043l-.01-.16a.309.309 0 00-.033.002v.158zm5.195-.693a1.06 1.06 0 01-.06-.004v.16l.032.003c.01-.053.02-.105.028-.159zm19.752 1.116h.026v-.197h-.026v.197zm-4.059-.786c-.105.068-.059.151-.073.228l.04.003.033-.23zm.239.125l-.031.001c.023.14-.041.284.031.42v-.421zm3.185-.1H28.4v.28h.03v-.28zm-17.652.803l.044.009.09-.33-.042-.01-.092.33zm.33-.932c-.091.124-.087.191.023.34l-.023-.34zm17.5.03c-.124.096-.116.192.02.29a24.955 24.955 0 01-.02-.29zm.36.714c.007-.11.013-.218.017-.318a4.225 4.225 0 00-.07-.17c-.075.17.057.323.052.488zM.465 5.835C.443 5.75.412 5.683.407 5.612c-.006-.078.008-.158.018-.237.008-.066.024-.132.036-.198-.14.233-.133.462.005.658zm7.951-.57l.052-.015c-.032-.145-.062-.29-.099-.469-.03.073-.047.114-.062.156l.109.328zm-2.56.43c.035-.008.062-.012.093-.018.006.066.01.12.018.192.103-.046.1-.102.074-.169-.035-.082-.072-.165-.03-.258.009-.019-.019-.053-.035-.093l-.12.345zm.213-.464l.056-.15c.023.053.037.088.053.118l.119-.107-.1-.039v-.155c-.171.117-.204.187-.128.333zm13.06.154a.251.251 0 01-.028-.005l-.285.664c.046.05.087.093.128.135a.128.128 0 00.012-.013l-.058-.11.232-.671zm10.13.374v-.864h-.022l-.085.214c.006.066.01.118.016.17.064.094.097.196.042.317-.027.056-.05.113.049.163zm-27.717.163c.3.375 1.052.573 1.35.34-.517.064-.985.036-1.35-.34zm1.24-2.58a1.992 1.992 0 00-.17-.503l-.196.48.366.023zM19.899 5.59c.055.014.084.028.114.028.41-.002.82-.002 1.23-.008.16-.003.243-.111.194-.256-.07-.208-.156-.412-.232-.618-.118-.324-.23-.652-.35-.976-.046-.122-.104-.24-.157-.36l-.045.006c-.24.728-.536 1.439-.754 2.184zm6.016.636c.087-.071.195-.142.28-.234.238-.259.355-.571.42-.907a1.358 1.358 0 00-.082-.795c-.172-.414-.69-.523-.932-.368-.005.012-.016.026-.016.04-.003.621-.014 1.243-.007 1.864.001.185.097.336.337.4zm-22.23-.29L3.022 4.01c-.086 0-.155-.002-.222.001-.036.002-.072.013-.108.023a1.57 1.57 0 00-1.022.873c-.176.37-.012.776.36.977.177.096.368.146.57.157.36.02.711-.012 1.083-.108zm13.176-.353c.033-.01.047-.013.062-.02.232-.11.358-.32.504-.508.086-.112.192-.233.213-.36.035-.211.029-.433.003-.645-.035-.285-.188-.538-.302-.8-.132-.303-.36-.548-.568-.803-.08-.097-.153-.107-.26-.044-.34.202-.576.493-.777.813a.27.27 0 00-.02.173 4.28 4.28 0 00.572 1.561c.15.24.313.474.573.633zm-5.692-1c.02.163.042.324.063.485l-.007.004.004-.008c.087-.11.112-.232.045-.369l.1-.058c.09.05.075.113.054.178-.072.21-.147.417-.217.628-.042.125-.08.252-.12.378.007.002.014.003.02.006l1.208-3.263c.032.047.052.07.063.095.116.301.227.604.347.904.108.27.224.54.337.808l.031.11.029-.006v-.072l.176.308c.022-.016.05-.036.076-.057a7.003 7.003 0 01-.039-.094l.02-.032.196.052.04.203c.008 0 .017 0 .025-.002l.05-.254.215.12c-.004-.083-.01-.157-.014-.232.01 0 .017 0 .025-.002l.06.185.113-.032c.022-.078.04-.142.06-.207a.778.778 0 00.055.012l-.027.199.184-.012c.008.041.012.074.018.109l.023.104.028-.003.04-.147.092.136-.037.05.19.166a1.436 1.436 0 00-.027-.065c-.324-.735-.653-1.469-.971-2.206-.181-.423-.176-.312-.006-.67-.457-.29-.996-.414-1.483-.648-.125.02-.257.042-.389.062a.204.204 0 01-.005-.028l.282-.067c-.187-.007-.366.008-.499.157-.038.041-.086.08-.15.033l.004.003-.094.082c.058.034.097.059.137.08.373.198.421.304.295.69-.155.476-.32.952-.475 1.428-.057.172-.097.347-.145.52-.022.032-.05.063-.063.098-.11.302-.215.606-.325.908-.083.228-.17.452-.256.679l.105.094c0-.056-.011-.103.002-.142.121-.368.243-.736.373-1.1.038-.106.108-.2.164-.298zm18.174.014l-.003-.003.012.493v.833h.037v-.27c.01-1.074.022-2.148.026-3.222 0-.22.02-.42.19-.585.012-.012.014-.033.022-.057-.432-.21-.9-.288-1.36-.422-.134.05-.278.1-.415.161-.14.062-.272.137-.419.211l.268.167c.247.158.392.367.396.662.01.838.029 1.675.046 2.514 0 .062.01.123.014.184.012 0 .025 0 .037-.002v-.714h.023l.04 1.04c.08-.228.122-.45.05-.687a.739.739 0 01.043-.493c.089.117.06.24.011.374h.224c.014-.047.022-.079.032-.117l.045.143.045-.005v-.228c.111.068.127.176.07.334l.048.132h.038c0-.117.01-.235.002-.35-.008-.116-.01-.224.118-.304v.566h.022a1.74 1.74 0 01.027-.073l.019.003v.251c.082-.293.004-.605.128-.89l.04.004-.058.526.032.006.064-.092c.01.033.017.06.023.085.022-.058.042-.117.063-.175zM5.632 6.056l-.001.01-.003-.008c.108-.302.217-.605.327-.907l-.05-.017c-.109.29-.22.577-.325.868-.003.01.034.035.052.053zm20.631.339c-.139.014-.255.079-.382.119l.01.043c.15-.009.298-.02.447-.028a.12.12 0 00-.003-.028l-.114-.033.039-.077.008-.004-.005.008zM8.508 6.118l.003.008-.006-.004.13-.147c.002-.147.018-.308-.106-.473.018.18.141.327.034.488a4.762 4.762 0 01-.123.095l.068.033zM24.78 5.06c.003.042.005.085.009.127a.38.38 0 01.045-.013l-.057-.11a5.516 5.516 0 01-.05-.127l-.026.01v.23h.02l.06-.117zm-11.202.89l-.209.134.11.03.015.045.022-.013-.04-.028.099-.172.045-.164-.042-.004v.171zm3.514.423l.215-.098a2.323 2.323 0 01-.028-.04c-.061.047-.122.095-.185.142a1.805 1.805 0 01-.104-.034l-.004.047.106-.017zm10.341-.555c.069-.036.074-.092.077-.147l-.051-.011-.022.161-.006.001.002-.004zm-12.603-.5l-.047-.152-.034.014.084.134.05.172c.014-.004.026-.01.04-.015a9.156 9.156 0 00-.093-.154zM27.9 6.457l.006-.001-.008.003.059-.113a.245.245 0 00-.025-.012l-.08.098.048.025zM10.066 5.69v.011l-.003-.008-.06-.153c-.057-.106-.115-.211-.171-.318l-.097-.209c0-.009-.002-.018-.002-.011-.003-.008 0 0 .005.008l.097.209c.038.115.048.243.17.318-.004.06-.023.125.06.153zm12.93-.525l-.022-.074c-.01-.034-.017-.069-.031-.1-.334-.755-.665-1.51-1.002-2.261-.091-.205-.162-.406-.028-.617.006-.01 0-.029 0-.057a7.147 7.147 0 00-1.426-.62l-.669.197c-.021.007-.04.025-.078.049l.147.081c.256.15.33.321.25.598a5.74 5.74 0 01-.1.316l-.57 1.692a.355.355 0 00-.018.132c.004.111.015.22.025.335.097-.03.062-.134.095-.217l.06.16c.008-.001.018-.002.026-.005l.017-.196c.102.084.075.175.045.266l-.171.516c-.037.157-.148.297-.136.492.706-.015 1.4.02 2.094-.022-.68-.018-1.36.015-2.064-.025.024-.088.043-.144.057-.2l.045-.249c.033-.049.073-.096.095-.15.056-.145.104-.293.156-.44l.733-2.066c.013-.04.033-.078.065-.152.035.077.058.119.074.164.137.347.27.697.408 1.042.07.172.153.34.23.508L21.3 4.26l.378 1.07c.005.011.023.02.034.028v.054l.018-.003-.022-.047c-.042-.134-.081-.269-.128-.401-.075-.21-.155-.42-.232-.63a.874.874 0 01.035-.024c.04.01.082.02.124.032v.198l.188.034.035.265.035.001.134-.28.121-.013v-.357c.053.15-.005.314.119.458l.017-.22c.062.124.132.263.22.434v-.335h.016l.011.132c.053.07.086.117.12.164-.04.041-.078.087-.028.14.014.014.05.01.106.019l-.082-.162c.022-.025.045-.05.066-.077l-.002.004c.13-.013.037-.126.104-.19.046.1.084.194.134.284.046.086.104.167.157.25l.02.074.035.104.032-.015-.07-.086zm4.494.737l.1-.11.004.002-.1.112-.005.007v-.01zm-11.196-.388l.036.033.074.123.029-.022c-.035-.034-.072-.066-.107-.098l-.036-.033-.053-.1a2.78 2.78 0 01-.487-.803 4.937 4.937 0 01-.329-1.314.508.508 0 01.083-.355c.177-.269.403-.49.669-.676.142-.1.295-.186.457-.285.152.144.3.266.426.405.476.527.745 1.148.88 1.825.046.238.06.474.021.714.125-.13.02-.316.128-.455v.313h.038l.028-.281.071.117.085-.182a.218.218 0 01.027.005l.057.21.024-.003v-.369c.08.135-.07.323.131.378l.147-.153c.025.21-.002.37-.056.528-.09.03-.12.097-.124.18l-.036.035-.087.15-.008-.001h.005l.086-.152.036-.035.125-.18.188-.325-.003.004c.03-.053.072-.102.092-.158.108-.309.238-.614.308-.93.124-.549.15-.414-.175-.855a.719.719 0 00-.026-.038c-.382-.483-.821-.906-1.396-1.176-.258-.121-.535-.205-.822-.313-.206.104-.415.199-.613.31-.212.12-.415.254-.623.384l.004-.004-.066.062.003-.004-.064.032.002-.003c-.029.047-.052.098-.088.14-.145.158-.298.31-.436.473-.124.146-.232.306-.346.46a.734.734 0 01.08.233c.069.397.17.783.35 1.149V4.47c.076.157.154.314.232.469l.034-.015c-.031-.068-.061-.136-.094-.204.066-.062.09-.151.095-.307.09.104.11.24.156.347l.11.094-.005.003.002-.006c.031.125.065.25.1.382.139-.054-.01-.203.062-.28l.092.027c-.04-.086-.067-.15-.1-.212-.052-.109-.053-.109-.03-.167.138.226.276.461.424.69.034.051.105.083.159.123l.054.1zm3.259.603l.103-.05.118-.017c-.003-.007-.005-.015-.009-.022l-.106.042c-.05-.012-.1-.022-.102.05l-.034.036-.094.054-.033.038-.101.051-.228.015.12.095c.042-.045.073-.08.106-.113.033-.018.066-.035.1-.05l.034-.04.092-.053.034-.036zm-6.292-1.24l.002.022c-.002-.003-.003-.011-.005-.02l-.029-.09-.032-.091c-.004-.016-.009-.031-.012-.047l-.02.01.034.035.032.09.03.09zm10.065.963l.021.075.03.091c-.046.042-.094.083-.141.124l-.222.06h-.017c-.02.003-.004 0 .013-.003.075-.02.149-.039.222-.06.065-.02.129-.04.219-.07l-.077-.048a8.92 8.92 0 01-.029-.092l-.022-.074a1.451 1.451 0 01-.033-.058l-.055-.145a.448.448 0 01-.034.016l.091.125.034.059zm-17.251.473L6 6.329l-.061.032-.016.009.012-.013.062-.03.079-.018-.003-.007.002.012zm-.83-.285l.004.004-.006-.003-.02-.067-.161-.42c-.015-.058-.028-.117-.047-.174l-.488-1.463c-.287-.86-.521-1.736-.879-2.561a11.978 11.978 0 00-1.788-.02c.036.046.077.08.123.104.3.159.535.366.64.693.146.451.304.898.455 1.347.007.022.005.047.009.093-.414-.046-.822-.099-1.208.106.076-.186.172-.353.24-.53.108-.281.204-.568.292-.857a.302.302 0 00-.026-.229c-.077-.127-.213-.2-.36-.281-.041.475-.214.889-.447 1.28-.093.155-.2.31-.326.441-.307.32-.547.673-.699 1.081-.022.064-.034.133-.051.198.051-.063.074-.134.098-.205.027-.075.055-.148.16-.165-.088.284-.091.443-.015.577.058-.584.06-.585.21-.705l-.067.324.126.158-.045.064c.03.02.058.035.1.06V4.55c.032.058.048.09.064.122l.028-.007v-.3l.038-.005.114.522a1.59 1.59 0 01.707-.91c.36-.22.755-.254 1.175-.182.033.096.06.182.093.266.052.123.108.245.163.368l.02.171.036-.007a4.32 4.32 0 01-.058-.161v-.079l.11.062c.022.212.022.212.142.206l-.029-.318.039-.002.032.216.149.11a9.6 9.6 0 00.027-.037l.147.089.083-.11c.1.132.19.042.285-.017.027.109.048.2-.018.287a.77.77 0 00.003-.053l-.017.004.018.045c.122.056-.037.195.105.271 0-.097.01-.176-.002-.252a.444.444 0 01.13-.403c.006.05 0 .096.016.136.09.231.18.46.273.688.038.092.083.18.123.269a.66.66 0 00.159.42l.021.07zm18.864.178l.035.038c.006.004.012.008.005.002.008.002 0 0-.008 0l-.034-.036c-.01-.01-.023-.02-.032-.03-.011-.144-.023-.289-.032-.434-.004-.076-.01-.151-.09-.193l-.04-.033-.02-.325.035-.001.009.126.018-.005.109.18.1-.111c.022-.13-.068-.24.015-.36l.061.148.119-.192c.013-.096.029-.214.047-.335l.105-.015.032-.236.134.281c-.01.048-.024.128-.04.215.047-.01.082-.02.101-.024l.2-.359.026.185.027-.001a5.76 5.76 0 00.044-.197l.042.007c-.005.062-.016.125-.014.187.002.06.014.122.02.184a.444.444 0 01.036-.006c.01-.09.019-.18.03-.269l.032.003v.372l.046.006c.013-.085.037-.167.04-.252.008-.266.009-.531.011-.797v-.21c.082-.03.143-.059.208-.075.633-.162 1.205.154 1.377.766.116.407.084.814-.006 1.22l-.03.092a8.225 8.225 0 00-.019.078l-.059.065c.008.003.015.008.023.012l.033-.082.019-.077.031-.09.07-.027.015.152.043.002.084-.36c-.01-.002-.02-.006-.03-.007-.024.046-.045.093-.068.138a.313.313 0 01-.031-.008l.04-.38.12.03.064-.29a8.99 8.99 0 00-.13-.037l-.023.056-.03-.004-.02-.43c.058.061.105.108.152.155a.194.194 0 01.024-.02 41.25 41.25 0 01-.09-.212l.115-.014.065.13.109-.209c.044.035.083.063.12.092-.015.181.003.35.01.52.008.165.003.332.003.498l-.053.001c0-.247-.111-.484-.026-.74a.624.624 0 00-.106.266c-.006.089.029.18.047.27l-.018.014-.089-.097-.098.145.04.368c.062-.091.062-.091.033-.324l.145-.006.054.206c.012.002.025.003.037.006l.136-.162.108-.042c-.012-.142.042-.281-.025-.414-.03.236-.03.236-.082.3-.087-.172-.072-.673.033-.676.004.035.012.07.016.102l.099.006v.206l.056-.022c.004.057.012.11.009.164-.009.15-.023.3-.036.45l-.053.164-.063.079.023.014.037-.096.052-.165c.15-.332.124-.67-.002-.996-.208-.539-.639-.866-1.198-1.035-.37-.11-.754-.148-1.133-.008-.031.012-.07.01-.125.017 0-.09 0-.17.002-.248.007-.406.016-.813.022-1.22a.529.529 0 00-.12-.38c-.132-.152-.304-.211-.502-.214l-1.203-.014-.007-.002h.01c.057.043.11.089.169.128.16.106.294.228.296.434.011.903.025 1.806.034 2.708a.38.38 0 01-.061.195c-.159.244-.095.487-.008.731.012.012.026.022.038.033.013.072.022.145.04.216.034.136-.02.29.083.413.01.009.02.02.031.028zm-13.885-.134l-.002-.005.001-.045-.032-.086h-.008.012l.03.083v.053zm-4.051.177l.02-.047a1.1 1.1 0 00.065-.018l.036-.034.046-.102-.087-.014a.411.411 0 01-.033-.389c.117-.312.23-.624.345-.936.249-.672.498-1.344.748-2.013.012-.034.035-.064.07-.126.294.714.526 1.41.814 2.087.011-.003.022-.006.033-.007.015-.05.031-.097.059-.183l.076.147c.034-.062.018-.169.168-.128l-.052.146.148-.047.004-.004-.037.195.037.01a44.3 44.3 0 00.128-.237l.159.376.042-.009a124.19 124.19 0 01-.023-.182c.066-.066.086-.148.035-.226.047-.028.083-.05.113-.07.025.045.05.09.07.123l.207-.025.078.123v-.153l-.087-.14.036-.018c.138.159.154.378.287.542a.136.136 0 00-.01-.082 655.93 655.93 0 00-.592-1.346c-.14-.314-.277-.63-.419-.942-.067-.147-.061-.282.038-.413.012-.015.017-.034.035-.072-.427-.274-.915-.422-1.375-.606l-.042-.11c-.373-.003-.68.15-.955.298.138.084.296.163.43.272.135.11.136.223.064.378a1.31 1.31 0 00-.08.241c-.025.097-.031.199-.063.293-.17.522-.345 1.043-.52 1.564l-.147.4.091.041.08-.233-.026-.21c.087.039.069.114.071.183.01.182.012.364.102.555-.029.09-.063.2-.102.308-.035.1-.078.195-.108.296-.043.15-.006.249.107.325l.086.016-.044.107-.037.034-.066.02-.02.04-.011-.002.008.004zm23.008-.001l.02-.046.077-.014.087-.067.047-.045a.212.212 0 00-.026-.018 1.34 1.34 0 01-.017.066l-.089.066c-.025.006-.05.01-.077.015a.607.607 0 01-.019.04h-.01l.007.003zm-23.744.019c.012.011.023.025.034.037l-.02.084.105-.014-.087-.067-.035-.038.003-.002zm12.341-.295l-.029.033-.086.062-.1.053a.373.373 0 00-.033.038l-.063.022-.002-.002.061-.023.033-.039.1-.052.087-.062.029-.033a.96.96 0 01.034-.036l.132-.079c.02-.021.039-.043.058-.066l.007-.006-.003.01-.058.067a8.03 8.03 0 00-.133.078l-.034.035zm.479-.417l-.034.026-.058.057-.036.035-.004-.004.036-.034.059-.056.033-.027c.014-.012.027-.022.039-.034l.006-.016a.24.24 0 01-.003.019 1.105 1.105 0 01-.038.034zM5.439 5.442c.11-.318.217-.638.33-.955.168-.458.343-.915.512-1.373.096-.265.187-.533.28-.798a.307.307 0 00-.086-.347c-.102-.093-.218-.172-.327-.256-.039-.029-.075-.059-.145-.114.135-.07.234-.133.342-.176.3-.115.614-.179.937-.2a.822.822 0 01.308.027c.5.173.993.363 1.438.644.044.028.078.069.113.1-.017.035-.02.052-.032.061-.218.172-.186.381-.074.584.214.394.361.812.548 1.215.112.243.227.484.34.726.119.255.235.512.354.768.014.034.038.064.068.113.038-.043.068-.065.08-.094.106-.276.213-.552.313-.832.195-.553.386-1.11.582-1.664.049-.137.113-.268.165-.405.086-.219.056-.41-.15-.561a2.077 2.077 0 01-.212-.181c-.035-.033-.058-.077-.1-.136.087-.048.153-.1.227-.125.217-.068.438-.126.658-.187.081-.023.164-.06.245-.054.16.012.326.025.475.08.332.12.659.257.981.403.174.077.333.185.515.289-.036.06-.054.105-.084.141-.123.154-.151.31-.053.488.086.155.15.318.238.506.04-.059.072-.096.096-.136.49-.855 1.214-1.464 2.153-1.84.277-.111.578-.108.86.003.32.126.642.246.928.441.473.324.855.725 1.183 1.178.034.047.077.088.133.15.031-.065.055-.103.07-.143.037-.1.061-.203.108-.298.093-.187.038-.342-.101-.48-.091-.09-.192-.173-.28-.251v-.155c.192-.16.44-.188.664-.265.005-.001.01.001.016-.001.484-.22.915-.001 1.34.17.308.123.59.303.884.46a.42.42 0 01.087.065c.014.012.021.032.042.063a5.347 5.347 0 00-.113.117c-.096.107-.14.219-.076.36.2.44.395.883.594 1.324.214.473.43.944.666 1.414 0-.03.002-.059 0-.09a.943.943 0 01.122-.536.584.584 0 00.075-.283c.01-.713-.002-1.426.018-2.14a1.007 1.007 0 00-.392-.86c-.05-.041-.095-.087-.143-.13l.012-.033c.07-.007.142-.019.211-.019.55-.002 1.1.016 1.647-.01a.55.55 0 01.57.55c-.006.397 0 .794 0 1.19v.195h.186c.344-.007.685-.004 1.016.106.332.11.635.264.884.505.04.04.083.072.147.128.005-.091.012-.154.013-.216.001-.317-.012-.634.004-.95.019-.422-.228-.677-.572-.882-.046-.027-.088-.061-.147-.105.048-.055.078-.1.119-.135.288-.234.637-.344.996-.434a.306.306 0 01.124-.002c.519.1 1.024.235 1.488.482.046.024.087.056.143.094-.017.048-.019.105-.051.135-.204.187-.24.426-.24.676 0 .533.002 1.064.003 1.597 0 .467-.002.935.001 1.402.003.18.02.36.03.54.003.068 0 .137 0 .209-.315.204-.637.381-1.003.473-.135.034-.273.085-.411.087-.281.002-.522-.132-.762-.254-.057-.029-.107-.065-.174-.108-.176.058-.363.109-.543.176-.467.176-.943.168-1.424.076a.441.441 0 01-.174-.066c-.143-.109-.3-.133-.475-.124-.153.008-.306-.008-.459.005-.241.02-.39-.085-.479-.3-.055.003-.115-.003-.168.013-.273.08-.544.174-.82.249-.216.06-.438.135-.66.137-.137.001-.3-.094-.41-.188a.648.648 0 00-.472-.158c-.428.01-.855.007-1.282.003a.463.463 0 00-.29.095 4.134 4.134 0 01-.424.257c-.132.071-.186.06-.293-.04-.169-.159-.336-.32-.504-.48l-.158-.145c-.059.036-.119.065-.17.104-.284.21-.586.386-.919.518a.506.506 0 01-.439-.002c-.246-.122-.501-.227-.743-.357a.613.613 0 00-.483-.045c-.216.062-.427.14-.645.196-.354.092-.711.174-1.08.263-.343-.128-.646-.315-.87-.638.033-.037.063-.081.104-.112.19-.14.21-.23.123-.44-.126-.306-.241-.616-.359-.926-.11-.29-.217-.583-.326-.874-.038-.1-.082-.199-.132-.32a2.481 2.481 0 00-.28.691c-.049.178-.128.349-.193.524-.02.056-.035.114-.055.17-.047.122-.098.242-.144.365-.078.205-.158.411-.226.62-.033.107.03.192.116.262.037.03.07.066.116.112a2.38 2.38 0 01-.83.574c-.136.015-.2-.064-.27-.13-.322-.31-.203-.244-.626-.153-.169.037-.33.106-.498.146-.187.044-.379.073-.6.115-.328-.065-.832-.45-.858-.672.006-.008.01-.02.017-.025.233-.174.263-.244.162-.511-.22-.587-.447-1.173-.672-1.759-.04-.102-.074-.206-.111-.308a.433.433 0 01-.039-.003c-.066.177-.132.353-.195.53-.166.454-.332.907-.495 1.362-.048.132-.091.266-.135.399-.06.179-.032.25.138.352.03.017.056.04.111.078-.074.08-.13.167-.211.222-.192.13-.394.248-.598.362a.29.29 0 01-.312-.005.545.545 0 00-.252-.065c-.363-.007-.727-.004-1.092-.004a.617.617 0 01-.594-.387l-.073-.173c-.1.074-.195.136-.28.21-.266.238-.595.376-.932.48-.387.12-.787.17-1.19.023a1.447 1.447 0 01-.504-.301c-.138-.128-.265-.256-.467-.318-.242-.074-.374-.33-.342-.586.016-.128.054-.254.084-.381.048-.199.114-.395.142-.597.034-.246.153-.458.28-.662.135-.214.296-.414.454-.614.239-.3.466-.61.616-.96.12-.279.217-.57.105-.877-.029-.077-.073-.15-.127-.258h.23c.574 0 1.149.01 1.724-.003a.518.518 0 01.526.333c.13.307.216.629.322.943.097.29.196.58.296.871.16.46.323.92.484 1.382.082.234.162.47.242.704h.056z" mask="url(#allod-onlain__b)"/></g><path fill="#FFF" d="M15.137 4.551v-.276h.03v.275l-.03.001zm-.133-.005l-.031-.331.036-.003c.025.11.027.22-.006.332l.001.002zm3.835-.149v.162h-.028v-.165z"/><mask id="allod-onlain__d" fill="#fff"><use xlink:href="#allod-onlain__c"/></mask><path fill="#FFF" d="M15.416 4.365h.012V4.26h-.012zm3.102.154h.011v-.055h-.01zm.304.261l-.04-.049.022-.01.015.063.003-.003zm-3.33-.08v.035h-.01l-.008-.031.018-.004zm.097-.155c.007.003.014.008.007.003l-.005-.006-.002.003z" mask="url(#allod-onlain__d)"/><path fill="#FFF" d="M15.592 4.542l-.003-.015v.018l.003-.003zM3.915 4.415c-.107-.068-.03-.144-.02-.25l.059.209-.042.043.003-.002zm-2.483.03a43.77 43.77 0 00-.05.19c-.017-.005-.032-.01-.05-.014l.063-.184a.353.353 0 00.037.008m2.894.018l-.032.14c-.008 0-.017 0-.025-.002l.01-.153.047.015m.22-.146l-.008.121-.04-.002.01-.12h.038m-.56.227l.004-.052h.015a.851.851 0 00.005.052h-.024zm.164-.048a.364.364 0 00-.005-.036c.004 0 .01 0 .014-.002l.004.037H4.15m-.238-.077l.003-.002-.003.002zm20.154-.032c.01.255.023.51.034.764a.344.344 0 01-.034.006 4.122 4.122 0 01-.054-.103l-.057.128c-.014-.008-.035-.016-.034-.023.004-.052.007-.106.02-.156.023-.092.06-.18.075-.272.018-.112.02-.228.029-.343l.021-.001m.266.167c-.069.113.026.278-.128.365l-.045-.014.137-.362.036.011m-.14.045a.352.352 0 00.002-.034.05.05 0 01.017-.003l.009.037h-.028m.722-.223l-.006-.033.013-.002c.001.01.003.022.003.034h-.01m.243.151c.002.007.007.012.004.015 0 .004-.007.004-.012.006l.008-.02M6.459 4.8l-.039-.514c.08.058.083.058.093.258.004.087 0 .173 0 .258A.891.891 0 006.46 4.8m-.088-.101l.008.125-.039.004c-.006-.041-.01-.083-.017-.125l.048-.004zM8.52 4.34l-.003-.024c0-.003.005-.005.008-.007l.002.03H8.52zm.109.317l.004-.002-.004.002zm2.536.002v-.246l.107.201-.107.045m2.285-.295c.103.068.092.115.01.167l-.01-.167m.305.137a.842.842 0 01-.013-.053l.024-.005a.68.68 0 01.013.052.146.146 0 01-.024.006m-2.234-.157l.006-.036.012.005-.005.033-.013-.002m1.609.133l-.069-.032.046-.036.023.068m9.191.11c-.042-.08-.122-.165 0-.265v.265zm-.603-.093a11.74 11.74 0 00-.13-.081l.13-.062v.143zm-1.968-.039a8.457 8.457 0 01-.035-.169l.037-.006.023.172-.026.003m-.197-.082v-.045l.016-.001.007.046h-.023m2.272-.029l-.003.026h-.006v-.026h.009zm.739.074l-.023-.028a.053.053 0 00.013-.01l.023.03-.013.008m-1.26-.083l-.005-.08a.11.11 0 00.02.002l-.018.076.003.002zm1.283.478l-.002-.008v.011zm5.909-.203v-.214a.332.332 0 01.034-.003l.013.214-.047.003m.847.058l-.022-.156h.033a6.49 6.49 0 00-.013.152l.002.004zm-.282-.303h.01v-.051h-.01zm-.035.43l.002-.036h.01l-.002.036h-.01m-12.891.937l-.014-.05c.007-.001.014-.005.02-.007.009.015.017.03.024.047l-.03.01m-.122.086l.01.01-.01.001zm-.099-.073l.003-.003-.003.003zm-.031-.029l.031.03.004-.004a.765.765 0 01-.033-.03l-.002.004z" mask="url(#allod-onlain__d)"/><path fill="#FFF" d="M15.845 5.68l.037.036.002-.003-.036-.035zm1.345.52a4.725 4.725 0 01-.08.064.188.188 0 00-.024-.025l.076-.068.029.028" mask="url(#allod-onlain__d)"/></g></g></svg>