<svg xmlns="http://www.w3.org/2000/svg" width="41" height="40" fill="none"><path fill="url(#kinopoisk__paint0_linear)" fill-rule="evenodd" d="M20.5 40c11.046 0 20-8.954 20-20s-8.954-20-20-20S.5 8.954.5 20s8.954 20 20 20z" clip-rule="evenodd"/><path fill="#fff" d="M20.5 31.666a11.667 11.667 0 11-.001-23.334 11.667 11.667 0 010 23.334zm0-10.084a1.583 1.583 0 100-3.165 1.583 1.583 0 000 3.165zm-2.384-4.233a2.918 2.918 0 001.116-5.611 2.916 2.916 0 10-1.116 5.611zm7.95 3.183a2.916 2.916 0 100-5.832 2.916 2.916 0 000 5.832zm-3.183 7.95a2.917 2.917 0 100-5.833 2.917 2.917 0 000 5.834zm-7.95-3.183a2.917 2.917 0 100-5.833 2.917 2.917 0 000 5.833z"/><defs><linearGradient id="kinopoisk__paint0_linear" x1="13.316" x2="27.892" y1="40" y2="0" gradientUnits="userSpaceOnUse"><stop stop-color="#F60"/><stop offset="1" stop-color="#F90"/></linearGradient></defs></svg>