<svg xmlns="http://www.w3.org/2000/svg" width="80" height="80"><g fill="none" fill-rule="evenodd"><circle cx="40" cy="40" r="40" fill="#7F203B"/><g fill="#FFF"><path d="M13.796 43.378h4.494v-8.48h4.265v8.48h1.615l-.984 3.66H9.028l-.985-3.66h1.388a15.177 15.177 0 01-.151-2.15c0-1.516.235-2.95.706-4.299a9.357 9.357 0 012.247-3.565 8.323 8.323 0 013.66-2.15c1.126-.32 2.556-.48 4.29-.48h2.094l1.01 3.659h-3.273c-2.216 0-3.868.59-4.959 1.772-1.007 1.096-1.51 2.648-1.51 4.656 0 .541.017.962.05 1.266.033.304.1.735.201 1.29zm12.989 3.66l.75-1.885-2.737-6.616h2.579l1.224 3.579 1.053-3.579h2.382l-2.908 8.501zm7.658 0h-2.527l2.224-4.455-2.039-4.046h2.527l.987 2.343.987-2.343h2.526l-2.04 4.046 2.224 4.455h-2.527l-1.171-2.711zm5.909-8.501h2.223v2.895l2.473-2.895h2.119v8.501h-2.223v-5.369l-2.369 2.868v2.5h-2.223v-8.5zm10.723 8.501h-1.881v-1.895h1.881v1.895zM25.251 36.674h-.261v-1.626h.276v1.204l.884-1.204h.263v1.626h-.278v-1.208zm1.774-.698v.698h-.276v-1.626h.276v.681h.789v-.681h.276v1.626h-.276v-.698zm1.983.698h-.281v-1.366h-.438v-.26h1.156v.26h-.437v1.366z"/><path fill-rule="nonzero" d="M30.862 36.173h.31c-.154.363-.414.545-.78.545a.795.795 0 01-.593-.254.84.84 0 01-.246-.605c0-.235.081-.437.244-.606A.79.79 0 0130.39 35c.186 0 .346.048.481.144a.81.81 0 01.295.407c.04.114.06.25.06.409h-1.38a.61.61 0 00.188.352c.1.093.22.14.36.14.204 0 .36-.093.468-.28zm-.463-.9c-.135 0-.25.04-.346.12a.625.625 0 00-.202.317h1.078c-.087-.291-.263-.437-.53-.437zm1.94 1.439a.814.814 0 01-.583-.254v.922h-.279v-2.335h.28v.22a.772.772 0 01.56-.254.827.827 0 01.853.855.844.844 0 01-.232.597.785.785 0 01-.599.249zm-.596-.863c0 .159.055.298.164.417.11.12.243.18.4.18a.545.545 0 00.405-.172.566.566 0 00.168-.41.589.589 0 00-.166-.42.547.547 0 00-.803.003.573.573 0 00-.168.402z"/><path d="M33.711 35.976v.698h-.276v-1.626h.276v.681h.789v-.681h.275v1.626H34.5v-.698z"/><path fill-rule="nonzero" d="M36.34 36.173h.312c-.155.363-.415.545-.78.545a.795.795 0 01-.594-.254.84.84 0 01-.246-.605c0-.235.081-.437.244-.606A.791.791 0 0135.87 35a.81.81 0 01.481.144.81.81 0 01.295.407c.04.114.06.25.06.409h-1.38a.612.612 0 00.188.352c.1.093.22.14.36.14.204 0 .36-.093.468-.28zm-.462-.9a.525.525 0 00-.347.12.622.622 0 00-.201.317h1.077c-.086-.291-.263-.437-.529-.437z"/><path d="M37.532 36.674h-.282v-1.366h-.437v-.26h1.156v.26h-.437v1.366zm1.366-.986v.257h-.761v-.257zm1.334.986h-.238l-.52-1.189v1.189h-.266v-1.626h.364l.542 1.312.539-1.312h.364v1.626h-.266v-1.189z"/><path fill-rule="nonzero" d="M42.973 36.674h-.267v-.229c-.173.176-.364.263-.573.263a.831.831 0 01-.853-.856.83.83 0 01.241-.598.796.796 0 01.593-.247c.221 0 .415.084.58.253v-.212h.279v1.626zm-1.404-.821a.59.59 0 00.168.42.548.548 0 00.411.176c.148 0 .278-.06.39-.18a.569.569 0 00.168-.4.597.597 0 00-.165-.415.545.545 0 00-.803-.008.563.563 0 00-.17.407z"/><path d="M43.587 35.308v1.366h-.276v-1.626h.923v.26z"/><path fill-rule="nonzero" d="M46.053 36.674h-.266v-.229c-.174.176-.365.263-.574.263a.83.83 0 01-.852-.856c0-.234.08-.433.24-.598a.795.795 0 01.593-.247c.222 0 .415.084.58.253v-.212h.279v1.626zm-1.404-.821c0 .162.055.302.168.42a.547.547 0 00.412.176c.147 0 .277-.06.39-.18a.573.573 0 00.167-.4.6.6 0 00-.164-.415.547.547 0 00-.804-.008.566.566 0 00-.17.407z"/><path d="M46.31 36.179h.296a.25.25 0 00.114.212c.069.05.15.076.24.076.258 0 .388-.083.388-.25a.243.243 0 00-.091-.19c-.06-.053-.199-.08-.412-.08v-.221c.195 0 .32-.025.376-.075a.236.236 0 00.083-.182c0-.152-.106-.229-.319-.229-.227 0-.34.08-.34.241h-.285a.43.43 0 01.2-.38.778.778 0 01.43-.111c.161 0 .297.038.41.114a.42.42 0 01.193.365c0 .165-.103.278-.31.339.236.084.354.222.354.412 0 .148-.077.271-.232.37a.798.798 0 01-.437.127.749.749 0 01-.446-.136.476.476 0 01-.213-.402zm1.851.495H47.9v-1.626h.276v1.204l.884-1.204h.263v1.626h-.279v-1.208zm1.773-.698v.698h-.276v-1.626h.276v.681h.789v-.681h.276v1.626h-.276v-.698zm15.391-6.489c.601 1.972 3.13 3.599 5.27 3.19 3.399-.65-.265-4.942-3.33-4.854-.493.014-.965.296-1.386.277-1.266-.056-2.4-.942-4.437-.554-.669-.967-2.551-.505-3.05.277-.005.514.861.155.831.694-.706-.06-1.08.213-1.525.416 0 0 1.225 1.282.208 3.016a9.203 9.203 0 01-.421.68 9.998 9.998 0 00-.79.367 9.038 9.038 0 013.726-.799c4.88 0 8.835 3.83 8.835 8.554 0 4.725-3.955 8.555-8.835 8.555-4.782 0-8.674-3.68-8.826-8.274a6.404 6.404 0 00-.008.279c0 5.225 4.374 9.46 9.77 9.46s9.77-4.235 9.77-9.46c0-4.704-3.55-8.595-8.194-9.326-.262-.39-.992-1.495-.244-2.914.26-.493-1.127-.445-1.664-.694 1.038-.848 3.633-.288 4.576.277-.241.128-.305.434-.276.833z"/><path d="M56.03 45.549h-1.816v-5.17h1.815v1.827c.366-.187.677-.39.936-.613.38-.322.57-.623.57-.903 0-.222-.101-.372-.301-.451-.13-.05-.326-.075-.592-.075H53.87l.43-1.559h2.815c.788 0 1.38.198 1.773.592.337.338.506.775.506 1.313 0 .603-.238 1.181-.71 1.734-.566.66-1.45 1.248-2.655 1.764v1.541z"/><path fill-rule="nonzero" d="M65.938 38.606c.795 0 1.39.197 1.784.592.33.33.494.767.494 1.312 0 .611-.232 1.189-.698 1.734-.566.66-1.455 1.248-2.665 1.764v1.54h-1.816v-1.54c-1.211-.516-2.096-1.1-2.656-1.753-.472-.553-.709-1.134-.709-1.745 0-.538.165-.971.495-1.302.394-.401.989-.603 1.784-.603h3.987zm-1.085 1.773v1.827a4.6 4.6 0 00.946-.613c.372-.322.558-.623.558-.903 0-.222-.1-.372-.3-.451-.13-.05-.327-.075-.592-.075h-3.04c-.274 0-.467.021-.581.065-.208.079-.312.232-.312.462 0 .33.269.692.806 1.086.222.164.455.308.699.429v-1.827h1.816z"/></g></g></svg>