<svg xmlns="http://www.w3.org/2000/svg" xmlns:xlink="http://www.w3.org/1999/xlink" width="60" height="60"><defs><path id="transkapital__a" d="M29.703 59.405c16.404 0 29.702-13.298 29.702-29.702C59.405 13.298 46.107 0 29.703 0 13.298 0 0 13.298 0 29.703c0 16.404 13.298 29.702 29.703 29.702z"/></defs><g fill="none" fill-rule="evenodd"><use fill="#E4E4E4" xlink:href="#transkapital__a"/><path fill="#00B4AE" d="M11 25.252h7.748A39.592 39.592 0 0033.304 39.85v7.769C22.836 44.059 14.554 35.749 11 25.252"/><path fill="#005B9E" d="M33.304 25.252V39.85a39.586 39.586 0 01-14.557-14.598h14.557z"/><path fill="#00B4AE" d="M33.304 25.252H18.747A39.248 39.248 0 0114.655 15h8.426c5.646 0 10.223 4.591 10.223 10.252"/><path fill="#F89C2A" d="M43.525 35.506v8.443a38.92 38.92 0 01-10.222-4.097v-14.6c5.647 0 10.222 4.593 10.222 10.254"/><path fill="#00B4AE" d="M33.224 15.001c1.126 5.148 5.169 9.2 10.302 10.332V15.001H33.224z"/></g></svg>