<svg xmlns="http://www.w3.org/2000/svg" width="41" height="40" fill="none"><circle cx="20.5" cy="20" r="20" fill="#333"/><path fill="#fff" d="M13.025 16c1.049 0 1.729.68 1.729 1.729v3.796c0 1.049-.68 1.729-1.729 1.729H9.23c-1.049 0-1.729-.68-1.729-1.729V17.73C7.5 16.68 8.18 16 9.229 16h3.796zm.035 2.815c-.002-.33.002-.661 0-.992.011-.097-.063-.2-.165-.198-.197-.003-.395-.012-.59.006-.138.033-.13.193-.13.303-.25-.255-.504-.507-.757-.76a.406.406 0 00-.385-.115c-.125.026-.21.129-.298.214-.689.695-1.385 1.384-2.074 2.079-.167.159-.142.44.031.586.721.719 1.44 1.44 2.162 2.159a.398.398 0 00.557-.01c.722-.72 1.441-1.442 2.162-2.164a.397.397 0 00.025-.566c-.174-.186-.36-.36-.538-.542zm-1.987.971c-.066.01-.151-.03-.147-.105-.004-.42-.004-.84.001-1.26.13.032.263.057.389.105.028.297.002.598.011.896.304.09.61.17.913.256.052.012.094.05.11.101-.425.017-.851.004-1.277.007zM17.862 20.155a.59.59 0 01-.095.33.618.618 0 01-.272.225c-.119.054-.258.08-.418.08a1.248 1.248 0 01-.618-.126v-.482c.104.053.21.095.322.124.112.03.214.045.307.045.08 0 .14-.014.177-.042a.128.128 0 00.056-.107.118.118 0 00-.023-.072.263.263 0 00-.072-.063 2.989 2.989 0 00-.267-.128 1.277 1.277 0 01-.293-.173.53.53 0 01-.146-.192.636.636 0 01-.047-.256c0-.184.067-.328.201-.431.135-.103.32-.155.554-.155.207 0 .418.048.634.144l-.166.418a1.2 1.2 0 00-.485-.13c-.07 0-.121.013-.153.038a.112.112 0 00-.048.092c0 .039.02.074.061.105.04.031.15.088.33.17.173.078.293.16.36.25.067.089.1.201.1.336zm2.021.608l-.098-.375h-.65l-.102.375h-.594l.653-2.01h.722l.661 2.01h-.592zm-.21-.819l-.087-.328a11.645 11.645 0 01-.13-.533 5.581 5.581 0 01-.049.23c-.024.107-.077.317-.16.631h.425zm2.514-1.183h.605l-.656 2.002H21.5l-.654-2.002h.608l.273 1.015c.056.225.088.382.093.47a3.897 3.897 0 01.09-.466l.277-1.02zm2.494 2.002h-1.189v-2.002h1.19v.434h-.649v.315h.6v.434h-.6v.378h.648v.441zm1.718 0h-.541v-1.56h-.49v-.442h1.518v.442H26.4v1.56zm1.257 0v-2.002h.544v2.002h-.544zm2.332 0l-.41-1.442h-.011c.019.246.028.436.028.572v.87h-.479v-2.002h.72l.418 1.422h.011l.41-1.422h.721v2.002H30.9v-.878c0-.045 0-.096.002-.152l.019-.41h-.013l-.404 1.44h-.515zm3.512 0h-1.189v-2.002H33.5v.434h-.648v.315h.6v.434h-.6v.378h.648v.441z"/></svg>