<svg xmlns="http://www.w3.org/2000/svg" width="41" height="40" fill="none"><path fill="#E46600" fill-rule="evenodd" d="M20 40c11.046 0 20-8.954 20-20S31.046 0 20 0 0 8.954 0 20s8.954 20 20 20z" clip-rule="evenodd"/><path fill="#fff" fill-rule="evenodd" d="M33.75 13.306l-2.62 6.525c0 .02-.012.038-.025.058l-.012.02a.433.433 0 01-.148.161.576.576 0 01-.146.064.47.47 0 01-.382-.082.952.952 0 01-.151-.158c-.606-.727-1.175-2.626-1.227-2.799a21.13 21.13 0 01-.163-.601c-.111-.43-.223-.858-.4-1.298-.26-.645-.47-1.148-.79-1.378l5.034-1.633c1.296-.421 1.544-.155 1.03 1.12zm-6.55.657l-1.19.385-.079.027a.452.452 0 00-.252.282.38.38 0 00-.017.188.407.407 0 00.09.184 1.6 1.6 0 00.607.452c.18.093.346.157.521.225.428.166.907.352 1.775 1.026l-.061-.212-.005-.018a23.005 23.005 0 00-.37-1.233c-.273-.794-.591-1.409-1-1.318l-.018.012zm-11.462 9.482c.138-.383.205-.788.197-1.194v-4.359a.189.189 0 00-.033-.103.264.264 0 00-.118-.073 1.298 1.298 0 00-.222-.042 2.769 2.769 0 00-.35-.018 2.942 2.942 0 00-.358.018 1.326 1.326 0 00-.227.042.281.281 0 00-.119.073.189.189 0 00-.033.103v4.38a2.05 2.05 0 01-.088.633c-.081.3-.214.585-.394.84a2.827 2.827 0 01-1.366 1.026c-.26.096-.532.156-.809.179.358.094.727.14 1.097.136.438.008.874-.057 1.29-.19a2.51 2.51 0 00.945-.558 2.31 2.31 0 00.588-.893zm-5.537.084c.094.253.232.488.406.694.17.106.36.176.557.206.435.07.88.026 1.294-.127.28-.101.54-.253.766-.449a1.625 1.625 0 01-.245.016 1.773 1.773 0 01-.621-.103 1.277 1.277 0 01-.476-.303c-.14-.151-.243-.331-.303-.527a2.402 2.402 0 01-.106-.752v-4.292a.17.17 0 00-.036-.103.302.302 0 00-.121-.073 1.294 1.294 0 00-.225-.042 2.769 2.769 0 00-.351-.018 2.826 2.826 0 00-.357.018 1.39 1.39 0 00-.228.042.276.276 0 00-.12.073.189.189 0 00-.034.103v4.407a3.4 3.4 0 00.2 1.23zm12.44 1.345a.223.223 0 00.025-.103l-.006-.018a.628.628 0 00-.027-.157 7.186 7.186 0 00-.113-.303l-.605-1.436a5.336 5.336 0 00-.218-.464 2.652 2.652 0 00-.243-.366 1.435 1.435 0 00-.27-.273 1.509 1.509 0 00-.302-.19c.213-.068.417-.163.606-.282.343-.22.596-.555.714-.945.066-.215.097-.44.094-.664a2.074 2.074 0 00-.13-.766 1.64 1.64 0 00-.372-.579 1.932 1.932 0 00-.606-.394 3.156 3.156 0 00-.788-.215l-.336-.027H17.71a.412.412 0 00-.44.463v6.604c0 .037.013.072.036.1.03.036.07.061.115.073.075.022.15.037.228.045.119.007.238.007.357 0 .118.008.236.008.354 0 .076-.008.151-.023.225-.045a.243.243 0 00.12-.073.157.157 0 00.037-.1v-5.925h.664a3.41 3.41 0 01.396 0c.086.01.17.025.255.046a.89.89 0 01.536.348c.114.18.17.392.163.606a1.13 1.13 0 01-.078.427.864.864 0 01-.236.327 1.09 1.09 0 01-.394.212c-.179.054-.365.08-.552.076h-.26v1.12c.13-.004.261.015.385.058.12.048.23.121.32.215.1.108.185.23.252.36.073.14.152.307.23.491l.655 1.627a.58.58 0 00.054.115c.03.037.07.064.115.079a.91.91 0 00.224.042H22.29c.084-.004.168-.017.249-.04a.176.176 0 00.103-.069zm6.895-.151a2.334 2.334 0 00-.085-.303l-2.253-6.437a.523.523 0 00-.082-.17.303.303 0 00-.155-.09c-.099-.025-.2-.038-.303-.04H25.671a1.137 1.137 0 00-.273.04.248.248 0 00-.142.09.47.47 0 00-.079.152l-2.238 6.452c-.038.098-.066.2-.085.303a.221.221 0 00.04.181c.055.05.127.08.202.082.134.008.269.008.403 0h.39a.872.872 0 00.23-.042.24.24 0 00.119-.085.419.419 0 00.06-.133l.458-1.42h2.227l-.37-1.137h-1.515l1.021-3.105.606 1.866.03.091.376 1.136.52 1.615.322.984c.012.042.031.08.058.115a.22.22 0 00.115.073c.08.019.162.03.245.033h.878a.37.37 0 00.222-.073.207.207 0 00.045-.178zm-15.022 4.183a.06.06 0 000-.04l-.018-2.498a.303.303 0 000-.097.242.242 0 00-.042-.073.179.179 0 00-.07-.042.244.244 0 00-.1-.019H13.9a.493.493 0 00-.142.019.272.272 0 00-.106.054.395.395 0 00-.076.103.685.685 0 00-.063.155l-.627 1.666-.606-1.672a.832.832 0 00-.06-.152.285.285 0 00-.089-.1.272.272 0 00-.124-.054.677.677 0 00-.17-.019h-.363a.211.211 0 00-.157.061.225.225 0 00-.061.17v2.51a.085.085 0 000 .04.082.082 0 00.045.027c.027.01.054.017.082.019h.133l.152-.012a.32.32 0 00.109-.028.064.064 0 00.018-.018.06.06 0 000-.04v-2.283l.782 2.269a.076.076 0 00.024.042.237.237 0 00.055.03l.087.018h.255a.334.334 0 00.085 0 .165.165 0 00.051-.03.084.084 0 00.027-.048l.812-2.281v2.296c0 .014.006.028.015.04.01.013.026.023.043.026.026.01.054.017.082.019h.13l.145-.012a.271.271 0 00.085-.019.063.063 0 00.042-.027zm2.945-.772c.06-.203.088-.413.085-.624l.009.012a2.188 2.188 0 00-.082-.633 1.164 1.164 0 00-.248-.443 1 1 0 00-.406-.26 1.778 1.778 0 00-.564-.085c-.2-.003-.4.032-.588.103-.162.066-.306.17-.42.303-.12.132-.21.29-.261.46a2.03 2.03 0 00-.085.606c-.004.217.024.433.082.642.044.166.127.319.242.446.11.116.246.204.397.257.185.059.378.088.573.085.199.004.397-.03.584-.1.162-.068.307-.171.424-.303a1.29 1.29 0 00.258-.466zm-.54-.988c.018.13.024.26.019.39h.03a2.16 2.16 0 01-.048.392.91.91 0 01-.125.303.636.636 0 01-.575.29.798.798 0 01-.352-.07.549.549 0 01-.218-.196.948.948 0 01-.118-.303 2.42 2.42 0 010-.788.88.88 0 01.124-.303.663.663 0 01.228-.212.719.719 0 01.351-.078.745.745 0 01.345.072c.091.045.168.114.221.2a.887.887 0 01.119.303zm2.984 1.278a.926.926 0 00.064-.348l.009-.009a.855.855 0 00-.064-.336.66.66 0 00-.187-.249.748.748 0 00-.303-.154 1.556 1.556 0 00-.449-.052h-.466v-.696h1.187a.077.077 0 00.037 0 .076.076 0 00.027-.04.213.213 0 00.018-.07.983.983 0 000-.102.986.986 0 000-.106.177.177 0 00-.018-.07.067.067 0 00-.027-.04.082.082 0 00-.037 0h-1.587a.172.172 0 00-.121.046.176.176 0 00-.049.136v2.424a.188.188 0 00.049.145.194.194 0 00.127.043h.74c.175.005.351-.018.52-.067a.88.88 0 00.333-.182.7.7 0 00.197-.273zm-.542-.481c.02.053.03.11.03.166h.003c0 .06-.01.118-.033.173a.372.372 0 01-.248.206.828.828 0 01-.23.027h-.376v-.809h.366a.886.886 0 01.246.028.363.363 0 01.242.209zm3.23.966a.058.058 0 000-.036l-.004-2.648a.06.06 0 000-.04.109.109 0 00-.04-.026.438.438 0 00-.081-.015h-.318l-.046.027a.209.209 0 00-.033.04l-.975 1.453-.016.024c-.035.05-.071.103-.102.155l-.034.056a2.05 2.05 0 00-.06.101v-1.787a.063.063 0 000-.04.148.148 0 00-.046-.026.428.428 0 00-.084-.016h-.276a.522.522 0 00-.088.015.148.148 0 00-.046.028.064.064 0 000 .04v2.64a.07.07 0 000 .043.058.058 0 00.04.027l.082.018h.245a.22.22 0 00.07 0 .106.106 0 00.048-.027.262.262 0 00.036-.042l.976-1.454.06-.091.058-.091a.788.788 0 01.052-.085l.039-.07v1.791a.056.056 0 000 .036.081.081 0 00.045.027l.085.018h.276l.088-.018a.107.107 0 00.048-.027zm2.695 0a.056.056 0 000-.036l.012-2.536a.187.187 0 00-.042-.136.153.153 0 00-.118-.045h-1.376a.14.14 0 00-.115.045.263.263 0 00-.051.154c-.037.316-.073.588-.106.815a9.613 9.613 0 01-.1.579c-.028.13-.063.259-.106.385a1.031 1.031 0 01-.11.224.302.302 0 01-.25.136.075.075 0 00-.04 0 .082.082 0 00-.03.043.478.478 0 000 .087v.152a.993.993 0 000 .109c.003.023.01.046.02.066a.065.065 0 00.037.034.173.173 0 00.058 0c.102 0 .204-.012.303-.037a.606.606 0 00.248-.136.857.857 0 00.194-.27c.069-.138.121-.283.158-.433a5.74 5.74 0 00.136-.636c.042-.263.082-.536.124-.87h.606v2.279a.057.057 0 000 .036.081.081 0 00.045.027l.088.019h.276l.094-.028a.081.081 0 00.045-.027zm2.526-.527c.041-.118.062-.242.061-.367a.852.852 0 00-.09-.36.727.727 0 00-.2-.267.91.91 0 00-.322-.163 1.913 1.913 0 00-.509-.055h-.393v-.957a.06.06 0 000-.04.148.148 0 00-.046-.026.466.466 0 00-.088-.016h-.272a.469.469 0 00-.088.015.172.172 0 00-.049.028.061.061 0 000 .04v2.574a.209.209 0 000 .079.131.131 0 00.04.057.165.165 0 00.054.034.24.24 0 00.067 0h.709c.198.007.397-.019.587-.076a.99.99 0 00.349-.197.718.718 0 00.19-.303zm-.56-.515c.02.06.03.124.03.188h-.012c0 .053-.01.105-.027.154a.384.384 0 01-.24.245.847.847 0 01-.302.04h-.343v-.887h.334a1.14 1.14 0 01.303.03c.06.018.116.049.163.09a.368.368 0 01.094.14z" clip-rule="evenodd"/></svg>