<svg xmlns="http://www.w3.org/2000/svg" xmlns:xlink="http://www.w3.org/1999/xlink" width="80" height="80"><defs><circle id="askona__a" cx="40" cy="40" r="40"/></defs><g fill="none" fill-rule="evenodd"><use fill="#35B6B4" xlink:href="#askona__a"/><path fill="#FFF" d="M36.06 16.377c-.39 0-.525-.018-.653.003-8.95 1.443-16.786 9.045-18.879 18.311-2.074 9.184 1.66 19.359 8.946 24.484.672.473.878.169 1.211-.335 1.443-2.176 2.717-4.442 3.763-6.835.682-1.56 1.384-3.111 1.822-4.81-.607-.021-.888.369-1.251.581-4.649 2.71-9.25.418-9.76-4.883a13.473 13.473 0 01-.013-2.249c.363-5.004 2.532-9.32 5.244-13.406 2.648-3.99 5.898-7.47 9.57-10.86zM59.843 41.32h.049c0 1.017.003 2.034-.002 3.05-.005 1.073-.887.734-1.455.882-.715.186-.799-.25-.808-.813a191.25 191.25 0 00-.137-5.168c-.021-.497.216-1.37-.754-1.127-.77.193-2.115-.643-2.165 1.11-.05 1.766-.273 3.526-.333 5.292-.033.954-.41 1.18-1.319 1.112-.854-.063-1.15-.274-1.034-1.193.218-1.705.288-3.43.422-5.146.04-.516.232-1.249-.614-1.105-.745.128-1.887-1.031-2.237.644-.38 1.813-.921 3.593-1.285 5.409-.227 1.13-.926.799-1.598.69-.732-.118-.892-.49-.681-1.215.418-1.44.723-2.911 1.09-4.365.5-1.979.49-1.932-1.384-2.646-.665-.254-.797-.048-1.013.503a129.72 129.72 0 01-2.103 5.006c-.213.484-.208 1.352-1.205.844-.783-.398-1.484-.654-.91-1.816.838-1.7 1.475-3.497 2.245-5.232.253-.568.252-.913-.292-1.335-1.097-.851-1.856-1.994-2.52-3.213-.417-.762.068-.985.561-1.327.617-.429.797-.036 1.094.407 1.546 2.303 3.68 3.787 6.397 4.396 4.763 1.068 9.407.58 13.944-1.132 1.585-.598 1.616-.66 1-2.21-2.788-7.007-7.76-11.744-14.817-14.44-3.52-1.344-6.588-1.094-9.655 1.253C32.39 22.976 27.849 28.541 24.98 35.44c-.978 2.35-1.587 4.781-1.311 7.36.283 2.645 1.87 3.82 4.465 3.373 2.33-.402 4.237-1.561 5.757-3.296.63-.718 1.023-.256 1.58-.083.773.24.606.735.45 1.252-1.649 5.468-3.646 10.792-6.582 15.725-.85 1.429-.842 1.434.68 2.12 9.76 4.4 21.041 2.06 28.144-5.903 4.632-5.193 6.528-11.316 6.018-18.227-.068-.92-.286-1.353-1.24-.891-.988.48-2.52.126-3.003 1.057-.451.87-.096 2.157-.096 3.261v.133zM40.09 69.75c-16.132-.01-29.874-12.872-29.845-29.869.029-16.982 14.297-30.308 31.154-29.62 15.336.627 28.68 13.357 28.597 30.05-.081 16.155-13.509 29.435-29.906 29.44z"/></g></svg>