<svg xmlns="http://www.w3.org/2000/svg" enable-background="new 0 0 80 80" viewBox="0 0 80 80"><circle id="shewell__a" cx="40" cy="40" r="40" fill="#dd8b99"/><g transform="translate(8 20)"><g transform="translate(27.114 11.425)"><defs><filter id="shewell__Adobe_OpacityMaskFilter" width="11.7" height="19.1" x="-.2" y="1.6" filterUnits="userSpaceOnUse"><feColorMatrix values="1 0 0 0 0 0 1 0 0 0 0 0 1 0 0 0 0 0 1 0"/></filter></defs><mask id="shewell__e_2_" width="11.7" height="19.1" x="-.2" y="1.6" maskUnits="userSpaceOnUse"><g filter="url(#shewell__Adobe_OpacityMaskFilter)"><path id="shewell__d_2_" d="M9.3 2.1s.4.2.8 0c.3-.2.4-.3.5-.5 0 0 .6 1.8.7 3.1.2 1.5.3 2.6.2 4.6-.2 1.9-.9 3.8-1.5 5-.6 1.2-1.8 2.8-3 3.7-1.1.9-3 2.2-4.5 2.5-1.5.3-2.7.3-2.7.3s2.5-.3 4.6-1.6c2.1-1.3 3.1-2.5 4-4.1.9-1.6 2-3.7 2.1-6.5.1-2.2-.1-3.9-.6-5.1-.3-1-.6-1.4-.6-1.4" class="shewell__st2"/></g></mask><path fill="#fff" d="M9.3 2.1s.2.4.6 1.3c.5 1.2.7 2.9.6 5.1-.1 2.8-1.1 4.9-2.1 6.5-.9 1.6-1.9 2.8-4 4.1-2.1 1.3-4.6 1.6-4.6 1.6s1.2.1 2.7-.3C4 20.2 5.9 18.9 7 18c1.1-.9 2.3-2.6 3-3.7.6-1.2 1.4-3.1 1.5-5 .2-1.9 0-3.1-.2-4.6-.2-1.3-.7-3.1-.7-3.1-.1.2-.2.3-.5.5s-.8 0-.8 0" mask="url(#shewell__e_2_)"/></g><path id="shewell__b" d="M2.5 17.3v-.9c0-.6.1-1.3.3-2 .8-3.7 3.7-6.9 8.4-9.1 4.6-2.3 11-2.8 19.2-2.4 0 0-7.7 0-13.4 2C11.1 7 6.7 9.8 5.6 14c-1.1 4.1.7 9.2 4.6 12.8 4.1 3.8 10.5 7.8 16.7 9.3 8.7 2.3 15.2 3 20 2.7 0 0-10.3 1.1-20.9-1.8-10-2.7-17.3-8.2-19.9-11.2-2.1-2.3-3.5-5.4-3.6-8.5z" class="shewell__st2"/><path id="shewell__c" d="M59.7 23.9c0 .9-.1 1.7-.3 2.5-2.3 8.3-15.9 11.8-30.3 7.8C18 31.1 9.7 24.5 7.4 17.9c2.9 5.8 10.8 11.2 20.8 13.5 13.8 3.2 26.5-.7 28.3-8.6.9-4.1-1.2-8.5-5.5-12.2 5.4 3.8 8.7 8.7 8.7 13.3z" class="shewell__st2"/></g></svg>