<svg xmlns="http://www.w3.org/2000/svg" xmlns:xlink="http://www.w3.org/1999/xlink" width="60" height="60"><defs><path id="rennis__a" d="M29.703 59.405c16.404 0 29.702-13.298 29.702-29.702C59.405 13.298 46.107 0 29.703 0 13.298 0 0 13.298 0 29.703c0 16.404 13.298 29.702 29.703 29.702z"/><path id="rennis__c" d="M14.129 32.624V.13H.166v32.493h13.963z"/><path id="rennis__e" d="M10.55.027H.059v35.23h10.49V.027z"/><path id="rennis__g" d="M14.129 15.258V.251H.176v15.007z"/></defs><g fill="none" fill-rule="evenodd"><mask id="rennis__b" fill="#fff"><use xlink:href="#rennis__a"/></mask><use fill="#D73B92" xlink:href="#rennis__a"/><g mask="url(#rennis__b)"><g transform="translate(30.36 13.867)"><mask id="rennis__d" fill="#fff"><use xlink:href="#rennis__c"/></mask><path fill="#FFF" d="M.186 26.8c0 1.71.014 3.421-.01 5.13-.006.481.073.701.645.693.54-.007.615-.21.605-.664-.028-1.162.013-2.325-.02-3.486-.013-.465.132-.588.595-.582 1.803.026 3.606.021 5.409.008 3.132-.022 5.814-2.127 6.51-5.134.37-1.6.124-3.233.176-4.85.013-.401-.324-.282-.54-.283-3.049-.006-6.098-.023-9.147.002-2.464.021-4.214 1.799-4.222 4.233C.18 23.511.186 25.156.186 26.8M14.098.833c.01-.532-.109-.714-.685-.701-1.757.04-3.515.013-5.273.015C4.122.15.57 3.275.277 7.212c-.223 2.994-.034 6.003-.08 9.004-.007.485.312.379.58.379 2.715.003 5.43.003 8.144.001 2.983-.002 5.16-2.156 5.164-5.111.002-1.732 0-3.463 0-5.195 0-1.82-.021-3.639.013-5.457z" mask="url(#rennis__d)"/></g><path fill="#FFF" d="M13 19.42c.907.118 1.818.034 2.727.05 2.422.046 4.85-.126 7.265.081 2.179.187 3.856 2 3.898 4.14.042 2.103.003 4.206.021 6.309.003.383-.13.476-.498.474-2.268-.015-4.537.026-6.804-.017-2.866-.054-5.57-2.219-6.34-4.99-.075-.265-.044-.57-.269-.785V19.42zm0 12.103c3.356-.003 6.714-.052 10.069.01 2.069.037 3.79 1.774 3.823 3.836.057 3.548.013 7.096.034 10.644.003.48-.251.47-.584.458-.328-.012-.665.077-.65-.466.033-1.204-.022-2.41.024-3.614.02-.543-.172-.642-.672-.633-1.667.028-3.335.01-5.002.01-3.479 0-6.004-1.918-6.898-5.24-.028-.103-.014-.222-.144-.27v-4.735z"/><g transform="translate(27.956 11.236)"><mask id="rennis__f" fill="#fff"><use xlink:href="#rennis__e"/></mask><path fill="#FFF" d="M10.55.027c-.216.444.19 1.083-.215 1.351-.335.221-.908.069-1.368.134-3.933.558-7.535 4.164-7.444 8.852.05 2.584.014 5.17.008 7.756-.011 5.498-.048 10.997-.024 16.495.004.944-.648.54-1.036.623-.533.115-.396-.333-.396-.604-.006-8.172-.017-16.345 0-24.517.01-4.984 3.519-9.04 8.547-9.942.12-.022.278.032.325-.148h1.603z" mask="url(#rennis__f)"/></g><g transform="translate(30.36 31.232)"><mask id="rennis__h" fill="#fff"><use xlink:href="#rennis__g"/></mask><path fill="#FFF" d="M.186 9.435c0-1.644-.005-3.289 0-4.933C.197 2.068 1.947.29 4.41.269 7.46.243 10.507.261 13.557.267c.215 0 .552-.119.54.283-.053 1.617.193 3.25-.177 4.85-.696 3.006-3.378 5.111-6.51 5.134a256.65 256.65 0 01-5.409-.008c-.463-.007-.608.117-.595.582.033 1.16-.008 2.324.02 3.486.01.454-.066.657-.605.664-.572.008-.651-.212-.644-.693.023-1.71.009-3.42.009-5.13" mask="url(#rennis__h)"/></g></g></g></svg>