<svg xmlns="http://www.w3.org/2000/svg" xmlns:xlink="http://www.w3.org/1999/xlink" width="80" height="80"><defs><circle id="modi__a" cx="40" cy="40" r="40"/></defs><g fill="none" fill-rule="evenodd"><use fill="#262624" xlink:href="#modi__a"/><g fill="#FFF" fill-rule="nonzero"><path d="M65.378 30.166a2.592 2.592 0 002.596-2.583A2.594 2.594 0 0065.378 25a2.594 2.594 0 00-2.598 2.583 2.593 2.593 0 002.598 2.583z"/><path d="M65.326 30.189a2.592 2.592 0 002.595-2.584 2.593 2.593 0 00-2.595-2.583 2.595 2.595 0 00-2.599 2.583 2.593 2.593 0 002.599 2.584zm0 2.151a2.04 2.04 0 00-2.045 2.034v7.48c0 1.126.917 2.034 2.045 2.034a2.038 2.038 0 002.044-2.033v-7.482a2.04 2.04 0 00-2.044-2.034v.001zm-10.8 7.485a2.594 2.594 0 01-2.595-2.584 2.595 2.595 0 012.596-2.585 2.596 2.596 0 012.597 2.585 2.596 2.596 0 01-2.598 2.584zM59.169 25c-1.129 0-2.044.91-2.044 2.032v4.08a6.69 6.69 0 00-2.598-.52c-3.686 0-6.686 2.98-6.686 6.649 0 3.663 3 6.648 6.687 6.648 3.687 0 6.687-2.985 6.687-6.648V27.033A2.04 2.04 0 0059.168 25zM39.82 39.825a2.595 2.595 0 01-2.597-2.584 2.595 2.595 0 012.597-2.585 2.596 2.596 0 012.599 2.585 2.596 2.596 0 01-2.599 2.584zm0-9.232c-3.687 0-6.687 2.978-6.687 6.648 0 3.663 3 6.648 6.687 6.648 3.689 0 6.687-2.985 6.687-6.648 0-3.67-2.999-6.648-6.687-6.648zm-14.485 0a6.468 6.468 0 00-4.43 1.747 6.468 6.468 0 00-4.43-1.747c-3.57 0-6.475 2.886-6.475 6.436v4.826a2.038 2.038 0 002.044 2.034 2.039 2.039 0 002.045-2.034V37.03c0-1.31 1.07-2.373 2.386-2.373a2.381 2.381 0 012.385 2.373v4.826a2.038 2.038 0 002.044 2.034 2.04 2.04 0 002.045-2.034V37.03c0-1.31 1.07-2.373 2.386-2.373a2.383 2.383 0 012.386 2.373v4.826a2.038 2.038 0 002.044 2.034 2.04 2.04 0 002.046-2.034V37.03c0-3.55-2.906-6.436-6.476-6.436z"/><path d="M65.378 30.166a2.592 2.592 0 002.596-2.583A2.594 2.594 0 0065.378 25a2.594 2.594 0 00-2.598 2.583 2.593 2.593 0 002.598 2.583zM20.629 49.36v.724h-1.832v1.412h1.687v.723h-1.687v2.287h-.677V49.36zm6.204 0v3.09c0 .31-.048.596-.145.86-.09.25-.227.482-.407.68a1.792 1.792 0 01-.641.444 2.183 2.183 0 01-.847.158 2.16 2.16 0 01-.83-.154 1.836 1.836 0 01-.64-.434 1.959 1.959 0 01-.414-.673 2.479 2.479 0 01-.149-.876V49.36h.678v3.103c0 .215.032.409.097.581.12.333.379.596.71.72.168.064.353.097.555.097.192.003.383-.031.563-.1a1.191 1.191 0 00.698-.731c.063-.173.094-.363.094-.574V49.36h.678zm3.042 0l2.761 4.043V49.36h.678v5.146h-.736l-2.761-4.021v4.021h-.677V49.36zm10.578 2.384c.084.092.156.19.216.293a1.324 1.324 0 01.19.699c.001.2-.035.384-.107.552a1.25 1.25 0 01-.303.43 1.393 1.393 0 01-.465.28 1.718 1.718 0 01-.601.1c-.176 0-.351-.026-.52-.08a2.025 2.025 0 01-.461-.207 1.809 1.809 0 01-.357-.283.936.936 0 01-.205-.304l.209-.689c.159.249.362.45.609.602.247.153.508.23.782.23.246 0 .427-.056.544-.168a.583.583 0 00.177-.441.69.69 0 00-.123-.387 1.408 1.408 0 00-.303-.33 115.69 115.69 0 00-.749-.624 4.863 4.863 0 01-.469-.43 2.457 2.457 0 01-.37-.49 1.081 1.081 0 01-.134-.535c0-.181.032-.345.097-.49a1.06 1.06 0 01.274-.373c.118-.104.259-.182.422-.237a1.661 1.661 0 011.323.129c.113.065.214.14.302.227.09.085.16.177.213.272l-.151.674a1.982 1.982 0 00-.523-.459 1.225 1.225 0 00-.652-.194.79.79 0 00-.43.111c-.117.075-.176.195-.176.362a.557.557 0 00.137.355c.091.112.183.205.274.276.178.143.326.26.443.351.118.09.215.167.289.23l.183.15c.048.039.092.077.13.115.106.095.2.19.285.283zm3.284-2.384v2.136h2.805V49.36h.677v5.146h-.677v-2.287h-2.805v2.287h-.677V49.36zm7.541.295a1.815 1.815 0 00-1.005 1.014 2.002 2.002 0 00-.148.777c0 .282.049.541.147.778.184.459.547.821 1.006 1.003.231.093.48.14.75.14.264 0 .512-.047.742-.14.23-.092.43-.225.598-.394a1.89 1.89 0 00.4-.609 2 2 0 00.148-.785 2.001 2.001 0 00-.147-.777 1.8 1.8 0 00-.999-1.007 1.922 1.922 0 00-.742-.144 1.937 1.937 0 00-.75.144zm1.73-.674c.312.133.586.32.822.559a2.697 2.697 0 01.771 1.899c.004.363-.067.723-.209 1.057a2.726 2.726 0 01-.562.842 2.566 2.566 0 01-.818.56 2.45 2.45 0 01-.977.2 2.486 2.486 0 01-.998-.204 2.615 2.615 0 01-1.388-1.398 2.621 2.621 0 01-.209-1.05 2.673 2.673 0 01.772-1.903c.235-.236.514-.426.82-.559.312-.136.65-.205.99-.204.345 0 .674.067.987.2zm4.65 2.78h.88a.811.811 0 00.59-.233.811.811 0 00.238-.605.876.876 0 00-.061-.326.8.8 0 00-.437-.448.835.835 0 00-.33-.065h-.88v1.677zm1.409-2.29a1.48 1.48 0 01.858.817c.084.193.126.407.126.64 0 .23-.04.44-.119.632-.08.191-.191.354-.336.49-.149.14-.324.248-.515.32a1.81 1.81 0 01-.652.114h-.772v2.022h-.677V49.36h1.442c.23 0 .445.037.645.11z"/><path d="M20.629 49.36v.724h-1.832v1.412h1.687v.723h-1.687v2.287h-.677V49.36zm6.204 0v3.09c0 .31-.048.596-.145.86-.09.25-.227.482-.407.68a1.792 1.792 0 01-.641.444 2.183 2.183 0 01-.847.158 2.16 2.16 0 01-.83-.154 1.836 1.836 0 01-.64-.434 1.959 1.959 0 01-.414-.673 2.479 2.479 0 01-.149-.876V49.36h.678v3.103c0 .215.032.409.097.581.12.333.379.596.71.72.168.064.353.097.555.097.192.003.383-.031.563-.1a1.191 1.191 0 00.698-.731c.063-.173.094-.363.094-.574V49.36h.678zm3.042 0l2.761 4.043V49.36h.678v5.146h-.736l-2.761-4.021v4.021h-.677V49.36zm10.578 2.384c.084.092.156.19.216.293a1.324 1.324 0 01.19.699c.001.2-.035.384-.107.552a1.25 1.25 0 01-.303.43 1.393 1.393 0 01-.465.28 1.718 1.718 0 01-.601.1c-.176 0-.351-.026-.52-.08a2.025 2.025 0 01-.461-.207 1.809 1.809 0 01-.357-.283.936.936 0 01-.205-.304l.209-.689c.159.249.362.45.609.602.247.153.508.23.782.23.246 0 .427-.056.544-.168a.583.583 0 00.177-.441.69.69 0 00-.123-.387 1.408 1.408 0 00-.303-.33 115.69 115.69 0 00-.749-.624 4.863 4.863 0 01-.469-.43 2.457 2.457 0 01-.37-.49 1.081 1.081 0 01-.134-.535c0-.181.032-.345.097-.49a1.06 1.06 0 01.274-.373c.118-.104.259-.182.422-.237a1.661 1.661 0 011.323.129c.113.065.214.14.302.227.09.085.16.177.213.272l-.151.674a1.982 1.982 0 00-.523-.459 1.225 1.225 0 00-.652-.194.79.79 0 00-.43.111c-.117.075-.176.195-.176.362a.557.557 0 00.137.355c.091.112.183.205.274.276.178.143.326.26.443.351.118.09.215.167.289.23l.183.15c.048.039.092.077.13.115.106.095.2.19.285.283zm3.284-2.384v2.136h2.805V49.36h.677v5.146h-.677v-2.287h-2.805v2.287h-.677V49.36zm7.541.295a1.815 1.815 0 00-1.005 1.014 2.002 2.002 0 00-.148.777c0 .282.049.541.147.778.184.459.547.821 1.006 1.003.231.093.48.14.75.14.264 0 .512-.047.742-.14.23-.092.43-.225.598-.394a1.89 1.89 0 00.4-.609 2 2 0 00.148-.785 2.001 2.001 0 00-.147-.777 1.8 1.8 0 00-.999-1.007 1.922 1.922 0 00-.742-.144 1.937 1.937 0 00-.75.144zm1.73-.674c.312.133.586.32.822.559a2.697 2.697 0 01.771 1.899c.004.363-.067.723-.209 1.057a2.726 2.726 0 01-.562.842 2.566 2.566 0 01-.818.56 2.45 2.45 0 01-.977.2 2.486 2.486 0 01-.998-.204 2.615 2.615 0 01-1.388-1.398 2.621 2.621 0 01-.209-1.05 2.673 2.673 0 01.772-1.903c.235-.236.514-.426.82-.559.312-.136.65-.205.99-.204.345 0 .674.067.987.2zm4.65 2.78h.88a.811.811 0 00.59-.233.811.811 0 00.238-.605.876.876 0 00-.061-.326.8.8 0 00-.437-.448.835.835 0 00-.33-.065h-.88v1.677zm1.409-2.29a1.48 1.48 0 01.858.817c.084.193.126.407.126.64 0 .23-.04.44-.119.632-.08.191-.191.354-.336.49-.149.14-.324.248-.515.32a1.81 1.81 0 01-.652.114h-.772v2.022h-.677V49.36h1.442c.23 0 .445.037.645.11z"/></g></g></svg>