<svg xmlns="http://www.w3.org/2000/svg" xmlns:xlink="http://www.w3.org/1999/xlink" width="60" height="60"><defs><path id="linkintel__a" d="M29.703 59.405c16.404 0 29.702-13.298 29.702-29.702C59.405 13.298 46.107 0 29.703 0 13.298 0 0 13.298 0 29.703c0 16.404 13.298 29.702 29.703 29.702z"/></defs><g fill="none" fill-rule="evenodd"><mask id="linkintel__b" fill="#fff"><use xlink:href="#linkintel__a"/></mask><use fill="#009DD9" xlink:href="#linkintel__a"/><path fill="#FFF" d="M13.704 44.617h1.56v.853H12v-4.132h1.704v3.279zm19.961-16.91c-5.703 5.54-12.06 9.743-21.213 11.184l-.255-.032L45 7.4v.417c-2.18 9.508-5.628 14.353-11.335 19.89zM17.032 38.962c8.172-1.998 12.92-5.69 18.186-10.67 5.19-4.913 7.174-8.538 9.517-15.972l-.14 9.843c-.782 4.959-2.902 8.597-5.47 11.016-2.91 2.733-8.168 5.23-14.492 5.851l-7.6-.068zm27.703-12.668l-.047.849-.025 11.82-13.093.02-.968-.02c3.62-.621 7.005-2.323 9.588-4.82 2.335-2.259 3.906-4.96 4.545-7.85zM12 40.493h33v-.703H12v.703zm3.795 4.977h1.539v-4.132h-1.539v4.132zm2.063 0v-4.132h1.703v.521l.9 1.591v-2.112h1.704v4.132h-1.703v-.211l-.9-1.591v1.802h-1.704zm4.842-.004v-4.128h1.704v1.053l1.069-1.053h1.725l-2.127 1.998 2.127 2.13H25.02l-.617-.867v.867H22.7zm4.588 0h1.843v-4.128h-1.843v4.128zm2.36 0v-4.128h1.707v.514l.897 1.591v-2.105h9.34v.846h-1.524v.77h1.489v.85h-1.49v.813h1.525v.849h-3.371v-3.282h-1.328v3.282h-1.847v-3.282H33.96v3.282h-1.707v-.157l-.897-1.591v1.748h-1.707zm12.802 0h-.363v-4.128h1.848v3.279H45v.849h-2.55zM12 47h33v-.703H12V47z" mask="url(#linkintel__b)"/></g></svg>