<svg xmlns="http://www.w3.org/2000/svg" width="60" height="60"><g fill="none" fill-rule="evenodd"><path fill="#5C5242" d="M29.703 59.405c16.404 0 29.702-13.298 29.702-29.702C59.405 13.298 46.107 0 29.703 0 13.298 0 0 13.298 0 29.703c0 16.404 13.298 29.702 29.703 29.702z"/><path fill="#FFF" d="M29.265 49.948C18.071 49.946 8.996 40.779 9 29.471 9.003 18.16 18.082 8.996 29.275 9c11.197.002 20.272 9.17 20.27 20.48-.004 11.31-9.082 20.471-20.28 20.468zm10.802-32.266c-.06-1.886-.693-2.88-3-4.95 0 0-.03.383.03.603 0 0-.722-.831-2.402-1.241 0 0 .188-.751.238-1.202.033-.348-.232-.712-.81-.574-.617.141-2.793.958-3.555 1.148-.763.188-5.759 1.93-8.778 4.84 0 0 .644-1.813 2.12-3.685a16.5 16.5 0 00-3.138 1.22c-1.613 2.201-3.635 6.534-3.636 10.18 0 0-.97-2.995-.162-7.597-1.052.94-1.96 1.95-2.763 3.102-.19 2.588-.209 6.024 1.877 10.817 0 0-2.104-1.534-4.027-6.687a17.901 17.901 0 00-1.06 5.247c1.711 3.164 4.283 6.325 9.45 9.157 0 0-4.242-.628-9.032-4.266a17.773 17.773 0 002.245 5.49c2.608 1.146 6.646 2.627 12.435 2.296 0 0-3.131 1.785-9.538 1.255 0 0 1.111 1.391 4.057 2.817 2.67 1.286 6.13.482 7.295-.29 1.387-.93 2.901-3.206 2.172-6.059 0 0-.566 1.108-1.947 1.536 0 0 1.094-.864 1.094-2.443 0-1.582-1.288-2.646-2.895-2.782-1.28-.108-3.416.051-4.079.051-.663 0-1.563 0-2.184-.77 0 0 .899-.03 1.85-.24.768-.163 2.376-.766 3.324-.719 0 0-.334-.44-1.096-.429-.468.004-.569.158-.9.247-.44.108-1.241.143-1.703-.752 0 0 .664.52 1.228.36.481-.13.525-.334.71-.476.197-.148.545-.27.874-.27.332 0 .65.075.934.32.288.234.855.19.52-.149-.33-.331-.804-.664-1.513-.67-1.21-.015-3.369.24-4.13.627-.528.265-.937.609-1.132.85-.067.086-.212.09-.206-.062.037-.747.342-2.756 1.27-3.614.97-.898 3.49-1.54 4.481-1.728 0 0-.248-.584.04-.96.435-.544 1.843-1.563 10.192-1.561 0 0-.456.363-.651.653 0 0 3.257.181 5.08 1.104.282.139.856.19 1.042-1.102l-.52-.336s.047-.194.096-.43c.05-.242 0-.291-.189-.194-.187.097-.238.193-.238.193s-.472.19-.523-.094c-.048-.289-.572-1.01-1.612-1.153 0 0 .525-.72 1.722-.553 0 0 .098.349.348.25.257-.097.602-.32.633-.03.036.29.157.762.821.03 0 0 .669.352 1.268.128.6-.225 1.03-.61 1.168-1.596.037-.221.037-.29.196-.478.154-.191.278-.464-.007-.702-.376-.32-1.547-.988-2.022-1.248-.475-.257-1.295-.541-1.362-2.43zm-11.102 3.32c.322-.127.413.157.352.354-.304.913-.73 2.267-.57 2.876.154.602 1.64.954 1.64.954-.28.03-1.888.108-2.279.195-.385.087-1.008.155-.88-.606.152-.927.628-2.59.628-2.59-.439.128-1.357.57-1.673.766-.318.193-.407.154-.318-.065 1.286-3.013 3.99-6.228 5.631-7.57l.032.097c-2.15 2.49-3.545 5.943-3.545 5.943.228-.134.67-.229.982-.353zm4.742-9.25c-.385.46-.873 1.264-.94 1.55-.065.275-.034.35.14.419.175.073.175.25-.074.281a7.65 7.65 0 00-1.338.318c-.436.156-.501-.109-.401-.283.837-1.4 2.053-2.144 2.337-2.32.276-.175.373-.088.276.034zm5.42 6.734c-.066.422-.278.453-.594.282-.308-.18-.416-.248-.588-.282-.176-.034-.349.033-.208.282.14.248.38.948.275 1.44 0 0-.775-1.506-1.702-2.25-.569-.462.502-.34.731-.317.73.075.804.173 1.04.251.233.06.735.188.914-1.2.015-.067.094-.046.1.01.077.667.094 1.42.033 1.784zm-2.084 18.613c-.466-.57-1.154-1.372-1.154-1.372.669.39 1.927.581 1.927.581-.34-.291-1.131-1.249-1.453-1.63-.878-1.07-2.403-2.263-3.542-2.78-2.229-1.02-4.552-1.158-4.87-1.218-.317-.058-.98.06-.566-.572.41-.637 2.813-2.523 2.813-2.523-.505-.001-2.721.186-3.384.285-.663.092-.821-.127-.85-.58 0 0-1.342 1.276-.704 1.92.1.097.385.13.731-.031.347-.157 1.049-.388 1.298-.41 0 0-.568.89-.696 1.273-.126.388-.158.58.44.765.6.192 3.637 1.152 5.506 2.431 1.863 1.28 3.792 2.91 5.217 5.907 1.422 3.008.644 5.29.417 5.707a17.455 17.455 0 002.82-2.264l-.018.013c-.743-2.513-2.795-4.116-3.932-5.502zm6.712 1.976a17.031 17.031 0 001.382-2.832v-.007c-1.83-1.502-5.036-4.178-8.964-5.103 0 0 5.593 2.258 7.582 7.942zm-13.05 8.473a18.783 18.783 0 003.439-.759l.012-.009c.602-1.405 1.26-4.756.561-7.345 0 0 .132 6.1-4.012 8.113zM44.02 27.524c-1.04.285-2.623.414-3.957.223 0 0 3.076 1.337 6.126 4.267v-.028c.088-.711.132-1.432.125-2.164a1.217 1.217 0 000-.237c-.535-.222-3.845-1.17-3.845-1.17 1.114-.062 1.551-.89 1.551-.89z"/></g></svg>