<svg xmlns="http://www.w3.org/2000/svg" viewBox="0 0 80 80"><circle cx="40" cy="40" r="40" fill="#f38222"/><path fill="#fff" d="M41.2 66.4c-4.4 0-7.8-1.7-10.5-4.9-2.3-3.5-3.8-7.3-3.8-12.2 0-4.9 1.2-8.7 3.8-12.2 2.3-3.2 6.1-4.9 10.5-4.9 4.6 0 8.1 1.7 10.5 5.2 2.3 3.5 3.5 7.3 3.5 11.9 0 4.9-1.2 8.7-3.8 12.2-2.1 3.2-5.6 4.9-10.2 4.9zm.3-27.9c-4.1 0-6.1 3.5-6.1 10.7s2 10.7 6.1 10.7 5.8-3.5 5.8-10.7c0-6.9-2.1-10.7-5.8-10.7zM42.6 22l10.2 6.7 4.1-6.1L42.3 13H42l-9 6.7v-4.4h-7.5v10.2l-10.7 7.8h12.8l15-11.3z"/></svg>