<svg xmlns="http://www.w3.org/2000/svg" width="41" height="40" fill="none"><path fill="#26A9E0" fill-rule="evenodd" d="M20 40c11.046 0 20-8.954 20-20S31.046 0 20 0 0 8.954 0 20s8.954 20 20 20z" clip-rule="evenodd"/><path fill="#fff" d="M21.45 19.142c.2 0 .567-.063.728-.095v1.399h.743v-3.39h-.743v1.39c-.109.02-.465.076-.67.076-.382 0-.53-.146-.53-.557v-.91h-.742v.9c0 .872.453 1.187 1.215 1.187zm-10.4-2.086l-.613 6.953h1.828l-.37-6.953h-.844zM5 24.01h4.597l.614-6.953H5v6.953zm28.867-5.915h.014v2.352h.742v-3.39h-.837l-1.276 2.347h-.014v-2.348h-.743v3.39h.838l1.276-2.351zm-.629-1.307c.482 0 .82-.335.86-.787h-.462a.39.39 0 01-.398.315.388.388 0 01-.398-.315h-.463a.835.835 0 00.861.787zm-4.11 3.659l.276-.758h1.262l.267.758h.78l-1.29-3.394h-.766l-1.29 3.394h.76zm.91-2.56l.447 1.26h-.9l.452-1.26zm-16.099 6.123h.793v-6.953h-1.163l.37 6.953zm11.557-3.563h.743v-2.757h1.023v2.757h.747v-2.757h1.122v-.634H25.4l-1.276 2.348h-.014v-2.348h-.743v3.39h.838l1.275-2.35h.015v2.35zm-1.818.1c-1.015 0-1.68.703-1.68 1.78 0 1.061.671 1.77 1.675 1.77.995 0 1.666-.713 1.666-1.77 0-1.062-.67-1.78-1.661-1.78zm0 2.937c-.576-.005-.928-.443-.928-1.172 0-.704.357-1.156.92-1.156.565 0 .917.443.917 1.156 0 .724-.347 1.172-.91 1.172zm6.295-2.937c-1.014 0-1.68.703-1.68 1.78 0 1.061.671 1.77 1.676 1.77.995 0 1.666-.713 1.666-1.77 0-1.062-.671-1.78-1.662-1.78zm0 2.937c-.575-.005-.928-.443-.928-1.172 0-.704.358-1.156.92-1.156.566 0 .918.443.918 1.156 0 .724-.348 1.172-.91 1.172zm-3.016-2.857h-1.461v3.39h.738v-1.22h.761c.681 0 1.205-.342 1.205-1.08 0-.747-.51-1.09-1.243-1.09zm-.062 1.585h-.661v-.976h.666c.33 0 .576.13.576.49 0 .377-.247.486-.581.486zm-9.726-5.05l1.065 6.872.826-.129-1.064-6.87-.827.128zm-2.02 6.848h1.627v-6.953h-1.628v6.953zm7.03-3.383h-1.943v3.39h.743V21.26h1.2v-.634zm12.444 2.757v-2.757H32.21v.515c0 1-.143 1.708-.543 2.242h-.257v1.504h.719v-.87h2.152v.87H35v-1.504h-.377zm-.742 0h-1.385c.299-.548.451-1.166.451-2.095v-.058h.934v2.153z"/></svg>