<svg xmlns="http://www.w3.org/2000/svg" width="41" height="40" fill="none"><circle cx="20.5" cy="20" r="20" fill="#F8104D"/><path fill="#fff" fill-rule="evenodd" d="M10.5 21.268v-3.082l2.722 1.541-2.722 1.54zm0 3.843V22.03l2.722 1.54-2.722 1.541zm.16-3.462l2.721-1.54v3.08l-2.722-1.54zm19.68-1.922l-2.721 1.54v-3.08l2.722 1.54zm-2.721 5.384V22.03l2.722 1.54-2.722 1.541zm.158-3.462l2.723-1.54v3.08l-2.722-1.54zm-7.043.304h3.143l-1.571 2.668-1.572-2.668zm-3.92 0h3.142l-1.57 2.668-1.572-2.668zm1.96 2.824l1.572-2.669 1.571 2.669h-3.143zm5.47-3.39l-1.571-2.668h3.143l-1.572 2.668zm-1.96-2.513l1.572 2.67h-3.143l1.571-2.67zm-5.837 2.513l-1.572-2.668h3.143l-1.571 2.668zm1.96-2.513l1.572 2.67h-3.144l1.572-2.67zM10.5 14l2.71 1.534v.013l-2.71 1.534V14zm17.119 0l2.71 1.534v.014l-2.71 1.533V14z" clip-rule="evenodd"/></svg>