<svg xmlns="http://www.w3.org/2000/svg" xmlns:xlink="http://www.w3.org/1999/xlink" width="60" height="60"><defs><path id="mig-credit__a" d="M29.703 59.405c16.404 0 29.702-13.298 29.702-29.702C59.405 13.298 46.107 0 29.703 0 13.298 0 0 13.298 0 29.703c0 16.404 13.298 29.702 29.703 29.702z"/><path id="mig-credit__c" d="M38.798 17.166V.011H.02v17.155h38.778z"/></defs><g fill="none" fill-rule="evenodd"><mask id="mig-credit__b" fill="#fff"><use xlink:href="#mig-credit__a"/></mask><use fill="#00A738" xlink:href="#mig-credit__a"/><g mask="url(#mig-credit__b)"><path d="M10 18h106.906v24H10z"/></g><path fill="#FFF" d="M12.592 37.935l-1.158.424c.236.282.407.51.601.714 3.773 3.962 8.432 6.326 13.727 7.487 5.991 1.314 11.848.945 17.45-1.695 1.363-.642 2.616-1.516 3.739-2.177-9.345 10.488-29.048 9.49-36.69-3.639l-.92.703C8.509 37.279 8.236 34.746 8 32.19c1.155 2.203 2.784 4.016 4.592 5.744"/><g transform="translate(13.208 10.126)"><mask id="mig-credit__d" fill="#fff"><use xlink:href="#mig-credit__c"/></mask><path fill="#FFF" d="M.02 6.918a21.414 21.414 0 015.895-4.36C9.45.778 13.215-.08 17.15.017c5.653.14 10.747 1.91 15.06 5.66 1.556 1.354 2.91 2.895 3.943 4.69.242.42.46.453.78.113.105-.112.24-.195.556-.443l1.309 7.128-4.31-5.368.844-.385C28.778 2.883 11.209-1.45.02 6.918" mask="url(#mig-credit__d)"/></g><path fill="#FFF" d="M17.345 26.377c.246-.368.5-.731.737-1.105.758-1.192 1.502-2.393 2.274-3.576.108-.166.335-.342.518-.354.66-.043 1.328-.057 1.983.012.15.015.37.402.371.62.01 1.96-.024 3.92-.04 5.88-.007.843-.015 1.687.003 2.53.009.416-.163.576-.567.565a22.661 22.661 0 00-1.576.002c-.474.02-.572-.205-.545-.631.089-1.41.153-2.822.213-4.233a1.178 1.178 0 00-.222-.735c-.571.889-1.144 1.777-1.713 2.666-.541.844-1.104 1.676-1.608 2.542-.237.407-.582.47-.921.354-.213-.072-.431-.357-.497-.59-.38-1.334-.711-2.683-1.067-4.024a2.56 2.56 0 00-.438-.928c-.178.467-.371.929-.533 1.401a185.55 185.55 0 00-1.206 3.628c-.12.375-.288.573-.72.552-.677-.032-1.357-.008-2.136-.008.203-.559.37-1.022.541-1.483.935-2.52 1.88-5.035 2.798-7.56.157-.433.369-.626.841-.585.656.057 1.501-.178 1.922.15.418.327.418 1.194.588 1.827.27 1.009.528 2.02.79 3.031l.21.052m10.658.197c.827-.799 1.658-1.595 2.481-2.397.784-.764 1.586-1.512 2.332-2.312.396-.424.814-.604 1.384-.548.423.042.854.008 1.369.008-.094.714-.159 1.362-.267 2.002-.395 2.334-.814 4.663-1.201 6.998-.078.47-.262.663-.759.63-.654-.043-1.313-.01-2.04-.01.327-1.885.64-3.677.952-5.469l-.155-.073c-.132.101-.28.188-.395.306-1.452 1.483-2.921 2.95-4.337 4.467-.522.56-1.052.895-1.839.777-.352-.053-.718-.009-1.18-.009.2-1.149.379-2.215.572-3.278.342-1.882.715-3.76 1.027-5.647.083-.508.256-.735.78-.698a7.25 7.25 0 001.232-.004c.593-.06.715.216.622.727-.25 1.366-.49 2.735-.73 4.103-.019.104-.003.214-.003.321l.155.106m7.785 4.37c.124-.747.226-1.392.34-2.035.395-2.22.808-4.436 1.18-6.659.108-.642.296-.97 1.061-.94 1.756.068 3.517.029 5.276.013.488-.004.64.126.529.645-.268 1.244-.242 1.249-1.541 1.247-.754-.001-1.508.01-2.262-.007-.418-.009-.6.148-.67.578-.344 2.133-.737 4.258-1.077 6.39-.091.572-.282.845-.913.781-.604-.06-1.22-.013-1.923-.013m-1.448 6.498c.411 0 .948.015 1.483-.012.116-.006.302-.145.324-.25.192-.928.354-1.862.547-2.918-.393 0-1.251.059-1.494.033m2.404 3.104l.696.083-.375 2.189h-1.288l.14-1.138h-3.683l-.25 1.134h-1.29c.123-.669.23-1.292.357-1.912.023-.111.107-.274.195-.298 1.032-.282 1.28-1.145 1.496-2.014.137-.55.19-1.121.32-1.674.038-.166.205-.429.317-.431 1.315-.03 2.63-.02 4.02-.02l-.655 4.081m7.144-4.021c-.261 1.597-.505 3.168-.794 4.73-.028.156-.314.33-.508.375-.28.064-.585.017-1.002.017l.508-3.042c-.297.279-.468.428-.626.59-.623.635-1.28 1.241-1.851 1.92-.491.583-1.05.61-1.763.45.29-1.613.563-3.2.882-4.777.03-.145.35-.288.555-.328.255-.05.531.01.869.024l-.391 2.604.131.098.879-.857c.44-.43.913-.833 1.31-1.3.473-.554 1.028-.697 1.801-.504M20.95 35.74l2.033 2.76c-.644 0-1.14.034-1.629-.016-.185-.02-.395-.197-.516-.36-.445-.596-.857-1.217-1.374-1.963l-.43 2.301h-1.45c.292-1.641.567-3.248.884-4.847.025-.13.319-.26.506-.296.26-.05.536-.012.912-.012l-.27 1.926.12.11c.34-.33.705-.635 1.015-.99.716-.824 1.532-1.344 2.714-.967L20.95 35.74m4.25-.098c.984.095 1.454-.133 1.488-.717.029-.493-.326-.595-.717-.623-.658-.047-.74.094-.772 1.34m-.574 2.818h-1.467c.302-1.632.582-3.216.906-4.792.031-.152.33-.339.517-.352.636-.043 1.277-.026 1.915-.014.965.018 1.587.412 1.708 1.06.162.874-.416 1.912-1.277 2.176-.428.13-.899.2-1.345.18-.542-.026-.733.19-.767.69-.024.338-.119.67-.19 1.052m7.64-5.153c.006 1.066.003 1.07-1.142 1.042-.84-.02-.84-.02-.819.931h1.462c.177.952.058 1.105-.808 1.112-1.008.008-1.008.008-1.026.935h1.594c.119 1.06.024 1.17-.943 1.169h-2.384c.119-.693.223-1.326.337-1.958.165-.918.318-1.838.52-2.748.04-.183.273-.454.428-.461.908-.044 1.819-.022 2.781-.022m14.008 1.088l-1.195-.112.158-.942h3.78c.116.943.087 1.007-.782 1.012-.411.002-.546.155-.602.54-.124.855-.3 1.701-.448 2.552-.204 1.174-.289 1.228-1.622.954l.71-4.004"/></g></svg>