<svg xmlns="http://www.w3.org/2000/svg" width="41" height="40" fill="none"><path fill="#00ACFF" fill-rule="evenodd" d="M20 40c11.046 0 20-8.954 20-20S31.046 0 20 0 0 8.954 0 20s8.954 20 20 20z" clip-rule="evenodd"/><path fill="#FFDF38" d="M22.446 11.995l-2.425-.014a.193.193 0 01-.197-.197l.014-2.58c0-.211-.282-.282-.381-.099l-2.439 4.582a.202.202 0 00.183.296l2.425.014c.113 0 .198.085.198.197l-.015 2.58c0 .211.282.282.381.099l2.439-4.596c.07-.127-.028-.282-.183-.282z"/><path fill="#fff" fill-rule="evenodd" d="M15.37 22.525h-.945v-.62h1.93V21.2h-2.72v3.553h1.65c.817 0 1.325-.41 1.325-1.128 0-.663-.437-1.1-1.24-1.1zm-.945 1.523v-.874h.845c.367 0 .55.155.55.423 0 .31-.169.45-.535.45h-.86zm3.82-2.058c-.79 0-1.34.634-1.34 1.41 0 .845.607 1.409 1.424 1.423.494 0 .86-.197 1.114-.508l-.437-.394c-.211.197-.409.282-.663.282-.338 0-.592-.183-.662-.536h1.875c.014-.07.014-.14.014-.197 0-.776-.423-1.48-1.325-1.48zm0 .62c.324 0 .535.24.578.578h-1.17c.07-.353.268-.578.592-.578zm1.776-.578h.775v.395a.994.994 0 01.846-.437c.634 0 1.24.493 1.24 1.41 0 .902-.591 1.409-1.24 1.409-.409 0-.662-.183-.846-.409v1.17h-.775v-3.538zm2.086 1.353c0-.45-.31-.747-.662-.747-.367 0-.663.296-.663.761 0 .451.296.747.663.747.352 0 .662-.296.662-.76zm2.989 1.368h.747v-2.721h-.719l-1.057 1.593v-1.593h-.747v2.72h.719l1.057-1.578v1.579zm-12.997 2.325c.268-.253.676-.423 1.142-.423.592 0 1.029.31 1.029.733 0 .325-.184.508-.41.607.283.098.48.296.48.634 0 .465-.451.832-1.1.832-.521 0-.93-.155-1.24-.437l.352-.494c.226.198.522.31.818.31.24 0 .395-.126.395-.282 0-.155-.155-.281-.451-.281h-.296v-.48h.31c.24 0 .395-.127.395-.282 0-.14-.141-.253-.353-.253-.296 0-.55.112-.733.282l-.338-.466zm3.623.677c-.649 0-1.1.268-1.1.86 0 .536.423.832.944.846.367 0 .635-.127.818-.338v.296h.747v-1.58c0-.351-.099-.662-.296-.859-.197-.197-.493-.31-.916-.31-.465 0-.761.084-1.057.211l.197.592c.24-.084.451-.14.747-.14.38 0 .578.169.578.493v.042a1.859 1.859 0 00-.662-.113zm.676.55v.141c0 .268-.24.465-.606.465-.254 0-.423-.113-.423-.324 0-.254.212-.38.536-.38.183 0 .366.042.493.098zm1.269-1.621h.775v.395a.995.995 0 01.846-.437c.634 0 1.24.493 1.24 1.41 0 .901-.592 1.409-1.24 1.409-.409 0-.663-.183-.846-.409v1.17h-.775v-3.538zm2.086 1.353c0-.45-.31-.747-.662-.747-.353 0-.663.296-.663.761 0 .451.296.747.663.747.366 0 .662-.296.662-.76zm2.834 1.367h.775v-2.72h-1.424c-.705 0-1.1.366-1.1.902 0 .423.226.69.565.818l-.691 1h.888l.578-.874h.409v.874zm.014-2.128v.676h-.522c-.282 0-.45-.127-.45-.338 0-.211.168-.338.45-.338h.522zm1.734 2.128l-.057.635h-.648v-1.297h.296c.225-.494.268-1.17.268-1.819v-.24h2.213v2.059h.366l-.084 1.297h-.649v-.635h-1.705zm1.297-.662v-1.396h-.72v.057c0 .465-.042.93-.197 1.339h.917zm1.466-2.89v.099l.24 2.241h.422l.24-2.241v-.1h-.902zm.86 2.735h-.818v.817h.818v-.817z" clip-rule="evenodd"/></svg>