<svg xmlns="http://www.w3.org/2000/svg" width="40" height="40" fill="none"><path fill="#FFE0BE" fill-rule="evenodd" d="M20 40c11.046 0 20-8.954 20-20S31.046 0 20 0 0 8.954 0 20s8.954 20 20 20z" clip-rule="evenodd"/><path fill="#20421D" d="M7.571 20H33l-.571 3H7l.571-3z"/><path fill="#FDB76A" d="M20 28.722a8.333 8.333 0 100-16.666 8.333 8.333 0 000 16.666z"/><path fill="#F78E1C" fill-rule="evenodd" d="M20 29.556a9.167 9.167 0 100-18.334 9.167 9.167 0 000 18.334zm0-.834a8.333 8.333 0 100-16.666 8.333 8.333 0 000 16.666z" clip-rule="evenodd"/><path fill="#DD3932" d="M20.569 13.454a6.944 6.944 0 00-2.03 13.712l2.03-13.711z"/><path fill="url(#finance-msi__paint0_linear)" d="M22.48 18.5l-.432.553a2.81 2.81 0 01.459.446l.361-.524a3.591 3.591 0 00-.388-.475z"/><path fill="url(#finance-msi__paint1_linear)" d="M21.34 18.658c.192.072.378.168.554.285l.353-.662a3.434 3.434 0 00-.585-.406l-.323.783z"/><path fill="url(#finance-msi__paint2_linear)" d="M21.248 17.684l-.196.883a2.713 2.713 0 00-.616-.084l.193-.967c.212.035.42.092.62.168z"/><path fill="url(#finance-msi__paint3_linear)" d="M23.514 21.016l-.38.21c0-.104-.008-.21-.02-.314l.38-.224c.012.11.018.22.02.328z"/><path fill="url(#finance-msi__paint4_linear)" d="M23.448 20.377l-.37.314a2.743 2.743 0 00-.112-.39l.408-.24c.029.103.053.208.074.316z"/><path fill="url(#finance-msi__paint5_linear)" d="M23.26 19.72l-.397.338a2.767 2.767 0 00-.181-.321l.4-.408c.066.126.126.257.178.392z"/><path fill="url(#finance-msi__paint6_linear)" d="M16.104 16.557l.56.85a4.073 4.073 0 00-.714.592l-.463-.8a5.21 5.21 0 01.617-.642z"/><path fill="url(#finance-msi__paint7_linear)" d="M17.737 16.918a3.99 3.99 0 00-.836.348l-.435-1a5.04 5.04 0 01.895-.518l.376 1.17z"/><path fill="url(#finance-msi__paint8_linear)" d="M17.982 15.519l.18 1.301c.3-.05.602-.068.902-.05l-.167-1.422a4.655 4.655 0 00-.915.171z"/><path fill="url(#finance-msi__paint9_linear)" d="M14.315 20.078l.526.349c.013-.152.035-.303.066-.453l-.524-.369a5.23 5.23 0 00-.068.473z"/><path fill="url(#finance-msi__paint10_linear)" d="M14.485 19.16l.5.498a3.97 3.97 0 01.207-.551l-.563-.395a5.533 5.533 0 00-.144.448z"/><path fill="url(#finance-msi__paint11_linear)" d="M14.833 18.233l.535.534c.09-.152.19-.3.3-.444l-.531-.636a5.159 5.159 0 00-.304.546z"/><path fill="#CC2328" d="M24.704 15.561l-.812 1.041a5.281 5.281 0 01.862.838l.68-.985a6.806 6.806 0 00-.73-.894zm-2.146.297c.362.137.713.316 1.043.536l.665-1.245a6.47 6.47 0 00-1.102-.764l-.607 1.473zm-.171-1.832l-.37 1.662a5.1 5.1 0 00-1.158-.158l.363-1.82c.4.066.789.173 1.165.316zm4.263 6.27l-.716.395a5.065 5.065 0 00-.038-.592l.715-.421c.023.207.035.413.039.618zm-.125-1.204l-.697.592a5.154 5.154 0 00-.21-.735l.767-.451c.055.194.101.392.14.594zm-.353-1.234l-.747.635a5.232 5.232 0 00-.342-.605l.754-.767c.125.237.237.483.335.737z"/><path fill="#FFE0BE" d="M10 23h20a7 7 0 01-7 7h-6a7 7 0 01-7-7z"/><defs><linearGradient id="finance-msi__paint1_linear" x1="21.061" x2="23.422" y1="17.611" y2="20.528" gradientUnits="userSpaceOnUse"><stop stop-color="#D2402E"/><stop offset="1" stop-color="#D13A2E"/></linearGradient><linearGradient id="finance-msi__paint6_linear" x1="19.675" x2="18.96" y1="11.157" y2="19.419" gradientUnits="userSpaceOnUse"><stop stop-color="#FDB76A"/><stop offset="1" stop-color="#F2A61E"/></linearGradient><linearGradient id="finance-msi__paint2_linear" x1="21.061" x2="23.422" y1="17.611" y2="20.528" gradientUnits="userSpaceOnUse"><stop stop-color="#D2402E"/><stop offset="1" stop-color="#D13A2E"/></linearGradient><linearGradient id="finance-msi__paint3_linear" x1="21.061" x2="23.422" y1="17.611" y2="20.528" gradientUnits="userSpaceOnUse"><stop stop-color="#D2402E"/><stop offset="1" stop-color="#D13A2E"/></linearGradient><linearGradient id="finance-msi__paint4_linear" x1="21.061" x2="23.422" y1="17.611" y2="20.528" gradientUnits="userSpaceOnUse"><stop stop-color="#D2402E"/><stop offset="1" stop-color="#D13A2E"/></linearGradient><linearGradient id="finance-msi__paint5_linear" x1="21.061" x2="23.422" y1="17.611" y2="20.528" gradientUnits="userSpaceOnUse"><stop stop-color="#D2402E"/><stop offset="1" stop-color="#D13A2E"/></linearGradient><linearGradient id="finance-msi__paint0_linear" x1="21.061" x2="23.422" y1="17.611" y2="20.528" gradientUnits="userSpaceOnUse"><stop stop-color="#D2402E"/><stop offset="1" stop-color="#D13A2E"/></linearGradient><linearGradient id="finance-msi__paint7_linear" x1="20.985" x2="20.25" y1="10.065" y2="18.763" gradientUnits="userSpaceOnUse"><stop stop-color="#FDB76A"/><stop offset="1" stop-color="#F2A61E"/></linearGradient><linearGradient id="finance-msi__paint8_linear" x1="21.829" x2="21.02" y1="9.838" y2="18.255" gradientUnits="userSpaceOnUse"><stop stop-color="#FDB76A"/><stop offset="1" stop-color="#F2A61E"/></linearGradient><linearGradient id="finance-msi__paint9_linear" x1="16.421" x2="15.961" y1="16.532" y2="21.225" gradientUnits="userSpaceOnUse"><stop stop-color="#FDB76A"/><stop offset="1" stop-color="#F2A61E"/></linearGradient><linearGradient id="finance-msi__paint10_linear" x1="16.998" x2="16.485" y1="15.168" y2="20.582" gradientUnits="userSpaceOnUse"><stop stop-color="#FDB76A"/><stop offset="1" stop-color="#F2A61E"/></linearGradient><linearGradient id="finance-msi__paint11_linear" x1="17.806" x2="17.241" y1="13.643" y2="19.826" gradientUnits="userSpaceOnUse"><stop stop-color="#FDB76A"/><stop offset="1" stop-color="#F2A61E"/></linearGradient></defs></svg>