<svg xmlns="http://www.w3.org/2000/svg" xmlns:xlink="http://www.w3.org/1999/xlink" width="60" height="60"><defs><path id="rnet__a" d="M29.703 59.405c16.404 0 29.702-13.298 29.702-29.702C59.405 13.298 46.107 0 29.703 0 13.298 0 0 13.298 0 29.703c0 16.404 13.298 29.702 29.703 29.702z"/></defs><g fill="none" fill-rule="evenodd"><mask id="rnet__b" fill="#fff"><use xlink:href="#rnet__a"/></mask><use fill="#3C62B3" xlink:href="#rnet__a"/><g mask="url(#rnet__b)"><path fill="#FFF" d="M9.795 28.87c0 1.243.114 1.243 1.517 1.243.519 0 1.075-.046 1.615-.02 1.15.054 1.932-.208 1.866-1.618-.07-1.494-.195-1.663-1.902-1.68a54.857 54.857 0 00-1.217 0c-2.108.025-1.855-.242-1.879 2.074zM8 25.005c1.982 0 3.965-.02 5.946.005 1.664.021 2.574.937 2.626 2.58.013.404.005.808.005 1.212-.004 2.225-.897 3.139-3.168 3.235-.29.013-.58.002-.986.002l4.268 4.805c-1.463.262-2.539.246-3.432-1.001-.947-1.323-2.118-2.487-3.436-4.002 0 1.402-.003 2.453 0 3.503.005 1.714.006 1.714-1.823 1.548V25.006z"/><path fill="#D62D34" d="M19.773 28.404c0 2.45-.005 4.902.003 7.353.002.687.126 1.31-.978 1.294-1.1-.016-.821-.698-.823-1.261-.01-2.966-.001-5.933.006-8.899.002-.833.022-1.66 1.112-1.852 1.07-.189 1.693.3 2.082 1.264.998 2.474 2.028 4.935 3.178 7.377.372-1.446.212-2.89.248-4.323a56.11 56.11 0 00-.003-3.505c-.026-.702.314-.801.903-.797.57.003.907.048.9.776-.034 3.236-.02 6.472.001 9.708.006.842-.373 1.39-1.154 1.604-.817.223-1.46-.182-1.782-.883-.802-1.746-1.519-3.53-2.27-5.3L20.1 28.384l-.327.02"/><path fill="#FFF" d="M29.054 32.512c1.36-.625 2.57-1.176 3.774-1.742.227-.107.54-.208.395-.572-.085-.211-.251-.383-.5-.385-.984-.006-1.969-.027-2.95.014-.474.02-.685.408-.711.838m2.973 6.555c-4.44 0-4.6-.158-4.583-4.515.018-4.344.196-4.51 4.6-4.51 1.189 0 2.268.107 2.702 1.472.45 1.413.267 1.95-1.085 2.502-1.31.535-2.62 1.058-3.84 1.783-.372.22-.891.309-.722.945.164.615.64.675 1.157.676 1.263 0 2.526.03 3.787-.01.685-.02.949.184.953.909.005.757-.4.766-.94.752-.676-.017-1.353-.004-2.029-.004m4.276-5.907c0-1.753.01-3.507-.006-5.261-.005-.515.058-.848.717-.835.605.011.946.138.884.825-.04.446.013.9-.01 1.348-.027.53.093.887.731.813.51-.059.747.155.718.687-.025.46.032.96-.662.895-.719-.068-.8.34-.782.91.028.898-.026 1.816-.026 2.688 0 1.454.55 3.604-.808 3.604-1.063 0-.737-2.19-.737-3.66 0-.645-.033-1.34-.033-2.014h.014z"/><path fill="#FFF" d="M48.482 22.01c-.036.607-.461.916-1.025.984-.63-.136-1.034-.51-1.006-1.1.029-.591.455-.99 1.073-.945.598.044.995.445.958 1.061m1.625-2.003c-2.395-.94-4.812-1.809-7.33-2.357-4.006-.873-9.252-.427-9.834-.275-2.061.539-3.966 1.33-5.758 3.141 7.116-1.809 13.062-.589 16.098 6.171 3.028 6.741-.118 11.685-6.3 15.092.683.36 1.206.182 1.717.07 4.08-.894 6.664-3.601 8.552-7.1 2.265-4.195 3.095-8.789 3.674-13.45.088-.71-.16-1.034-.819-1.292"/></g></g></svg>