<svg xmlns="http://www.w3.org/2000/svg" xmlns:xlink="http://www.w3.org/1999/xlink" width="60" height="60"><defs><path id="teleCarta__a" d="M30 60c16.569 0 30-13.431 30-30C60 13.431 46.569 0 30 0 13.431 0 0 13.431 0 30c0 16.569 13.431 30 30 30z"/><path id="teleCarta__c" d="M22.772 45.544c12.577 0 22.772-10.195 22.772-22.772C45.544 10.195 35.35 0 22.772 0 10.195 0 0 10.195 0 22.772c0 12.577 10.195 22.772 22.772 22.772z"/></defs><g fill="none" fill-rule="evenodd"><mask id="teleCarta__b" fill="#fff"><use xlink:href="#teleCarta__a"/></mask><use fill="#A91263" xlink:href="#teleCarta__a"/><g mask="url(#teleCarta__b)"><g transform="translate(7 7)"><mask id="teleCarta__d" fill="#fff"><use xlink:href="#teleCarta__c"/></mask><use fill="#D21B7D" xlink:href="#teleCarta__c"/><path fill="#F8F8F8" d="M28.517-.742s10.487 47.191 10.237 47.441S-7.689 35.464-7.689 35.464L28.517-.742z" mask="url(#teleCarta__d)" transform="rotate(-45 15.535 22.98)"/></g></g></g></svg>