<svg xmlns="http://www.w3.org/2000/svg" width="40" height="40" fill="none"><circle cx="20" cy="20" r="20" fill="#1A2D59"/><path fill="#F5F5F5" fill-rule="evenodd" d="M30.296 18.77a4.35 4.35 0 01-.4.329c-.898.721-2.305 1.29-4.264 1.837-4.069 1.137-7.013 1.311-10.378 2.164a13.49 13.49 0 00-1.97.667c.639.328 1.31.634 2.002.907 1.364-.404 2.013-.59 3.994-.94.746-.13 3.062-.557 4.75-.929 3.009-.656 7.435-2.12 6.266-4.034zm-1.948-3.968c-.638-.306-1.45-.601-2.305-.841-.378.328-.822.6-1.46.863 1.06.197 1.872.503 2.759.776.162.088.887-.634 1.006-.798zm-14.815 4.22c3.95-1.213 8.095-1.585 12.294-2.755-1.645-.459-2.543-.656-4.275-.448-2.521.306-5.292.886-7.662 1.618-.93.284-5.822 1.738-4.415 3.76.01.034.844-1.19 4.058-2.175zm-2.727 6.965c-.01.382.217.71.693 1.126a1.79 1.79 0 01.292-.547 12.81 12.81 0 01-.985-.58zm1.85-.197a6.42 6.42 0 011.061-.536 38.806 38.806 0 01-1.72-.787 4.06 4.06 0 00-.693.546c.454.263.898.536 1.353.777zm15.194-8.757c-.8.382-1.937.787-3.582 1.213-1.341.35-4.61.842-8.127 1.64-1.114.252-4.123.995-5.605 2.307.41.35.67.437 1.125.7.617-.405 1.44-.799 2.684-1.148 2.153-.602 3.766-.864 5.703-1.181 1.926-.317 5.54-1.115 7.554-1.859.649-.251 1.255-.557 1.71-.929-.13-.153-1.418-.809-1.462-.743zm1.158-.755c.39.197.747.35 1.093.602.25-.492.098-.81-.422-1.269a3.88 3.88 0 01-.67.667zm-18.386 7.456c-.346-.207-.595-.35-.887-.568-.163.36.14.765.454.951.13-.142.293-.252.433-.383zm16.806-11.392c-.075.285-.357.602-.562.831.595.164 1.19.394 1.764.613-.054-.547-.671-1.083-1.202-1.444zm-18.58 3.51c4.133-2.832 8.71-4.482 16.47-3.083.433-.262.671-.503.78-1.039-1.938-.732-4.037-.984-6.753-.94-2.457.077-6.85 1.028-9.188 2.47l.714-.928c1.645-1.006 5.92-2.34 9.123-2.406 2.262-.043 3.43.088 6.114.842-.227-.48-.79-.721-1.601-1.104-2.609-1.214-7.457-1.334-11.44.503.499-.35.996-.667 1.635-.973 1.32-.623 3.463-1.236 6.147-1.192 2.142.033 4.696.82 6.255 2.438.26.317.411.656.476.93 1.234.655 1.948 1.268 2.36 1.99.161.36.237.775.161 1.224.51.328.758.59 1.007.94.184.295.325.634.357.94.043.405.087.864-.314 1.389.433.218.758.83.812 1.104.195.973-.4 1.913-1.201 2.656-.91.831-2.912 1.815-4.546 2.253-3.246.852-6.103 1.213-8.387 1.65 1.018.252 2.403.602 4.675.602 4.838 0 9.112-2.395 9.112-2.395s-.097.317-.194.59c-3.074 1.947-7.965 2.767-10.043 2.668-2.121-.098-3.907-.426-5.649-.995-.541.154-1.06.328-1.57.558 2.663 1.257 4.665 1.541 6.938 1.716 2.316.175 6.146-.404 9.393-1.629-.151.154-.227.394-.379.547-1.655.907-5.162 1.815-6.926 1.892-1.753.076-3.885.01-5.746-.361-1.602-.317-2.9-.853-4.275-1.476a1.07 1.07 0 00-.422.71c5.325 2.909 10.324 2.974 16.006 1.127l-.52.524c-6.255 2.646-11.146 1.618-14.923-.284-.12-.055-.27-.12-.379-.197.347.634 3.236 2.843 6.472 3.116 2.229.186 4.945-.208 6.558-.886l-.942.514c-.779.405-2.846 1.312-5.746 1.115-3.853-.273-6.028-2.055-7.002-2.984-.454-.438-.66-.94-.8-1.564-.877-.48-1.418-.973-1.873-1.705-.27-.437-.216-.918-.151-1.334.021-.131.054-.251.097-.372-.422-.317-.844-.655-1.028-.994-.368-.7-.13-1.323.13-1.804-.228-.274-.444-.547-.541-.82a2.556 2.556 0 01-.087-.995c.076-.601.379-1.159.78-1.64.843-1.017 2.164-1.804 4.436-2.591 2.219-.765 3.117-.886 4.794-1.29 1.959-.47 4.296-.623 6.255-1.334-5.465-.995-11.125-.087-15.756 3.236l.324-.93z" clip-rule="evenodd"/></svg>