<svg xmlns="http://www.w3.org/2000/svg" xmlns:xlink="http://www.w3.org/1999/xlink" width="60" height="60"><defs><path id="no-logo__a" d="M30 60c16.569 0 30-13.431 30-30C60 13.431 46.569 0 30 0 13.431 0 0 13.431 0 30c0 16.569 13.431 30 30 30z"/></defs><g fill="none" fill-rule="evenodd"><mask id="no-logo__b" fill="#fff"><use xlink:href="#no-logo__a"/></mask><use fill="#869099" xlink:href="#no-logo__a"/><g fill="#FFF" mask="url(#no-logo__b)"><path d="M39.206 38.934c-.021.101-.5 0-.606 0H19.992c-.104 0-.26.101-.282 0l-2.924-13.836h25.345l-2.925 13.836zM27.918 18.519a2.191 2.191 0 013.08 0l4.817 4.56H23.281l4.637-4.56zm15.642 5.426c-.308-.376-.915-.866-1.43-.866h-3.7l-6.19-5.794a3.962 3.962 0 00-5.564 0l-6.009 5.794h-3.88c-.515 0-1.122.49-1.43.866-.308.377-.424.88-.319 1.38L17.99 39.29c.191.905 1.07 1.613 2.002 1.613h18.933c.931 0 1.81-.708 2.002-1.613l2.952-13.967a1.633 1.633 0 00-.32-1.379z"/></g></g></svg>