<svg xmlns="http://www.w3.org/2000/svg" xmlns:xlink="http://www.w3.org/1999/xlink" width="60" height="60"><defs><path id="infolan__a" d="M29.703 59.405c16.404 0 29.702-13.298 29.702-29.702C59.405 13.298 46.107 0 29.703 0 13.298 0 0 13.298 0 29.703c0 16.404 13.298 29.702 29.703 29.702z"/><path id="infolan__c" d="M42.856.15v14.045H0V.15h42.856z"/></defs><g fill="none" fill-rule="evenodd"><mask id="infolan__b" fill="#fff"><use xlink:href="#infolan__a"/></mask><use fill="#AB2B2A" xlink:href="#infolan__a"/><g mask="url(#infolan__b)"><path fill="#FFF" d="M24.883 21.679c-.047.303-.01.603.36.646.34.04.645-.068.707-.476.074-.484.126-.97.207-1.453.027-.157.075-.356.186-.446.407-.33.836-.637 1.275-.923a.402.402 0 01.137-.053.33.33 0 01.396.278c.01.07.015.138.008.205-.027.26-.109.514-.163.772-.117.55-.277 1.099-.323 1.656-.01.12.086.247.194.376a.326.326 0 00.453.045 4.23 4.23 0 00.33-.282c.056-.053.05-.177.063-.27l.389-2.737c.1-.701-.164-1.005-.844-.84-.461.112-.887.379-1.322.589a.333.333 0 01-.475-.315.612.612 0 00-.024-.195c-.064-.205-.288-.498-.444-.499-.186-.002-.503.241-.539.422-.225 1.16-.392 2.331-.571 3.5m14.14.31c.291.534.726.635 1.169.193.853-.853 1.086-1.943.942-3.096-.073-.59-.527-.774-1.02-.536-.946.456-1.598 2.51-1.091 3.439m-5.27-2.747c.004 0 .008.004.007.008-.077.343-.143.612-.197.883-.22 1.122-.455 2.241-.632 3.37-.029.182.2.405.314.609.002.004.006.004.01 0 .15-.16.312-.31.443-.484.063-.083.068-.213.092-.322.259-1.194.556-2.38.758-3.584.1-.6.36-.872.94-.947.29-.037.578-.165.836-.307.14-.078.218-.27.324-.41l-.1-.15a.006.006 0 00-.006-.003l-1.602.293a.007.007 0 01-.008-.007c.078-.879.657-2.535 1.127-3.085.16-.189.454-.351.687-.352.116 0 .224.4.352.608.1.164.225.314.34.47.002.003.007.003.01 0 .13-.16.33-.304.371-.484.122-.526-.255-1.079-.799-1.267-.636-.22-1.345 0-1.709.726-.458.916-.82 1.891-1.124 2.872-.171.552-.394.935-.959 1.107-.203.062-.374.232-.559.352l.06.181 1.024-.077m-15.046 2.403c-.007.58.373.824.942.706.758-.159 1.886-1.398 2.04-2.333.002-.005-.004-.009-.009-.006-.198.09-.36.131-.477.228-.323.267-.611.578-.942.835-.348.27-.666.128-.677-.313-.007-.259.057-.522.029-.776-.02-.174-.142-.336-.22-.503a.006.006 0 00-.01-.002c-.162.126-.43.231-.46.384a9.62 9.62 0 00-.216 1.78m1.537-3.777c.306-.272.386-.639.102-.938-.285-.3-.68-.312-1.005-.021-.365.326-.166.67-.003.978l.002.001c.336.347.634.221.904-.02"/><g transform="translate(9 24.582)"><mask id="infolan__d" fill="#fff"><use xlink:href="#infolan__c"/></mask><path fill="#FFF" d="M36.887 6.733h2.707v.904c-.902.204-.872.204-.872 1.15 0 1.033.007 2.066.007 3.127.315.035.564.063.865.095v.969c-.752 0-1.355.028-2.02-.02-.166-.013-.38-.249-.486-.426-.79-1.322-1.554-2.656-2.456-3.97v3.359c.601-.017.894.156.734.764-.033.123-.192.295-.302.298-.766.026-1.509.014-2.256.014-.246-.887-.28-.958.772-1.094V8.555c0-.796 0-.796-.902-.866v-.963c.902 0 1.585-.02 2.347.016.153.008.356.203.451.36.672 1.108 1.33 2.229 2.115 3.336.013-.3.036-.598.042-.898.007-.339 0-.68.03-1.017.046-.55-.024-.973-.776-.772V6.733zM24.71 12.997c-.902 0-1.815.01-2.694-.013-.105-.003-.266-.175-.297-.295-.05-.194-.014-.409-.014-.654l.805-.135c-.278-.366.062-1.023-.688-1.057-1.369-.062-1.393-.056-1.588 1.066.234.038.417.075.717.117v.965c-.751 0-1.599.077-2.37-.026-.55-.074-.19-.594-.268-1 .78.206.864-.332 1.004-.833.308-1.1.614-2.197.946-3.347-.301-.042-.515-.074-.815-.11v-.942h4.006l.048.92c-.276.039-.509.077-.82.121.216.704.422 1.384.631 2.06.129.414.27.827.4 1.24.154.496.245 1.103.997.907v1.016zm-15.16-.333c-.007.113-.156.309-.26.31-1.724.02-3.524.015-5.178.015v-.974c.15-.027.451-.055.752-.094v-1.104c0-.736.052-1.472.051-2.207 0-.835-.051-.835-.803-.934v-.943h3.155c.231.755.203.812-.538 1-.106.027-.254.189-.255.288-.018 1.28-.012 2.56-.012 3.938.6 0 1.154.014 1.706-.014.08-.004.194-.197.215-.316.036-.2.01-.366.01-.668h1.17c0 .604.017 1.143-.014 1.703zm19.658-4.421h2.496c0 .604-.024.998.007 1.462.029.433-.148.531-.555.527a349.203 349.203 0 00-4.284-.026h-.809V8.243h2.176C25.952 5.525 23.75 2.86 21.513.19c-2.31 2.703-4.552 5.335-6.903 8.053h2.477c0 .604-.01 1.11.004 1.616.009.307-.144.397-.413.397-1.654-.005-3.307.008-4.96-.012-.131-.002-.365-.2-.372-.306-.038-.54-.018-1.091-.018-1.695h2.362C11.372 5.525 9.168 2.839 6.918.151 4.61 2.85 2.36 5.525 0 8.243h2.457v5.89h8.83c.027-.454.052-1.058.077-1.51h5.677v1.51h8.87v-1.51h5.793c0 .301.019.668-.004.982-.031.424.1.594.564.59 2.574-.022 5.148-.02 7.722-.004.428.003.544-.14.539-.554-.02-1.566-.01-3.142-.007-4.708 0-.202.018-.384.03-.686h2.308C40.563 5.525 38.357 2.861 36.11.18c-2.304 2.695-4.555 5.345-6.904 8.063z" mask="url(#infolan__d)"/></g><path fill="#FFF" d="M29.65 34.184h1.353l-.365-1.66h-.537z"/></g></g></svg>