<svg xmlns="http://www.w3.org/2000/svg" xmlns:xlink="http://www.w3.org/1999/xlink" width="40" height="40"><defs><path id="juggernaut__a" d="M.134.727h2.994v4.606H.134z"/><path id="juggernaut__c" d="M1.106.155H5.12v2.06H1.106z"/><path id="juggernaut__e" d="M0 .234h1.616V2.35H0z"/><path id="juggernaut__g" d="M1.266.128h1.28v1.205h-1.28z"/></defs><g fill="none" fill-rule="evenodd"><path fill="#D6A75D" fill-rule="nonzero" d="M20 0c11.046 0 20 8.955 20 19.997v.006C40 31.047 31.048 40 20 40 8.954 40 0 31.048 0 20 0 8.954 8.952 0 20 0z"/><path fill="#FFF" d="M20.611 24.906c.07-.13.148-.255.206-.39a6.15 6.15 0 00.432-1.604c.019-.138.018-.282.048-.42.048-.21.324-.401.523-.376.114.015.212.139.208.3-.004.21-.02.42-.046.628-.047.38-.06.758.022 1.136.043.202.074.408.113.612.005.027.015.052.04.132.071-.161.132-.274.17-.397.2-.65.38-1.305.52-1.972a.36.36 0 00.002-.133c-.054-.3 0-.419.279-.584.152.114.118.286.12.445.003.145-.018.288-.009.436.013.207-.018.421-.068.621-.15.602-.286 1.208-.532 1.779-.053.121-.083.265-.216.317a1.664 1.664 0 01-.427.118c-.153.016-.258-.103-.31-.236-.074-.191-.116-.395-.175-.592a1.493 1.493 0 00-.168-.395c-.157.373-.318.743-.473 1.117a.535.535 0 01-.234.283c-.141.077-.23.077-.32-.055a3.405 3.405 0 01-.288-.521c-.09-.2-.163-.41-.232-.617-.09-.272-.168-.551-.259-.823a.493.493 0 00-.126-.196.462.462 0 01-.158-.332c-.016-.305-.037-.612-.04-.919a3.94 3.94 0 01.04-.534c.028-.23.15-.311.357-.251.189.055.43.368.423.57-.016.407.045.802.114 1.202.04.239.059.484.126.72.093.312.191.621.287.932l.051-.001M8.478 22.782c.062-.081.117-.181.196-.255.202-.185.28-.432.321-.69.035-.214.045-.432.048-.648.009-.823.011-1.644.012-2.466.002-.308.008-.617-.017-.924-.01-.137-.089-.27-.146-.433.131-.136.29-.297.487-.497-.125-.006-.206-.012-.286-.012-.189 0-.377.009-.564 0-.125-.004-.26-.036-.304-.172-.045-.142.027-.271.138-.352a3.86 3.86 0 01.494-.311c.063-.033.158-.023.233-.005.325.076.648.109.98.038.105-.022.227-.046.326.06.08.087.114.172.05.28-.058.103-.107.215-.185.3-.133.148-.171.322-.174.514-.014 1.31-.024 2.62-.047 3.932a2.28 2.28 0 01-.164.849c-.193.46-.552.735-.975.932-.034.016-.067.03-.1.043-.21.085-.23.074-.323-.183m5.592-4.28c-.202.341-.17 1.097.016 1.404.027.043.07.076.1.117a.245.245 0 00.312.079c.108-.048.223-.113.199-.281-.013-.088.002-.18 0-.271-.013-.352-.02-.703.134-1.048h-.762zm1.532-.447c-.16.218-.184.476-.178.752.003.27-.023.539-.038.808-.014.287.029.568.11.84.06.2.082.391-.017.584-.125.239-.246.478-.473.627a.474.474 0 01-.238.079c-.44.006-.882 0-1.323.005-.118.001-.19-.041-.245-.176.2-.21.374-.436.712-.419.322.018.648.004.965.004.08-.192.022-.134-.174-.64-.102.083-.204.163-.302.246-.156.126-.325.102-.488.032-.267-.118-.418-.348-.525-.618-.265-.677-.087-1.284.274-1.858.078-.124.163-.25.265-.352a.386.386 0 01.246-.106c.397-.004.794.01 1.19.015.108 0 .208.003.239.177z"/><g transform="translate(23.2 20.888)"><mask id="juggernaut__b" fill="#fff"><use xlink:href="#juggernaut__a"/></mask><path fill="#FFF" d="M1.769 1.89c-.197.213-.252.497-.37.744-.063.13-.096.277-.146.416-.024.067-.06.128-.109.233l1.262-.114c-.036-.227-.074-.42-.097-.616-.04-.343-.24-.534-.54-.663m.31-.637c.146.064.279.136.418.184a.346.346 0 01.237.264c.059.22.18.429.128.673-.006.027.008.059.014.088l.123.603c.024.024.119.077.128.144.009.068-.065.149-.106.232.04.31.038.637.005.965-.004.041-.013.09 0 .127.059.162-.003.314-.045.46-.04.14-.164.149-.302.11-.099-.184-.063-.4-.092-.602-.035-.25-.04-.504-.064-.756-.008-.072-.04-.14-.068-.235-.406.107-.805.21-1.205.313-.048.012-.098.016-.148.024a.198.198 0 00-.172.148c-.083.29-.162.583-.24.875-.053.2-.072.425-.333.464-.221-.083-.198-.28-.17-.453.046-.278.121-.55.188-.838-.26.023-.182-.216-.233-.352-.036-.097.056-.273.16-.288.282-.041.328-.28.394-.488.08-.253.114-.522.193-.776.068-.217.17-.422.263-.644l-.126-.161c.038-.024.066-.05.1-.061.28-.091.457-.342.707-.48a.465.465 0 01.179-.066c.16-.009.23.104.169.26-.03.082-.063.164-.101.266" mask="url(#juggernaut__b)"/></g><path fill="#FFF" d="M16.723 18.497c-.027.143-.04.283-.08.416-.061.21-.014.415.007.62a.85.85 0 00.198.462c.096.117.209.157.343.11.151-.052.19-.132.196-.325.011-.427-.063-.863.137-1.283h-.801zm.869 2.663c.036-.259-.142-.42-.185-.648-.112.09-.213.17-.312.252-.157.127-.326.105-.489.032-.362-.164-.522-.496-.607-.868-.153-.664.08-1.23.45-1.753.048-.067.09-.144.152-.19.077-.057.174-.12.262-.12.39-.008.78.008 1.17.011.114.001.22.008.263.175-.246.28-.177.658-.199 1.008-.023.372-.06.752.026 1.124.023.101.042.202.073.301a.72.72 0 01-.032.564c-.12.23-.234.468-.457.61a.52.52 0 01-.257.086c-.434.008-.868.004-1.303.004-.036 0-.073.004-.108-.004-.124-.036-.163-.159-.073-.255.19-.204.39-.36.695-.336.3.027.606.007.93.007z"/><g transform="translate(30.88 18.221)"><mask id="juggernaut__d" fill="#fff"><use xlink:href="#juggernaut__c"/></mask><path fill="#FFF" d="M3.272.722l.384-.268c.479.236.959.473 1.464.724-.061.041-.092.07-.129.087-.614.301-1.23.602-1.846.901a.45.45 0 01-.184.047c-.492.002-.984.001-1.476 0-.02 0-.04-.01-.082-.019 0-.057.015-.121-.004-.172-.025-.07-.065-.161-.123-.187-.131-.057-.165-.162-.166-.284-.006-.346-.003-.692-.003-1.017.158-.123.295-.24.442-.34a.349.349 0 01.186-.039c.412.004.824.011 1.236.018.252.005.3.057.3.317v.232z" mask="url(#juggernaut__d)"/></g><path fill="#FFF" d="M27.523 23.837c.255-.13.505-.24.739-.378a3.06 3.06 0 00.49-.362c.17-.15.148-.3-.055-.397a2.927 2.927 0 00-1.402-.27c-.125.007-.262.038-.306.209l.085.198c.042-.033.068-.06.098-.077.192-.115.374-.004.376.233 0 .075-.022.15-.024.223-.003.2 0 .4 0 .621m-.879.472c.078-.074.128-.137.19-.178.092-.062.131-.132.107-.244-.073-.34-.092-.688-.235-1.014a1.64 1.64 0 01-.11-.474c-.022-.206.117-.324.262-.428.232-.167.498-.155.751-.126.396.046.793.116 1.165.268.19.078.375.183.543.303.258.183.267.603.016.79-.133.102-.265.21-.41.289-.364.198-.738.38-1.108.572-.03.016-.06.037-.117.074.09.07.163.142.248.187.425.23.855.453 1.284.676.083.043.162.072.208.173.027.059.103.095.158.139.038.03.097.047.115.085.026.055.05.142.024.18-.023.038-.111.05-.167.042a3.141 3.141 0 01-.827-.296c-.356-.175-.72-.328-1.082-.487-.037-.017-.083-.01-.156-.019v.815c-.001.11-.061.143-.156.139-.147-.008-.256-.102-.274-.264a5.483 5.483 0 01-.03-.58c0-.2-.016-.372-.227-.458-.055-.022-.094-.086-.172-.164"/><path fill="#FFF" d="M31.53 22.663c-.02-.053-.042-.106-.056-.16-.025-.093-.09-.15-.17-.152-.294-.004-.597-.024-.85.168a.48.48 0 00-.162.272c-.042.216.018.29.224.36.054.02.105.048.158.07.09.038.182.074.272.11.026.012.055.016.081.03.39.213.833.316 1.179.616.093.08.188.168.25.273.221.37.08.855-.304 1.115-.253.173-.539.242-.832.27a2.403 2.403 0 01-1.179-.18 1.142 1.142 0 01-.295-.178c-.096-.084-.153-.198-.108-.342.042-.14.062-.29.117-.425.066-.157.148-.184.316-.139l-.066.526c.125.081.228.17.377.12.018-.006.04.005.06.008.161.022.323.038.483.068.264.05.491-.055.714-.182.161-.092.169-.249.157-.412-.009-.1-.146-.24-.26-.262-.206-.038-.407-.084-.57-.235a.168.168 0 00-.077-.039c-.3-.057-.544-.252-.82-.366-.071-.028-.129-.095-.184-.15-.304-.313-.352-.586-.176-.984.017-.04.044-.085.04-.124-.025-.23.123-.332.287-.392.167-.06.347-.076.522-.109.064-.01.128-.016.192-.025.291-.043.567-.006.83.14.164.09.184.237.168.4-.018.16-.131.266-.318.31m-18.525-2.335a1.049 1.049 0 01-.49.51c-.164.083-.266.035-.342-.138-.027-.06-.04-.125-.06-.187-.205.098-.41.214-.627.294-.183.066-.38.096-.54-.08a.482.482 0 01-.122-.347c.004-.504-.001-1.01.002-1.513.002-.174-.033-.326-.171-.442a.97.97 0 01.529-.536c.193-.089.331-.004.334.22.005.428-.005.858-.007 1.286 0 .196-.001.39.01.585.01.137.067.196.196.179.137-.019.27-.076.414-.119 0-.13-.005-.236 0-.34.009-.163.036-.327.033-.49-.004-.25.015-.506-.143-.729-.027-.037-.017-.142.016-.18.135-.153.264-.317.456-.404.193-.088.347-.005.373.21.006.053 0 .106 0 .158 0 .572.003 1.146-.002 1.718-.001.133.01.253.141.345m16.435.173c-.141.079-.282.172-.433.236-.13.054-.273.094-.411.1-.28.016-.435-.153-.438-.452-.002-.505 0-1.01-.001-1.516 0-.238-.01-.262-.163-.446.089-.255.277-.41.502-.523.214-.11.353-.023.355.228.002.536-.004 1.07-.007 1.605 0 .083-.001.166.01.248.013.134.068.195.196.178.137-.019.27-.074.411-.116 0-.448.004-.867-.004-1.286a.517.517 0 00-.085-.244c-.06-.092-.06-.166.014-.237.12-.117.242-.235.372-.341.086-.072.197-.12.3-.059.103.064.146.17.144.308-.007.595-.002 1.19-.004 1.787 0 .136-.019.278.139.345-.096.257-.28.401-.48.519-.162.096-.277.038-.355-.148-.026-.06-.04-.124-.061-.186m-2.551-1.412c-.166.109-.297.196-.43.278-.115.072-.215.15-.214.31 0 .14-.011.28-.001.42.005.092.07.132.155.1.166-.062.33-.128.49-.192v-.916zm-.006 1.386c-.162.088-.311.174-.464.252a.973.973 0 01-.407.12c-.263.016-.376-.086-.448-.354a1.97 1.97 0 01-.023-.866.658.658 0 01.371-.506c.18-.088.359-.18.538-.268.159-.08.333-.135.45-.322-.06-.017-.107-.038-.152-.04-.144-.004-.289-.001-.434-.001-.17.001-.291.11-.423.199-.06.04-.124.113-.213.046-.088-.065-.123-.146-.05-.252.21-.306.437-.598.857-.582.194.008.39 0 .585 0 .373.004.538.234.523.554-.024.487-.032.975-.045 1.462-.004.134-.011.269.1.377.024.023.026.115.004.137-.14.14-.279.286-.436.4-.136.096-.287.007-.318-.164-.009-.057-.009-.117-.015-.192zm-2.98-.108c-.124.27-.323.426-.591.472-.151.026-.274-.084-.275-.241-.003-.255.02-.51.028-.763.006-.196.006-.392.009-.588.001-.113-.005-.226.001-.338.013-.195.003-.38-.188-.495a1.12 1.12 0 01.543-.57c.04-.02.109-.009.155.013.057.025.105.074.157.116.302-.142.63-.14.946-.102.234.028.346.123.39.423.073.49.016.973 0 1.459-.005.097-.003.196-.006.293-.003.085.005.159.077.221.093.08.073.18-.008.252-.13.115-.265.232-.413.318-.18.102-.311.014-.316-.2-.008-.391-.007-.783-.008-1.175l-.005-.836c0-.036-.012-.072-.018-.116-.199-.032-.39-.127-.608-.01-.014.174-.04.36-.045.547-.009.278-.003.558-.003.836 0 .182-.002.366.178.484M8.763 18.761c.02.04.047.076.056.116.01.043.004.09.004.135V20.4c-.933-.028-1.843-.046-2.77-.107v-1.39c.251-.018.493-.042.736-.05.578-.019 1.155-.03 1.733-.048.077-.003.154-.028.241-.044m10.548.86c.116-.153.215-.27.3-.399.096-.146.188-.297.265-.456.08-.169.009-.302-.165-.318a2.527 2.527 0 00-.39.001c-.034.003-.089.039-.095.068-.025.123-.05.248-.044.37.012.206.045.411.073.617.005.036.033.07.056.117m.195.399c.278.141.52.138.762-.01.085-.054.175-.129.267-.018.055.066.028.212-.082.296-.242.185-.485.373-.749.518-.198.111-.414.042-.574-.118a1.71 1.71 0 01-.53-1.21c-.01-.449.066-.876.288-1.264a1.45 1.45 0 01.253-.3c.036-.038.103-.054.156-.056.318-.004.635-.006.954 0 .3.006.47.254.34.528-.125.26-.289.498-.449.735-.2.299-.415.587-.636.899"/><g transform="translate(4 18.221)"><mask id="juggernaut__f" fill="#fff"><use xlink:href="#juggernaut__e"/></mask><path fill="#FFF" d="M1.613 2.134c-.391.273-.77.292-1.157.032-.491-.33-.654-1.121-.143-1.623C.628.235 1.008.138 1.44.338c.104.05.177.11.176.25-.007.513-.003 1.023-.003 1.546" mask="url(#juggernaut__f)"/></g><path fill="#FFF" d="M30.894 18.59c-.091-.02-.161-.03-.23-.053-.17-.056-.205-.174-.091-.321.03-.04.071-.072.107-.11.223-.225.421-.465.542-.77.04-.101.083-.236.231-.223.099.008.135.104.136.315v.316c.004.179.02.192.182.207.042.002.088-.002.128.012.1.032.144.128.116.23-.043.152-.233.33-.41.37-.006.057-.015.122-.016.188v1.129c.001.173.001.347.215.401.034.01.058.063.095.107a1.35 1.35 0 01-.477.44c-.11.067-.305-.041-.392-.201a1.107 1.107 0 01-.136-.532V18.59zm-9.367-.728l.125.099c.12-.022.222-.051.325-.056.152-.011.304-.002.456-.004a.296.296 0 01.273.148c.065.112.011.22-.062.306a3.69 3.69 0 01-.344.37c-.078.072-.17.04-.173-.06-.004-.19-.115-.179-.234-.176h-.19c-.007.062-.016.118-.017.176-.002.406 0 .813-.002 1.22 0 .181-.024.366.173.465-.11.25-.303.383-.512.48-.18.084-.328-.02-.353-.23-.017-.125-.004-.253-.003-.38l.002-1.483c0-.088.007-.172-.06-.255-.029-.035-.01-.147.025-.197a1.05 1.05 0 01.57-.423m-15.827.848c.161.069.226.145.221.3-.01.381-.001.764-.004 1.146 0 .171-.015.183-.216.228.001-.553-.004-1.101-.001-1.674"/><g transform="translate(28.32 24.888)"><mask id="juggernaut__h" fill="#fff"><use xlink:href="#juggernaut__g"/></mask><path fill="#FFF" d="M2.318.878c-.292.114-.644.062-.824-.111a.304.304 0 01.35-.096c.153.06.3.13.474.207" mask="url(#juggernaut__h)"/></g><path fill="#FFF" d="M19.343 23.825c.105.068.127.19.164.295.023.062-.052.121-.101.081a.408.408 0 01-.108-.172c-.037-.107-.03-.11.045-.204m-.077-.274c.135.048.128.131.094.235-.171-.025-.093-.136-.094-.235"/></g></svg>