<svg xmlns="http://www.w3.org/2000/svg" xmlns:xlink="http://www.w3.org/1999/xlink" width="40" height="40"><defs><path id="bumz__a" d="M0 1.123h16.77V13.5H0z"/><path id="bumz__c" d="M.42.976h9.66v5.672H.42z"/></defs><g fill="none" fill-rule="evenodd" transform="translate(-41 -318)"><rect width="40" height="40" x="41" y="318" fill="#FAD049" fill-rule="nonzero" rx="20" transform="rotate(90 61 338)"/><g transform="translate(48 332.49)"><mask id="bumz__b" fill="#fff"><use xlink:href="#bumz__a"/></mask><path fill="#FFF" d="M8.503 4.094c-.498.193-.924-.364-1.35.012-.275.439.162.607.299.885-.033.3.061.621-.19.946l-.527-.678-.1-.875H6.05l-.728.651c-.03.644.522.526.906.668L7.22 6.87c-.065.344-.141.708-.2 1.073-.07.44-.172.853-.598 1.1-.06.033-.075.141-.127.253l.306.491c.35.004.637-.156.956-.014.225.1.374-.11.474-.356-.11-.218-.227-.458-.353-.717.047-.29-.091-.625.143-.982.204.322.366.582.52.826v.683l.38.36 1.126-.785-.218-.598a89.696 89.696 0 00-.64-.058l-1.016-1.39.23-1.63.525-.49-.224-.542m.085 1.5v.917c.536 1.152.653 1.005 1.3 1.24.225.454.57.825 1.11.89.791.1 1.802-.266 2.354-1.123.877-1.363-.052-3.509-1.215-4.06-1.363-.646-2.718-.02-2.943 1.388-.006.04-.031.077-.053.128l-.553.62m8.179 1.823c-.008.628.007 1.25-.245 1.855-.164.397-.383.666-.791.808a477.875 477.875 0 00-4.75 1.675c-1.15.412-2.307.814-3.443 1.268-1.322.528-2.667.585-4.044.33-.062-.01-.136.002-.184-.029-.817-.497-1.697-.903-2.257-1.745-.409-.61-.768-1.232-.939-1.96-.402-1.727.28-3.822 1.67-4.91.802-.629 1.694-1.007 2.677-1.262a341.412 341.412 0 008.205-2.24c.822-.234 1.418.041 1.957.585.278.281.536.595.74.934.86 1.44 1.45 2.972 1.404 4.69" mask="url(#bumz__b)"/></g><path fill="#FFF" d="M65.654 330.048c.185-.288.396-.436.702-.409-.571-.165-.62-.138-.702.409m-2.587.435c-.208-.247-.39-.2-.572-.084-.177.112-.337.24-.159.533l.222-.365.51-.084m-1.059 2.864c-.259-1.046-.32-2.116-.419-3.246 1.703-.372 3.345-.73 5.055-1.1l1.644 2.653c.27-.046.582-.065.872-.155.717-.22 1.32.047 1.842.47.864.701 1.404 1.635 1.746 2.696.313.973.374 1.96.263 2.98l-6.768 2.426c-.043-.216-.112-.43-.123-.648-.052-1.092-.37-2.124-.758-3.128-.297-.772-.632-1.543-1.204-2.167-.42-.459-.838-.946-1.546-.912-.196.009-.389.083-.604.131"/><g transform="translate(65.92 336.99)"><mask id="bumz__d" fill="#fff"><use xlink:href="#bumz__c"/></mask><path fill="#FFF" d="M6.913 1.682l-.009-.143c-.33-.113-.592-.027-.754.308-.017.036.034.105.067.199l.31-.391.386.027zM4.829 5.29c.007-.043.018-.087.027-.13-.101-.025-.228-.098-.298-.062a1.717 1.717 0 00-.426.331c-.03.03.012.136.031.282.128-.178.208-.292.286-.402l.38-.02zm3.628-1.615l.501-.07c-.502-.262-.744-.11-.775.448.11-.152.19-.26.274-.378zm-5.97-.553c-.682-.106-.82-.01-.78.445.23-.13.472-.269.78-.445zm-2.036.16L7.074.975 10.08 4.24c-1.908.912-3.822 1.605-5.723 2.407C3.037 5.55 1.68 4.568.42 3.467l.032-.185z" mask="url(#bumz__d)"/></g><path fill="#FFF" d="M57.398 337.492c.208-.775.82-1.02 1.426-.571.363.267.368.738.013 1.019-.518.408-1.13.218-1.44-.448m1.013 2.882c-.585-.753-.443-1.043.63-1.374.522.178.679.38.594.76-.121.537-.49.727-1.223.614m-.191-1.421l-.38.222-.372-.558c.474-.252.592-.207.752.336"/></g></svg>