<svg xmlns="http://www.w3.org/2000/svg" width="41" height="40" fill="none"><circle cx="20.5" cy="20" r="20" fill="url(#ticket-land__paint0_linear)"/><path fill="#fff" fill-rule="evenodd" d="M23.957 15.942h-1.804v4.647h1.804c1.453 0 2.458-1.015 2.458-2.324 0-1.32-1.005-2.323-2.458-2.323zm1.393 2.323c0 .837-.562 1.403-1.394 1.403h-.785v-2.803h.785c.832 0 1.394.577 1.394 1.4zm-7.312-2.323h-.937v4.648h1.004v-2.955l2.24 2.955h.865v-4.648h-1.005v2.862l-2.167-2.862zm-3.465-.034h-.938l-1.982 4.681h1.038l.423-1.042h1.955l.422 1.042h1.063l-1.981-4.681zm-.482 1.229l.614 1.508h-1.229l.615-1.508zm-4.946-1.195H8.128v4.648h3.322v-.93H9.145v-3.718zm18.438-4.919h1.406v3.705h1.018v-3.705h1.407v-.942h-3.831v.942zm-.442-.942h-3.487v4.647h3.52v-.91h-2.509v-.976h2.18v-.908h-2.18v-.945h2.476v-.908zm-7.124 0h-1.018v4.647h1.018v-1.42l.534-.558 1.434 1.978h1.221l-1.968-2.676 1.883-1.971h-1.228l-1.876 2.03v-2.03zM16.496 10c-1.42 0-2.41 1.084-2.41 2.403 0 1.35 1.01 2.404 2.371 2.404.891 0 1.421-.279 1.895-.79l-.647-.697c-.363.333-.686.545-1.216.545-.792 0-1.34-.664-1.34-1.462 0-.809.562-1.46 1.34-1.46.53 0 .834.192 1.19.518l.608-.704c-.43-.424-.919-.757-1.791-.757zm-3.19 4.728h-1.018v-4.647h1.018v4.647zm-5.509-3.705h1.407v3.705h1.018v-3.705h1.407v-.942H7.797v.942zm23.041 16.966c-.2.178-.3.428-.3.74 0 .696.501 1.065 1.45 1.065h2.653a.06.06 0 01-.001.008v.004c-.05.427-.141.842-.269 1.24H31.99c-.91 0-1.629-.214-2.136-.636-.488-.407-.746-.988-.746-1.681 0-.695.259-1.271.746-1.68.507-.423 1.226-.638 2.136-.638h2.696v1.252H31.99c-.518 0-.905.106-1.15.326zm-9.142 1.434l.512-3.012h1.26l-.755 4.435-.034.2h-2.065l-.036-.197-.811-4.438v4.635h-1.312v-4.635h2.69l.551 3.012zm1.771 1.623h1.371v-4.635h-1.37v4.635zm1.737-4.635h3.923v1.252h-1.276v3.383h-1.37v-3.383h-1.277V26.41z" clip-rule="evenodd"/><path fill="url(#ticket-land__paint1_linear)" d="M4.5 22.881h36v1.235h-36z"/><defs><linearGradient id="ticket-land__paint0_linear" x1=".5" x2="40.5" y1="20" y2="20" gradientUnits="userSpaceOnUse"><stop stop-color="#FF7500"/><stop offset="1" stop-color="red"/></linearGradient><linearGradient id="ticket-land__paint1_linear" x1="4.5" x2="40.5" y1="24.116" y2="24.116" gradientUnits="userSpaceOnUse"><stop offset=".141" stop-color="#fff" stop-opacity="0"/><stop offset="1" stop-color="#fff"/></linearGradient></defs></svg>