<svg xmlns="http://www.w3.org/2000/svg" viewBox="0 0 80 80"><circle cx="40" cy="40" r="40" fill="#d3b771"/><path fill="#fff" d="M11.4 41.2H8.1L7.3 45H5.5l1.8-8.6h1.8l-.7 3.3h3.3l.7-3.3h1.8L12.4 45h-1.8l.8-3.8zm3.3.4c0-.5.1-1 .2-1.6.2-.8.5-1.4.9-2 .4-.6.9-1 1.5-1.3.6-.3 1.3-.5 2.1-.5 1.1 0 1.9.3 2.6 1 .7.7 1 1.5 1 2.6 0 .9-.2 1.8-.6 2.6-.4.8-1 1.5-1.7 2s-1.6.7-2.5.7c-.8 0-1.5-.2-2-.5-.5-.4-.9-.8-1.2-1.3-.2-.6-.3-1.1-.3-1.7zm1.8 0c0 .6.2 1.1.5 1.5.4.4.8.6 1.4.6.5 0 .9-.2 1.4-.5.4-.3.8-.8 1.1-1.4.3-.6.4-1.3.4-1.9 0-.7-.2-1.2-.5-1.6-.4-.4-.8-.6-1.4-.6-.9 0-1.6.4-2.1 1.2-.6.8-.8 1.8-.8 2.7zm7 3.4l1.8-8.6h2.9c.6 0 1.1 0 1.3.1.4.1.8.2 1.1.4.3.2.5.4.7.7.2.3.2.6.2 1 0 .5-.1.9-.4 1.2-.3.3-.7.6-1.2.8.4.1.8.3 1 .6.2.3.4.7.4 1.1 0 .5-.2 1-.4 1.5-.3.5-.7.8-1.2 1-.5.2-1.2.3-2.1.3-.1-.1-4.1-.1-4.1-.1zm2.8-5.1h1.3c.6 0 1 0 1.3-.1.3-.1.5-.2.6-.4.1-.2.2-.4.2-.6 0-.2-.1-.4-.2-.5-.1-.1-.3-.2-.5-.3h-2.3c0-.2-.4 1.9-.4 1.9zm-.8 3.7h1.7c.7 0 1.2 0 1.4-.1.2-.1.4-.2.6-.5.1-.2.2-.4.2-.7 0-.3-.1-.5-.3-.7-.2-.2-.6-.3-1.1-.3h-2c0 .1-.5 2.3-.5 2.3zm6.6 1.4l1.8-8.6h1.8L33.9 45h-1.8zm8.3 0h-1.7l-.3-7.2-1.3 7.2h-1.6l1.8-8.6h2.5l.3 6 2.9-6h2.5L43.7 45h-1.6l1.7-7.1-3.4 7.1zm5.1 0l1.8-8.6h3.5c.4 0 .7.1 1 .2.3.1.5.3.8.5.2.2.4.4.6.7s.3.6.4 1 .1.8.1 1.2c0 .9-.2 1.7-.5 2.5-.4.7-.8 1.3-1.3 1.7-.4.3-.9.6-1.6.7-.4.1-1 .1-1.8.1h-3zm2.1-1.4h.9c.6 0 1.1 0 1.4-.1.3-.1.6-.2.8-.4.3-.3.6-.7.9-1.3.2-.5.4-1.1.4-1.9 0-.6-.1-1.1-.3-1.4-.2-.3-.4-.5-.7-.6-.2-.1-.6-.1-1.1-.1h-1l-1.3 5.8zm6.9-.2h1.7l-.3 1.6h-1.7l.3-1.6zm4.8 1.6h-1.8l1.8-8.6h3.8c.7 0 1.2.1 1.5.2.4.1.7.4.9.7.2.4.3.8.3 1.3 0 .7-.2 1.3-.7 1.8-.4.5-1.1.8-2 .9.2.2.4.5.6.8.4.7.8 1.6 1.3 2.8h-1.9c-.2-.5-.5-1.2-.9-2.3-.2-.6-.5-.9-.8-1.1-.2-.1-.5-.2-.9-.2H60l-.7 3.7zm1-4.8h.9c1 0 1.6-.1 1.9-.2.3-.1.6-.3.7-.5.2-.2.3-.5.3-.8 0-.3-.1-.5-.4-.7-.2-.1-.5-.1-1-.1h-1.9l-.5 2.3zm7.7-3.8h1.8l-1 4.7-.2 1.1v.3c0 .3.1.6.4.8.2.2.6.3 1.1.3.4 0 .8-.1 1.1-.2.3-.2.5-.4.6-.7.2-.3.3-.9.5-1.6l1-4.7h1.8l-1 4.7c-.2 1-.4 1.7-.7 2.3-.3.5-.7 1-1.2 1.3-.5.3-1.2.5-2.1.5-1 0-1.8-.2-2.3-.7-.5-.5-.8-1.1-.8-1.9v-.5c0-.1.1-.5.2-1.1l.8-4.6z"/></svg>