<svg xmlns="http://www.w3.org/2000/svg" width="80" height="80"><g fill="none" fill-rule="evenodd"><circle cx="40" cy="40" r="40" fill="#EE2842"/><g fill="#FFF"><path d="M45.203 26.76a6.01 6.01 0 011.088-3.434 4.924 4.924 0 00-3.55 4.695v3.95h2.462v-5.21zm-2.462 27.111a4.952 4.952 0 003.55 4.724 6.15 6.15 0 01-1.087-3.493v-7.386H42.74v6.155zm6.155-6.155h-2.462v7.386a4.952 4.952 0 003.55 4.724 6.15 6.15 0 01-1.087-3.493v-8.617zm0-22.157a6.011 6.011 0 011.088-3.464 4.925 4.925 0 00-3.55 4.666v5.382h2.462V25.56zm-27.769-1.66a6.183 6.183 0 00-3.006 5.353v23.274a6.123 6.123 0 003.006 5.267 7.52 7.52 0 01-.544-2.862V26.76a7.527 7.527 0 01.544-2.863zm3.15.429a7.015 7.015 0 01.572-2.863 6.125 6.125 0 00-3.035 5.296v28.341a6.127 6.127 0 004.037 5.727 7.13 7.13 0 01-1.575-4.524V24.328z"/><path d="M55.051 20.635a4.924 4.924 0 00-4.924 4.924v8.016l-12.31-.63v-8.589a6.155 6.155 0 10-12.31 0v31.977a6.154 6.154 0 1012.31 0v-9.848h12.31v9.848a4.923 4.923 0 009.848 0V25.56a4.924 4.924 0 00-4.924-4.924z"/></g></g></svg>