<svg xmlns="http://www.w3.org/2000/svg" width="40" height="40" fill="none"><path fill="#2A66AD" fill-rule="evenodd" d="M20 40c11.046 0 20-8.954 20-20S31.046 0 20 0 0 8.954 0 20s8.954 20 20 20z" clip-rule="evenodd"/><path fill="#fff" fill-rule="evenodd" d="M18.471 11.667a5.556 5.556 0 00-5.152 3.476L8.333 27.5H21.53a5.556 5.556 0 005.152-3.477l.782-1.94h-4.882l-.134.315a2.222 2.222 0 01-2.045 1.352h-5.819l2.97-6.981a2.222 2.222 0 012.045-1.352h10.555l1.514-3.75H18.47zm11.01 5.416h-4.773l-.355.834h4.792l.336-.834zm-.673 1.667h-4.81l-.354.833h4.828l.336-.833zm-.672 1.667H23.29l-.355.833H27.8l.336-.833z" clip-rule="evenodd"/></svg>