<svg xmlns="http://www.w3.org/2000/svg" viewBox="0 0 40 40"><g data-name="лого игры"><circle cx="20" cy="20" r="20" fill="#6cbbb4"/><path fill="#fff" d="M3.11 21.79c0-.12.05-.23.07-.34a.73.73 0 01.55-.57L6 20.23a.31.31 0 00.26-.34v-.7a.37.37 0 00-.4-.4H3.49v-.83h2.82a1 1 0 01.67.25.92.92 0 01.29.58 1.55 1.55 0 010 .22v4.16a1.3 1.3 0 01-.06.44.83.83 0 01-.82.59H4.03a.92.92 0 01-.89-.7v-.16zM6.3 21l-.13.06-.27.12-1.59.41a.32.32 0 00-.24.22A.46.46 0 004 22v1a.27.27 0 00.12.23.43.43 0 00.27.08h1.53a.52.52 0 00.17 0A.27.27 0 006.3 23v-2zm9.39-2.56a.7.7 0 01.06-.09.84.84 0 01.65-.42h2.06a1.34 1.34 0 01.74.19 1.21 1.21 0 01.6 1.06V24c0 .12 0 .16-.16.16h-.8c-.15 0-.16 0-.16-.16v-4.8a.39.39 0 00-.15-.32.37.37 0 00-.25-.09h-1.7a.43.43 0 00-.39.4v4.75c0 .22 0 .23-.23.23h-.76c-.11 0-.13 0-.13-.13v-4.75a.61.61 0 000-.14.41.41 0 00-.4-.36H13a.39.39 0 00-.41.38v4.88c0 .09 0 .11-.11.11h-.91c-.08 0-.11 0-.12-.1V19.2a1.21 1.21 0 01.72-1.14 1.26 1.26 0 01.6-.14h2a1.13 1.13 0 01.36.06.77.77 0 01.46.37.7.7 0 01.1.09zm5.55-.51H24a1 1 0 01.56.16.92.92 0 01.43.76v4.34a1.06 1.06 0 01-.08.43.84.84 0 01-.82.55h-2.25a1 1 0 01-.67-.25.87.87 0 01-.31-.61v-1.52a1.55 1.55 0 01.07-.43.72.72 0 01.53-.48l2.3-.65a.32.32 0 00.28-.36v-.67a.38.38 0 00-.42-.41h-2.31c-.07 0-.1 0-.1-.09V18s.02 0 .03-.07zM24.05 21l-.12.05a2.06 2.06 0 01-.26.12l-.6.16-1 .26a.34.34 0 00-.25.2.43.43 0 000 .14v1.06a.31.31 0 00.26.3h1.63c.3 0 .41-.11.41-.41V21zm10.28 2.41c0-.14.05-.29.09-.44.09-.33.18-.65.28-1 .37-1.28.74-2.55 1.12-3.82a.32.32 0 01.33-.26h.62c.11 0 .14 0 .1.15s-.07.26-.11.38c-.52 1.63-1 3.26-1.55 4.89 0 .12-.08.23-.11.36a.58.58 0 01-.48.44 1.75 1.75 0 01-.72 0 .54.54 0 01-.42-.4l-1.77-5.59v-.05c0-.12 0-.15.11-.16h.65a.31.31 0 01.29.23l.48 1.59c.31 1 .62 2 .92 3.06.06.18.09.37.14.56v.05zm-5.23-7.58a.21.21 0 010 .18v1.9h1.5a.53.53 0 010 .12v.59a.79.79 0 010 .13h-1.44v4.12a.37.37 0 00.36.39h1.1c.13 0 .15 0 .15.14v.6c0 .06 0 .11-.06.15h-1.38a1.17 1.17 0 01-1.15-1.12.57.57 0 010-.13v-6.57c0-.21 0-.22.2-.28l.67-.21zm-20.76.06a.12.12 0 01.12-.06h.77c.09 0 .11 0 .12.13v7.15c0 .19 0 .21.21.21h.77c.05 0 .08 0 .08.09v.66c0 .07 0 .09-.1.09H9.26a.9.9 0 01-.64-.24 1 1 0 01-.28-.65v-7.38z"/></g></svg>