<svg xmlns="http://www.w3.org/2000/svg" width="60" height="60"><g fill="none" fill-rule="evenodd"><path fill="#71BF44" d="M30 60c16.569 0 30-13.431 30-30C60 13.431 46.569 0 30 0 13.431 0 0 13.431 0 30c0 16.569 13.431 30 30 30z"/><path fill="#FFF" d="M40.231 19l-3.828 2.167 4.805 2.785v12.52l-4.805 2.757 3.83 2.181L50 35.823V24.574L40.231 19zm-10.399 0l-3.83 2.137 4.792 2.754v12.582l-4.792 2.756 3.83 2.181 9.766-5.587V24.574L29.832 19zm-10.25 0L10 24.581v11.241l9.582 5.583 9.612-5.583v-11.24L19.582 19z"/></g></svg>