<svg xmlns="http://www.w3.org/2000/svg" width="40" height="40" fill="none"><circle cx="20" cy="20" r="20" fill="#E41A15"/><path fill="#fff" d="M24.568 17.568l-4.217 5.621h-3.513l4.216-5.621h3.514zm2.803 4.216a.702.702 0 01-.562-1.125l2.326-3.091h-3.513l-1.587 2.106c-.38.506-.379.897 0 1.405l1.047 1.396c.534.711 1.06.714 1.945.714h2.46c2.107 0 3.513-1.406 3.513-3.513V18.27c0-2.107-1.406-3.513-3.514-3.513h-3.162c-.146 0-.351 0-.527.175-.175.176-.175.381-.175.528v.702h3.864c.44 0 .703.264.703.703v4.216c0 .44-.263.703-.703.703h-2.114zm-13.337-2.811c.587 0 .909.665.562 1.125L12.27 23.19h3.514l1.586-2.106c.381-.506.38-.897 0-1.405l-1.047-1.396c-.533-.711-1.06-.714-1.944-.714H7.703c-.147 0-.352 0-.527.175C7 17.92 7 18.123 7 18.27v.703h1.405V26h2.811v-7.027h2.818z"/></svg>