<svg xmlns="http://www.w3.org/2000/svg" width="80" height="80"><g fill="none" fill-rule="evenodd"><circle cx="40" cy="40" r="40" fill="#F3F3F3"/><path fill="#231E19" d="M31.216 38.276l-5.659 3.264v6.527l5.659 3.264 5.646-3.264V41.54l-5.646-3.264m17.36 3.267l-5.65-3.264-5.655 3.264v6.527l5.655 3.264 5.65-3.264v-6.527m6.064-3.267l-5.66 3.264v6.527l5.66 3.264 5.65-3.264V41.54l-5.65-3.264M72 41.543l-5.651-3.264-5.655 3.264v6.527l5.655 3.264L72 48.07v-6.527m-5.85-10.279L60.5 28l-5.655 3.264v6.527l5.655 3.264 5.65-3.264v-6.527m-17.364-3.263l-5.654 3.264v6.527l5.654 3.264 5.655-3.264v-6.527l-5.655-3.264m-11.71 0l-5.655 3.264v6.527l5.655 3.264 5.651-3.264v-6.527l-5.651-3.264"/><path fill="#FFF" fill-rule="nonzero" d="M38.047 31.766a1.848 1.848 0 00-.166.01h-3.044v1.171h.37v3.204h-.37v1.18h3.108c.19.006.379-.014.57-.062.189-.034.353-.092.484-.184a1.25 1.25 0 00.356-.56c.073-.253.108-.51.108-.777v-.003c0-.433-.079-.744-.235-.943-.131-.213-.378-.336-.744-.364v-.033a.757.757 0 00.347-.079.79.79 0 00.238-.156.88.88 0 00.222-.446c.044-.18.063-.366.063-.56 0-.257-.02-.481-.063-.665a.885.885 0 00-.222-.44.994.994 0 00-.521-.238 2.27 2.27 0 00-.5-.054m-1.088 1.18h.696v.982h-.696v-.981m0 2.013h.76v1.19h-.76v-1.19"/><path fill="#231E19" d="M25.363 28.001l-5.65 3.264v6.527l5.65 3.264 5.656-3.264v-6.527l-5.656-3.264"/><path fill="#FCA10B" d="M19.305 31.264L13.655 28 8 31.264v6.527l5.655 3.264 5.65-3.264v-6.527"/><path fill="#231E19" d="M14.003 31.763h2.09v1.17h-.355v3.2h.355v1.181h-2.09v-2.23h-.67v2.23h-2.079v-1.181h.336v-3.2h-.336v-1.17h2.079v2.117h.67v-2.117"/><g fill="#FFF"><path fill-rule="nonzero" d="M49.757 31.767c-.059 0-.12.004-.18.009h-3.024v1.172h.368v3.204h-.368v1.18h3.103a2.08 2.08 0 00.587-.063c.175-.034.342-.091.488-.184.17-.146.29-.336.352-.56a3.43 3.43 0 00.088-.777c.015-.432-.054-.746-.2-.945-.13-.214-.383-.337-.752-.365v-.033a.645.645 0 00.322-.078.75.75 0 00.46-.602c.054-.18.082-.366.082-.56 0-.258-.03-.482-.082-.666a.754.754 0 00-.222-.44c-.127-.126-.298-.203-.521-.237a2.13 2.13 0 00-.5-.054m-1.088 1.18h.699v.982h-.699v-.982m0 2.013h.771v1.19h-.771v-1.19"/><path d="M42.927 43.797h.02l.816-1.85h2.347v1.185h-.345v3.186h.345v1.175h-1.997v-3.017h-.034l-.87 2.074h-.553l-.87-2.074v3.017h-2.031v-1.175h.379v-3.186h-.379v-1.185h2.357l.816 1.85m9.816-.667h-.35v-1.185h4.343v1.88h-1.608v-.694h-.621v.956h1.103v1.102h-1.103v1.127h.621v-.84h1.608v2.017h-4.343v-1.175h.35v-3.186"/><path fill-rule="nonzero" d="M29.936 41.944l-.808 4.373h-.34v1.175h1.673l.296-1.47h.924l.253 1.47h1.913v-1.175h-.388l-.88-4.373h-2.642m1.253 1.367h.03l.275 1.659h-.557l.253-1.66"/></g><path fill="#231E19" d="M25.157 41.543l-5.651-3.264-5.655 3.264v6.527l5.655 3.264 5.651-3.264v-6.527"/><g fill="#FFF"><path d="M61.033 31.752h1.711v1.17h-.316l-.982 2.185v1.02h.408v1.181h-2.769v-1.181h.379v-.913l-.953-2.291H58.2v-1.17h1.798l.461 1.744h.049l.525-1.744"/><path fill-rule="nonzero" d="M24.655 31.774c-.374 0-.658.063-.852.184a1.45 1.45 0 00-.43.482 1.934 1.934 0 00-.103.505c-.01.044-.009.086-.009.13v2.909c0 .32.064.575.19.765.116.189.26.336.44.427.189.102.408.154.656.154h1.627c.233 0 .453-.052.648-.154.184-.092.333-.238.446-.427.111-.19.171-.445.171-.765v-2.909c0-.214-.037-.422-.12-.635a1.045 1.045 0 00-.401-.482c-.219-.121-.506-.184-.855-.184h-1.407m.359 1.172h.683v3.204h-.683v-3.204"/></g><path fill="#FCA10B" d="M19.838 43.856v-.728h-.666v3.185h.666v-.898h-.33v-1.068h2.016v3.142h-2.745c-.476 0-.83-.127-1.059-.37-.209-.257-.306-.63-.292-1.102v-2.71c0-.49.107-.845.337-1.063.258-.214.622-.316 1.098-.301h2.663v1.913H19.84"/><path fill="#FFF" d="M68.177 41.943v1.632h-1.38v-.446h-.68v.986h.869c.287-.02.534.01.744.082.19.078.34.209.447.389.102.15.155.374.155.68v.86c.01.466-.098.81-.316 1.039-.2.228-.53.333-.982.325H64.47v-1.685h1.443v.51h.68v-1.049h-1.03c-.364 0-.647-.102-.855-.296-.204-.2-.306-.496-.306-.884v-.957c0-.306.038-.539.116-.713a.954.954 0 01.457-.375 1.35 1.35 0 01.554-.097h2.647"/></g></svg>