<svg xmlns="http://www.w3.org/2000/svg" xmlns:xlink="http://www.w3.org/1999/xlink" width="60" height="60"><defs><path id="ros-euro-bank__a" d="M29.703 59.405c16.404 0 29.702-13.298 29.702-29.702C59.405 13.298 46.107 0 29.703 0 13.298 0 0 13.298 0 29.703c0 16.404 13.298 29.702 29.703 29.702z"/><path id="ros-euro-bank__c" d="M12.83 26.976H0V.334h25.66v26.642H12.83z"/><path id="ros-euro-bank__e" d="M28.94 27.607V.283H.227v27.324H28.94z"/></defs><g fill="none" fill-rule="evenodd"><mask id="ros-euro-bank__b" fill="#fff"><use xlink:href="#ros-euro-bank__a"/></mask><use fill="#4E124B" xlink:href="#ros-euro-bank__a"/><g mask="url(#ros-euro-bank__b)"><g transform="translate(15 16.741)"><mask id="ros-euro-bank__d" fill="#fff"><use xlink:href="#ros-euro-bank__c"/></mask><path fill="#FFF" d="M.143 26.976c-.038-.591-.098-1.09-.098-1.59C.037 17.647.002 8.562 0 .823 0 .088.37.373 1.73.47c12.677.9 23.184 11.642 23.912 24.514.034.616.004 1.235.004 1.992H.143z" mask="url(#ros-euro-bank__d)"/></g><g transform="translate(15 16.058)"><mask id="ros-euro-bank__f" fill="#fff"><use xlink:href="#ros-euro-bank__e"/></mask><path fill="#FFF" d="M28.94 27.607C26.681 10.48 16.443 2.274.227.283H28.94v27.324z" mask="url(#ros-euro-bank__f)"/></g></g></g></svg>