<svg xmlns="http://www.w3.org/2000/svg" xmlns:xlink="http://www.w3.org/1999/xlink" width="60" height="60"><defs><path id="colibri__a" d="M29.703 59.405c16.404 0 29.702-13.298 29.702-29.702C59.405 13.298 46.107 0 29.703 0 13.298 0 0 13.298 0 29.703c0 16.404 13.298 29.702 29.703 29.702z"/><path id="colibri__c" d="M.096 11.312h2.52V.182H.096z"/><path id="colibri__e" d="M.17 35.375h30.014V.047H.169z"/><path id="colibri__g" d="M5.478.163H.055v14.795h5.423V.163z"/></defs><g fill="none" fill-rule="evenodd"><mask id="colibri__b" fill="#fff"><use xlink:href="#colibri__a"/></mask><use fill="#3BC34D" xlink:href="#colibri__a"/><g mask="url(#colibri__b)"><g transform="translate(31.829 44.035)"><mask id="colibri__d" fill="#fff"><use xlink:href="#colibri__c"/></mask><path fill="#124B2B" d="M1.956 3.77c-.531.793.066 1.487.275 2.162.571 1.837.58 3.586-.474 5.38C.852 10.19.071 9.094.13 7.522c.076-2.072.004-4.15.032-6.226C.167.918-.118.33.458.196c.6-.139.253.742.71.858.665.788.246 1.892.788 2.715" mask="url(#colibri__d)"/></g><path fill="#07B007" d="M33.785 47.804c-.542-.823-.123-1.927-.787-2.714.171-.399-.094-.953.432-1.226l2.878 3.587c.474 1.676 1.128 3.316 1.044 5.131-1.514-.212-2.344-.999-2.629-2.526-.145-.774-.177-1.694-.938-2.252m-3.276-3.86c.295.105.9-.166.841.365-.311 2.828.241 5.776-1.083 8.562-.803-.725-.389-1.948-1.255-2.523l-.015.014c.628-.326.442-.874.376-1.389l1.136-5.03"/><path fill="#124B2B" d="M28.997 50.362l.015-.014c-1.255-.545-1.733-1.498-1.479-2.835l.434-.97.34-.445-.032.02c.601-.417.646-1.067.804-1.714.151-.622.177-1.452 1.102-1.58l.325.362c0 .253.002.505.003.758l-1.136 5.029m6.61-4.302l-.01-.043c-.237 1.027 1.266 1.27 1.028 2.317-.095.418.138 1.151-.693.506l-2.878-3.587c.585-1.334 1.203.157 1.804-.018.117.077.233.15.35.222m-8.42.229l.038-.039c-.461-.265-.492.12-.594.396l-.026.027c-1.047-.386-1.942-.827-.667-1.993.708-.646 1.425-1.283 2.181-1.963.555.83-.746 1.63-.186 2.484l.016-.052"/><path fill="#07B007" d="M26.582 44.681l.026-.027c.555.407.52-.076.594-.396l-.038.039c.579-.162.778-.578.762-1.14l-.016.052c.417-.2.851-.56.767.385-.075.856-.798 1.602-.403 2.525l.032-.021c-.465-.122-.28.254-.338.445l-.435.97c-1.431-.567-.785-1.837-.95-2.832"/><path fill="#FDFDFD" d="M27.368 31.621c-.358-.84.435-2.34-1.292-2.377-.553-.676.905-.987.147-1.816l-2.871 1.363c.83.981 1.856.672 2.688.98l1.328 1.85m-8.211-5.134c1.542 1.29 2.693 2.519 4.336.802.698-.73 2.146-.098 2.606-1.35-2.35-1.114-4.394.54-6.942.548m4.597-3.459c-.155-1.25-1.437-.751-1.758-1.529.807-1.668-.363-1.93-1.538-2.118-4.747-.756-9.44-1.719-13.907-3.572-.12-.05-.305.059-.55.114 1.298 2.18 2.436 4.182 5.521 3.927 1.963-.162 3.982.368 5.977.586.533.058 1.12.003 1.34.68-2.843.028-5.689.153-9.061-.403 1.501.852 2.269 2.077 3.512 2.042 3.482-.1 6.958-.101 10.464.273m-2.851 2.434c.953-.355 2.007-.432 3.01-.657.378-.085 1.014.012.93-.58-.059-.417-.582-.508-1.045-.505-2.88.016-5.76.008-8.641.008 1.726 1.657 3.497 2.57 5.746 1.734m5.197.483c.013.007.026.012.04.018l-.034-.032-.007.014"/><g transform="translate(22.604 19.972)"><mask id="colibri__f" fill="#fff"><use xlink:href="#colibri__e"/></mask><path fill="#FDFDFD" d="M23.754 4.788c-2.642-.458-5.549.216-7.844-1.765v.006c-1.508-.124-2.969-.306-4.286.862C9.4 5.863 9.19 5.794 7.159 3.483 5.13 1.178 2.86.05.169.047.673.7 1.227 1.273 1.613 1.943c.744 1.29 1.997 2.35 1.908 4.036h-.003c1.161 1.081 2.62 4.978 2.148 6.125-1.65 4.012.329 7.337 1.91 10.749-.924.128-.95.958-1.102 1.58-.158.646-.202 1.296-.804 1.714-.396-.922.327-1.669.403-2.524.084-.946-.35-.587-.767-.385-.56-.855.74-1.656.186-2.484-.757.68-1.474 1.316-2.181 1.963-1.275 1.165-.38 1.606.667 1.993.166.994-.48 2.264.95 2.831-.253 1.337.224 2.29 1.479 2.835.867.575.453 1.798 1.256 2.523 1.324-2.786.771-5.734 1.083-8.562.059-.53-.546-.26-.842-.365l-.002-.757c1.256.008 2.585.257 3.374-1.133l1.351 1.789c-.598.179-1.216-1.313-1.801.02-.526.274-.261.828-.433 1.227-.458-.116-.11-.997-.71-.858-.576.133-.291.722-.296 1.099-.028 2.076.044 4.154-.033 6.227-.059 1.571.723 2.667 1.628 3.79 1.053-1.795 1.045-3.543.474-5.38-.21-.676-.806-1.369-.275-2.163.761.557.793 1.477.937 2.252.285 1.527 1.115 2.313 2.63 2.525.083-1.815-.57-3.455-1.044-5.13.83.644.598-.088.693-.507.237-1.047-1.266-1.29-1.028-2.316.219.044.603.174.631.119.337-.652-.251-1.07-.452-1.592.605-.17.816-.648.38-1.027-.624-.54-1.216-1.338-2.257-1.031-.328-1.037-.157-1.95.378-2.932 1.24-2.274 1.847-4.303 2.373-6.932.015-.076.933-.9 1.625-1.552.546-.513 2.55-3.035 2.561-3.095-.059.03-2.292 2.465-2.868 2.938-.76.623-1.6 1.005-1.671 1.045-.57.314-1.04.598-1.546.79-1.079.408-1.917.046-2.376-1.02-.927-2.155.078-3.726 2.339-3.704.423.004.846-.029 1.27-.044-.067-.904.342-1.6 1.211-1.663.6-.042 1.316.302.92 1.239 1.041.125 2.398.728 3.064.286 2.146-1.425 4.282-.887 6.491-.628 1.393.164 2.762.728 4.742.333-2.422-.817-4.435-1.053-6.43-1.399" mask="url(#colibri__f)"/></g><path fill="#FDFDFD" d="M38.476 22.963l.065.054c-.006-.019-.007-.036-.012-.054h-.053"/><g transform="translate(36.544 8.043)"><mask id="colibri__h" fill="#fff"><use xlink:href="#colibri__g"/></mask><path fill="#FDFDFD" d="M3.38 14.525c1.201-2.195 2.252-4.44 2.079-7.039-.047-.698-.215-1.369-.93-1.721-.577-.518-.114-1.145-.166-1.717-.127-1.382-.21-2.762-1.602-3.885-.188 4.711-.718 9.15-2.56 13.323-.106.242-.331.585.153.715.394.105.652-.048.903-.397.52-.717.492-1.798 1.462-2.208.377 1.249-1.09 2.085-.756 3.324.508-.002 1.079.224 1.417-.395" mask="url(#colibri__h)"/></g><path fill="#FDFDFD" d="M41.1 13.804c.253.604.06 1.1-.374 1.535-.418-.645-.232-1.141.374-1.535M27.968 46.543c.06-.19-.131-.567.35-.445l-.35.445m-.766-2.285c-.074.32-.039.803-.594.396.102-.277.133-.66.594-.396M38.004 26.1a.323.323 0 11-.646.002.323.323 0 01.646-.001"/></g></g></svg>