<svg xmlns="http://www.w3.org/2000/svg" viewBox="0 0 80 80"><circle cx="40" cy="40" r="40" fill="#daac47"/><path fill="#fff" d="M18.8 40c0-5.2.1-10.4 0-15.5-.1-3.7 2.6-6.1 6.1-6.1 10.4.1 20.8.1 31.2.1 3.5 0 5.7 2.1 5.7 5.6 0 10.6.1 21.2.1 31.8 0 3.4-2.3 5.6-5.7 5.6-10.4 0-20.8-.1-31.2 0-3.4 0-6.3-2.5-6.2-6.2.1-5-.1-10.1 0-15.3-.1 0 0 0 0 0zm4.4 2.6c-.1 0-.2 0-.3.1v13.1c0 1.2.4 1.7 1.7 1.7h31.5c1.2 0 1.7-.3 1.7-1.6-.1-4-.1-8 0-12 0-1.1-.2-1.5-1.4-1.5-4 .1-8.1 0-12.1 0-.7 0-1.4 0-1.9-.8-2.3-4-4.6-8.1-6.9-12.1-.6-1-.2-1.5.8-1.8 1.9-.6 3.8-1.2 5.7-1.9 1.1-.4 1.8-.2 2.4.9 1.5 2.8 3.2 5.6 4.8 8.4.4.7.9 1 1.7 1 1.9-.1 3.7-.1 5.6 0 1.1 0 1.3-.4 1.3-1.3V24.6c0-1.9 0-2-1.9-2H24.1c-.8.1-1.2.5-1.2 1.3v7.2c0 .8.3 1 1 .7 1.8-.6 3.7-1.2 5.5-1.8 1.4-.5 2.3-.2 3.1 1.1 2.2 4 4.6 7.9 6.8 11.9.7 1.3 1.6 1.8 3.1 1.8 4.2-.1 8.4 0 12.5 0 2.2 0 2.9 1.1 1.9 3-.9 1.6-1.5 3.3-2.2 4.9-.5 1.2-1.2 1.6-2.5 1.6-6.7-.1-13.3-.1-20 0-1.5 0-2.4-.4-3.1-1.7-2-3.4-3.9-6.7-5.8-10zm13.7 1.3c0-.1-.1-.3-.2-.5-2-3.5-4-7-6-10.4-.4-.7-.9-.7-1.6-.5-2 .7-4 1.5-6 2-1.3.3-1.4.8-.8 1.8l7.5 12.9c.5.9 1 1 1.8.3 1.6-1.5 3.2-2.9 4.7-4.4.3-.3.6-.6.6-1.2z"/></svg>