<svg xmlns="http://www.w3.org/2000/svg" width="41" height="40" fill="none"><path fill="#F66303" fill-rule="evenodd" d="M20.5 40c11.046 0 20-8.954 20-20s-8.954-20-20-20S.5 8.954.5 20s8.954 20 20 20z" clip-rule="evenodd"/><path fill="#fff" fill-rule="evenodd" d="M6.189 18c-.655 0-.689.499-.689.638v4.26h.861V20.89h1.63v-.883H6.373v-.939c0-.107.027-.174.197-.174h1.315c.405 0 .738-.43.738-.894H6.189zm4.328 4.247s-1.389.232-1.389-.4c0-.633 1.39-.4 1.39-.4v.8zm-.758-2.913s-.642.012-1.136.233c0 .487.31.72 1.045.615.734-.105.85.162.85.58-.357 0-2.228-.163-2.228 1.102 0 1.265 1.125 1.311 3.054 1.033v-2.251c0-.836-.551-1.312-1.585-1.312zm2.25 3.563V20.49c0-.743.46-1.35 1.941-1.2 0 0 .13.741-.563.811-.23.024-.35.132-.413.234a.507.507 0 00-.069.267v2.296h-.895zm17.863 0V20.49c0-.743.459-1.35 1.94-1.2 0 0 .129.741-.563.811-.23.024-.35.132-.413.234a.506.506 0 00-.069.267v2.296h-.895zm-13.557-2.53h-.838v-1.276c0-.14.103-.267.253-.267h.597c.5 0 .664.43.665.754.002.314-.16.79-.677.79zM16.5 18h-.873c-.459 0-.987.209-.987.986v3.911h.85v-1.712h.987c.631 0 1.355-.585 1.355-1.653S17.108 18 16.499 18zm3.418 4.117c-.542 0-.818-.3-.818-1.064s.233-1.05.818-1.05c.584 0 .841.33.841 1.078s-.3 1.037-.841 1.037zm-.014-2.991c-.855 0-1.745.522-1.745 1.92 0 1.399.81 1.95 1.745 1.95.936 0 1.797-.528 1.797-1.898 0-1.369-.942-1.972-1.797-1.972zm4.822.487c-.723-.43-1.75-.348-2.164 0-.202.17-.34.486-.335.82.004.35.17.72.777.927.486.165.726.306.805.448.04.07.024.162-.031.219-.123.126-.466.23-1.542-.112 0 0-.11.665-.162.857.964.371 2.011.262 2.428-.078.365-.298.44-1.243-.063-1.525-.228-.127-.452-.26-.67-.344-.39-.152-.71-.244-.642-.522.112-.45.71-.011 1.065-.046.356-.035.557-.302.534-.644zM26.235 18v1.22h.904v.84h-.89v1.706c0 .212.25.374.417.374.166 0 .504-.015.504-.015v.801s-.39.008-.712.008c-.57 0-1.065-.339-1.065-1.064V18h.842zm2.853 4.595a.502.502 0 01-.5.505.502.502 0 01-.5-.505c0-.278.224-.505.5-.505s.5.227.5.505zm4.116-3.197v2.13c0 .313.04 1.015 1.418.678v-2.843h.878v3.51s-.723.215-1.516.215c-.792 0-1.693-.168-1.693-1.67V19.38l.913.017z" clip-rule="evenodd"/></svg>