<svg xmlns="http://www.w3.org/2000/svg" xmlns:xlink="http://www.w3.org/1999/xlink" width="60" height="60"><defs><path id="a-mobile__a" d="M30.96 0H0v30.807h30.96V0z"/></defs><g fill="none" fill-rule="evenodd"><path fill="#F51212" d="M30 0c16.569 0 30 13.432 30 29.995v.01C60 46.571 46.572 60 30 60 13.431 60 0 46.572 0 30 0 13.431 13.428 0 30 0z"/><g transform="translate(14 14)"><mask id="a-mobile__b" fill="#fff"><use xlink:href="#a-mobile__a"/></mask><path fill="#FDFDFD" d="M18.59 3.537c.99 1.566 1.93 2.928 2.738 4.364.813 1.445 1.476 2.973 2.254 4.439.142.266.502.528.797.58 1.033.178 2.083.263 3.138.385-.002-4.03-4.234-8.703-8.928-9.768m-7.436 11.965c3.09-1.128 5.834-2.13 8.729-3.189a10158.05 10158.05 0 01-3.525-6.89l-5.204 10.079m-5.541 7.042c1.256-3.416 2.306-6.778 3.721-9.977 1.424-3.217 3.212-6.274 4.864-9.447-4.567.715-8.04 3.062-9.914 7.4-1.803 4.174-1.262 8.2 1.329 12.024m19.348-7.018c.348 1.869.7 3.492.939 5.133.146 1.004.057 2.029-1.254 2.237-1.348.214-1.73-.697-2.004-1.781-.41-1.61-.842-3.218-1.39-4.783-.122-.35-.777-.76-1.162-.736-4.804.302-9.696 4.213-11.155 8.827-.221.7-.19 1.294.61 1.576 1.387.49 2.764 1.305 4.175 1.377 4.437.222 8.888.18 13.332.17.284 0 .784-.576.81-.912.096-1.29.04-2.592.04-3.89v-6.846l-2.94-.372m5.999-1.967v13.919c0 1.833-1.48 3.345-3.313 3.33h-.041c-4.124-.056-8.25.018-12.373-.03C7.296 30.686.886 24.73.075 16.745-.705 9.073 4.743 1.93 12.616.306 20.164-1.25 27.864 3.272 30.24 10.668c.226.707.417 1.425.617 2.14.068.245.104.497.104.751" mask="url(#a-mobile__b)"/></g></g></svg>