<svg xmlns="http://www.w3.org/2000/svg" width="40" height="40" fill="none"><circle cx="20" cy="20" r="20" fill="#003392"/><path fill="#fff" d="M13.616 21.395c0 .758-.082 1.42-.246 1.985a3.2 3.2 0 01-.794 1.402 4.76 4.76 0 01-1.232.899c-.472.236-1.337.355-1.963.338-.627-.016-1.587-.13-2.123-.344-.469-.187-.894-.528-1.218-.864a3.376 3.376 0 01-.8-1.389C5.08 22.88 5 22.214 5 21.424l.005-6.419H6.78v6.319c0 .565.037 1.012.11 1.34.077.326.205.623.383.89.2.304.472.533.814.687.347.154.762.231 1.246.231.488 0 .903-.075 1.246-.224.342-.154.616-.386.821-.694.178-.267.303-.57.376-.912.078-.346.117-.774.117-1.283v-6.353l1.723.001v6.388zM35 19.491c-.209-.013-.604 0-.945.017-.776.037-1.69.572-1.766 1.308l.008 4.942-1.697.001-.01-7.966 1.704.003.006 1.128c.617-.842 1.117-1.15 2.027-1.264.207-.026.423-.02.663.019l.01 1.812zm-5.756 6.268h-1.846v-7.967h1.849l-.003 7.967zm.001-8.93l-1.847-.002V15h1.848v1.829zm-4.893 6.575l-.014-1.421-.919.07c-1.81.136-2.695.536-2.726 1.55-.012.376.093.612.377.834.291.21.524.255 1.02.255.451 0 .848-.103 1.27-.307.423-.205.75-.63.992-.981zm.004 1.376c-.52.833-1.439 1.293-2.62 1.215-.765-.051-1.499-.207-1.994-.622-.495-.42-.828-1.18-.783-1.837.149-2.195 1.953-2.434 4.77-2.62l.605-.04c0-.557-.05-.98-.107-1.228-.253-.682-.968-.864-1.408-.898-1.08-.05-1.733.566-1.834 1.437l-1.64-.02c.102-1.594 1.274-2.672 3.396-2.672.991 0 1.723.337 2.277.732.554.395.89 1.271.89 2.427l-.004 5.103h-1.535l-.013-.977zm-5.96 1.01a4.18 4.18 0 01-.993.084c-.537-.012-.896-.172-1.146-.376-.25-.209-.417-.493-.526-.803-.091-.26-.175-.753-.175-1.32v-4.318l-1.149-.004.01-1.284 1.129-.006v-2.094l1.716.005v2.099l1.25.01c.04.26.011 1.264.011 1.264h-1.266l.03 4.283c.004.541.088.747.213.896.13.144.306.216.528.216.227 0 .164.01.372-.03l-.005 1.377z"/></svg>