<svg xmlns="http://www.w3.org/2000/svg" xmlns:xlink="http://www.w3.org/1999/xlink" width="80" height="80"><defs><path id="booking__a" d="M.364 11.792h68.907V.1H.364v11.692z"/></defs><g fill="none" fill-rule="evenodd"><circle cx="40" cy="40" r="40" fill="#0D2984"/><g transform="matrix(1 0 0 -1 5.365 46.291)"><mask id="booking__b" fill="#fff"><use xlink:href="#booking__a"/></mask><g mask="url(#booking__b)" transform="translate(6.563 2.333)"><path fill="#FFF" d="M20.824 8.179a1.047 1.047 0 102.094 0 1.048 1.048 0 00-2.094 0"/><path fill="#499FDD" d="M37.344 1.196a1.048 1.048 0 102.094 0 1.048 1.048 0 00-2.093 0"/><path fill="#FFF" fill-rule="nonzero" d="M3.64 1.65c-.902 0-1.529.716-1.529 1.74 0 1.023.627 1.738 1.529 1.738.907 0 1.54-.715 1.54-1.738 0-1.04-.62-1.74-1.54-1.74zm0 5.007C1.732 6.657.347 5.283.347 3.39.347 1.497 1.732.122 3.64.122c1.915 0 3.305 1.375 3.305 3.268 0 1.893-1.39 3.267-3.305 3.267z"/><path fill="#FFF" d="M18.796 3.226a1.57 1.57 0 01-.25.352l-.057.06.06.06c.088.091.177.2.264.328l1.683 2.502h-2.043l-1.265-1.957c-.072-.105-.217-.158-.433-.158h-.288v3.701c0 .74-.462.841-.96.841h-.853l.002-8.737h1.81V2.84h.17c.207 0 .347-.024.412-.136l.999-1.886c.279-.511.557-.599 1.08-.599h1.388l-1.034 1.71-.685 1.298m8.792 3.445c-.922 0-1.51-.409-1.839-.755l-.11-.111-.038.151c-.097.37-.423.575-.914.575h-.812L23.88.22h1.799v2.908c0 .284.037.531.112.756.2.682.759 1.105 1.457 1.105.561 0 .78-.296.78-1.062V1.18c0-.654.303-.96.957-.96h.856l-.003 4.014c0 1.594-.778 2.437-2.25 2.437m-5.695-.143h-.853l.006-4.879V.22h.91l.032-.001.424.001h.421v.003h.003l.004 5.348c0 .645-.309.958-.947.958"/><path fill="#FFF" fill-rule="nonzero" d="M10.705 1.65c-.902 0-1.53.716-1.53 1.74 0 1.023.628 1.738 1.53 1.738.905 0 1.54-.715 1.54-1.738 0-1.04-.62-1.74-1.54-1.74zm0 5.007c-1.91 0-3.295-1.374-3.295-3.267 0-1.893 1.385-3.268 3.295-3.268 1.913 0 3.305 1.375 3.305 3.268 0 1.893-1.392 3.267-3.305 3.267z"/></g></g><g fill-rule="nonzero"><path fill="#499FDD" d="M61.186 42.308c-.901 0-1.53-.717-1.53-1.74 0-1.023.629-1.739 1.53-1.739.905 0 1.54.716 1.54 1.739 0 1.04-.62 1.74-1.54 1.74zm0-5.008c-1.91 0-3.294 1.375-3.294 3.268 0 1.893 1.385 3.267 3.294 3.267 1.913 0 3.306-1.374 3.306-3.267 0-1.893-1.393-3.268-3.306-3.268z"/><path fill="#FFF" d="M45.558 42.03c-.984 0-1.334-.858-1.334-1.662 0-.354.09-1.509 1.24-1.509.57 0 1.332.164 1.332 1.568 0 1.325-.674 1.603-1.238 1.603zm2.171-4.617c-.34 0-.604.136-.735.384l-.05.097-.083-.073c-.29-.25-.811-.549-1.656-.549-1.682 0-2.815 1.263-2.815 3.143 0 1.878 1.172 3.19 2.848 3.19.573 0 1.025-.133 1.384-.405l.139-.104v.175c0 .843-.545 1.308-1.533 1.308-.48 0-.917-.117-1.21-.223-.381-.115-.605-.02-.76.363l-.142.353-.202.516.125.067a4.912 4.912 0 002.2.536c1.531 0 3.32-.785 3.32-2.991l.006-5.787h-.835z"/></g><path fill="#FFF" fill-rule="nonzero" d="M8.869 42.236l-1.465-.002v-1.75c0-.375.145-.57.466-.614h.999c.712 0 1.173.45 1.173 1.177 0 .746-.45 1.188-1.173 1.189zm-1.465-4.723v-.46c0-.404.171-.595.545-.62h.75c.642 0 1.027.385 1.027 1.028 0 .49-.263 1.063-1.004 1.063H7.404v-1.01zm3.334 1.747l-.264-.148.23-.198c.27-.231.72-.75.72-1.648 0-1.373-1.065-2.26-2.714-2.26H6.615a.918.918 0 00-.886.907v7.795h3.018c1.833 0 3.016-.998 3.016-2.543 0-.832-.382-1.543-1.025-1.905z"/><path fill="#499FDD" d="M72.527 37.307a2.48 2.48 0 00-1.931.936l-.13.165-.103-.185c-.333-.607-.906-.916-1.704-.916-.836 0-1.396.467-1.657.744l-.17.185-.066-.243c-.095-.35-.406-.542-.878-.542h-.756l-.007 6.285h1.718v-2.774c0-.243.03-.484.09-.735.165-.67.616-1.392 1.373-1.32.467.045.695.406.695 1.103v3.726h1.73v-2.774c0-.304.029-.531.097-.76.14-.64.61-1.296 1.34-1.296.53 0 .725.3.725 1.104v2.807c0 .635.283.92.918.92h.808l.002-4.013c0-1.603-.706-2.417-2.095-2.417m-15.628 4.247c-.005.006-.745.786-1.718.786-.886 0-1.782-.544-1.782-1.759 0-1.048.695-1.781 1.689-1.781.322 0 .69.115.747.31l.009.033a.631.631 0 00.611.464l.942.001v-.822c0-1.085-1.38-1.479-2.31-1.479-1.986 0-3.427 1.383-3.427 3.287s1.426 3.285 3.391 3.285c1.706 0 2.633-1.121 2.642-1.132l.049-.061-.745-1.236-.098.104"/></g></svg>