<svg xmlns="http://www.w3.org/2000/svg" xmlns:xlink="http://www.w3.org/1999/xlink" width="60" height="60"><defs><path id="sotel-ssb__a" d="M30 60c16.569 0 30-13.431 30-30C60 13.431 46.569 0 30 0 13.431 0 0 13.431 0 30c0 16.569 13.431 30 30 30z"/></defs><g fill="none" fill-rule="evenodd"><use fill="#2F47A3" xlink:href="#sotel-ssb__a"/><path fill="#FFF" d="M26.172 28.922l-.817 2.948-.767-3.774-.34-.278-.838-.48-.74 5.097-1.617-6.45-.016-.01-.141.08-.72 7.607-1.369-6.433-.546.307c-.26 2.708-.702 7.248-.77 7.446-.075.223-1.106-4.252-1.538-6.15l-.322.183c-.265 1.989-.825 6.245-.825 6.534 0 .269-.782-3.312-1.23-5.38l-.535.3L13 39.53l7.955 4.564 7.996-4.494.041-9.059-2.82-1.618zm6.465-1.422l-2.207-2.15 3.718 1.199.413-.153.838-.482-4.148-3.143 6.505 1.79.016-.009-.001-.16-6.378-4.36 6.367 1.994-.003-.619c-2.269-1.555-6.07-4.169-6.212-4.324-.16-.174 4.308 1.146 6.2 1.71l-.002-.367c-1.631-1.204-5.122-3.778-5.377-3.92-.238-.133 3.315.96 5.366 1.594l-.003-.607L29.732 11l-7.954 4.566.042 9.059 7.997 4.493 2.82-1.619zm3.041.098l2.21 2.148-3.718-1.195-.413.154-.838.483 4.153 3.137-6.508-1.78-.016.009.002.16 6.385 4.349-6.37-1.984.004.62c2.271 1.551 6.076 4.16 6.218 4.314.16.174-4.31-1.138-6.202-1.7l.002.366c1.633 1.203 5.128 3.771 5.384 3.913.238.132-3.317-.954-5.369-1.585l.004.606 8.005 4.48 7.946-4.578-.057-9.059-8.004-4.48-2.818 1.622z"/></g></svg>