<svg xmlns="http://www.w3.org/2000/svg" width="40" height="40" fill="none"><circle cx="20" cy="20" r="20" fill="#578AC9"/><path fill="#fff" fill-rule="evenodd" d="M29.454 17c-1.958 0-3.546 1.597-3.546 3.568 0 1.97 1.588 3.568 3.546 3.568 1.959 0 3.546-1.597 3.546-3.568C33 18.598 31.413 17 29.454 17zm-.406 2.814h-.792v2.578h-.643v-2.578h-.814v-.228c0-.091.032-.169.095-.232a.314.314 0 01.231-.096h1.923v.556zm1.956 2.578h-.616l-1.017-3.134h.716l.6 2.292.545-2.055c.037-.158.14-.237.308-.237h.462l-.998 3.134zm-9.82-4.053h.422a.393.393 0 01.398.389v3.664h-.82V18.34zm-10.397 4.053h.808V20.39c0-.188.057-.326.17-.412a.61.61 0 01.38-.13c.142 0 .268.043.382.13.113.086.17.224.17.412v1.603c0 .117.036.214.11.288.075.075.17.112.287.112h.41v-1.838c0-.55-.144-.915-.433-1.096a1.755 1.755 0 00-.949-.27 2.321 2.321 0 00-.497.076c-.16.043-.299.116-.416.218a1.107 1.107 0 00-.468-.236 2.363 2.363 0 00-.527-.059 1.81 1.81 0 00-.92.294c-.277.181-.415.539-.415 1.073v1.838h.82V20.39c0-.188.054-.326.163-.412a.612.612 0 01.755 0c.113.086.17.224.17.412v2.003zm-2.972-3.134h-.421v3.134h.819V19.66a.388.388 0 00-.117-.283.383.383 0 00-.281-.118zm7.187 3.888c0 .11-.039.204-.117.283a.383.383 0 01-.28.118h-.399v-2.934c0-.55.16-.925.48-1.125.32-.2.668-.3 1.043-.3.195 0 .392.037.59.111.2.075.358.183.475.324.234.306.351.7.351 1.178 0 .495-.117.896-.35 1.202a1.096 1.096 0 01-.903.448c-.195 0-.367-.035-.515-.106a.882.882 0 01-.375-.365v1.166zm1.335-2.31c0-.306-.058-.541-.175-.706a.58.58 0 00-.504-.248.569.569 0 00-.492.248c-.11.149-.164.385-.164.707 0 .298.059.522.176.671a.58.58 0 00.504.248.558.558 0 00.48-.248c.117-.165.175-.389.175-.671zm4.146.26v-1.838h-.41a.378.378 0 00-.287.117.398.398 0 00-.112.283v1.603c0 .188-.056.326-.17.412a.612.612 0 01-.755 0c-.11-.086-.164-.224-.164-.412v-2.003h-.82v1.838c0 .542.14.9.416 1.072.277.173.584.267.92.283.343 0 .66-.087.948-.26.289-.172.434-.537.434-1.095zm2.904.26h-.796v.035c0 .346.112.609.339.79.218.18.55.27.995.27.469 0 .82-.086 1.054-.26.25-.188.375-.454.375-.8a.745.745 0 00-.222-.566c-.157-.133-.433-.251-.832-.353a.451.451 0 01-.1-.012 1.188 1.188 0 01-.122-.036c-.406-.086-.61-.192-.61-.317 0-.095.036-.165.106-.212.078-.048.195-.071.352-.071a.63.63 0 01.386.106l.031.031.063.063c.078.133.191.2.34.2h.503a1.04 1.04 0 00-.363-.766c-.242-.18-.566-.27-.972-.27-.375 0-.68.09-.913.27a.94.94 0 00-.34.743c0 .235.078.424.234.565.14.142.418.264.832.365.07.024.175.048.316.071.328.07.492.177.492.318 0 .094-.047.17-.14.224a.751.751 0 01-.364.082c-.195 0-.351-.039-.468-.117a.435.435 0 01-.176-.354zM7.685 18.077a.102.102 0 11-.204 0 .102.102 0 01.204 0zm.57.102a.102.102 0 100-.204.102.102 0 000 .204zm-.373.76a.464.464 0 01-.027.001l-.016.001-.062.001A.777.777 0 017 18.186V17.021c.075 0 .126.006.232.137l.232.29h.68s.125-.16.23-.29c.107-.131.157-.137.233-.137v1.168a.773.773 0 01-.725.75zm-.156-.862a.26.26 0 00-.259-.26.26.26 0 00-.258.26c0 .144.116.26.258.26a.26.26 0 00.259-.26zm.155 0c0 .144.115.26.258.26a.26.26 0 00.259-.26.26.26 0 00-.259-.26.26.26 0 00-.258.26z" clip-rule="evenodd"/></svg>