<svg xmlns="http://www.w3.org/2000/svg" xmlns:xlink="http://www.w3.org/1999/xlink" width="60" height="60"><defs><path id="direct__a" d="M29.703 59.405c16.404 0 29.702-13.298 29.702-29.702C59.405 13.298 46.107 0 29.703 0 13.298 0 0 13.298 0 29.703c0 16.404 13.298 29.702 29.703 29.702z"/></defs><g fill="none" fill-rule="evenodd"><mask id="direct__b" fill="#fff"><use xlink:href="#direct__a"/></mask><use fill="#F4F4F4" xlink:href="#direct__a"/><g mask="url(#direct__b)"><path fill="#FC0" d="M15 14.82v30.09h6.222V34.88H23v10.03h6.222V34.88H31v2.736h5.333V34.88h8V14.821z"/><path fill="#222" d="M23 20.291h13.333v2.735H23v-2.735zm0 5.47h13.333v2.736H23v-2.735z"/><path fill="#DFB200" d="M40.778 43.085H47l-2.667-8.206h-6.222z"/></g></g></svg>