<svg xmlns="http://www.w3.org/2000/svg" width="41" height="40" fill="none"><circle cx="20.5" cy="20" r="20" fill="#F56C2D"/><path fill="#fff" fill-rule="evenodd" d="M11.114 19.357a1.38 1.38 0 10-.183 2.754 1.38 1.38 0 00.183-2.754zm.301 4.878a3.522 3.522 0 01-3.517-5.13 7.318 7.318 0 012.968-3.091.098.098 0 01.127.146 2.337 2.337 0 00-.417 1.022.049.049 0 00.053.052 3.522 3.522 0 013.517 5.13 7.32 7.32 0 01-2.967 3.091h-.001c-.005.004-.027.016-.056.014a.098.098 0 01-.07-.16c.222-.307.362-.659.417-1.021a.05.05 0 00-.054-.053zm20.1-4.16c.2-.259.487-.505.93-.505.66 0 1.055.436 1.055 1.142v1.933a.098.098 0 01-.098.098h-.894a.097.097 0 01-.098-.097v-1.585c0-.338-.178-.521-.436-.521-.264 0-.46.183-.46.521v1.6c0 .045-.045.081-.094.082h-.895a.1.1 0 01-.1-.098v-2.908c0-.054.043-.098.098-.098h.894c.054 0 .098.044.098.096v.34zm-9.863.19c.166-.398.428-.664.884-.678.054 0 .098.043.098.097v.953a.098.098 0 01-.098.098c-.565.003-.884.33-.884 1.044v.866a.098.098 0 01-.098.098h-.894a.098.098 0 01-.098-.098v-2.908c0-.054.044-.098.098-.098h.894c.054 0 .098.044.098.098v.527zm4.787 1.364c.367 0 .631-.258.631-.602v-.011c0-.344-.264-.597-.631-.597-.373 0-.637.258-.637.602v.012c0 .345.264.596.637.596zm1.552-2.336a.098.098 0 01.153.081v2.623c0 .568-.127.964-.402 1.24-.282.28-.718.436-1.366.436-.568 0-1.05-.114-1.477-.319a.098.098 0 01-.035-.127l.267-.55c.019-.044.082-.061.132-.035a2.1 2.1 0 00.992.245c.546 0 .815-.27.815-.764v-.12c-.218.252-.505.464-.958.464-.763 0-1.377-.55-1.377-1.44v-.011c0-.895.625-1.452 1.343-1.452h.96c.025 0 .05.01.07.03l.173.173.71-.474zm.848.346h.895c.054 0 .098.044.098.098v2.922c0 .044-.046.084-.096.084h-.894a.1.1 0 01-.1-.098v-2.908c0-.054.043-.098.097-.098zm-5.602 0h.894c.054 0 .098.044.098.098v2.922c0 .047-.046.084-.095.084h-.895a.1.1 0 01-.1-.098v-2.908c0-.054.043-.098.098-.098zm-5.314 2.18c.614 0 1.022-.493 1.022-1.073v-.011c0-.58-.42-1.085-1.033-1.085-.609 0-1.016.494-1.016 1.073v.012c0 .579.419 1.084 1.027 1.084zm-2.169-1.084c0-1.154.93-2.089 2.17-2.089 1.239 0 2.157.924 2.157 2.077v.012c0 1.153-.93 2.089-2.17 2.089-1.24 0-2.157-.925-2.157-2.078v-.011zm12.923-2.092a.61.61 0 111.22 0 .61.61 0 01-1.22 0zm-5.602 0a.61.61 0 111.218 0 .61.61 0 01-1.218 0z" clip-rule="evenodd"/></svg>