<svg xmlns="http://www.w3.org/2000/svg" viewBox="0 0 80 80"><circle cx="40" cy="40" r="40" fill="#17726e"/><path fill="#f2f2f2" d="M53.7 46.7v-6.1H46v6.1h-2.2V33.1H46v5.8h7.7v-5.8h2.2v13.5l-2.2.1zM24.5 33.1h2.2v13.5h-2.2V33.1zm-5.3 0l-4.3 9.2-4.4-9.2H8.2l6.7 13.5 6.6-13.5h-2.3zM37 44.8c-3.2 0-5.6-2.1-5.6-5s2.4-5 5.6-5c1.4 0 2.7.5 3.7 1.2v-2c-1.2-.6-2.4-.9-3.7-.9-4.2 0-7.6 3-7.6 6.8s3.4 6.8 7.6 6.8c1.4 0 2.6-.3 3.7-.9v-2.1c-1 .7-2.3 1.1-3.7 1.1zm34.8-11.7l-6 7.7v5.8h-2v-5.8l-6-7.7h2.4l4.7 6 4.7-6h2.2z"/></svg>