<svg xmlns="http://www.w3.org/2000/svg" viewBox="0 0 80 80"><circle cx="40" cy="40" r="40" fill="#00a0fd"/><path fill="#fff" d="M71.1 39.2h-1.2v-2.4h1.2c.7.1 1.1.4 1.1 1.2 0 .8-.5 1.1-1.1 1.2m0-4.1h-3.7v9H70V41h1.1c2.3 0 3.7-1.1 3.7-2.9 0-1.9-1.2-2.9-3.7-3M61.6 37c1.6 0 2.2 1.3 2.2 2.9 0 1.5-.6 2.9-2.2 2.9s-2.2-1.4-2.2-2.9c0-1.6.6-2.9 2.2-2.9m0 7.6c3.2 0 4.9-1.8 4.9-4.6 0-2.9-1.7-4.7-4.9-4.7s-4.9 1.8-4.9 4.7c0 2.8 1.7 4.6 4.9 4.6m-9.3-3.4c-.3.1-.6.2-1 .2v-3.7c.4 0 .7.1 1 .2.6.3 1 .9 1 1.6-.1.8-.5 1.4-1 1.7zm-3.6.2c-.4 0-.7-.1-1-.2-.6-.3-1-.9-1-1.6 0-.8.4-1.3 1-1.6.3-.1.6-.2 1-.2v3.6zm7.2-1.8c0-2.2-1.5-3.4-3.6-3.6-.3 0-.6-.1-1-.1v-.8h-2.6v.8c-.3 0-.6 0-1 .1-2.1.3-3.7 1.5-3.7 3.6s1.5 3.3 3.7 3.6c.3 0 .6.1 1 .1v.8h2.6v-.8c.3 0 .7 0 1-.1 2.1-.2 3.6-1.4 3.6-3.6zm-16.6 1.5h-1.4l1.4-3.9.1-.3 1.3 4.2h-1.4zm2.5 3h3l-3.8-9h-3.2l-3.7 9h2.7l.5-1.3h4.1l.4 1.3zm-13-1.7v-2.1H30c.8.1 1.5.2 1.5 1.1 0 .8-.7 1-1.5 1h-1.2zm0-5.6h1.3c.7 0 1.2.2 1.2.9 0 .6-.6.8-1.2.9h-1.2v-1.8zm1.5 7.3c1.7 0 3.8-.5 3.8-2.6 0-1.1-.7-1.8-2-2 1.1-.3 1.7-1 1.7-2.1 0-1.5-1.3-2.3-3.2-2.3h-4.5v9h4.2zm-11.3 0h-2.6v-9H19v3.7l2.9-3.7H25l-3.6 4.2 3.9 4.8H22L19 40v4.1zm-8.7-3H8.9l1.4-4 .1-.2 1.3 4.2h-1.4zm1.8-6H8.8l-3.7 9h2.7l.5-1.3h4.1l.4 1.3h3l-3.7-9z"/></svg>