<svg xmlns="http://www.w3.org/2000/svg" viewBox="0 0 40 40"><g data-name="лого игры"><circle cx="20" cy="20" r="20" fill="#3a5c9b"/><path fill="#fff" d="M36.5 19l-4.5.34a16.4 16.4 0 011.93-2c.6-.57 1.41-1 1.82-2a42.76 42.76 0 01-4.8 2.15l-.15-.19 2.76-5.1-.2-.16a32.69 32.69 0 01-4.23 3.78l1.43-6.54-.27-.1A38.85 38.85 0 0127 14.92c-.28-2.36-.06-4.7-.47-7q-1.18 3.4-2.35 6.82h-.25L22.53 8h-.21q-.37 3.47-.77 6.93h-.27q-1.34-3.39-2.65-6.78c-.06 2.41.47 4.75.44 7.13l-.24.06-2.45-3.87-.22.09c.35 1.56.69 3.11 1 4.67l-.27.16-2.42-2.18-.19.14c.5 1.19 1 2.39 1.47 3.57L5.66 23.05l-.38-.3a.69.69 0 00-1 .1.68.68 0 00.1 1 2.15 2.15 0 001.36.24h25.89l.43-1.09a19.18 19.18 0 003.66-.45v-.25l-3.33-.67v-.24c.71-.37 1.44-.71 2.13-1.1S36 19.83 36.5 19zm-25.36 4a.44.44 0 010-.88.44.44 0 010 .88zm2.48 0a.44.44 0 11.44-.44.44.44 0 01-.44.44z"/></g></svg>