<svg xmlns="http://www.w3.org/2000/svg" width="41" height="40" fill="none"><path fill="#000" fill-rule="evenodd" d="M20 40c11.046 0 20-8.954 20-20S31.046 0 20 0 0 8.954 0 20s8.954 20 20 20z" clip-rule="evenodd"/><path fill="#F70808" d="M19.686 23.234H7.522A.523.523 0 017 22.712v-5.19c0-.287.235-.522.522-.522h12.164c.288 0 .523.235.523.522v5.19a.524.524 0 01-.523.522z"/><path fill="#fff" fill-rule="evenodd" d="M12.365 21.826v-3.418h2.142v.717h-1.305v.622h1.042v.717h-1.042v.645h1.371v.717h-2.208zm-3.146 0v-3.418h1.19c.303 0 .525.027.665.081.198.077.352.2.464.371.111.17.167.378.167.624 0 .19-.044.373-.134.547a.857.857 0 01-.377.385v.01c.031.04.075.109.129.205l.664 1.195h-.932l-.607-1.152h-.392v1.153H9.22zm.837-1.869h.363a.446.446 0 00.32-.11.41.41 0 00.115-.31c0-.188-.067-.31-.2-.363a.823.823 0 00-.316-.048h-.282v.831zm5.053-1.549v3.418h1.214c.542 0 .972-.152 1.289-.457.317-.303.476-.723.476-1.259 0-.532-.16-.949-.476-1.25-.317-.301-.747-.452-1.288-.452h-1.215zm1.18 2.701h-.344v-1.984h.345c.29 0 .518.085.683.254.166.17.249.413.249.731 0 .322-.082.569-.246.741-.165.172-.393.258-.686.258zM25.47 18.367l-1.161 3.418h.86l.206-.717h1.066l.21.717h.86l-1.16-3.418h-.88zm.775 2.032h-.674l.196-.664c.041-.144.088-.34.139-.588h.009l.139.588.19.664zm-4.78.86v.527h2.667v-.717h-1.348a2.1 2.1 0 00-.263.015v-.01l.033-.033c.023-.02.056-.055.098-.106.044-.051.087-.108.132-.172l1.324-1.879v-.516h-2.581v.717h1.257a2.1 2.1 0 00.263-.014v.009l-.034.029a2.389 2.389 0 00-.23.282l-1.319 1.869zm6.391.526v-3.418h.836v3.418h-.836zm1.702-3.418l-.282 3.418h.842l.106-1.538a4.379 4.379 0 000-.574h.01l.19.574.358.99h.718l.358-.99c.051-.144.115-.335.191-.574h.01l-.005.086a4.41 4.41 0 00.004.488l.105 1.539H33l-.277-3.418h-.909l-.497 1.444a9.35 9.35 0 00-.172.564h-.01l-.172-.565-.497-1.444h-.908z" clip-rule="evenodd"/></svg>