<svg xmlns="http://www.w3.org/2000/svg" xmlns:xlink="http://www.w3.org/1999/xlink" width="80" height="80"><defs><circle id="catalog-henderson__a" cx="40" cy="40" r="40"/></defs><g fill="none" fill-rule="evenodd"><use fill="#1B2A4D" xlink:href="#catalog-henderson__a"/><g fill="#FFF"><path d="M49.419 49.54h-5.4v-7.41h-8.163v7.41h-5.4V30.577h5.4v6.781h8.163v-6.781h5.4z"/><path d="M63.61 42.381l2.385-2.386-2.386-2.386L61.6 35.6c1.633-2.135 2.512-4.772 2.512-7.535a12.38 12.38 0 00-12.433-12.432c-2.763 0-5.4.879-7.535 2.511l-2.01-2.01L39.875 14l-2.386 2.386-1.883 2.01c-2.135-1.633-4.772-2.512-7.535-2.512a12.38 12.38 0 00-12.433 12.432c0 2.763.88 5.4 2.512 7.535l-2.01 2.01-2.386 2.386 2.387 2.386 2.009 2.009c-1.633 2.135-2.512 4.772-2.512 7.535A12.38 12.38 0 0028.07 64.609c2.763 0 5.4-.879 7.535-2.511l2.009 2.009L40 66.493l2.386-2.386 2.01-2.01c2.134 1.633 4.771 2.512 7.534 2.512a12.38 12.38 0 0012.433-12.432c0-2.763-.88-5.4-2.512-7.535l1.758-2.26zm-2.763 9.545a9.004 9.004 0 01-9.042 9.041c-2.512 0-4.898-1.13-6.53-2.762L44.27 57.2 40 61.47l-4.395-4.27-1.005 1.005a9.091 9.091 0 01-6.656 2.888 9.004 9.004 0 01-9.042-9.042c0-2.511 1.005-4.898 2.763-6.53l1.13-1.13-4.27-4.27 4.27-4.27-1.004-1.13c-1.758-1.633-2.763-4.019-2.763-6.53a9.004 9.004 0 019.042-9.042c2.637 0 4.897 1.13 6.53 2.763l1.005 1.004 4.27-4.27 4.27 4.27 1.13-1.13c1.632-1.758 4.018-2.763 6.53-2.763a9.004 9.004 0 019.042 9.042c0 2.637-1.13 4.898-2.763 6.53l-1.13 1.256 4.27 4.27-4.27 4.144 1.004 1.005c1.758 1.758 2.889 4.018 2.889 6.656z"/></g></g></svg>