<svg xmlns="http://www.w3.org/2000/svg" xmlns:xlink="http://www.w3.org/1999/xlink" width="60" height="60"><defs><path id="etelecom__a" d="M29.703 59.405c16.404 0 29.702-13.298 29.702-29.702C59.405 13.298 46.107 0 29.703 0 13.298 0 0 13.298 0 29.703c0 16.404 13.298 29.702 29.703 29.702z"/><path id="etelecom__c" d="M0 30.822h30.673V.037H0z"/></defs><g fill="none" fill-rule="evenodd"><mask id="etelecom__b" fill="#fff"><use xlink:href="#etelecom__a"/></mask><use fill="#0A5792" xlink:href="#etelecom__a"/><g mask="url(#etelecom__b)"><g transform="translate(8 12.141)"><mask id="etelecom__d" fill="#fff"><use xlink:href="#etelecom__c"/></mask><path fill="#F1F1F1" d="M24.214.38c4.858 1.356 7.522 6.111 6.058 11.042-1.225 4.13-3.876 7.28-7.083 10.002-2.93 2.487-6.4 4.023-9.928 5.38-3.052 1.173-6.182 2.144-9.297 3.144-1.284.412-2.62.663-3.964.874 1.57-.49 3.148-.948 4.705-1.473 4.936-1.665 9.708-3.712 14.15-6.457 4.01-2.477 7.18-5.77 9.158-10.115.606-1.333.976-2.75.775-4.232-.404-2.992-2.774-5.19-5.786-5.63-5.803-.848-12.887 3.92-13.857 10.692-.517 3.61.94 6.484 3.769 8.687.581.452 1.211.842 1.988 1.378-1.114.558-2.179 1.016-3.166 1.606-1.284.766-2.244.51-3.336-.485-4.557-4.15-5.57-9.463-2.658-15.043C8.667 4.144 13.318.97 19.552.116c.196-.027 2.747-.271 4.662.263" mask="url(#etelecom__d)"/></g><path fill="#F1F1F1" d="M48.782 38.212c-8.762 4.917-17.859 5.289-27.393 2.104 1.725-.844 3.258-1.634 4.833-2.329.306-.135.801.043 1.168.184 3.93 1.519 7.975 2.334 12.205 2.084 2.967-.175 5.824-.866 8.621-1.842l.566-.2m6.088-2.348a2.78 2.78 0 01-2.775 2.787 2.78 2.78 0 01-2.775-2.787 2.78 2.78 0 012.775-2.787 2.78 2.78 0 012.774 2.787"/></g></g></svg>