<svg xmlns="http://www.w3.org/2000/svg" viewBox="0 0 40 40"><g data-name="лого игры"><circle cx="20" cy="20" r="20" fill="#344391"/><path fill="#fff" d="M30.39 21.76l.27-1.07 1.25 1.9-.12.16-1.19-.61-.15 1.63c-1.14.25-14.54.27-15.89 0l-2 3a4.91 4.91 0 011.21-2.69c-.82-.37-1.21.5-2 .65l1.45-3.36.22 2.24 2.67-4.68a2.16 2.16 0 00-.49-.2h-1.15l-1 1.83V7.08h7.93l-2.62 3.53 1.95 2.05 3-2.59-1.84-3h8.41A118 118 0 0130.42 20l-3.23-1a6.85 6.85 0 003.2 2.76zM18 12l-2.8 5 1.83.49 2.9-3.83zm8.63 2.46l-2.1-3.27-3 2.2 2.15 2zm-.46 3.67l2.91.62.17-.25-1.85-2.9-3.24.4a25.82 25.82 0 001.98 2.1zm-5.57-3.88l-2.92 3.34 1.77.47a16.75 16.75 0 003-2.28zM16.66 19L14 23.36c2.15-1.05 3.06-2.88 4.63-4.36zm6.56-2.53a13 13 0 00-2.82 1.79c1.61.65 3.05.21 4.71-.19zM8.93 32.94c.3-.9.58-1.8.88-2.7s.56-1.56.81-2.35a3.1 3.1 0 011.5-1.89 1.66 1.66 0 01-.12 1.54c-.83 1.61-1.64 3.22-2.47 4.83a7.06 7.06 0 01-.43.63z" data-name="8GEJhv"/></g></svg>