<svg xmlns="http://www.w3.org/2000/svg" xmlns:xlink="http://www.w3.org/1999/xlink" width="40" height="40"><defs><path id="world-war-z__a" d="M.5 0h19v21H.5z"/></defs><g fill="none" fill-rule="evenodd"><path fill="#CA2E2A" fill-rule="nonzero" d="M20 0c11.046 0 20 8.955 20 19.997v.006C40 31.047 31.048 40 20 40 8.954 40 0 31.048 0 20 0 8.954 8.952 0 20 0z"/><g transform="translate(10 10)"><mask id="world-war-z__b" fill="#fff"><use xlink:href="#world-war-z__a"/></mask><path fill="#FFF" d="M3.12 5.056h.036v-.107h-.035v.107zm10.382-1.07h.036V3.88h-.036v.107zM8.905 19.834l-.092.004.04.181.052-.008v-.177zm7.183-14.456h.055v-.214h-.055v.214zm-5.353 14.379v-.166l-.143.024.143.142zm-3.74-6.127l.007.095.286-.04-.005-.055h-.287zm8.216-8.902l-.038-.208a23.57 23.57 0 01-.14.208h.178zm-7.475 8.786c-.01.24.08.241.223.158a12.79 12.79 0 01-.03-.158h-.193zm.312-.408h-.327l.047.227.28-.227zm2.417-4.734v.402l.178-.402h-.178zm3.009-4.741l.272-.34-.272-.06v.4zm2.625-.583c.17-.191-.024-.246-.062-.302l-.234.117c.135.084.217.134.296.185zm-7.28 9.077c.126-.02.227-.035.352-.053l-.217-.435c-.015.112-.015.178-.032.238-.02.072-.056.139-.102.25zM13.81.598l-.075.076.106.248.404-.209-.435-.115zm-.545 3.544l-.015-.129h-.665l.057.473c.143-.12.224-.21.323-.264.088-.048.199-.055.3-.08zM9.417 9.34l.202.173.61-.24a6.563 6.563 0 01-.033-.14H9.61c-.058.06-.106.112-.194.207zm2.871.645l-.021-.02-.089.074.034.033c.025-.029.05-.058.053-.106l.021.02.089-.074-.034-.034c-.026.03-.051.058-.053.107zm-.238-8.244l.14-.263c-.269-.14-.553.031-.792-.123-.245-.156-.442.12-.698.08-.225-.035-.452-.102-.696-.078-.26.025-.526-.047-.788-.038-.256.009-.51.08-.767.097-.25.019-.505-.01-.757.008-.256.02-.533-.09-.763.086-.568-.282-1.132.099-1.686.012L4.354 2c-.01-.015-.017-.031-.025-.046l-.243.244-.106.68.107.23H3.78l-.273.698.229.241c-.037.197-.077.396-.11.595-.031.185.062.387-.09.57.025.04.068.088.086.145.015.048.003.105.003.198l-.33.262c.05.415-.275.47-.49.622-.274-.309-.009-.8-.43-1.05l.414-.296-.581-.98c.215-.299.096-.64.117-.965.021-.326.172-.634.114-.972-.06-.333.148-.615.15-1.042-.124-.228-.015-.598-.047-.928.146-.246.397-.232.54-.16.242.121.48.059.76.11 0 .377.022.765-.007 1.15-.025.348-.107.692-.168 1.064l.117.116c.21-.247.14-.55.172-.836.031-.28.114-.553.177-.848l-.074-.1.514-.511c.095.013.285.1.377.04.204-.135.409-.09.613-.09C7.635.134 9.707.136 11.78.136c1.024-.216 2.06-.078 3.091-.102C15.916.011 16.961.03 18.006.03h.494c-.44.673-.842 1.285-1.266 1.931l.238.69-.23.19-.246-.355c-.59.467-.809 1.196-1.315 1.718-.036-.074-.07-.145-.108-.228l-.136.405.092.124c-.14.296-.479.474-.428.925.372-.483.846-.51 1.374-.472l.022.271-.243.087.11.22c-.146.07-.31.15-.494.236l-.104-.094-.41.277-.07-.325c-.195-.197-.356.174-.55.052l-.51.839.607.225.096-.085c.102.195.233.382.109.663l-.426-.133-.224-.35c-.69.792-1.13 1.72-1.773 2.548v.693c.15 0 .307.006.462-.001.15-.009.287 0 .393.183a48.45 48.45 0 01-.197.153l-.22-.11c-.006.055-.033.132-.012.148.099.075.213.134.353.217-.398.12-.798.067-1.103.39v-.313h-.643c-.045.072-.119.183-.183.297-.128.228-.186.498-.488.601-.083.029-.124.176-.227.334l-.133-.297h-.426c.114-.13.19-.216.305-.35l-.455-.158-.226.212-.317-.224-.028.194-.098-.078v.908c.069.188.425.102.417.436l-.285-.032-.172.256h-.579l.37-.258-.373-.187-.057.41-.324.207.16.671.202.073-.114.228.265.136L9.02 14l-.11-.176.124-.188a37.15 37.15 0 00-.303-.042l-.035-.16c.106-.021.204-.04.315-.06l.05-.334.278.158.043.407.335-.169c-.168.258-.14.477-.326.638-.132.117-.105.381-.345.432-.239.406-.424.845-.767 1.18-.164.161-.122.42-.335.568-.162.112-.27.307-.387.476-.124.178-.233.367-.345.554-.016.027-.013.065-.026.144l.838.314c-.012.025-.052.09-.07.16-.017.061-.01.13-.017.241l-.5-.242-.3.443-.154-.267c-.528.215-.528.215-.77.773h.38c1.153 0 2.306-.002 3.46.003.166 0 .332.043.547.072.276-.168.637-.03.969-.079l.127.125c-.026.272-.071.508-.062.741.01.233.077.464.13.761-.21-.136-.38-.197-.523-.01-.014.013-.04.032-.037.036.065.114.132.224.2.337l-.14.139c-.127-.073-.264-.149-.403-.227l.176-.234-.29-.078.078-.06c-1.455 0-2.908 0-4.363.003-.026 0-.051.047-.077.072-.025-.023-.05-.065-.076-.067-.436-.033-.874-.11-1.305.04-.063.023-.146.047-.201.025-.157-.06-.279-.177-.472-.025-.067.053-.272-.066-.376-.095l-.575.436h-.542L2.57 21l-.674-.4v-.218l-.293-.052-.104-.777c.07-.062.2-.141.283-.255.569-.779 1.107-1.58 1.655-2.372.36-.523.705-1.063 1.055-1.595.333-.508.678-1.007 1.028-1.503.054-.075.166-.108.262-.169v-.232l1.108-1.559.141.245c.018-.029.054-.059.051-.086-.04-.407.139-.7.394-1.021.492-.618.896-1.304 1.34-1.958.117-.172.249-.331.308-.41.473-.82.961-1.502 1.455-2.186.484-.67.903-1.387 1.44-2.013l.09.188h.114c.141-.162-.004-.283-.07-.451.187-.291.364-.615.587-.906.216-.283.343-.643.585-.875.29-.278.262-.694.62-.953h-1.582l.234.249-.132.13c-.057-.024-.122-.063-.19-.077-.07-.014-.144-.003-.226-.003zM12.822 20c-.092-.085-.15-.113-.164-.155-.123-.367-.195-.74-.138-1.135l.149-.137h.206c1.091 0 2.183.004 3.275-.002.316-.002.618-.028.667-.425.016-.124.131-.293.248-.34.406-.16.505-.522.709-.816a5.84 5.84 0 00.757-1.588c.042-.13.14-.244.234-.402.361.257.445.663.715.938.065.34-.04.66-.17.964-.077.178.082.4-.139.54l-.13.988c-.086.15-.187.332-.204.566-.025.336-.082.682-.349.962a19.369 19.369 0 01-.142-.11c-.16.051-.333.206-.534.018-.053-.05-.207-.007-.314-.007-.52 0-1.038-.008-1.557.004-.2.005-.42-.074-.605.088-.037.031-.16-.019-.243-.038-.047-.012-.13-.053-.13-.052-.112.216-.295-.123-.437.051-.05.06-.258.081-.343.038-.39-.202-.798-.039-1.194-.084-.044-.004-.097.076-.167.134" mask="url(#world-war-z__b)"/><path fill="#FFF" d="M14.981 7h.506l.013.307-.422.319.157 1.144a15.35 15.35 0 01-.189.23c-.154-.268.08-.611-.204-.815-.113.028-.235.077-.358.083-.13.005-.24.014-.328.147-.154.236-.362.137-.656.12l.376-.55h.664L14.98 7m-5.152 5.845l.144-.31-.184-.473.424.224v.466l-.282.185a8.47 8.47 0 00-.102-.091m9.932 6.918l.436-.541c.088.578.088.578-.436.54M13.791 2.52l.26-.123.158.159-.377.047-.041-.083m4.068-.925l.222-.272.06.318-.198.036a2.178 2.178 0 01-.084-.083M.837 19.396l.326.151-.326.057v-.208zm11.218-8.006v.21a.646.646 0 01-.061.01 15.5 15.5 0 00-.049-.207l.11-.014m.01-8.929l-.09.104-.04-.04.104-.088.026.024m5.871.061h.128v-.042h-.128z" mask="url(#world-war-z__b)"/><path fill="#FFF" d="M11.979 11.563h.042v-.127h-.042z" mask="url(#world-war-z__b)"/></g></g></svg>