<svg xmlns="http://www.w3.org/2000/svg" width="41" height="40" fill="none"><path fill="#FF3E80" fill-rule="evenodd" d="M20.5 40c11.046 0 20-8.954 20-20s-8.954-20-20-20S.5 8.954.5 20s8.954 20 20 20z" clip-rule="evenodd"/><path fill="#fff" fill-rule="evenodd" d="M7.005 18.033c1.397 0 2.212.894 2.212 2.131 0 1.25-.803 2.136-2.212 2.136H5.5v-4.267h1.505zm-.605.747v2.774h.605c.845 0 1.312-.493 1.312-1.39 0-.882-.476-1.384-1.312-1.384H6.4zm4.992.4c1.096 0 1.71.697 1.71 1.596 0 .886-.586 1.596-1.71 1.596-1.115 0-1.71-.726-1.71-1.596 0-.87.595-1.596 1.71-1.596zm0 .695c-.504 0-.836.333-.836.901 0 .569.332.902.836.902.515 0 .836-.32.836-.902 0-.586-.332-.901-.836-.901zm3.51-.69c-.712.004-1.393.303-1.393.943 0 .688.504.79 1.272.917.282.051.533.075.533.33 0 .235-.233.324-.552.323-.442-.003-.9-.177-1.1-.333l-.243.555c.305.264.843.415 1.344.415.692.01 1.405-.279 1.405-.931 0-.806-.627-.865-1.399-.997-.219-.04-.398-.086-.398-.284 0-.206.241-.298.532-.296.298.003.683.095.918.21l.24-.559c-.31-.193-.74-.294-1.159-.292zm2.826-.74h-.874v.808h-.472v.65h.472v1.148c0 .492.177.824.471 1.028.287.202.685.277 1.139.263v-.654c-.228-.009-.416-.056-.545-.163-.122-.1-.191-.253-.191-.474v-1.148h.683v-.65h-.683v-.807zm2.618.735c.756 0 1.448.36 1.448 1.171v1.95h-.77l-.038-.377a1.297 1.297 0 01-.93.454c-.616.041-1.245-.334-1.245-1.037 0-.702.616-1.017 1.253-1.036.302-.008.61.052.855.167v-.14c-.011-.381-.372-.543-.76-.536-.339.007-.718.125-.952.253l-.205-.524a2.913 2.913 0 011.344-.345zm-.075 1.66c-.341.002-.644.136-.644.448 0 .308.31.46.646.442a.871.871 0 00.649-.302v-.423a1.291 1.291 0 00-.651-.164zm5.094-1.587h-.888l-.79 2.144-.79-2.144h-.888L23.24 22.3h.894l1.231-3.047zM26.233 18c-.26 0-.471.193-.471.43s.21.43.47.43.471-.193.471-.43c0-.238-.21-.43-.47-.43zm.436 1.253h-.873V22.3h.873v-3.047zm1.94-.067c-.713.003-1.394.302-1.394.942 0 .688.505.79 1.272.917.282.051.533.075.533.33 0 .235-.232.325-.551.323-.443-.003-.9-.177-1.1-.332l-.244.554c.306.265.843.415 1.344.415.693.01 1.406-.278 1.406-.931 0-.805-.628-.864-1.4-.997-.218-.04-.398-.086-.398-.284 0-.206.241-.298.532-.296.299.003.684.095.919.21l.238-.559c-.309-.193-.739-.294-1.157-.292zm2.825-.74h-.874v.807h-.472v.65h.472v1.148c0 .492.178.824.471 1.028.287.202.686.277 1.14.263v-.654c-.229-.009-.417-.056-.546-.163-.122-.1-.19-.253-.19-.474v-1.148h.682v-.65h-.683v-.807zm2.619.734c.755 0 1.447.36 1.447 1.172V22.3h-.77l-.038-.376a1.296 1.296 0 01-.93.454c-.615.041-1.245-.334-1.245-1.037 0-.702.617-1.017 1.253-1.036.302-.008.61.052.856.167v-.14c-.012-.381-.372-.543-.76-.536a2.274 2.274 0 00-.952.253l-.206-.524a2.914 2.914 0 011.345-.345zm-.076 1.661c-.341.001-.644.135-.644.447 0 .309.31.46.646.442a.871.871 0 00.649-.302v-.423a1.291 1.291 0 00-.65-.164z" clip-rule="evenodd"/></svg>