<svg xmlns="http://www.w3.org/2000/svg" width="41" height="40" fill="none"><path fill="#4D3B3B" fill-rule="evenodd" d="M20 40c11.046 0 20-8.954 20-20S31.046 0 20 0 0 8.954 0 20s8.954 20 20 20z" clip-rule="evenodd"/><path fill="#fff" d="M32.393 18.703c-.109.165-.13.396-.13.396s1.302.792 1.421.87c.108.068.108.188 0 .256-.119.076-1.42.869-1.42.869s.02.231.13.397a.83.83 0 00.292.25s2.089-1.32 2.227-1.44a.284.284 0 000-.409c-.138-.12-2.227-1.44-2.227-1.44s-.19.093-.293.251M28.73 17l-1.04 4.826c.355.151.99.255 1.506.255 1.172 0 1.793-.435 2.1-1.878.307-1.422-.092-1.836-1.074-1.836-.398 0-.754.117-.97.235L29.594 17h-.864zm-.05 4.266l.39-1.815c.043-.207.391-.332.775-.332.607 0 .754.228.565 1.098-.217 1.001-.453 1.16-1.067 1.16-.223 0-.481-.034-.663-.11zM9.207 17.428c-.09.407.015.476.398.476.377 0 .51-.069.6-.476.077-.366-.028-.422-.404-.422-.384 0-.516.056-.594.422zm-2.329.448l-.125.594H6.16l-.16.746h.592l-.341 1.588c-.223 1.042.118 1.277.913 1.277.294 0 .627-.05.884-.122l.155-.723a2.87 2.87 0 01-.669.107c-.418 0-.496-.18-.405-.615l.329-1.512h1.176l.161-.746H7.617l.203-.945-.942.351zm17.604 2.334c-.307 1.444.3 1.871 1.325 1.871.363 0 .9-.076 1.276-.193l.007-.677a4.718 4.718 0 01-1.025.146c-.62 0-.879-.153-.725-.905h2.294c.425-1.706.021-2.085-1.102-2.085-1.032 0-1.75.435-2.05 1.843zm1.952-1.166c.495 0 .65.13.544.752h-1.492c.181-.58.405-.752.948-.752zM15.68 20.21c-.306 1.444.3 1.871 1.326 1.871.362 0 .899-.076 1.275-.193l.008-.677a4.72 4.72 0 01-1.026.146c-.62 0-.878-.153-.725-.905h2.295c.425-1.706.02-2.085-1.102-2.085-1.033 0-1.75.435-2.05 1.843zm1.953-1.166c.495 0 .649.13.544.752h-1.493c.182-.58.405-.752.95-.752zm-4.66-.442c-.174-.16-.46-.235-.857-.235-.565 0-1.235.138-1.701.304l-.712 3.314h.864l.594-2.762c.181-.048.418-.083.607-.083.572 0 .669.193.502.973l-.397 1.872h.864l.418-1.962c.07-.317.091-.58.07-.787.244-.069.537-.096.711-.096.573 0 .67.193.503.973l-.398 1.872h.865l.418-1.962c.272-1.263-.041-1.656-1.038-1.656-.405 0-.9.096-1.312.235zm11.035-.132c-.398.877-.886 1.76-1.395 2.637 0-.752-.063-1.953-.147-2.637h-.844a44.422 44.422 0 01-1.339 2.637 21.365 21.365 0 00-.237-2.637h-.913c.181 1.077.306 2.292.39 3.515h1.067c.356-.635.858-1.623 1.186-2.355.048.552.077 1.643.07 2.355h1.073a42.203 42.203 0 001.967-3.515h-.878zm-14.96 0l-.753 3.515h.864l.753-3.515h-.864"/></svg>