<svg xmlns="http://www.w3.org/2000/svg" xmlns:xlink="http://www.w3.org/1999/xlink" width="40" height="40"><defs><path id="warcraft__a" d="M0 .054h25V25H0z"/></defs><g fill="none" fill-rule="evenodd"><path fill="#363854" fill-rule="nonzero" d="M20 0c11.046 0 20 8.955 20 19.997v.006C40 31.047 31.048 40 20 40 8.954 40 0 31.048 0 20 0 8.954 8.952 0 20 0z"/><g transform="translate(8 7.947)"><mask id="warcraft__b" fill="#fff"><use xlink:href="#warcraft__a"/></mask><path fill="#FFF" d="M13.312 23.3c5.217.052 9.916-4.75 10.003-10.691.043-2.931-1.018-5.536-3.155-7.662-2.107-2.096-4.619-3.18-7.565-3.208C6.56 1.677 1.76 6.479 1.676 12.414c-.042 3 1.056 5.675 3.221 7.802 2.1 2.06 4.654 3.105 8.415 3.085M2.286 5.326c0-.981 0-1.991.002-3.001 0-.02.031-.037.123-.138.573 0 1.225-.027 1.874.007.75.04 1.407-.1 2.07-.515C7.485.968 8.748.509 10.066.276A13.404 13.404 0 0114.19.162c1.912.252 3.631.953 5.247 1.962.041.026.093.034.268.095h3.011v3.016c3.016 4.88 3.071 9.646.01 14.522v3.033H19.71c-4.818 2.944-9.527 2.938-14.424.034H2.287c-.08-1.078 0-2.132-.045-3.164-3.129-4.614-2.86-10.037.044-14.334" mask="url(#warcraft__b)"/></g><path fill="#FFF" d="M22.511 22.348l1.07-6.473-.372-.84h3.868c-.213.306-.405.563-.576.832-.439.693-.608 1.483-.759 2.272-.36 1.893-.704 3.79-1.048 5.684a13.7 13.7 0 00-.168 1.191c-.03.326-.047.661-.009.984.038.313.155.616.244.953h-3.578c.111-1.535-.155-3-.553-4.634-.243 1.646-.935 3.047-.558 4.626h-3.709l.502-.63c.224-.572-.01-1.12-.128-1.64-.477-2.123-1.024-4.23-1.547-6.343-.103-.414-.214-.825-.325-1.236-.099-.363-.167-.74-.314-1.08-.147-.34-.376-.644-.569-.962 1.196-.115 3.09-.076 3.63.082-.255 1.21.065 2.384.28 3.562.207 1.132.476 2.254.725 3.378.032.143.107.276.197.501.644-2.354 1.095-4.662 1.855-6.903l1.728 6.662c.038.004.076.01.114.013"/></g></svg>