<svg xmlns="http://www.w3.org/2000/svg" xmlns:xlink="http://www.w3.org/1999/xlink" width="60" height="60"><defs><path id="finance-otkritie__a" d="M29.703 59.405c16.404 0 29.702-13.298 29.702-29.702C59.405 13.298 46.107 0 29.703 0 13.298 0 0 13.298 0 29.703c0 16.404 13.298 29.702 29.703 29.702z"/></defs><g fill="none" fill-rule="evenodd"><use fill="#00B2D2" xlink:href="#finance-otkritie__a"/><path fill="#FFF" d="M29.999 12C20.059 12 12 19.873 12 29.583c0 9.712 8.06 17.586 17.999 17.586 9.94 0 18.001-7.874 18.001-17.586C48 19.873 39.939 12 29.999 12m-3.79 26.213c.145.077.636.385.764.997.086.443.029.829-.192 1.187-.27.434-.725.67-1.298.67-.294 0-.596-.07-.879-.195l-.841-.39c-3.672-1.899-5.95-5.738-5.95-10.016v-1.764c0-4.276 2.286-8.117 5.966-10.028.036-.012.825-.379.825-.379a2.14 2.14 0 01.876-.193c.573 0 1.031.243 1.301.671.22.355.278.743.192 1.185-.144.71-.781 1.008-.789 1.013-2.141.95-3.526 3.106-3.526 5.495v6.24c0 2.388 1.386 4.546 3.552 5.507m15.977-7.747c0 4.278-2.278 8.117-5.95 10.017l-.843.39a2.174 2.174 0 01-.877.194c-.572 0-1.027-.236-1.298-.67-.217-.358-.277-.744-.192-1.187.128-.612.617-.92.761-.997a6.011 6.011 0 003.558-5.507v-6.24c0-2.389-1.388-4.545-3.53-5.495-.005-.005-.644-.303-.789-1.013-.085-.442-.025-.83.192-1.185.271-.428.726-.671 1.298-.671.296 0 .6.065.877.193 0 0 .791.367.824.379 3.689 1.911 5.969 5.752 5.969 10.028v1.764"/></g></svg>