<svg xmlns="http://www.w3.org/2000/svg" viewBox="0 0 40 40"><g data-name="лого игры"><circle cx="20" cy="20" r="20" fill="#d0661c"/><path fill="#fff" d="M8.72 23.26h-.83l-1.46-4.41h-.09l-1.43 4.41h-.84L2 16.77h1.07L4.44 21h.09l1.41-4.24h.93L8.26 21h.11l1.36-4.22h1.1zm17.53-6.52h3.28a2.57 2.57 0 011.33.29 1.66 1.66 0 01.84 1.39 2 2 0 01-1.33 2.11l1.53 2.71h-1.25c-.22-.37-.44-.77-.67-1.17s-.47-.84-.73-1.26a.44.44 0 00-.26-.23h-1.64v2.68h-1.1zm1.11 2.77h2.2a1.57 1.57 0 00.37-.05.73.73 0 00.65-.77.74.74 0 00-.67-.83c-.82-.05-1.65 0-2.48 0h-.07zm10.55-2.74v1h-3.27v1.49h2.42v1.06h-2.42v1.86H38v1.05h-4.48v-6.46zm-21.68-.02h4.46v1.05h-3.34v1.49h2.4v1.05h-2.41v2.92h-1.11zm-2.6 5.45l.35.07v1H12.5v-6.51H14v1l-.34.09zm10.49 1.06h-1.45v-1l.33-.06v-4.35l-.34-.1v-1h1.46z"/></g></svg>