<svg xmlns="http://www.w3.org/2000/svg" xmlns:xlink="http://www.w3.org/1999/xlink" width="60" height="60"><defs><path id="ufanet__a" d="M29.703 59.405c16.404 0 29.702-13.298 29.702-29.702C59.405 13.298 46.107 0 29.703 0 13.298 0 0 13.298 0 29.703c0 16.404 13.298 29.702 29.703 29.702z"/><path id="ufanet__c" d="M29.703 59.405c16.404 0 29.702-13.298 29.702-29.702C59.405 13.298 46.107 0 29.703 0 13.298 0 0 13.298 0 29.703c0 16.404 13.298 29.702 29.703 29.702z"/></defs><g fill="none" fill-rule="evenodd"><mask id="ufanet__b" fill="#fff"><use xlink:href="#ufanet__a"/></mask><use fill="#29383E" xlink:href="#ufanet__a"/><g mask="url(#ufanet__b)"><mask id="ufanet__d" fill="#fff"><use xlink:href="#ufanet__c"/></mask><use fill="#872D97" xlink:href="#ufanet__c"/><g fill="#FFF" mask="url(#ufanet__d)"><path d="M18.486 25.176c-.036.37.51.434.569.067.573-3.561 2.527-6.28 6.426-7.553 4.876-1.59 8.435.09 11.002 3.732.211.3.667 0 .48-.316-1.251-2.104-3.546-3.804-6.095-4.396-4.063-.943-8.346.674-10.68 4.125-.93 1.372-1.55 2.813-1.702 4.341m19.97-3.525c.191.288.632.053.505-.268-1.025-2.606-3.688-4.945-6.854-6-4.479-1.495-9.455-.077-12.546 3.575-2.034 2.403-3.102 5.665-2.742 7.983.05.322.511.326.566.005 1.2-7.01 3.794-10.28 8.845-11.28 4.946-.982 8.833.856 12.227 5.985m-7.888 13.82c2.48-.073 3.071-1.02 2.084-3.331-.22-.516-.413-1.046-.67-1.543-.27-.52-.275-1.46-1.03-1.368-1.081.132-2.14.532-3.174.912-.32.118-.154.566-.027.841.625 1.358 1.276 2.703 1.899 4.062.196.43.523.479.918.428M15.16 25.685c-.006.367.535.396.572.03.527-5.278 3.166-9.283 8.605-11.087 5.925-1.965 10.525-.309 14.025 3.767.243.283.675-.064.448-.36-1.55-2.019-3.682-3.425-6.326-4.221-5.377-1.619-10.097-.253-13.948 3.852-2.061 2.196-3.334 5.397-3.376 8.02m6.543 2.954a.27.27 0 01.055-.007c4.334-.094 10.5-1.613 13.822-3.394.678-.364 1.46-.55 1.014-1.776-1.384-3.815-5.61-6.17-9.831-5.32-3.974.8-7.07 4.78-6.814 8.726.08 1.247.471 2.08 1.754 1.77m15.03 19.825c-.736-3.087-1.436-6.183-2.245-9.25-.195-.737-.023-2.026-1.313-1.922-1.242.1-2.657-.122-3.51 1.263-1.182 1.92-1.634 4.038-1.843 6.242-.075.793.143 1.317.984 1.519.354.085 1.035-.008.82.695-.14.463-.656.634-1.091.539-1.09-.24-2.195-.476-3.228-.882-.794-.312-.45-1.025-.25-1.622.817-2.43 1.56-4.887 2.465-7.283.472-1.25-.215-2.18-.538-3.212-.912-2.92-2.312-4.998-5.986-4.268-1.659.33-3.464-.082-5.211.142-1.192.153-2.2-.02-1.618-1.738.21-.62.08-1.36.078-2.047-.014-6.896 4.337-12.515 10.924-14.1 6.472-1.556 13.162 1.537 16.226 7.506.229.445.37.948.66 1.345 1.293 1.776 1.282 1.757-.722 2.779-2.165 1.104-4.265 2.34-6.448 3.405-.935.456-.972 1.15-.7 1.85 1.996 5.156 2.417 10.738 4.3 15.927.365 1.005.762 1.122 1.606.678.94-.495 2.42-1.178 2.796-.096.48 1.38-1.363 1.138-2.185 1.619-.636.37-3.94 1.04-3.97.91"/><path d="M28.205 25.057c.614-.043 1.175-.257 1.101-1.092-.073-.833-.689-1.178-1.41-1.216-.662-.036-1.274.25-1.279 1.037-.006.972.692 1.218 1.588 1.27m-.514 1.394c-1.733-.03-2.58-.855-2.559-2.499.021-1.653 1.057-2.655 2.73-2.64 1.64.015 2.848 1.108 2.872 2.598.024 1.552-1.197 2.572-3.043 2.54"/></g></g></g></svg>