<svg xmlns="http://www.w3.org/2000/svg" width="60" height="60"><defs><linearGradient id="yookassa__a" x1="12.175%" x2="87.303%" y1="21.855%" y2="77.922%"><stop offset="0%" stop-color="#00A9F9"/><stop offset="100%" stop-color="#0B89EA"/></linearGradient></defs><g fill="none" fill-rule="evenodd"><circle cx="30" cy="30" r="30" fill="#0D1D40" fill-rule="nonzero"/><g transform="translate(16 13)"><circle cx="24.727" cy="17" r="4.636" fill="#00EEBC"/><path fill="#00EEBC" d="M13.147 0L2.76 10.453c-3.567 3.59-3.567 9.41 0 13l2.569 2.584S22.309 9.084 22.175 9.084L13.147 0z"/><path fill="url(#yookassa__a)" d="M2.759 10.454a14.22 14.22 0 00-.438.472c-3.208 3.609-3.09 9.154.354 12.62L13.063 34l9.028-9.085c.088 0-12.28-12.386-13.188-13.296A5.298 5.298 0 017.43 7.947c0-1.464.59-2.788 1.543-3.747l-6.215 6.254z"/></g></g></svg>