<svg xmlns="http://www.w3.org/2000/svg" width="40" height="40" fill="none"><circle cx="20" cy="20" r="20" fill="url(#m-flower__paint0_linear)"/><path fill="#fff" fill-rule="evenodd" d="M21.742 18.492c-.037-.47-.323-1.062-.662-1.617.315-.37.59-.675.59-.675.672-.804 3.086-2.732 3.086-2.732s.153 4.308-.482 6.152C23.69 21.311 22 22.987 22 22.987c.712-.397 3.005-2.183 3.885-4.6.88-2.416 1.217-2.86 2.566-3.83-.536-.16-1.149-.2-1.976.033.072-2.137-.099-4.314-.281-4.59-.655.264-4.601 3.5-6.041 5.242l-.127.156-.126-.155c-1.44-1.743-5.385-4.98-6.04-5.243-.182.276-.36 2.453-.282 4.59-.828-.232-1.44-.194-1.976-.033 1.35.97 1.685 1.414 2.567 3.83.881 2.414 3.172 4.202 3.882 4.6 0 0-1.691-1.676-2.273-3.367-.636-1.844-.483-6.153-.483-6.153s2.415 1.93 3.089 2.733c0 0 .274.304.589.674-.34.556-.625 1.148-.663 1.619-.126 1.57.701 2.11 1.656 2.11.105.004.21.001.314-.008.872-.07 1.586-.64 1.462-2.102zm-1.407 1.26c-.06.28-.185.464-.314.586a1.04 1.04 0 01-.302-.585c-.095-.423.05-.884.308-1.394.258.51.403.97.308 1.393zm9.394 5.352c-.081-.293-.225-.625-.618-.625a.48.48 0 00-.514.5c0 .321.215.477.595.661.38.184.808.409.808.91 0 .501-.418.875-1.054.875a1.44 1.44 0 01-.696-.175 6.892 6.892 0 01-.125-.726l.14-.041c.078.29.305.766.782.766a.5.5 0 00.54-.536c0-.33-.25-.487-.606-.674-.324-.163-.77-.39-.77-.891 0-.455.368-.833.975-.833.206.005.41.041.605.109.019.161.041.349.081.649l-.143.03zm-13.254-.782c.82 0 1.561.6 1.561 1.512 0 .985-.739 1.592-1.625 1.592s-1.574-.645-1.574-1.524c0-.826.626-1.58 1.634-1.58h.004zm-.1.172c-.524 0-1.023.428-1.023 1.29 0 .838.5 1.47 1.165 1.47.524 0 1-.417 1-1.3 0-.955-.53-1.46-1.143-1.46zm-4.365.603a.894.894 0 00-.14-.375c-.081-.125-.18-.168-.526-.168H11c-.146 0-.159.012-.159.15v1.066h.472c.427 0 .45-.044.51-.34h.138v.897h-.141c-.056-.317-.081-.367-.508-.367h-.467v.795c0 .405.041.434.467.465v.125H10v-.125c.375-.029.411-.059.411-.465V24.98c0-.403-.041-.428-.399-.453v-.137h2.09c0 .169.027.459.05.685l-.142.022zm7.125 4.278a.246.246 0 01-.089.015.105.105 0 01-.115-.117.352.352 0 01-.286.125.222.222 0 01-.25-.223c0-.14.094-.223.28-.25l.07-.01c.133-.018.18-.024.18-.115 0-.084-.063-.125-.179-.125-.116 0-.183.043-.195.16h-.125c0-.169.125-.268.33-.268a.366.366 0 01.25.076.272.272 0 01.054.206v.35c0 .058.014.078.054.078.01.002.021.002.032 0l-.011.098zm-.385-.358l-.014.002c-.093.012-.209.027-.209.148 0 .081.06.131.158.131.125 0 .24-.083.24-.184v-.144a.36.36 0 01-.175.047zm-4.361-.021c0 .258.142.41.375.41a.32.32 0 00.347-.275h-.125a.2.2 0 01-.212.168.239.239 0 01-.25-.27v-.008h.589v-.019c0-.227-.098-.433-.358-.433-.218 0-.366.17-.366.427zm.202-.248a.237.237 0 01.165-.072v-.001c.13 0 .214.09.226.241h-.458c-.001-.063.023-.123.067-.168zm-1.216.627h-.625v-.789h.125v.674h.387v-.674h.125v.674h.103v.365h-.115v-.25zm.235-.784h.365c.137 0 .27.03.27.191a.175.175 0 01-.116.17.182.182 0 01.15.194.227.227 0 01-.24.229h-.43v-.784zm.5.212c0-.066-.035-.1-.15-.1h-.223v.206h.225c.112 0 .15-.034.15-.105h-.002zm-.375.465h.277a.125.125 0 00.125-.13c0-.072-.046-.118-.152-.118h-.25v.248zm1.813-.562v.669h-.126V28.7h-.287v-.115h.695v.115l-.283.005zm.702.699c.236 0 .375-.156.375-.424 0-.261-.136-.411-.374-.411-.237 0-.386.161-.386.42s.149.415.385.415zm0-.115c-.156 0-.25-.114-.25-.307 0-.186.096-.31.25-.31.155 0 .25.113.25.307s-.094.31-.25.31zm-.25-.307v.002-.004.002zm1.263.392v-.349c-.083.02-.166.032-.25.035-.158 0-.257-.073-.257-.226v-.25h.125v.228c0 .1.055.137.152.137a.982.982 0 00.22-.035v-.33h.125v.79h-.115zm.324-.789v.789h.13v-.36h.396v.36h.125v-.789h-.125v.314h-.4v-.314h-.126zm2.163.466v.323h.125v-.79h-.394a.233.233 0 00-.052.462l-.273.328h.173l.25-.323h.171zm-.385-.234c0-.078.049-.117.156-.117l.229.005v.237h-.229c-.108 0-.156-.046-.156-.125zm1.678.557l-.293-.384-.125.125v.259H20.5v-.789h.125v.375l.361-.375h.174l-.317.31.364.479h-.165zm.6.03c.236 0 .374-.157.374-.424 0-.261-.143-.413-.38-.413-.238 0-.387.16-.387.42 0 .262.156.417.392.417zm0-.115c-.157 0-.25-.115-.25-.309l-.006.004c0-.188.1-.313.255-.313s.25.114.25.308-.093.31-.25.31zm1.253.085v-.625l-.234.625h-.125l-.233-.625v.625h-.125v-.789h.186l.24.639.24-.639h.186v.789h-.135zm.322-.789v.789h.138V28.7h.394v.674h.125v-.789h-.657zm1.547.789a.246.246 0 01-.089.015.105.105 0 01-.115-.117.351.351 0 01-.286.125.222.222 0 01-.25-.223c0-.14.094-.223.28-.25l.07-.01c.133-.018.18-.024.18-.115 0-.084-.063-.125-.179-.125-.116 0-.184.043-.195.16h-.125c0-.169.125-.268.33-.268a.366.366 0 01.25.076.272.272 0 01.054.206v.35c0 .058.014.078.054.078.01.002.021.002.032 0l-.011.098zm-.384-.359l-.014.002c-.093.012-.21.027-.21.148 0 .081.06.131.158.131.125 0 .24-.084.24-.185v-.143a.363.363 0 01-.174.048v-.001zm.506-.43v.789h.125v-.36h.394v.36h.125v-.789h-.125v.314h-.394v-.314h-.125zm.85.789v-.789h.124v.644l.355-.644h.166v.789h-.125v-.644l-.355.644h-.166zm1.342-.323v.323h.13v-.79h-.4a.232.232 0 00-.053.462l-.272.328h.172l.25-.323h.173zm-.385-.234c0-.078.049-.117.156-.117l.229.005v.237h-.229c-.109 0-.156-.046-.156-.125zm-12.119-1.464c.05-.14.144-.58.175-.735l-.145-.028c-.05.168-.135.323-.25.455-.106.119-.268.146-.518.146a1.015 1.015 0 01-.432-.058c-.086-.048-.109-.134-.109-.384v-1.774c0-.399.044-.424.412-.449v-.137h-1.263v.137c.386.025.418.054.418.45v1.793c0 .4-.04.43-.44.459v.125h2.152zm7.213-2.355c.14-.382.19-.428.507-.472l.004-.146h-1.044v.137c.374.046.393.087.324.375a33.869 33.869 0 01-.524 1.79h-.009c-.286-.767-.557-1.5-.82-2.25h-.156c-.13.41-.27.82-.41 1.231-.115.34-.23.679-.34 1.018h-.009a67.212 67.212 0 01-.531-1.712l-.036-.12c-.069-.232-.069-.282.28-.322v-.137h-1.181v.138c.286.033.357.086.476.46l.106.326c.224.685.45 1.38.666 2.09h.163c.113-.337.23-.676.348-1.02.137-.398.277-.802.415-1.218h.01c.24.639.554 1.511.816 2.238h.166c.389-1.275.67-2.117.779-2.407zm3.102 1.617c-.031.171-.125.593-.161.739H22.44v-.125c.422-.031.462-.075.462-.449V24.99c0-.418-.04-.43-.403-.462v-.137h2.113c0 .096.016.311.032.525l.011.151-.143.019a1.27 1.27 0 00-.153-.396c-.069-.1-.196-.125-.517-.125H23.5c-.152 0-.161.012-.161.15v1.022h.427c.418 0 .449-.037.508-.346h.14v.895h-.14c-.065-.334-.1-.359-.508-.359h-.427v.839c0 .215.025.317.112.375.081.053.24.053.43.052h.046c.34 0 .48-.03.587-.15a1.57 1.57 0 00.236-.438l.14.012zm2.892.769c.055.006.11.01.166.01l.018-.128a.596.596 0 01-.327-.209 3.762 3.762 0 01-.375-.48c-.14-.208-.33-.507-.412-.657.34-.14.59-.376.59-.773a.667.667 0 00-.31-.598c-.177-.118-.405-.16-.757-.16H25.19v.138c.361.024.402.05.402.44v1.807c0 .382-.046.417-.42.448v.125h1.262v-.125c-.374-.03-.418-.065-.418-.448v-.712h.125c.24 0 .322.063.405.188.053.082.109.174.165.267.092.153.188.312.287.45.214.298.41.398.784.417zm-1.056-1.6a.782.782 0 01-.508.126l-.21.009v-1.125c0-.12.02-.172.05-.197a.464.464 0 01.25-.043c.347 0 .668.18.668.67a.647.647 0 01-.25.56z" clip-rule="evenodd"/><defs><linearGradient id="m-flower__paint0_linear" x1="2.5" x2="43.5" y1="40" y2="0" gradientUnits="userSpaceOnUse"><stop stop-color="#9D2A51"/><stop offset=".58" stop-color="#EF5569"/><stop offset=".81" stop-color="#F58C70"/></linearGradient></defs></svg>