<svg xmlns="http://www.w3.org/2000/svg" xmlns:xlink="http://www.w3.org/1999/xlink" viewBox="0 0 60 60"><path fill="#78358c" d="M29.7 59.4c16.4 0 29.7-13.3 29.7-29.7S46.1 0 29.7 0 0 13.3 0 29.7s13.3 29.7 29.7 29.7z"/><defs><path id="activ__a" d="M29.1 44.8c0 .4.3.7.7.7.4 0 .7-.3.7-.7 0-.4-.3-.7-.7-.7-.4 0-.7.3-.7.7zm-1.2-.3c0 .3.2.5.5.5s.5-.2.5-.5-.2-.5-.5-.5-.5.3-.5.5zm7.4 0c0 .3.2.5.5.5s.5-.2.5-.5-.2-.5-.5-.5-.5.2-.5.5zM24.8 44c0 .3.2.5.6.5.3 0 .5-.2.5-.5s-.2-.5-.5-.5c-.4 0-.6.2-.6.5zm3.7-.7c0 .3.3.6.6.6s.6-.3.6-.6-.3-.6-.6-.6c-.3.1-.6.3-.6.6zm-4.1-1.2c-.4 0-.7.4-.6.8 0 .4.4.7.8.6.4 0 .7-.4.6-.8 0-.4-.3-.6-.8-.6.1 0 0 0 0 0zm9.7.3c0 .3.2.5.6.5.3 0 .5-.2.5-.5s-.2-.5-.5-.5c-.4-.1-.6.2-.6.5zm-5.4-.5c0 .2.2.4.4.4s.4-.2.4-.4-.2-.4-.4-.4-.4.2-.4.4zm-9.3 0c0 .3.2.5.5.5s.5-.2.5-.5-.2-.5-.5-.5c-.2 0-.5.2-.5.5zm16.2.2c0 .4.3.7.7.7.4 0 .7-.3.7-.7s-.3-.7-.7-.7c-.4-.1-.7.3-.7.7zm-10 .2c0 .8.6 1.4 1.4 1.4.8 0 1.4-.6 1.4-1.4 0-.8-.6-1.4-1.4-1.4-.8 0-1.4.6-1.4 1.4zm-3.7-.9c0 .3.2.5.5.5s.5-.2.5-.5-.2-.5-.5-.5-.5.2-.5.5zm8.1 1.2c0 1 .8 1.9 1.9 1.9 1 0 1.9-.8 1.9-1.9 0-1-.8-1.9-1.9-1.9-1.1 0-1.9.9-1.9 1.9zm-6.8-2c0 .7.6 1.2 1.2 1.2.7 0 1.2-.6 1.2-1.2 0-.7-.6-1.2-1.2-1.2-.7 0-1.2.5-1.2 1.2zm17.3-.9c0 .4.3.7.7.7.4 0 .7-.3.7-.7 0-.4-.3-.7-.7-.7-.4 0-.7.3-.7.7zm-4 .4c0 .6.5 1.1 1.1 1.1.6 0 1.1-.5 1.1-1.1 0-.6-.5-1.1-1.1-1.1-.6 0-1.1.5-1.1 1.1zm-3.2 0c0 .7.6 1.3 1.3 1.3s1.3-.6 1.3-1.3-.6-1.3-1.3-1.3-1.3.6-1.3 1.3zm-16.6-1c0 .3.2.5.5.5s.5-.2.5-.5-.2-.5-.5-.5-.5.2-.5.5zm6.4-.2c0 .2.2.4.4.4s.4-.2.4-.4-.2-.4-.4-.4-.4.2-.4.4zm14.9-.6c0 .3.2.6.6.6.3 0 .6-.2.6-.6 0-.3-.2-.6-.6-.6-.4.1-.6.3-.6.6zm-2.5-.2c0 .5.4.9.9.9s.9-.4.9-.9-.4-.9-.9-.9-.9.4-.9.9zm-17.3.6c0 1.3 1 2.3 2.3 2.3 1.3 0 2.3-1 2.3-2.3 0-1.3-1-2.3-2.3-2.3-1.3 0-2.3 1-2.3 2.3zM16 37.2c0 .5.4 1 1 1 .5 0 1-.4 1-1 0-.5-.4-1-1-1-.6.1-1 .5-1 1zm20.8-.6c0 .3.2.5.5.5s.5-.2.5-.5-.2-.5-.5-.5-.5.2-.5.5zm-23.4-.7c0 .6.5 1 1 1 .6 0 1-.4 1-1s-.4-1-1-1-1 .5-1 1zm2.9-.8c0 .3.2.5.5.5s.5-.2.5-.5-.2-.5-.5-.5-.5.3-.5.5zm-4.3-.5c0 .3.2.5.5.5s.5-.2.5-.5-.2-.5-.5-.5c-.2 0-.5.2-.5.5zm5.6.6c0 .7.6 1.2 1.2 1.2.7 0 1.2-.6 1.2-1.2 0-.7-.6-1.2-1.2-1.2s-1.2.5-1.2 1.2zm20.6.4c0 1.3 1.1 2.3 2.4 2.3 1.3 0 2.4-1.1 2.4-2.3 0-1.3-1.1-2.4-2.4-2.4-1.3.1-2.4 1.1-2.4 2.4zm-20.1-2.2c0 .2.2.4.4.4s.4-.2.4-.4-.2-.4-.4-.4-.4.2-.4.4zm26.4-.2c0 .3.2.5.5.5s.5-.2.5-.5-.2-.5-.5-.5c-.2 0-.5.2-.5.5zm-2.4 0c0 .3.2.5.5.5s.5-.2.5-.5-.2-.5-.5-.5c-.2 0-.5.2-.5.5zM40.3 32c0 .5.4.9.9.9s.9-.4.9-.9-.4-.9-.9-.9-.9.4-.9.9zm2.7-.3c0 .5.4.8.8.8.5 0 .8-.4.8-.8s-.4-.8-.8-.8-.8.3-.8.8zm-30.4-.8c0 .2.2.4.4.4s.4-.2.4-.4-.2-.4-.4-.4c-.2-.1-.4.1-.4.4zm1 1.4c0 1.2 1 2.2 2.2 2.2 1.2 0 2.2-1 2.2-2.2 0-1.2-1-2.2-2.2-2.2-1.3 0-2.2 1-2.2 2.2zm-.5-2.7c0 .4.3.6.7.6.4 0 .7-.3.7-.6 0-.4-.3-.6-.7-.6-.4 0-.7.3-.7.6zm2.7-.4c0 .3.2.5.5.5s.5-.2.5-.5-.2-.5-.5-.5c-.2 0-.5.2-.5.5zm25.5.4c0 .7.5 1.2 1.2 1.2s1.2-.5 1.2-1.2-.5-1.2-1.2-1.2-1.2.6-1.2 1.2zm2.8-.6c0 .4.3.6.7.6.4 0 .7-.3.7-.6 0-.4-.3-.6-.7-.6-.4 0-.7.3-.7.6zm-32.8-.3c0 .4.4.8.8.8s.8-.4.8-.8-.4-.8-.8-.8-.8.4-.8.8zM46.5 27c0 .3.2.5.5.5s.5-.2.5-.5-.2-.5-.5-.5c-.3.1-.5.3-.5.5zm-36-.7c0 .3.2.5.5.5s.5-.2.5-.5-.2-.5-.5-.5-.5.2-.5.5zm2.3.4c0 1.1.9 2 2 2s2-.9 2-2-.9-2-2-2-2 .9-2 2zm28.6-.9c0 1.2 1 2.2 2.2 2.2 1.2 0 2.2-1 2.2-2.2 0-1.2-1-2.2-2.2-2.2-1.2 0-2.2 1-2.2 2.2zm-27.6-1.9c0 .2.2.4.4.4s.4-.2.4-.4-.2-.4-.4-.4c-.3 0-.4.2-.4.4zM40 23c0 .6.5 1 1 1 .6 0 1-.5 1-1s-.5-1-1-1c-.5-.1-1 .4-1 1zm-11.6-.5c0 .4.3.7.7.7.4 0 .7-.3.7-.7 0-.4-.3-.7-.7-.7-.4 0-.7.4-.7.7zm-13.4.7c0 .8.6 1.4 1.4 1.4.8 0 1.4-.6 1.4-1.4 0-.8-.6-1.4-1.4-1.4-.8 0-1.4.7-1.4 1.4zm27.5-.9c0 .4.4.8.8.8s.8-.4.8-.8-.4-.8-.8-.8-.8.3-.8.8zm-12.6-.8c0 .3.3.6.6.6s.6-.2.6-.6c0-.3-.3-.6-.6-.6-.4 0-.6.2-.6.6zm-17 .3c0 .6.5 1 1 1 .6 0 1-.5 1-1 0-.6-.5-1-1-1-.6 0-1 .4-1 1zm28.5-.5c0 .3.2.5.5.5s.5-.2.5-.5-.2-.5-.5-.5-.5.2-.5.5zm-26.1-.2c0 .2.2.4.4.4s.4-.2.4-.4-.2-.4-.4-.4-.4.2-.4.4zm14.1-.8c0 .2.2.4.4.4s.4-.2.4-.4-.2-.4-.4-.4c-.3 0-.4.2-.4.4zm-2.9.3c0 .6.5 1.2 1.2 1.2.6 0 1.2-.5 1.2-1.2 0-.6-.5-1.2-1.2-1.2-.6.1-1.2.6-1.2 1.2zm15.1-.7c0 .3.3.6.6.6s.6-.3.6-.6-.3-.6-.6-.6-.6.3-.6.6zm-20-.1c0 .4.3.8.8.8.4 0 .8-.3.8-.8 0-.4-.3-.8-.8-.8-.4.1-.8.4-.8.8zm13.4-.2c0 .5.4 1 1 1 .5 0 1-.4 1-1 0-.5-.4-1-1-1-.5 0-1 .4-1 1zm-6.6-.7c0 .3.2.6.6.6.3 0 .6-.2.6-.6 0-.3-.2-.6-.6-.6-.3.1-.6.3-.6.6zm9.2 1.2c0 1 .8 1.8 1.8 1.8s1.8-.8 1.8-1.8-.8-1.8-1.8-1.8-1.8.8-1.8 1.8zm-10.5-1.5c0 .2.2.4.4.4s.4-.2.4-.4-.2-.4-.4-.4-.4.2-.4.4zm-3.6.4c0 .8.7 1.5 1.5 1.5s1.5-.7 1.5-1.5-.7-1.5-1.5-1.5c-.8.1-1.5.7-1.5 1.5zm17.8-.9c0 .3.2.5.5.5s.5-.2.5-.5-.2-.5-.5-.5-.5.2-.5.5zm-4.7 0c0 .3.3.6.6.6s.6-.3.6-.6-.3-.6-.6-.6-.6.2-.6.6zm-20.3 1.4c0 1.3 1 2.3 2.3 2.3 1.3 0 2.3-1 2.3-2.3 0-1.3-1-2.3-2.3-2.3-1.2 0-2.3 1-2.3 2.3zm22-1.9c0 .2.2.4.4.4s.5-.2.5-.4-.2-.4-.5-.4c-.2-.1-.4.1-.4.4zM26.1 17c0 .4.3.7.7.7.4 0 .7-.3.7-.7 0-.4-.3-.7-.7-.7-.4 0-.7.3-.7.7zm1.9.1c0 .5.4.9.9.9s.9-.4.9-.9-.4-.9-.9-.9c-.5.1-.9.5-.9.9zm2 1.4c0 1.3 1 2.3 2.3 2.3 1.3 0 2.3-1 2.3-2.3 0-1.3-1-2.3-2.3-2.3-1.3 0-2.3 1-2.3 2.3zm4.8-1.5c0 .5.4.9.9.9s.9-.4.9-.9-.4-.9-.9-.9-.9.4-.9.9zm3.2-.9c0 .2.2.4.5.4.2 0 .5-.2.5-.4s-.2-.4-.5-.4-.5.2-.5.4zm-17.3.9c0 .8.7 1.5 1.5 1.5s1.5-.7 1.5-1.5-.7-1.5-1.5-1.5c-.8.1-1.5.7-1.5 1.5zm12.9-1.2c0 .3.3.6.6.6s.6-.3.6-.6-.3-.6-.6-.6-.6.3-.6.6zm-9.6-.1c0 .6.5 1 1 1 .6 0 1-.5 1-1 0-.6-.5-1-1-1s-1 .5-1 1zm8-1.2c0 .3.2.5.5.5s.5-.2.5-.5-.2-.5-.5-.5-.5.2-.5.5zm-9.3 0c0 .3.3.6.6.6s.6-.3.6-.6-.3-.6-.6-.6-.6.2-.6.6z"/></defs><use fill="#fff" fill-rule="evenodd" clip-rule="evenodd" overflow="visible" xlink:href="#activ__a"/></svg>