<svg xmlns="http://www.w3.org/2000/svg" width="60" height="60"><g fill="none" fill-rule="evenodd"><path fill="#DE166E" d="M30 60c16.569 0 30-13.431 30-30C60 13.431 46.569 0 30 0 13.431 0 0 13.431 0 30c0 16.569 13.431 30 30 30z"/><path fill="#FFF" d="M23.42 25.58c-1.005.73-1.78 1.721-2.156 2.945-.282.916-.352 1.866.429 2.572.74.667 1.608.396 2.391.026 1.851-.876 3.254-2.278 3.988-4.162.913-2.34-.185-3.82-1.472-3.232a18.524 18.524 0 00-3.18 1.85zm1.542-2.774c-2.934.557-5.066 2.213-6.192 4.971-1.746 4.28-1.129 8.341 1.553 12.052 1.763 2.44 3.684 3.79 7.198 4.344 1.858.175 3.787.006 5.641-.285 2.278-.357 4.402-1.232 5.998-3.018.41-.459.686-1.039 1.023-1.562-2.138 1.056-4.9 1.3-6.316 1.329-1.409.029-2.083-1.075-2.017-2.476.033-.71.211-1.414.34-2.223-.597.567-1.122 1.094-1.677 1.587-1.072.953-2.166 1.888-3.564 2.337-1.237.397-2.178-.284-2.111-1.579.035-.688.127-1.445.445-2.035.895-1.66 1.898-3.265 2.9-4.865.965-1.54 2.029-3.02 2.95-4.584.328-.557.526-1.29.5-1.932-.052-1.256-1.296-1.894-2.819-1.615.172.665.46 1.327.496 2.002.156 2.966-2.424 6.21-5.335 6.802-2.592.526-4.072-1.114-3.274-3.64.44-1.393 1.314-2.507 2.462-3.35 1.101-.809 2.312-1.467 3.61-2.276-.656 0-1.252-.09-1.811.016zm-8.554 8.661c.475-2.656 1.375-5.117 3.427-6.992 2.075-1.895 4.459-2.778 7.295-2.116.594.139 1.22.18 1.833.2 1.3.04 2.544.181 3.296 1.44.528.885.633 1.902.319 2.816-.46 1.341-1.025 2.678-1.765 3.882-1.143 1.857-2.503 3.578-3.706 5.4-.5.76-.906 1.606-1.216 2.462-.244.671.138 1.009.81.778a6.923 6.923 0 001.559-.769c2.51-1.664 4.454-3.88 6.106-6.369 1.825-2.749 3.632-5.51 5.464-8.255.703-1.054 1.351-1.271 2.588-.945-.1.17-.19.34-.296.5-2.563 3.892-5.146 7.772-7.683 11.68a20.903 20.903 0 00-1.689 3.128c-.412.96.001 1.546 1.039 1.627 1.87.146 3.656-.255 5.376-.962a2.038 2.038 0 001.24-2.246c-.037-.197-.057-.402-.128-.586-.247-.647-.513-1.287-.772-1.93l.156-.098 2.547 2.891c1.044-.851 1.703-2.082 2.348-3.337 3.7-7.211.221-14.612-6.268-17.547-4.338-1.963-8.807-2.242-13.358-.937-3.888 1.114-7.022 3.295-8.984 6.914-1.797 3.316-2.12 6.866-1.411 10.53.371 1.918 1.085 3.708 2.212 5.326-.771-2.144-.729-4.306-.339-6.485zm4.054 12.185c-3.548-2.2-5.596-5.446-6.456-9.463-.96-4.484-.715-8.846 1.753-12.86 2.26-3.676 5.639-5.901 9.734-7.032 4.86-1.344 9.646-1.112 14.108 1.383 4.802 2.687 7.382 6.859 7.161 12.41-.14 3.504-1.53 6.635-4.05 9.184-.195.198-.395.529-.375.781-1.47 6.537-8.082 7.945-11.675 8.204-3.921.281-7.224-.76-10.2-2.607z"/></g></svg>