<svg xmlns="http://www.w3.org/2000/svg" width="41" height="40" fill="none"><path fill="#BED600" d="M40.5 20.004C40.5 31.054 31.552 40 20.506 40 9.46 40 .5 31.053.5 20.004S9.459 0 20.506 0C31.552 0 40.5 8.955 40.5 20.004z"/><path fill="#fff" d="M19.049 9.565c-3.15 0-5.194.174-6.674.723-2.486.969-4.203 2.999-4.203 5.666 0 2.222 1.035 3.83 4.029 5.681 3.194 1.937 3.831 2.577 3.831 3.743 0 1.277-1.25 2.731-4.47 2.731-1.124 0-2.817-.155-3.898-.42l-.516-.13c-.288.772-.941 2.597-1.14 3.26l.51.15c.973.31 3.282.552 4.936.552 5.503 0 8.786-3.324 8.786-6.805 0-2.14-.971-3.765-4.254-5.813-1.646-1.013-2.485-1.67-2.995-2.178-.413-.53-.458-.926-.458-1.343 0-.398.088-.857.35-1.194.285-.415.806-.68 1.51-.899.726-.24 2.068-.247 4.16-.247H20.5l1.39-3.477H19.05zm14.717 0H23.98l-1.39 3.477h3.243c2.182 0 2.602-.047 3.15-.047-.791 1.81-5.56 13.962-5.56 13.962h4.036s6.037-15.127 6.677-16.713c.178-.354.09-.679-.37-.679z"/></svg>