<svg xmlns="http://www.w3.org/2000/svg" width="41" height="40" fill="none"><path fill="#0468FF" fill-rule="evenodd" d="M20 40c11.046 0 20-8.954 20-20S31.046 0 20 0 0 8.954 0 20s8.954 20 20 20z" clip-rule="evenodd"/><path fill="#fff" fill-rule="evenodd" d="M11.579 17.128a.667.667 0 01-.665-.67c0-.37.297-.67.665-.67.366 0 .663.3.663.67 0 .37-.297.67-.664.67zm0-2.128c-.8 0-1.45.654-1.45 1.462 0 .318.103.628.295.882l.096.134 1.058 1.288 1.155-1.422c.191-.255.294-.564.294-.883 0-.807-.649-1.461-1.449-1.461zm.552 6.79v-2.453h-1.073v1.152l-1.072-1.3L7 22.81l.993.834 1.993-2.415 1.993 2.415.993-.835-.84-1.018zM18.712 19.334h-.951v3.343H15.88v-3.343h-.952v4.23h3.504v.85h.862v-1.737h-.582v-3.343zm2.2 2.848v-2.848h-.952v4.23h.951l1.993-2.848v2.848h.951v-4.23h-.951l-1.993 2.848zm11.142-2.848v1.662h-1.942v-1.662h-.952v4.23h.952V21.89h1.942v1.674H33v-4.23h-.946zm-4.762 2.444c0 .332-.093.592-.276.773-.186.182-.456.275-.803.275-.433 0-.672-.197-.672-.555 0-.373.312-.596.835-.596h.916v.103zm-.794-2.525c-.497 0-.925.135-1.238.389a1.3 1.3 0 00-.49.934h.938c.043-.196.25-.502.79-.502.497 0 .794.3.794.8v.022h-.957c-.566 0-1.004.129-1.3.384-.285.244-.429.591-.429 1.032 0 .38.148.72.418.96.275.245.659.374 1.108.374.704 0 1.086-.346 1.218-.495l.065.363.01.05h.803v-2.69c0-1-.663-1.62-1.73-1.62z" clip-rule="evenodd"/></svg>