<svg xmlns="http://www.w3.org/2000/svg" xmlns:xlink="http://www.w3.org/1999/xlink" width="60" height="60"><defs><path id="freedom__a" d="M29.703 59.405c16.404 0 29.702-13.298 29.702-29.702C59.405 13.298 46.107 0 29.703 0 13.298 0 0 13.298 0 29.703c0 16.404 13.298 29.702 29.703 29.702z"/></defs><g fill="none" fill-rule="evenodd"><mask id="freedom__b" fill="#fff"><use xlink:href="#freedom__a"/></mask><use fill="#DEE3E6" xlink:href="#freedom__a"/><g mask="url(#freedom__b)"><path fill="#1880AD" d="M5.012 28.247H4v-1.534h1.012v-.632c0-1.307.645-1.826 2.35-1.826.36 0 .81.03 1.052.065v1.38a5.153 5.153 0 00-.603-.036c-.562 0-.817.167-.817.597v.453h1.38v1.534H7.047v4.745H5.012v-4.745zM9.978 26.6h2.059v1.014h.1a1.479 1.479 0 011.456-1.104c.29 0 .48.018.598.06v1.743c-.136-.054-.432-.084-.728-.084-.947 0-1.367.543-1.367 1.397v3.366H9.978V26.6zm9.202 2.483v-.024c0-.675-.384-1.122-.982-1.122-.597 0-1.006.447-1.006 1.122v.024h1.989zm-3.988.972v-.537c0-2.047 1.355-3.037 2.989-3.037 1.757 0 2.958 1.145 2.958 3.037v.693h-3.947v.286c0 .692.474 1.104 1.066 1.104.538 0 .958-.263.988-.662h1.864c-.036.9-.835 2.172-2.84 2.172-1.823 0-3.078-1.009-3.078-3.056zm11.286-.972v-.024c0-.675-.385-1.122-.983-1.122-.597 0-1.006.447-1.006 1.122v.024h1.989zm-3.989.972v-.537c0-2.047 1.355-3.037 2.989-3.037 1.757 0 2.958 1.145 2.958 3.037v.693H24.49v.286c0 .692.474 1.104 1.066 1.104.538 0 .958-.263.988-.662h1.864c-.036.9-.835 2.172-2.84 2.172-1.823 0-3.078-1.009-3.078-3.056z"/><path fill="#E96024" d="M31.929 29.566v.46c0 .954.42 1.45 1.03 1.45.609 0 1.04-.49 1.04-1.42v-.55c0-.895-.449-1.378-1.046-1.378-.61 0-1.024.489-1.024 1.438m1.976-1.97H34v-3.234h2.06v8.63h-2.048v-1.027h-.1c-.214.65-.906 1.092-1.806 1.092-1.396 0-2.301-1.056-2.301-2.93v-.674c0-1.874.91-2.919 2.313-2.919.888 0 1.556.412 1.787 1.063"/><path fill="#1880AD" d="M39.777 29.518v.555c0 .716.224 1.51.982 1.51.757 0 .976-.782.976-1.51v-.555c0-.776-.242-1.51-.976-1.51s-.982.74-.982 1.51m4.041.012v.478c0 1.993-1.166 3.103-3.053 3.103-1.906 0-3.071-1.104-3.071-3.097v-.472c0-1.82 1.171-3.061 3.07-3.061 1.888 0 3.054 1.211 3.054 3.05m1.629-2.931h1.988v1.092h.1c.13-.495.616-1.187 1.746-1.187.953 0 1.533.507 1.71 1.2h.083c.178-.55.81-1.2 1.911-1.2 1.267 0 1.989.83 1.989 2.058v4.429h-2.048v-3.76c0-.812-.408-1.068-.858-1.068-.497 0-.882.352-.882 1.11v3.718h-1.952v-3.748c0-.83-.426-1.08-.864-1.08-.48 0-.87.31-.87 1.098v3.73h-2.053V26.6z"/></g></g></svg>