<svg xmlns="http://www.w3.org/2000/svg" xmlns:xlink="http://www.w3.org/1999/xlink" width="60" height="60"><defs><path id="bashtel__a" d="M30 60c16.569 0 30-13.431 30-30C60 13.431 46.569 0 30 0 13.431 0 0 13.431 0 30c0 16.569 13.431 30 30 30z"/><path id="bashtel__c" d="M21.678 22.078V.343H.038v21.735h21.64z"/><path id="bashtel__e" d="M0 .343v21.735h21.639V.343H0z"/></defs><g fill="none" fill-rule="evenodd"><mask id="bashtel__b" fill="#fff"><use xlink:href="#bashtel__a"/></mask><use fill="#E8E8E8" xlink:href="#bashtel__a"/><g mask="url(#bashtel__b)"><path fill="#F4A61F" d="M40.458 19.671c0 6.002-4.844 10.868-10.819 10.868-5.976 0-10.82-4.866-10.82-10.868 0-6.002 4.844-10.867 10.82-10.867 5.975 0 10.82 4.865 10.82 10.867"/><path fill="#FDFDFD" d="M28.162 14.17c1.27 1.234 2.255 2.721 3.42 4.051.81.925 1.508 1.949 2.299 2.892.394.47.233.55-.258.652-.543.113-1.313-.353-1.593.305-.22.516.321 1.088.45 1.657.022.094.09.188.085.278-.026.423.761.86.062 1.241-.686.374-1.586-.058-1.84-.778a25.181 25.181 0 00-.165-.46c-.556-1.49-.552-1.484-1.852-.57-.2.14-.4.438-.66.326-.287-.123-.147-.466-.148-.708-.014-2.74-.016-5.48-.012-8.22 0-.211-.086-.461.212-.666"/><g transform="translate(29.6 19.328)"><mask id="bashtel__d" fill="#fff"><use xlink:href="#bashtel__c"/></mask><path fill="#C82A84" d="M21.678 11.21c0 6.003-4.844 10.868-10.82 10.868-5.975 0-10.82-4.865-10.82-10.867C.039 5.209 4.884.343 10.859.343c5.976 0 10.82 4.866 10.82 10.868" mask="url(#bashtel__d)"/></g><path fill="#FDFDFD" d="M41.773 25.659c-.048.564.233 1.203-.625 1.514-.364.133-.05 1.612.38 1.853.768.435 1.2 1.07 1.28 1.954.08.902.644 1.475 1.552 1.588.097.012.195.002.293.005 1.942.062 1.924.06 1.832 1.968-.024.508-.186.714-.69.674a5.481 5.481 0 00-.974 0c-.64.062-1.012-.021-.963-.854.053-.897-1.368-1.604-2.197-1.174-.8.414-1.6.478-2.413.012-.803-.462-2.167.254-2.168 1.185 0 .656-.225.857-.85.835-2.227-.078-1.727.345-1.827-1.873-.027-.593.162-.802.768-.79.762.017 1.544.161 2.268-.329.41-.278.683-.505.668-1.061-.026-.916.419-1.613 1.197-2.1.768-.483.753-1.467.1-2.093-.639-.613-.259-1.474-.248-2.21.01-.636.642-.342 1.015-.41.095-.018.195-.004.292-.003 1.546.006 1.29-.063 1.31 1.309"/><g transform="translate(8 19.328)"><mask id="bashtel__f" fill="#fff"><use xlink:href="#bashtel__e"/></mask><path fill="#7EBF49" d="M21.639 11.21c0 6.003-4.844 10.868-10.82 10.868C4.845 22.078 0 17.213 0 11.211 0 5.209 4.845.343 10.82.343c5.976 0 10.82 4.866 10.82 10.868" mask="url(#bashtel__f)"/></g><path fill="#FDFDFD" d="M18.818 27.542c.112.548-.082.986-.593 1.287-.58.341-.63.848-.447 1.442.421 1.363 1.099 2.572 2.076 3.611.468.499.953.69 1.644.356.77-.373 2.71.896 2.75 1.734.011.21-.086.366-.22.521-.751.863-2.353 1.035-3.276.329-2.89-2.21-4.512-5.16-5.015-8.748-.14-.995.61-2.249 1.542-2.578.572-.202 1.091-.198 1.272.58.11.475.296.934.267 1.466"/><path fill="#0DACE8" d="M40.458 41.407c0 6.002-4.844 10.867-10.819 10.867-5.976 0-10.82-4.865-10.82-10.867 0-6.002 4.844-10.868 10.82-10.868 5.975 0 10.82 4.866 10.82 10.868"/><path fill="#FDFDFD" d="M29.7 45.038c1.139 0 2.279-.016 3.418.007.606.013.91-.2.902-.846a160.805 160.805 0 010-4.121c.006-.577-.237-.846-.81-.845-2.344.005-4.689.012-7.033-.001-.672-.005-.928.296-.917.952.021 1.308.025 2.617-.001 3.925-.013.67.26.95.925.937 1.171-.021 2.344-.006 3.516-.008m-.036 1.144c-1.204.001-2.408.018-3.611-.003-1.352-.025-1.88-.56-1.898-1.93a164.59 164.59 0 01.003-4.216c.017-1.342.59-1.905 1.907-1.92.488-.004.976.003 1.464-.006.185-.004.42.053.51-.175.102-.255-.089-.445-.244-.594-.158-.152-.378-.241-.569-.359-.461-.283-.739-.648-.501-1.217.207-.498.55-.844 1.124-.72.57.125.938.512.852 1.126-.076.55.227.929.44 1.36.358.725.679.547.997-.026.222-.399.435-.778.39-1.281-.056-.628.24-1.1.904-1.174.532-.059.987.156 1.109.733.127.602-.026 1.119-.69 1.313-.407.119-.666.421-.59.774.09.416.542.244.841.245 2.888.01 3.03.147 3.03 3.047 0 1.045.011 2.091-.008 3.137-.024 1.28-.586 1.858-1.849 1.88-1.203.022-2.407.005-3.611.006"/></g></g></svg>