<svg xmlns="http://www.w3.org/2000/svg" width="41" height="40" fill="none"><circle cx="20.5" cy="20" r="20" fill="#A6C307"/><path fill="#fff" fill-rule="evenodd" d="M34.91 15.137h1.328a.262.262 0 00.262-.262v-1.344a.262.262 0 00-.262-.262h-1.327a.262.262 0 00-.262.262v1.343a.262.262 0 00.261.263zm-1.342-1.868h.901a.178.178 0 00.178-.178v-.912A.178.178 0 0034.47 12h-.901a.178.178 0 00-.178.178v.913a.178.178 0 00.178.178zM11.65 18.505c0 1.08-.276 1.665-1.73 1.665H7.684v-2.786c0-.387.144-.53.53-.53h1.709c1.095 0 1.73.27 1.73 1.651zm-1.73-2.77h-1.93c-1.031 0-1.491.46-1.491 1.492v6.625c0 .398.128.526.527.526h.13c.398 0 .526-.128.526-.526v-2.577h2.239c1.987 0 2.912-.88 2.912-2.77 0-1.89-.925-2.77-2.912-2.77zm7.076 5.666v.908c0 .74-.274 1.169-1.677 1.169-.927 0-1.378-.335-1.378-1.026 0-.757.453-1.051 1.613-1.051h1.442zm-3.103-3.633c-.322.07-.456.158-.456.524v.105c0 .143.02.242.066.312.053.082.139.123.254.123.057 0 .122-.01.2-.029a6.98 6.98 0 011.414-.141c1.155 0 1.625.32 1.625 1.104v.699h-1.455c-1.872 0-2.743.631-2.743 1.987 0 1.315.9 2.039 2.534 2.039 1.942 0 2.809-.661 2.809-2.143v-2.582c0-1.434-.923-2.13-2.822-2.13-.765 0-1.244.096-1.426.132zm10.65.176c-.083-.103-.24-.118-.396-.118h-.117c-.39 0-.542.12-.628.494l-1.083 4.5c-.135.552-.325.653-.65.653-.397 0-.557-.095-.715-.656l-1.225-4.499c-.102-.377-.251-.492-.641-.492h-.104c-.158 0-.314.015-.395.12-.08.105-.053.262-.011.416l1.238 4.538c.233.868.509 1.587 1.541 1.587.193 0 .37-.027.519-.077-.313.984-.631 1.419-1.57 1.515-.191.016-.315.043-.384.136-.071.096-.055.233-.03.356l.026.116c.056.27.152.436.454.436.031 0 .066-.002.102-.005 1.402-.091 2.154-.846 2.593-2.605l1.5-6c.036-.155.058-.311-.024-.415zm9.75-2.808h-1.786a.353.353 0 00-.353.352v.25h.124c.807 0 1.107.133 1.107.867v1.045h-.879a.352.352 0 01-.352-.353v-1.56h-.13c-.807 0-1.107.133-1.107.868v2.121l-.001.026v2.403c0 .293-.057.527-.174.708-.22.34-.655.493-1.352.494-.697 0-1.132-.155-1.352-.493-.117-.182-.174-.416-.174-.71v-2.402-.416l-.001-.01v-1.72c0-.736-.3-.868-1.107-.868h-.254c-.807 0-1.107.133-1.107.867v4.55c0 .731.165 1.35.484 1.85.616.968 1.809 1.484 3.505 1.484h.012c1.696 0 2.889-.516 3.505-1.484.319-.5.484-1.119.484-1.85V17.65h.908a.352.352 0 00.353-.352v-1.809a.352.352 0 00-.352-.353z" clip-rule="evenodd"/></svg>