<svg xmlns="http://www.w3.org/2000/svg" width="41" height="40" fill="none"><path fill="#3498DB" fill-rule="evenodd" d="M20.5 40c11.046 0 20-8.954 20-20s-8.954-20-20-20S.5 8.954.5 20s8.954 20 20 20z" clip-rule="evenodd"/><path fill="#fff" fill-rule="evenodd" d="M6.694 25.45c-.678.055-1.363.11-2.127.372.452.244.867.3 1.27.355l.116.016c2.01.349 2.189.375 4.279.609a.627.627 0 01.427.183c.66.601 1.323 1.197 1.997 1.782 2.532 2.2 5.47 3.172 8.782 2.813 3.51-.38 6.485-1.928 8.944-4.492.214-.224.443-.341.749-.356.81-.041.774-.058 1.43-.103.268-.038.405-.044.968-.125.013-.005 1.035-.218 1.05-.222.17-.053.306-.062.858-.314-.287-.143-.205-.108-.37-.174-.033-.013-.152-.047-.182-.057-.535-.187-1.093-.263-1.65-.341l-.296-.042c-.17-.025-.172-.03-.344-.04-.278-.018.127.008-.82-.07 2.155-4.603 2.039-9.025-1.095-13.124-1.36-1.776-4.6-3.938-5.488-3.75.26.253.54.462.831.656 1.408.938 2.698 2.005 3.726 3.377 2.907 3.882 2.68 8.673.021 12.396a.965.965 0 00-.038.059c-.056.09-.112.18-.271.157-1.757-.109-1.788-.112-2.677-.157l-.177-.01c-.182-.01-.201-.078-.167-.234.223-1.016.391-2.102.426-3.142.008-.262.132-.283.348-.303 1.081-.102 2.16-.231 3.213-.52l.053-.015c.182-.048.418-.11.413-.297-.004-.206-.239-.263-.436-.311l-.025-.007-.03-.007a16.511 16.511 0 00-3.14-.502c-.296-.017-.408-.108-.425-.417-.053-.949-.181-1.89-.383-2.82-.486-2.245-1.404-4.291-2.799-6.11l-.015-.02c-.156-.204-.319-.417-.641-.465.668 1.142 1.098 2.378 1.531 3.624.128.367.256.736.391 1.104l-.086-.003a1.04 1.04 0 01-.16-.01c-1.083-.189-2.17-.35-3.264-.454a266.32 266.32 0 00-3.473-.309c-.302-.024-.425-.068-.31-.44.248-.809.439-1.636.627-2.462l.041-.173c.07-.289.142-.584.119-.899l-.046.017c-.023.008-.038.013-.047.023a4.802 4.802 0 00-.229.252 10.449 10.449 0 00-1.844 3.325c-.074.219-.172.316-.414.322-.57.016-1.14.04-1.71.066-.441.02-.883.039-1.325.054-.312.01-.473.04-.852.04h-.57c.544-1.097 1.185-2.158 1.99-3.07.725-.82 1.59-1.466 2.46-2.116.097-.074.196-.147.294-.22-.408-.018-.746.147-1.073.324-2.192 1.184-3.853 2.526-5.19 4.663-.14.225-.205.42-.417.5-1.329.145-1.1.13-2.83.389-.066.01-1.224.29-1.344.32-.349.085-.404.077-1.04.304.096.024.185.048.268.07.164.045.307.083.452.111 1.648.316 1.72.312 3.393.575.302.02.383.076.296.39-.28 1.013-.53 2.036-.502 3.1.007.25-.11.22-.276.254-.022 0-.241.036-.263.037-.18.026-.332.052-.552.076-1.03.116-1.224.134-2.758.383l-.198.021c-.72.125-1.136.185-1.889.38.25.098.25.092.473.15l.33.069.172.029.131.02.728.102c.763.088.846.095 1.564.17l.53.051c.293.027.366.028.552.052l.304.033.245.025c.307.038.292.027.51.057.02 0 .23.022.25.022.138.003.25.033.298.234.214.892.536 1.747.859 2.601.128.34.256.679.377 1.02.09.255.05.317-.222.333-1.546.094-1.061.109-2.606.235zm18.908-6.744c-.007-.126-.008-.113-.022-.344a15.91 15.91 0 00-.244-2.462c-.053-.3-.155-.389-.46-.349a56.817 56.817 0 01-7.393.512c-.227.001-.262.096-.268.292l-.005.175c-.02.65-.04 1.301-.097 1.949-.03.344.063.423.397.42 2.35-.013 4.692.144 7.033.338.1.008.25.023.368.03.577.015.122.015.577.015.157-.115.127-.352.114-.576zm-5.17 5.992c-.68 0-1.36.005-2.04.01-.191.002-.334-.017-.402-.236-.268-.856-.498-1.72-.627-2.61-.035-.237.028-.308.268-.304 1.517.027 3.031-.036 4.547-.1.941-.04 1.884-.08 2.827-.097.253-.004.346.016.274.324a14.266 14.266 0 01-.951 2.747c-.09.192-.19.252-.393.25-.671-.009-1.343-.008-2.015-.006h-.756c-.045 0-.083 0-.34.01l-.392.012zm-8.802-5.58c.861-.014 0 0 .726-.014h.135c.206-.012.41-.025.616-.039.504-.032 1.008-.065 1.513-.077.29-.006.38-.12.413-.391a41.44 41.44 0 01.324-2.211c.046-.256.01-.319-.25-.326-.39-.009-.781-.038-1.172-.067-.17-.013-.338-.026-.508-.037l-.78-.05c-.536-.036-1.072-.07-1.61-.105-.155-.01-.297-.017-.327.204-.127.955-.197 1.91-.137 2.875.014.215.106.266.307.26.385-.01.366-.023.75-.021zm-.057 2.158l.77.037c.741.037 1.483.074 2.224.098.241.007.36.07.38.33.073.971.22 1.935.432 2.886.044.196-.038.2-.167.208h-.018c-.71.043-1.42.084-2.13.136-.199.015-.315-.06-.432-.222-.646-.898-1.107-1.891-1.476-2.93-.208-.583-.193-.588.417-.543zm9.72 6.821c.34-.243.688-.492.991-.845H19.48c.31.458.698.776 1.083 1.093l.063.051.026.021c.068.056.131.062.2.007.143-.114.29-.22.44-.327zm6.148-1.063c-.678.586-1.414 1.012-2.281 1.407l.205-.484.284-.673c.038-.09.11-.132.205-.139.35-.023.7-.048 1.05-.073l.332-.024.205-.014zm-12.626.052a8.353 8.353 0 001.726 1.053l-.123-.294c-.09-.214-.167-.397-.242-.582a.18.18 0 00-.172-.121c-.262-.014-.522-.025-.822-.04-.116-.004-.237-.01-.367-.016z" clip-rule="evenodd"/></svg>