<svg xmlns="http://www.w3.org/2000/svg" width="41" height="40" fill="none"><circle cx="20.5" cy="20" r="20" fill="#783BF9"/><path fill="#fff" fill-rule="evenodd" d="M14.747 22.535a1.617 1.617 0 11.01-3.234 1.617 1.617 0 01.002 3.235h-.012zm.012-4.192a2.576 2.576 0 100 5.153c.626 0 1.201-.23 1.651-.605v.537h.918V20.92a2.571 2.571 0 00-2.569-2.577zm-5.698 4.192a1.618 1.618 0 01-.002-3.234 1.62 1.62 0 011.616 1.619c0 .89-.726 1.615-1.616 1.615h.002zm-.002-4.192a2.59 2.59 0 00-1.626.576V17H6.5v3.917a2.572 2.572 0 002.571 2.576 2.576 2.576 0 100-5.152l-.012.002zm17.167 4.192a1.618 1.618 0 010-3.234c.89 0 1.613.726 1.613 1.619 0 .89-.71 1.615-1.6 1.615h-.013zm.012-4.192a2.576 2.576 0 100 5.153 2.575 2.575 0 002.572-2.576 2.572 2.572 0 00-2.572-2.577zm5.678 4.192a1.619 1.619 0 01-1.618-1.615 1.62 1.62 0 013.239 0c0 .89-.725 1.615-1.613 1.615h-.008zm.008-4.192a2.578 2.578 0 00-2.577 2.577 2.576 2.576 0 102.576-2.576zm-11.441 4.192a1.618 1.618 0 01.002-3.234 1.618 1.618 0 11.012 3.234h-.014zm1.625-3.614a2.573 2.573 0 10-1.62 4.573 2.573 2.573 0 002.57-2.577V17h-.95v1.921z" clip-rule="evenodd"/></svg>