<svg xmlns="http://www.w3.org/2000/svg" viewBox="0 0 40 40"><g data-name="лого игры"><circle cx="20" cy="20" r="20" fill="#cb4539"/><path fill="#fff" d="M25.38 15.09a14.1 14.1 0 014-.08c0 .16.06.35.07.54v2.44a5.79 5.79 0 000 .61c.32.14.46 0 .6-.21l2.21-2.53a2.09 2.09 0 00.14-.17 1.72 1.72 0 011.66-.79c.95.06 1.92 0 2.88 0h.71c-1.35 1.65-2.75 3.07-4.08 4.65.15.23.26.45.41.64l3.63 4.39a3.15 3.15 0 01.23.34 3.06 3.06 0 01-.51.09h-3.59a1 1 0 01-.79-.4c-.8-1-1.62-2.08-2.44-3.12A4.51 4.51 0 0030 21a2.53 2.53 0 00-.52-.25c0 .31-.08.52-.08.73v3c0 .19-.05.38-.08.63h-3.67c-.11 0-.22-.1-.31-.15zm-4.44 3.8c0 .31-.07.54-.07.77v5.27a2.5 2.5 0 01-.56.13h-3a3 3 0 01-.51-.06v-6a23.35 23.35 0 00-3-.19c-.05-.1-.14-.19-.14-.28v-3.41a2.86 2.86 0 01.58-.12h9.22a2.75 2.75 0 01.44.06 15.82 15.82 0 010 3.71 2.92 2.92 0 01-.54.08h-1.62c-.23-.06-.47 0-.8.04zm-15.88.03a28.74 28.74 0 00-2.87-.21 3.78 3.78 0 01-.06-.47v-2.39c0-.62.26-.88.88-.93h8.51a7.21 7.21 0 01.77.06 24.62 24.62 0 010 3.74c-1.05.19-2.08-.12-3.08.21 0 .2-.05.36-.05.52v5a3.65 3.65 0 01-.06.49 15.19 15.19 0 01-3.6.14 3.6 3.6 0 01-.44-.08z" data-name="7N2zQl.tif"/></g></svg>