<svg xmlns="http://www.w3.org/2000/svg" width="41" height="40" fill="none"><path fill="#E5E5E5" fill-rule="evenodd" d="M20.5 40c11.046 0 20-8.954 20-20s-8.954-20-20-20S.5 8.954.5 20s8.954 20 20 20z" clip-rule="evenodd"/><mask id="yandex-drive__a" width="41" height="40" x="0" y="0" maskUnits="userSpaceOnUse"><path fill="#E5E5E5" fill-rule="evenodd" d="M20.5 40c11.046 0 20-8.954 20-20s-8.954-20-20-20S.5 8.954.5 20s8.954 20 20 20z" clip-rule="evenodd"/></mask><g mask="url(#yandex-drive__a)"><path fill="#0000F9" d="M10 1l6-2s7.203 1 9.987 3.933c1.013 1.068 1.868 2.09 2.697 4.643.87 2.551 1.078 5.75.645 9.575a26.092 26.092 0 01-2.937 10.295c-2.065 4.279-4.892 7.053-6.278 8.16C18.728 36.71 14.5 39.498 13 38.998s-5.697-3.2-7-4.5c-1.302-1.3-1.663-3.995-1.665-5.836L4.331 9.854a6.942 6.942 0 012.051-4.87C7.682 3.693 10 1 10 1z"/><path fill="url(#yandex-drive__paint0_linear)" fill-opacity=".54" d="M9.5 2l9.127-3.07s5.847 2.437 7.36 4.003c1.513 1.567 1.868 2.09 2.696 4.643.87 2.551 1.079 5.75.645 9.575a26.094 26.094 0 01-2.936 10.295C24.327 31.725 23 33 20.114 35.606 17.228 38.21 14 39 14 39c-1.84.001-7.197-3.7-8.5-5-1.303-1.3-1.163-3.496-1.165-5.337L4.33 9.854a6.942 6.942 0 012.051-4.87C7.682 3.693 9.5 2 9.5 2z"/><path fill="#161616" d="M5.705 5.69c1.857-.056 3.664.095 5.235.421 1.715.34 3.16 1 4.354 1.94 1.196.959 2.06 2.242 2.595 3.87.555 1.607.682 3.645.402 6.113a19.27 19.27 0 01-1.864 6.558 16.392 16.392 0 01-3.631 4.831c-1.445 1.302-3.911 2.618-5.012 3.064-.68.28-1.077.526-1.783.706C6.001 33.193 0 35.5.5 20 .823 10.005 5.705 5.69 5.706 5.71l-.001-.02z"/><path fill="url(#yandex-drive__paint1_linear)" fill-opacity=".08" d="M5.705 5.69c1.857-.056 3.664.095 5.235.421 1.715.34 3.16 1 4.354 1.94 1.196.959 2.06 2.242 2.595 3.87.555 1.607.682 3.645.402 6.113-.226 2.28-.858 4.5-1.864 6.558a16.397 16.397 0 01-3.631 4.831c-1.445 1.303-3.911 2.618-5.012 3.064-.68.28-1.076.526-1.783.706C6.001 33.194.5 35 .5 20 .5 9.742 5.705 5.69 5.706 5.71l-.001-.02z"/></g><defs><linearGradient id="yandex-drive__paint0_linear" x1="28.979" x2="10.104" y1="1.993" y2="31.904" gradientUnits="userSpaceOnUse"><stop stop-color="#fff" stop-opacity=".5"/><stop offset="1" stop-color="#fff" stop-opacity="0"/></linearGradient><linearGradient id="yandex-drive__paint1_linear" x1="10.514" x2="11.952" y1="5.442" y2="32.885" gradientUnits="userSpaceOnUse"><stop stop-color="#fff" stop-opacity=".77"/><stop offset="1" stop-color="#fff" stop-opacity="0"/></linearGradient></defs></svg>