<svg xmlns="http://www.w3.org/2000/svg" width="60" height="60"><g fill="none" fill-rule="evenodd"><rect width="60" height="60" fill="#4C77A0" rx="30" transform="rotate(90 30 30)"/><path fill="#FFF" d="M28.492 41.916h2.096s.632-.07.956-.418c.297-.32.288-.92.288-.92s-.041-2.812 1.264-3.226c1.286-.408 2.938 2.717 4.689 3.92 1.324.909 2.33.71 2.33.71l4.682-.066s2.449-.151 1.287-2.077c-.095-.157-.676-1.424-3.48-4.027-2.937-2.725-2.543-2.284.993-6.997 2.154-2.87 3.015-4.623 2.746-5.373-.257-.715-1.84-.526-1.84-.526l-5.272.032s-.391-.053-.68.12c-.284.17-.466.566-.466.566s-.835 2.22-1.947 4.11c-2.347 3.986-3.286 4.197-3.67 3.949-.892-.577-.669-2.317-.669-3.554 0-3.863.586-5.473-1.141-5.89-.573-.138-.995-.23-2.46-.245-1.881-.019-3.473.006-4.374.448-.6.293-1.063.948-.78.985.348.047 1.136.213 1.555.782.54.736.521 2.386.521 2.386s.31 4.547-.725 5.111c-.71.388-1.685-.403-3.778-4.019-1.072-1.852-1.881-3.9-1.881-3.9s-.156-.382-.435-.587c-.338-.248-.81-.327-.81-.327l-5.009.033s-.752.02-1.028.348c-.246.29-.02.892-.02.892s3.922 9.175 8.363 13.799c4.072 4.24 8.695 3.961 8.695 3.961"/></g></svg>