<svg xmlns="http://www.w3.org/2000/svg" xmlns:xlink="http://www.w3.org/1999/xlink" width="80" height="80"><defs><circle id="rukodelie__a" cx="40" cy="40" r="40"/></defs><g fill="none" fill-rule="evenodd"><use fill="#C4213C" xlink:href="#rukodelie__a"/><path fill="#FFF" d="M13.691 35.314c.149-.156.278-.33.398-.51-1.13-.549-2.818-1.99-2.116-3.5.345-.74 1.45-.947 2.547-.126 1.302.978 1.515 2.249.813 3.637 3.13 1.648 6.19.422 6.794-1.273.47-1.318-.744-2.718-3.26-2.74-.406-.005-.79-.007-1.093.065a.426.426 0 01-.15.007c-.086-.015-.143-.094-.095-.172l.019-.03.035-.008c.376-.082.82-.096 1.282-.106 2.698-.063 4.155 1.588 3.781 3.098-.48 1.942-3.656 3.453-7.583 1.631-.107.117-.186.253-.282.377a6.68 6.68 0 011.046.596c3.064 2.174.152 5.662-2.343 6.783-3.419 1.536-8.013 1.149-8.232-1.583-.195-2.447 3.804-3.357 5.637-3.314 1.583.037 3.149.667 3.916 1.906.075.122.133.307.097.362-.025.038-.095-.028-.234-.175-.934-.988-2.276-1.534-3.787-1.503-1.573.032-5.28.905-5.245 2.756.043 2.302 4.21 2.16 7.366.557 1.671-.848 5.033-3.71 2.543-5.498a6.522 6.522 0 00-1.06-.595c-.723.65-1.76 1.077-2.73 1.095-1.256.025-2.104-1.037-.79-1.664.833-.399 1.858-.285 2.726-.073zm56.884 7.429c-.653 0-.944-.503-1.039-1.053-.43.566-.926 1.071-1.575 1.071-1.128 0-.986-.93-.58-1.887.078-.185.2-.525.326-.875-.684.453-1.28.203-1.869.804-.214.219-.457 1.062-.576 1.32-.237.517-.11.518-.766.57-.537-.004-.598.035-.325-.59.237-.542.439-.981.625-1.431.186-.45.355-.912.613-1.502-.388.392-1.387 1.477-2.09 2.044-.175.43-.317.774-.37.898-1.517 3.586-3.986 7.901-9.51 7.78-4.581-.15-5.351-4.226-2.975-6.314a.571.571 0 01.384-.154c.495.01.304.372.137.52-2.225 1.952-1.711 5.505 2.549 5.653 4.96.13 7.36-4.473 8.51-7.747-.563.563-1.38 1.063-1.989 1.05-.644-.012-.757-.46-.695-.97.13-1.075.651-2.234.982-3.283.084-.263.22-.421.312-.42l.555-.02c.296.006.251.221.145.565-.15.489-.401 1.14-.495 1.375-.199.498-1.35 2.95.115 2.106.61-.351 1.403-1.211 1.656-1.95.262-.766.282-.774.52-1.387.167-.426.324-.712.505-.709l.499.008c.159.003.206.053.203.211l-.002.07c-.002.122-.389 1.114-.76 2.035.794-.686 1.837-1.958 2.193-2.22.444-.175 1.125-.426.963.041a10.171 10.171 0 01-.623 1.58 8.104 8.104 0 01-.238.44c.603-.59 1.374-.08 2.094-1.105a3.21 3.21 0 01.135-.298c.326-.595.16-.776.842-.776.557 0 .409.211.197.801-.18.5-.658 1.865-.884 2.397-.248.585-.276 1.279.429.728.306-.24.562-.602.797-.951.044-1.087 1.162-2.29 1.789-2.633 1.3-.711.414.557.18.804-.396.42-.7.927-.92 1.465-.122.3-.537 1.576.09 1.576.71 0 1.358-.572 1.779-1.094.097-.121.227-.32.359-.554-.889-.928-.572-2.797.413-2.524.04.011.07.03.093.053.784.498.448 1.54-.035 2.399.252.185.618.28 1.134.204.245-.036.356.033.357.119 0 .085-.11.188-.305.218-.581.09-1.033-.015-1.37-.232a8.64 8.64 0 01-.288.426c-.522.727-1.248 1.348-2.201 1.348zm2.396-2.383c.293-.608.51-1.306.248-1.585-.006.004-.01.001-.01-.01h-.001a.53.53 0 00-.156-.03c-.255.003-.481.987-.08 1.625zm-32.903 2.383c-.738 0-1.013-.64-1.066-1.269-.427.647-1.06 1.287-1.791 1.287-1.604 0-.64-1.88 0-3.048.528-.968.56-1.429-.355-.567-.886.835-1.524 1.993-2.193 3.021-.346.533-.33.44-.876.523-.548.013-.628.04-.291-.59.537-1.006.977-1.947 1.47-3.014.048-.105.136-.304.136-.42 0-.096-.03-.147-.13-.155-.116-.011-.334.155-.418.222-1.1.878-1.878 2.161-2.645 3.39-.3.483-.195.518-.85.57-.538-.004-.674-.004-.326-.59.645-1.085 1.068-2.062 1.583-3.24a5.961 5.961 0 01-1.349.638c-.13.66-.578 1.394-.938 1.894-.521.727-1.247 1.348-2.2 1.348-.832 0-1.076-.815-1.076-1.508v-.052c-.653.792-1.741 1.836-2.43 1.558-.44-.177-.497-.8-.416-1.302-.477.595-1.097 1.304-1.77 1.304-.269 0-.512-.086-.69-.292a1.568 1.568 0 01-.373-.91 2.454 2.454 0 01-.598.083c-.04 0-.115.003-.178-.006-.547.61-1.217 1.125-2.074 1.125-.832 0-1.076-.815-1.076-1.508 0-.273.027-.343.066-.677-.263.23-.665.812-1.106 1.518-.116.186-.28.37-.397-.04-.112-.289-.02-.278.065-.268.086.01.151-.093.202-.172a13.48 13.48 0 011.772-2.223c.714-.666 1.668-1.243 2.678-1.243.308 0 .583.099.78.346.048.065.089.136.121.211.331.77-.255 1.911-.736 2.573l.027.001c.203 0 .368-.118.512-.29.043-.15.107-.293.192-.425.429-.7.832-.346 1.077.236l.017.04-.023.038c-.152.246-1.005 1.456-.226 1.456.544 0 1.172-.713 1.71-1.565.48-.76.972-1.632 1.305-2.208.201-.348.47-.411.794-.42.62-.014.568.088.412.363-.305.539-.64 1.062-.937 1.606-.331.609-.65 1.24-.912 1.883-.033.082-.104.334-.018.404.356.286 1.97-1.116 2.49-2.138.377-.771 1.08-1.46 1.53-1.706 1.3-.711.414.557.18.804-.396.42-.7.927-.92 1.465-.122.3-.537 1.576.09 1.576.71 0 1.358-.572 1.778-1.094.238-.296.674-1.051.846-1.677a1.584 1.584 0 01-.23.018c-.38 0-.744-.166-.756-.686-.01-.408.363-.885.913-.733.402.21.557.543.56.927a6.908 6.908 0 001.56-.824c.443-.175 1.125-.511.962-.044-.171.575-.602 1.315-.819 1.747-.074.15-.153.297-.237.442l.135-.166c.506-.625 1.037-1.254 1.657-1.77.216-.179.506-.37.797-.37.484 0 .629.38.629.804 0 .51-.22 1.008-.453 1.452l.134-.164c.259-.32.533-.628.82-.924a8.68 8.68 0 01.886-.807c.229-.179.528-.362.828-.362.68.031.563 1.133.346 1.59-.229.478-.498 1.12-.725 1.652-.247.585-.275 1.279.43.728.554-.434 1.027-1.269 1.22-1.707.35-.839 1.125-1.613 1.608-1.877 1.3-.711.414.557.181.804-.397.42-.7.927-.92 1.465-.122.3-.538 1.576.089 1.576.71 0 1.358-.572 1.778-1.094.095-.118.22-.307.348-.532-.902-.92-.567-2.82.425-2.546.907.474.556 1.572.05 2.464.153.108.345.183.585.208.026-.104.061-.208.105-.31.263-.607.767-1.154 1.264-1.582.54-.466 1.286-.858 2.014-.858.242 0 .468.067.643.241a.83.83 0 01.241.612c0 .347-.16.634-.41.869-.561.525-1.305.853-2.03 1.08a7.992 7.992 0 01-.867.233 1.988 1.988 0 00-.048.454c0 .445.1.74.59.761.59.03 1.86-.497 2.467-1.071.07-.056.241-.206.34-.181.266.067.056.31-.057.393-1.013.809-1.974 1.196-2.863 1.221-.98.055-1.493-.693-1.442-1.52a1.662 1.662 0 01-.719-.237 8.658 8.658 0 01-.277.41c-.522.727-1.248 1.348-2.201 1.348zm2.386-2.362c.323-.663.559-1.442.182-1.666-.066-.019-.057-.026-.108-.026-.26.003-.5 1.044-.074 1.692zm-11.869-1.128c.023-.255-.03-.456-.206-.548-.076-.018-.2-.044-.312.069-.162.163-.068.506.249.507.082 0 .173-.01.27-.028zm31.521-8.064a4.881 4.881 0 00-1.247-.15c-1.848.024-3.71.576-5.175 1.73-1.293 1.018-2.938 2.95-2.635 4.706.14.804.655 1.389 1.522 1.239 1.137-.197 2.026-1.215 2.584-2.159.725-1.23 1.22-2.962.605-4.335-.075-.166-.038-.204 0-.215.039-.011.078.005.165.125 1.048 1.434.78 3.439-.11 4.815-.675 1.047-1.728 1.94-2.983 2.156-1.076.186-1.95-.465-2.13-1.502-.338-1.958 1.373-4.02 2.813-5.137 1.56-1.212 3.662-1.85 5.634-1.798.438.01.89.057 1.314.173.166-.138.327-.283.478-.436.097-.098.253-.246.393-.27.096-.016.16.047.175.137.022.13-.159.27-.248.337-.139.11-.272.229-.4.352 1.416.532 2.492 2.086 1.943 3.59-.51 1.397-2.112 2.67-3.637 2.185a1.99 1.99 0 01-.347-.144c-.153-.084-.197-.202-.165-.28.033-.078.142-.117.297-.042.074.037.152.07.23.102 1.375.558 2.466-1.187 2.622-2.334.151-1.092-.155-2.26-1.283-2.714-.654.662-1.048 1.572-1.381 2.426-.913 2.33-1.448 4.83-2.99 6.86-.545.717-1.184 1.36-1.943 1.85-.727.473-1.6.78-2.475.75-.435-.018-.797-.147-1.091-.486-.262-.294-.384-.788-.194-1.15.093-.183.173-.282.373-.317.29-.05.949.083.733.495-.416.865.417 1.123 1.068 1.01a3.05 3.05 0 001.225-.487c.766-.526 1.34-1.287 1.76-2.109.64-1.268 1.062-2.598 1.516-3.94a15.54 15.54 0 011.246-2.743c.474-.826 1.045-1.631 1.738-2.29zM44.39 40.796c.25-.042.496-.118.73-.208.597-.228 1.167-.605 1.552-1.121.167-.224.263-.475.263-.756 0-.162-.077-.218-.234-.218-.234 0-.467.12-.655.248a4.5 4.5 0 00-.729.635c-.372.397-.756.895-.927 1.42zM20.84 38.72c-.324-.303-.775-.128-1.097.088-.716.482-1.221 1.205-1.544 1.997-.123.3-.538 1.576.089 1.576.71 0 1.358-.572 1.778-1.094.467-.58 1.2-1.82.774-2.567zm-6.5-4.315c.512-.846.84-2.16-.06-2.894-.78-.636-1.473-.452-1.749.121-.54 1.121.881 2.336 1.808 2.773zm-2.748 2.11a3.92 3.92 0 001.793-.885c-.692-.16-1.446-.26-2.13-.013-.978.352-.565 1.083.337.899z"/></g></svg>