<svg xmlns="http://www.w3.org/2000/svg" xmlns:xlink="http://www.w3.org/1999/xlink" width="40" height="40"><defs><path id="time-zero__a" d="M0 .437h25V22H0z"/></defs><g fill="none" fill-rule="evenodd" transform="translate(-41 -182)"><rect width="40" height="40" x="41" y="182" fill="#DF342F" fill-rule="nonzero" rx="20" transform="rotate(90 61 202)"/><g transform="translate(49 191.563)"><mask id="time-zero__b" fill="#fff"><use xlink:href="#time-zero__a"/></mask><path fill="#FFF" d="M0 22c2.76-5.229 6.512-9.652 11.092-13.694H8.303l-.324 2.203-3.74-5.798c.732 0 1.442.002 2.151 0 2.802-.009 5.604-.036 8.406-.017.76.006 1.42-.179 2.1-.509 2.62-1.276 5.266-2.503 7.904-3.748l.2.25-2.656 3.649c-4.409 1.77-8.589 4.173-12.386 7.262C6.203 14.655 2.96 18.182 0 22" mask="url(#time-zero__b)"/></g><path fill="#FFF" d="M64.236 204.202l5.865 6.32h-17.37c1.237-3.222 13.118-12.237 17.813-13.349-2.192 1.574-4.157 2.922-6.05 4.362-1.914 1.455-3.329 3.361-4.696 5.472H64.1l.135-2.805"/></g></svg>