<svg xmlns="http://www.w3.org/2000/svg" xmlns:xlink="http://www.w3.org/1999/xlink" width="60" height="60"><defs><path id="tinkonet__a" d="M30 60c16.569 0 30-13.431 30-30C60 13.431 46.569 0 30 0 13.431 0 0 13.431 0 30c0 16.569 13.431 30 30 30z"/><path id="tinkonet__b" d="M21.122.1H0v17.889h21.122z"/></defs><g fill="none" fill-rule="evenodd"><use fill="#BC3936" xlink:href="#tinkonet__a"/><path fill="#FFF" d="M46.86 30.11c-.159 2.444-.546 4.854-1.637 7.07-1.233 2.505-2.942 4.676-5.204 6.375-1.323.994-2.751 1.878-4.315 2.395-1.345.444-2.738.823-4.201.88-1.49.06-2.992.177-4.443-.149-1.254-.282-2.552-.432-3.712-1.141-.747-.458-1.623-.723-2.382-1.204-.38-.242-.672-.558-.986-.86-.14-.134-.163-.314-.125-.488.098-.445.501-1.702.74-1.804 1.357-.583 1.764-1.744 1.006-3.02-.261-.44-.176-.746-.048-1.193.3-1.05 4.447-10.038 5.067-11.107.155-.268.343-.508.662-.605 1.76-.534 3.495-1.167 5.284-1.577 1.987-.456 3.982-.885 6.01-1.185a95.725 95.725 0 015.234-.609c.593-.055 1.235.564 1.563 1.37.56 1.378.916 2.806 1.201 4.258.169.858.302 1.714.286 2.595"/><g transform="translate(13 13.097)"><mask id="tinkonet__c" fill="#fff"><use xlink:href="#tinkonet__b"/></mask><path fill="#FFF" d="M20.107.513c.23.069.466.143.672.261.456.263.458.505 0 .745-1.608.843-2.812 2.14-3.998 3.457-1.524 1.693-2.736 3.608-3.976 5.501-.21.321-.462.526-.81.705-1.288.661-2.69 1.052-3.984 1.68-.885.43-1.831.766-2.61 1.393-.171.138-.35.16-.552.157-.352-.006-.705-.006-1.058-.01-1.725-.017-2.444.592-2.556 2.262-.029.439-.156.751-.501.993-.168.118-.275.43-.522.3-.188-.099-.19-.38-.202-.594-.075-1.364.305-2.67.51-4 .276-1.78.969-3.429 1.898-4.906C3.76 6.32 5.442 4.43 7.647 3.047c1.265-.795 2.528-1.646 3.946-2.045C13.335.512 15.11-.027 16.88.126a9.648 9.648 0 013.227.387z" mask="url(#tinkonet__c)"/></g><path fill="#FFF" d="M14.591 35.995c.024-1.079.515-2.01 1.025-2.918.226-.403.67-.615 1.163-.657 1.147-.097 2.161-.808 2.356-1.921.144-.817.491-1.34 1.175-1.738.903-.527 1.737-1.181 2.774-1.46.352-.095.602-.16.445.39-.338 1.184-.877 2.282-1.364 3.406a30.23 30.23 0 00-1.26 3.484c-.24.815-.649 1.567-.811 2.408-.073.377-.417.594-.754.78-1.049.577-1.344 1.689-.718 2.704.138.222.332.419.356.69.029.319.111.662-.286.852-.367.176-.79.101-.977-.146-1.166-1.536-2.4-3.04-3.017-4.907a2.11 2.11 0 01-.103-.445c-.017-.172-.004-.348-.004-.522m23.382-19.792c1.228-.077 2.169.544 3.013 1.285.853.748 1.677 1.541 2.296 2.51.163.255.435.492.27.817-.152.3-.488.245-.77.24-2.56-.041-5.078.247-7.605.677-1.69.288-3.334.76-5.026 1.01a6.242 6.242 0 01-.589.064c-.204.01-.408-.02-.503-.232-.092-.204-.01-.402.121-.547 1.35-1.484 2.64-3.026 4.332-4.173.544-.368 1.104-.686 1.67-1.011.885-.508 1.836-.557 2.791-.64"/></g></svg>