<svg xmlns="http://www.w3.org/2000/svg" width="41" height="40" fill="none"><path fill="#424951" fill-rule="evenodd" d="M20 40c11.046 0 20-8.954 20-20S31.046 0 20 0 0 8.954 0 20s8.954 20 20 20z" clip-rule="evenodd"/><path fill="#fff" fill-rule="evenodd" d="M15.252 22.88l1.516-4.223h-1.11l-.878 2.617c-.05.165-.1.38-.149.637h-.017l-.149-.637-.877-2.617h-1.11l1.532 4.224h1.242zm1.35-.521c.43.414.985.62 1.656.62.48 0 .87-.123 1.16-.363a1.19 1.19 0 00.439-.936c.008-.804-.754-1.119-1.359-1.309-.406-.14-.737-.315-.737-.555 0-.273.199-.406.588-.406.373 0 .828.158 1.069.365l.389-.737c-.365-.323-.837-.48-1.425-.48-.464 0-.853.115-1.16.339-.306.223-.455.53-.455.927-.016.795.77 1.135 1.358 1.325.406.141.738.315.738.555 0 .265-.216.423-.588.423-.464 0-.862-.157-1.201-.464l-.473.696zm3.428-1.59c0 .629.207 1.16.63 1.582.421.422.977.629 1.664.629.67 0 1.342-.265 1.74-.688l-.407-.745c-.372.356-.786.538-1.242.538-.39 0-.712-.124-.953-.38a1.334 1.334 0 01-.364-.945c0-.373.116-.679.356-.927.24-.257.547-.381.928-.381.422 0 .787.149 1.093.455l.472-.72c-.389-.423-1.018-.63-1.623-.63-.688 0-1.243.215-1.665.646-.422.422-.63.944-.63 1.566zm4.148.944c0 .372.133.679.398.92.273.231.604.347.994.347.563 0 1.068-.306 1.333-.762h.017l-.025.306v.357h.977v-2.643c0-1.06-.654-1.68-1.756-1.68-.306 0-.613.049-.92.157-.306.099-.554.223-.736.364l.39.754c.397-.274.786-.406 1.175-.406.53 0 .795.248.795.745v.058h-.182c-.555 0-1.035.066-1.574.265-.53.19-.886.621-.886 1.218zm1.044-.091c0-.448.472-.671 1.424-.671h.183v.116c0 .273-.091.53-.274.762a.848.848 0 01-.695.348c-.398 0-.638-.257-.638-.555zm3.056-.058c0 .571.165.969.439 1.143.273.165.521.215.861.215.075 0 .182-.008.331-.025v-.92c-.041.009-.09.009-.157.009-.298 0-.43-.14-.43-.58V17h-1.044v4.564zm1.697-.796c0 .622.207 1.143.63 1.574.422.423.968.638 1.647.638.622 0 1.276-.232 1.698-.605l-.414-.753c-.39.306-.787.463-1.21.463-.67 0-1.2-.414-1.266-1.118h2.907c.025-.174.033-.314.033-.406 0-.58-.166-1.06-.497-1.432-.331-.381-.787-.572-1.375-.572-.638 0-1.151.207-1.557.621-.398.406-.596.936-.596 1.59zm1.11-.521c.099-.539.488-.895 1.018-.895.489 0 .837.34.845.895h-1.863zm-20.268 1.345v1.29L8.916 23.98 6 22.297v-3.366l1.901-1.098.915.528-1.802 1.142V21.7l1.902 1.098 1.901-1.205z" clip-rule="evenodd"/><path fill="#26BCF1" fill-rule="evenodd" d="M11.831 22.297v-3.366l-2.916-1.683-1.014.585 2.916 1.683v3.369l1.014-.588z" clip-rule="evenodd"/></svg>