<svg xmlns="http://www.w3.org/2000/svg" xmlns:xlink="http://www.w3.org/1999/xlink" width="80" height="80"><defs><circle id="maknails__a" cx="40" cy="40" r="40"/></defs><g fill="none" fill-rule="evenodd"><use fill="#F3F3F3" xlink:href="#maknails__a"/><g fill-rule="nonzero"><path fill="#181A19" d="M16.207 49.753l-.029 3.477-.201 5.431h-.805l.403-11.121h1.092l.977 6.38.431 3.189.488-3.189.977-6.38h1.035l.431 11.121h-.834l-.258-5.431.029-3.477h-.058l-.546 3.42-.891 5.316h-.862l-.862-5.345-.46-3.391zm10.633 5.92l-1.811.028v-.028l-.46 2.988h-.833L25.46 47.57h.977l1.724 11.092h-.833l-.489-2.988zm-.087-.747l-.431-2.702-.402-3.275-.403 3.275-.402 2.702h1.638zm5.977-.345c.43.574.948 1.207 3.16 4.08h-1.034L32.3 55.414l-.288.575v2.672h-.833V47.57h.833v6.84l.748-1.84 2.184-5h.89l-3.103 7.012zm6.465-4.77l1.61 4.77.689 2.327-.172-2.414v-4.683h.833v8.85h-.776l-1.609-4.684-.632-2.241.144 2.299v4.655h-.834v-8.879zm8.334 6.523l-1.293.028-.374 2.328h-.833l1.35-8.85h.891l1.38 8.85h-.834l-.287-2.356zm-.115-.69l-.201-1.322-.345-2.845-.374 2.845-.2 1.322h1.12zm11.12 2.27v.747h-2.729v-8.85h.833v8.103zm2.73-1.064v-.919h.834v.92c-.029.632.287 1.178.977 1.178.66 0 .977-.517.977-1.15v-.66c0-.431-.403-.661-1.006-1.006-1.006-.575-1.753-1.035-1.782-1.925V51.65c0-1.064.546-1.868 1.725-1.868 1.034 0 1.637.776 1.637 1.839v1.207h-.804V51.62c0-.604-.23-1.092-.833-1.092-.489 0-.863.345-.863 1.12v1.581c.03.46.46.747 1.179 1.178.747.431 1.58.891 1.551 1.724v.719c0 1.034-.574 1.896-1.781 1.896-1.035 0-1.81-.747-1.81-1.896z"/><path fill="#CD4F58" d="M53.62 49.925c0 .776-.574 1.667-1.292 1.667-.69 0-1.265-.89-1.265-1.667 0-.776 1.265-2.787 1.265-2.787s1.293 2.011 1.293 2.787z"/><path fill="#181A19" d="M51.897 54.121h1v4.54h-1z"/><path stroke="#000" d="M48.584 30.893c0 5.562-4.117 11.199-8.8 11.199-4.535 0-8.617-5.677-8.617-11.199 0-1.814.969-4.621 2.68-8.199.438-.915.919-1.868 1.436-2.848a119.226 119.226 0 014.077-7.112l.418-.666.426.662a115.817 115.817 0 011.304 2.107 118.503 118.503 0 012.866 5.005c.528.98 1.02 1.933 1.468 2.848 1.75 3.579 2.742 6.386 2.742 8.203z"/></g></g></svg>