<svg xmlns="http://www.w3.org/2000/svg" xmlns:xlink="http://www.w3.org/1999/xlink" width="40" height="40"><defs><path id="berserk__a" d="M0 .808h28v16.067H0z"/></defs><g fill="none" fill-rule="evenodd" transform="translate(-307 -250)"><rect width="40" height="40" x="307" y="250" fill="#4C77A0" fill-rule="nonzero" rx="20" transform="rotate(90 327 270)"/><rect width="40" height="40" x="307" y="250" fill="#7D8889" fill-rule="nonzero" rx="20" transform="rotate(90 327 270)"/><g transform="translate(313 261.318)"><mask id="berserk__b" fill="#fff"><use xlink:href="#berserk__a"/></mask><path fill="#FFF" d="M4.629 11.472c.744.049 1.321-.068 1.321-.068.026 2.478 2.17 3.746 2.17 3.746s-1.837.562-3.39.32a7.135 7.135 0 01-2.414-.88s.393-.843.584-1.966c.179-1.04.204-1.652.204-1.652s.89.459 1.525.5m22.68-4.664c-.508-1.114-1.185-1.052-1.92-.546-.45.023-.959.038-1.465.077-.776.06-1.549.168-2.325.198-1.316.052-2.634.067-3.951.08-1.296.013-2.592.011-3.888.002-3.02-.021-6.04-.05-9.06-.076-.075 0-.149-.015-.178-.017-.145-.188-.265-.346-.353-.458h-.474c-.145-.172-.097-.366-.083-.551.009-.113.037-.223.064-.333.122-.511.193-1.034.52-1.481.35-.478 1.034-.75 1.586-.556.375.132.737.304 1.092.453.483-.383.928-.795 1.43-1.119.521-.338 1.148-.357 1.769-.386-.603-.425-1.224-.77-1.937-.909-.59-.115-1.183-.21-1.78-.298a6.238 6.238 0 00-.936-.08C4.97.81 4.518.833 4.07.88c-1.345.139-2.624.458-3.626 1.43.229.339.467.65.661.988.488.85.353 1.809.474 2.711-.28.187-.472.38-.475.717-.004.366-.053.731-.067 1.097-.015.389.144.68.502.809-.017.17-.046.32-.044.469.009.81-.027 1.616-.15 2.42-.103.688-.232 1.365-.575 1.977-.238.427-.503.839-.77 1.28.071.078.16.208.277.299.26.198.54.369.801.567.96.728 2.07 1.06 3.24 1.198.514.06 1.04.021 1.562.009.51-.014 1.035.013 1.527-.093 1.217-.263 2.45-.506 3.522-1.206.042-.026.087-.058.134-.067.612-.12.977-.603 1.519-.985-.5-.054-.909-.122-1.32-.139-.891-.038-1.68-.362-2.419-.836-.927-.594-1.35-1.537-1.648-2.535-.162-.535-.195-1.11-.287-1.67-.034-.004-.074-.022-.108-.012a.962.962 0 00-.204.088c-.5.286-1.034.435-1.612.363-.624-.079-1.104-.366-1.175-1.077.336.066.485-.201.645-.371 1.315-.037 2.593-.087 3.87-.108a93.4 93.4 0 013.127-.001c2.282.036 4.566-.083 6.848.066.988.066 1.98.057 2.97.085.783.022 1.566.051 2.35.075.208.007.42-.026.62.009.563.1 1.139.13 1.674.378.411.191.82.055 1.037-.33.142-.253.335-.491.669-.56.23-.048.336-.25.38-.472-.075-.395-.36-.56-.69-.645" mask="url(#berserk__b)"/></g><path fill="#FFF" d="M329.966 272.045l.1.053.327-.415-.427-.455v.817zm-2.053-1.756c.217.354.511.542.918.595l-.52.618c-.19-.104-.375-.203-.601-.324-.05.095-.124.175-.126.257-.01.636-.005 1.272-.005 1.922l.683.313.25-.309.451.081c.206-.74.025-1.541.114-2.36l.99-.764c.369.419.715.809 1.088 1.23l-1.205 1.04v.77l.403.315.343-.071c-.046.42-.44.48-.613.716-.378-.147-.745-.288-1.141-.443.001-.025.003-.08.007-.133l.015-.177c-.523.154-.86.5-1.237.829-.329-.224-.669-.505-1.125-.54.277-.915.17-1.834.082-2.733l1.229-.832zm-2.395 3.211v-2.074l-.21-.26-.461.283v1.906l.67.144m-.458 1.258l-.592.517-.637-.598c.072-.266.145-.537.226-.844l-.385-.022c-.026-.164-.051-.32-.08-.489l.34-.048v-1.963l-.453-.23.637-.602.433-.077.258.687.866-.758.6.778v2.38l-.894.808c-.134-.08-.298-.174-.512-.297v.437c-.02.215.29.064.226.287l-.061-.052-.024.023.052.063m7.941-3.593l-.443.358v1.793l.672.22v-2.243l-.23-.128m-.468 3.745l-.331.4-.748-.521c.02-.01.062-.025.104-.042l-.003-.01.028.062.058-.062-.01.009c.021-.01.041-.02.062-.028l-.061-.059.009.005.106-.796c-.167-.056-.294-.096-.419-.147-.016-.008-.01-.073-.014-.113l.061.052.023-.022a1.367 1.367 0 00-.052-.062l.267-.214c.125-.317.16-.64.056-.984-.045-.151-.015-.328-.001-.49.018-.236.051-.47.084-.741l-.3.031-.117-.23.672-.593.653.683c.149-.181.262-.315.37-.451.07-.088.124-.202.266-.118l.062.051a.435.435 0 00.022-.023 2.476 2.476 0 00-.051-.061c.02-.012.057-.036.06-.033.219.27.435.54.662.826v2.39l-1.015.654-.464-.248v.553l.337.044-.113.102a15.304 15.304 0 00-.062-.051l-.024.022.052.062-.196.12-.06-.051-.024.022.051.062m2.321-4.322l.238-.178c.19.161.368.315.57.488l-.205.276v.747l.435-.153.454-1.18.732-.173.423.602-.055.05a66.613 66.613 0 00-.451-.366c-.132.162-.262.273-.33.414-.178.362-.331.735-.728.868l.793.414c.103.425.19.855.315 1.274.129.433.434.756.72 1.085h.628l.026.064-1.058.504c-.613-.376-.831-.98-.984-1.632-.093-.395-.218-.783-.323-1.159l-.58-.084c-.108.451-.038.885.133 1.286l-.5.668c-.361-.308-.496-.7-.481-1.153.019-.57.05-1.139.074-1.708.003-.076 0-.154 0-.224l-.254-.436.376-.26.06.052.024-.024c-.017-.02-.035-.04-.052-.062"/><path fill="#FFF" d="M322.324 271.224l-.085.044c0 .165.007.33-.002.495-.007.138-.032.278-.056.482.228-.203.384-.344.56-.502l-.417-.52m.46 2.461c.112-.14.209-.258.295-.364h.379c-.15.545-.764.535-1.022.975a307.73 307.73 0 01-1.112-.417v-2.817l1.158-.708 1.028 1.175c-.414.32-.845.656-1.26.976v.905l.533.275m8.773 1.061l.083-.083-.01-.004v.087l.01-.009h-.087l.004.01z"/></g></svg>