<svg xmlns="http://www.w3.org/2000/svg" width="40" height="40" fill="none"><path fill="#DEE7F3" d="M20 40c11.046 0 20-8.954 20-20S31.046 0 20 0 0 8.954 0 20s8.954 20 20 20z"/><path fill="#1051B0" d="M12.737 13.333H9.38l-.9 10.199a5.9 5.9 0 011.52-.199h1.844l.589-6.666h.01l.294-3.334z"/><path fill="#1051B0" d="M13.456 16.667h1.843c3.451 0 3.664 1.337 3.451 3.75-.213 2.413-1.21 3.75-3.152 3.75H9.785c-2.134 0-4.333 1.635-5.06 3.632h10.573c3.67 0 6.968-2.382 7.354-6.76.423-4.789-1.403-7.706-7.478-7.706H13.75l-.294 3.334z"/><path fill="#F07730" d="M22.65 21.074c-1.137 1.828-3.575 3.093-6.4 3.093H9.787c-2.135 0-4.334 1.635-5.061 3.632h10.573c3.66 0 6.95-2.37 7.351-6.725zm5.914-8.574c-2.666 0-4.946 1.877-5.23 4.583-.317 3.007 1.666 5.834 5.23 5.834h1.22l.22-2.5h-1.44c-1.48 0-2.902-.984-2.694-2.992.208-2.008 1.308-2.425 2.694-2.425h2.059c1.877 0 3.336-.938 4.377-2.5h-6.436z"/><path fill="#F07730" d="M31.45 22.917h-.83l.22-2.5h.83l-.22 2.5z"/><path fill="#1051B0" d="M30.004 20.417l-.221 2.5h-1.22c-3.28 0-5.222-2.397-5.262-5.124 0 .042.002.1.004.14.25-1.669 2.25-2.933 4.612-2.933.11 0 .218.003.325.008-1.049.057-1.893.428-2.238 1.68a4.522 4.522 0 00-.138.784 3.361 3.361 0 000 .658c.152 1.534 1.402 2.287 2.698 2.287m3.106 0l-.22 2.5h-.83l.22-2.5h.83z"/></svg>