<svg xmlns="http://www.w3.org/2000/svg" xmlns:xlink="http://www.w3.org/1999/xlink" width="80" height="80"><defs><circle id="shop24__a" cx="40" cy="40" r="40"/></defs><g fill="none" fill-rule="evenodd"><use fill="#C2131C" xlink:href="#shop24__a"/><path fill="#FFF" fill-rule="nonzero" d="M8.63 46.102h5.875c.682 0 1.05-.262 1.206-.472.21-.315.263-.787.263-1.154 0-.368-.053-.735-.42-1.05-.367-.367-1.154-.524-2.413-.786l-1.784-.42c-.734-.157-1.836-.525-2.36-1.154-.367-.42-.525-.997-.525-1.679 0-.734.21-1.311.525-1.679.63-.839 1.521-.891 2.465-.891h4.879v.891h-5.298c-.263 0-.787 0-1.154.368-.368.314-.368.787-.368 1.206 0 .367 0 .945.42 1.312.367.367 1.416.63 1.731.682l1.836.42c1.26.314 2.099.524 2.728.944.63.524.734 1.101.734 1.783 0 .42-.052 1.626-.891 2.204-.472.367-1.207.367-1.627.367H8.63v-.892zm9.914-12.59h.997v3.305h3.725c.996 0 1.783.21 2.36.734.735.682.892 1.679.892 2.676v6.767h-.997v-6.872c0-.42-.052-1.26-.524-1.784-.472-.577-1.102-.63-1.679-.63h-3.777v9.338h-.997V33.512zm18.36 4.249c1.155 1.102 1.26 2.938 1.26 4.04 0 2.203-.63 3.514-1.26 4.144-1.153 1.101-2.832 1.154-3.776 1.154s-2.623-.053-3.777-1.154c-1.207-1.155-1.26-2.833-1.26-3.987 0-1.26.158-3.095 1.26-4.145.997-.996 2.518-1.101 3.777-1.101 1.311-.053 2.78.105 3.777 1.049zm-6.924 7.45c.84.89 2.099.996 3.148.996s2.308-.105 3.147-.997c.84-.944.84-2.465.84-3.305 0-.892 0-2.465-.787-3.41-.735-.891-2.203-.944-3.148-.944-.944 0-2.413.053-3.147.944-.787.945-.787 2.518-.787 3.41-.053.84-.105 2.413.734 3.305zm10.754 5.088h-.996V38.076c0-.525.314-.84.472-.945.367-.314.84-.314 1.154-.314h2.57c1.627 0 2.518.63 3.043 1.154.997 1.101 1.05 2.57 1.05 3.777 0 1.311-.053 2.675-.788 3.724-.891 1.364-2.308 1.522-3.62 1.522h-2.885v3.305zm3.305-4.197c.735 0 1.731-.21 2.361-1.154.525-.84.577-1.994.577-3.043 0-.892 0-1.888-.367-2.675-.525-1.102-1.521-1.47-2.466-1.47h-2.937c-.105 0-.21.053-.315.158-.158.158-.158.21-.158.368v7.92h3.305v-.104zm12.958-3.568a6.715 6.715 0 110-13.43 6.715 6.715 0 010 13.43zm-5.037-4.406c0 .157.053.42.525.472h3.672v-.472H52.59c-.053 0-.105 0-.105-.053 0 0 0-.052.105-.105l3.147-2.518c.105-.052.315-.262.473-.472.21-.367.262-.787.262-1.206 0-.315 0-.997-.367-1.364-.315-.315-.735-.367-1.102-.367h-2.57v.42h2.623c.42 0 .629.157.734.314.105.157.157.42.157.997 0 .682-.105.944-.472 1.259l-3.252 2.57c-.21.21-.263.367-.263.525zm8.866-.84h-.052V38.6h.472v-1.259h.734v-.472h-.682v-4.46c0-.314-.052-.366-.367-.419-.262 0-.42.105-.577.315l-3.357 3.934c-.105.158-.21.368-.21.525 0 .157.105.315.21.42.157.105.367.105.524.105h3.305zm.052-4.773v4.249h-3.357c-.105 0-.21 0-.21-.105 0 0 .053-.105.158-.21l3.252-3.882c.053-.052.105-.105.157-.052-.052-.053 0 0 0 0zm7.187 16.944a3.462 3.462 0 110-6.925 3.462 3.462 0 010 6.925zm-1.521-3.725v1.627h.262v-1.627c0-.21 0-.42.105-.524.105-.158.315-.158.472-.158h.158v-.21h-.158c-.367 0-.524.106-.63.21-.156.21-.209.42-.209.682zm3.148 1.627c.105-.105.105-.263.157-.315v-2.15h-.262v2.097c0 .053 0 .105-.053.158-.052.052-.105.052-.157.052h-.682c-.21 0-.42 0-.525-.157-.052-.105-.105-.21-.105-.472v-1.679h-.262v1.784c0 .157 0 .42.21.577.157.157.367.157.63.157h.681c.105 0 .263 0 .368-.052zm-3.882.052h.262v-.42h-.262v.42zm-5.141 1.994h-.63L69.272 29h.629z"/></g></svg>