<svg xmlns="http://www.w3.org/2000/svg" width="60" height="60"><g fill="none" fill-rule="evenodd"><path fill="#00A9E6" d="M30 0c16.569 0 30 13.432 30 29.995v.01C60 46.571 46.572 60 30 60 13.431 60 0 46.572 0 30 0 13.431 13.428 0 30 0z"/><path fill="#FFF" d="M21.906 15.04c-.154.276-1.2 1.694-1.293 4.833a12.758 12.758 0 001.171 5.535c.432.948 1.015 1.866 1.757 2.784.462.579.986 1.16 1.572 1.742 2.249 2.384 4.716 3.854 6.934 6.237 1.541 1.59 2.343 3.58 2.343 5.352 0 1.316-.432 2.508-1.326 3.394-.894.949-2.158 1.377-3.512 1.377-1.85 0-3.885-.826-5.52-2.416-.153-.122-.646-.673-.707-.765-2.65-3.088-5.826-10.274-5.795-17.063 0-4.159 1.171-8.165 4.376-11.01m3.238 13.456c-.278-.336-3.556-3.48-3.515-8.623.03-1.223.06-4.723 3.34-6.67 1.51-.977 3.74-1.374 5.406-.519 3.145 1.778 1.547 5.221 1.15 5.752a4.403 4.403 0 00-2.437.152c-3.759 1.316-4.93 6.299-3.944 9.908m5.825-6.82c-1.111 1.5-2.25 2.6-2.25 4.68 0 2.415 1.788 4.403 4.252 4.403 1.973 0 3.514-1.1 4.561-2.66 1.235-1.774 1.822-4.098 1.822-5.964 0-4.831-3.423-9.113-8.107-10 4.619 2.777.74 8.307-.278 9.54"/></g></svg>