<svg xmlns="http://www.w3.org/2000/svg" width="41" height="40" fill="none"><g clip-path="url(#yandex__clip0)"><path fill="red" d="M20.5 40c11.046 0 20-8.954 20-20s-8.954-20-20-20S.5 8.954.5 20s8.954 20 20 20z"/><path fill="#fff" fill-rule="evenodd" d="M20.456 21.479l-3.497 7.854h-2.552l3.842-8.399a5.462 5.462 0 01-2.18-2.021c-.553-.889-.83-2.097-.83-3.626 0-1.07.157-2.012.473-2.824.315-.812.745-1.486 1.29-2.021a5.304 5.304 0 011.906-1.204 6.58 6.58 0 012.293-.401h3.297v20.496H22.29V21.48h-1.835zM22.29 10.7h-1.176c-.44 0-.87.081-1.29.244-.42.162-.793.42-1.118.774-.325.353-.587.821-.788 1.404-.2.583-.301 1.305-.301 2.165 0 .821.09 1.51.272 2.064.182.554.43 1.003.746 1.347a2.62 2.62 0 001.118.731c.43.143.883.215 1.361.215h1.176V10.7z" clip-rule="evenodd"/></g><defs><clipPath id="yandex__clip0"><path fill="#fff" d="M0 0h40v40H0z" transform="translate(.5)"/></clipPath></defs></svg>