<svg xmlns="http://www.w3.org/2000/svg" width="41" height="40" fill="none"><circle cx="20.5" cy="20" r="20" fill="#009640"/><path fill="#fff" fill-rule="evenodd" d="M5.5 20.088A2.087 2.087 0 107.586 18 2.087 2.087 0 005.5 20.088zm1.994-.734a.496.496 0 11-.992 0 .496.496 0 01.992 0z" clip-rule="evenodd"/><path fill="#fff" d="M34.908 19.44c-.053-.446-.684-.607-.97-.288-.162.178-.164.517-.164.83v.175c0 .328.018.53.06.618.023.089.06.171.114.231.278.31.968.214.962-.32h.59l-.002.165c-.041.68-.608.949-1.178.922a1.216 1.216 0 01-.851-.37c-.166-.168-.254-.36-.295-.628h.002c-.04-.178-.025-.428-.025-.7v-.133c0-.654.063-.919.318-1.176.231-.235.522-.351.847-.358.57-.027 1.134.236 1.175.916l-.002.115h-.581zm-2.666 1.97c-.234.242-.54.361-.9.361-.366 0-.67-.13-.905-.372-.275-.281-.324-.624-.333-1.07h-.511v1.426h-.623v-3.296h.623v1.336h.516c.018-.534.081-.765.328-1.023.242-.251.555-.372.9-.372.362 0 .666.121.905.364.25.252.329.573.329 1.03v.292c0 .58.004.98-.329 1.324zm-.336-1.442c0-.43-.027-.668-.153-.811a.537.537 0 00-.417-.178.543.543 0 00-.42.178c-.13.149-.167.414-.167.834v.206c0 .485.04.68.166.82a.561.561 0 00.42.182.56.56 0 00.418-.182c.14-.155.153-.391.153-.853v-.196zm-4.449-.974h-.765l-.038 1.399c-.025.934-.38 1.362-1.026 1.362h-.306v-.623h.127c.3 0 .532-.132.55-.768l.05-1.905h2.031v3.296h-.623v-2.761zm-3.291 0h-1.157v2.76h-.623V18.46h2.402v3.296h-.622v-2.761zm-3.47 1.425h.534v1.87h-.534v-1.87zm-.932.382c0 .582-.394.954-1.022.954h-1.427v-3.296h1.371c.628 0 1.032.34 1.032.898 0 .318-.136.535-.414.69a.845.845 0 01.253.178c.146.154.207.343.207.576zm-1.129-1.807h-.608v.801h.608c.266 0 .431-.162.431-.4 0-.238-.165-.401-.43-.401zm.041 1.336h-.65v.802h.65c.268 0 .437-.151.437-.405 0-.25-.17-.397-.437-.397zm-2.696 1.425h-.712v-2.761h-.89v-.535h2.403v.535h-.8v2.76zm-2.758-1.425h-1.156v1.425h-.623v-3.296h.623v1.336h1.156V18.46h.623v3.296h-.623V20.33z"/></svg>