<svg xmlns="http://www.w3.org/2000/svg" width="60" height="60"><g fill="none" fill-rule="evenodd"><path fill="#000" d="M30 0c16.569 0 30 13.432 30 29.995v.01C60 46.571 46.572 60 30 60 13.431 60 0 46.572 0 30 0 13.431 13.428 0 30 0z"/><path fill="#FFF" d="M33.085 47.77c0 4.525 3.908 6.23 3.908 6.23-2.318-2.59-2.045-6.262-2.045-6.262l-.046-35.082c-.045-4.164 2.181-6.623 2.181-6.623-4.18 2.721-3.998 6.623-3.998 6.623V47.77m-6.186-.032c0 4.524-3.908 6.23-3.908 6.23 2.317-2.591 2.044-6.263 2.044-6.263l.046-35.082C25.127 8.46 22.9 6 22.9 6c4.18 2.721 3.999 6.623 3.999 6.623v35.115"/></g></svg>