<svg xmlns="http://www.w3.org/2000/svg" xmlns:xlink="http://www.w3.org/1999/xlink" width="60" height="60"><defs><path id="finance-wu__a" d="M29.703 59.405c16.404 0 29.702-13.298 29.702-29.702C59.405 13.298 46.107 0 29.703 0 13.298 0 0 13.298 0 29.703c0 16.404 13.298 29.702 29.703 29.702z"/></defs><g fill="none" fill-rule="evenodd"><mask id="finance-wu__b" fill="#fff"><use xlink:href="#finance-wu__a"/></mask><use fill="#C01D1C" xlink:href="#finance-wu__a"/><g mask="url(#finance-wu__b)"><rect width="60" height="60" fill="#262626" rx="22"/><g fill="#FEDF00" transform="translate(11 24)"><path d="M0 0c1.596.016 3.194.003 4.79.008.296 2.084.557 4.173.852 6.258.115.773.162 1.56.383 2.313.494-2.842.886-5.7 1.297-8.555C9.184-.013 11.046.016 12.91.01c.278 1.93.574 3.857.856 5.786.154.911.232 1.838.478 2.731.488-2.82.805-5.67 1.191-8.506 1.6-.026 3.2-.016 4.801-.005-.96 4.525-1.98 9.036-2.934 13.562-1.953.026-3.904.01-5.856.007-.456-2.937-.791-5.896-1.32-8.82-.558 2.922-.853 5.891-1.346 8.828-1.95-.015-3.898.018-5.846-.018C1.995 9.042.954 4.53 0 0zm21.888 0c-.024 3.019-.006 6.04-.01 9.058-.02 1.231.409 2.506 1.339 3.349 1.087.982 2.581 1.355 4.01 1.477 1.763.113 3.622.04 5.23-.761 1.023-.49 1.846-1.397 2.169-2.485.256-.767.225-1.585.24-2.381-.007-2.75.008-5.5-.009-8.25-1.788-.009-3.576 0-5.363-.005-.03 2.914-.008 5.83-.016 8.744-.012.394-.021.82-.261 1.155-.279.446-.922.541-1.37.311-.443-.26-.594-.811-.594-1.292-.018-2.972.008-5.945-.013-8.917C25.456 0 23.672.006 21.888 0"/><circle cx="39" cy="1" r="1"/></g></g></g></svg>