<svg xmlns="http://www.w3.org/2000/svg" width="40" height="40" fill="none"><path fill="#FEE800" fill-rule="evenodd" d="M20 40c11.046 0 20-8.954 20-20S31.046 0 20 0 0 8.954 0 20s8.954 20 20 20z" clip-rule="evenodd"/><path fill="#231F20" d="M15.907 20.075c.006-1.07.676-1.887 1.653-2.075.676-.13 1.307-.023 1.86.407.46.359.706.841.755 1.427.088 1.048-.594 1.974-1.692 2.172-.63.114-1.225.01-1.75-.372a1.915 1.915 0 01-.826-1.56zm1.207-.05c.003.042.005.109.016.174.124.695.807.895 1.309.683.338-.143.502-.421.533-.78.06-.715-.48-1.176-1.14-1.038-.44.09-.715.461-.718.962zM11.182 19.811c.123.073.264.136.38.23.258.21.345.492.313.822-.035.358-.184.648-.48.855-.222.157-.475.25-.743.259a36.09 36.09 0 01-1.564.016c-.308-.002-.54-.265-.54-.59v-2.575-.231c.003-.339.235-.589.571-.592.464-.004.928.001 1.391.015a1.7 1.7 0 01.614.135c.351.148.523.42.54.795.02.404-.112.627-.482.861zm-1.101 1.234v-.007c.105 0 .21.005.315-.001.19-.011.3-.112.315-.28.023-.24-.052-.383-.257-.41-.238-.03-.481-.024-.723-.03-.012 0-.036.04-.037.061-.003.201 0 .402-.002.603 0 .05.019.065.065.064h.324zm-.383-1.465c.149 0 .293.006.436-.002a.7.7 0 00.22-.055c.112-.046.148-.142.145-.258-.003-.125-.045-.226-.17-.267-.207-.069-.42-.027-.631-.04v.622zM6.15 19.042v.453H7.32a.48.48 0 01.473.41c.034.262-.11.492-.352.555a.643.643 0 01-.156.014H6.152v.483H7.602c.3 0 .522.222.523.518a.51.51 0 01-.521.521H5.588c-.343 0-.584-.246-.584-.591 0-.936.005-1.87-.003-2.806-.003-.283.2-.591.577-.594.68-.005 1.36-.004 2.04 0a.51.51 0 01.505.463.518.518 0 01-.386.562c-.048.011-.1.011-.149.012H6.151zM25.71 20.474v.483h1.448c.301 0 .525.22.526.515a.51.51 0 01-.526.524c-.667 0-1.334-.003-2 .002a.588.588 0 01-.598-.599c.009-.932.008-1.865 0-2.797-.003-.287.202-.594.574-.597.683-.006 1.365-.005 2.047 0a.509.509 0 01.501.46.519.519 0 01-.383.564.625.625 0 01-.15.012c-.444.002-.89.001-1.335.001h-.1v.453h.087c.36 0 .722-.001 1.083.001a.478.478 0 01.468.414c.03.26-.111.486-.35.549a.623.623 0 01-.156.015H25.71zM12.307 20.031c0-.474.009-.949-.003-1.423a.584.584 0 01.6-.606c.427 0 .854-.004 1.28.002.345.005.667.085.94.313.28.235.437.54.49.898.063.429-.02.829-.286 1.177-.256.333-.6.508-1.02.523-.257.009-.516.008-.774.006-.066 0-.084.021-.084.087 0 .193.01.388-.015.578-.035.283-.311.485-.598.462a.553.553 0 01-.529-.547c-.003-.49 0-.98 0-1.47h-.001zm1.151-1.025v.935c.23 0 .453.009.675-.003a.318.318 0 00.315-.283 1.19 1.19 0 00-.002-.367.312.312 0 00-.301-.279c-.227-.014-.455-.003-.687-.003zM32.934 19.224c.039.003.07.006.1.006.242.003.485-.001.727.01.605.026 1.105.47 1.21 1.072.083.47-.005.9-.327 1.265a1.121 1.121 0 01-.807.4c-.505.02-1.011.022-1.516.015-.3-.004-.53-.269-.53-.582-.002-.959-.001-1.918 0-2.877 0-.044.005-.09.013-.133.053-.283.321-.474.627-.448.27.024.5.271.503.544.002.212 0 .424 0 .636v.092zm.004 1.78c.228 0 .446.009.664-.003.145-.008.247-.113.273-.258a.868.868 0 00.012-.252c-.022-.188-.122-.29-.313-.309-.17-.016-.342-.01-.513-.013h-.123v.835zM22.81 22.053c-.998-.001-1.79-.49-2.097-1.308-.423-1.126.156-2.421 1.462-2.728a2.242 2.242 0 011.595.193c.226.118.364.302.358.571-.007.301-.302.554-.598.503a1.022 1.022 0 01-.289-.098c-.294-.15-.595-.198-.904-.064-.348.151-.518.436-.55.807-.014.179.013.353.088.519.165.361.512.532.886.517a1.2 1.2 0 00.517-.153.78.78 0 01.281-.091c.26-.024.463.11.553.344a.548.548 0 01-.181.633 1.578 1.578 0 01-.69.296c-.17.034-.344.047-.43.059zM29.182 19.042h-.701a.505.505 0 01-.523-.509.511.511 0 01.508-.528c.861-.005 1.722-.004 2.584 0a.517.517 0 01.506.474.519.519 0 01-.392.55.62.62 0 01-.14.012c-.204.002-.407.004-.61 0-.068-.002-.089.017-.089.088.003.779-.002 1.557.004 2.336a.581.581 0 01-.406.562.571.571 0 01-.74-.56c-.002-.6 0-1.198 0-1.796v-.533-.096z"/></svg>