<svg xmlns="http://www.w3.org/2000/svg" xmlns:xlink="http://www.w3.org/1999/xlink" width="60" height="60"><defs><path id="perfect-world__a" d="M30 60c16.569 0 30-13.431 30-30C60 13.431 46.569 0 30 0 13.431 0 0 13.431 0 30c0 16.569 13.431 30 30 30z"/><path id="perfect-world__c" d="M19.934 25.893H0V.056h19.934v25.837z"/></defs><g fill="none" fill-rule="evenodd"><mask id="perfect-world__b" fill="#fff"><use xlink:href="#perfect-world__a"/></mask><use fill="#B61E27" xlink:href="#perfect-world__a"/><g mask="url(#perfect-world__b)"><g transform="translate(8 18.051)"><mask id="perfect-world__d" fill="#fff"><use xlink:href="#perfect-world__c"/></mask><path fill="#FFF" d="M4.64 9.253c-1.107 1.016-1.723 2.156-1.603 3.586.095 1.148.816 1.957 1.633 2.7-.394-2.067-.047-4.122-.03-6.286m7.74-2.594c.087-.086.171-.206.286-.274.763-.448 1.571-.83 2.291-1.34.813-.575 1.478-1.34 1.675-2.351.18-.933.22-1.243-.89-1.543a5.98 5.98 0 00-1.644-.214c-2.276.041-4.45.562-6.538 1.476-.38.166-.545.387-.555.805-.019.8-.101 1.6-.13 2.4-.023.617-.005 1.236-.005 1.791 1.04-.401 2.067-.813 3.106-1.191.56-.204.66-.106.59.582l1.088-.085.725-.056m7.555 5.766c-.85.571-1.282 1.36-1.286 2.39 0 .156-.103.312-.157.468-.022.06-.072.132-.056.182.48 1.578-.019 2.92-.936 4.192-.535.742-1.072 1.509-1.222 2.444-.08.494-.073 1.002-.098 1.504-.01.22-.002.44-.034.67-.823-2.368-2.152-4.438-3.611-6.5-.531.975-.986 1.917-1.54 2.795-.558.886-1.216 1.709-1.885 2.636-.556-1.699-1.662-2.89-3.022-3.955-.094.162-.185.3-.259.445-.798 1.577-1.786 3.032-3.016 4.29-.652.666-1.455 1.186-2.206 1.75-.14.106-.357.107-.539.157L0 25.773c.094-.086.175-.219.285-.251 1.044-.307 1.726-1.04 2.296-1.916.227-.35.494-.674.707-1.03.084-.14.045-.348.108-.506.405-1.007.813-2.007 1.027-3.084.11-.553-.041-.934-.414-1.292a17.979 17.979 0 01-.9-.908c-.11-.123-.162-.3-.2-.374-.184-.204-.368-.328-.438-.5-.41-.999-.49-2.036-.302-3.1.265-1.501.999-2.745 2.078-3.787.297-.286.463-.575.484-.993.073-1.453.176-2.905.276-4.482-.432.323-.822.554-1.136.864a34.39 34.39 0 00-1.678 1.809c-.077.088-.017.288-.057.424-.048.162-.132.314-.207.466-.203.41-.481.539-.923.314-.183-.093-.43-.057-.746-.09.434-.548.839-1.095 1.28-1.611.94-1.1 2.008-2.058 3.252-2.807.124-.075.328-.167.335-.263.036-.509.463-.65.778-.887.093-.07.265-.045.4-.04.206.006.444.11.615.041C8.398 1.171 9.91.695 11.478.405c1.335-.247 2.677-.439 4.038-.306.854.084 1.71.178 2.554.335.651.122.862.402.909 1.072.025.355-.045.715-.053 1.074-.021.934-.316 1.767-.82 2.552-.623.968-1.476 1.683-2.436 2.26-1.625.974-3.356 1.655-5.296 1.572a5.414 5.414 0 01-1.21-.2c-.553-.153-.643-.408-.396-.904.022-.042.01-.102.014-.174-.439-.146-.81.066-1.183.2-.785.28-.791.292-.798 1.124-.016 1.819-.001 3.638-.036 5.456-.017.893-.123 1.783-.168 2.676a.65.65 0 00.151.443c.416.425.884.801 1.285 1.24.275.3.482.667.694 1.02.046.075-.012.214.063.271l.625 1.016c.58-.795.853-1.69.863-2.643.014-1.32.402-2.485 1.199-3.525.265-.346.865-.626 1.246-.45.15.07.286.456.227.626-.097.277-.106.36.199.38a.336.336 0 01.235.158c.213.426.407.862.601 1.28-.453.46-.426.578-.086 1.108.501.78.949 1.595 1.42 2.395.05.087.103.174.178.3a5.277 5.277 0 00.697-2.26c.095-1.198.088-2.403.184-3.6.024-.298.198-.7.432-.844.998-.616 2.043-1.154 3.071-1.721l.053.089" mask="url(#perfect-world__d)"/></g><path fill="#FFF" d="M45.247 34.708c-.154-.09-.315-.191-.483-.28-.578-.301-1.15-.438-1.559.041-.527.618-.546 1.375-.021 1.958.59.656 1.021.571 1.813.186.123-.06.23-.278.239-.43.03-.487.011-.977.011-1.475m.074 2.52c-.19.099-.355.178-.515.267-.676.377-1.362.48-2.016-.014-.43-.324-.893-.648-1.205-1.073-.678-.921-.203-2.312.884-2.864.89-.452 1.733-.41 2.562.133.076.05.161.085.278.146.031-.106.073-.186.076-.268.02-.561.053-1.123.04-1.684-.01-.33.08-.587.305-.824.355-.376.69-.77 1-1.117-.023 1-.056 2.023-.07 3.046-.013 1.15-.013 2.3-.01 3.449 0 .212.008.432.064.634.09.322.286.492.658.372 1.278-.416 2.195-1.267 2.832-2.42.253-.456.395-.977.568-1.476.118-.34.032-.651-.205-.928-.364-.424-.7-.874-1.08-1.284-.904-.98-1.262-2.126-1.175-3.451.048-.729.008-1.464.008-2.251h-1.312l-.021-.118c.125-.041.248-.096.376-.122.64-.127 1.226-.44 1.55-.963.326-.522.518-1.17.61-1.787.134-.907.12-1.836.187-2.753.01-.138.12-.268.184-.402l.081.054v5.522c1.698.032 3.44-.11 5.012.797l-.514.973c-.13-.17-.256-.368-.415-.534-.469-.49-1.093-.637-1.728-.73-.777-.116-1.556.03-2.377-.016-.025.336-.057.637-.067.94-.037 1.028-.023 2.06-.109 3.084-.108 1.296.385 2.269 1.439 2.96.346.229.322.43.172.746-.538 1.128-1.004 2.296-1.89 3.217a6.592 6.592 0 01-2.894 1.767c-.398.12-.698-.23-.95-.517-.128-.146-.215-.327-.333-.51"/><path fill="#FFF" d="M38.215 27.539c.052.004.105.02.151.009.448-.113.898-.219 1.339-.353.12-.037.215-.162.322-.246-.116-.118-.21-.294-.35-.342-.687-.238-1.32.17-1.462.932m.648 4.415l-.595.31-.023-.032 2.062-1.999-.06-.13c-.314-.048-.632-.081-.942-.149-.555-.12-1.11-.245-1.657-.4-.492-.14-.87-.465-.953-.978-.093-.579.102-1.065.48-1.57.54-.717 1.257-.957 2.041-1.105.71-.133 1.41-.045 2.006.421.141.11.266.266.345.428.19.389.107.618-.302.705-.76.163-1.532.279-2.3.413-.168.03-.34.082-.507.072-.335-.02-.392.142-.32.42.17.661.687.99 1.24 1.268.327.165.682.276.952.383 0 .633.021 1.23-.01 1.825-.012.224-.148.441-.221.664-.02.058-.041.166-.02.179.332.198.182.518.189.782.018.761.024 1.524.002 2.286-.039 1.354.637 2.293 1.691 3.025.086.06.173.117.29.196-1.655-.239-3.13-1.5-3.372-2.971-.109-.662-.016-1.358-.016-2.038v-2.005m-.631-9.272c-.449-.29-1.016-.565-1.168-1.27-.06-.28-.336-.294-.643-.067a2.94 2.94 0 00-1.155 1.86c-.126.686-.108 1.406-.085 2.11.006.16.275.35.463.452.148.081.357.05.629.079-.99.631-.525 1.6-.705 2.398-.086.38-.128.774-.153 1.163-.015.23.098.473.059.692-.06.33-.145.683-.324.958-.298.457-.678.86-1.004 1.262 0-1.969.003-3.904-.008-5.839-.001-.145-.111-.29-.185-.471.675-.162.613-.77.64-1.323.065-1.27.383-2.45 1.234-3.426.535-.614 1.18-1.07 2.002-1.226.413-.078.576.003.62.438.035.35-.012.71-.049 1.064-.039.379-.11.755-.168 1.146m-8.575 11.014c-.287.042-.541.092-.463.483.011.056-.02.13-.053.183-.397.638-.206 1.22.156 1.79.446.703 1.11.833 1.755.32.377-.3.6-.702.462-1.192-.14-.499-.398-.888-.985-1.016-.32-.07-.738-.124-.872-.568m.413 3.968c-1.265-.056-2.611-1.504-2.535-2.744.063-1.012 1.004-1.634 1.81-1.818.172-.04.393.17.578.148.182-.021.39-.316.511-.273.557.194 1.091.457 1.625.713.127.06.226.185.328.29.951.965.676 2.005-.202 2.727-.37.304-.877.44-1.327.642-.258.116-.525.21-.788.315M24.678 27.57c.56-.156 1.067-.288 1.568-.44.099-.03.238-.134.243-.212.006-.088-.098-.219-.189-.272-.33-.197-.685-.19-1.017-.009-.334.182-.584.44-.605.932m2.168 2.416c-1.033-.028-2.051-.137-2.982-.59-.905-.443-.91-1.756-.178-2.443.317-.298.596-.612.993-.797a3.431 3.431 0 012.406-.196c.453.124.852.37.994.888.082.296.044.5-.293.564-.362.067-.722.146-1.085.202-.636.098-1.276.173-1.91.284-.076.014-.199.218-.173.284.116.3.207.673.437.853.43.338.949.564 1.436.829.108.059.236.082.355.122"/><path fill="#FFF" d="M37.003 35.093c-.032-.063-.062-.107-.077-.155-.223-.723-.355-.787-1.095-.657-.377.066-.53.214-.525.623.01.746-.05 1.493-.075 2.24-.013.4-.388.34-.605.466-.068.04-.296-.049-.339-.135-.174-.349-.412-.714-.432-1.083-.057-1.062-.02-2.129-.02-3.203.297.074.616.152.934.234.064.017.157.028.182.073.289.514.666.203 1.013.112.371-.097.734-.23 1.107-.315a.955.955 0 011.144 1.133c-.016.083-.109.178-.19.217-.33.159-.671.298-1.022.45m-7.985-9.131c.52.247 1.151.095 1.474.69.549-.17 1.097-.355 1.654-.509.771-.214 1.327.19 1.321.962a.487.487 0 01-.208.36c-.311.171-.649.296-.966.434-.036-.02-.071-.029-.076-.045-.22-.85-.392-.944-1.418-.675-.088.023-.182.205-.191.32-.074.915-.128 1.832-.19 2.799-.374-.13-.753-.184-1.025-.384-.182-.134-.287-.471-.299-.723-.037-.787-.008-1.576-.016-2.365-.002-.263-.035-.525-.06-.864m16.892 4.244c-1.076-.04-2.075-.222-3.02-.625-.704-.3-.953-1.128-.608-1.902.478-1.076 1.388-1.529 2.485-1.648.62-.068 1.255-.058 1.801.324.158.11.315.254.407.419.268.482.172.682-.354.803-.256.059-.515.1-.784.152-.035-.074-.062-.117-.076-.165-.202-.664-.505-.926-1.027-.887-.605.045-1.028.471-1.105 1.112-.109.907.137 1.4.956 1.826.407.212.838.376 1.325.591"/></g></g></svg>