<svg xmlns="http://www.w3.org/2000/svg" xmlns:xlink="http://www.w3.org/1999/xlink" width="80" height="80"><defs><circle id="mirkrestikom__a" cx="40" cy="40" r="40"/></defs><g fill="none" fill-rule="evenodd"><use fill="#6D0D02" xlink:href="#mirkrestikom__a"/><g fill="#FFEA19" fill-rule="nonzero"><path d="M26.777 29.315c-1.261 0-1.892-.536-1.892-1.607 0-1.117.602-2.186 1.806-3.205a6.548 6.548 0 011.8-1.088c.677-.277 1.295-.415 1.854-.415.558 0 1.062.084 1.511.25l-.406 9.321 3.896-9.32h2.548l-1.857 13.017h-2.548l1.131-7.947-3.325 7.947h-2.428l.355-7.981-2.955 7.981h-1.416l4.492-12.154c-.881.294-1.57.778-2.065 1.451-.495.674-.743 1.518-.743 2.531 0 .507.07.876.208 1.106.022.04.034.078.034.113zm19.757 5.994c-.64.709-1.42 1.063-2.342 1.063-1.054 0-1.639-.559-1.754-1.676-.691 1.117-1.564 1.676-2.617 1.676-.53 0-.98-.167-1.348-.501-.363-.334-.544-.872-.544-1.616 0-.334.046-.72.138-1.157l1.2-5.675h2.55l-1.27 6.012a2.734 2.734 0 00-.053.5c0 .485.176.727.527.727.622 0 1.095-.522 1.417-1.564l1.2-5.675h2.549l-1.27 6.012a2.487 2.487 0 00-.078.622c0 .403.242.605.726.605.662 0 1.14-.522 1.434-1.564h.004l1.344-6.332h2.548l-.285 1.33a3.062 3.062 0 012.064-.76c1.02 0 1.685.49 1.996 1.469.11.357.164.767.164 1.23 0 .464-.027.928-.082 1.391a8.789 8.789 0 01-.281 1.39 7.51 7.51 0 01-.523 1.336 4.588 4.588 0 01-.807 1.136 3.645 3.645 0 01-1.145.79c-.44.196-.99.294-1.65.294-.66 0-1.116-.21-1.369-.63l-.915 4.31-2.67.64 1.142-5.383zm5.881-5.234c0-.98-.296-1.469-.89-1.469-.201 0-.413.072-.634.216-.222.144-.417.363-.584.657l-1.045 4.95c.104.27.356.405.756.405s.759-.167 1.076-.5c.616-.657 1.013-1.596 1.192-2.817.086-.541.13-1.022.13-1.442zM13.142 45.937c0-1.503-.558-2.254-1.675-2.254-.26 0-.53.02-.813.06l-1.45 6.773h-2.55L9.056 39.26l2.618-.345-.83 3.921h.104c.68 0 1.274-.305 1.784-.915.51-.61.764-1.262.764-1.953 0-.863-.417-1.448-1.252-1.753a3.12 3.12 0 00-1.024-.156 5.2 5.2 0 00-1.106.117 4.594 4.594 0 00-1.014.35c-.72.351-1.293.85-1.72 1.498-.426.648-.639 1.427-.639 2.337 0 .467.073.826.216 1.08a.28.28 0 01.035.12c-.933 0-1.52-.287-1.762-.863a1.976 1.976 0 01-.13-.76c0-.622.176-1.211.527-1.767a5.537 5.537 0 011.417-1.49c1.318-.956 2.81-1.434 4.474-1.434 1.233 0 2.168.272 2.808.816.639.544.959 1.211.959 2 0 .53-.15 1.048-.45 1.555-.299.507-.74.924-1.321 1.252.714.145 1.24.476 1.58.994.34.518.51 1.137.51 1.857 0 .42-.06.924-.181 1.512-.277 1.301-.887 2.312-1.831 3.032-.49.368-1.116.553-1.88.553-.762 0-1.282-.216-1.559-.648-.115-.173-.172-.399-.172-.678 0-.28.074-.618.224-1.015.398.426.778.639 1.14.639.622 0 1.092-.363 1.409-1.089.259-.587.388-1.283.388-2.09zm15.411 1.408c-.743 2.183-1.831 3.274-3.265 3.274-.68 0-1.198-.181-1.555-.544-.357-.363-.536-.786-.536-1.27 0-.478.138-1.339.415-2.583l.561-2.513-1.987 1.149c.283.437.424 1.068.424 1.891 0 .818-.314 1.63-.942 2.436-.737.956-1.742 1.434-3.015 1.434-.812 0-1.436-.198-1.874-.596-.438-.397-.657-.953-.657-1.667 0-.317.04-.653.121-1.01l1.166-5.676h2.445l-1.313 6.228c-.035.104-.052.268-.052.493 0 .483.256.725.769.725.512 0 .959-.288 1.339-.864.386-.581.578-1.272.578-2.073 0-.294-.086-.518-.259-.674a.763.763 0 01-.488.164 1 1 0 01-.548-.172c-.173-.121-.26-.319-.26-.592 0-.273.107-.476.32-.61.213-.131.445-.198.695-.198.25 0 .485.035.704.104.438-.196.841-.395 1.21-.596l2.16-1.27c.362-.219.754-.44 1.174-.665h1.097l-.933 4.388-.32 1.365c-.074.34-.112.588-.112.743 0 .495.236.743.709.743.356 0 .642-.138.855-.415.213-.27.423-.653.63-1.148h.744z"/><path d="M34.6 48.183c0 .484.178.726.535.726.622 0 1.095-.521 1.417-1.564l1.2-5.675h2.549l-1.278 6.012c-.047.213-.07.423-.07.63 0 .398.242.597.726.597.662 0 1.14-.521 1.434-1.564h.743c-.76 2.183-1.947 3.274-3.56 3.274-1.047 0-1.629-.559-1.744-1.676-.69 1.117-1.564 1.676-2.617 1.676-1.054 0-1.639-.559-1.754-1.676-.69 1.117-1.563 1.676-2.617 1.676-.53 0-.98-.167-1.348-.501-.362-.334-.544-.872-.544-1.615 0-.334.046-.72.138-1.158l1.201-5.675h2.548l-1.27 6.012a2.734 2.734 0 00-.051.501c0 .484.175.726.527.726.622 0 1.094-.522 1.416-1.564l1.2-5.675h2.55l-1.27 6.012a2.094 2.094 0 00-.061.501z"/><path d="M50.788 47.345c-.749 2.183-1.932 3.274-3.55 3.274-1.054 0-1.639-.558-1.754-1.676-.691 1.118-1.564 1.676-2.617 1.676-.53 0-.98-.167-1.348-.5-.363-.335-.544-.873-.544-1.616 0-.334.046-.72.138-1.158l1.2-5.675h2.549l-1.27 6.012a2.734 2.734 0 00-.052.501c0 .484.176.726.527.726.622 0 1.095-.521 1.417-1.564l1.2-5.675h2.549l-1.27 6.012a2.487 2.487 0 00-.078.622c0 .403.242.605.726.605.662 0 1.14-.521 1.434-1.564h.743z"/><path d="M56.852 45.229c.063.202.095.543.095 1.024 0 .48-.095.99-.285 1.528a4.341 4.341 0 01-.83 1.43c-.794.916-1.828 1.374-3.1 1.374-.974 0-1.707-.288-2.2-.864-.491-.576-.738-1.34-.738-2.294 0-.953.24-2.218.717-3.796.518-1.716 1.166-3.162 1.944-4.337.91-1.376 1.868-2.064 2.876-2.064.553 0 1.006.186 1.36.557.355.371.532 1.015.532 1.93 0 .916-.32 2.005-.959 3.266l-.484.916c.254.126.475.302.665.527.778 0 1.633-.24 2.566-.717.26-.133.484-.265.674-.398l.164.484c-.69.726-1.69 1.204-2.997 1.434zm-4.423 2.229c0 1.025.36 1.537 1.08 1.537.547 0 .987-.256 1.321-.768.334-.513.501-1.036.501-1.568 0-.533-.051-.903-.155-1.11a1.9 1.9 0 01-.665.103.91.91 0 01-.64-.229.746.746 0 01-.25-.574c0-.392.108-.67.324-.834.216-.164.52-.26.912-.289.541-.979.918-2.01 1.131-3.093.07-.368.104-.727.104-1.075s-.046-.593-.138-.734c-.092-.141-.236-.212-.432-.212-.363 0-.743.374-1.14 1.123-.657 1.244-1.218 3.093-1.685 5.546-.179.938-.268 1.664-.268 2.177z"/><path d="M62.467 44.944c.265-.046.512-.07.742-.07.64 0 1.08.143 1.322.429.242.285.363.69.363 1.213 0 .138-.012.277-.035.415l-.077.423c-.07.409-.104.708-.104.898 0 .438.236.657.708.657.357 0 .632-.124.825-.371.193-.248.408-.645.644-1.192h.743c-.743 2.182-1.817 3.273-3.222 3.273-.72 0-1.256-.177-1.607-.53-.351-.355-.527-.832-.527-1.43 0-.294.034-.598.104-.912a3.75 3.75 0 00.103-.773c0-.564-.224-.847-.674-.847-.207 0-.414.081-.621.242l-.51.415-.778 3.732h-2.548l1.892-8.846h2.548l-.76 3.507 1.106-1.14.846-.924c.559-.6 1.002-1.017 1.33-1.253.329-.23.704-.345 1.128-.345.423 0 .734.11.933.332.198.222.298.504.298.847 0 .342-.095.617-.286.825-.19.207-.466.31-.829.31-.363 0-.616-.097-.76-.293-.138-.196-.207-.343-.207-.44v-.173a4.082 4.082 0 00-.899.734l-.656.726a15.81 15.81 0 01-.535.561z"/><path d="M69.282 48.131c0 .519.176.778.527.778.622 0 1.094-.521 1.417-1.564l1.2-5.675h2.549l-1.27 6.012a2.487 2.487 0 00-.078.622c0 .403.242.605.726.605.126 0 .322-.038.587-.113-.04.64-.257 1.103-.652 1.391a2.195 2.195 0 01-1.326.432c-.49 0-.884-.145-1.183-.436-.3-.291-.478-.704-.536-1.24-.691 1.117-1.57 1.676-2.635 1.676-.53 0-.979-.167-1.347-.501-.363-.334-.544-.872-.544-1.615 0-.334.046-.72.138-1.158l1.2-5.675h2.549l-1.27 6.012c-.035.15-.052.3-.052.45z"/></g></g></svg>