<svg xmlns="http://www.w3.org/2000/svg" xmlns:xlink="http://www.w3.org/1999/xlink" width="60" height="60"><defs><path id="spb-infinity__a" d="M29.703 59.405c16.404 0 29.702-13.298 29.702-29.702C59.405 13.298 46.107 0 29.703 0 13.298 0 0 13.298 0 29.703c0 16.404 13.298 29.702 29.703 29.702z"/></defs><g fill="none" fill-rule="evenodd"><mask id="spb-infinity__b" fill="#fff"><use xlink:href="#spb-infinity__a"/></mask><use fill="#203A82" xlink:href="#spb-infinity__a"/><path fill="#FFF" d="M39.212 35.602a3.766 3.766 0 00-3.788 3.79 3.766 3.766 0 003.788 3.788A3.766 3.766 0 0043 39.391a3.767 3.767 0 00-3.788-3.789m5.635-17.493c-.648.018-1.382.134-2.217.33-3.62 1.152-6.285 2.177-9.251 3.63a9.253 9.253 0 00-3.88-.844c-5.131 0-9.291 4.161-9.291 9.294 0 2.055.666 3.954 1.795 5.492a85.93 85.93 0 008.209-4.422 87.804 87.804 0 007.614-5.189 9.33 9.33 0 00-2.296-2.944c3.098-1.485 5.848-2.527 7.905-3.01 1.063-.25 1.944-.364 2.547-.317.206.016.313.069.436.106-.074.271-.242.645-.528 1.095-.599.944-1.65 2.14-3.035 3.446-2.773 2.611-6.916 5.71-11.76 8.661-4.842 2.95-9.47 5.19-12.999 6.416-1.764.614-3.255.968-4.328 1.043-.513.036-.915.016-1.175-.052.029-.123.038-.24.119-.423.245-.552.74-1.281 1.438-2.099 1.13-1.32 2.81-2.882 4.87-4.542a10.822 10.822 0 01-.462-2.363c-2.393 1.875-4.338 3.657-5.648 5.189-.735.859-1.273 1.62-1.597 2.35a3.47 3.47 0 00-.303 1.135c-.036.409.018.958.316 1.505.415.759.99 1.059 1.478 1.202.489.143 1.016.174 1.624.132 1.214-.085 2.748-.482 4.553-1.11 1.942-.675 4.192-1.654 6.612-2.864a9.276 9.276 0 003.906.858c1.536 0 2.986-.37 4.263-1.03a5.515 5.515 0 014.355-4.78 9.23 9.23 0 00.66-3.128c2.036-1.505 3.82-2.968 5.252-4.317 1.418-1.336 2.503-2.537 3.18-3.605.34-.534.573-1.026.7-1.544.128-.518.177-1.209-.237-1.968a2.418 2.418 0 00-1.096-1.043 3.06 3.06 0 00-1.108-.277 5.902 5.902 0 00-.62-.013M17.251 17a2.957 2.957 0 10.001 5.913 2.957 2.957 0 000-5.913" mask="url(#spb-infinity__b)"/></g></svg>