<svg xmlns="http://www.w3.org/2000/svg" id="forgame__Layer_1" viewBox="0 0 60 60"><path id="forgame__base" d="M30 0c16.6 0 30 13.4 30 30S46.6 60 30 60 0 46.6 0 30 13.4 0 30 0z" class="forgame__st0"/><path id="forgame__Combined-Shape" fill="#fff" d="M27.6 12h4.8c2.1 0 3.9 1.6 3.9 3.6v7.1c0 .5.4 1 1 1h7.1c2 0 3.6 1.7 3.6 3.9v4.8c0 2.1-1.6 3.9-3.6 3.9h-7.1c-.5 0-1 .4-1 1v7.1c0 2-1.7 3.6-3.9 3.6h-4.8c-2.1 0-3.9-1.6-3.9-3.6v-7.1c0-.5-.4-1-1-1h-7.1c-2 0-3.6-1.7-3.6-3.9v-4.8c0-1 .3-1.9.9-2.6l.5-.5 11.1-11.1c.7-.9 1.8-1.4 3.1-1.4z"/></svg>