<svg xmlns="http://www.w3.org/2000/svg" width="60" height="60"><g fill="none" fill-rule="evenodd"><path fill="#216BB3" d="M30 0C13.428 0 0 13.428 0 30s13.428 30 30 30 30-13.428 30-30S46.572 0 30 0z"/><path fill="#FFF" d="M27.79 39.178h-5.609l-3.654-7.138h-2.805l-1.614 7.138H9.093l4.505-19.376h7.563c2.38 0 4.165.425 5.525 1.19 1.274.764 1.954 2.04 1.954 3.654 0 1.53-.51 2.89-1.445 3.91-.934 1.02-2.21 1.869-3.824 2.379l4.42 8.243zm19.887-7.223c-.595 2.72-1.7 4.589-3.23 5.864-1.53 1.19-3.739 1.784-6.543 1.784-2.55 0-4.505-.425-5.78-1.36-1.274-.934-1.954-2.294-1.954-4.164 0-.34 0-.765.085-1.19.085-.424.085-.764.17-1.104l2.804-11.983h5.015l-2.805 11.983c-.085.255-.085.51-.17.765 0 .255-.085.51-.085.764 0 .85.255 1.445.765 1.87.51.425 1.275.595 2.465.595 1.104 0 1.954-.34 2.634-.935.68-.595 1.19-1.53 1.445-2.804l2.89-12.238h5.014l-2.72 12.153zm-25.24-8.244c-.51-.34-1.276-.51-2.21-.51h-2.465l-1.19 5.184h2.465c1.36 0 2.38-.255 3.06-.85.764-.51 1.104-1.274 1.104-2.21 0-.764-.255-1.274-.765-1.614z"/></g></svg>