<svg xmlns="http://www.w3.org/2000/svg" width="41" height="40" fill="none"><circle cx="20.5" cy="20" r="20" fill="url(#donation-alerts__paint0_linear)"/><path fill="#fff" d="M21.604 23.504h-1.571a.34.34 0 01-.24-.095.27.27 0 01-.083-.223l.139-1.417c.013-.15.154-.266.323-.266h1.57a.34.34 0 01.241.095.27.27 0 01.082.223l-.138 1.417c-.014.15-.154.266-.323.266zm.252-2.774h-1.6a.314.314 0 01-.32-.308l.435-4.786a.316.316 0 01.32-.27h1.6c.177 0 .32.137.32.307l-.448 4.79a.316.316 0 01-.307.267zm9.41-5.58c.17.197.253.455.23.714l-.625 7.11a.968.968 0 01-.292.613l-5.116 4.937a.98.98 0 01-.68.273h-5.446l-4.793 4.391.37-4.394h-2.437a.979.979 0 01-.72-.314.966.966 0 01-.253-.74L12.99 10.87a.974.974 0 01.974-.871h12.413a.98.98 0 01.743.34l4.144 4.81zm-3.792 6.467l.398-4.388a.967.967 0 00-.251-.709l-2.339-2.683a.979.979 0 00-.736-.334H17.18a.974.974 0 00-.973.871l-.877 9.875c-.02.27.073.536.257.736.184.2.444.315.716.318h7.243a.98.98 0 00.675-.267l2.961-2.803a.967.967 0 00.292-.616z"/><defs><linearGradient id="donation-alerts__paint0_linear" x1="35.378" x2="5.622" y1="0" y2="40" gradientUnits="userSpaceOnUse"><stop stop-color="#F59C07"/><stop offset="1" stop-color="#F57507"/></linearGradient></defs></svg>