<svg xmlns="http://www.w3.org/2000/svg" width="41" height="40" fill="none"><g clip-path="url(#yandex-kassa__clip0)"><path fill="#0D1D40" d="M20.5 40c11.046 0 20-8.954 20-20s-8.954-20-20-20S.5 8.954.5 20s8.954 20 20 20z"/><path fill="#00EEBC" d="M27.651 23.09a3.09 3.09 0 100-6.18 3.09 3.09 0 000 6.18z"/><path fill="#00EEBC" fill-rule="evenodd" d="M19.931 8.667l-6.924 6.968a6.156 6.156 0 000 8.667l1.712 1.723S26.04 14.723 25.95 14.723l-6.019-6.056z" clip-rule="evenodd"/><path fill="url(#yandex-kassa__paint0_linear)" fill-rule="evenodd" d="M13.006 15.636c-.1.103-.197.208-.292.315a6.155 6.155 0 00.236 8.413l6.925 6.97 6.02-6.057c.058 0-8.188-8.258-8.793-8.864a3.532 3.532 0 01-.982-2.448c0-.976.393-1.86 1.029-2.498l-4.144 4.169h.001z" clip-rule="evenodd"/></g><defs><linearGradient id="yandex-kassa__paint0_linear" x1="12.96" x2="26.15" y1="15.809" y2="23.105" gradientUnits="userSpaceOnUse"><stop stop-color="#00A9F9"/><stop offset="1" stop-color="#0B89EA"/></linearGradient><clipPath id="yandex-kassa__clip0"><path fill="#fff" d="M0 0h40v40H0z" transform="translate(.5)"/></clipPath></defs></svg>