<svg xmlns="http://www.w3.org/2000/svg" width="41" height="40" fill="none"><circle cx="20.5" cy="20" r="20" fill="#FF9D00"/><path fill="#fff" d="M33.157 15.296h-6.775c-.605 0-1.096.49-1.096 1.095v6.703c0 .605.49 1.095 1.096 1.095h6.775c.606 0 1.096-.49 1.096-1.095V16.39c0-.605-.49-1.095-1.096-1.095z"/><path fill="#263238" d="M10.649 20.715l-.027.002-.026-.002H8.547a.599.599 0 100 1.197h.844c-.04.119-.097.23-.169.332-.233.343-.794.724-1.304.724-1.313 0-1.92-1.06-1.92-2.368 0-1.308.866-2.32 2.179-2.32.423 0 .746.068 1.067.253.117.067.234.143.35.217l.362.278a.6.6 0 00.839-.107c.18-.235.131-.563-.04-.774a2.898 2.898 0 00-.6-.541 3.625 3.625 0 00-2.027-.617A3.618 3.618 0 004.5 20.6c0 1.995 1.191 3.611 3.195 3.611.805 0 1.773-.314 2.355-1.15v.555a.601.601 0 00.831.566.597.597 0 00.367-.566v-2.301a.6.6 0 00-.6-.6zm5.144 1.992c-.432.2-.903.305-1.38.308-1.125 0-1.242-.955-1.244-1.092-.002-.137.006-.129.006-.129h2.727c.833 0 .75-.819.75-.819 0-1.047-.636-2.35-2.373-2.35-1.736 0-2.32 1.418-2.414 1.959-.094.54-.374 2.341 1.095 3.235 1.468.893 2.957 0 2.957 0 .458-.217.8-.64.562-1-.191-.294-.59-.152-.686-.112zm-2.63-1.913c0-.623.5-1.066 1.115-1.066s1.114.443 1.114 1.066c0 .005 0 .01-.003.013a.023.023 0 01-.01.01h-2.197c-.002 0-.005 0-.008-.002a.018.018 0 01-.01-.013v-.008zm6.994 2.52a.492.492 0 00-.202-.188.74.74 0 00-.187-.058c-.064-.01-.141-.02-.23-.027a.53.53 0 01-.218-.048.392.392 0 01-.137-.106.389.389 0 01-.072-.152.772.772 0 01-.021-.185v-2.757h.254a.533.533 0 00.531-.532v-.02a.533.533 0 00-.531-.532h-.256v-1.022a.69.69 0 00-1.38 0v1.022h-.255a.533.533 0 00-.531.532v.02c0 .293.238.53.531.532h.249v2.832c0 .2.029.399.087.59a1.364 1.364 0 00.783.867c.202.09.448.134.736.134h.075c.114.001.228-.007.341-.024a.786.786 0 00.23-.072.515.515 0 00.2-.187.572.572 0 00.077-.31.587.587 0 00-.074-.31zm3.352 0a.49.49 0 00-.203-.188.735.735 0 00-.187-.058 2.93 2.93 0 00-.229-.027.53.53 0 01-.219-.048.395.395 0 01-.136-.106.389.389 0 01-.072-.152.772.772 0 01-.021-.185v-2.757h.253a.534.534 0 00.532-.532v-.02a.534.534 0 00-.532-.532h-.255v-1.022a.69.69 0 00-1.38 0v1.022h-.255a.534.534 0 00-.532.532v.02a.534.534 0 00.532.532h.249v2.832c0 .2.029.399.088.59a1.362 1.362 0 00.782.867c.202.09.448.134.736.134h.075c.114.001.229-.007.342-.024a.778.778 0 00.23-.072.513.513 0 00.2-.187.57.57 0 00.078-.31.59.59 0 00-.076-.31zm4.337-5.54l.106-.025.019-.097.039.002c.073.602.126.992.127 1.35.004 1.74-.376 3.395-.394 5.185h1.7c.157-.43.272-.963.473-1.349.165.392.291.887.386 1.35h1.774c-.087-1.23-.123-2.072-.343-3.609.133.005.204-.022.3-.055-.324-1.05-.445-4.018-.113-5.572.066-.177.377-.963.377-1.503l.114-.432v-.002c.126-.314.237-.634.33-.96a8.8 8.8 0 00.2-.915l.12-.362a1.528 1.528 0 00.297-.432.391.391 0 01.107-.093.603.603 0 01.132-.055l.37-.067s.121-.02.102-.085c-.02-.065-.192-.059-.192-.059s-.414.047-.433.023c-.02-.023.463-.37.463-.37s.129-.107.085-.182-.198.038-.198.038-.47.323-.508.325c-.037.002.34-.52.34-.52s.114-.158.055-.226c-.058-.069-.172.076-.172.076l-.428.518c-.02.022-.055-.005-.078-.034a.1.1 0 01-.008-.073l.062-.429s.001-.102-.082-.13c-.082-.028-.122.08-.122.08l-.167.629s-.084.135-.197.175c-.088.031-.208-.03-.208-.03a.921.921 0 00-.172-.166.343.343 0 00-.139-.045s-.147-.01-.209.067c-.027.036.076.082.076.082a.709.709 0 01.185.138c.029.04.046.086.05.135 0 0-.014.05.055.161.058.082.122.16.19.234a.576.576 0 01.061.137l-.005.171a.356.356 0 01-.017.05l-.309.812s-.122.243-.246.531c-.138.319-.282.691-.347.817l-.005.027-.007.01s-.098.144-.19.314-.352.34-.363.356c-.01.015-.291.065-.454.283-.163.217-.355.257-.355.257l-.047-.009s-.07-.26-.095-.34a.389.389 0 01-.022-.133s.154-.153.151-.214c-.002-.062-.025-.592-.104-.712a1.118 1.118 0 01-.132-.345c-.015-.065-.08-.22-.133-.267-.053-.046-.183-.145-.199-.17-.016-.024-.075-.13-.152-.167-.076-.038-.058-.09-.109-.142a.187.187 0 00-.104-.059s.053.037.024.069l-.021.023-.008.008c-.013.011-.105-.01-.149.005a.652.652 0 00-.094.047.158.158 0 00-.17-.031c-.11.037.053-.006.053.034a.038.038 0 01-.04.043c-.01 0-.092.08-.146.078-.055-.004-.117.068-.13.078l-.11-.01-.043-.035-.004-.003.006.029c0 .021.032.031.004.074-.029.042-.057.058-.073.105-.017.047-.072.134-.092.117-.02-.017-.037-.013-.012-.053.025-.04.044-.044.044-.044s-.087-.015-.082.1c0 0-.132.03-.135.088a.058.058 0 01.085-.008l-.041.017a.54.54 0 00-.017.13c.004.056-.019.021-.029.025a.897.897 0 00-.085.266c0 .04-.015.036-.027.021.005.025.007.059-.009.069-.027.02.045.031.039.105-.006.074-.086.137-.086.137l.063.012.01.028.019-.007c.02.06.034.121.044.183.004.05.013.009.017-.003l.003-.013c.057.117.132.223.223.316.161.176.483.372.508.484 0 0 .081.462.038.526l-.173-.003-.015.073a.504.504 0 01-.069.09c-.029.03-.116.104-.116.104l-.107.077a.965.965 0 01-.077.058c-.288.199-.599.315-.817.559-.328.369-.388.82-.613 1.44.06.149.146.143.182.278l.005.002-.208 1.318c-.044.325-.216.725-.2 1.1-.05.592 0 1.565 0 1.565s.031.46.069.625c.038.166.271.409.271.409l.452.14s.07.02.076-.041a.152.152 0 00-.032-.104.125.125 0 00-.017-.076c-.02-.027-.23-.115-.23-.115l-.065-.072-.08-.16c0-.015-.008-.2.022-.306 0 0 .13.02.144.064.007.02.107.165.204.186.098.02.077-.027.069-.067-.026-.088-.165-.26-.177-.33a.872.872 0 00-.107-.285.424.424 0 00-.104-.09l-.038-.04s.247-.85.366-1.272c.073-.35.119-.72.122-.858a.453.453 0 01.05-.19c.143-.248.348-.987.348-.987zm7.832-2.478a.822.822 0 100 1.644.822.822 0 000-1.644zm0 1.511a.688.688 0 11-.002-1.376.688.688 0 01.002 1.376zm.227-.589a.402.402 0 00-.093-.072.272.272 0 00.17-.08.23.23 0 00.058-.159.247.247 0 00-.038-.135.197.197 0 00-.1-.082.62.62 0 00-.2-.024h-.364v.86h.173v-.36h.035a.29.29 0 01.088.01.13.13 0 01.051.036c.034.04.064.082.092.126l.125.187h.208l-.105-.167a.936.936 0 00-.1-.14zm-.267-.188h-.128v-.218h.135c.07 0 .112 0 .127.003a.107.107 0 01.065.034c.016.02.024.044.023.07a.112.112 0 01-.018.064.095.095 0 01-.048.036.688.688 0 01-.157.01z"/></svg>