<svg xmlns="http://www.w3.org/2000/svg" width="80" height="80"><g fill="none" fill-rule="evenodd"><circle cx="40" cy="40" r="40" fill="#000"/><path fill="#FFF" fill-rule="nonzero" d="M27.299 44.012v-.39h-1.247v2.222h1.247v-.39h-.818v-.546h.818v-.39h-.818v-.545h.818v.04zm-2.494 1.87h.39v-2.22h-.39v2.22zm-.974-.39h-.35v-.545h.35c.078 0 .156.04.195.078a.298.298 0 01.078.195.298.298 0 01-.078.195c-.039.078-.117.078-.195.078zm0-.895h-.35v-.935h-.39v2.22h.74c.117 0 .234-.038.35-.077a.351.351 0 00.235-.234c.078-.117.078-.195.078-.312a.734.734 0 00-.078-.312c-.078-.116-.156-.155-.234-.233-.117-.117-.234-.117-.35-.117zm-2.182.896h-.35v-.546h.35c.078 0 .156.04.195.078a.298.298 0 01.078.195.298.298 0 01-.078.195c-.078.078-.117.078-.195.078zm0-1.48c.078 0 .156.038.195.077a.298.298 0 01.078.195.298.298 0 01-.078.195.298.298 0 01-.195.078h-.35v-.546h.35zm.468.74c.078-.04.117-.117.156-.195.039-.078.039-.156.039-.273a.734.734 0 00-.078-.312.662.662 0 00-.234-.233c-.117-.078-.234-.078-.35-.078h-.74v2.22h.74c.116 0 .233-.038.35-.077a.351.351 0 00.234-.234c.078-.117.078-.195.078-.312a.722.722 0 00-.078-.273c0-.117-.078-.155-.117-.233zm-3.078.779a.658.658 0 01-.39-.117.91.91 0 01-.272-.273.658.658 0 01-.117-.39c0-.155.039-.272.117-.389a.91.91 0 01.272-.273.752.752 0 01.39-.117c.156 0 .273.04.39.117a.91.91 0 01.272.273.658.658 0 01.117.39.658.658 0 01-.117.39.91.91 0 01-.272.272.658.658 0 01-.39.117zm0 .39c.234 0 .429-.04.584-.156.195-.117.312-.234.429-.429.117-.195.156-.35.156-.584a1.1 1.1 0 00-.156-.585 1.132 1.132 0 00-.429-.428 1.1 1.1 0 00-.584-.156c-.195 0-.429.039-.584.156a1.132 1.132 0 00-.429.428 1.1 1.1 0 00-.156.585c0 .194.04.39.156.584.117.195.234.312.429.429.155.116.39.155.584.155zm-2.338-1.325h-.35v-.546h.35c.078 0 .156.04.195.078a.298.298 0 01.078.195.298.298 0 01-.078.195c-.078.039-.117.078-.195.078zm0-.935h-.74v2.22h.39v-.935h.35c.117 0 .234-.039.35-.078a.351.351 0 00.235-.233c.078-.117.078-.195.078-.312a.734.734 0 00-.078-.312.662.662 0 00-.234-.233.628.628 0 00-.35-.117zm-1.636-.04l-1.403 1.403v-1.363h-.39v2.26l1.403-1.403v1.363h.39v-2.26zm-2.688 0l-1.13.936-1.13-.935v2.26h.39V44.44l.74.623.74-.623v1.441h.39v-2.26zm30.35 2.26h.39v-2.22h-.39v2.22zm-.974-.39h-.35v-.545h.35c.078 0 .156.04.195.078a.298.298 0 01.078.195.298.298 0 01-.078.195c-.039.078-.117.078-.195.078zm0-.895h-.35v-.935h-.39v2.22h.74c.117 0 .234-.038.35-.077a.351.351 0 00.235-.234c.078-.117.078-.195.078-.312a.734.734 0 00-.078-.312c-.078-.116-.156-.155-.234-.233-.117-.117-.234-.117-.35-.117zm-2.96.896l.467-.974.467.974h-.935zm1.324 0l-.896-1.91-.896 1.91h-.273v.857h.39v-.468h1.597v.468h.39v-.857h-.312zm-3.04-1.831v.935h-1.012v-.935h-.39v2.22h.39v-.935h1.013v.935h.39v-2.22h-.39zm-2.259.35v-.39H33.61v2.222h1.208v-.39H34v-.546h.818v-.39H34v-.545h.818v.04zm-2.61.585h-.35v-.546h.35c.078 0 .156.04.195.078a.298.298 0 01.078.195.298.298 0 01-.078.195.298.298 0 01-.195.078zm0-.935h-.74v2.22h.39v-.935h.35c.117 0 .234-.039.35-.078a.351.351 0 00.234-.233c.078-.117.078-.195.078-.312a.734.734 0 00-.078-.312.662.662 0 00-.234-.233.628.628 0 00-.35-.117zm-2.182 1.83h-.35v-.545h.35c.078 0 .156.04.195.078a.298.298 0 01.078.195.298.298 0 01-.078.195c-.04.078-.117.078-.195.078zm0-.895h-.35v-.546h.973v-.39h-1.324v2.221h.74c.117 0 .234-.038.35-.077a.351.351 0 00.234-.234c.078-.117.078-.195.078-.312a.734.734 0 00-.078-.312c-.078-.116-.155-.155-.233-.233-.156-.117-.273-.117-.39-.117zm20.493.156c.078-.04.117-.117.156-.195.04-.078.04-.156.04-.273a.734.734 0 00-.079-.312.662.662 0 00-.233-.233 1.138 1.138 0 00-.351-.078h-.546v.39h.546c.078 0 .156.038.195.077a.298.298 0 01.078.195.298.298 0 01-.078.195.298.298 0 01-.195.078h-.546v.35h.546c.078 0 .156.04.195.078a.298.298 0 01.078.195.298.298 0 01-.078.195.298.298 0 01-.195.078h-.546v.39h.546c.117 0 .234-.04.35-.078a.351.351 0 00.234-.234c.078-.117.078-.195.078-.312 0-.078 0-.195-.039-.273a.497.497 0 00-.156-.233zm-1.83-.74v-.39H47.48v2.22h1.207v-.39h-.818v-.545h.818v-.35h-.818v-.546h.818zM46 45.492h-.35v-.546H46c.078 0 .156.04.195.078a.298.298 0 01.078.195.298.298 0 01-.078.195c-.04.078-.117.078-.195.078zm0-.896h-.35v-.546h.934v-.39H45.26v2.221H46c.117 0 .234-.038.35-.077a.351.351 0 00.234-.234c.078-.117.078-.195.078-.312a.734.734 0 00-.078-.312.662.662 0 00-.233-.233c-.117-.117-.234-.117-.351-.117zm22.948 1.285h.39v-1.83h.584v-.39h-1.52v.39h.585v1.83h-.039zM67 44.986l.234-.467.234.467H67zm.857.896h.429l-1.052-2.26-1.052 2.26h.39l.233-.545h.78l.272.545zm-1.87 0l-1.052-2.26-1.052 2.26h.429l.623-1.363.623 1.363h.429zm-2.65-2.22h-1.792v2.22h.39v-1.83h1.013v1.83h.39v-2.22zm-2.649.39v-.39h-1.207v2.22h1.246v-.39h-.857v-.545h.818v-.39h-.818v-.545h.818v.04zm-2.61.545h-.35v-.546h.35c.078 0 .156.04.195.078a.298.298 0 01.078.195.298.298 0 01-.078.195.298.298 0 01-.195.078zm0-.935h-.74v2.22h.39v-.935h.35c.117 0 .234-.039.35-.078a.351.351 0 00.234-.233c.078-.117.078-.195.078-.312a.734.734 0 00-.078-.312.662.662 0 00-.233-.233.628.628 0 00-.351-.117zm-1.559.39v-.39h-1.207v2.22h1.207v-.39h-.818v-.545h.818v-.39h-.818v-.545h.818v.04zm-2.142-.39h-1.793v2.22h.39v-1.83h1.013v1.83h.39v-2.22zm-21.974-9.545h1.246v7.052h-1.246zm11.493 0h1.247v7.052h-1.247zm-5.104 4.364l-2.026-4.364h-1.285l3.311 7.208 3.351-7.208h-1.325zm-28.714-4.364h1.247v7.052h-1.247zm5.727 0h-1.48l-2.806 3.506 2.806 3.507h1.519L13 37.623zm46.753 2.026c0-1.325-1.168-2.065-2.181-2.065h-2.455v7.052h1.247v-2.961l2.337 2.96h1.52l-2.377-2.96c1.013-.117 1.91-.818 1.91-2.026zm-3.39.896v-1.753h1.17c.818 0 1.013.545 1.013.857 0 .545-.351.896-1.013.896h-1.17zm-37.674 1.675c0 .857-.507 1.403-1.325 1.403-.78 0-1.325-.546-1.325-1.403v-4.597h-1.247v4.636c0 1.676 1.208 2.533 2.533 2.533 1.364 0 2.532-.896 2.532-2.533v-4.636h-1.246v4.597h.078zm6.155-4.597h-2.181v7.052h1.246v-1.987h.935c1.676 0 2.533-1.208 2.533-2.533 0-1.363-.857-2.532-2.533-2.532zm-.039 3.818h-.896v-2.61h.896c.858 0 1.403.506 1.403 1.324 0 .78-.584 1.286-1.403 1.286zm22.598-3.818h-2.182v7.052h1.247v-1.987h.935c1.675 0 2.532-1.208 2.532-2.533 0-1.363-.857-2.532-2.532-2.532zm-.04 3.818h-.895v-2.61h.896c.857 0 1.402.506 1.402 1.324 0 .78-.584 1.286-1.402 1.286zm18.507-3.818v4.597c0 .857-.506 1.403-1.324 1.403-.78 0-1.325-.546-1.325-1.403v-4.597h-1.247v4.636c0 1.676 1.208 2.533 2.533 2.533 1.363 0 2.532-.896 2.532-2.533v-4.636h-1.169zm-14.727 5.766h1.247v1.247h-1.247z"/></g></svg>