<svg xmlns="http://www.w3.org/2000/svg" width="80" height="80"><g fill="none" fill-rule="evenodd"><circle cx="40" cy="40" r="40" fill="#80BB3D"/><g fill="#FEFEFE" fill-rule="nonzero"><path d="M53 34.561c-1.777-.45-4.147-.856-6.616-.772l.829-5.446c-4.997-.813-5.269 2.429-5.269 2.429l-.596 3.903c-4.64 1.734-5.082 5.73-1.114 7.286-.4 2.62-1.022 6.677-1.032 6.67-1.29-.543-3.884-1.565-5.037-1.976l3.15-19.319c13.5-1.35 16.138 4.649 15.684 7.225m-7.625 5.878l.624-4.103c-4.687.035-5.361 3.128-5.437 3.617-2.244-1.044-.34-3.292 2.816-3.869 3.494-.639 6.81.115 8.809.908-1.124 1.997-3.609 3.188-6.812 3.447M29.475 45.13c-1.372-.425-3.94-.94-4.474-1.044l6.786-12.084c-.708 4.026-1.586 9.003-2.312 13.128m39.047 6.794c2.767-3.482 4.346-7.515 4.34-11.811-.021-13.13-14.835-23.753-33.09-23.726-4.947.007-9.639.796-13.85 2.204-3.574-.425-7.086.93-7.086.93s2.56 3.994 6.408 5.455c2.704 1.026 5.755.163 6.29-.324 0 0-1.05-2.068-4.44-3.516-1.313-.56-3.126-1.064-5.138-1.339 1.355.113 2.505-.029 5.243.813 3.81 1.171 4.816 3.366 4.816 3.366.219-2.068-1.217-3.528-2.629-4.311a42.799 42.799 0 0110.389-1.272c17.105-.025 30.987 9.701 31.006 21.725.007 3.721-1.317 7.227-3.655 10.295a30.301 30.301 0 00-3.429-2.858c.84-4.845-2.854-9.35-6.872-11.572 1.842-5.657-3.82-11.435-14.077-11.642-1.526-.012-3.615.064-4.974.205l.57-3.495h-.814c-2.846.024-3.903 1.783-4.21 2.473l-1.1 2.041c-6.38 1.708-9.879 4.632-10.192 4.891-.739.615-.587.88.728.356 2.347-.937 5.078-1.779 7.94-2.418l-8.607 15.284c-4.604-.508-9.407.013-11.837 3.025-.914-2.05-1.41-4.231-1.414-6.494-.012-6.965 4.632-13.172 11.866-17.168-1.831-1.152-3.488-.216-4.01.144l-.028.02C10.543 27.53 6.748 33.552 6.76 40.21c.005 3.112.842 6.083 2.359 8.805-.187.938-.079 2.043.786 3.11 1.164 1.434 3.493 2.07 6.217 1.15 3.678-1.24 6.505-5.13 7.403-6.541-2.656-.42-3.706.512-4.082.996-1.082 1.393-2.676 2.96-4.345 3.65-3.417 1.414-5.627-1.569-2.928-3.97 1.826-1.627 5.45-1.965 8.72-1.568h.08c4.13.528 7.316 1.734 8.008 2.006a403.517 403.517 0 01-1.08 5.893l1.216.014c3.976-.001 4.325-2.866 4.325-2.866.006.006.204-1.008.204-1.008a217.613 217.613 0 017.372 3.677c.932.496 2.282.467 2.49-.842l1.545-10.143c4.043-.227 8.013-1.746 10.132-3.966 1.845 1.396 3.551 3.622 3.876 6.314-2.257-.945-4.809-1.51-7.428-1.119-6.07.908-8.194 6.932-4.856 10.351 2.504 2.565 6.096 2.844 9.96 1.435a11.219 11.219 0 005.42-4.26c-.29-.284-.838-.783-1.46-1.153-1.705-1.012-2.97.135-3.336.537-1.082 1.307-2.563 2.263-4.111 2.627-7.061 1.664-7.727-7.257-.49-7.524 2.288-.086 4.304.858 6.079 2.098l-.001.003c1.833 1.327 4.348 3.788 5.604 4.632 2.677 1.8 5.284 1.007 5.284 1.007s-.45-.716-1.2-1.63"/><path d="M62.503 54.966l-.005.003c-5.622 4.267-13.763 6.954-22.654 6.968-8.83.012-16.8-2.599-22.449-6.732-.558-.408-1.973-1.334-3.751-.5 6.053 5.628 15.542 9.247 26.204 9.23 10.701-.014 20.208-3.687 26.24-9.368-1.7-.812-3.187.111-3.585.399"/></g></g></svg>