<svg xmlns="http://www.w3.org/2000/svg" xmlns:xlink="http://www.w3.org/1999/xlink" width="40" height="40"><defs><path id="rappelz__a" d="M.781.535h1.706v6.34H.78z"/><path id="rappelz__c" d="M0 1.26h6.663v7.53H0z"/></defs><g fill="none" fill-rule="evenodd" transform="translate(-106 -318)"><rect width="40" height="40" x="106" y="318" fill="#4C77A0" fill-rule="nonzero" rx="20" transform="rotate(90 126 338)"/><rect width="40" height="40" x="106" y="318" fill="#D6A75D" fill-rule="nonzero" rx="20" transform="rotate(90 126 338)"/><path fill="#FFF" d="M143 334.39c-.132.033-.205.115-.287.187-.252.22-.481.475-.762.65-.85.529-1.811.676-2.786.705-.926.029-1.855.005-2.783.007-.08 0-.16.018-.328.037l.76.506c.033.287.065.575.096.863a.47.47 0 01.043.006l.179-.558.627-.197-.009.038h1.64l-.961 2.012-.564-.236-.887.649c.015.027.031.053.048.08l.501-.226.608.078-.212.631c-.419.758-.838 1.514-1.255 2.272-.004.012-.012.025-.011.036.001.01.016.022.024.022.206.005.41.005.615.013.563.024 1.128.03 1.69.081.625.06 1.248.164 1.87-.012.14-.018.278-.034.462-.056l-.79-.559.42-1.135c-.225.192-.396.431-.605.63-.172.162-.379.376-.585.397-.56.055-1.128.018-1.692.018l.001-.047c-.145.069-.29.136-.495.231l.5-1.092.615-1.273c.102-.158.206-.316.31-.474l.16.169-.302.217.644.304c.408-.157.803-.35 1.076-.739-.46.196-.941.214-1.425.225.079-.06.185-.102.228-.18.263-.467.512-.941.766-1.414.185-.336.454-.579.796-.745.18-.087.36-.178.54-.267.299-.24.63-.45.886-.73.19-.206.278-.505.412-.763l.222-.36"/><g transform="translate(123.96 335.866)"><mask id="rappelz__b" fill="#fff"><use xlink:href="#rappelz__a"/></mask><path fill="#FFF" d="M1.618 3.597c.032-.455.019-.914.021-1.37.003-.403.002-.805.002-1.252.177-.016.315-.055.442-.034.12.02.23.102.404.186C2.077.615 1.217.394.78.63l.395.327v5.918c.318-.473.609-.85 1.138-.983-.515-.705-.757-1.449-.696-2.295" mask="url(#rappelz__b)"/></g><path fill="#FFF" d="M112.382 337.064c-.377-.495-1.139-.723-1.711-.534l.242.135c.046.275.126.549.133.825.02.894.014 1.788.018 2.683-.004.143-.011.287-.013.43-.006.895-.176 1.111-1.033 1.31-.015.002-.025.027-.05.057.607.172 1.194.163 1.772-.066-.072-.066-.158-.142-.223-.2v-4.785c.338-.129.607-.03.865.145m24.308 3.488l-.05-.014-.597.71h-1.7l-.306.169-.024-3.29.027-1.399.154-.395 1.39-.315-.017-.045h-2.662l.344.287.246.77.004 3.764c-.031.47-.265.832-.594 1.163l.269-.084c.122.03.246.087.37.087.89.008 1.78.004 2.67.001.06 0 .122-.026.182-.04.036-.166.08-.316.098-.469.005-.042-.062-.094-.096-.143l.293-.757m-16.567.868c-.156-.126-.3-.266-.45-.4.134-.376-.137-.654-.236-.972-.003-.01-.034-.013-.07-.026l.059.264-.068-.056-.153.245-.159-.387c-.028-.137-.049-.279-.09-.412-.07-.23-.155-.455-.233-.682l-.46-1.335a.444.444 0 00.01-.075c.051-.067.1-.136.138-.188l.135.038c-.045-.308-.089-.595-.13-.884l.252-.376c.108-.053.215-.104.323-.154l-.017-.044-.465.026c-.86-.29-1.728-.5-2.645-.31-.365.077-.735.124-1.102.189-.125.022-.249.053-.395.085l1.444.404c.343.096.678.267 1.017.07.497.194.584.363.464.838-.018.073-.016.15-.023.227-.207.6-.396 1.205-.626 1.795-.366.934-.496 2.002-1.48 2.632l.154.026h1.518l.023-.071-.374-.32c.035-.175.06-.354.109-.525.136-.482.284-.963.427-1.445.001-.05-.007-.106.008-.154.233-.777.468-1.552.703-2.328.025.132.06.264.072.4.01.098-.038.21-.008.3.2.607.414 1.209.623 1.813l.16.543c.077.26.146.522.233.778.114.334.13.637-.189.874-.014.01.022.086.034.132h2.119l.01-.053c-.039-.025-.077-.05-.116-.073-.182-.136-.369-.267-.546-.41"/><path fill="#FFF" d="M133.177 341.138l-.081-.096c-.11.055-.223.104-.33.165-.338.187-.71.279-1.077.2-.342-.073-.663-.25-.992-.382l-.849-.632v-1.557h2.302c.056-.214.102-.399.15-.584l-.067-.022-.246.268c-.738.132-1.471-.151-2.149.227v-2.321c.79 0 1.56-.002 2.33.002.027 0 .053.047.079.072h-2.146l-.008.098c.141.019.281.05.423.057.526.028 1.051.047 1.576.07l.642.527-.117-.833-.086-.323c-.627-.092-1.237-.17-1.845-.273-.873-.147-1.734-.167-2.669.214l.962.387c.238.176.311.523.313.901.001.876.007 1.75.01 2.625-.01.792.361 1.367 1.032 1.727.745.401 1.513.467 2.26-.01.14-.09.236-.25.352-.378.078-.043.154-.085.231-.13m.931-2.897c.001.115.035.226.055.34l.14-.01.082-2.136-.192-.102-.152.395c.02.126.057.253.06.378.008.38 0 .758.007 1.136m-9.624-1.371c-.446-.605-1.107-.792-1.79-.85-.92-.078-1.844-.078-2.728-.111.148.123 1.215.354 1.53.367.536.023 1.072.09 1.605.154.087.01.164.099.246.151l-.45-.026.713.55.183.63c-.249.97-1.048 1.038-1.85 1.113v.43c.083.026.176.053.268.08.168-.045.334-.092.5-.131.334-.079.678-.123.998-.237.318-.113.65-.245.776-.617.373-.385.383-.816.157-1.275l-.158-.228"/><path fill="#FFF" d="M121.695 340.411l-.248.308c0-.213.009-.367-.002-.52-.014-.196-.045-.391-.068-.588a5.12 5.12 0 01.005-.144c.022-.057.063-.112.065-.17a98.77 98.77 0 00.06-1.638c.008-.268.002-.537.002-.857.246.015.438.029.642.041-.331-.408-1.267-.584-1.56-.298l.159.014.245.273v.337c0 1.287.004 2.574.005 3.861v1.584l.079.008a4.42 4.42 0 00.077-.154c.283-.243.565-.485.845-.728h.1l-.276-.627-.13-.702"/><g transform="translate(109 333.116)"><mask id="rappelz__d" fill="#fff"><use xlink:href="#rappelz__c"/></mask><path fill="#FFF" d="M6.318 8.384c.012-.018.005-.05.007-.076l.338-.316c-.516.22-1.089.113-1.385-.213-.085-.094-.19-.168-.286-.25-.095-.189-.205-.355-.457-.313-.054-.148-.102-.298-.165-.442-.126-.288-.26-.572-.391-.858.068-.038.13-.084.201-.108.64-.2 1.132-.554 1.295-1.256l.265-.12.092.353c.04-.459-.072-.814-.356-1.11-.196-.269-.427-.492-.761-.562C4.1 2.981 3.49 2.83 2.87 2.741 1.878 2.598.962 2.31.26 1.538L0 1.258c.237.696.667 1.206 1.35 1.479-.146.353-.36.02-.543.074.955.488 2.027.399 3.037.612.116.074.225.165.35.222.481.225.737.58.669 1.133-.237.629-.905.933-1.817.821l.023.113c.026.11.027.235.082.326.326.54.652 1.08 1.002 1.603.147.219.35.399.528.596l-.127.534.302-.08c.358.225 1.21.047 1.462-.307" mask="url(#rappelz__d)"/></g><path fill="#FFF" d="M128.526 336.79c-.482-.595-1.16-.729-1.858-.778-.706-.05-1.415-.054-2.122-.084-.162-.007-.322-.041-.483-.062-.006.03-.015.062-.02.093.201.066.398.172.604.193.742.073 1.489.12 2.233.176l-.027.164c.279.187.541.364.803.543.188.195.256.436.25.701-.085.626-.516.863-1.059 1.012-.26.071-.536.092-.86.144.123.193.207.323.269.418.108-.099.174-.205.265-.233.454-.145.915-.27 1.373-.402l-.791.483c.415-.048.782-.109 1.083-.347.182-.146.326-.34.488-.511.342-.43.32-.971-.061-1.433-.03-.026-.059-.05-.087-.077"/></g></svg>