<svg xmlns="http://www.w3.org/2000/svg" width="41" height="40" fill="none"><circle cx="20.5" cy="20" r="20" fill="#6B31BD"/><path fill="#fff" fill-rule="evenodd" d="M20.857 13c-.387 0-.76.15-1.037.42L7.932 24.955a1.4 1.4 0 00-.318 1.564 1.467 1.467 0 001.358.882h6.433a1.435 1.435 0 001.492-1.432 1.432 1.432 0 00-1.492-1.431h-2.873l6.855-6.652v8.01a1.455 1.455 0 001.473 1.433h5.261c4.07 0 7.379-3.228 7.379-7.163C33.5 16.23 30.2 13 26.121 13a1.455 1.455 0 00-1.472 1.433 1.455 1.455 0 001.472 1.432c2.446 0 4.434 1.93 4.434 4.3 0 2.372-1.979 4.298-4.434 4.298h-3.789v-10.03a1.43 1.43 0 00-.909-1.324A1.487 1.487 0 0020.86 13h-.003z" clip-rule="evenodd"/></svg>