<svg xmlns="http://www.w3.org/2000/svg" width="40" height="40" fill="none"><circle cx="20" cy="20" r="20" fill="#FA961D"/><path fill="#fff" fill-rule="evenodd" d="M27.077 23.142h-.327v1.137h.304l.551-.676v.676h.328v-1.137h-.303l-.553.676v-.676zm.084-.45h-.215c.002.22.127.328.374.328s.373-.108.375-.327h-.219c0 .097-.057.156-.158.156-.104 0-.155-.059-.157-.156zM5 22.803h1.193v.271H5.34v.304h.41c.356 0 .549.152.549.436 0 .295-.218.466-.598.466H5V22.8zm.682 1.224c.175 0 .27-.07.27-.203 0-.13-.09-.194-.27-.194H5.34v.397h.342zm1.915-.883v1.136h-.33v-.866h-.358l-.011.2c-.017.406-.082.69-.364.69a.682.682 0 01-.17-.026l.016-.27a.338.338 0 00.049.004c.156 0 .169-.197.179-.412l.017-.456h.972zm1.305 1.136v-.648c0-.344-.201-.505-.547-.505a.873.873 0 00-.49.137l.118.23a.546.546 0 01.328-.105c.177 0 .262.082.262.223H8.31c-.347 0-.488.14-.488.34 0 .196.158.345.424.345.168 0 .286-.055.347-.159v.142h.308zm-.33-.476v.116c-.038.104-.133.155-.243.155-.116 0-.186-.056-.186-.138 0-.076.049-.133.203-.133h.226zm1.528-.39h-.583v.866H9.19v-1.136h.91v.27zm.66-.287c-.361 0-.625.243-.625.585 0 .342.264.585.626.585.36 0 .623-.242.623-.585 0-.342-.263-.585-.623-.585zm0 .27c.165 0 .29.118.29.315 0 .196-.125.315-.29.315-.165 0-.292-.118-.292-.315s.127-.315.292-.315zm1.761.017h-.384v.866h-.327v-.866h-.385v-.27h1.096v.27zm.782.866c.312 0 .462-.122.462-.323 0-.135-.068-.226-.2-.27a.265.265 0 00.166-.25c0-.185-.168-.293-.454-.293h-.58v1.136h.606zm-.055-.67h-.25v-.242h.25c.114 0 .173.038.173.12 0 .08-.059.123-.173.123zm.034.195c.12 0 .175.04.175.126 0 .085-.062.125-.182.125h-.276v-.251h.283zm.636-.093c0-.342.264-.585.625-.585s.623.243.623.585c0 .343-.262.585-.623.585s-.625-.243-.625-.585zm.914 0c0-.197-.125-.315-.29-.315-.165 0-.29.118-.29.315s.125.315.29.315c.165 0 .29-.119.29-.315zm1.229.585c.319 0 .566-.228.566-.585 0-.356-.247-.585-.566-.586-.152 0-.275.049-.357.148v-.13h-.315v1.546h.33v-.53a.442.442 0 00.342.137zm-.058-.9c.165 0 .29.118.29.315 0 .196-.125.315-.29.315-.165 0-.29-.118-.29-.315s.125-.315.29-.315zm.853-.253h.327v.675l.553-.675h.303v1.136h-.328v-.676l-.55.676h-.305v-1.136zm2.07.27h.384v-.27h-1.096v.27h.385v.866h.327v-.866zm1.61.391h-.86c.033.142.153.228.326.228.12 0 .206-.036.284-.11l.175.19c-.105.12-.264.184-.469.184-.392 0-.648-.247-.648-.586 0-.34.26-.585.606-.585.334 0 .591.224.591.59.002.021 0 .05-.003.076l-.002.013zm-.863-.192h.56a.27.27 0 00-.28-.237.27.27 0 00-.28.236zm2.202.667v-1.136h-.972l-.016.456c-.01.215-.023.412-.18.412a.338.338 0 01-.048-.004l-.017.27c.065.017.12.025.17.025.282 0 .347-.283.364-.688l.011-.201h.36v.866h.328zm1.39-.395c0 .252-.186.397-.502.397l-.57-.002v-1.136h.327v.363h.287c.297.002.458.14.458.378zm-.336-.004c0-.112-.07-.158-.196-.16l-.214-.003v.33h.214c.127.002.196-.056.196-.167zm.869-.737h-.328v1.136h.328v-.425h.494v.425h.329v-1.136h-.33v.443h-.493v-.443zm2.185.741c0 .252-.178.397-.494.397l-.554-.002v-1.136h.328v.363h.27c.297.002.45.14.45.378zm-.328-.004c0-.112-.069-.158-.196-.16l-.197-.003v.33h.197c.127.002.196-.056.196-.167zm.45-.737h.327v1.136h-.327v-1.136zm3.872 1.179v.389h-.303v-.389c-.435-.03-.68-.234-.68-.594 0-.352.242-.549.68-.578v-.416h.303v.416c.432.03.68.228.68.578 0 .355-.248.562-.68.594zm-.303-.255v-.662c-.253.025-.36.133-.36.323 0 .201.107.311.36.339zm.665-.339c0-.192-.11-.298-.363-.323v.66c.253-.026.363-.136.363-.337zm1.074-.58c-.362 0-.626.243-.626.585 0 .342.264.585.626.585.36 0 .623-.243.623-.585 0-.342-.263-.585-.623-.585zm-.001.27c.165 0 .29.118.29.315s-.125.315-.29.315c-.165 0-.292-.118-.292-.315s.127-.315.292-.315zm.849-.253h.327v.444h.494v-.444h.33V24.3h-.33v-.424h-.494v.424h-.327v-1.136zM35 24.545v-.514h-.163v-.866h-.99l-.015.393c-.014.247-.04.468-.197.473h-.046v.515h.307V24.3h.797v.245H35zm-.492-.514h-.48c.08-.085.095-.258.101-.45l.007-.146h.372v.596zM5 16h5.212v.235l-.668.128v4.224l.668.128v.228H8.189v-.228l.667-.128V16.39h-2.5v4.197l.667.128v.228H5v-.228l.668-.128v-4.224L5 16.235V16zm8.932 3.074c0 1.143-.661 1.957-1.745 1.957-.238 0-.476-.074-.728-.215v1.513l.565.087v.209h-1.71v-.209l.518-.087v-4.311l-.518-.135v-.202l.049.003a2.626 2.626 0 001.007-.157l-.082.827.02.007c.314-.599.777-.868 1.33-.868.776 0 1.294.632 1.294 1.58zm-.627.087c0-.72-.334-1.21-.913-1.21-.293 0-.647.107-.933.477v2.051c.258.108.45.148.66.148.79 0 1.186-.706 1.186-1.466zm3.189 1.359c0 .316.15.49.497.49a.612.612 0 00.6-.43c-.055.047-.198.074-.273.074-.198 0-.327-.141-.327-.424 0-.156.013-.446.027-.739.013-.299.027-.6.027-.767 0-.773-.327-1.23-1.253-1.23-.756 0-1.37.241-1.37.678 0 .142.041.276.157.343.225-.275.538-.578 1.063-.578.43 0 .783.175.783.565 0 .22-.004.34-.01.48a27.46 27.46 0 00-.003.085c-1.458 0-2.133.444-2.133 1.096 0 .532.375.848.859.848.701 0 1.158-.444 1.383-.854-.027.174-.027.296-.027.363zm-.09-1.15l-.047.578c-.327.47-.701.7-.988.7-.327 0-.51-.209-.51-.491 0-.364.306-.774 1.546-.787zm1.916-1.494l-.532-.087v-.208h1.847c.667 0 1.144.262 1.144.84 0 .377-.265.653-.763.747.532.08.96.383.96.874 0 .619-.551.901-1.273.901h-1.915v-.201l.532-.088v-2.777zm1.233 1.164c.395 0 .674-.208.674-.612 0-.424-.3-.531-.674-.531h-.606v1.143h.606zm-.606 1.587h.66c.457 0 .777-.208.777-.652 0-.41-.3-.619-.736-.619h-.701v1.271zm4.661-.376c-.293-.861-.66-1.709-1.117-2.67h-1.287v.208l.531.087v2.778l-.531.088v.201h1.403v-.201l-.531-.088v-2.697h.027c.082.194.157.388.231.58.086.222.171.442.266.658l.824 1.85h.137l1.349-3.088h.027c-.02.491-.027.962-.027 1.453v1.244l-.532.088v.201h1.69v-.201l-.532-.088v-2.777l.532-.088v-.208H24.76l-1.152 2.67zm6.942-2.462l-.538.087v2.771l.538.095v.201h-1.696v-.201l.538-.095v-2.4l-1.853 2.697h-1.13v-.202l.53-.095v-2.77l-.53-.088v-.208h1.689v.208l-.532.087v2.415l1.854-2.71h1.13v.208zm2.045 3.242c1.083 0 1.744-.814 1.744-1.957 0-.949-.518-1.58-1.295-1.58-.552 0-1.015.268-1.328.867l-.02-.007.081-.827a2.627 2.627 0 01-1.008.157l-.048-.003v.202l.518.135v4.31l-.518.088v.209h1.71v-.209l-.566-.087v-1.513c.253.14.491.215.73.215zm.204-3.08c.579 0 .913.49.913 1.21 0 .76-.395 1.466-1.186 1.466-.21 0-.402-.04-.66-.148v-2.051c.286-.37.64-.477.933-.477z" clip-rule="evenodd"/></svg>