<svg xmlns="http://www.w3.org/2000/svg" width="41" height="40" fill="none"><circle cx="20.5" cy="20" r="20" fill="#ED1D24"/><path fill="#fff" fill-rule="evenodd" d="M20.5 37c9.39 0 17.002-7.61 17.002-16.998C37.502 10.613 29.89 3 20.5 3c-9.387 0-17 7.613-17 17.002C3.5 29.39 11.113 37 20.5 37zm.002-2.429c8.047 0 14.57-6.523 14.57-14.569 0-8.048-6.523-14.573-14.57-14.573-8.048 0-14.573 6.525-14.573 14.573 0 8.046 6.525 14.57 14.573 14.57zm-4.357-8.06c-.833-.867-.565-2.354-.297-3.847.093-.518.186-1.036.233-1.53-.045.046-.167.28-.348.633-.785 1.52-2.694 5.218-4.48 5.218-.038 0-.08 0-.118-.006-1.992-.187-1.732-2.94-1.115-4.61h3.215c-.986 2.722.374 1.609 1.302-.122 1.836-3.734 1.874-3.839 3.851-9.356l.064-.177h3.527c-1.051 3.217-1.936 6.129-2.369 9.47 0 .122.06.248.185.185.554-.091 2.88-5.064 4.181-7.848.446-.953.772-1.65.866-1.807h3.53s-3.754 10.4-3.135 11.385c.226.408.517-.042.802-.483.106-.163.21-.325.311-.442l.558.558c-.225.251-.459.547-.703.858-.874 1.11-1.886 2.395-3.174 2.395a2.07 2.07 0 01-.39-.04 1.477 1.477 0 01-.679-.374c-1.32-1.15-.093-4.421.68-6.48.35-.934.606-1.619.49-1.743-.09.01-.183.21-.32.506l-.113.237c-.126.26-.271.571-.433.917-1.189 2.54-3.264 6.977-5.004 6.977-.313 0-.776-.12-1.117-.474zm12.098.473c.585 0 1.062-.478 1.062-1.065s-.477-1.06-1.062-1.06c-.585 0-1.064.473-1.064 1.06 0 .587.479 1.065 1.064 1.065z" clip-rule="evenodd"/></svg>