<svg xmlns="http://www.w3.org/2000/svg" xmlns:xlink="http://www.w3.org/1999/xlink" width="60" height="60"><defs><path id="web-bankir__a" d="M29.703 59.405c16.404 0 29.702-13.298 29.702-29.702C59.405 13.298 46.107 0 29.703 0 13.298 0 0 13.298 0 29.703c0 16.404 13.298 29.702 29.703 29.702z"/><path id="web-bankir__b" d="M32.465 32.874H0V.054h39.956v32.82h-7.49V.054H0v32.82h32.465z"/></defs><g fill="none" fill-rule="evenodd"><use fill="#D8DFE3" xlink:href="#web-bankir__a"/><path fill="#B51918" d="M41.85 19.04c2.565 2.58 5.138 5.154 7.69 7.748.542.55.56 1.379.018 1.934-2.31 2.37-4.648 4.71-6.979 7.058-.034.034-.112.022-.169.032.03-1.049-.701-1.633-1.343-2.28-2.04-2.057-4.072-4.122-6.105-6.186-.698-.709-.699-.767-.022-1.454a4927.9 4927.9 0 016.324-6.41c.172-.174.317-.395.585-.442"/><g transform="translate(10 15.072)"><mask id="web-bankir__c" fill="#fff"><use xlink:href="#web-bankir__b"/></mask><path fill="#363A3B" d="M31.85 3.967c-1.25 1.284-2.494 2.57-3.747 3.85-1.079 1.101-2.154 2.207-3.258 3.283-.333.325-.34.505-.004.84 2.344 2.342 4.656 4.716 7.001 7.056.507.506.738 1.042.568 1.744-.066.281-.273.46-.462.651-3.607 3.64-7.214 7.28-10.825 10.916-.74.746-1.547.759-2.277.022A24027.373 24027.373 0 01.56 13.849c-.751-.76-.746-1.548.004-2.307C4.167 7.896 7.771 4.253 11.38.615c.744-.751 1.53-.748 2.28.007 1.955 1.963 3.9 3.936 5.851 5.903.16.162.335.308.503.46.55.246.866.76 1.283 1.156.553.523.541.537 1.062.01 2.074-2.102 4.144-4.207 6.224-6.302.205-.207.368-.54.76-.422.87.812 1.712 1.652 2.507 2.54" mask="url(#web-bankir__c)"/></g><path fill="#B51918" d="M39.342 16.5c-.26.065-.403.285-.576.46-2.181 2.204-4.366 4.405-6.532 6.624-.295.303-.467.36-.765.013-.459-.536-.968-1.028-1.456-1.54 2.12-2.15 4.234-4.31 6.364-6.45.643-.646 1.444-.63 2.103-.006.301.285.575.598.862.898"/><path fill="#666C6F" d="M39.84 32.538c.548.567 1.097 1.134 1.644 1.702.704.73.7 1.522-.021 2.254-3.392 3.44-6.786 6.877-10.18 10.314-.904.915-1.599.918-2.493.012-5.018-5.082-10.033-10.167-15.055-15.246-.862-.872-1.757-1.711-2.628-2.575-.31-.307-.618-.63-.584-1.126.096-.111.215-.116.343-.076.27.177.314.514.511.744.152.2.334.372.509.55L25.04 42.428c.087.089.174.178.263.266.856.842 1.42.846 2.275-.018 3.159-3.199 6.319-6.397 9.468-9.606.315-.242.482-.654.886-.793.648-.001 1.278.128 1.907.26"/><path fill="#7C8286" d="M10.902 27.869l-.379.004c-.194-.486.057-.86.357-1.165 3.493-3.552 6.991-7.1 10.505-10.631.75-.754 1.488-.694 2.272.1l15.69 15.88c.162.164.328.32.492.48-.496.2-.97-.067-1.459-.07-.179-.001-.358-.052-.536-.08-.036-1.158-.9-1.769-1.603-2.482-4.151-4.214-8.307-8.425-12.461-12.637-.147-.148-.289-.301-.442-.442-.597-.552-1.313-.572-1.883.002-3.33 3.356-6.643 6.731-9.971 10.09-.277.28-.315.681-.582.95"/><path fill="#A2ABB0" d="M10.902 27.869c.023-.464.236-.817.56-1.144 3.255-3.284 6.5-6.58 9.747-9.87.837-.848 1.546-.84 2.398.023 4.52 4.581 9.035 9.169 13.57 13.734.515.517.806 1.043.667 1.775-.215.283-.416.58-.72.776-.24.147-.503.176-.777.18-5.642.079-11.242-.313-16.768-1.529-2.494-.548-4.928-1.286-7.206-2.487-.388-.204-.733-.47-1.105-.696-.213-.21-.294-.484-.366-.762"/><path fill="#8E969B" d="M11.268 28.63c1.031.325 1.921.957 2.922 1.357 2.618 1.046 5.34 1.673 8.1 2.172 2.43.44 4.885.645 7.338.863 2.493.222 4.996.114 7.495.141-.137.156-.267.32-.412.467-3.012 3.056-6.025 6.11-9.038 9.164-.918.93-1.562.931-2.478.003-4.492-4.55-8.984-9.1-13.474-13.653-.16-.162-.302-.342-.453-.513"/><path fill="#363A3B" d="M36.007 39.811c.005 1.06-.656 1.77-1.66 1.785-1.006.014-1.707-.695-1.712-1.732-.006-1.054.665-1.777 1.66-1.793.992-.015 1.708.712 1.712 1.74"/></g></svg>