<svg xmlns="http://www.w3.org/2000/svg" xmlns:xlink="http://www.w3.org/1999/xlink" viewBox="0 0 60 60"><path fill="#613191" d="M30 60c16.6 0 30-13.4 30-30S46.6 0 30 0 0 13.4 0 30s13.4 30 30 30z"/><defs><path id="kcell__a" d="M26.6 43.1c-2.2 0-4.3-.4-6.2-1.1 2.2 2.4 4.8 4.3 7.3 4.4 5.3.2 10.5-4.4 13.7-9.9.2-.7.5-1.4.8-2.2.1-.4.2-.9.2-1.3-2.3 5.9-8.5 10.1-15.8 10.1zm2.6-9c-4.4 1.8-8.9 2.6-12.9 2.5.5.8 1.1 1.6 1.7 2.5 2.6 1.6 5.8 2.5 9.1 2.5 6.8 0 12.6-3.7 15.3-8.9-.1-1.9-1.4-3.5-3.4-4.9-2.6 2.4-5.9 4.7-9.8 6.3zM14.7 22.9c-1.8 2.5-2.4 5.4-1.1 8.6l1.1 2.2c4.6.5 9.8-.2 14.9-2.3 2.9-1.2 5.6-2.8 7.8-4.7-4.9-2.5-12.6-3.9-19.8-3.9-1.1 0-2 0-2.9.1zm25.4 3.6c1.8.9 3.3 2 4.2 3.1.3-1.4.5-2.7.5-4 0-2.3-.1-4.3-.5-5.9-.8 2.3-2.3 4.7-4.2 6.8zm-12-3.8s-.1 0 0 0c3.8.8 7.4 1.8 10.4 3 2.5-2.2 4.3-4.8 5.6-7.4-.3-1-.8-1.9-1.5-2.6-1.7 4.1-7.5 7-14.5 7zM16.3 21c3 .3 6.3.8 9.4 1.3 7-.1 14.3-3.1 16.1-7.2-1.5-1.1-3.7-1.7-6.9-1.7-5.1 0-13.8 2.8-18.6 7.6z"/></defs><use fill="#fff" fill-rule="evenodd" clip-rule="evenodd" overflow="visible" xlink:href="#kcell__a"/></svg>