<svg xmlns="http://www.w3.org/2000/svg" width="41" height="40" fill="none"><circle cx="20.5" cy="20" r="20" fill="#222"/><path fill="#fff" fill-rule="evenodd" d="M8.459 17.788l.039-.066c.066-.092.158-.197.263-.289l.035-.027a.466.466 0 01.122-.078c.17-.105.407-.197.696-.25.25-.052.552-.078.867-.078l.433.013v1.09h-.262c-.263 0-.447.013-.565.026-.118.013-.315.092-.315.302v.145h1.142v1.182H9.732v3.072H8.196v-3.072H7.5v-1.182h.735s.013-.224.053-.368c.026-.118.105-.302.17-.42zm5.33-.762h1.537v5.804H13.79v-5.804zm15.076 1.537h1.549v2.52c0 .08.013.158.026.21.013.08.04.145.08.198a.32.32 0 00.183.131.46.46 0 00.21.04h.985c.04 0 .066 0 .079-.014V18.563H33.5v3.191c0 .145-.013.276-.04.381a.897.897 0 01-.301.473.984.984 0 01-.46.21 2.844 2.844 0 01-.407.026h-1.55c-.289 0-.538-.026-.722-.078a1.6 1.6 0 01-.604-.329 1.4 1.4 0 01-.446-.709 2.196 2.196 0 01-.092-.551h-.013v-2.613zm-4.255 2.784h-1.576v1.483h1.576v-1.483zm-13.026-2.771h1.536v4.254h-1.536v-4.254zm1.536-1.55h-1.536v1.077h1.536v-1.077zm3.664 1.563l-.066.02-.066.02a.985.985 0 00-.236.104.764.764 0 00-.236.224c-.105.17-.17.393-.17.67v3.203h1.535v-3.072h.88v3.072h1.523v-3.072h.42c.08 0 .132 0 .184.013a.232.232 0 01.145.092c.04.039.079.105.092.197.026.078.04.157.026.25v2.52h1.537v-2.52c0-.263-.04-.513-.132-.736a1.714 1.714 0 00-.25-.46c-.039-.052-.078-.092-.117-.131-.038-.037-.082-.068-.123-.097l-.048-.034c-.29-.197-.67-.29-1.13-.303h-3.48a2.484 2.484 0 01-.098.01.862.862 0 00-.19.03zm10.557-.026h.867v1.208h-.604a1.32 1.32 0 00-.354.04.49.49 0 00-.263.157c-.105.118-.17.302-.17.564v2.298H25.28v-2.285c0-.302.04-.577.105-.8.052-.198.144-.381.276-.539a.75.75 0 01.203-.21 1.634 1.634 0 01.781-.368c.184-.04.42-.065.696-.065z" clip-rule="evenodd"/></svg>