<svg xmlns="http://www.w3.org/2000/svg" width="41" height="40" fill="none"><path fill="#FFBA02" fill-rule="evenodd" d="M20.5 40c11.046 0 20-8.954 20-20s-8.954-20-20-20S.5 8.954.5 20s8.954 20 20 20z" clip-rule="evenodd"/><path fill="#20421D" d="M7.553 21.436l-.392 2.013H5.5c.39-2.274.926-4.517 1.2-6.811h1.482l-.05.658c.25-.288.513-.493.837-.614.681-.253 1.39-.1 1.814.41.276.331.391.727.41 1.151.043 1.015-.224 1.927-.966 2.646-.665.646-1.47.864-2.381.653-.092-.022-.18-.065-.293-.106zm1.891-2.82v-.065c-.01-.24-.057-.468-.3-.581-.245-.114-.461-.027-.656.13a1.153 1.153 0 00-.402.629c-.107.442-.182.892-.26 1.34-.009.047.038.122.08.155.29.232.713.172.995-.143.373-.416.507-.923.543-1.465zM16.011 21.506h-1.523l.042-.801-.032-.014-.104.148c-.438.624-1.123.911-1.81.734-.607-.157-.957-.587-1.059-1.18-.262-1.525.526-3.313 2.485-3.729.868-.184 1.722-.099 2.57.13.02.006.04.015.059.023l.044.023c-.249 1.549-.687 3.066-.672 4.666zm-1.187-3.642c-.35-.095-.65-.033-.898.186-.518.457-.742 1.044-.694 1.73.02.283.193.47.428.492.192.018.343-.07.47-.206.206-.217.326-.484.393-.767.112-.469.2-.944.3-1.435zM27.657 19.733a.628.628 0 00.439.492c.398.146.806.12 1.21.043.257-.048.506-.133.772-.205l.04.437c.014.188.02.377.042.564.014.13-.028.201-.156.25a4.517 4.517 0 01-1.834.298 3.31 3.31 0 01-.778-.113c-.715-.205-1.15-.697-1.263-1.425-.181-1.173.141-2.193 1.096-2.933.777-.602 1.671-.753 2.607-.409.57.21.88.65.919 1.267.04.65-.22 1.127-.809 1.416-.423.206-.877.287-1.34.314-.306.018-.613.004-.945.004zm.178-1.194c.16 0 .322.018.478-.004.232-.034.462-.084.686-.15.15-.045.216-.176.19-.332-.025-.158-.14-.24-.29-.26a1.235 1.235 0 00-.318-.002c-.362.045-.723.38-.746.748zM23.706 19.757a2.733 2.733 0 01-1.71.135c-.599-.138-.956-.575-.922-1.189.025-.453.129-.902.202-1.351.032-.19.072-.38.12-.568.01-.044.064-.08.105-.112.017-.013.052-.003.08-.003h1.5l-.128.671c-.05.274-.102.549-.15.823-.078.44.243.615.575.6.09-.004.18-.031.268-.051.187-.041.281-.14.312-.347.077-.525.186-1.046.289-1.567.01-.048.07-.122.108-.123.517-.008 1.033-.005 1.58-.005-.046.25-.087.485-.132.719l-.761 3.986c-.013.068-.01.14-.115.14-.527-.003-1.055-.002-1.592-.002l.371-1.756zM20.985 16.715l-.387 1.253c-.122-.023-.24-.052-.361-.066-1.256-.146-1.846.934-1.668 1.748.102.468.512.712 1.044.626.21-.034.418-.087.637-.134v1.273c-.277.06-.556.14-.84.175-.445.056-.892.053-1.326-.09-.814-.268-1.286-.961-1.303-1.86-.032-1.63 1.113-2.774 2.553-3.012.5-.083.995-.088 1.488.035.046.012.09.03.163.052zM32.135 17.857h-1.242l.242-1.22H35.5l-.243 1.212h-1.439l-.694 3.658h-1.678l.69-3.65z"/></svg>