<svg xmlns="http://www.w3.org/2000/svg" viewBox="0 0 60 60"><circle cx="29.7" cy="29.7" r="29.7" fill="#e85a21"/><path fill="#fff" fill-rule="evenodd" d="M36.7 7.4c-.2.1-.2.2-.3.2-2.4 2.4-4.9 4.7-7.2 7.1-1.5 1.5-2.2 3.4-2.2 5.6v6c.2-.2.3-.3.5-.4 2.2-2.2 4.4-4.3 6.6-6.5 1.3-1.2 2.1-2.7 2.4-4.4.2-1.2.2-2.4.2-3.6v-4M17.3 38.8c.1.2.2.2.2.3 2.5 2.4 4.9 4.8 7.4 7.1 1.5 1.4 3.3 2.1 5.4 2.1h6.3s0-.1.1-.1l-.3-.3c-2.2-2.2-4.5-4.3-6.7-6.5-1.3-1.3-2.8-2.1-4.6-2.4-1.3-.2-2.6-.2-3.8-.2-1.4-.1-2.6 0-4 0m3.2-18.9v9.2c0 2.1.8 4 2.3 5.5l3.8 3.8c.1.1.2.2.4.3v-9.1c0-2.2-.8-4.2-2.4-5.7-1.2-1.2-2.5-2.4-3.7-3.7 0 0-.2-.1-.4-.3" clip-rule="evenodd"/></svg>