<svg xmlns="http://www.w3.org/2000/svg" width="80" height="80"><g fill="none" fill-rule="evenodd"><circle cx="40" cy="40" r="40" fill="#F47920"/><path fill="#FFF" fill-rule="nonzero" d="M41.058 46.374l-5.535-8.516c-4.684 6.89-11.381 9.29-13.897 5.458-2.516-3.87 1.045-10.761 7.935-15.368 6.89-4.606 14.749-6.348 18.93-2.206 4.257 4.18-.581 16.064-7.433 20.632m15.484-25.161c-6.194-5.536-19.471-3.252-29.768 3.639-10.297 6.89-14.439 16.567-11.884 22.993 3.6 9.097 13.316 9.445 23.613 2.594l8.516 12.348c9.02-8.555 22.336-30.155 9.523-41.574"/></g></svg>