<svg xmlns="http://www.w3.org/2000/svg" xmlns:xlink="http://www.w3.org/1999/xlink" width="80" height="80"><defs><circle id="geekbrains__a" cx="40" cy="40" r="40"/></defs><g fill="none" fill-rule="evenodd"><use fill="#3F5368" xlink:href="#geekbrains__a"/><g fill-rule="nonzero"><path fill="#3F5368" d="M42.787 64.389l-.176.428 2.415 2.427h5.11l.41-.411 1.235-1.243.142-.141h3.523l.417-.419v-.003l4.39-4.416h.003l.415-.418v-1.979l.14-.14 1.06-1.065.268-.268.1-.39 2.332-9.007.045-.174v-.184l-.009-4.74-.003-.747-.6-.426-1.568-1.112-.497-.352.46-.4 1.57-1.363.508-.442.13-.525-.243-.632-1.533-3.978-.034-.088V29l-.416-.419h-.001l-1.711-1.722-.14-.139v-3.243l-.413-.423-3.817-3.904-.05-.051-.006-.01-3.252-3.27v-.003l-.417-.419h-2.308l-.14-.141-1.749-1.759-.417-.42h-5.966l-3.53 3.552-1.451-.679.177-.429-3.209-2.444h-2.157l-.418.42h.003l-1.749 1.759-.14.141h-2.309l-.417.417v.005l-6.268 6.304h-.003l-.416.418v3.703l-.138.14-2.055 2.066-.418.419v3.497l-.139.141-1.776 1.786-.41.413V47.18l.043.164 2.333 9.007.1.388.267.27 1.06 1.065.14.14v1.976l.419.421 4.39 4.416.418.422h3.523l.14.141 1.235 1.243.411.411h8.143l3.528-3.533"/><path fill="#FFF" d="M48.52 54.888l.375.406h.927l.308-.452 2.398-9.378-.399-1.07h-3.173l-.437.44v10.054zm16.097-7.902l-.01-4.74-.001-.747-.602-.427-1.567-1.111-.498-.353.46-.4 1.569-1.362.509-.441.131-.526-.243-.633-1.532-3.977-.034-.088V29l-.417-.419h-.002l-1.71-1.721-.14-.14v-3.243l-.412-.423L56.3 19.15l-.052-.052-.003-.009-3.253-3.27v-.003l-.416-.418h-2.31l-.14-.142-1.748-1.757-.419-.421h-5.963l-3.53 3.551v10.744l-2.88-.807v-4.609a1.632 1.632 0 00.424-2.607 1.61 1.61 0 00-2.285 0 1.629 1.629 0 00.424 2.607v1.995l-2.366-.664-.008-.002a1.613 1.613 0 00-1.089-1.29 1.601 1.601 0 00-1.637.394 1.629 1.629 0 000 2.303 1.6 1.6 0 002.273-.002l.03-.03.05.015 2.748.77v1.528a.72.72 0 00.513.828l3.803 1.066v2.398a.679.679 0 00-.14.085l-4.44 3.504h-2.65a1.61 1.61 0 00-2.589-.422 1.617 1.617 0 00-.002 2.284v.001a1.612 1.612 0 002.591-.42h2.895a.715.715 0 00.49-.194l3.845-3.034v2.092l.438.44h1.979l.44-.441v-7.247l3.45-1.436a.713.713 0 00.45-.31l.005-.006.001-.002a.718.718 0 00.119-.394l.187-1.743 2.628-.056v-.002a.698.698 0 00.306-.08l1.538-.794a.701.701 0 00.123-.08c.648.39 1.48.277 2.001-.271h-.002a1.63 1.63 0 00-.044-2.295l-.001.001a1.606 1.606 0 00-2.28.052c-.333.35-.494.828-.439 1.308h-.002l-1.389.72-2.286.049.109-1.018a.788.788 0 00.003-.127 1.633 1.633 0 00.53-2.655 1.61 1.61 0 00-2.284 0 1.63 1.63 0 00.35 2.567.547.547 0 00-.007.053l-.412 3.859-2.654 1.105v-8.554l.139-.14 1.566-1.574.14-.14h3.612l.139.14 1.748 1.757.419.422h2.307l.139.14 2.408 2.42.005-.004.336.345 3.255 3.33.14.14v3.268l.416.421 1.713 1.721.139.14v1.633h-2.95l-1.434-3.12a1.63 1.63 0 00-.242-2.234 1.61 1.61 0 00-2.23.144 1.635 1.635 0 00.045 2.248c.304.306.715.48 1.146.48h.01l1.592 3.463a.735.735 0 00.676.46h.283v2.482l-3.115 2.65a1.595 1.595 0 00-1.802.333 1.626 1.626 0 00-.19 2.059 1.604 1.604 0 001.976.57 1.624 1.624 0 00.924-1.847l.002-.002 3.31-2.817a.703.703 0 00.329-.599v-2.83h1.89l1.064 2.76.12.314-.253.22-2.397 2.082-1.278 1.11.009.168 1.38.978 2.756 1.954.2.142v.249l.008 3.498v.06l-.015.06-.373 1.437-2.907-.574-.737-2.189.017-.016a1.618 1.618 0 00.215-1.996 1.598 1.598 0 00-1.884-.66 1.613 1.613 0 00-1.063 1.698 1.61 1.61 0 001.406 1.425l.75 2.233-1.27 1.845a.79.79 0 00-.086.166 1.6 1.6 0 00-1.48.44 1.629 1.629 0 00-.112 2.168c.518.643 1.44.789 2.132.335.692-.456.93-1.36.552-2.099a.72.72 0 00.147-.158l1.215-1.767 2.744.543-1.405 5.429-.033.128-.09.09-1.26 1.267-.42.422V59l-.137.14-1.05 1.056c-.011-.011-.018-.025-.03-.036l-2.284-2.297a1.617 1.617 0 00-.377-1.689 1.604 1.604 0 00-1.556-.427 1.614 1.614 0 00-1.144 1.142c-.151.56.007 1.157.415 1.569.423.428 1.05.584 1.625.403l2.307 2.32c.01.011.023.02.034.03l-1.217 1.224-.139.14h-3.522l-.418.421-1.244 1.251-.137.138h-4.369v.002H42.79l-.178.429 2.416 2.43h5.108l.412-.415 1.236-1.243.14-.14h3.523l.418-.418v-.003l4.39-4.416h.002l.417-.418v-1.98l.14-.14 1.058-1.065.268-.267.101-.39 2.332-9.007.045-.174v-.185zM30.603 23.958a.597.597 0 01-.838 0l-.003-.002a.593.593 0 010-.828l.003-.003a.596.596 0 01.838 0 .591.591 0 010 .833zm4.677-3.031l-.002.002a.583.583 0 01-.822 0l-.002-.002a.605.605 0 010-.843.584.584 0 01.826 0 .604.604 0 010 .843zm-5.078 15.07V36a.584.584 0 01-.824 0l-.002-.002a.605.605 0 010-.844.584.584 0 01.826 0 .604.604 0 010 .844zM50.54 21.21a.584.584 0 01.832-.017v.002c.236.225.246.6.022.837l-.001-.002a.579.579 0 01-.83.013.588.588 0 01-.022-.835l-.001.002zm-5.766-1.701a.584.584 0 01.826 0 .604.604 0 010 .843v.003a.586.586 0 01-.824 0l-.002-.003a.604.604 0 010-.843zm9.918 8.633l-.002.001a.583.583 0 01-.823 0h-.002a.605.605 0 010-.844.584.584 0 01.826 0 .604.604 0 010 .843zm-1.218 12.154a.581.581 0 01-.822 0 .6.6 0 010-.837.58.58 0 01.822 0 .6.6 0 010 .837zm2.422 11.937a.584.584 0 01-.823 0 .6.6 0 010-.837.582.582 0 01.823 0 .6.6 0 010 .837zm1.133-7.445a.583.583 0 01-.822 0 .6.6 0 010-.837.581.581 0 01.822 0 .6.6 0 010 .837zM53.21 57.74l-.002.003a.585.585 0 01-.825 0l-.004-.003a.606.606 0 010-.845.586.586 0 01.831 0c.23.235.23.61 0 .845zm-1.462-21.442l.4-1.07-2.018-8.995-.308-.452h-.927l-.376.406v9.67l.437.442h2.792v-.001zm-7.787 21.618c0 .215.093.42.255.562l1.065 1.064a.71.71 0 00.126.1 1.62 1.62 0 00.717 1.725 1.6 1.6 0 001.855-.108c.533-.43.739-1.15.513-1.797a1.607 1.607 0 00-1.515-1.083c-.232 0-.461.05-.671.149l-.032-.033-.884-.885v-8.504a1.619 1.619 0 00.794-1.837 1.606 1.606 0 00-1.596-1.199 1.615 1.615 0 00-.627 3.076v3.683h-2.64v-9.242h3.313c.02 0 .041-.002.061-.006a.705.705 0 00.447-.206l1.916-1.927a1.598 1.598 0 001.552-.424c.46-.464.597-1.162.348-1.768a1.615 1.615 0 00-1.487-1.004c-.178 0-.354.03-.522.088l-1.606-1.614V32.48a1.63 1.63 0 00.43-2.605 1.606 1.606 0 00-2.279.002 1.629 1.629 0 00.43 2.603v4.417a.73.73 0 00.054.407l.003.006c.05.128.138.237.248.319l1.717 1.726c-.124.37-.113.773.034 1.135l-1.643 1.652h-3.015V39.66l-.439-.442H26.384l-.439.44v8.948l.419.42.557.563 4.608 1.538.51-.453-.699-.703-2.4-2.414-.139-.14V42.09h9.664v5.256h-2.49l-1.285-1.293-.023-.022a1.616 1.616 0 00-.43-1.506 1.603 1.603 0 00-1.555-.43 1.61 1.61 0 00-1.145 1.143 1.623 1.623 0 00.415 1.567c.473.48 1.194.613 1.807.335l1.207 1.214v3.582l-1.383 1.392a1.592 1.592 0 00-1.74.352 1.627 1.627 0 000 2.3c.46.46 1.153.597 1.752.346a1.617 1.617 0 00.937-1.912l.027-.026 1.497-1.506a.762.762 0 00.353-.65V48.79h2.056v13.723l-.14.14-1.584 1.594-.139.14h-2.85v-2.24l.877-.88a.696.696 0 00.103-.131 1.615 1.615 0 002.047-1.123 1.629 1.629 0 00-.747-1.83 1.608 1.608 0 00-1.95.255 1.629 1.629 0 00-.37 1.725.71.71 0 00-.098.084l-.576.58-2.693-2.709a.753.753 0 00-.113-.106l-.007-.005a.726.726 0 00-.546-.142H27.35l-1.428-3.108a1.614 1.614 0 10-2.38.103c.287.29.674.461 1.081.477l1.58 3.434a.73.73 0 00.397.458l.005.002c.123.057.258.08.392.063h2.505l2.828 2.845v2.248h-1.482l-.14-.14-1.243-1.251-.419-.42h-3.521l-.14-.14-3.275-3.295-.139-.14v-1.979l-.418-.418-1.261-1.267-.09-.09-.034-.13-2.138-8.262-.016-.056v-.504l2.48 1.145v.03c0 .428.17.837.47 1.14.603.611 1.576.64 2.214.067.638-.573.72-1.55.183-2.22a1.603 1.603 0 00-2.194-.3L18.014 44.7v-8.792l.138-.14 1.782-1.792h.001l.419-.419V32.51h2.212l.944 2.404a.69.69 0 00.054.108l-2.258 2.27a.724.724 0 00-.21.5v1.658a1.632 1.632 0 00-.42 2.6 1.606 1.606 0 002.278 0 1.629 1.629 0 00-.423-2.6V38.1l4.503-4.529a.596.596 0 00.06-.063l.003-.004.022-.03.006-.007.004-.007.006-.008.005-.007a.727.727 0 00.117-.396v-4.841l4.213 2.463c-.052.487.118.97.461 1.314.59.6 1.54.642 2.182.098a1.63 1.63 0 00.27-2.18 1.604 1.604 0 00-2.137-.445l-5.302-3.101a.714.714 0 00-.74-.042.722.722 0 00-.383.639v5.796l-1.167 1.174-.939-2.391h-.001a.735.735 0 00-.679-.465h-2.682v-1.01l.139-.139 2.054-2.065.418-.418v-3.704l.14-.142 5.292-5.322h2.307l.419-.422 1.747-1.756.14-.14h4.004l.177-.43-3.207-2.442h-2.158l-.418.42-1.746 1.758-.14.14h-2.31l-.416.42v.002l-6.268 6.304h-.002l-.418.419v3.703l-.139.14-2.052 2.065h-.002l-.417.418v3.498l-.14.14-1.775 1.786-.41.414V47.18l.042.165 2.333 9.007.1.386.269.27 1.06 1.066.138.14v1.976l.419.422 4.39 4.416.419.421h3.523l.139.14 1.236 1.244.41.413h8.143l3.529-3.534v-9.439h2.64v3.643zm2.605 1.67a.58.58 0 01.822 0 .6.6 0 010 .837.583.583 0 01-.822 0 .6.6 0 010-.837zm-2.343-12.333a.58.58 0 01.823 0 .6.6 0 010 .837.584.584 0 01-.823 0 .6.6 0 010-.837zm.823-15.813a.582.582 0 01-.823 0 .6.6 0 010-.837.58.58 0 01.823 0 .6.6 0 010 .837zm2.013 8.019a.58.58 0 01.823 0 .6.6 0 010 .837.581.581 0 01-.823 0 .6.6 0 010-.837zm-13.549 6.63l-.002.002a.588.588 0 01-.826 0l-.003-.003a.606.606 0 010-.846.586.586 0 01.829-.002l.002.002a.607.607 0 010 .846zm-.113 9.159a.6.6 0 01-.841 0l-.002-.002a.594.594 0 010-.832l.002-.002a.598.598 0 01.841 0 .595.595 0 010 .836zm1.397 3.924h.002a.6.6 0 01.842 0 .596.596 0 010 .835.6.6 0 01-.842 0l-.002-.002a.594.594 0 010-.832zm-9.692-5.028l-.004.001a.585.585 0 01-.825 0l-.003-.001a.606.606 0 010-.846l.003-.002a.585.585 0 01.825 0l.003.002a.607.607 0 010 .846zm-3.409-7.096a.585.585 0 01.829 0c.23.236.23.611 0 .846a.586.586 0 01-.828.003l-.001-.003a.606.606 0 010-.846zm.532-5.726a.58.58 0 01-.823 0 .6.6 0 010-.836.58.58 0 01.824 0 .6.6 0 010 .836h-.001zm10.434-10.9h.002a.585.585 0 01.829 0c.23.236.23.612 0 .847a.586.586 0 01-.829.002l-.002-.002a.606.606 0 010-.847z"/></g></g></svg>