<svg xmlns="http://www.w3.org/2000/svg" xmlns:xlink="http://www.w3.org/1999/xlink" width="60" height="60"><defs><path id="tat-telecom__a" d="M30 60c16.569 0 30-13.431 30-30C60 13.431 46.569 0 30 0 13.431 0 0 13.431 0 30c0 16.569 13.431 30 30 30z"/></defs><g fill="none" fill-rule="evenodd"><mask id="tat-telecom__b" fill="#fff"><use xlink:href="#tat-telecom__a"/></mask><use fill="#DE2528" xlink:href="#tat-telecom__a"/><g mask="url(#tat-telecom__b)"><path fill="#FFF" d="M32.347 23.63a2.917 2.917 0 01-2.973 2.912c-1.609-.026-2.887-1.366-2.862-2.998.023-1.554 1.366-2.853 2.935-2.84 1.613.013 2.918 1.33 2.9 2.927m-2.903 14.266a2.655 2.655 0 01-2.68-2.65 2.658 2.658 0 012.672-2.659 2.654 2.654 0 11.008 5.309m-.002-5.807a2.659 2.659 0 01-2.677-2.655c-.009-1.463 1.194-2.659 2.673-2.656a2.65 2.65 0 012.658 2.637 2.65 2.65 0 01-2.654 2.674m-.011 11.617a2.654 2.654 0 01-2.666-2.633c-.011-1.486 1.182-2.675 2.684-2.675 1.474 0 2.65 1.19 2.647 2.677-.002 1.454-1.193 2.629-2.665 2.63M21.16 23.617a2.459 2.459 0 012.445-2.447c1.343-.001 2.46 1.1 2.466 2.431.005 1.36-1.106 2.483-2.45 2.477a2.457 2.457 0 01-2.461-2.461m16.543.019c-.015 1.358-1.112 2.452-2.449 2.443-1.39-.008-2.473-1.123-2.454-2.526.017-1.31 1.147-2.397 2.48-2.384a2.457 2.457 0 012.423 2.467m-5.821-5.824a2.45 2.45 0 01-2.432 2.456 2.457 2.457 0 01-2.47-2.48c.004-1.325 1.1-2.416 2.436-2.426a2.447 2.447 0 012.466 2.45m3.373-2.25c1.25-.002 2.252 1 2.255 2.254a2.256 2.256 0 01-2.23 2.254c-1.264.005-2.299-1.015-2.292-2.258a2.26 2.26 0 012.267-2.25M25.87 17.82a2.254 2.254 0 01-2.234 2.25 2.255 2.255 0 01-2.282-2.262 2.249 2.249 0 012.264-2.246 2.243 2.243 0 012.252 2.258m5.776 29.042a2.212 2.212 0 01-2.213 2.22c-1.214-.004-2.211-.989-2.217-2.19a2.215 2.215 0 114.431-.03M11.974 21.448a2.18 2.18 0 012.184 2.176c.009 1.177-.975 2.171-2.156 2.177a2.165 2.165 0 01-2.207-2.178 2.165 2.165 0 012.179-2.175m-.017-1.459a2.168 2.168 0 01-2.163-2.19c.004-1.216.992-2.174 2.225-2.162 1.18.012 2.15 1.008 2.139 2.193a2.179 2.179 0 01-2.201 2.159m-7.98 3.633a2.157 2.157 0 012.178-2.173 2.179 2.179 0 012.184 2.177A2.18 2.18 0 016.18 25.8c-1.238.005-2.2-.946-2.204-2.177m37.087-3.634a2.175 2.175 0 01-2.173-2.186 2.179 2.179 0 012.225-2.166c1.18.012 2.147.999 2.145 2.188a2.18 2.18 0 01-2.197 2.164m11.67 1.46c1.203.01 2.183 1.002 2.167 2.194-.018 1.219-1.001 2.168-2.236 2.156-1.187-.012-2.135-.99-2.125-2.194a2.156 2.156 0 012.194-2.156M15.617 17.79a2.164 2.164 0 012.2-2.153 2.184 2.184 0 012.162 2.2c-.01 1.208-1.004 2.163-2.24 2.15-1.183-.012-2.136-.998-2.122-2.196m7.988 26.898a2.176 2.176 0 012.194 2.195c-.005 1.18-.99 2.155-2.177 2.154a2.175 2.175 0 11-.017-4.35m11.632 4.35a2.169 2.169 0 01-2.163-2.191c.014-1.229.984-2.17 2.225-2.159a2.18 2.18 0 012.138 2.19 2.178 2.178 0 01-2.2 2.16m-11.65-11.62a2.175 2.175 0 01.051-4.348 2.177 2.177 0 012.159 2.17 2.176 2.176 0 01-2.21 2.178m-5.802-11.62a2.164 2.164 0 01-2.17-2.153 2.169 2.169 0 012.158-2.197c1.216-.001 2.197.958 2.206 2.155a2.177 2.177 0 01-2.194 2.195m15.289 15.235c.008-1.22.983-2.164 2.227-2.155 1.177.009 2.164 1 2.13 2.195-.039 1.39-1.028 2.168-2.182 2.179-1.072.01-2.15-.76-2.175-2.219M46.9 19.988a2.166 2.166 0 01-2.187-2.166 2.172 2.172 0 012.2-2.185 2.192 2.192 0 012.169 2.168 2.186 2.186 0 01-2.181 2.183M33.075 35.244c0-1.224.967-2.177 2.206-2.175 1.183.002 2.156.983 2.156 2.174 0 1.191-.972 2.172-2.155 2.175-1.239.003-2.207-.951-2.207-2.174m-9.454 7.983a2.176 2.176 0 11-.017-4.349 2.18 2.18 0 012.194 2.166 2.178 2.178 0 01-2.177 2.183m15.274-19.652c.023-1.227 1.022-2.157 2.285-2.127 1.146.026 2.098 1.044 2.08 2.223-.018 1.19-1.025 2.148-2.236 2.128a2.167 2.167 0 01-2.13-2.224m-15.266 3.686a2.174 2.174 0 012.17 2.188 2.182 2.182 0 01-2.2 2.16 2.175 2.175 0 01-2.168-2.191 2.169 2.169 0 012.198-2.157m23.276-5.813c1.208.008 2.186.991 2.176 2.187-.01 1.216-.991 2.17-2.228 2.164-1.165-.004-2.146-.993-2.142-2.157a2.178 2.178 0 012.194-2.194m-11.65 5.813c1.2 0 2.174.957 2.183 2.143.01 1.208-.962 2.202-2.155 2.205-1.24.003-2.211-.955-2.208-2.175a2.16 2.16 0 012.18-2.173M10.636 41.044a1.346 1.346 0 011.352-1.33c.72.004 1.313.603 1.32 1.332a1.342 1.342 0 01-1.336 1.346 1.343 1.343 0 01-1.336-1.348m37.588-11.612c.002.73-.581 1.33-1.307 1.341a1.342 1.342 0 01-1.359-1.322 1.338 1.338 0 011.324-1.358 1.335 1.335 0 011.342 1.339m-37.588.013a1.343 1.343 0 011.332-1.35 1.34 1.34 0 011.34 1.342 1.344 1.344 0 01-1.316 1.335 1.345 1.345 0 01-1.356-1.327m31.768 17.419a1.332 1.332 0 01-1.313 1.336 1.338 1.338 0 11-.024-2.675 1.33 1.33 0 011.337 1.34m5.82-5.795a1.336 1.336 0 01-1.327 1.323 1.34 1.34 0 11.005-2.68c.734 0 1.33.613 1.322 1.356m-34.916 5.813a1.335 1.335 0 01-1.361 1.316 1.338 1.338 0 01-1.312-1.338c.003-.733.622-1.347 1.348-1.336.738.01 1.334.62 1.325 1.358m3.149-17.427a1.345 1.345 0 011.322-1.361 1.345 1.345 0 011.35 1.332c.003.737-.608 1.353-1.337 1.347a1.347 1.347 0 01-1.335-1.318m0 11.581a1.348 1.348 0 011.36-1.323 1.35 1.35 0 011.313 1.343c0 .734-.617 1.346-1.348 1.337a1.345 1.345 0 01-1.325-1.357m23.281.012c.003-.74.615-1.347 1.345-1.334a1.34 1.34 0 11-.038 2.679 1.34 1.34 0 01-1.307-1.345m11.639-11.611a1.343 1.343 0 011.341-1.343 1.343 1.343 0 011.33 1.353 1.348 1.348 0 01-1.356 1.328c-.715-.004-1.317-.617-1.315-1.338m-11.639-.012a1.34 1.34 0 011.32-1.331 1.34 1.34 0 11.012 2.679 1.34 1.34 0 01-1.332-1.348m-34.924.006c0-.734.612-1.34 1.349-1.337.722.004 1.318.6 1.328 1.328a1.351 1.351 0 01-1.362 1.351c-.714-.006-1.314-.62-1.315-1.342m37.591 5.827a1.334 1.334 0 01-1.327 1.325 1.34 1.34 0 11.001-2.68 1.33 1.33 0 011.326 1.355m5.819 11.606a1.33 1.33 0 01-1.341 1.336 1.34 1.34 0 01.003-2.676 1.336 1.336 0 011.338 1.34M13.306 35.239a1.337 1.337 0 01-1.338 1.342 1.34 1.34 0 01-1.332-1.349 1.347 1.347 0 011.323-1.33 1.342 1.342 0 011.347 1.337m5.822 11.65a1.342 1.342 0 01-1.34 1.312 1.342 1.342 0 01-1.332-1.35c.006-.735.627-1.344 1.355-1.328a1.341 1.341 0 011.317 1.366m-2.672-11.657a1.347 1.347 0 011.354-1.328 1.339 1.339 0 011.316 1.335c.003.74-.606 1.352-1.336 1.344a1.348 1.348 0 01-1.334-1.35m29.101-.002a1.345 1.345 0 011.355-1.327 1.34 1.34 0 01-.025 2.678 1.344 1.344 0 01-1.33-1.351m-38.07.024a1.342 1.342 0 01-1.354 1.327 1.347 1.347 0 01-1.318-1.365 1.349 1.349 0 011.342-1.313 1.342 1.342 0 011.33 1.35m43.891-.003a1.338 1.338 0 011.333-1.346 1.33 1.33 0 011.332 1.345 1.33 1.33 0 01-1.316 1.331 1.336 1.336 0 01-1.349-1.33M13.296 12.028a1.327 1.327 0 01-1.34 1.306 1.343 1.343 0 01-1.315-1.337 1.332 1.332 0 011.361-1.315c.74.02 1.306.61 1.294 1.346m17.461-.012a1.327 1.327 0 01-1.33 1.317 1.337 1.337 0 01-1.325-1.354 1.333 1.333 0 011.349-1.3 1.322 1.322 0 011.306 1.337m5.819.01c-.011.73-.62 1.325-1.339 1.307-.734-.018-1.322-.615-1.316-1.335.007-.74.62-1.336 1.36-1.32a1.322 1.322 0 011.295 1.348m5.819-.023c0 .733-.594 1.333-1.314 1.332a1.342 1.342 0 01-1.339-1.343 1.336 1.336 0 011.336-1.315 1.324 1.324 0 011.317 1.326m5.82-.001a1.326 1.326 0 01-1.344 1.333c-.718-.004-1.312-.614-1.308-1.343a1.33 1.33 0 011.334-1.312c.74.005 1.316.583 1.318 1.322m-29.099.03a1.326 1.326 0 01-1.342 1.3 1.342 1.342 0 01-1.312-1.339 1.337 1.337 0 011.335-1.314 1.318 1.318 0 011.32 1.353M30.758 52.68A1.322 1.322 0 0129.432 54c-.725 0-1.329-.6-1.33-1.321 0-.736.616-1.348 1.347-1.336a1.33 1.33 0 011.309 1.337m5.818-.011a1.32 1.32 0 01-1.313 1.33 1.334 1.334 0 01-1.34-1.309 1.34 1.34 0 011.333-1.348c.725 0 1.319.597 1.32 1.327M1.652 46.871A1.312 1.312 0 01.33 48.188 1.338 1.338 0 01-1 46.867a1.34 1.34 0 011.32-1.332 1.314 1.314 0 011.332 1.336m52.385 5.794a1.322 1.322 0 01-1.31 1.334c-.725.01-1.34-.588-1.345-1.305a1.339 1.339 0 011.33-1.351 1.327 1.327 0 011.325 1.322M1.651 17.85a1.32 1.32 0 01-1.348 1.294c-.715-.01-1.32-.636-1.302-1.35A1.334 1.334 0 01.346 16.49c.75.009 1.322.605 1.305 1.36m23.285-5.843a1.32 1.32 0 01-1.319 1.323 1.335 1.335 0 01-1.333-1.313 1.332 1.332 0 011.339-1.338 1.32 1.32 0 011.313 1.328m-.001 40.654a1.31 1.31 0 01-1.304 1.335c-.73.01-1.333-.57-1.347-1.298a1.338 1.338 0 011.325-1.354 1.318 1.318 0 011.326 1.317m33.589 4.873a.954.954 0 01.966.932.95.95 0 01-.933.964.948.948 0 11-.033-1.896m.016-50.392a.95.95 0 01-.965-.961.954.954 0 01.965-.935.953.953 0 01.95.948.952.952 0 01-.95.948M29.435 5.247c.53.002.954.42.955.94a.953.953 0 01-.973.957.948.948 0 01-.939-.959.943.943 0 01.957-.938m5.814 1.897a.945.945 0 01-.95-.947.948.948 0 01.945-.952.954.954 0 01.966.961.951.951 0 01-.961.938m-11.64-.002a.932.932 0 01-.945-.945.937.937 0 01.97-.951.953.953 0 01.935.96.947.947 0 01-.96.936"/></g></g></svg>