<svg xmlns="http://www.w3.org/2000/svg" xmlns:xlink="http://www.w3.org/1999/xlink" width="60" height="60"><defs><path id="nss__a" d="M30 60c16.569 0 30-13.431 30-30C60 13.431 46.569 0 30 0 13.431 0 0 13.431 0 30c0 16.569 13.431 30 30 30z"/><path id="nss__b" d="M10.71 23.33H0V.086h10.71z"/><path id="nss__d" d="M0 23.763h23.436V.519H0z"/></defs><g fill="none" fill-rule="evenodd"><use fill="#BD0A4B" xlink:href="#nss__a"/><g transform="translate(18 17)"><g transform="translate(0 .433)"><mask id="nss__c" fill="#fff"><use xlink:href="#nss__b"/></mask><path fill="#FFF" d="M10.71.181C10.099.145 3.943.151 1.18.086.194.063-.005.406 0 1.318c.035 6.978.02 13.956.022 20.934 0 .345.04.69.064 1.078h5.72v-1.255c0-4.938.064-9.877-.037-14.813-.033-1.598.355-2.778 1.607-3.803 1.14-.932 2.115-2.063 3.335-3.278" mask="url(#nss__c)"/></g><mask id="nss__e" fill="#fff"><use xlink:href="#nss__d"/></mask><path fill="#FFF" d="M19.561 21.844h1.902v-1.837H19.56v1.837zM22.483.534c-2.69.024-5.38-.012-8.068.03-.415.007-.924.2-1.22.484a204.824 204.824 0 00-4.951 4.921c-.222.227-.4.608-.402.92-.024 5.575-.018 11.15-.018 16.864h15.49c.04-.234.105-.44.105-.646.005-7.221-.003-14.443.017-21.664.002-.722-.28-.916-.953-.91z" mask="url(#nss__e)"/></g></g></svg>