<svg xmlns="http://www.w3.org/2000/svg" width="80" height="80"><g fill="none" fill-rule="evenodd"><circle cx="40" cy="40" r="40" fill="#000"/><path fill="#FFF" fill-rule="nonzero" d="M53.203 27.964h.325v-1.57h.584v-.277h-1.491v.277h.582v1.57zm1.426-1.427h.006l.512 1.427h.264l.512-1.427h.008v1.427h.304v-1.847h-.447l-.495 1.445h-.008l-.508-1.445h-.455v1.847h.307v-1.427zm-9.329-.422H25.094l-3.066 4.927H42.21l3.09-4.927zm4.13.047l-12.353 19.67H23.375l3.161-4.931h8.213l3.137-4.93H18.9l-3.137 4.93h4.498l-6.24 9.845h26.043l9.619-15.17 3.507 5.325h-3.162l-2.995 4.931h9.365l3.252 4.914h5.974L49.43 26.162z"/></g></svg>