<svg xmlns="http://www.w3.org/2000/svg" xmlns:xlink="http://www.w3.org/1999/xlink" width="80" height="80"><defs><circle id="ozon__a" cx="40" cy="40" r="40"/></defs><g fill="none" fill-rule="evenodd"><use fill="#F3F3F3" xlink:href="#ozon__a"/><g fill-rule="nonzero"><path fill="#0083CA" d="M48.238 18H31.852c-6.827 0-12.289 5.462-12.289 12.016v7.51c0 6.554 5.598 11.88 12.29 11.88h16.385c6.827 0 12.289-5.326 12.289-11.88v-7.51c0-6.554-5.599-12.016-12.29-12.016zm4.369 18.57c0 3.277-2.73 6.008-6.145 6.008H33.627c-3.413 0-6.144-2.73-6.144-6.008v-5.598c0-3.55 2.321-6.145 6.144-6.145h12.835c3.824 0 6.145 2.595 6.145 6.145v5.598zM18.668 54.774c-1.968 0-3.579 1.52-3.579 3.579 0 2.058 1.611 3.579 3.58 3.579 1.968 0 3.578-1.521 3.578-3.58 0-2.057-1.52-3.578-3.579-3.578z"/><path fill="#AA4D9D" d="M61.616 54.774c-1.969 0-3.58 1.52-3.58 3.579 0 2.058 1.611 3.579 3.58 3.579 1.968 0 3.579-1.521 3.579-3.58 0-2.057-1.61-3.578-3.58-3.578z"/><path fill="#EF473D" d="M50.879 54.774c-1.968 0-3.579 1.52-3.579 3.579 0 2.058 1.61 3.579 3.579 3.579 1.968 0 3.579-1.521 3.579-3.58 0-2.057-1.61-3.578-3.58-3.578z"/><path fill="#F9A01B" d="M40.142 54.774c-1.968 0-3.579 1.52-3.579 3.579 0 2.058 1.61 3.579 3.58 3.579 1.968 0 3.578-1.521 3.578-3.58.09-2.057-1.521-3.578-3.579-3.578z"/><path fill="#85BF41" d="M29.405 54.774c-1.968 0-3.579 1.52-3.579 3.579 0 2.058 1.61 3.579 3.58 3.579 1.968 0 3.578-1.521 3.578-3.58.09-2.057-1.52-3.578-3.579-3.578z"/></g></g></svg>