<svg xmlns="http://www.w3.org/2000/svg" xmlns:xlink="http://www.w3.org/1999/xlink" width="60" height="60"><defs><path id="nevalink__a" d="M29.703 59.405c16.404 0 29.702-13.298 29.702-29.702C59.405 13.298 46.107 0 29.703 0 13.298 0 0 13.298 0 29.703c0 16.404 13.298 29.702 29.703 29.702z"/><path id="nevalink__c" d="M39.885 30.861V.067H0V30.86z"/><path id="nevalink__e" d="M34.989.012H.009v34.975h34.98V.012z"/></defs><g fill="none" fill-rule="evenodd"><mask id="nevalink__b" fill="#fff"><use xlink:href="#nevalink__a"/></mask><use fill="#E85732" xlink:href="#nevalink__a"/><g mask="url(#nevalink__b)"><g transform="translate(9 14.284)"><mask id="nevalink__d" fill="#fff"><use xlink:href="#nevalink__c"/></mask><path fill="#000" d="M.009 22.33v.865l15.1-11.496c0 2.411-.015 4.64.012 6.867.006.462-.164.73-.528.996C9.877 23.025 5.174 26.505.457 29.967c-.333.245-.458.494-.457.894M39.885 8.696v-.802l-14.94 11.002c0-2.262.016-4.355-.012-6.447-.006-.483.164-.769.547-1.059C30.123 7.872 34.755 4.34 39.378.795c.225-.172.468-.473.487-.728" mask="url(#nevalink__d)"/></g><g transform="translate(11.768 12.123)"><mask id="nevalink__f" fill="#fff"><use xlink:href="#nevalink__e"/></mask><path fill="#FFF" d="M19.885 26l15.02-11.546c.033.265.072.429.073.592.006 2.05.026 4.098-.011 6.146-.006.298-.216.687-.46.87-5.481 4.117-11.002 8.183-16.456 12.332-1.05.8-2.11.518-3.3.593V9.042L.08 20.407c-.023-.3-.046-.469-.047-.638-.007-2.003 0-4.007-.023-6.01-.005-.444.126-.742.5-1.022 5.494-4.1 10.972-8.22 16.47-12.316.3-.223.734-.334 1.12-.376.564-.063 1.141-.016 1.786-.016V26z" mask="url(#nevalink__f)"/></g></g></g></svg>