<svg xmlns="http://www.w3.org/2000/svg" width="41" height="40" fill="none"><circle cx="20.5" cy="20" r="20" fill="#C21722"/><path fill="#fff" fill-rule="evenodd" d="M7.5 20c0-7.18 5.82-13 13-13s13 5.82 13 13c0 3.265-1.206 6.246-3.194 8.53l-2.074-3.388a9.286 9.286 0 10-14.237 1.482v-8.468h3.717V28.86l.002.001-.002.003-1.979 3.231a12.974 12.974 0 01-1.738-.84C10.113 29.005 7.5 24.809 7.5 20zm16.23-1.844h4.356l-4.269 6.973 4.268 6.97H23.73l-2.09-3.413-2.178-3.557 2.178-3.556 2.09-3.417z" clip-rule="evenodd"/></svg>