<svg xmlns="http://www.w3.org/2000/svg" width="41" height="40" fill="none"><path fill="#00B6FF" d="M40.5 20.004C40.5 31.054 31.552 40 20.506 40 9.46 40 .5 31.053.5 20.004S9.459 0 20.506 0C31.552 0 40.5 8.955 40.5 20.004z"/><path fill="#fff" fill-rule="evenodd" d="M20.503 13a2.474 2.474 0 012.469 2.472 2.47 2.47 0 01-2.472 2.472 2.47 2.47 0 01-2.472-2.472A2.474 2.474 0 0120.498 13h.005zm-8.77.102h5.657c0 1.585-1.225 2.427-2.415 2.427l-1.093-.002c-.73-.002-1.458-.004-2.188.002a1.782 1.782 0 00-1.8 1.81c-.003 1.998-.003 3.996 0 5.995 0 1.015.773 1.815 1.791 1.824 1.412.012 2.82.01 4.231 0 1.016-.006 1.777-.79 1.786-1.806.003-.522.006-1.69 0-1.795h-4.65a1.527 1.527 0 00-.005-.096c-.002-.018-.003-.027-.001-.045.09-1.297 1.12-2.277 2.415-2.283a549.1 549.1 0 014.673.012v.142c.002.58.006 2.767 0 3.897 0 2.978-2.172 4.398-4.107 4.398h-4.365c-1.813 0-4.162-1.372-4.162-4.131v-6.2c0-2.396 1.873-4.149 4.233-4.149zm17.534 0h-5.654c0 1.585 1.222 2.427 2.412 2.427l1.093-.002a199.31 199.31 0 012.187.002c1.022.006 1.801.794 1.801 1.81.003 1.998.003 3.996 0 5.995 0 1.015-.773 1.815-1.792 1.824-1.408.012-2.819.01-4.23 0-1.016-.006-1.777-.79-1.786-1.806-.003-.522-.006-1.69 0-1.795h4.65l.005-.096c.002-.018.003-.027.001-.045-.09-1.297-1.12-2.277-2.415-2.283a549.1 549.1 0 00-4.674.012v.142c0 .58-.005 2.767 0 3.897 0 2.978 2.173 4.398 4.108 4.398h4.365c1.816 0 4.162-1.372 4.162-4.131v-6.2c0-2.396-1.873-4.149-4.233-4.149z" clip-rule="evenodd"/></svg>