<svg xmlns="http://www.w3.org/2000/svg" width="41" height="40" fill="none"><g clip-path="url(#yandex-afisha__clip0)"><path fill="#FEF339" d="M20.5 40c11.046 0 20-8.954 20-20s-8.954-20-20-20S.5 8.954.5 20s8.954 20 20 20z"/><mask id="yandex-afisha__a" width="41" height="40" x="0" y="0" maskUnits="userSpaceOnUse"><path fill="#FEF339" d="M20.5 40c11.046 0 20-8.954 20-20s-8.954-20-20-20S.5 8.954.5 20s8.954 20 20 20z"/></mask><g mask="url(#yandex-afisha__a)"><path fill="#000" fill-rule="evenodd" d="M1.47 35.15c.153.3.324.59.51.87l6.96-2.58-2.05 6.14c1.45.35 3.33.41 6.11.42l2.81-8.75 6.25-2.19L20.81 40h5.94L28 27.2l12.5-4.38v-6.25l-11.88 4.05L31.12.06C29.81 0 28.24 0 26.28 0h-6.72l-8.44 26.56L.55 30.3c.08 2.18.3 3.63.92 4.85zM18 24.38l4.69-1.57.01-.01 1.86-18.42-6.56 20z" clip-rule="evenodd"/></g></g><defs><clipPath id="yandex-afisha__clip0"><path fill="#fff" d="M0 0h40v40H0z" transform="translate(.5)"/></clipPath></defs></svg>