<svg xmlns="http://www.w3.org/2000/svg" width="41" height="40" fill="none"><circle cx="20.5" cy="20" r="20" fill="#4E4C52"/><path fill="#fff" fill-rule="evenodd" d="M8.192 17.635a79.333 79.333 0 01-.084 1.662c-.03.499-.072.949-.125 1.349a7.6 7.6 0 01-.209 1.061 3.204 3.204 0 01-.334.797 1.493 1.493 0 01-.631.596 1.418 1.418 0 01-.348.12 1.682 1.682 0 01-.678 0 1.371 1.371 0 01-.283-.101l.14-1.133a.697.697 0 00.222.038.609.609 0 00.292-.077.63.63 0 00.247-.26c.092-.14.173-.346.24-.619.069-.272.13-.619.182-1.042.052-.422.094-.926.125-1.512.03-.586.052-1.27.065-2.05h3.834v6.722H9.575v-5.551H8.192zm6.466 2.68h-.028l-.4.7-1.652 2.171h-.76v-4.802h1.206v2.286l-.056.653h.037l.381-.682 1.67-2.257h.762v4.802h-1.207v-2.19l.047-.681zm4.436 2.871v-3.698h1.29v-1.104h-3.861v1.104h1.327v3.698h1.244z" clip-rule="evenodd"/><path fill="#FF4C00" fill-rule="evenodd" d="M23.07 17.5a4.11 4.11 0 00-.622.048v2.18a2.122 2.122 0 00.432.038h.115c.168 0 .333-.015.497-.047.164-.032.311-.091.441-.178a.918.918 0 00.311-.36c.077-.154.116-.355.116-.605 0-.211-.037-.386-.111-.524a.933.933 0 00-.293-.33 1.115 1.115 0 00-.413-.174 2.319 2.319 0 00-.473-.048zm-1.035-1.09c.312-.029.623-.043.933-.043.322 0 .645.027.97.082.325.054.617.163.877.326s.472.39.636.682c.163.291.246.67.246 1.138 0 .423-.071.78-.214 1.071-.142.291-.33.53-.566.715-.235.186-.503.32-.803.404-.3.083-.611.125-.932.125h-.15a5.138 5.138 0 01-.431-.02 1.516 1.516 0 01-.153-.018v2.314h-1.272V16.53c.26-.05.547-.091.859-.12zm6.082 2.819c-.377.01-.553.11-.71.3-.157.191-.247.452-.278.778l1.733.017c.025-.346-.005-.613-.13-.798a.695.695 0 00-.614-.297zm.963 3.933a3.204 3.204 0 01-1.016.159c-.749 0-1.296-.226-1.643-.678-.346-.451-.52-1.07-.52-1.858 0-.845.195-1.48.585-1.902.39-.422.938-.634 1.643-.634.235 0 .464.032.687.096.223.064.42.17.594.317.174.148.313.346.418.596.105.25.158.56.158.932 0 .134-.008.278-.024.432a5.788 5.788 0 01-.07.48h-2.797c.019.403.141.707.323.912.182.205.477.308.883.308.253 0 .476-.051.68-.12a4.74 4.74 0 00.494-.204l.362.775c-.186.154-.438.283-.757.389zm4.168-3.928c.291 0 .66.078.66.078l.178-.906a4.24 4.24 0 00-1.047-.132c-1.676 0-2.404 1.168-2.404 2.468 0 1.29.62 2.562 2.303 2.562.538 0 .984-.113 1.211-.188l-.166-.868s-.544.078-.826.078c-.865 0-1.275-.502-1.275-1.518 0-1.083.538-1.574 1.366-1.574zm2.567.519a.697.697 0 01-.685-.709c0-.391.306-.708.685-.708.378 0 .685.317.685.708a.697.697 0 01-.685.709zm0 3.504a.697.697 0 00.685-.708.697.697 0 00-.685-.71.697.697 0 00-.685.71c0 .39.306.708.685.708z" clip-rule="evenodd"/></svg>