<svg xmlns="http://www.w3.org/2000/svg" viewBox="0 0 40 40"><rect width="1429" height="1687.5" x="-300.43" y="-247.71" fill="none" stroke="#ffb3ce" stroke-miterlimit="10" stroke-width="2.82" rx="54.76"/><g data-name="лого игры"><rect width="40" height="40" x=".2" y=".23" fill="#597787" rx="20"/><path fill="#fff" d="M25.07 14.22a6 6 0 00.57-.42c.06-.06 0-.22 0-.33a11.41 11.41 0 011.65-.18c.84 0 1.67.17 2.51.27.11 0 .21.1.31.1.62 0 1.24.05 1.86 0a1.53 1.53 0 011.38.69 3 3 0 01.78 2.15 1.28 1.28 0 00.2.69 3.45 3.45 0 01-.64 4 13.87 13.87 0 01-1.26 1.06 2.1 2.1 0 01-.88.3 7.87 7.87 0 00-1.87.46.94.94 0 00-.68.99 2.14 2.14 0 01-.09.49c-.48-.81-.48-.81-.4-2a1.84 1.84 0 011.78-.66h1.1a1.08 1.08 0 00-.12-1.26 7.3 7.3 0 00-.52-.72.49.49 0 00-.25-.2q-.85-.29-1.71-.54a.2.2 0 00-.13 0c-1 .22-2.08.26-2.85 1.1-.4.42-.43.46-.11 1 .09.15.18.3.3.48A7.17 7.17 0 0122.52 24a1.31 1.31 0 00-.57.42 2.51 2.51 0 01-1.85.77c-.53.06-.57.07-.58.6v1.19l-.66-.98c-.38.09-.74.11-.85.59a5.67 5.67 0 01-.1-.57c0-.6-.35-.86-.93-.76a1.43 1.43 0 01-.41 0l-2.1-.45.51-.12a14.85 14.85 0 01-2.25-.69c-.69-.28-1.36-.67-2.06-1l-.09.11.72.75c-.2 0-.39 0-.46-.06-.28-.32-.74-.34-1-.67s-.83-.48-1-.84a5 5 0 01-.57-1c0-.05-.22-1.1-.22-1.18a5 5 0 01.94-3 5.15 5.15 0 011.54-1.44 5.57 5.57 0 011.47-.8v-.14a4.58 4.58 0 00-1 .18 9.24 9.24 0 00-1 .39 5.91 5.91 0 00-.86.54 11.61 11.61 0 00-1.51 1.28 7.14 7.14 0 00-.72 1.34c-.08.16-.19.31-.35.56a2.71 2.71 0 01.6-2c.19-.22.31-.49.48-.71s.4-.43.61-.65L8 15.47a8.91 8.91 0 011-.84 2 2 0 011.55-.45c.31.06.67-.17 1-.27l1.25-.33.09-.26.11.32h2v-.06l-1.77-.23c.62-.47 3.45 0 4.9.88a7.4 7.4 0 00.09-1.48 12.16 12.16 0 01-.08-1.6.44.44 0 01.42-.45.6.6 0 01.66.43s-.07.1-.17.22L19 11c-.4-.19-.56 0-.67.43l.93.11v1a6.38 6.38 0 01-.1.73 1.83 1.83 0 00.83 2 1.56 1.56 0 001.06.29c.26 0 .26 0 .38.29l-.93.23c.39 1.21-.38 1.94-.92 2.76.21.3.42.31.66.05l1-1a.76.76 0 01.11-.9A7.79 7.79 0 0123 15a2.08 2.08 0 011-.48c.21 0 .26-.11.33-.34l.78.07a3.82 3.82 0 01-.82.53A3.79 3.79 0 0022 17.45s0 .07.05.12c.31.11.42-.08.55-.32a3.39 3.39 0 012-1.59l-.2.28a1.42 1.42 0 001 0 3.49 3.49 0 012.19 0l.56.15a4.31 4.31 0 00.61.19c.52.07 1.05.15 1.57.17a1.07 1.07 0 00.61-.23.46.46 0 00.07-.38c-.31-.17-.36-.68-.85-.65-.14 0-.29-.18-.45-.27s-.59-.45-.88-.44a5.7 5.7 0 00-2.59.19.79.79 0 01-.93-.11l.29-.37zm-5.88 10.43c.33 0 .73.17 1 .05a7.09 7.09 0 002.09-1.45l-.45-.18c.32-.25.6-.48.89-.69s.57-.4.86-.59l-.08-.13-.27.11c-.38.18-.74.4-1.13.54-.74.28-1.5.54-2.26.77a2.31 2.31 0 01-1.51-.08 15.75 15.75 0 012.85-.67l.05-.07-.38-.26.49-.64c-.51-.32-.89-.5-1.44-.2a4.89 4.89 0 01-1.54.36.86.86 0 01-.53 0c-.56-.37-1.21-.2-1.8-.35h-.11l.06.38-1.56-.1 1.81 1.05c-1.86.5-3.23.16-4.23-1.38v-.11l.4.06c-.23-.31-.39-.54-.56-.76a3.05 3.05 0 01-.76-2v-1a.45.45 0 00.27-.61 2.89 2.89 0 00-.9 2.18c0 .11.09.2.11.31.07.3.13.6.21 1-.31-.31-.57-.51-.51-.9a.57.57 0 00-.12.39 3.28 3.28 0 00.56 1.4c.12.13.25.44.19.52-.23.29 0 .42.13.59a5 5 0 001.65 1.36 1.75 1.75 0 001.51.37c.17.42.5.33.85.3a7.07 7.07 0 011.72 0 2.49 2.49 0 001.56-.22 1.52 1.52 0 011.45 0zM16 16.11c-.19-.17-.33-.4-.44-.38a2.88 2.88 0 00-1.19.33 5.33 5.33 0 00-.86 1c-.28.33-.25.8-.5 1.15a.78.78 0 00.05.71 2.57 2.57 0 002.32 1.39.77.77 0 01.34 0c.7.25 1.33-.08 2.07-.21a7.17 7.17 0 00-.19-1.2 10.2 10.2 0 00-.5-1 .48.48 0 010-.44c.29-.26.17-.59.2-.89s-.12-.5-.47-.49-.53.03-.83.03zM25.93 18a1.42 1.42 0 00.91-.13 1.82 1.82 0 011.57.11l-.59.11a26.77 26.77 0 014 1.39c.15-.52-.23-.85-.38-1.25s-.75-.53-.91-1c-.48.17-.89-.53-1.49-.13l.47.2c-.39.18-.4.2-.66.09a3.2 3.2 0 00-1.59-.17 6.21 6.21 0 00-1.07.32zm-7.51-1l-.41.17a.41.41 0 00-.25.49c0 .25.19.32.43.34a1.07 1.07 0 01.34.14l-.2.38a2.61 2.61 0 00.4 0 .65.65 0 00.22-.16l-.24-.3c.47-.18.87-.67.81-.95-.19-.76-.79-1.1-1.72-.95v.49a8.9 8.9 0 01.9 0c.25 0 .3.25.26.47s-.1.16-.18.27zm-.16 2.88c.75-.19.82-.23 1.11-.72-.24-.48-.56-.09-.78 0s-.59.28-.33.74zm-.67.82a1 1 0 001.41-.19c-.54-.26-.87.33-1.41.21zM34.17 14a3 3 0 011.55 1 4 4 0 011 2.27c0 .23-.13.5-.2.75h-1.21a3.34 3.34 0 00.13-1A3.81 3.81 0 0035 16c.06-.16.39-.25.21-.51zM5.84 19.46c.15.31.34.46.33.86a4 4 0 00.52 1.45c.06.16.16.3.31.6-.24-.08-.4-.08-.46-.16a6.25 6.25 0 01-.46-.79 2.15 2.15 0 01-.24-1.96zm12.47 8.06l.24.74.48-.08c.2.56-.14 1-.15 1.58a2.66 2.66 0 01-.57-2.24z"/></g></svg>