<svg xmlns="http://www.w3.org/2000/svg" xmlns:xlink="http://www.w3.org/1999/xlink" width="60" height="60"><defs><path id="smarts__a" d="M30 60c16.569 0 30-13.431 30-30C60 13.431 46.569 0 30 0 13.431 0 0 13.431 0 30c0 16.569 13.431 30 30 30z"/><path id="smarts__b" d="M0 30.56v2.48h33.428V.21H0v30.35h26.11V2.566H0V30.56z"/></defs><g fill="none" fill-rule="evenodd"><use fill="#F58527" xlink:href="#smarts__a"/><g transform="translate(13 12.466)"><mask id="smarts__c" fill="#fff"><use xlink:href="#smarts__b"/></mask><path fill="#FFF" d="M16.688 20.539c2.309-.004 4.104-1.8 4.049-4.053-.052-2.153-1.842-3.885-4.03-3.898-2.251-.013-4.095 1.85-4.041 4.082.052 2.185 1.807 3.872 4.022 3.869m-8.7-17.972c-.278.173-.631.368-.956.6-1.487 1.064-2.727 2.37-3.875 3.78-.792.969-.877 1.612.426 2.271 2.039 1.031 4.01 2.199 5.96 3.39.924.564 1.376.549 2.32-.26 1.484-1.27 1.373-2.194.391-3.613-1.137-1.646-2.039-3.449-3.067-5.169-.257-.43-.409-1.026-1.2-1m5.264 19.978c-.041-.93-2.518-2.643-3.208-2.258-2.286 1.276-4.54 2.607-6.828 3.879-.77.427-.87.846-.36 1.571 1.248 1.768 2.769 3.24 4.53 4.503.868.622 1.275.276 1.71-.49 1.22-2.143 2.484-4.263 3.727-6.394.167-.285.31-.585.43-.81M0 17.11c.037.304.184 1.16.235 2.02.08 1.367.566 1.87 2.046 1.394 2.177-.699 4.414-1.22 6.64-1.76.99-.242 1.193-.647 1.3-1.74.196-2.014-.671-2.627-2.406-2.903-1.192-.19-2.35-.59-3.525-.897C.045 12.113.005 12.144 0 17.111m16.82 8.682c5.141-.029 9.378-4.296 9.288-9.352-.094-5.26-4.617-9.393-9.972-9.065-.704.043-1.82-.26-1.673 1.085.115 1.048.397 1.95 1.85 1.725.642-.1 1.353 0 1.994.16 3.144.782 5.333 3.865 4.931 6.865-.45 3.352-3.224 5.8-6.62 5.846-.738.01-1.578-.45-1.983.72-.567 1.64-.192 2.03 2.186 2.016" mask="url(#smarts__c)"/></g><path fill="#FFF" d="M32.556 12.767c8.678 1.619 14.817 9.63 13.752 18.006-1.145 9.002-8.803 15.298-17.879 14.693a9.801 9.801 0 01-1.403-.182c-.817-.176-1.85-.104-1.448-1.524.301-1.066.651-1.52 1.94-1.263 3.39.675 6.574-.102 9.49-1.88a13.552 13.552 0 005.775-16.05c-2.122-6.113-8.298-9.93-14.968-9.052-1.456.192-2.128-.014-2.29-1.463-.184-1.632 6.283-1.425 7.031-1.285"/><path fill="#FFF" d="M29.82 38.258c-2.377.014-2.752-.375-2.185-2.015.405-1.17 1.245-.71 1.984-.72 3.395-.047 6.169-2.494 6.619-5.847.402-3-1.787-6.082-4.93-6.864-.642-.16-1.353-.26-1.995-.16-1.453.224-1.735-.677-1.85-1.725-.148-1.346.97-1.043 1.673-1.086 5.355-.327 9.878 3.805 9.972 9.065.09 5.057-4.147 9.323-9.287 9.352M13 29.576c.005-4.967.045-4.998 4.29-3.885 1.174.307 2.332.706 3.525.896 1.735.276 2.602.89 2.405 2.903-.106 1.093-.31 1.499-1.3 1.74-2.225.542-4.462 1.062-6.64 1.76-1.479.476-1.965-.026-2.045-1.393-.051-.861-.198-1.716-.235-2.021m13.251 5.434c-.118.226-.263.525-.43.811-1.242 2.13-2.507 4.25-3.725 6.394-.436.766-.843 1.112-1.71.49-1.762-1.264-3.284-2.735-4.53-4.503-.512-.726-.41-1.144.359-1.572 2.288-1.272 4.542-2.603 6.828-3.878.69-.385 3.167 1.327 3.208 2.258m-5.263-19.978c.79-.027.942.569 1.2 1 1.028 1.72 1.928 3.523 3.066 5.168.982 1.42 1.093 2.343-.39 3.614-.945.808-1.398.824-2.322.26-1.95-1.192-3.92-2.36-5.959-3.39-1.303-.66-1.217-1.303-.427-2.272 1.15-1.409 2.389-2.716 3.876-3.779.325-.233.678-.428.956-.6"/><path fill="#FFF" d="M29.688 33.004c-2.215.004-3.97-1.684-4.022-3.869-.054-2.232 1.79-4.094 4.04-4.081 2.189.013 3.979 1.744 4.03 3.898.056 2.252-1.739 4.048-4.048 4.052"/></g></svg>