<svg xmlns="http://www.w3.org/2000/svg" width="41" height="40" fill="none"><path fill="#CE4256" fill-rule="evenodd" d="M20 40c11.046 0 20-8.954 20-20S31.046 0 20 0 0 8.954 0 20s8.954 20 20 20z" clip-rule="evenodd"/><path fill="#fff" d="M12.717 16.002c-2.921.084-4.185 2.845-3.59 4.776.004.011.048.035.056.006.41-1.404 1.39-2.327 2.52-2.68 2.436-.758 4.501.665 5.082 2.679.103.355.113.753.123 1.114.001.047.07.054.08.007.65-2.625-1.389-5.985-4.271-5.902z"/><path fill="#fff" d="M7.54 22.753c1.533 2.486 4.556 2.201 5.93.721.009-.008.009-.058-.022-.051-1.422.346-2.71-.04-3.58-.843-1.876-1.728-1.677-4.23-.223-5.739.258-.267.597-.475.905-.663.04-.024.01-.087-.034-.073-2.601.747-4.49 4.193-2.976 6.648z"/><path fill="#fff" d="M15.973 23.869c1.387-2.572-.372-5.047-2.342-5.498-.012-.001-.055.023-.033.046 1.011 1.057 1.322 2.366 1.061 3.522-.56 2.49-2.825 3.567-4.86 3.062-.36-.089-.71-.278-1.027-.451-.042-.023-.081.034-.047.066 1.949 1.878 5.88 1.79 7.248-.747z"/><path fill="#fff" fill-rule="evenodd" d="M21.632 23.521c-.752 0-1.39-.244-1.845-.707-.451-.46-.69-1.101-.69-1.855 0-.697.25-1.34.704-1.81.47-.485 1.128-.752 1.857-.752.869 0 1.639.364 2.01.951a.099.099 0 01-.017.123l-.713.653a.098.098 0 01-.141-.01 1.41 1.41 0 00-1.063-.502c-.818 0-1.347.529-1.347 1.347 0 .793.548 1.347 1.334 1.347a1.54 1.54 0 001.24-.597.095.095 0 01.145-.004l.627.674c.031.032.034.083.008.12-.438.639-1.227 1.022-2.109 1.022zm2.858-.223v-4.68a.14.14 0 01.141-.14h3.136a.14.14 0 01.141.14v.9a.14.14 0 01-.14.14h-1.995v3.64a.14.14 0 01-.14.14H24.63a.14.14 0 01-.14-.14zm5.128-4.823h-1.013a.141.141 0 00-.137.134v4.685c0 .073.06.133.134.133h1.013a.133.133 0 00.134-.133V22.21a.13.13 0 01.034-.089l.441-.501a.062.062 0 01.099.01l1.137 1.735c.024.04.068.065.115.065h1.318c.146 0 .118-.117.06-.206l-1.611-2.48a.136.136 0 00-.113-.062l-.181.001 1.76-2.01c.084-.096.04-.198-.075-.198H31.52a.138.138 0 00-.102.047l-1.538 1.815a.072.072 0 01-.128-.047v-1.68a.134.134 0 00-.134-.135z" clip-rule="evenodd"/></svg>