<svg xmlns="http://www.w3.org/2000/svg" viewBox="0 0 40 40"><g data-name="лого игры"><circle cx="20" cy="20" r="20" fill="#d87534"/><path fill="#fff" d="M20.69 28.82a8.16 8.16 0 118-9.44 8.25 8.25 0 01.11 2 3.39 3.39 0 01-3.45 3 3.45 3.45 0 01-3.31-3.27v-.69a1.33 1.33 0 00-1.25-1.18 1.44 1.44 0 00-1.48 1.05A1.33 1.33 0 0020 21.9a4.82 4.82 0 00.85.22 1.17 1.17 0 01.95 1.3 1.15 1.15 0 01-1.25 1 3.6 3.6 0 01-3.27-2.15 3.51 3.51 0 01.5-4 3.73 3.73 0 016.6 2.24v.39c.08.74.48 1.17 1.09 1.15a1.08 1.08 0 001-1.2 5.72 5.72 0 00-1.94-4.55 5.84 5.84 0 00-9.42 2.42 5.53 5.53 0 001.14 5.78 5.72 5.72 0 005.88 1.78c.22-.05.43-.14.66-.2a1.19 1.19 0 011.51.71 1.17 1.17 0 01-.79 1.49 14.88 14.88 0 01-2 .46 6.48 6.48 0 01-.82.08zM18.79 8a6.21 6.21 0 01.33-1.15 1.69 1.69 0 011.59-1.12A1.79 1.79 0 0122.31 7a2.6 2.6 0 01-.09 2.18 1.71 1.71 0 01-1.53 1.07 1.62 1.62 0 01-1.54-1A9.42 9.42 0 0118.79 8zm-2.67 2.17a1.72 1.72 0 01-.91 1.64 1.67 1.67 0 01-1.84-.24 2.68 2.68 0 01-1.14-2A1.7 1.7 0 0112.92 8a1.6 1.6 0 011.77 0 2.58 2.58 0 011.43 2.17zm-6.38 6.41a2.52 2.52 0 01-2.11-1.41 1.62 1.62 0 011.48-2.48 2.63 2.63 0 012.39 1.47c.64 1.2-.16 2.41-1.76 2.42zM5.72 21a2.41 2.41 0 013.88-1.21 1.59 1.59 0 01-.13 2.65A2.38 2.38 0 015.72 21z"/></g></svg>