<svg xmlns="http://www.w3.org/2000/svg" xmlns:xlink="http://www.w3.org/1999/xlink" width="60" height="60"><defs><path id="prometey__a" d="M29.703 59.405c16.404 0 29.702-13.298 29.702-29.702C59.405 13.298 46.107 0 29.703 0 13.298 0 0 13.298 0 29.703c0 16.404 13.298 29.702 29.703 29.702z"/><path id="prometey__c" d="M33.478.13H.448v30.266h33.03V.13z"/></defs><g fill="none" fill-rule="evenodd"><mask id="prometey__b" fill="#fff"><use xlink:href="#prometey__a"/></mask><use fill="#2CA9D0" xlink:href="#prometey__a"/><g mask="url(#prometey__b)"><g transform="translate(14.314 12.353)"><mask id="prometey__d" fill="#fff"><use xlink:href="#prometey__c"/></mask><path fill="#FBFCFC" d="M30.555 3.987c-5.2-5.575-15.55-5.044-23.12 1.184C3.551 8.367 1.16 12.441.448 16.404 1.335 13.03 3.509 9.63 6.828 6.9 13.93 1.056 23.58.49 28.38 5.637c4.8 5.147 2.933 14.057-4.17 19.902-3.956 3.254-8.7 4.87-12.957 4.776 4.853.484 10.437-1.196 15.008-4.957 7.57-6.229 9.492-15.797 4.293-21.371" mask="url(#prometey__d)"/></g><path fill="#FBFCFC" d="M9.388 24.852c-1.855 6.258 3.12 13.246 11.116 15.609 4.101 1.212 8.198.969 11.468-.398-2.908.966-6.405 1.045-9.91.01-7.502-2.219-12.195-8.7-10.482-14.477 1.714-5.777 9.184-8.663 16.686-6.446 4.178 1.235 7.482 3.792 9.296 6.813-1.787-3.62-5.51-6.735-10.339-8.162-7.994-2.363-15.98.794-17.835 7.051"/><path fill="#FBFCFC" d="M38.698 47.58c6.222-3.713 7.924-13.511 3.8-21.886-2.115-4.296-5.353-7.378-8.845-8.864 2.912 1.527 5.577 4.267 7.385 7.938 3.869 7.858 2.348 17.008-3.396 20.435-5.746 3.428-13.54-.164-17.41-8.022-2.154-4.376-2.635-9.15-1.648-13.116-1.471 4.442-1.11 10.017 1.381 15.074 4.124 8.374 12.51 12.153 18.733 8.44"/></g></g></svg>