<svg xmlns="http://www.w3.org/2000/svg" width="41" height="40" fill="none"><path fill="#08A039" fill-rule="evenodd" d="M20.5 0c11.046 0 20 8.954 20 20s-8.954 20-20 20-20-8.954-20-20 8.954-20 20-20z" clip-rule="evenodd"/><path fill="#00843E" fill-rule="evenodd" d="M31.752 12.97c.847.092 4.584-.793 4.341-1.919-.243-1.125-3.358-1.423-4.815-1.908-1.457-.483-2.006-2.257-4.088-2.021-2.082.235-3.463 1.514-4.032 2.61-1.267 2.468-1.212 5.834-.206 8.381 1.602 4.06 3.604 6.54 4.637 11.1.539 2.38-.3 5.567-2.777 6.98-1.341.766-3.235-.614-6.54-1.994-2.799-1.168-6.61-2.337-11.953-2.202-.6.015-1.184.047-1.752.092C8.22 36.896 13.997 40 20.5 40c5.22 0 9.972-2 13.533-5.275.497-3.564-.158-7.18-1.812-9.77-2.765-4.329-3.47-5.415-3.598-8.456-.108-2.391 1.144-3.745 3.129-3.53z" clip-rule="evenodd"/><path fill="#fff" fill-rule="evenodd" d="M19.504 16.12h-.92v3.537h.92v-3.536zM7.232 19.658h1.914c1.508 0 2.559-.966 2.559-2.445 0-1.465-1.051-2.439-2.566-2.439H7.232v4.884zm1.029-.915v-3.053h.884c.986 0 1.508.666 1.508 1.523 0 .835-.558 1.53-1.515 1.53H8.26zm10.235-3.559c0 .308.247.557.544.557a.554.554 0 00.006-1.106h-.012a.546.546 0 00-.538.55zm-2.073 3.588c0 .637.34.974.986.974.377 0 .63-.102.768-.227l-.195-.71c-.051.059-.182.11-.32.11-.203 0-.319-.169-.319-.396v-3.749h-.92v3.998zm-4.233-.886c0 1.135.804 1.86 1.87 1.86.543 0 1.094-.168 1.442-.49l-.413-.615c-.225.22-.63.344-.928.344-.594 0-.942-.36-1.007-.791h2.602v-.22c0-1.15-.703-1.94-1.754-1.94-1.059 0-1.812.827-1.812 1.852zm.957-.337c.036-.351.282-.754.855-.754.609 0 .84.418.87.754h-1.726zm15.476-1.05zm.442-.377H28.145v3.536h.92v-2.335c.153-.227.559-.403.863-.403.108 0 .188.007.253.022v-.908c-.434 0-.862.256-1.116.564v-.476zm-3.284 3.624c-1.065 0-1.87-.725-1.87-1.86 0-1.025.754-1.852 1.813-1.852 1.05 0 1.754.79 1.754 1.94v.22h-2.603c.066.432.414.79 1.008.79.297 0 .703-.124.928-.343l.413.614c-.348.323-.899.491-1.442.491zm-.057-2.95c-.573 0-.82.402-.856.753h1.725c-.029-.336-.26-.754-.87-.754zM13.023 29.885a.48.48 0 01-.364-.159l.117-.12c.079.081.152.116.244.116h.005c.152 0 .25-.103.25-.253v-.017a.376.376 0 01-.269.106.417.417 0 010-.833c.106 0 .21.044.27.107v-.088h.163v.72c0 .249-.17.421-.416.421zm.004-.996a.244.244 0 00-.25.253c0 .148.105.253.25.253.145 0 .25-.105.25-.253a.244.244 0 00-.25-.253zm3.226.93h-.164v-1.07h.164v.087a.376.376 0 01.269-.106h.004a.414.414 0 01-.004.828.386.386 0 01-.27-.106v.366zm.248-.93a.245.245 0 00-.25.253c0 .148.105.253.25.253.145 0 .25-.105.25-.253a.244.244 0 00-.25-.253zm1.289-.364h.165v1.291h-.165v-1.29zm-2.306 1.036c-.198 0-.331-.147-.331-.364v-.448h.163v.439c0 .129.078.21.193.21.122-.003.217-.095.217-.205v-.444h.163v.791h-.163v-.078a.33.33 0 01-.242.099zm-3.83 0c-.198 0-.332-.147-.332-.364v-.448h.164v.439c0 .129.078.21.193.21.122-.003.216-.095.216-.205v-.444h.164v.791h-.164v-.078a.33.33 0 01-.241.099zm-1.194 0a.114.114 0 01-.113-.113c0-.062.053-.113.113-.113.064 0 .112.055.112.113a.114.114 0 01-.112.113zm4.122-.003a.42.42 0 01-.423-.416.42.42 0 01.423-.416.42.42 0 01.424.416.42.42 0 01-.424.416zm0-.67a.249.249 0 00-.248.254.249.249 0 10.497 0 .248.248 0 00-.249-.253zm-5.598.666a.412.412 0 01-.4-.412c0-.228.19-.416.408-.416.106 0 .21.043.269.106v-.088h.164v.791H9.26v-.087a.377.377 0 01-.27.106h-.007zm.029-.665a.244.244 0 00-.251.253c0 .148.106.253.25.253.143 0 .251-.105.251-.253a.243.243 0 00-.25-.253zm10.208.662c-.259-.001-.43-.154-.43-.41 0-.24.17-.41.432-.41.125 0 .217.039.264.073v.197a.324.324 0 00-.264-.139c-.173 0-.28.113-.28.279 0 .154.095.276.277.279.139 0 .235-.064.282-.144v.176c-.04.048-.143.1-.281.1zm-10.784-.011h-.163v-.447c0-.121-.071-.202-.18-.202a.191.191 0 00-.195.196v.453h-.163v-.447c0-.121-.072-.202-.18-.202h-.004a.189.189 0 00-.189.194v.453H7.2v-.792h.163v.074a.3.3 0 01.223-.092c.102 0 .19.046.244.122a.356.356 0 01.274-.122c.2 0 .333.147.333.36v.452zm12.865 0h-.142v-.795h.264c.252 0 .358.09.358.269 0 .185-.125.277-.358.277h-.122v.248zm0-.665v.286h.133c.131 0 .2-.043.2-.15 0-.099-.059-.136-.198-.136h-.135zm-.31.664h-.563v-.794h.55v.13h-.408v.19h.365v.13h-.363v.214h.418v.13zm-1.05 0h-.295v-.794h.564v.13h-.422v.142h.156c.217 0 .329.082.329.257 0 .174-.13.265-.333.265zm-.152-.39v.26h.151c.114 0 .187-.034.187-.139 0-.096-.064-.122-.187-.122h-.15zm-5.988.389h-.163v-.792h.163v.108c.06-.075.132-.108.249-.108h.062v.154h-.062c-.15.003-.249.1-.249.249v.389zm-2.905 0h-.164v-.792h.164v.108c.06-.075.13-.108.248-.108h.062v.154h-.062c-.152.003-.248.1-.248.249v.389zm-.884-1.116h.164v1.116h-.164v-1.116zm-.38.324h.164v.792h-.163v-.792zm.084-.122a.114.114 0 01-.113-.112c0-.062.053-.113.113-.113.064 0 .112.055.112.113-.002.057-.05.112-.112.112zm10.83-2.224c-.42 0-.804-.19-1.08-.541v.454h-.92V21.43h.92v1.801a1.323 1.323 0 011.08-.542c.893 0 1.552.703 1.552 1.853 0 1.186-.667 1.86-1.551 1.86zm-.282-2.884c-.305 0-.638.176-.797.41v1.252c.16.227.492.395.797.395.53 0 .884-.417.884-1.032 0-.608-.355-1.025-.884-1.025zM15.48 26.4c-.769 0-1.131-.424-1.131-1.112v-2.512h.92v2.146c0 .49.254.651.646.651.355 0 .637-.197.797-.402v-2.395h.92v3.537h-.92v-.447c-.24.264-.66.534-1.232.534zm-2.306 0c-.645 0-.985-.336-.985-.973V21.43h.92v3.749c0 .227.116.395.32.395.137 0 .267-.051.318-.11l.196.71c-.138.125-.392.227-.769.227zm-3.677 0c-1.457 0-2.58-1.024-2.58-2.526 0-1.508 1.123-2.526 2.58-2.526 1.059 0 1.675.579 2.015 1.194l-.884.44c-.203-.396-.638-.71-1.13-.71-.885 0-1.523.68-1.523 1.602 0 .923.638 1.604 1.522 1.604.493 0 .928-.315 1.13-.71l.885.432c-.34.608-.956 1.2-2.015 1.2zm22.677-5.308c-.587 0-1.058-.17-1.464-.528l.413-.666c.254.307.681.432 1.051.432.595 0 .943-.41.943-.908v-.366c-.24.264-.66.535-1.233.535-.768 0-1.13-.425-1.13-1.114v-2.357h.92v1.991c0 .49.254.652.645.652.355 0 .638-.197.797-.403v-2.24h.921v3.312c-.004 1.055-.75 1.66-1.863 1.66zm-10.852-1.436h.994l.624-1.571.782-1.965h-.986l-.222.594-.699 1.866-.913-2.46h-.986l1.406 3.536z" clip-rule="evenodd"/></svg>