<svg xmlns="http://www.w3.org/2000/svg" width="41" height="40" fill="none"><circle cx="20.5" cy="20" r="20" fill="#504F7C"/><path fill="url(#101xp__paint0_linear)" d="M17.448 15.32a5.172 5.172 0 00-2.741 2.392h.986a4.32 4.32 0 012.035-1.58c2.245-.837 4.727.348 5.544 2.647.288.81.33 1.651.167 2.437a.71.71 0 01.8.234 5.376 5.376 0 00-.184-2.975C23.293 16.331 21.316 15 19.21 15c-.585 0-1.18.103-1.762.32z"/><path fill="url(#101xp__paint1_linear)" d="M20.66 24.453c-1.855.691-3.873.002-4.978-1.556h-.975c1.221 2.194 3.844 3.234 6.24 2.34a5.183 5.183 0 002.847-2.598.71.71 0 01-.76-.335 4.347 4.347 0 01-2.374 2.149z"/><path fill="#fff" fill-rule="evenodd" d="M10.161 20.291c0-.72.128-1.238.385-1.554.212-.26.507-.391.886-.391.38 0 .676.132.89.396.254.313.382.832.382 1.557 0 .724-.128 1.244-.385 1.56-.212.261-.507.391-.887.391s-.687-.143-.92-.428c-.234-.287-.35-.797-.35-1.53zm.787.933c.054.168.122.28.204.335a.486.486 0 00.28.083c.106 0 .2-.028.283-.084.083-.057.147-.158.192-.304.06-.188.09-.506.09-.955 0-.449-.027-.757-.08-.925-.054-.167-.122-.28-.204-.336a.484.484 0 00-.28-.085c-.106 0-.2.028-.283.085-.083.056-.147.157-.193.304-.06.19-.09.508-.09.957 0 .449.027.757.081.925zm8.552-2.861l-1.27 1.953 1.27 1.952h-.635a.22.22 0 01-.165-.09l-.841-1.293-.842 1.293a.22.22 0 01-.164.09h-.636l1.271-1.953-1.271-1.952h.636a.22.22 0 01.164.09l.842 1.293.841-1.293a.22.22 0 01.165-.09h.635zm1.943 0h-1.29v3.905h.548a.107.107 0 00.106-.108v-1.194h.636c.702 0 1.272-.582 1.272-1.301 0-.72-.57-1.302-1.272-1.302zm-.636 1.916v-1.301h.61c.354 0 .642.29.642.65 0 .36-.288.651-.643.651h-.609zm5.278 1.99c-.702 0-1.27-.583-1.27-1.302 0-.72.569-1.302 1.27-1.302.34 0 .65.137.88.362 0 0-.17.434-.328.434-.063 0-.106-.027-.157-.06a.626.626 0 00-.394-.115c-.432 0-.674.37-.674.68 0 .347.31.678.674.683.237-.003.332-.068.405-.118.047-.032.085-.058.146-.058.156 0 .328.434.327.435-.228.222-.54.36-.879.36zm1.13-1.302c0 .719.57 1.301 1.271 1.301.702 0 1.271-.583 1.271-1.301 0-.72-.569-1.302-1.27-1.302-.703 0-1.272.583-1.272 1.302zm.583 0c0-.39.308-.706.688-.706.38 0 .689.316.689.706 0 .389-.309.705-.689.705a.697.697 0 01-.688-.705zM32.105 20a.784.784 0 00-1.218.021v-.049a.214.214 0 00-.212-.217h-.406v2.495h.618v-1.681c0-.19.158-.344.353-.344.195 0 .353.154.353.344v1.681H33.5v-1.717a.804.804 0 00-.794-.814.784.784 0 00-.6.28zm.089.569c0-.19.158-.344.353-.344.195 0 .353.154.353.344v1.681h-.706v-1.681zm-8.845 1.356c0 .19.15.343.335.343a.34.34 0 00.336-.343.34.34 0 00-.336-.344.34.34 0 00-.335.344zm-14.83-.159v-2.45l-.504.435a.197.197 0 01-.29-.034l-.225-.301 1.2-1.048h.472v3.398h.742v.507H7.566v-.507h.953zm5.66 0v-2.45l-.505.435a.197.197 0 01-.29-.034l-.224-.301 1.2-1.048h.472v3.398h.742v.507h-2.348v-.507h.953z" clip-rule="evenodd"/><defs><linearGradient id="101xp__paint0_linear" x1="15.427" x2="18.122" y1="18.767" y2="15.316" gradientUnits="userSpaceOnUse"><stop stop-color="#A887FF"/><stop offset="1" stop-color="#74FF6A"/></linearGradient><linearGradient id="101xp__paint1_linear" x1="16.132" x2="19.436" y1="23.931" y2="19.736" gradientUnits="userSpaceOnUse"><stop stop-color="#9276DC"/><stop offset="1" stop-color="#654DA9"/></linearGradient></defs></svg>