<svg xmlns="http://www.w3.org/2000/svg" viewBox="0 0 80 80"><circle cx="40" cy="40" r="40" fill="#332d2b"/><path fill="#fff" d="M10.3 37.7H8v-1.5h6.1v1.5h-2.3v5.8h-1.6l.1-5.8zm14.3-1.5H26l3.4 4.5v-4.5H31v7.3h-1.3l-3.5-4.6v4.6h-1.6v-7.3zm10.8 4.3l-2.8-4.3h1.8l1.7 2.8 1.7-2.8h1.8L37 40.4v3.1h-1.6v-3zm6.1-4.3h1.7l1.9 2.6 1.9-2.6h1.7v7.3h-1.6v-4.8l-2 2.7-2-2.6v4.7h-1.5l-.1-7.3zm18.2 0h1.6V42h3.6v1.5h-5.2v-7.3zm7.8 4.3l-2.8-4.3h1.8l1.7 2.8 1.7-2.8h1.8L69 40.4v3.1h-1.6v-3zM54.2 42c-1.2 0-2.1-1-2.1-2.1 0-1.2.9-2.1 2.1-2.1 1.2 0 2.1 1 2.1 2.1s-.9 2.1-2.1 2.1m0-5.9c-2 0-3.7 1.7-3.7 3.8 0 2.1 1.7 3.8 3.7 3.8s3.7-1.7 3.7-3.8c0-2.1-1.6-3.8-3.7-3.8M19 42c-1.2 0-2.1-1-2.1-2.1 0-1.2.9-2.1 2.1-2.1 1.2 0 2.1 1 2.1 2.1S20.1 42 19 42m0-5.9c-2 0-3.7 1.7-3.7 3.8 0 2.1 1.7 3.8 3.7 3.8s3.7-1.7 3.7-3.8c0-2.1-1.7-3.8-3.7-3.8"/></svg>