<svg xmlns="http://www.w3.org/2000/svg" width="40" height="40"><circle cx="20" cy="20" r="20"/><path fill="#fff" d="M10.296 15.678c.361-.452.606-1.058.542-1.678-.529.026-1.174.349-1.547.8-.336.388-.632 1.02-.555 1.613.593.052 1.186-.296 1.56-.735zm.534.851c-.86-.052-1.593.489-2.005.489-.412 0-1.042-.463-1.723-.45-.887.012-1.71.514-2.16 1.311-.926 1.596-.245 3.963.656 5.263.437.643.964 1.35 1.658 1.326.656-.026.913-.425 1.71-.425.797 0 1.03.425 1.724.412.72-.013 1.17-.644 1.607-1.287.502-.733.707-1.441.72-1.48-.013-.013-1.389-.54-1.401-2.123-.014-1.325 1.08-1.955 1.131-1.994-.617-.913-1.582-1.016-1.916-1.042zm8.592-1.793c1.873 0 3.177 1.29 3.177 3.17 0 1.887-1.331 3.184-3.224 3.184h-2.073v3.298h-1.499v-9.652h3.619zm-2.12 5.097h1.718c1.305 0 2.047-.703 2.047-1.92S20.325 16 19.027 16h-1.726v3.833zm5.668 2.555c0-1.238.944-1.947 2.683-2.054l1.866-.113v-.535c0-.783-.515-1.211-1.431-1.211-.756 0-1.305.388-1.418.983h-1.352c.04-1.25 1.218-2.16 2.81-2.16 1.712 0 2.829.896 2.829 2.287v4.803h-1.385V23.23h-.033c-.395.755-1.264 1.23-2.207 1.23-1.392 0-2.361-.829-2.361-2.073zm4.549-.622v-.542l-1.666.107c-.936.06-1.424.408-1.424 1.017 0 .588.508.97 1.304.97 1.017 0 1.786-.65 1.786-1.552zm2.711 5.204v-1.157c.093.013.32.026.441.026.662 0 1.037-.28 1.264-1.003l.134-.428-2.535-7.023H31.1l1.766 5.698h.033l1.766-5.698h1.526l-2.63 7.377c-.601 1.693-1.29 2.248-2.748 2.248-.114 0-.482-.014-.582-.04z"/></svg>