<svg xmlns="http://www.w3.org/2000/svg" xmlns:xlink="http://www.w3.org/1999/xlink" width="80" height="80"><defs><circle id="joypet__a" cx="40" cy="40" r="40"/></defs><g fill="none" fill-rule="evenodd"><use fill="#FBDF7F" xlink:href="#joypet__a"/><path fill="#417CB8" fill-rule="nonzero" d="M12.63 29.169h1.956v11.873c.125 2.758-2.034 4.066-6.48 3.924a16.96 16.96 0 010-1.867c3.016.132 4.524-.685 4.524-2.45V29.17zM22.773 45.25a5.91 5.91 0 110-11.818 5.91 5.91 0 010 11.818zm0-1.477c1.958 0 3.545-1.984 3.545-4.432 0-2.448-1.587-4.432-3.545-4.432s-3.546 1.984-3.546 4.432c0 2.448 1.588 4.432 3.546 4.432zm6.29-10.117h2.159l3.26 8.616 2.964-8.616h1.936c-2.002 6.564-3.565 10.762-4.69 12.596-1.316 2.146-2.92 3.29-4.279 3.733-.391-.59-.682-1.114-.873-1.572 2.345-1.54 3.606-2.84 3.784-3.9.1-.233-.722-1.96-2.102-5.294-.418-1.01-1.138-2.864-2.16-5.563zm12.328-.075h1.833v1.602c1.17-.952 2.339-1.486 3.505-1.602 3.24-.26 5.337 2.02 5.337 5.582 0 3.64-1.757 5.644-5.122 5.674-1.025-.003-2.264-.414-3.72-1.233v5.904h-1.833V33.581zm5.314 9.896c1.794 0 3.25-1.918 3.25-4.284 0-2.366-1.456-4.284-3.25-4.284-1.795 0-3.25 1.918-3.25 4.284 0 2.366 1.455 4.284 3.25 4.284zm9.02-3.845c.204 3.61 2.487 4.724 6.85 3.34.122.418.27.875.441 1.37-7.256 2.397-9.166-2.193-9.227-4.71-.094-1.367.287-6.351 4.913-6.351 5.16 0 4.948 5.745 4.913 6.351-1.384 0-6.852.023-7.89 0zm.138-1.526h5.88c-.178-2.149-1.106-3.273-2.784-3.375-1.679-.102-2.71 1.023-3.096 3.375zm12.439 1.475c-.17 2.675 1.345 3.928 4.545 3.76.02.486.02 1.033 0 1.639-4.231.325-6.347-.898-6.347-3.668v-5.996h-2.275v-1.612H66.5v-4.399h1.802v4.4h2.637v1.61h-2.637v4.266z"/></g></svg>