<svg xmlns="http://www.w3.org/2000/svg" xmlns:xlink="http://www.w3.org/1999/xlink" width="60" height="60"><defs><path id="mns__a" d="M29.703 59.405c16.404 0 29.702-13.298 29.702-29.702C59.405 13.298 46.107 0 29.703 0 13.298 0 0 13.298 0 29.703c0 16.404 13.298 29.702 29.703 29.702z"/><path id="mns__c" d="M29.703 59.405c16.404 0 29.702-13.298 29.702-29.702C59.405 13.298 46.107 0 29.703 0 13.298 0 0 13.298 0 29.703c0 16.404 13.298 29.702 29.703 29.702z"/><path id="mns__e" d="M35.966.336H0v35.539h35.966V.336z"/></defs><g fill="none" fill-rule="evenodd"><mask id="mns__b" fill="#fff"><use xlink:href="#mns__a"/></mask><use fill="#E15029" xlink:href="#mns__a"/><g mask="url(#mns__b)"><mask id="mns__d" fill="#fff"><use xlink:href="#mns__c"/></mask><use fill="#E30511" xlink:href="#mns__c"/><g mask="url(#mns__d)"><g transform="translate(12 11.091)"><mask id="mns__f" fill="#fff"><use xlink:href="#mns__e"/></mask><path fill="#FEFEFE" d="M8.524 24.81l-.126.261c.255.175.504.47.764.48.177.009.37-.384.682-.741h-1.32zm6.271-12.082c-.145.013-.274.196-.41.301.113.134.226.381.34.382.789.002 1.61.059 2.374-.808-.9.043-1.604.06-2.304.125zm-8.592 4.43l-3.631.904c1.338.247 2.563.006 3.694-.639l-.063-.265zm11.053 1.556c-.186-.018-.388.122-.582.19.086.222.113.505.27.657.594.582 1.723.409 2.507-.532-.845-.126-1.517-.247-2.195-.315zm.08-1.276c-.277-.01-.554-.22-.822-.202-.217.015-.42.236-.63.365.182.188.34.5.552.542.684.14 1.386.19 2.083.254.862.08 1.369-.304 1.4-.948-.908 0-1.746.02-2.583-.01zm5.497 3.364c1.026.215 2.052.445 3.088.591.172.024.398-.332.6-.512-.202-.221-.368-.569-.613-.638-.5-.14-1.126.022-1.548-.213-.958-.534-1.246-.525-1.89.54.155.102.25.208.363.232zm3.47-1.006c-.26-.912-.451-1.577-.619-2.16l-1.677-.664-.912 1.684 3.209 1.14zM10.282 20.95a9.588 9.588 0 002.267.47c.34.024.955-.252 1.011-.492.138-.584-.16-1.038-.893-1.065-.55-.02-1.098-.131-1.647-.202l.045-.289 2.256.348-.975-1.363c0-.43.073-.949-.017-1.439-.16-.878-.682-1.114-1.58-.885-.93.238-.712.823-.478 1.421.088.227.216.439.354.714-1.072.114-.662.74-.473 1.27-.326.198-.62.375-1.12.676.5.345.838.702 1.25.836zm-5.455 5.077l-.467-.648c.604-.418 1.213-.764.278-1.433-.49-.351-.39-.682.243-.826.18-.041.315-.283.47-.433-.196-.046-.415-.175-.585-.127-1.454.405-2.903.83-4.342 1.287-.151.048-.311.328-.322.51-.038.666-.015 1.337-.015 2.06l4.74-.39zm21.96-2.68c-.06-.368-.012-.937-.189-1.019-1.042-.48-2.11-.96-3.222-1.214-.894-.203-1.678.491-1.456 1.194.178.566-.386 1.255.32 1.688-.14.197-.241.47-.433.57-.175.09-.448-.003-.679-.015l-.056.284c.179.05.356.133.538.147 1.11.084 2.22.158 3.33.223.38.023.772.067 1.143.009 1.047-.165 1.157-.464.607-1.483-1.563.623-3.167.438-3.78-.384h3.876zM4.583 27.168c-.124-.276-.609-.533-.942-.548-.802-.034-1.619.176-2.414.108-.993-.085-1.191.308-1.168 1.206.058 2.227.018 4.457.02 6.685.001 1.237.004 1.244 1.29 1.244 10.89.004 21.78.008 32.67.006 2.171 0 1.86.209 1.877-1.84.016-1.832.004-3.664.004-5.529h-1.567c1.295-.539 1.718-1.433 1.59-2.783-.123-1.313-.004-2.647-.043-3.97-.012-.405-.192-.805-.297-1.215.093-.335.3-.736.301-1.138.022-6.007.003-12.015.033-18.023.005-.818-.274-1.038-1.063-1.035-7.39.025-14.78.016-22.17.017-1.12 0-1.963 2.395-3.01 2.395-.21.913-1.48.41-1.573.395-.066-.474-.362-.31-.384-.786-.031-.699.378-2.04-.408-2.02-2.105.053-4.213.042-6.319 0C.294.322.06.533.066 1.264c.033 3.65.012 7.3.016 10.95 0 .273.054.547.084.827l1.47-.069C.561 13.836-.47 14.612.23 16.183c2.263.651 5.862.92 6.49.425l-.673-.859c.24-.481.595-.865.552-1.197-.044-.34-.477-.632-.834-1.058.47-.109.765-.102.945-.243.13-.102.108-.4.153-.609-.64.055-1.045-.743-1.842-.372-.726.338-1.587.388-2.388.566l-.104-.324c.965-.699 1.886-1.474 2.913-2.063.49-.282 1.184-.213 1.96-.33L7.13 8.931c.302-.271.7-.557.993-.924.141-.177.206-.58.1-.759-.732-1.23-.644-2.263.465-3.492v3.487c.591.031 1.22.503 1.535-.518.144-.468.436-.241.624.15.106.22.433.334.857.635-.443-2.642-.342-4.779.23-5.956.188.56.354 1.077.538 1.589.196.547.427 1.082.61 1.633.534 1.609.36 2.027-1.31 2.838l1.601 1.372c-.194.852.261 1.382 1.329 1.507-.64.618-1.237 1.181-.392 2.016.783-.617 1.586-.885 2.538-.481.376.16.827.229 1.236.207.676-.035 1.346-.178 2.019-.275l.143.376c-.436.267-.84.644-1.314.777-.803.224-1.645.324-2.477.422-.934.109-1.505.836-1.2 1.706.615-.373 1.199-.774 1.829-1.082.19-.093.507.071.767.118-.146.199-.25.476-.447.58-.396.211-.854.303-1.264.492-.5.23-.876.557-.575 1.285.501-.035 1.011-.108 1.519-.095.722.019 1.512-.066 2.147.197.82.34 1.023.021 1.23-.637l-1.263-.72 1.707-.313-.557-1.115 1.094-.472c-1.15-.263-.753-.94-.63-1.579.21.018.399.092.52.032.305-.15.58-.36.866-.546-.28-.179-.542-.421-.848-.517-.262-.08-.582.044-.867.01-.39-.047-.773-.16-1.158-.243l.009-.437c.795-.202 1.593-.388 2.383-.61.855-.24 1.855-.345 1.69-1.687 1.117.125 1.535-.636 1.86-1.568.223.25.357.332.373.432.145.884.796.608 1.284.512.645-.128.632-.662.498-1.16-.1-.37-.302-.714-.41-1.084-.189-.644-.466-1.3-.457-1.948.005-.359.515-.71.798-1.064.3.24.763.42.875.726.577 1.595 1.065 3.221 1.579 4.822-1.247.705-1.351.948-.987 2.093l1.056.402-.052.222-.833.265c-.54 1.321.846.756 1.203 1.226-.264.498-1.533.214-.956 1.258l.972.255c-.301.38-.778.793-.708.934.166.332.593.535.944.814-1.164.71-1.14.922.084 1.701-.99.66-.981.683-.013 1.312.09.057.03.572-.024.584-.708.156-.557.56-.345 1.054 1.719-.999 3.051.058 4.704.748-1.702.52-3.14.688-4.63-.244l-.045.92 1.356.505c-.738.34-1.472.445-.98 1.247l.931.238-.076 1.035-.619.216.967.46-.974.898c.355.3.71.6 1.104.935l-.96.408 1.051 1.697-2.011-.113-.4 1.103c-.278-.184-.372-.32-.376-.46-.024-.875-.533-.916-1.196-.715-.186.057-.374.164-.558.157-.372-.015-.742-.092-1.113-.144l.919-.571.161-.1c-.11-.857-.22-1.692-.323-2.491l-2.282 1.025 1.696.504c-1.986.691-3.797.051-5.755-.605l1.439 1.28c-2.572.592-2.572.592-2.99 1.184-.377-.061-.718-.154-1.061-.166-1.095-.04-1.36.375-.901 1.357.218.467.467.926.624 1.413.064.198-.004.57-.148.671-.203.143-.565.197-.795.114-.145-.053-.249-.427-.242-.653.019-.61.163-1.22.154-1.83-.016-.981-.58-1.416-1.532-1.309-.357.04-.722.007-1.083.007l-.015-.23 1.559-.267c-.278-.457-.578-.799-.708-1.196-.241-.734-.383-1.501-.566-2.255l-.282.06.57-.734-4.422-1.113.107-.466 3.927.764c-.308-.329-.443-.607-.635-.656-1.308-.336-2.62-.673-3.948-.9-.512-.087-.7.312-.558.85.095.356.493.882-.31.988.082.246.126.683.252.708.694.138 1.406.205 2.114.24.788.04 1.579.018 2.568.025l-2.483 1.848c.03.129.06.258.092.388l3.466.185c-1.36 1.213-4.018 1.078-5.18-.053-.316-.306-.71-.532-1.15-.856-.25 1.63-.246 1.602 1.094 1.8.863.128 1.738.276 2.556.561.466.164 1.083.571 1.162.963.075.37-.364 1.102-.75 1.263-1.688.702-3.41 1.364-5.178 1.825-1.329.346-1.564-.087-1.075-1.386.23-.61.328-1.27.486-1.906l-2.04-.107c-.067-.52-.057-1.103-.272-1.586zm-.062-7.06l1.326-.357c-.16-.37-.279-.768-.502-1.094-.092-.134-.41-.146-.63-.157-1.32-.074-2.64-.154-3.962-.173-.217-.003-.438.28-.658.431.233.136.465.382.7.386.702.014 1.405-.068 1.874-.097-.187.261-.405.608-.668.919-.179.212-.39.466-.637.542-1.477.455-1.527.522-1.1 2.246 1.365-.52 2.19-2.057 3.784-2.036-.208.59-.04.985.627.89.305-.044.817-.355.814-.536-.014-.705-.572-.472-.995-.412-.157.021-.312.057-.467.087l.494-.638z" mask="url(#mns__f)"/></g><path fill="#FFF" d="M13 13h35v34H13z"/><path fill="#E30511" d="M16.981 43.196c-.004.03.318.184.398.135.166-.103.385-.307.378-.46-.012-.31-.16-.613-.254-.919l-.646-2.106 2.04.106c-.159.637-.258 1.296-.487 1.906-.49 1.3-.254 1.732 1.075 1.386 1.767-.46 3.49-1.123 5.178-1.825.386-.16.825-.893.75-1.263-.079-.392-.696-.8-1.162-.962-.818-.286-1.693-.435-2.557-.562-1.34-.198-1.344-.17-1.093-1.8.44.324.834.55 1.149.857 1.163 1.13 3.822 1.265 5.18.052l-3.465-.185-.092-.388 2.483-1.848c-.99-.006-1.78.015-2.568-.025a14.49 14.49 0 01-2.114-.24c-.126-.025-.17-.462-.251-.709.802-.105.404-.63.31-.987-.144-.538.045-.937.557-.85 1.329.227 2.64.564 3.948.9.192.05.327.327.635.656l-3.927-.764-.107.466 4.422 1.113-.57.734.282-.06c.183.754.325 1.52.566 2.255.13.397.43.739.708 1.196l-1.56.267.016.23c.361 0 .726.034 1.083-.007.952-.106 1.516.328 1.531 1.31.01.608-.134 1.218-.153 1.83-.007.225.097.599.242.652.23.083.592.029.795-.114.144-.1.212-.473.148-.671-.157-.487-.406-.946-.624-1.412-.46-.983-.194-1.398.9-1.358.344.012.685.105 1.062.166.418-.592.418-.592 2.99-1.184l-1.439-1.28c1.958.656 3.77 1.296 5.755.606l-1.697-.505 2.283-1.025.323 2.492a5.925 5.925 0 00-.161.1l-.92.57c.372.052.742.13 1.114.144.184.007.372-.1.558-.157.663-.2 1.172-.16 1.196.715.004.14.098.276.376.46l.4-1.103 2.011.113-1.051-1.697.96-.408-1.104-.935.974-.897a687.76 687.76 0 00-.967-.461l.619-.216.076-1.035-.93-.238c-.493-.802.24-.906.98-1.246l-1.357-.505.045-.921c1.49.932 2.928.765 4.63.244-1.653-.69-2.985-1.747-4.705-.748-.21-.494-.362-.898.346-1.054.055-.012.113-.527.024-.585-.968-.628-.977-.652.013-1.311-1.224-.78-1.248-.99-.084-1.7-.351-.28-.778-.483-.944-.815-.07-.14.407-.553.708-.934l-.972-.255c-.577-1.044.692-.76.956-1.258-.357-.47-1.743.095-1.203-1.225l.833-.266.052-.222-1.056-.402c-.364-1.145-.26-1.388.987-2.093-.514-1.6-1.002-3.227-1.58-4.821-.11-.307-.574-.488-.874-.727-.283.354-.793.706-.798 1.064-.009.648.268 1.304.456 1.948.109.37.311.713.411 1.085.134.497.147 1.031-.498 1.159-.488.097-1.14.372-1.284-.512-.016-.1-.15-.182-.372-.432-.327.932-.744 1.693-1.86 1.568.164 1.342-.837 1.447-1.691 1.687-.79.222-1.589.408-2.383.61l-.01.437c.386.084.769.196 1.159.243.285.035.605-.09.867-.01.306.096.567.338.848.517-.287.186-.561.396-.866.546-.122.06-.31-.014-.52-.032-.123.639-.52 1.316.63 1.58l-1.094.471.556 1.116-1.706.313 1.262.719c-.206.659-.409.977-1.23.637-.634-.263-1.424-.178-2.146-.197-.508-.013-1.018.06-1.52.095-.3-.728.076-1.056.575-1.286.411-.188.87-.28 1.265-.49.196-.105.3-.382.446-.581-.259-.047-.576-.211-.766-.118-.63.308-1.215.709-1.829 1.082-.305-.87.266-1.597 1.2-1.706.832-.098 1.674-.198 2.477-.422.473-.133.878-.51 1.314-.777l-.144-.376c-.672.097-1.342.24-2.018.275-.41.022-.86-.047-1.236-.207-.952-.405-1.755-.135-2.539.481-.844-.835-.247-1.398.392-2.016-1.067-.125-1.522-.655-1.328-1.506l-1.601-1.373c1.67-.811 1.844-1.23 1.31-2.838-.183-.551-.414-1.086-.61-1.633-.184-.512-.35-1.03-.538-1.589-.572 1.177-.673 3.314-.23 5.956-.425-.3-.751-.415-.857-.634-.189-.392-.48-.619-.624-.15-.315 1.02-.944.548-1.535.517v-3.487c-1.109 1.229-1.198 2.263-.465 3.492.106.179.041.583-.1.759-.294.368-.692.653-.993.924l.272 1.188c-.776.116-1.47.048-1.96.33-1.027.59-1.948 1.364-2.913 2.063l.104.324c.801-.178 1.662-.228 2.387-.566.798-.371 1.203.427 1.843.372-.045.21-.022.507-.153.609-.18.14-.475.135-.945.243.357.426.79.717.834 1.058.043.332-.311.716-.552 1.198l.673.858c-.628.495-4.936 2.534-7.2 1.883-.699-1.57.58-13.577.547-17.226-.006-.732.228-1.943.945-1.928 2.106.042 4.214.053 6.32 0 .785-.02 1.027 1.3 1.058 1.999.021.475.123.947.19 1.42l.277.046c.176-.768.352-2.536.562-3.449h3.288c7.39-.001 16.466.025 23.856 0 .789-.002.022 14.33 0 20.337-.002.402.093.736 0 1.072.105.41.32 7.82.32 7.82 0 1.863.015 3.696 0 5.528-.018 2.049-.357 2.535-2.529 2.536-10.89.003-22.452-.254-33.342-.259-1.286 0-1.895-.168-1.896-1.405-.002-2.229.462-4.745.404-6.972-.023-.898.716-1.367 1.709-1.282.795.068 1.612-.142 2.414-.108.333.015.818.272.942.548"/><path fill="#E30511" d="M38.785 34.438h-3.877c.614.821 2.219 1.006 3.78.383.551 1.019.44 1.318-.606 1.483-.372.058-.763.014-1.143-.008-1.11-.067-2.22-.14-3.33-.224-.182-.014-.359-.096-.538-.147l.056-.284c.23.012.504.106.68.014.19-.1.291-.372.431-.569-.705-.433-.14-1.122-.32-1.688-.221-.702.563-1.397 1.457-1.193 1.112.253 2.18.734 3.222 1.213.177.082.129.65.188 1.02m-26.699 3.069c0-.723-.023-1.393.015-2.06.01-.181.17-.462.322-.51a127.74 127.74 0 014.342-1.287c.17-.048.39.08.585.127-.155.15-.29.392-.47.433-.634.144-.733.475-.243.826.935.67.326 1.015-.278 1.433l.467.648-4.74.39m8.946-6.303l1.119-.675c-.19-.53-.6-1.156.474-1.27-.139-.276-.267-.488-.355-.715-.234-.598-.452-1.183.478-1.42.898-.23 1.42.006 1.58.885.09.49.017 1.01.017 1.438l.975 1.363-2.256-.348-.045.289c.549.07 1.096.182 1.647.202.733.027 1.03.482.893 1.065-.056.24-.671.515-1.011.491a9.601 9.601 0 01-2.267-.469c-.412-.134-.75-.491-1.25-.836m-4.981.605c-1.596-.02-2.42 1.516-3.786 2.036-.426-1.724-.376-1.79 1.1-2.246.248-.076.46-.33.638-.542.262-.31.481-.658.668-.92-.469.03-1.172.112-1.874.098-.236-.004-.467-.25-.7-.386.22-.15.441-.434.658-.431 1.322.02 2.643.099 3.963.172.219.013.537.024.629.159.224.326.341.724.502 1.094l-1.326.357-.494.638.021-.03m19.045-2.061l.913-1.684 1.677.664.62 2.16-3.21-1.14m-.624 1.913c.644-1.064.932-1.073 1.89-.539.422.235 1.049.073 1.548.213.245.069.41.417.612.638-.2.18-.427.536-.599.512-1.036-.147-2.062-.376-3.088-.59-.113-.025-.208-.131-.363-.234m-2.551-3.12c-.031.645-.538 1.029-1.4.949-.697-.065-1.4-.116-2.083-.255-.212-.043-.37-.354-.552-.542.21-.13.413-.35.63-.365.268-.018.546.192.822.202.837.03 1.675.011 2.583.011m-.468 1.58c-.785.941-1.913 1.114-2.508.532-.156-.152-.183-.435-.27-.658.195-.067.397-.207.583-.189.678.068 1.35.189 2.195.315m-13.185-1.605c-1.13.644-2.355.885-3.694.638l3.631-.904.063.266m10.833-4.821c-.764.867-1.585.81-2.373.808-.115 0-.228-.248-.342-.381.137-.105.266-.29.411-.302.7-.064 1.404-.082 2.304-.125"/><path fill="#E30511" d="M16.05 31.809l-.022.029c.155-.03.31-.065.466-.087.424-.06.982-.293.995.412.004.182-.508.493-.813.536-.668.095-.836-.3-.627-.89m5.795 4.091c-.311.358-.505.75-.682.743-.26-.01-.51-.306-.764-.48l.126-.262h1.32z"/></g></g></g></svg>