<svg xmlns="http://www.w3.org/2000/svg" width="60" height="60"><g fill="none" fill-rule="evenodd"><path fill="#F5A912" d="M30 60c16.569 0 30-13.431 30-30C60 13.431 46.569 0 30 0 13.431 0 0 13.431 0 30c0 16.569 13.431 30 30 30z"/><path fill="#FFF" d="M41.97 19.735a9.375 9.375 0 013.03 6.89v15.489H24.548a7.863 7.863 0 01-5.698-2.434l-1.246-1.31A9.417 9.417 0 0115 31.878v-4.527a10.8 10.8 0 012.481-6.877l.689-.833a7.74 7.74 0 015.968-2.797h10.704c2.566 0 5.036.962 6.91 2.69l.217.201zm-2.296 2.051a7.129 7.129 0 00-4.832-1.879H24.138a4.675 4.675 0 00-3.607 1.686l-.688.831a7.735 7.735 0 00-1.78 4.927v4.527c0 1.624.628 3.19 1.762 4.38l1.245 1.311a4.8 4.8 0 003.478 1.481H45l-3.064 3.064v-15.49a6.312 6.312 0 00-2.044-4.637l-.218-.2zM36.31 35.67c.94 0 1.704-.753 1.704-1.68v-4.165c0-.928-.763-1.68-1.704-1.68-.94 0-1.704.752-1.704 1.68v4.165c0 .927.763 1.68 1.704 1.68zm-5.416 0c.941 0 1.704-.753 1.704-1.68v-2.545c0-.927-.763-1.68-1.704-1.68-.94 0-1.703.753-1.703 1.68v2.545c0 .927.763 1.68 1.703 1.68zm-5.327 0c.941 0 1.704-.753 1.704-1.68v-.924c0-.928-.763-1.68-1.704-1.68-.94 0-1.703.752-1.703 1.68v.924c0 .927.763 1.68 1.703 1.68z"/></g></svg>