<svg xmlns="http://www.w3.org/2000/svg" xmlns:xlink="http://www.w3.org/1999/xlink" width="80" height="80"><defs><path id="smartdirect-biz__b" d="M.006.932h52.068V53H.006z"/><path id="smartdirect-biz__d" d="M.006.436h52.068v41.06H.006z"/><path id="smartdirect-biz__f" d="M.016.909h13.75v13.75H.016z"/><circle id="smartdirect-biz__a" cx="40" cy="40" r="40"/></defs><g fill="none" fill-rule="evenodd"><use fill="#2CC3EC" xlink:href="#smartdirect-biz__a"/><path fill="#2CC3EC" d="M8 39.62a4.677 4.677 0 119.355 0 4.677 4.677 0 01-9.355 0"/><g transform="translate(14 12.091)"><mask id="smartdirect-biz__c" fill="#fff"><use xlink:href="#smartdirect-biz__b"/></mask><path fill="#2CC3EC" d="M.006 26.966C.006 12.588 11.662.932 26.04.932c14.378 0 26.034 11.656 26.034 26.034C52.074 41.344 40.418 53 26.04 53 11.662 53 .006 41.344.006 26.966" mask="url(#smartdirect-biz__c)"/></g><path fill="#C0E6F9" d="M22.753 27.974c2.625-1.048 4.61-.018 6.937 1.043.505.23 1.06-.14.932-.716-.752-3.376-5.921-3.07-8.416-2.314-3.643 1.104-4.49 4.571-3.474 7.851a.06.06 0 00.115 0c.73-2.316 1.458-4.886 3.906-5.864"/><path fill="#C0E6F9" d="M28.942 25.71c3.913-3.18 8.217-3.841 13.065-3.914.932-.014 1.031-1.256.211-1.556-4.198-1.536-12.36.434-13.707 5.219-.075.268.242.404.431.25m22.047 9.168c-1.24-.913-2.984-1.474-4.065-2.546a.795.795 0 00.544-.478c.627-1.736-1.261-4.703-2.921-5.312-2.385-.875-4.914-.335-6.644 1.503-.1.104 0 .258.135.23 1.609-.311 3.38-.422 4.986-.053 1.838.423 2.442 2.316 3.177 3.797.004.009.012.014.017.023-.326.086-.592.435-.505.815.329 1.44 1.982 2.106 3.122 2.87.924.622 1.777 1.349 2.642 2.048 1.655 1.336.446 4.114-.208 5.626-.044.103.067.198.156.12 1.444-1.253 3.03-3.605 2.164-5.627-.551-1.285-1.481-2.192-2.6-3.016m-6.68 4.248c-.07-.633-.723-.844-1.125-.512-.66-.523-1.307-1.067-1.96-1.592a9.786 9.786 0 01-1.052-.995c-.366-.396-.499-.911-.892-1.305-.275-.276-.773-.223-.965.124-.01.019-.013.04-.023.06-.64.002-1.234.012-1.907-.217-.882-.302-1.715-.702-2.576-1.066-.05-.021-.115.025-.08.082.566.942 1.168 2.035 2.244 2.478.732.302 1.537.486 2.32.424a3.535 3.535 0 001.284 1.59c1.034.679 2.083 1.027 3.234 1.217-.397 1.793.35 4.497 2.506 4.345.121-.01.158-.153.06-.222-1.58-1.104-.895-2.844-1.069-4.411M42.634 50.16c.703 1.302 3.269 4.839-.663 5.254-1.202.127-2.558-.222-3.733-.416-1.977-.327-3.922-.971-5.937-.717-.101.013-.102.148 0 .159 2.416.267 4.797 1.778 7.2 2.361 1.18.286 3.148.685 4.228-.11 2.583-1.903 1.48-5.02-.442-7.035-.334-.35-.874.096-.653.504m-1.266-3.718c-1.353-.202-2.37-1.32-3.188-2.33-.462-.57-1.355.161-.996.767 1.894 3.193 4.986 3.136 8.193 1.958.041-.015.037-.08-.01-.079-1.342.025-2.672-.118-3.999-.316M24.205 32.624c-.873 1.156-1.148 2.85-1.382 4.252-.14.837-.41 1.385-.838 2.109-.208.352-.252.684-.197 1.072.007.045.07.055.1.026.87-.913 1.688-1.05 2.11-2.38.24-.75.275-1.604.468-2.373.197-.782.559-1.514.68-2.31.09-.588-.582-.872-.941-.396m3.654 7.089c-.326.055-.642.396-.58.782.285 1.75 1.73 3.004 3.247 3.755 1.907.944 3.944.616 5.892.067.107-.03.119-.207 0-.23-3.161-.594-6.517-.818-8.016-4.064a.6.6 0 00-.123-.174c.21.047.428.077.666.08.569.009.719-.912.137-1.012-.723-.123-1.411-.472-2.048-.823-.526-.29-1.225-.612-1.594-1.09-.044-.058-.135-.006-.135.057-.01.868.489 1.307 1.13 1.809.47.367.923.656 1.424.843m-11.247-4.665c-1.037 1.33-.934 3.12-.104 4.525.058.097.213.034.182-.076a4.191 4.191 0 01-.08-2.124c.148-.673.538-1.25.73-1.901.117-.394-.451-.78-.728-.424m7.995 11.634a13.263 13.263 0 01-2.638-.94c-.366-.179-.757-.357-1.157-.46a.726.726 0 00-.489-.087 1.835 1.835 0 00-.584.052c-.434.116-.708.685-.438 1.078.129.187.285.343.46.472-.083 1.902.462 3.724 1.295 5.463.052.11.197.026.181-.076-.254-1.638-.201-3.264-.149-4.899 1.178.162 2.573-.126 3.519-.335.135-.03.131-.236 0-.268"/><path fill="#C0E6F9" d="M55.972 27.758c-.136-1.627-1.24-3.014-2.408-4.05-2.879-2.551-7.736-2.968-11.286-1.956-.709.2-.597 1.4.18 1.323 3.71-.373 7.56-.184 10.496 2.418 1.722 1.528 1.475 3.632 1.396 5.657-.043 1.105.53 2.092 1.118 2.975.038.059.12.02.108-.046-.372-2.183.576-4.17.396-6.321m1.891 5.597c-.433-.7-1.688-.245-1.376.58.69 1.826 1.348 3.226 1.083 5.228-.222 1.681-.004 3.06.64 4.63.038.093.205.094.194-.027-.32-3.732 1.6-6.945-.54-10.41m4.41-3.471c-.773-.395-1.428.376-1.11 1.11.233.545.38.729.756 1.188.878 1.074 1.093 2.038 1.198 3.409.128 1.647.064 3.228.395 4.856.02.095.145.06.156-.021.389-3.152 2.376-8.621-1.394-10.542m-1.96-3.423c-.85-1.264-2.543-2.064-4.032-1.834-.78.122-.76 1.2-.203 1.558 1.133.724 2.948.78 3.48 2.198.428 1.14.24 2.336.917 3.406.073.114.25.04.218-.092-.443-1.796.755-3.545-.38-5.236m-30.13 28.733c-.562.273-1.043.692-1.599.987-.686.365-1.449.562-2.214.674-.16.024-.112.268.037.273 1.394.047 3.282-.199 4.303-1.249.358-.37-.092-.897-.528-.685"/><g transform="translate(14 18.091)"><mask id="smartdirect-biz__e" fill="#fff"><use xlink:href="#smartdirect-biz__d"/></mask><path fill="#01618C" d="M49.519 24.948c.513 1.422.522 6.655-3.218 8.411a23.464 23.464 0 01-3.921 1.451c3.986-2.431 4.049-6.116 4.097-9.193.02-1.346.04-2.616.352-3.722 1.482-5.273-3.087-9.038-3.282-9.197-.04-.032-.088-.042-.131-.066l.09-.57c.218-1.314.45-2.755-.42-4.426.658.038 1.463.208 2.124.651.85.571 1.194 1.42 1.05 2.596-.474 3.874.556 4.977 1.02 5.27a1.1 1.1 0 001.514-.34 1.099 1.099 0 00-.197-1.406c-.044-.075-.186-.383-.242-1.08.918.74 1.207 2.85 1.484 4.911l.02.154c.083.62-.086 1.427-.265 2.28-.28 1.33-.595 2.837-.075 4.276m-17.2 13.575c.514-.729.71-1.467.743-2.108.656.346 1.846.825 3.555 1.041-1.73 1.37-3.28 1.351-4.298 1.067m-10.288-1.35c-1.876-.814-3.816-1.654-5.84-1.846-1.173-.112-2.3-.15-3.296-.18-3.564-.114-5.313-.264-6.103-2.398-.523-1.41-.478-2.562-.434-3.676.016-.404.032-.813.016-1.218 2.107.811 3.732.904 4.31.904.13 0 .21-.003.228-.005a1.095 1.095 0 001.023-1.158 1.108 1.108 0 00-1.154-1.032c-.023 0-2.548.102-5.703-1.77a5.638 5.638 0 00-.598-.503c-1.334-.966-2.31-3.227-2.222-5.148a4.448 4.448 0 01.39-1.67c-.021.48.257.938.736 1.094a1.096 1.096 0 001.384-.7c.416-1.27.507-2.519.587-3.62.179-2.457.309-4.232 3.55-5.752a5.023 5.023 0 015.032.42c1.01.697 1.517 1.59 1.48 2.077a1.098 1.098 0 001.014 1.175 1.098 1.098 0 001.174-1.012c.104-1.396-.825-2.945-2.422-4.046-.095-.066-.196-.114-.292-.175 2.032-1.755 6.906-5.147 13.227-4.1-1.745.496-2.913 1.09-3.047 1.159a1.097 1.097 0 001.008 1.948c.335-.175 8.297-4.175 13.82 1.133.17.163.305.313.443.465.02.027.027.062.05.09.039.044.09.067.133.104 1.235 1.449 1.07 2.446.818 3.97-.236 1.42-.528 3.184.435 5.515a1.096 1.096 0 002.027-.838c-.022-.053-.036-.102-.056-.154.82 1.244 1.544 3.03.968 5.076-.387 1.38-.411 2.855-.433 4.282-.058 3.718-.108 6.927-6.085 8.624-3.471.985-5.502-.427-5.945-.785-.495-.886-1.145-1.686-1.76-2.329.654-.082 1.34-.207 2.063-.375a1.096 1.096 0 10-.497-2.136c-3.038.708-5.323.556-6.607-.436a2.988 2.988 0 01-1.147-2.137 1.097 1.097 0 00-1.097-1.085h-.003a1.095 1.095 0 00-1.093 1.1c0 .017.005.119.017.254-3.994.294-6.558-.828-7.734-3.45.936-.15 1.673-.534 2.088-.896a1.09 1.09 0 00.11-1.527 1.106 1.106 0 00-1.54-.139c-.105.088-.82.619-1.988.393l-.028-.006a3.954 3.954 0 01-1.087-.407c.047-.284.064-.582.033-.9-.256-2.666.38-5.047.386-5.072a1.097 1.097 0 00-2.116-.578c-.031.112-.75 2.779-.453 5.86.116 1.204-1.61 2.116-1.622 2.122a1.098 1.098 0 00.488 2.08c.164 0 .33-.038.486-.116a6.504 6.504 0 001.822-1.427c.344.18.68.316 1.008.42.89 2.898 3.206 5.902 8.973 5.902.59 0 1.224-.037 1.89-.104.284.483.667.973 1.218 1.41.85.673 1.919 1.096 3.19 1.273.093.121.208.227.358.303.658.443 3.239 2.847 3.267 4.748.007.438-.096 1.1-1.066 1.797-2.242 1.61-4.808.495-7.782-.792M9.9 39.203a23.596 23.596 0 002.304-1.759c.04-.035.06-.083.094-.123l.528.019c1.008.031 2.052.064 3.157.17.088.008.179.035.267.047-2.465 1.785-4.733 1.91-6.35 1.645m-5.417-.265c-.626-.226-1.712-1.785-2.124-4.122-.24-1.366-.481-4.596 1.805-7.173.039.37.023.803.002 1.346-.048 1.204-.106 2.703.569 4.523.846 2.282 2.467 3.163 4.42 3.531-.82.578-1.714 1.12-2.528 1.487-.01.005-.02.005-.03.01-.01.005-.014.011-.022.015-.85.378-1.608.561-2.092.383M51.74 21.123c.209-.998.425-2.029.293-3.023l-.021-.152c-.391-2.921-.795-5.941-3.187-6.873a1.053 1.053 0 00-.38-.066c.215-2.146-.663-3.86-2.495-4.832-1.375-.728-3.194-.931-4.443-.595-.031-.03-.057-.06-.09-.09-2.606-2.506-5.612-3.308-8.332-3.35-.063-.046-.117-.101-.192-.135-10.32-4.585-18.298 2.135-20.227 3.994a7.169 7.169 0 00-4.693.508c-4.323 2.027-4.61 4.884-4.796 7.432-.072.025-.146.035-.215.075C1.195 15.069.167 16.852.067 19.044c-.114 2.526 1.063 5.288 2.826 6.765C.545 28.19-.444 31.55.199 35.197c.509 2.889 1.929 5.22 3.535 5.803.359.13.74.188 1.138.188.723 0 1.494-.191 2.257-.49 1.42.533 2.804.8 4.147.8 2.696 0 5.228-1.074 7.562-3.215.01-.01.014-.024.025-.034a45.93 45.93 0 012.297.938c1.958.849 4.079 1.767 6.188 1.767a6.231 6.231 0 003.123-.83 6.974 6.974 0 003.062.73c1.766 0 3.96-.74 6.124-3.343 2.087-.172 4.612-.773 7.577-2.166 5.029-2.36 5.147-8.927 4.348-11.142-.308-.853-.081-1.935.159-3.08" mask="url(#smartdirect-biz__e)"/></g><path fill="#01618C" d="M38.015 28.257c.081-.096 2.028-2.311 5.812-1.103 1.541.494 2.565 1.247 3.044 2.236.405.837.348 1.7.251 2.227a11.16 11.16 0 00-1.49-.19c-.578-.011-1.116.447-1.139 1.054a1.095 1.095 0 001.052 1.138c.047.002 4.63.22 6.923 3.524 2.056 2.96-1.34 6.254-1.484 6.39a1.097 1.097 0 101.506 1.596c1.712-1.615 4.288-5.625 1.78-9.237-1.377-1.983-3.329-3.08-5.032-3.695.18-.832.318-2.267-.376-3.727-.744-1.57-2.215-2.716-4.368-3.404-5.242-1.677-8.05 1.648-8.167 1.79a1.093 1.093 0 00.146 1.533 1.1 1.1 0 001.542-.132"/><path fill="#01618C" d="M38.535 35.93c.141 0 .275-.008.408-.017.918 1.402 2.365 2.744 4.503 3.489-.34 2.627 1.804 4.512 1.908 4.603a1.096 1.096 0 001.54-.112 1.1 1.1 0 00-.103-1.546c-.059-.052-1.19-1.089-1.162-2.444.421.052.858.09 1.321.097h.02a1.097 1.097 0 00.02-2.192c-6.313-.113-7.155-5.308-7.19-5.55a1.097 1.097 0 10-2.174.299c.047.344.136.73.264 1.143-1.084-.124-2.38-.546-3.1-1.165a1.096 1.096 0 00-1.43 1.663c1.311 1.129 3.524 1.733 5.175 1.733"/><g transform="translate(52 8.091)"><mask id="smartdirect-biz__g" fill="#fff"><use xlink:href="#smartdirect-biz__f"/></mask><path fill="#2CC3EC" d="M.016 7.784a6.875 6.875 0 1113.75-.001 6.875 6.875 0 01-13.75.001" mask="url(#smartdirect-biz__g)"/></g><path fill="#2CC3EC" d="M15.409 13.023a3.785 3.785 0 117.57.002 3.785 3.785 0 01-7.57-.002"/></g></svg>