<svg xmlns="http://www.w3.org/2000/svg" width="80" height="80"><g fill="none" fill-rule="evenodd"><circle cx="40" cy="40" r="40" fill="#005029"/><path fill="#A9CD39" d="M46.264 10.06c1.113.72 2.128 1.614 2.917 2.685 2.058 2.55 3.053 7.254 2.099 10.436-.225 1.008-.655 1.954-1.111 2.875a15.05 15.05 0 01-2.439 3.232l-7.871 7.91c-2.695-2.712-5.399-5.416-8.09-8.132-.547-.619-1.083-1.25-1.55-1.934-.627-.981-1.218-2.01-1.513-3.145-1.262-3.651-.544-7.806 1.617-10.951.444-.61.968-1.155 1.492-1.697 3.946-3.647 9.956-4.228 14.449-1.28zm-8.255 3.61c-.848.182-1.614.623-2.317 1.117-.826.665-1.554 1.498-1.944 2.496-.88 1.886-.743 4.119.114 5.99.288.638.722 1.196 1.17 1.73 1.557 1.68 3.19 3.454 4.826 5.043 1.07-.917 2.664-2.665 3.595-3.73.766-.787 1.567-1.564 2.13-2.518 1.024-1.592 1.164-3.608.795-5.427-.585-2.26-2.448-4.171-4.734-4.712a6.89 6.89 0 00-3.635.011z"/><path fill="#6FB843" d="M25.463 28.915c.81.422 1.62.86 2.325 1.446a15.44 15.44 0 012.086 1.978c.788.786 1.516 1.628 2.282 2.435.892.92 1.74 1.883 2.638 2.799.384.463.845.853 1.23 1.316.27.309.546.615.839.902.077.085.172.162.215.271-.163.277-.437.468-.644.713-.44.502-.938.952-1.367 1.465-.518.614-1.109 1.161-1.652 1.753-.859.955-1.753 1.878-2.626 2.82-.85.891-1.646 1.839-2.602 2.622-1.156.974-2.467 1.793-3.918 2.245-2.581.99-5.788.63-8.31-.42-1.255-.604-2.427-1.404-3.388-2.417-1.441-1.48-2.448-3.356-2.998-5.341-.932-2.914-.407-7.039 1.148-9.72.993-1.758 2.408-3.306 4.158-4.332a11.077 11.077 0 012.154-1.01c2.572-.88 5.976-.758 8.43.475zm-6.16 4.304c-1.19.281-2.317.886-3.146 1.792-.534.504-.936 1.132-1.255 1.79-.764 1.7-.99 3.683-.403 5.47.486 1.639 1.57 3.128 3.078 3.962 2.06 1.178 4.779.972 6.728-.318.83-.526 1.479-1.278 2.159-1.976.97-.99 1.935-1.982 2.897-2.98.3-.285.608-.564.856-.897-1.013-1.316-4.237-4.542-5.565-5.614-.71-.52-1.495-.965-2.367-1.14-.7-.226-1.443-.186-2.169-.18a4.379 4.379 0 00-.813.091z"/><path fill="#FFF" d="M56.458 28.163c3.443-.568 6.149-.343 9.093 1.735a8 8 0 011.337 1.127c4.877 4.589 4.93 13.353.076 18.006a10.857 10.857 0 01-5.488 2.977c-2.157.334-4.172.276-6.245-.411-1.562-.526-2.95-1.477-4.155-2.587-.528-.438-.967-.966-1.433-1.465-2.46-2.425-4.62-5.034-7.023-7.483 2.507-2.586 5.243-5.354 7.58-8.088 1.675-1.816 3.824-3.268 6.258-3.811zm.272 5.35c-1.122.446-2.078 1.222-2.904 2.088-.32.32-4.351 4.415-4.286 4.496 1.645 1.669 3.237 3.39 4.903 5.04.474.411.966.815 1.526 1.106 2.402 1.348 5.586.9 7.542-1.028a7.271 7.271 0 001.578-2.475c.602-1.385.607-4.042-.005-5.355-.421-1.129-1.127-2.168-2.078-2.915-.737-.616-1.633-1.018-2.561-1.241-1.301-.243-2.476-.12-3.715.284z"/><path fill="#008143" d="M39.741 42.993c.107-.072.206.025.287.09 1.893 1.928 3.82 3.824 5.715 5.749.791.804 1.612 1.582 2.37 2.419.69.681 1.24 1.49 1.76 2.306.65 1.087 1.154 2.27 1.423 3.51.973 3.698-.058 7.946-2.533 10.84-.95 1.052-2.044 2-3.316 2.637-2.026 1.097-4.381 1.544-6.671 1.349-3.591-.495-5.816-1.639-8.202-4.482-2.54-3.295-3.13-7.9-1.707-11.79.43-1.21 1.099-2.323 1.867-3.348.837-1.043 1.784-1.99 2.675-2.986l5.74-5.87c.183-.159.364-.331.592-.424zm.013 7.188c-1.5 1.293-4.025 3.958-5.142 5.46-1.558 2.017-1.911 4.884-.86 7.21.942 2.261 3.317 3.757 5.738 3.838 1.672.1 3.391-.413 4.691-1.478 2.319-1.789 2.986-5.348 1.874-7.986a8.748 8.748 0 00-1.328-2.08c-1.436-1.647-3.117-3.155-4.565-4.793-.11-.096-.249-.3-.408-.171z"/></g></svg>