<svg xmlns="http://www.w3.org/2000/svg" xmlns:xlink="http://www.w3.org/1999/xlink" width="80" height="80"><defs><circle id="aliexpress__a" cx="40" cy="40" r="40"/></defs><g fill="none" fill-rule="evenodd"><use fill="#E43225" xlink:href="#aliexpress__a"/><path fill="#FFF" fill-rule="nonzero" d="M22.928 44.803v-10.34h6.112v1.296h-4.846v3.179h4.352v1.297h-4.352v3.241h5.186v1.297h-6.452zm12.872 0l-2.099-2.747-2.099 2.747h-1.481l2.87-3.673-3.025-3.797h1.667l2.068 2.84 2.099-2.84h1.636l-2.87 3.797 2.716 3.673zm3.52-1.111v5.093h-1.266v-7.624c0-1.945 1.481-4.013 3.796-4.013 2.346 0 4.106 1.482 4.106 3.92 0 2.377-1.79 4.013-3.828 4.013-.988 0-2.315-.432-2.809-1.389zm5.309-2.624c0-1.667-1.08-2.654-2.995-2.562-.926.031-2.346.71-2.222 3.087.03.772.833 2.223 2.593 2.223 1.512 0 2.624-.865 2.624-2.748zm2.407 3.735v-7.47h1.266v.803c.617-.71 1.574-.957 2.593-.957v1.358c-.155-.03-1.667-.216-2.593 1.76v4.537h-1.266v-.03zm4.198-3.735c0-2.16 1.544-3.92 3.674-3.92 2.654 0 3.642 1.76 3.642 4.013v.617h-5.927c.093 1.42 1.359 2.161 2.532 2.13.864-.03 1.45-.278 2.068-.895l.833.864c-.772.741-1.76 1.235-2.963 1.235-2.254-.03-3.859-1.698-3.859-4.044zm3.581-2.654c-1.204 0-2.13 1.05-2.192 2.191h4.6c0-1.11-.803-2.191-2.408-2.191zm4.383 5.34l.926-.834c-.03 0 .463.494.525.525.216.185.432.309.71.37.803.217 2.253.155 2.377-.956.062-.618-.401-.957-.926-1.173-.68-.247-1.42-.34-2.1-.649-.77-.339-1.265-.926-1.265-1.79 0-2.253 3.21-2.624 4.661-1.574.062.062.772.71.741.71l-.926.74c-.463-.555-.895-.833-1.883-.833-.494 0-1.173.216-1.296.741-.186.74.648 1.019 1.204 1.173.74.185 1.543.309 2.191.71.895.556 1.111 1.76.772 2.686-.37 1.018-1.482 1.42-2.47 1.45-1.173.062-2.191-.308-3.025-1.142-.061 0-.216-.154-.216-.154zm6.513 0l.927-.834c-.031 0 .463.494.524.525.216.185.432.309.71.37.803.217 2.254.155 2.377-.956.062-.618-.401-.957-.926-1.173-.68-.247-1.42-.34-2.099-.649-.772-.339-1.266-.926-1.266-1.79 0-2.253 3.21-2.624 4.661-1.574.062.062.772.71.741.71l-.926.74c-.463-.555-.895-.833-1.883-.833-.494 0-1.173.216-1.296.741-.185.74.648 1.019 1.204 1.173.74.185 1.543.309 2.191.71.896.556 1.112 1.76.772 2.686-.37 1.018-1.482 1.42-2.47 1.45-1.172.062-2.191-.308-3.024-1.142-.062 0-.217-.154-.217-.154zm6.02-6.421v-.802h-.278v-.155h.741v.155h-.278v.802zm1.389 0v-.741l-.278.741h-.062l-.277-.741v.741h-.155v-.957h.247l.247.649.247-.649h.247v.957zm-58.773 7.471l-.926-2.47h-5l-.927 2.47H6.167l4.013-10.34h1.45l3.982 10.34h-1.265zm-3.488-8.859l-1.883 5.124h3.92l-2.037-5.124zm5.587 8.859V34.463h1.296v10.341zm3.241 0v-7.316h1.296v7.316zm2.531-9.692v-.124a1.888 1.888 0 01-1.821-1.821h-.185a1.888 1.888 0 01-1.822 1.821v.124c.988.03 1.79.833 1.822 1.82h.185c.03-.987.833-1.79 1.821-1.82z"/></g></svg>