<svg xmlns="http://www.w3.org/2000/svg" xmlns:xlink="http://www.w3.org/1999/xlink" width="60" height="60"><defs><path id="domru__a" d="M29.703 59.405c16.404 0 29.702-13.298 29.702-29.702C59.405 13.298 46.107 0 29.703 0 13.298 0 0 13.298 0 29.703c0 16.404 13.298 29.702 29.703 29.702z"/><path id="domru__c" d="M0 .066v9.04h7.444V.066H0z"/></defs><g fill="none" fill-rule="evenodd"><mask id="domru__b" fill="#fff"><use xlink:href="#domru__a"/></mask><use fill="#C1232A" xlink:href="#domru__a"/><g mask="url(#domru__b)"><path fill="#FEFEFE" d="M38.807 21.906v-6.25c0-.478-.027-.515-.488-.629-.22-.054-.443-.093-.664-.142-2.12-.462-4.265-.695-6.429-.752a38.09 38.09 0 00-5.119.19c-1.492.162-2.975.37-4.437.719-.454.108-.505.17-.505.65v12.555c0 .402.054.483.446.555 1.062.197 2.121.422 3.19.556a48.15 48.15 0 003.829.334c1.68.076 3.362.034 5.042-.131a36.509 36.509 0 004.695-.757c.384-.089.44-.17.44-.566v-6.332m1.11.006v6.171c0 .125.001.25-.008.374-.054.776-.374 1.186-1.114 1.385-1.452.39-2.93.666-4.425.775-1.643.12-3.291.214-4.937.208-2.716-.01-5.412-.297-8.063-.932-.939-.224-1.301-.709-1.301-1.684 0-3.811-.002-7.622.002-11.434 0-.533-.002-1.068.045-1.598.05-.568.377-.976.913-1.116.817-.213 1.645-.39 2.477-.534 2.17-.378 4.364-.528 6.563-.527 2.901.002 5.78.254 8.609.963.898.225 1.237.673 1.239 1.671.004 2.093 0 4.185 0 6.278"/><g transform="translate(11 34.94)"><mask id="domru__d" fill="#fff"><use xlink:href="#domru__c"/></mask><path fill="#FEFEFE" d="M2.372 5.852c.837 0 1.655.002 2.472 0 .202 0 .174-.16.175-.289.002-1.387-.002-2.775.004-4.162.001-.177-.056-.231-.225-.229a60.12 60.12 0 01-1.751 0c-.245-.003-.352.11-.352.351 0 .365.005.73-.002 1.094-.018 1.079.1 2.17-.321 3.235m3.883-.006c.272 0 .489-.01.704.003.36.022.48.154.482.522.004.712.004 1.425 0 2.137-.002.398-.155.573-.49.578-.395.007-.607-.191-.612-.592-.007-.507-.002-1.014-.002-1.544H1.125c-.008.082-.024.175-.025.269-.004.453 0 .907-.007 1.361-.004.312-.218.513-.543.526-.297.011-.537-.186-.542-.492a88.268 88.268 0 010-2.378c.003-.266.146-.38.43-.393.518-.024.682-.124.805-.642.112-.472.198-.96.216-1.444.034-.907.008-1.817.01-2.725.003-.815.106-.941.896-.955C3.455.06 4.546.067 5.637.074c.432.004.614.203.616.651.005 1.113.002 2.225.002 3.338v1.783" mask="url(#domru__d)"/></g><path fill="#FEFEFE" d="M47.184 41.211c-.518.651-1.169.926-1.953.868-1.058-.079-1.737-.736-1.866-1.809a6.71 6.71 0 01-.046-.771c-.005-1.202-.003-2.405-.002-3.607 0-.6.374-1.018.908-1.023.515-.005.92.44.921 1.017.002 1.05 0 2.102 0 3.153v.213c.007.585.15.859.512.977.496.163 1.167-.02 1.425-.41.057-.085.069-.216.069-.326.005-1.184 0-2.369.004-3.553.001-.548.26-.93.688-1.04.6-.151 1.137.28 1.14.935.007 1.372.003 2.743.002 4.115 0 .383-.006.765-.01 1.148 0 .054-.002.107-.008.16-.067.573-.315.842-.784.857-.567.019-.842-.21-.955-.793-.005-.025-.02-.048-.045-.11m-17.969-2.097c.096-.186.166-.318.232-.452.51-1.032 1.016-2.066 1.527-3.097.087-.174.183-.345.293-.504.155-.227.374-.312.64-.235a.644.644 0 01.462.556c.002.027.001.054.001.08 0 2.004.002 4.007-.001 6.01 0 .4-.264.677-.622.68-.372.001-.635-.28-.636-.694-.003-1.122-.001-2.244-.001-3.365v-.28l-.061-.01c-.04.109-.074.22-.12.324-.353.794-.711 1.585-1.06 2.38-.131.297-.317.516-.66.52-.354.003-.545-.218-.68-.527-.356-.811-.72-1.618-1.083-2.426a.536.536 0 00-.154-.216v.601c0 .962.001 1.923-.002 2.885 0 .114-.01.233-.042.34a.6.6 0 11-1.148.047.992.992 0 01-.061-.336 1256.26 1256.26 0 01-.001-5.824c.001-.579.446-.93.936-.714.177.078.33.287.423.473.485.975.946 1.962 1.416 2.945l.402.839m-5.571-.57c-.001-.668-.086-1.197-.353-1.685-.318-.58-.8-.885-1.451-.869-.665.017-1.162.354-1.4.979a4.68 4.68 0 00-.29 1.34c-.042.644.073 1.279.452 1.827.589.852 1.868.897 2.514.09.42-.525.519-1.15.528-1.682m1.256-.152c.017.901-.208 1.726-.749 2.448a2.8 2.8 0 01-4.387.153c-1.202-1.393-1.161-3.881.049-5.27 1.112-1.275 3.616-1.324 4.63.664.321.63.47 1.298.457 2.005m15.036-2.69l.22-.248c.515-.588 1.168-.668 1.87-.493.505.126.749.56.635 1.057-.121.528-.498.763-1.03.7a3.25 3.25 0 00-.983.012c-.476.09-.72.45-.72.942-.002 1.193.003 2.386-.003 3.58a.874.874 0 01-.726.88c-.454.084-.89-.143-1.03-.575-.063-.197-.069-.42-.07-.631-.005-1.648-.003-3.295-.002-4.943 0-.062.005-.124.012-.186.056-.56.228-.8.625-.847.605-.072 1.023.14 1.138.638.007.032.032.06.064.114m-4.768 6.269a1.179 1.179 0 01-1.177-1.198c.003-.67.453-1.181 1.188-1.215.648-.03 1.185.55 1.178 1.228a1.181 1.181 0 01-1.189 1.185m-1.642-23.735c-.001-.953.747-1.721 1.672-1.716.879.004 1.668.81 1.675 1.708.006.92-.757 1.706-1.66 1.708a1.685 1.685 0 01-1.687-1.7"/></g></g></svg>