<svg xmlns="http://www.w3.org/2000/svg" width="40" height="40" fill="none"><path fill="#191735" fill-rule="evenodd" d="M20 40c11.046 0 20-8.954 20-20S31.046 0 20 0 0 8.954 0 20s8.954 20 20 20z" clip-rule="evenodd"/><path fill="#FAB719" d="M18.775 6l-.096 13.156 3.737 2.209v-9.027L18.774 6z"/><path fill="#61B42C" d="M18.773 22.324V35l3.641-6.53v-3.841l-3.641-2.305z"/><path fill="#208BC9" d="M31.999 26.552L9 12.34l3.45 6.146 13.032 8.066h6.516z"/><path fill="#F77C1C" d="M18.773 6l13.224 8.066h-6.516l-3.066-1.729-3.641-6.338z"/><path fill="#D60B4C" d="M22.417 16.141l3.066-2.074h6.516l-9.583 6.338v-4.264z"/><path fill="#097F2D" d="M22.414 28.467l3.066-1.921h6.516l-13.224 8.45 3.641-6.53z"/><path fill="#5B59A1" d="M9 12.34v16.133l3.258-5.954.192-4.033L9 12.34z"/><path fill="#9F4393" d="M15.555 20.406l-3.296 2.113-3.258 5.954 9.774-6.146-3.22-1.921z"/></svg>