<svg xmlns="http://www.w3.org/2000/svg" width="40" height="40" fill="none"><circle cx="20" cy="20" r="20" fill="#28BF53"/><path fill="#ECF9F0" d="M15.414 14.088c1.216-.286 2.544.54 2.867 1.746.113 1.822.003 3.651.046 5.476.01.35.267.754.644.756 1.142-.6 2.147-1.433 3.23-2.127.513-.304.165-1.136-.593-.865-1.262.267-2.217.883-2.863-.222-.379-1.4 1.346-1.429 2.231-1.63 1.727-.395 3.606.811 3.374 2.565-.069 1.347-1.374 1.993-2.356 2.633-1.18.778-2.568 2.167-4.072 1.308-2.481-1.28-1.316-4.656-1.482-6.878 0-.42-.229-.825-.764-.75-2.59 1.603-5.062 3.388-7.622 5.038-.337.275-.27 1.083.71.833 2.007-.344 4.014-.712 6.006-1.139.523-.155 1.25.092 1.33.696.203.485-.275 1.023-.721 1.152-2.294.462-4.604.844-6.901 1.291-1.663.076-2.855-1.75-2.368-3.298.628-1.39 2.18-1.854 3.3-2.757 2.043-1.186 3.838-2.887 6.004-3.828zm10.193-.043c.668-.226 1.235.433 1.163 1.172.024 2.066-.013 4.132.004 6.198-.033.334.356.59.644.62 1.199-.63 3.195-1.9 3.375-2.274.18-.373 0-.839-.738-.714-.99.212-2.209.853-2.862-.225-.404-1.438 1.31-1.482 2.224-1.641 1.263-.22 2.766.098 3.153 1.402.618 1.37-.34 2.562-1.48 3.38-1.285.865-2.5 2.185-4.14 1.968-1.257-.202-2.095-1.425-2.055-2.652-.021-2.066 0-4.132-.01-6.198-.03-.46.29-.893.722-1.036z"/></svg>