<svg xmlns="http://www.w3.org/2000/svg" xmlns:xlink="http://www.w3.org/1999/xlink" width="80" height="80"><defs><circle id="arlight__a" cx="40" cy="40" r="40"/></defs><g fill="none" fill-rule="evenodd"><use fill="#FF0019" xlink:href="#arlight__a"/><path fill="#FFF" d="M49.006 28.7c-24.15 44.7-45.45-.3 0 0m20.325-4.8a2.067 2.067 0 00-1.65-.9h-27.3a75.459 75.459 0 00-10.35.9c-7.95 1.8-12.9 4.8-16.65 10.2-3.75 6.3-4.35 12.15-1.95 16.5 2.1 3.6 6.3 5.699 11.4 5.699a28.477 28.477 0 0013.05-3.75 32.922 32.922 0 004.65-3.599l2.55-2.401-4.575 9.301h19.35l11.7-30.15a1.499 1.499 0 00-.225-1.8"/></g></svg>