<svg xmlns="http://www.w3.org/2000/svg" width="41" height="40" fill="none"><path fill="url(#yandex-zapravki__paint0_linear)" fill-rule="evenodd" d="M20.5 40c11.046 0 20-8.954 20-20s-8.954-20-20-20S.5 8.954.5 20s8.954 20 20 20z" clip-rule="evenodd"/><mask id="yandex-zapravki__a" width="41" height="40" x="0" y="0" maskUnits="userSpaceOnUse"><path fill="url(#yandex-zapravki__paint1_linear)" fill-rule="evenodd" d="M20.5 40c11.046 0 20-8.954 20-20s-8.954-20-20-20S.5 8.954.5 20s8.954 20 20 20z" clip-rule="evenodd"/></mask><g mask="url(#yandex-zapravki__a)" opacity=".8"><path fill="url(#yandex-zapravki__paint2_radial)" d="M41.5 26.5l-4.213 3.912a16.128 16.128 0 01-12.538 4.463A19.045 19.045 0 015.624 15.75C5.412 11.075 6.9 6.612 10.087 3.212c0 0 5.5-4.212 7.413-4.212 27-1.5 24 27.5 24 27.5z"/><path fill="url(#yandex-zapravki__paint3_linear)" d="M40.5 27.5l-4.213 3.912a16.128 16.128 0 01-12.538 4.463A19.045 19.045 0 014.624 16.75C4.412 12.075 5.9 7.612 9.087 4.212c0 0 5.5-4.212 7.413-4.212 30-3.5 24 27.5 24 27.5z"/></g><defs><linearGradient id="yandex-zapravki__paint0_linear" x1="20.525" x2="20.525" y1="40" y2="-.025" gradientUnits="userSpaceOnUse"><stop stop-color="#141414"/><stop offset="1" stop-color="#232323"/></linearGradient><linearGradient id="yandex-zapravki__paint1_linear" x1="20.525" x2="20.525" y1="40" y2="-.025" gradientUnits="userSpaceOnUse"><stop stop-color="#141414"/><stop offset="1" stop-color="#232323"/></linearGradient><linearGradient id="yandex-zapravki__paint3_linear" x1="20.562" x2="20.562" y1="3.979" y2="35.854" gradientUnits="userSpaceOnUse"><stop stop-color="#70FF00"/><stop offset=".32" stop-color="#0F0"/><stop offset="1" stop-color="#0F6"/></linearGradient><radialGradient id="yandex-zapravki__paint2_radial" cx="0" cy="0" r="1" gradientTransform="matrix(17.9973 0 0 17.9936 23.602 16.937)" gradientUnits="userSpaceOnUse"><stop stop-color="#0F0" stop-opacity=".42"/><stop offset=".01" stop-color="#0F0" stop-opacity=".42"/><stop offset="1" stop-color="#0F0" stop-opacity=".1"/></radialGradient></defs></svg>