<svg xmlns="http://www.w3.org/2000/svg" xmlns:xlink="http://www.w3.org/1999/xlink" width="60" height="60"><defs><path id="dos__a" d="M30 60c16.569 0 30-13.431 30-30C60 13.431 46.569 0 30 0 13.431 0 0 13.431 0 30c0 16.569 13.431 30 30 30z"/></defs><g fill="none" fill-rule="evenodd"><use fill="#6FAC38" xlink:href="#dos__a"/><g fill="#FFF"><path d="M27.204 46.05l2.003 2.836 2.055-2.808-2.055-3.432zm5.187-3.916l-.957 3.883 2.707 2.074 1.175-3.33zm-6.418-.042l-2.791 2.706 1.21 3.303 2.692-2.117zM20.31 38.63l-3.701.809-.551 3.496 3.331-.356zm2.546 2.097l-3.307 1.942.454 3.512 3.081-1.394zm-4.399-4.966l-3.77-.279-1.416 3.21 3.3.61z"/><path d="M17.117 32.485l-3.652-1.028-1.96 2.869 3.132 1.258zm21.554 6.512l.542 3.972 3.254.79-.14-3.554zm2.119-2.577l1.632 3.62 3.327-.274-1.129-3.349z"/><path d="M42.033 33.576l2.612 2.9 3.081-1.363-2.055-2.808z"/><path d="M42.467 30.783l3.3 1.953 2.566-2.267-2.743-2.04zM11 29.906l2.828 1.979 3.171-2.3-3.402-2.004zm24.866 10.888l-.484 3.98 2.933 1.69.767-3.462zM30.024 11l-2.055 2.808 2.055 3.431 2.003-3.403zm-3.184 6.751l.957-3.882-2.707-2.074-1.175 3.33zm6.418.043l2.79-2.706-1.21-3.304-2.69 2.117zm5.662 3.461l3.702-.808.551-3.496-3.332.356zm-2.545-2.095l3.306-1.943-.453-3.512-3.081 1.394zm4.399 4.964l3.77.28 1.416-3.21-3.3-.61z"/><path d="M42.113 27.4l3.652 1.03 1.961-2.87-3.132-1.259zM20.56 20.889l-.542-3.972-3.254-.79.139 3.554zm-2.12 2.576l-1.63-3.62-3.328.275 1.129 3.349z"/><path d="M17.198 26.31l-2.612-2.9-3.081 1.362 2.055 2.809zm6.167-7.218l.484-3.98-2.934-1.691-.766 3.463zm6.903 10.761c0 .678-.558 1.228-1.247 1.228-.689 0-1.247-.55-1.247-1.228 0-.679.558-1.229 1.247-1.229.689 0 1.247.55 1.247 1.229"/><path d="M29.02 23.257l-2.028 2.686 1.264 3.122h1.309l1.485-3.122zm7.05 6.893l-2.727-1.999-3.17 1.245v1.289l3.17 1.463zm-7.05 6.392l2.03-2.685-1.264-3.122h-1.309l-1.485 3.122zm-6.898-6.681l2.727 1.999 3.17-1.246v-1.288l-3.17-1.463z"/></g></g></svg>