<svg xmlns="http://www.w3.org/2000/svg" xmlns:xlink="http://www.w3.org/1999/xlink" width="60" height="60"><defs><path id="goodline__a" d="M14.112 18.201V.345H.222v17.856h13.89z"/></defs><g fill="none" fill-rule="evenodd"><path fill="#80C244" d="M30 60c16.569 0 30-13.431 30-30C60 13.431 46.569 0 30 0 13.431 0 0 13.431 0 30c0 16.569 13.431 30 30 30z"/><path fill="#FFF" d="M39.079 30.985c1.342.863 2.631 1.801 3.798 2.89.985.92.826 2.093-.35 2.947-.976.71-2.142.888-3.277 1.065-5.88.92-11.75.823-17.59-.356a7.79 7.79 0 01-1.37-.407c-1.822-.734-2.589-2.184-1.931-4.042 1.678-4.734 4.329-8.838 8.251-12.013 3.19-2.582 6.754-1.92 9.651 1.334.99 1.113 2.187 2.037 3.224 3.11.857.887 1.675 1.828 2.071 3.088-1.001-.61-2.004-1.216-3.003-1.828-.961-.59-1.929-1.165-2.997-1.54-2.48-.871-3.26-.367-4.966 1.406-1.366 1.42-2.428 3.128-3.405 4.86-.83 1.473-.526 2.233 1.1 2.599 1.53.344 3.088.527 4.652.651.928.074 1.546-.451 2.089-1.088.708-.83 1.184-1.446 1.872-2.293.738-.643 1.926-.547 2.181-.383m3.091 9.64c-6.687 8.1-18.85 7.078-24.485.278 8.291 1.87 16.326 1.097 24.486-.278"/><g transform="translate(32.211 13.323)"><mask id="goodline__b" fill="#fff"><use xlink:href="#goodline__a"/></mask><path fill="#FFF" d="M13.82 18.201C10.165 11.541 5.888 5.415.222.45 6.602-.892 15.88 11.04 13.82 18.2" mask="url(#goodline__b)"/></g><path fill="#FFF" d="M24.758 14.255c-4.766 6.058-8.417 12.519-10.747 19.737-3.268-6.385 3.123-18.312 10.747-19.737"/></g></svg>