<svg xmlns="http://www.w3.org/2000/svg" viewBox="0 0 60 60"><path d="M60 30c0 16.6-13.4 30-30 30S0 46.6 0 30 13.4 0 30 0s30 13.4 30 30z"/><path fill="#fff" d="M36.5 28.8c0-3.5 2.8-5.2 3-5.2-1.6-2.4-4.1-2.7-5-2.7-2.1-.2-4.2 1.3-5.3 1.3-1.1 0-2.8-1.2-4.6-1.2-2.3 0-4.5 1.4-5.6 3.4-2.4 4.2-.6 10.4 1.7 13.8 1.2 1.7 2.5 3.5 4.3 3.5 1.8-.1 2.4-1.1 4.5-1.1s2.7 1.1 4.5 1.1c1.9 0 3.1-1.7 4.2-3.4 1.4-1.9 1.9-3.8 1.9-3.9.1 0-3.5-1.4-3.6-5.6zm-3.4-10.2c.9-1.2 1.6-2.8 1.4-4.4-1.4.1-3.1.9-4 2.1-.9 1-1.6 2.7-1.4 4.2 1.4.2 3-.7 4-1.9z"/></svg>