<svg xmlns="http://www.w3.org/2000/svg" xmlns:xlink="http://www.w3.org/1999/xlink" width="80" height="80"><defs><circle id="quiksilver__a" cx="40" cy="40" r="40"/></defs><g fill="none" fill-rule="evenodd"><use fill="#000" xlink:href="#quiksilver__a"/><g fill="#FFF" fill-rule="nonzero"><path d="M69 51.537H17.957c-1.8 0-2.957-1.415-2.957-2.829V37.265c2.186 0 4.114-1.028 4.886-1.543 4.5-3.214 8.357-9.642 13.243-11.7 1.414-.642 4.114-1.542 7.714-.642l4.114 4.114s-2.186-1.029-5.4-1.029c-3.728 0-10.671 2.957-10.671 10.672 0 6.3 4.371 10.671 11.443 10.671H65.4l3.6 3.729z"/><path d="M62.443 46.593h-23.4c-2.7 0-6.172-1.286-7.329-3.729 0 0 10.543-10.671 11.057-11.185 1.286-1.286 3.472-1.286 4.629 0l15.043 14.914zM39.17 38.364c-.257.257-.128.515.258.515h2.828l2.057-1.672c.386-.386.772-.386.772.129v3.343c0 .514.514.514.771.128l2.057-1.928h2.7c.257 0 .386-.258.129-.515l-5.014-4.885c-.386-.386-1.158-.386-1.415 0 0 .128-5.143 4.885-5.143 4.885z"/></g></g></svg>