<svg xmlns="http://www.w3.org/2000/svg" width="60" height="60"><g fill="none"><circle cx="30" cy="30" r="30" fill="#458500"/><path fill="#FFF" d="M23.362 29.458v5.332c0 .535-.046 1.06-.384 1.51-.47.624-1.113.784-1.835.638-.745-.15-1.268-.778-1.318-1.686-.06-1.084-.03-2.174-.033-3.261-.003-1.303 0-1.303-1.265-1.303-1.083 0-2.169.02-3.252-.01-.457-.013-.583.133-.573.582.027 1.246.013 2.493.007 3.74-.004.768-.265 1.412-.967 1.788a1.714 1.714 0 01-2.5-1.12c-.087-.356-.1-.735-.1-1.104-.007-3.397-.003-6.792-.003-10.19 0-.239.006-.478.04-.714.142-1.13.765-1.689 1.828-1.659.996.03 1.659.718 1.702 1.815.03.821.006 1.646.006 2.467 0 1.293 0 1.293 1.262 1.293 1.083 0 2.17-.02 3.252.01.444.013.59-.113.576-.568a46.223 46.223 0 010-3.105c.04-1.187.683-1.882 1.69-1.912 1.159-.033 1.84.658 1.87 1.962.027 1.273.007 2.546.007 3.82-.01.561-.01 1.116-.01 1.675zm23.39-2.674c1.262-.971 2.544-1.16 3.888-.888 1.934.392 3.175 1.803 3.493 4.12.282 2.053.083 4.055-1.43 5.661-1.427 1.52-3.782 1.753-5.507.582-.318-.216-.51-.456-.804.096-.315.59-.964.719-1.603.592-.593-.116-.993-.502-1.13-1.097a5.105 5.105 0 01-.102-1.1 3654.74 3654.74 0 01-.003-10.437c0-.293 0-.585.036-.875.123-.948.735-1.47 1.663-1.437.854.03 1.453.61 1.486 1.537.043 1.028.014 2.059.014 3.246zm.133 4.872c.033.196.06.599.166.975.264.96.913 1.486 1.794 1.506.884.02 1.553-.482 1.841-1.44.318-1.048.292-2.105-.162-3.106-.58-1.28-2.08-1.457-2.977-.373-.536.649-.652 1.427-.662 2.438zm-16.607.8c-.833 0-1.543.017-2.25-.006-.445-.013-.55.126-.412.56.401 1.248 1.708 1.818 2.925 1.238.556-.264.97-.712 1.418-1.116.59-.53 1.34-.612 1.86-.215.493.378.611 1.083.243 1.795-.72 1.395-1.99 1.997-3.445 2.2-1.448.201-2.886.095-4.179-.71-1.899-1.179-2.738-3.54-2.218-6.213.379-1.95 1.441-3.371 3.36-3.901 2.043-.57 4.02-.398 5.603 1.265.879.92 1.27 2.05 1.228 3.319-.033 1.026-.494 1.536-1.507 1.705-.912.153-1.833.053-2.626.08zm-1.056-2.278c.47 0 .94-.02 1.411.007.421.026.504-.136.375-.504-.233-.672-.668-1.132-1.382-1.245-.743-.12-1.342.149-1.74.795-.161.262-.412.58-.26.861.112.212.48.07.734.083.286.016.575.003.862.003zm9-3.538c1.143-1.223 2.813-.894 3.781-.315.767.458 1.042 1.216.738 1.961-.308.748-1.015 1.034-1.901.771-1.515-.452-1.987-.136-2.245 1.453-.215 1.346-.106 2.696-.136 4.046-.006.319.013.641-.033.95-.149.968-.807 1.523-1.732 1.493-.866-.027-1.478-.615-1.55-1.586-.057-.738-.037-1.482-.037-2.224 0-1.801-.003-3.603.016-5.408.007-.805.189-1.546 1.038-1.878.728-.276 1.38-.03 2.06.737zm-31.22 4.75c0-1.25-.006-2.5.003-3.75.01-1.153.604-1.833 1.588-1.847 1.013-.013 1.665.69 1.672 1.864.013 2.473.016 4.943 0 7.416-.007 1.243-.643 1.94-1.692 1.927-.996-.014-1.564-.714-1.57-1.943-.004-1.22 0-2.444 0-3.667zm1.613-9.217c.964-.014 1.638.628 1.66 1.573.023.998-.644 1.696-1.624 1.702-.98.01-1.634-.615-1.65-1.573-.02-1.012.628-1.69 1.614-1.702z"/></g></svg>