<svg xmlns="http://www.w3.org/2000/svg" xmlns:xlink="http://www.w3.org/1999/xlink" width="80" height="80"><defs><circle id="mybook__a" cx="40" cy="40" r="40"/></defs><g fill="none" fill-rule="evenodd"><use fill="#FACC0B" xlink:href="#mybook__a"/><path fill="#000" d="M38.713 52.543v6.88a1.98 1.98 0 003.961 0v-6.88s5.15-5.885 6.866-7.908a1.972 1.972 0 00-2.893-2.68l-5.9 6.664s-3.954-4.644-5.678-6.58a1.975 1.975 0 10-3.016 2.548l6.66 7.956zM25.706 51.32a1.983 1.983 0 003.962 0V31.625c0-1 .781-1.34 1.633-.423.851.918 6.382 6.92 7.412 8.043a2.492 2.492 0 003.961.165c1.015-1.006 6.481-7.128 7.371-8.134.89-1.006 1.696-.642 1.694.367-.01 4.655-.038 17.472-.038 19.65a1.983 1.983 0 003.961.033V28.114c0-2.858-4.283-4.335-6.707-1.631-2.424 2.703-8.109 9.054-8.109 9.054s-5.775-6.492-8.092-9.054c-2.318-2.562-7.048-1.44-7.048 1.887v22.949zM57.031 17H24.102a6.687 6.687 0 00-6.713 6.661v32.656a6.687 6.687 0 006.713 6.662h8.71a1.96 1.96 0 100-3.918h-8.71a2.759 2.759 0 01-2.758-2.74v-32.66a2.759 2.759 0 012.758-2.738h32.921a2.759 2.759 0 012.759 2.738v32.656a2.759 2.759 0 01-2.759 2.74h-8.35a1.959 1.959 0 000 3.918h8.358a6.687 6.687 0 006.72-6.656V23.661a6.687 6.687 0 00-6.72-6.66z"/></g></svg>