<svg xmlns="http://www.w3.org/2000/svg" width="40" height="40"><g fill="none" fill-rule="evenodd"><circle cx="20" cy="20" r="20" fill="#FFF"/><path fill="#0BA7BE" d="M20 36.667c-9.205 0-16.667-7.462-16.667-16.667 0-9.205 7.462-16.667 16.667-16.667 9.205 0 16.667 7.462 16.667 16.667 0 9.205-7.462 16.667-16.667 16.667zm0-3.111c7.487 0 13.556-6.07 13.556-13.556 0-7.487-6.07-13.556-13.556-13.556-7.487 0-13.556 6.07-13.556 13.556 0 7.487 6.07 13.556 13.556 13.556z"/><path fill="#FF3C44" d="M15.834 17.559c-1.268.461-2.79-.52-3.399-2.192-.608-1.673-.073-3.403 1.195-3.864 1.269-.462 2.79.52 3.4 2.192.608 1.672.073 3.402-1.196 3.864zm5.334-2.445c-1.269.462-2.79-.52-3.4-2.192-.608-1.672-.073-3.402 1.196-3.864 1.268-.461 2.79.52 3.399 2.192.608 1.672.073 3.402-1.195 3.864zm5.597 3.087c-1.21.44-2.669-.511-3.256-2.126-.588-1.614-.083-3.28 1.128-3.721 1.211-.441 2.67.51 3.257 2.125.587 1.615.082 3.28-1.129 3.722zM13.39 23.927c-1.269.462-2.756-.426-3.323-1.983-.567-1.557.002-3.193 1.27-3.655 1.27-.462 2.757.426 3.324 1.983.567 1.557-.002 3.193-1.271 3.655zm5.744-6.011c1.927-.638 3.846.941 5.704 2.01 1.858 1.068 3.979 1.29 4.703 2.636.725 1.346.402 3.615-1.459 4.641-1.86 1.026-2.588.04-5.626 1.035-3.037.996-3.3 2.49-5.248 2.628-1.948.137-3.293-.777-3.496-2.393-.31-2.314.666-2.72 2.207-5.417 1.54-2.698 1.289-4.503 3.215-5.14z"/></g></svg>