<svg xmlns="http://www.w3.org/2000/svg" xmlns:xlink="http://www.w3.org/1999/xlink" width="60" height="60"><defs><path id="motiv__a" d="M29.703 59.405c16.404 0 29.702-13.298 29.702-29.702C59.405 13.298 46.107 0 29.703 0 13.298 0 0 13.298 0 29.703c0 16.404 13.298 29.702 29.703 29.702z"/></defs><g fill="none" fill-rule="evenodd"><mask id="motiv__b" fill="#fff"><use xlink:href="#motiv__a"/></mask><use fill="#C01D1C" xlink:href="#motiv__a"/><g fill="#FA6600" mask="url(#motiv__b)"><path d="M30 60c16.569 0 30-13.431 30-30C60 13.431 46.569 0 30 0 13.431 0 0 13.431 0 30c0 16.569 13.431 30 30 30z"/></g><g fill="#FFF" mask="url(#motiv__b)"><path d="M32.806 30.823l11.977.922.418 5.412-7.966-.367 4.071 8.064-6.213 2.842-3.746-7.871-4.054 5.722-4.88-2.818 6.773-10.162a3.982 3.982 0 013.62-1.744m-5.262.97l-6.883 9.653-4.97-2.39 4.36-6.545-9.155-.647.65-6.69 8.82.823-2.977-6.326 4.952-2.695 5.504 10.874a3.814 3.814 0 01-.301 3.943M29.1 26.39l-5.037-10.692 4.61-3.003 3.57 6.988 5.183-7.425 5.57 3.921-5.171 7.054 7.073.666-.12 5.55-12.354-.818a3.952 3.952 0 01-3.323-2.242"/></g></g></svg>