<svg xmlns="http://www.w3.org/2000/svg" width="40" height="40" fill="none"><circle cx="20" cy="20" r="20" fill="#F9253F"/><path fill="#fff" fill-rule="evenodd" d="M8.996 20.967l-.685-.002c-.052-.107-.104-.22-.156-.335-.242-.534-.499-1.098-.847-1.168 0 0-.119-.017-.18-.017l-3.126-.001v-.632l3.472.002c.262.022.41.164.539.328.43.548.84 1.306.983 1.825zm-2.2 1.226c0-.156.126-.283.28-.283a.282.282 0 01.263.377.281.281 0 01-.265.19.28.28 0 01-.278-.284zm.263.615a.621.621 0 00.617-.626.63.63 0 00-.179-.445.606.606 0 00-.435-.185.623.623 0 00-.609.722c.02.132.078.253.172.35.116.119.27.184.434.184zm2.11-5.806c.166 0 .606 0 1.38 1.461.316.594.684 1.444.684 1.885 0 .44-.369 1.298-.684 1.898-.776 1.478-1.217 1.478-1.382 1.478l-4.332-.002A.837.837 0 014 22.884v-.659l1.174.001h1.073a.83.83 0 01.813-.927c.223 0 .429.088.583.247a.84.84 0 01.233.688l1.302.003c.18 0 .193-.119.193-.183l.002-.53h-.355v-.24l.355.001v-.068c.001-.47-.586-1.656-1.168-2.327l.639.002c.127 0 .232.102.24.23h-.088l-.002.689.042-.007c.15-.024.26-.135.26-.264v-.401a.464.464 0 00-.131-.328.445.445 0 00-.32-.136l-.85-.003a.657.657 0 00-.49-.178l-3.503-.002v-.655c0-.462.376-.837.836-.837l4.332.002zm-5.168 3.17l3.089.001c.082 0 .158.045.2.116l.066.149L4 20.436v-.264zm1.603 1.133l-.02.033c-.042.072-.136.118-.24.118H4.002v-.151h1.603zm28.153-.989c-.131.198-.342.378-.632.54L34 23.108h-1.085l-.717-2.09v-.658c.262-.017.423-.083.501-.2a.913.913 0 00.138-.52c0-.475-.192-.713-.577-.713h-.417l-.002 4.18h-1.066l.003-4.978 1.586.001c.277 0 .552.056.827.168.275.112.471.286.588.522.117.237.175.482.175.737 0 .309-.066.562-.197.76zm-5.957.29v-.318c0-.43.05-.745.15-.943a.51.51 0 01.49-.296c.155 0 .287.057.394.171.108.115.18.264.215.449.036.184.054.494.053.93 0 .486-.021.824-.063 1.014-.043.19-.116.331-.222.424a.512.512 0 01-.347.14.596.596 0 01-.4-.144.678.678 0 01-.22-.393c-.034-.166-.05-.51-.05-1.034zm-.301-2.315a1.89 1.89 0 00-.599.761c-.15.327-.225.84-.226 1.538 0 .954.159 1.628.477 2.022.318.395.745.592 1.279.593.524 0 .95-.19 1.281-.572.33-.38.496-1.072.497-2.073 0-.489-.038-.881-.114-1.178a1.906 1.906 0 00-.361-.745 1.84 1.84 0 00-.535-.459c-.192-.105-.445-.157-.758-.157-.379 0-.693.09-.941.27zm-2.64.808h1.247v-.972h-2.305l-.002 4.976h1.058V21.04h1.07l.001-.924h-1.07v-1.016zm-2.67-.07c.259 0 .528.167.81.5V18.28a1.84 1.84 0 00-.931-.271c-.41 0-.749.124-1.015.374-.266.25-.399.565-.4.948 0 .178.032.354.093.528.062.174.155.347.28.518.125.171.39.433.792.783.252.218.378.416.378.594 0 .12-.05.22-.148.303a.557.557 0 01-.37.123c-.328 0-.657-.18-.986-.542v1.175c.342.258.692.387 1.05.387.436 0 .794-.14 1.072-.421.277-.282.416-.642.417-1.08a1.632 1.632 0 00-.418-1.11c-.127-.14-.34-.33-.64-.572-.286-.237-.43-.441-.43-.614 0-.096.046-.182.137-.259a.465.465 0 01.31-.115zm-2.522 3.77c.278-.266.417-.633.417-1.1l.002-3.575h-1.078l-.002 3.37c0 .208-.044.373-.132.495a.422.422 0 01-.361.183.442.442 0 01-.381-.19c-.091-.126-.136-.306-.136-.54l.001-3.319h-1.073l-.002 3.49c0 .51.137.902.412 1.176.275.274.668.41 1.178.41.492.001.877-.132 1.155-.4zm-4.091-2.207c.286.133.488.297.604.49.115.195.173.448.173.762 0 .353-.126.65-.378.892-.251.242-.56.363-.926.362h-1.983l.003-4.977h1.73c.427 0 .776.12 1.048.358s.408.54.408.906c0 .298-.054.54-.162.725-.108.187-.28.347-.517.482zm-.916 1.69c.183-.003.324-.06.425-.172.1-.111.15-.27.15-.474 0-.438-.221-.657-.665-.657h-.081v-.753h.081c.18 0 .324-.058.43-.174a.656.656 0 00.162-.464c0-.446-.224-.67-.67-.67h-.358l-.002 3.363h.528z" clip-rule="evenodd"/></svg>