<svg xmlns="http://www.w3.org/2000/svg" width="60" height="60"><g fill="none" fill-rule="evenodd"><rect width="60" height="60" fill="#00458E" rx="30"/><path fill="#FFF" d="M34.626 26.48l-5.632-1.88-4.558 1.632-1.19-.464v5.238L10 25.886v-2.02l5.417-2.163 10.079 3.253-2.25.812 1.19.464-.386.14-.004 5.91 5.276 2.783.536-.29-1.232-.558-.05-2.172 6.048-2.83.002-2.735zm-17.15 3.368l-.002.152c0 6.627 5.373 12 12 12 3.242 0 6.279-1.294 8.509-3.538l-1.345-.61a10.59 10.59 0 01-7.164 2.777c-5.737 0-10.413-4.546-10.621-10.233l-1.378-.548zm4.276-7.151l-1.428-.461A11.974 11.974 0 0129.474 18c6.362 0 11.577 4.954 11.976 11.226l-1.414-.425c-.596-5.306-5.097-9.43-10.562-9.43a10.599 10.599 0 00-7.722 3.326zM37.36 29.04l-7.77 3.634.021.892 14.812 6.72 9.531-4.8v-1.454L37.36 29.04z"/></g></svg>