<svg xmlns="http://www.w3.org/2000/svg" xmlns:xlink="http://www.w3.org/1999/xlink" width="80" height="80"><defs><circle id="lamoda__a" cx="40" cy="40" r="40"/></defs><g fill="none" fill-rule="evenodd"><use fill="#000" xlink:href="#lamoda__a"/><path fill="#FFF" fill-rule="nonzero" d="M70.437 44.444c-.388.273-.64.365-.959.365-.525 0-1.369-.479-1.369-1.757 0-.776.365-1.187 1.073-1.552.456-.25.844-.502 1.255-.707v3.65zm4.335.045c-.251.092-.502.183-.776.183-.365 0-.73-.297-.73-1.346V39.56c0-1.278-.205-2.26-1.187-3.012-.616-.456-1.3-.662-2.236-.662-1.3.228-2.92 1.027-3.788 1.62-.524.388-.798.685-.798 1.095 0 .594.821 1.141 1.414 1.141.48 0 .8-.182.96-.775.182-.708.387-1.255.66-1.575.206-.274.457-.41.754-.41.844 0 1.392.798 1.392 2.236v.684c-.525.456-2.282 1.004-3.629 1.506-1.186.433-1.734 1.004-1.734 2.19 0 1.415 1.141 2.921 3.08 2.921.434 0 1.507-.753 2.374-1.323.114.274.274.57.593.844.297.274.776.48 1.392.48L75 45.22l-.228-.73zm-15.105-.068c-.502.32-.844.365-1.255.365-1.05 0-2.67-1.073-2.692-3.879 0-3.468 1.757-4.061 2.304-4.061.662 0 1.278.387 1.643 1.186v6.389zm2.92-1.05V30.205c-1.163.343-2.988.64-4.449.822v.707c1.392.16 1.529.274 1.529 1.506v2.761c-.502-.068-.753-.114-.936-.114-3.559 0-6.251 2.533-6.251 5.636 0 3.4 2.715 4.997 4.654 4.997.274 0 .594-.068 1.164-.41l1.369-.89v1.323c1.803-.525 3.948-.798 4.495-.89v-.73l-.502-.045c-.958-.115-1.072-.206-1.072-1.507zm-16.724 2.26c-1.437 0-2.327-2.214-2.327-5.02 0-2.625.912-3.834 1.87-3.834 1.438 0 2.237 1.757 2.237 4.929 0 3.354-.913 3.925-1.78 3.925zm-.16-9.744c-2.532 0-5.43 1.871-5.43 5.545 0 2.487 1.757 5.088 5.34 5.088 2.669 0 5.293-1.825 5.293-5.499 0-2.738-2.008-5.134-5.203-5.134zm-7.62 8.077v-4.403c0-2.328-1.072-3.674-3.057-3.674-.685 0-1.301.297-1.803.64-.548.387-1.095.73-1.643 1.163-.41-1.05-1.346-1.803-2.601-1.803-.662 0-1.278.274-1.985.73-.502.297-.936.616-1.438.982v-1.757a37.16 37.16 0 01-4.016.867v.661c1.05.16 1.164.388 1.164 1.689v4.791c0 1.438-.137 1.507-1.438 1.666v.73h5.363v-.73c-.867-.136-1.027-.25-1.027-1.552v-5.567c.639-.48 1.21-.73 1.757-.73.844 0 1.574.502 1.574 2.145v4.152c0 1.347-.09 1.393-1.163 1.552v.73h5.27v-.73c-1.026-.136-1.186-.25-1.186-1.552v-4.609c0-.342-.046-.661-.069-.912.753-.616 1.324-.753 1.78-.753.73 0 1.62.365 1.62 2.236v3.924c0 1.438-.182 1.53-1.186 1.666v.73h5.385v-.73c-1.21-.182-1.3-.25-1.3-1.552zm-21.037-3.376c-.776 1.574-3.354 4.472-4.244 4.472-.32 0-.616-.48-.616-1.506 0-2.26.912-4.952 2.464-6.092.388-.297 1.027-.48 1.62-.48.594 0 1.21.16 1.53.32-.161.73-.503 2.373-.754 3.286zm1.05 4.198c-.137 0-.206-.183-.046-.981.525-2.898 1.21-6.001 1.574-7.416l-.068-.091c-.251 0-.548-.069-.867-.137-.48-.091-.936-.16-1.415-.16-1.438 0-3.103.799-4.244 1.757-1.666 1.392-2.738 3.88-2.738 6.184 0 1.825.73 2.578 1.323 2.578.616 0 1.37-.41 2.122-1.026a16.408 16.408 0 002.944-3.15h.046l-.457 2.168c-.32 1.666-.023 2.008.41 2.008.571 0 2.1-.844 3.332-2.373l-.273-.547c-.662.662-1.46 1.186-1.643 1.186zM9.494 30c-.297 0-1.598.593-3.378.799l-.09.547.615.023c1.05 0 1.187.16.958 1.14a1549.57 1549.57 0 01-2.373 11.25c-.479 2.237-.114 2.761.32 2.761.707 0 2.327-1.026 3.514-2.441l-.343-.502c-.638.662-1.574 1.255-1.825 1.255-.137 0-.228-.137-.091-.8.958-4.517 1.894-8.943 2.83-13.347.09-.48.068-.685-.137-.685z"/></g></svg>