<svg xmlns="http://www.w3.org/2000/svg" xmlns:xlink="http://www.w3.org/1999/xlink" width="80" height="80"><defs><circle id="wellige__a" cx="40" cy="40" r="40"/></defs><g fill="none" fill-rule="evenodd"><use fill="#43667C" xlink:href="#wellige__a"/><g fill="#FFF"><path d="M43.706 38.209l4.37.003.005-3.581-4.372-.004.002-1.076c0-2.65.289-3.94 2.618-3.938.86 0 1.683.216 1.861.252l.147-3.403c-1.11-.252-2.364-.431-3.475-.433-5.875-.005-6.022 4.509-6.024 7.267l-.002 1.326-3.582-.003-.003 3.583 3.583.003-.009 10.49h4.872l.01-10.486zm14.391 8.43l.009-8.417 4.298.004.003-3.584-4.299-.004.005-5.23-4.874 1.537-.003 3.69-3.654-.004-.003 3.583 3.655.002-.01 9.53c0 .223 0 .553.036.949h5.06c-.223-.59-.223-1.326-.223-2.055zM13.105 27.857l-5.087-.003L8 48.695h5.087zm8.123 16.03c.004-4.3 2.334-6.053 4.483-6.05 2.15.001 4.477 1.758 4.474 6.057-.002 2.272-.654 3.833-1.586 4.8h5.646c.659-1.334 1.025-2.937 1.026-4.794.006-6.198-4.04-9.57-9.556-9.575-5.518-.004-9.568 3.36-9.574 9.557-.001 1.865.364 3.474 1.027 4.813h5.643c-.933-.97-1.584-2.532-1.583-4.808zm46.16 4.763c-.031-.295-.11-.48-.11-.539 0-.036.04-.04.103-.024.342.08.679.156 1.031.236v-.006c-.255-.218-.388-.439-.388-.592 0-.144.147-.244.367-.244.32 0 .663.173.85.447a.966.966 0 01.171.505c0 .15-.066.247-.143.3-.08.056-.207.058-.379.026-.406-.082-.788-.165-1.244-.26-.134-.027-.158-.014-.162.093l-.003.074-.092-.016zm1.83-.503c-.084-.114-.43-.28-.77-.28-.125 0-.185.038-.185.084 0 .076.12.244.353.403.038.01.14.036.247.053.33.06.4-.056.4-.14a.182.182 0 00-.046-.12zm-.125-1.525c-.233-.154-.496-.32-.704-.32-.074.004-.119.03-.161.045a.124.124 0 01-.104-.012.19.19 0 01-.1-.162c0-.074.066-.152.2-.158.087-.003.198.033.334.117.23.14.479.313.72.482.246.174.491.35.734.56l.092.394-.08.024c-.2-.31-.347-.494-.56-.659a5.782 5.782 0 00-1.01.108c-.103.02-.134.04-.134.06 0 .02.042.078.152.16l-.08.066c-.21-.131-.368-.302-.368-.433 0-.106.108-.17.403-.208a9.95 9.95 0 01.665-.06v-.004h.001z"/><path d="M66.736 28.731c.014.235.097.483.274.61-.222.064-.373.278-.308.66.07.425.442.843.782 1.089.212.155.721.417 1.192.441l.018.002c.273.344.514.734.482.898-.02.116-.253.156-.51.128-.539-.062-1.081-.325-1.605-.626-.138-.088-.142.043-.138.14.01.247.086.426.28.547.195.122.362.192.609.294.085.035.31.119.512.18.378.36.897 1.069.852 1.307-.043.231-.93.107-1.167.006-.078-.032-.425-.454-.954-.861-.403-.311-.82-.59-1.21-.818l-.006-.084c-.203-3.075-.928-5.616-1.723-6.252-.012-.01-.027.005-.018.017.665.971 1.235 3.235 1.41 5.9.005.08.011.161.014.242-.503-.263-.937-.413-1.207-.392-.155.013-.369.255-.068.71.098.152.507.6 1.314 1.092 0 .23-.005.457-.011.678-.516-.272-.96-.428-1.235-.404-.155.013-.369.253-.068.709.093.146.472.56 1.21 1.028-.143 1.305-.425 2.29-.802 2.723a.89.89 0 00-.257.039c-.38.122-.382.621-.118.767.202.11.43.032.62-.11 1.253.086 3.516 1.24 4.064 2.19.08.14.033.193-.008.209-.324.125-2.168-.019-3.204-.62-.138-.089-.142.043-.138.14.011.247.123.45.308.587.433.327 2.815 2.148 2.907 2.245-1.05-.508-2.608-.93-3.19-.921-.527.008-.848.19-1.095.54-.499.713-.435 1.914.362 2.645.548.502 1.728.89 2.264.117.633-.91-.702-2.37-1.673-1.49-.008.007-.003.02.008.02.708-.03 1.729.913 1.44 1.321-.301.422-2.081-.17-2.424-1.462-.138-.52.295-1.058 1.123-.994 1.045.082 2.426.645 3.375 1.098.52.248.688-.216.474-.535-.343-.512-2.19-1.994-2.463-2.132.557.138 1.793.206 2.241.071.208-.062.305-.178.312-.329.015-.345-.389-.821-.475-.91-.545-.58-1.777-1.585-3.984-2.339.32-.516.557-1.462.677-2.665.617.35 1.43.709 2.472.994.352.386 1.042 1.178.949 1.664-.047.247-.467.249-.729.17-.197-.602-.504-1.084-.844-1.341-.452-.342-1.068-.205-.949.503.07.423.442.842.783 1.086.215.155.57.32.928.404.072.261.151.499.192.499.048-.001.096-.108.05-.455.555.069 1.038-.11.908-.882-.075-.438-.528-1.207-.945-1.609.267.004.63-.03.809-.17.184-.146.171-.366.126-.507-.139-.426-.542-.95-.954-1.393l.001-.004c.268.006.644-.026.827-.17.184-.146.171-.365.126-.506-.126-.393-.478-.868-.856-1.285.306.018.566-.048.73-.178.184-.146.171-.365.126-.507-.096-.297-.322-.642-.588-.973.29-.049.62-.206.62-.624 0-.08-.036-.318-.21-.576.501.223-.013.006.399.182 1.862.798 1.52 1.036 1.627 1.604.004.021.033.025.042.005.124-.29.625-1.3-1.304-2.067 0 0-3.014-1.312-3.266-1.45-.14-.081-.14.044-.135.14zm.17 9.273c.081-.419 1.078.235 1.308.92-.248-.065-1.375-.572-1.308-.92zm-2.582-5.557a.026.026 0 01.025-.04c.163.023.602.154 1.19.457.007.147.012.292.016.436-.6-.349-1.118-.688-1.231-.853zm1.558 1.041l-.018-.447c.521.3 1.13.726 1.754 1.314-.263-.084-1.016-.462-1.736-.867zm-1.558 1.033c-.013-.018.003-.043.025-.04.163.024.602.153 1.188.456a17.15 17.15 0 01-.024.414c-.581-.34-1.08-.67-1.189-.83zm1.53 1.026c.01-.14.016-.28.022-.424a9.5 9.5 0 011.741 1.306c-.266-.085-1.033-.471-1.762-.882zm2.379-.462c.378.32.993 1.13.944 1.39-.042.231-.93.106-1.167.006-.078-.032-.425-.455-.954-.861-.39-.3-.792-.572-1.169-.794.006-.22.008-.444.008-.673.594.328 1.367.662 2.338.932zm.033-5.252c.63.296 1.053.681.938.923-.084.181-.44.174-.877.036l-.043-.013a4.091 4.091 0 01-.426-.17c-.63-.297-1.052-.682-.938-.924.113-.243.715-.148 1.346.148z"/><path d="M68.409 26.054c.34.387.906 1.196.813 1.683-.046.246-.467.249-.728.17-.198-.603-.505-1.085-.844-1.342-.453-.342-1.068-.206-.95.503.071.424.442.842.783 1.086.216.156.57.32.928.404.073.261.152.499.193.499.048 0 .095-.108.049-.455.556.068 1.048-.111.908-.882-.173-.955-1.08-1.702-1.115-1.717-.032-.015-.06.025-.037.05zm-1.504.851c.08-.418 1.078.236 1.308.922-.249-.066-1.375-.574-1.308-.922zm-.623 5.162c.15.09.313.035.36-.126a.417.417 0 00-.189-.452c-.15-.09-.31-.032-.357.127a.42.42 0 00.186.451zM8.22 51.735h.514l.414 1.16c.062.172.157.453.21.634h.009c.052-.176.18-.538.275-.79l.367-1.004h.518l.163 2.303h-.4l-.053-1.1c-.009-.252-.028-.542-.038-.822h-.014c-.062.209-.128.39-.257.746l-.442 1.162h-.3l-.41-1.142a11.944 11.944 0 01-.233-.762h-.019c-.01.271-.019.576-.033.828l-.062 1.09h-.385l.176-2.303zm4.72 1.227c.01.566.366.8.79.8.3 0 .485-.053.637-.119l.077.3a1.886 1.886 0 01-.771.147c-.71 0-1.132-.471-1.132-1.166s.409-1.237 1.08-1.237c.756 0 .952.657.952 1.08a.954.954 0 01-.015.194H12.94v.001zm1.228-.3c.004-.26-.11-.675-.58-.675-.43 0-.61.386-.643.676h1.223zm4.163-1.708a2.974 2.974 0 01-.48.105c-.372.058-.648.181-.824.433-.147.205-.228.514-.252.762h.014a.876.876 0 01.805-.519c.566 0 .98.404.98 1.137 0 .752-.39 1.223-1.066 1.223-.81 0-1.075-.78-1.075-1.546 0-.524.109-.957.356-1.275.22-.324.538-.467.99-.543.19-.033.414-.071.571-.123l-.019.346zm-.823 1.09a.571.571 0 00-.523.314 1.01 1.01 0 00-.115.49c0 .381.191.933.648.933.466 0 .633-.452.633-.88 0-.372-.148-.856-.643-.856zm3.303.918c.01.566.366.8.79.8.3 0 .485-.053.637-.119l.077.3a1.886 1.886 0 01-.771.147c-.71 0-1.132-.471-1.132-1.166s.409-1.237 1.08-1.237c.756 0 .952.657.952 1.08a.954.954 0 01-.015.194h-1.618v.001zm1.227-.3c.005-.26-.11-.675-.58-.675-.429 0-.61.386-.643.676h1.223zm4.154-.927v2.303h-.419v-1.975h-.79v.59c0 .647-.061 1.08-.361 1.275-.115.091-.243.143-.457.143l-.043-.328a.519.519 0 00.228-.096c.214-.156.238-.48.238-.994v-.918h1.604zm2.56 0v.775c.1-.013.257-.023.38-.023.52 0 1.067.167 1.067.78a.655.655 0 01-.243.529c-.252.214-.666.266-1.004.266a5.61 5.61 0 01-.619-.033v-2.294h.42zm-.005 2.008c.086.014.176.019.314.019.31 0 .718-.105.718-.486 0-.4-.418-.49-.732-.49-.11 0-.2.01-.3.029v.928zm6.314-2.008v.971c0 .361-.009.595-.028.923l.014.005c.143-.28.219-.443.376-.71l.719-1.189h.49v2.303h-.4v-.976c0-.376.01-.57.029-.946h-.01c-.152.3-.247.485-.386.718-.219.356-.475.8-.718 1.204h-.485v-2.303h.4zm3.917.966h.2c.35 0 .59-.162.59-.376 0-.204-.186-.338-.448-.338-.186 0-.395.066-.557.167l-.104-.257c.233-.143.5-.21.766-.21.352 0 .78.157.78.605 0 .286-.261.471-.519.523v.01c.343.034.628.238.628.576 0 .495-.509.686-.994.686-.266 0-.543-.072-.747-.186l.109-.285c.166.094.395.161.61.161.347 0 .566-.166.566-.395 0-.309-.324-.395-.671-.395h-.205l-.004-.286zm5.847-.966h.514l.414 1.16c.062.172.157.453.21.634h.01c.052-.176.18-.538.275-.79l.367-1.004h.518l.162 2.303h-.4l-.052-1.1c-.01-.252-.029-.542-.039-.822h-.013c-.063.209-.129.39-.257.746l-.443 1.162h-.3l-.409-1.142a11.944 11.944 0 01-.233-.762h-.019c-.01.271-.018.576-.033.828l-.062 1.09h-.386l.176-2.303zm6.106 1.75c0 .2.009.396.033.553h-.376l-.034-.29h-.014a.858.858 0 01-.704.342c-.467 0-.705-.328-.705-.661 0-.557.495-.862 1.385-.857v-.047c0-.186-.052-.533-.523-.53-.22 0-.443.063-.605.172l-.095-.28c.191-.12.472-.2.762-.2.704 0 .876.481.876.938v.86zm-.405-.623c-.456-.01-.975.071-.975.52 0 .275.18.399.39.399.305 0 .5-.19.566-.385a.468.468 0 00.02-.133v-.4zm4.198 1.095a1.62 1.62 0 01-.662.133c-.695 0-1.147-.47-1.147-1.175 0-.71.485-1.228 1.237-1.228.247 0 .466.062.58.124l-.094.318c-.1-.052-.257-.11-.485-.11-.529 0-.814.396-.814.871 0 .533.343.862.8.862.237 0 .394-.058.512-.11l.073.315zm3.578 0c-.11.052-.352.133-.662.133-.695 0-1.147-.47-1.147-1.175 0-.71.485-1.228 1.237-1.228.247 0 .467.062.58.124l-.094.318c-.1-.052-.257-.11-.485-.11-.529 0-.814.396-.814.871 0 .533.343.862.8.862.237 0 .394-.058.513-.11l.072.315zm2.35-2.222v.971c0 .361-.01.595-.029.923l.015.005c.142-.28.219-.443.376-.71l.718-1.189h.49v2.303h-.4v-.976c0-.376.01-.57.029-.946h-.009c-.152.3-.247.485-.385.718-.22.356-.476.8-.718 1.204h-.486v-2.303h.399zm3.712.029c.167-.029.466-.052.733-.052.39 0 1.028.066 1.028.575 0 .286-.22.467-.481.523v.01c.338.048.585.234.585.567 0 .604-.762.68-1.213.68-.257 0-.528-.018-.652-.028v-2.275zm.4 2.003c.118.01.204.014.332.014.286 0 .705-.062.705-.4 0-.333-.338-.404-.733-.404h-.305v.79zm.004-1.061h.315c.308 0 .628-.091.628-.367 0-.228-.2-.338-.619-.338-.143 0-.228.01-.324.019v.686zm5.082.78c0 .2.01.395.033.552h-.376l-.034-.29h-.013a.858.858 0 01-.704.342c-.467 0-.705-.328-.705-.661 0-.557.495-.862 1.385-.857v-.047c0-.186-.052-.533-.523-.53-.22 0-.443.063-.605.172l-.095-.28c.19-.12.47-.2.761-.2.705 0 .876.481.876.938v.86zm-.405-.624c-.456-.01-.974.071-.974.52 0 .275.18.399.39.399.304 0 .5-.19.566-.385a.466.466 0 00.018-.133v-.4z"/></g></g></svg>