<svg xmlns="http://www.w3.org/2000/svg" width="41" height="40" fill="none"><path fill="#000" fill-rule="evenodd" d="M20.5 40c11.046 0 20-8.954 20-20s-8.954-20-20-20S.5 8.954.5 20s8.954 20 20 20z" clip-rule="evenodd"/><path fill="#D6D6D6" d="M34.792 10.686l-1.099 2.24-1.095-2.24h-2.353v.432h.831V13.4h.418v-2.282h.85L33.46 13.4h.468l1.327-2.714h-.464z"/><path fill="#D6D6D6" fill-rule="evenodd" d="M14.386 10.854a10.992 10.992 0 0113.883 1.368 11.003 11.003 0 01-3.567 17.94 10.99 10.99 0 01-11.982-2.384 11.002 11.002 0 011.666-16.924zm2.497 11.187h.631l.005-2.355a1.85 1.85 0 00-3.385-1.018 1.85 1.85 0 00-3.385 1.018v2.364h.632v-2.364a1.218 1.218 0 112.435 0v2.35h.632v-2.354a1.219 1.219 0 012.435 0v2.359zm2.761-.763a1.53 1.53 0 101.702-2.545 1.53 1.53 0 00-1.702 2.545zm4.811-2.439c.219-.224.516-.356.829-.366l.013-.605a1.849 1.849 0 00-1.817 1.818v2.355h.631v-2.364c.002-.313.126-.613.344-.838zm4.425 2.466c-.241.15-.519.23-.802.231l.004.005a1.53 1.53 0 01-1.526-1.41h3.68V20a2.164 2.164 0 00-3.395-1.78 2.164 2.164 0 002.011 3.797c.494-.19.9-.556 1.143-1.026l-.554-.305c-.127.254-.32.468-.561.619zm-1.705-2.531a1.53 1.53 0 012.366.776h-2.922c.098-.311.293-.583.556-.776z" clip-rule="evenodd"/></svg>