<svg xmlns="http://www.w3.org/2000/svg" xmlns:xlink="http://www.w3.org/1999/xlink" width="80" height="80"><defs><path id="florist__a" d="M21.94.112H.349v17.057H21.94z"/></defs><g fill="none" fill-rule="evenodd"><circle cx="40" cy="40" r="40" fill="#F3F3F3"/><path fill="#FCC90B" d="M33.578 15.367c-.317 1.666-2.197 8.424-2.197 9.09.633 0 15.798 3.577 17.695 3.577 3.355-9.792.405-9.512.405-9.512-.315 0-3.378 1.783-5.782 1.177-3.815-.963-7.05-5.54-7.906-5.667-.318 0-1.583 0-2.215 1.335"/><path fill="#ABC718" d="M30.595 32.704s-1.341 1.324-.107 3.992l4.456 2.693s.83-.228 1.888-.77c-1.855-6.458-5.896-5.962-6.237-5.915"/><path d="M29.949 11.757h22.392v17.505H29.949z"/><g transform="translate(29.95 12)"><mask id="florist__b" fill="#fff"><use xlink:href="#florist__a"/></mask><path fill="#020203" d="M6.299 4.884c-.086-.464.319-.069.528.184 1.124 1.408 2.248 2.93 3.76 3.743.364.19.86.606 2.037.71 1.648.145 3.172-.54 3.934-.88.355-.16 1.39-.659 2.257-1.226a11.568 11.568 0 001.577-1.234c.28-.298.458-.963.843-1.075.316-.11.51.099.617.28.107.227.086.536.086.795 0 .222-.203 3.143-.543 4.63-.377 1.66-.833 3.339-1.073 4.668-.141.628-.176 1.555-.879 1.666-.738.147-1.793-.41-2.565-.631-6.68-1.67-11.387-1.814-12.125-1.925-.738-.075-1.863-.148-2.424-.333-.563-.148-1.301-.557-1.652-1.076-.317-.445-.352-1.22-.317-1.777 0-.296.528-2.815.598-3.186.175-.701.316-1.446.526-2.185.282-1 1.547-4.185 1.654-4.517.104-.37.104-1.001.49-1.223C4.225-.08 4.962.218 5.56.365 5.949.438 8.098.788 8.795.9c.647.105 3.302.577 3.935.724 1.335.296 2.706.703 4.042 1.038.527.148 3.01.946 3.345 1.068.12.046.286.06.344.192.11.278-.185.515-.471.475-.261-.036-2.868-.514-3.183-.589a49.567 49.567 0 00-3.66-.706c-1.25-.2-4.532-.664-4.968-.756-.467-.095-2.173-.292-2.542-.205-.318.076-.778.37-.865.688a40.081 40.081 0 01-.37 1.276C3.77 6.253 2.96 8.106 2.856 10.55c-.036.222-.109 1.556.464 1.866.58.314 1.89.36 1.97.365.353.031 4.622.418 5.266.515.872.138 3.966.627 4.633.812.564.11 2.883.666 3.48.927.564-2.408.844-4.965 1.583-7.262-.509.472-1.124.806-1.742 1.229-.715.487-1.948 1.068-2.125 1.143-.286.105-1.11.438-1.976.612-.95.195-1.938.221-2.065.202-.844-.037-1.582-.15-2.283-.592-.774-.481-1.582-1.298-2.18-2.186-.631-.926-1.335-2.26-1.582-3.297" mask="url(#florist__b)"/></g><path fill="#020203" d="M37.888 27.814c.152.03.377.31.284.725-.12.542-.826 1.031-1.55 1.213-.712.187-1.246.03-1.603-.284.09-.405.326-.78.922-1.125.416-.22 1.122-.688 1.947-.529m.305 19.848c-.088.235-.37.112-.415.062-.563-.564-.594-2.192-.653-3.41-.178-3.598.567-10.304 1.31-13.343.119-.405.258-1.96.262-2.15.005-.252.034-.525.152-.667.327-.375 2.288-.188 2.347.347.09.593-.416 1.844-.565 2.565-.505 2.474-2.349 11.118-2.438 16.596m4.014-19.227c1.958-1.064 1.364 2.568 1.484 3.007-.803-.157-1.278-.25-1.693-1.254-.297-.688-.328-1.47.209-1.753M35.93 38.793c-1.129-.502-4.246-1.849-3.833-3.884 1.219-.28 2.496.378 3.506 1.942.445-1.692-.743-3.005-2.079-3.442-.654-.223-1.752-.534-2.464-.408-2.287.47-.535 4.977.741 5.948.653.5 1.723.972 2.732.784.655-.127 2.05-.658 1.397-.94m6.204 12.3l-.742 3.347c-.293 1.274-.114 1.551.174 1.682.159.076.22.166.212.258-.004.068-.062.174-.32.203v.005c-.018 0-.068.005-.139.003-.003 0-.004.002-.005.002l-.002-.002c-.331-.002-1.107-.101-1.445-1.006-.554.752-1.351 1.198-2.275.93-1.451-.422-1.06-2.13-1.05-2.165l.735-3.256c.157-.696.323-.697.905-.697.59 0 .774.092.637.697-.001.012-.719 3.235-.719 3.235-.212.961.033 1.204.277 1.266.587.153 1.137-.497 1.445-1.042l.77-3.46c.156-.695.387-.696.914-.696.571 0 .764.092.628.697m14.53 1.54s-.682 3.026-.73 3.251c-.133.59-.374.59-.918.59-.543 0-.745-.109-.634-.598l.724-3.223c.213-.96-.07-1.16-.376-1.208-.559-.09-.96.572-1.203.986 0 0-.769 3.438-.772 3.445-.135.598-.337.6-.91.6-.572 0-.752-.111-.644-.595l.731-3.228c.214-.96-.07-1.16-.377-1.208-.557-.09-.96.572-1.202.986l-.778 3.445c-.134.598-.338.595-.903.595-.585 0-.748-.106-.638-.595.002-.014 1.07-4.76 1.075-4.783.156-.696.358-.697.912-.697.592 0 .762.094.642.637.701-.636 1.357-.686 1.778-.565.6.174.883.57 1.011.975.551-.74 1.252-1.25 2.162-.975 1.53.466 1.05 2.158 1.05 2.165m-8.917-.486c-.184 1.237-.592 1.13-1.12 1.05-.527-.082-.783-.212-.559-.699.071-.155.336-.657.192-.951-.098-.2-.333-.378-.772-.335-.662.064-1.091.885-1.363 1.924-.314 1.2-.22 2.267.514 2.478.493.144 1.157.162 1.99-.628l.004-.005c.174-.173.282-.318.519-.22.221.092.262.428.007.737-.834.935-1.732 1.14-2.638 1.07-1.02-.08-1.523-.586-1.743-.936-.368-.588-.432-1.378-.262-2.183.29-1.357.689-2.192 1.43-2.681.546-.358 1.152-.498 1.856-.442.366.028.92.116 1.377.508.529.45.626.92.568 1.313"/><path fill="#020203" d="M42.134 51.094c-.003.008-.738 3.327-.742 3.346-.293 1.274-.114 1.551.174 1.682.159.076.22.166.212.258-.01.112-.15.213-.464.213-.316 0-1.109-.103-1.447-1.008-.554.752-1.351 1.198-2.275.93-1.451-.422-1.06-2.13-1.05-2.165l.735-3.256c.157-.696.323-.697.905-.697.59 0 .774.092.637.697-.001.012-.719 3.235-.719 3.235-.212.961.033 1.204.277 1.266.587.153 1.137-.497 1.445-1.042l.77-3.46c.156-.695.387-.696.914-.696.571 0 .764.092.628.697m15.386 3.931a.774.774 0 00-.762.784c0 .432.341.784.762.784.42 0 .762-.352.762-.784a.774.774 0 00-.762-.784m-29.71-1.267c-.28 1.047-.785 2.077-1.616 1.917l-.007-.004v.004c-.887-.15-.908-1.34-.589-2.537.279-1.046.784-2.076 1.614-1.915h.009c.886.148.908 1.337.588 2.535zm1.367-2.505c-.219-.366-.815-.833-1.768-.917-.827-.073-1.413.054-1.99.434-.742.488-1.14 1.322-1.43 2.68-.17.805-.106 1.595.261 2.182.22.352.725.857 1.744.936.905.071 1.417-.062 1.993-.442.743-.49 1.142-1.321 1.43-2.68.171-.806.116-1.599-.24-2.193zm5.12 2.192c-.346 1.455-.82 2.258-1.722 2.266-.544.007-.921-.5-1.053-.753.117-.511.235-1.025.345-1.513.165-.713.596-2.243 1.564-2.243h.005c.963.003 1.171.942.86 2.243zm-.416-3.136c-.637 0-1.29.498-1.485.818.143-.638-.097-.73-.631-.73-.517 0-.76 0-.911.697-.002.002-1.689 7.496-1.69 7.502-.112.486.067.594.635.594.575 0 .76-.003.897-.597l.635-2.794c.524.73 1.506.786 1.777.784 1.522-.003 2.286-1.146 2.74-3.15.608-2.67-1.051-3.124-1.967-3.124zm29.78 3.136c-.347 1.455-.818 2.258-1.723 2.266-.542.007-.92-.5-1.051-.753l.345-1.513c.165-.713.596-2.243 1.563-2.243h.005c.963.003 1.17.942.862 2.243zm-.414-3.136c-.683 0-1.302.463-1.494.785.143-.603-.085-.697-.675-.697-.535 0-.738 0-.894.697-.004.006-1.686 7.502-1.686 7.502-.11.487.068.593.634.593.567 0 .8 0 .927-.604.002-.001.387-1.693.637-2.786.523.73 1.508.786 1.776.784 1.522-.003 2.287-1.146 2.741-3.15.607-2.67-1.052-3.124-1.966-3.124zm-47.51 3.136c-.345 1.455-.818 2.258-1.721 2.266-.32.003-.581-.172-.77-.367.267-1.17.867-3.764.867-3.764.208-.23.459-.38.764-.378.963.003 1.17.941.86 2.243zm-4.028 1.843c-.258.26-.565.438-.911.438-.825 0-1.03-.978-.72-2.28.346-1.452 1.008-2.272 1.723-2.263.394.004.628.142.748.4l-.84 3.705zm3.614-4.979c-.357 0-.717.157-1 .35l.265-1.18c.137-.605-.108-.696-.647-.696-.545 0-.761.008-.914.692l-.269 1.192c-.427-.341-1.12-.364-1.329-.364-1.522.002-2.45 1.153-2.903 3.155-.544 2.41.906 3.117 1.815 3.122.47.002.874-.192 1.168-.422 0 0-.316 1.622-.563 2.114-.156.311-.45.424-.623.502-.244.11-.27.334-.161.411.15.105.403.099.638.099 1.053 0 1.628-.6 1.9-1.66 0 0 .302-1.208.371-1.511.537.43 1.255.47 1.477.47 1.524-.003 2.288-1.146 2.742-3.15.606-2.67-1.052-3.124-1.967-3.124zm7.65.089h-1.967c-.762 0-1.756.422-2.14 1.702l-.002.005c-.323 1.1-.698 2.478-.839 2.815-.18.43-.433.958-.714 1.126v.002c-.144.082-.282.128-.318.227-.047.129.025.307.483.307l.016-.002c.426.005 1.017-.088 1.452-.537.562-.578 1.091-2.478 1.527-3.977.18-.612.58-.844 1.054-.852h.531s-1.064 4.661-1.064 4.666c-.108.486.053.595.662.595.61 0 .753-.003.89-.588l1.092-4.793c.137-.605-.111-.696-.664-.696m48.48.696c0 .005-.833 3.782-.979 4.36-.34 1.353-.463 2.422-1.7 3.3-.713.506-1.998.722-3.188.244a.425.425 0 01-.297-.425c.02-.17.157-.322.41-.298 1.729.09 2.666-.225 3.127-2.257-.35.348-1.308.627-1.904.455-1.44-.42-1.053-2.117-1.043-2.151l.728-3.228c.157-.696.397-.697.943-.697.542 0 .735.092.599.697l-.722 3.206c-.212.957.032 1.202.275 1.26.63.151 1.232-.046 1.389-.737.054-.23.82-3.73.82-3.73.155-.695.404-.698.914-.698.552 0 .763.094.627.699"/></g></svg>