<svg xmlns="http://www.w3.org/2000/svg" xmlns:xlink="http://www.w3.org/1999/xlink" width="80" height="80"><defs><circle id="amgum__a" cx="40" cy="40" r="40"/></defs><g fill="none" fill-rule="evenodd"><use fill="#FF344E" xlink:href="#amgum__a"/><g fill="#FFF"><path d="M18.145 28.528c1.353-.126 2.156-.803 1.014 2.283-.169.508-.76 1.015-1.31.973-.93-.085-.592-1.269-.423-1.818.296-1.184.085-.888.719-.973v-.465zm19.024-12.006h7.356c.677.085.55.085 1.226.17.55.084.592.041 1.353.21 2.03.465 3.763.804 5.623 1.396 1.395.465 2.494.887 3.678 1.648.38.212.76.508 1.226.634l-1.226 2.072c-.338.338-1.903.888-2.537.888-.38 0-.888-.296-1.564-.296-.296-1.353.338-1.776-1.141-2.917-.423-.338-.804-.507-1.269-.888-1.141-1.015-.592-.888-2.283-.888-.803 0-1.86.677-1.86 1.564 0 1.142-.253 2.875 1.1 3.256 1.268.38.676.718 1.733.972.338-.55.296-.338.296-1.268.887.211.803.676.634 1.395-.719.169-.973-.17-1.48.254-.634.634-.845 1.86-1.86 2.198-.592.17-1.353.042-1.353.845 0 1.015.846 2.495.085 2.875-1.057.508-1.734-.422-3.002.888-.972.972-.084 1.649.127 2.748.127.634.127.93.507 1.395 1.184 1.522 2.706.634 3.551-.55.93-1.268.465-1.606 2.326-1.606.169.592.169.338.465.803.211.339.211.423.38.888.507 1.522 2.368 1.903 1.564 0-.887-2.03-.084-.76-1.48-1.522l-1.479-.719c-.634-.38-.17-.93-1.015-1.141-.084.254-.126.719-.253.972l-.423.508c-.676.676-1.522 2.114-2.537 1.099-1.226-1.226.592-2.24.973-2.96.253-.465.127-.338-.17-.507 0 0-.042-.042-.084-.042.634 0 .677.169 1.057.084.38-.084.423-.338.803-.55l.93.804c-.042-1.014-.592-1.184-.592-2.071 0-.465.085-.339.043-.635 0-.253-.043-.126-.043-.634 0-1.31 2.368-1.31 2.664-1.522.634-.422.042 0-.042-.972.676-.127.93-.127.972.803.719.043.845.634 1.015 1.31.126.635-.085 1.142-.085 1.819h.592c.042-.254.169-1.269.254-1.522.169-.592.338-.677 1.014-.677.17.677.38.423.423 1.184.042.127.042.211.042.38v.762c0 .507-.042 1.056.043 1.521.38 2.241.76 2.326-1.269 1.903-1.141-.211-1.014.296-1.733.507.888 1.31 1.015.761 2.494.761.465.93.677 1.649 1.734 2.03.591.21.76.253.76.93 0 1.31-1.902.169-2.325.169-2.156 0-2.41.634-4.523.634-2.41 0-3.086-1.522-5.792.127-.93.592-2.283 2.79-2.79 3.89-1.395 3.128-.38 4.776 1.902 7.017.55.507 1.184 1.057 2.156 1.1 2.199.168 1.142-.212 2.621.802 0 1.776.339 2.664-.084 4.397-.465 1.86-.043 2.156 0 3.129.042.38-1.015 2.325 1.86 3.044 2.198.55 2.96-1.776 4.185-3.552.508-.718 1.015-1.86 1.565-2.452.422-.423.76-.592.887-1.183.17-.973-.169-.846.339-1.692l1.564-2.494c.634-.803 1.31-1.184 1.818-2.198 1.057-2.199-.339-1.353 1.775-2.452 0-.677.043-1.269.212-1.818.042-.127.38-.719.38-.719.38-.423 0-.253.803-.296 0 1.1.508 1.649 1.015 2.452.254.38.254.254.507.719.17.38.212.38.38.676 1.058 1.65-1.098 4.693 1.058 4.735-.38 1.691-1.818 3.594-2.833 4.947l-3.551 3.635c-.042.043-.042.085-.085.085-2.113 1.818-4.608 3.044-7.102 4.143-2.917 1.268-6.764 1.987-9.808 2.156-.423.042-.93.085-1.057.085h-2.875c-4.312-.338-7.018-.55-11.245-3.171l-3.213-2.41c-1.269-1.183-2.452-2.452-3.425-3.89-2.62-3.846-4.143-6.002-5.327-10.737-.507-2.072-.634-3.256-.634-5.58.508.337.127-.043.296.464l.507 1.395c.127.339-.084.465.466.465.676 0 .465-.93.465-1.395 1.606 0 .972 1.522 3.001 3.213 1.607 1.438.592 1.057.17 2.452-.212.677.042 1.269.084 1.818.169 2.156.423 2.917 1.86 4.186l.507.465c2.241 1.987 3.382 6.51 6.976 8.624.845.465 1.606 1.141 2.452 1.564.592.296.846.592 1.48.423-.085-1.015-1.057-1.395-1.691-2.072-3.552-3.509-.254-3.297-.761-6.383-.212-1.269-.635-1.522.084-2.621h1.395c.93-1.015.127-1.142.677-2.157.253-.465.592-.634.592-1.395 0-2.156-3.087-2.579-4.355-3.466-1.987-1.311-3.044-2.156-5.792-2.156-.634 0-.76.295-1.395.465-.676-.465-1.395-1.057-1.395-2.199 0-1.014 1.86-.76 1.86-1.86 0-.93-2.071-.338-2.494-.296-.17-.76.169-.93.423-1.649 1.057-2.959 1.818-.127 2.663-.169.972-.042.127-1.564.634-2.579.55-1.014 2.199-2.579 3.129-4.354.338-.634.592-.888 1.183-1.353 2.79-2.156 1.565-.972 2.326-3.89.211-.718.465-1.775-.677-1.775-.93 0-1.606 1.1-2.114 1.606l-.887.846c-1.142.803-1.353-.888-.55-1.776l1.48-1.352c.718-.635.634-2.283-.592-2.283-.634 0-.719.296-1.564.296 1.183-1.776 7.652-4.524 9.977-4.524l-1.903 1.226c-.38.254-.592.296-.93.592-1.268 1.226-.127 1.649-.127 2.579 0 1.099-2.156 4.523.339 3.72 1.268-.423 1.352-1.015 1.944-2.071.254-.381.127-.212.423-.508l2.79-2.367c.17-.212.17-.338.339-.592 1.183-1.818 1.522-2.41.084-2.706v-.338zM11 38.041c0 .634.55 2.24.803 2.748.423.887.677 1.733 1.057 2.578.338.677.338.381.55 1.311.634 3.298 1.522 6.13 3.297 9.005.804 1.31 3.382 4.946 4.524 6.088 3.34 3.297 6.553 5.496 11.203 6.553 3.51.803 6.722.76 10.358.422 1.818-.126 5.538-.803 7.145-1.437l1.268-.423c5.284-2.156 8.793-4.693 12.175-9.216.55-.761.846-1.268 1.311-2.114.592-1.141.719-.127 2.156-1.437.55-.465 1.142-1.226 1.48-1.945 1.395-2.96.972-11.246.972-14.924 0-1.564-.845-4.27-1.268-5.58-.677-1.987-2.41-4.693-3.847-6.3L63 22.06c-3.002-3.001-2.494-3.17-6.003-3.17-.804 0 .211.253-.592.169l-.846-.466c-3.213-1.648-8.92-2.663-12.387-2.917a37.828 37.828 0 00-3.128-.169c-1.184.043-.507 0-1.395-.253-1.015-.296-3.171-.296-4.186-.043l-1.69.677c-1.311.55-.381.465-3.13 1.522-1.056.423-2.24.972-3.17 1.522-.972.592-1.902.465-3.678.972a6.034 6.034 0 00-.93.338c-.211.127-.423.296-.676.423-1.353.719-1.269-.042-3.171 1.48-1.015.845-1.564 1.141-2.41 2.283-.423.55-.55.887-1.015 1.352C11.676 28.782 11 33.686 11 38.04z"/><path d="M42.623 21.384c-2.495-.592-1.734 1.099-1.226 1.522 1.183 1.014 1.183.211 1.86 0 0 .845.169 1.183.592 1.606.38.423.718.93 1.268 1.057.254-.211.338-.296.507-.592.635-1.184.423-1.649-.634-3.001-.296-.38-1.395-1.691-1.86-1.691-.634 0-.507.507-.507 1.099zm12.049 34.92c0 .211.465 1.649 1.944-.38.592-.846 1.48-1.438 1.48-2.58 0-.591-.719-.633-1.057-.422l-1.733 1.987c-.212.254-.634 1.015-.634 1.395zM27.53 23.244c0 .719 2.03 1.353 2.03-.93 0-.338-.339-.888-1.058-.423-.295.211-.972.846-.972 1.353z"/></g></g></svg>