<svg xmlns="http://www.w3.org/2000/svg" width="40" height="40" fill="none"><circle cx="20" cy="20" r="20" fill="#E3007C"/><path fill="#fff" fill-rule="evenodd" d="M11.204 13.373v.665c-.749-.665-2.204-.749-2.412-.166-.103.412.247.512.49.581.051.015.097.028.134.043 1.414.29 1.996.956 1.954 2.038-.124 1.372-.956 1.954-2.287 1.954h-.208c-1.082 0-1.747-.457-1.83-1.414v-.665c.499.374.956.54 1.456.582.873 0 1.081-.208 1.081-.499 0-.428-.365-.517-1.033-.68a17.33 17.33 0 01-.59-.152c-.831-.291-1.122-1.081-.873-2.08.292-.956.957-1.58 2.371-1.58 1.082.083 1.705.54 1.747 1.373zm6.587 3.025c.054.122.105.236.151.344.374.831.79 1.538 1.414 1.663.167.042.416.042.624.042.79-1.248 2.37-3.743 2.37-5.2 0-.79-.706-.956-1.58-.831-.041 1.248-.748 3.161-1.206 4.16-.499-.874-.748-1.79-.956-2.787-.208-.957-.541-1.498-1.415-1.456h-.623c.291 1.969.838 3.202 1.221 4.065zm-4.424-.363h1.539c.873-.042 1.58-.666 1.622-1.581-.042-1.331-.749-2.204-2.121-2.246-1.373 0-2.704 1.206-2.745 3.078.041 1.83 1.206 3.202 2.661 3.244 1.04 0 2.039-.707 2.08-1.996-.499.332-.873.54-1.664.54-.873-.041-1.247-.457-1.372-1.04zm.041-1.123c-.124-.957.5-1.581 1.248-1.207.5.375.291 1.165-.54 1.207h-.707zm12.312 1.206h-1.497c.124.582.499.998 1.33 1.04.79 0 1.165-.209 1.664-.541-.041 1.29-1.04 1.996-2.08 1.996-1.455-.041-2.62-1.414-2.661-3.244.041-1.872 1.372-3.078 2.745-3.078 1.372.042 2.08.915 2.121 2.246-.041.915-.749 1.54-1.622 1.58zm-.166-2.33c-.75-.374-1.373.25-1.248 1.207h.707c.832-.042 1.04-.832.54-1.206zm7.445 4.867v-3.702c.041-1.871-.915-2.703-2.704-2.703-1.705 0-2.662.915-2.662 2.703v2.496c0 .707.333 1.123 1.082 1.164h.79v-3.66c0-.707.291-1.081.79-1.081.374 0 .707.25.707.832v2.87c.042.707.458 1.08 1.206 1.122l.79-.041zm-4.7.707h-.541c.143 1.2.639 2.164 1.11 3.081.216.419.426.828.595 1.245V25.06c.042 1.498-.29 2.579-2.911 4.243-2.62 1.663-6.905 1.539-9.567-.458-.681-.545-1.14-.951-1.466-1.24a44.674 44.674 0 00-.197-.174l-.042-.042c.291-.124.666-.208 1.04-.29a.47.47 0 00.374-.541.47.47 0 00-.54-.375c-.957.167-1.747.5-2.371 1.082-.624.582-1.082 1.372-1.29 2.412a.47.47 0 00.375.54.47.47 0 00.54-.374c.125-.54.292-.998.541-1.372.083.125.333.416.998 1.04 1.207 1.164 3.702 2.87 7.57 2.87 3.827 0 8.568-2.122 8.735-6.822V23.521c.166-.268.34-.53.512-.787.6-.9 1.16-1.74 1.193-2.582 0-.707-.624-.832-1.414-.748-.057.626-.367 1.252-.677 1.878-.143.289-.286.578-.404.867-.37-.639-.495-.951-.64-1.311l-.11-.27c-.29-.79-.623-1.248-1.413-1.206zM21.228 21.4v-.624c0-.956-.582-1.497-1.913-1.58-1.623-.084-2.58.956-2.745 2.287-.084 1.04.499 1.872 1.954 2.121.915.167 1.207.458 1.082 1.04-.208.957-1.914.707-2.912-.124v.54c.042 1.04.624 1.747 2.08 1.747 1.497-.041 2.288-.79 2.537-2.038.25-1.29-.582-2.163-1.664-2.412-.873-.125-1.497-.416-1.33-1.123.332-.832 2.038-.79 2.91.166zm2.703 2.08v3.202l-.54-.041c-.79 0-1.248-.583-1.248-1.706V19.32h.582c.749.042 1.123.375 1.165.957v1.955h.374c.441-.063.62-.603.807-1.168.06-.182.12-.366.191-.537.375-.957.79-1.082 1.29-1.165.457-.042.748.125.915.374-.288.315-.412.662-.546 1.043-.08.223-.163.458-.286.704-.184.443-.402.787-.593 1.091l-.073.115c-.048.05-.083.098-.111.138a.573.573 0 01-.055.07c.328.369.655 1.22.863 1.762l.01.027c.128.255.2.467.267.663.108.314.2.584.482.917-.166.25-.499.416-.956.375-.458-.042-.79-.333-1.165-1.29a7.224 7.224 0 01-.211-.625c-.18-.591-.362-1.185-.787-1.246h-.375z" clip-rule="evenodd"/></svg>