<svg xmlns="http://www.w3.org/2000/svg" xmlns:xlink="http://www.w3.org/1999/xlink" width="60" height="60"><defs><path id="otpbank__a" d="M29.703 59.405c16.404 0 29.702-13.298 29.702-29.702C59.405 13.298 46.107 0 29.703 0 13.298 0 0 13.298 0 29.703c0 16.404 13.298 29.702 29.703 29.702z"/><path id="otpbank__c" d="M36.973.041v37.695H0V.041h36.973H0v37.695h36.973V.041z"/><path id="otpbank__e" d="M36.973 37.736V.041H0v37.695h36.973z"/></defs><g fill="none" fill-rule="evenodd"><mask id="otpbank__b" fill="#fff"><use xlink:href="#otpbank__a"/></mask><use fill="#E4E4E4" xlink:href="#otpbank__a"/><g mask="url(#otpbank__b)"><g transform="translate(11 10.142)"><mask id="otpbank__d" fill="#fff"><use xlink:href="#otpbank__c"/></mask><path fill="#FDFEFE" d="M28.939 13.057c2.643-.02 4.716-2.18 4.675-4.87-.04-2.575-2.156-4.749-4.683-4.676-2.683.078-4.736 1.77-4.73 4.754.004 2.723 2.074 4.812 4.738 4.792m-2.226 5.777c-.03-4.672-3.684-8.348-8.276-8.324-4.55.023-8.15 3.782-8.125 8.478.025 4.482 3.759 8.215 8.256 8.151 4.415-.063 8.186-3.573 8.145-8.305M18.468 3.445h-.005c0-.854-.046-1.712.014-2.563.05-.724-.233-.878-.886-.833C13.394.337 9.64 1.748 6.445 4.56 2.474 8.057.226 12.499.019 17.808c-.29 7.448 2.724 13.35 9.053 17.152 6.257 3.76 12.772 3.682 19.004-.117 5.563-3.392 8.43-8.6 8.889-15.174.044-.634-.065-.927-.8-.9-1.683.06-3.37.053-5.052.003-.677-.02-.841.21-.895.869-.678 8.341-8.838 13.443-16.42 10.152-7.627-3.31-9.625-13.335-3.614-19.441 2.06-2.093 4.572-3.311 7.521-3.442.662-.03.799-.31.773-.901-.037-.853-.01-1.71-.01-2.564" mask="url(#otpbank__d)"/></g><g transform="translate(11 10.142)"><mask id="otpbank__f" fill="#fff"><use xlink:href="#otpbank__e"/></mask><path fill="#05674B" d="M18.469 3.445c0 .855-.028 1.71.01 2.564.025.59-.112.872-.774.901-2.949.13-5.46 1.35-7.52 3.442-6.012 6.106-4.014 16.13 3.612 19.44 7.583 3.292 15.743-1.81 16.422-10.151.053-.659.217-.89.894-.87 1.683.05 3.37.058 5.051-.002.736-.027.845.266.801.9-.458 6.573-3.326 11.782-8.889 15.173-6.232 3.8-12.747 3.878-19.004.118C2.743 31.158-.271 25.256.019 17.808c.207-5.31 2.455-9.751 6.426-13.247C9.64 1.748 13.394.337 17.59.048c.653-.044.936.11.886.835-.06.85-.014 1.708-.014 2.562h.006" mask="url(#otpbank__f)"/></g><path fill="#6FB21D" d="M37.713 28.976c.04 4.732-3.73 8.242-8.145 8.305-4.497.064-8.23-3.67-8.256-8.151-.026-4.697 3.576-8.455 8.125-8.478 4.592-.024 8.246 3.652 8.276 8.324"/><path fill="#05674B" d="M39.939 23.2c-2.664.019-4.734-2.07-4.739-4.793-.005-2.985 2.048-4.676 4.731-4.754 2.527-.073 4.643 2.101 4.683 4.675.041 2.69-2.032 4.852-4.675 4.871"/></g></g></svg>