<svg xmlns="http://www.w3.org/2000/svg" xmlns:xlink="http://www.w3.org/1999/xlink" width="80" height="80"><defs><circle id="highscreen__a" cx="40" cy="40" r="40"/></defs><g fill="none" fill-rule="evenodd"><use fill="#0097D7" xlink:href="#highscreen__a"/><g fill="#FFF"><path d="M6.934 43.829H5.05V33.46h1.884v3.276c.21-.162.446-.285.7-.364.238-.071.486-.108.735-.108a3.222 3.222 0 012.343.99c.299.301.539.655.708 1.044.172.404.26.838.259 1.277v4.254H9.776v-4.254c0-.19-.038-.376-.112-.55a1.427 1.427 0 00-.773-.773 1.43 1.43 0 00-1.106 0c-.352.143-.63.422-.774.773a1.388 1.388 0 00-.077.55v4.254z"/><path fill-rule="nonzero" d="M15.256 34.396a1.21 1.21 0 01-.1.491c-.067.145-.16.277-.275.387a1.323 1.323 0 01-.387.27 1.272 1.272 0 01-.99 0 1.276 1.276 0 01-.386-.27 1.292 1.292 0 01-.271-.387 1.245 1.245 0 010-.978 1.272 1.272 0 011.663-.673c.144.066.275.158.387.27.115.11.208.242.274.387.064.16.093.331.085.503zm-.328 9.433h-1.903V36.41h1.906l-.003 7.418zm8.636-.932a3.647 3.647 0 01-.298 1.47 3.813 3.813 0 01-.812 1.198c-.35.344-.76.618-1.21.808-.466.2-.968.302-1.474.298h-.948v-1.906h.936a2.2 2.2 0 00.773-.116c.381-.133.694-.411.87-.774.087-.173.156-.354.206-.541a.84.84 0 01-.317.294c-.147.078-.3.14-.46.185-.173.05-.349.083-.527.1a5.225 5.225 0 01-.51.028 3.995 3.995 0 01-1.474-.27 3.515 3.515 0 01-2.018-2.004 4.297 4.297 0 01-.298-1.644 4.038 4.038 0 01.298-1.547c.182-.453.448-.868.785-1.222a3.76 3.76 0 011.206-.824 3.67 3.67 0 011.474-.297c.237-.001.473.027.704.085a3.7 3.7 0 01.684.247c.222.11.435.24.634.387.2.141.388.296.565.464l.735-.878h.476v6.459zm-1.934-2.843c0-.257-.052-.512-.151-.75a2.162 2.162 0 00-.387-.646 2.019 2.019 0 00-.6-.449 1.628 1.628 0 00-.726-.181 2.023 2.023 0 00-.731.131 1.667 1.667 0 00-.596.387 1.822 1.822 0 00-.387.634 2.386 2.386 0 00-.146.863 2.27 2.27 0 00.146.835c.087.235.218.45.387.634.17.169.373.3.596.387.232.096.48.144.73.143.252.008.503-.042.732-.147.226-.11.429-.263.6-.449.165-.19.296-.41.386-.645a1.97 1.97 0 00.147-.747z"/><path d="M26.886 43.829h-1.892V33.46h1.892v3.276c.21-.162.446-.285.7-.364.238-.071.486-.108.734-.108.443-.003.881.085 1.288.26.394.172.75.42 1.048.73.3.306.54.665.708 1.06.17.399.258.827.26 1.26v4.255H29.72v-4.254c0-.19-.037-.376-.112-.55a1.427 1.427 0 00-.773-.773 1.43 1.43 0 00-1.106 0c-.352.143-.63.422-.774.773-.06.177-.083.364-.07.55v4.254zm10.155 0h-4.323v-1.884h4.323c.261 0 .472-.21.472-.472a.26.26 0 00-.139-.263.804.804 0 00-.333-.061h-1.968a2.29 2.29 0 01-.92-.186 2.37 2.37 0 01-1.25-1.26 2.402 2.402 0 010-1.842 2.32 2.32 0 011.25-1.249 2.32 2.32 0 01.92-.182h3.833v1.884h-3.833a.472.472 0 00-.472.472.472.472 0 00.14.344.449.449 0 00.332.143h1.968c.312-.002.621.053.913.162.275.103.529.256.747.453a2.123 2.123 0 01.692 1.593c.003.315-.06.628-.186.917-.121.278-.293.53-.506.746a2.32 2.32 0 01-.747.507c-.289.12-.6.18-.913.178zm9.843-5.94l-1.385 1.392a1.876 1.876 0 00-.282-.522 1.934 1.934 0 00-.387-.387 1.783 1.783 0 00-1.029-.329 1.713 1.713 0 00-.73.159 1.79 1.79 0 00-.596.448c-.17.201-.3.432-.387.68-.1.281-.15.577-.147.875a1.934 1.934 0 00.534 1.323c.171.166.374.298.596.386a1.907 1.907 0 001.744-.147 1.79 1.79 0 00.387-.348c.117-.136.213-.288.286-.452l1.384 1.392a3.69 3.69 0 01-.607.696 3.825 3.825 0 01-1.582.824c-.296.072-.6.109-.905.108a3.709 3.709 0 01-1.473-.294 3.798 3.798 0 01-2.019-2.007 3.647 3.647 0 01-.298-1.47 4.23 4.23 0 01.298-1.593c.188-.477.463-.915.812-1.292.342-.365.752-.66 1.207-.87a3.48 3.48 0 011.473-.317c.308 0 .615.038.913.116a3.671 3.671 0 012.193 1.628zm2.812 5.94h-1.892V36.41h.457l.622.878a3.345 3.345 0 012.244-.866h1.67v1.883h-1.67a1.43 1.43 0 00-.561.112 1.4 1.4 0 00-.774.774 1.43 1.43 0 00-.112.56l.016 4.077z"/><path fill-rule="nonzero" d="M56.494 42.015c.072.023.146.039.22.046h.221a1.934 1.934 0 001.017-.294 1.81 1.81 0 00.689-.8l1.384 1.392a3.69 3.69 0 01-.607.696 3.813 3.813 0 01-1.582.824c-.296.072-.6.109-.905.108a3.744 3.744 0 01-2.676-1.102 3.798 3.798 0 01-.812-1.237 4.065 4.065 0 01-.298-1.578 4.196 4.196 0 01.298-1.61 3.631 3.631 0 012.019-2.037c.468-.19.968-.287 1.473-.283a3.798 3.798 0 013.106 1.617l-3.547 4.258zm.971-3.898a1.098 1.098 0 00-.259-.062 2.479 2.479 0 00-.267 0 1.866 1.866 0 00-.73.143 1.74 1.74 0 00-.596.387c-.169.184-.3.4-.387.634a2.27 2.27 0 00-.147.835v.236c0 .088.012.177.035.267 0 .089.035.178.058.259.02.077.05.151.089.22l2.204-2.92zm6.42 3.898c.072.023.146.039.22.046h.221a1.934 1.934 0 001.013-.294c.145-.096.276-.213.387-.348a1.81 1.81 0 00.286-.452l1.385 1.392a3.732 3.732 0 01-.584.696 3.817 3.817 0 01-1.582.824c-.296.072-.6.109-.905.108a3.744 3.744 0 01-2.676-1.102 3.802 3.802 0 01-.812-1.237 4.065 4.065 0 01-.298-1.578 4.2 4.2 0 01.298-1.61 3.631 3.631 0 012.018-2.037 3.84 3.84 0 011.474-.283 3.798 3.798 0 013.106 1.617l-3.55 4.258zm.97-3.898a1.098 1.098 0 00-.258-.062 2.483 2.483 0 00-.267 0c-.25-.002-.5.047-.731.143a1.74 1.74 0 00-.596.387c-.168.184-.3.4-.386.634a2.27 2.27 0 00-.147.835v.236c0 .088.011.177.034.267 0 .089.035.178.058.259.02.077.05.151.09.22l2.204-2.92z"/><path d="M70.27 43.829h-1.89V36.41h.456l.623.72a3.326 3.326 0 013.523-.608c.398.172.758.42 1.06.731a3.245 3.245 0 01.96 2.32l-.001 4.255H73.11v-4.254c0-.19-.038-.376-.112-.55a1.427 1.427 0 00-.774-.773 1.43 1.43 0 00-1.106 0 1.41 1.41 0 00-.773.773c-.075.174-.113.36-.113.55l.04 4.254z"/></g></g></svg>