<svg xmlns="http://www.w3.org/2000/svg" xmlns:xlink="http://www.w3.org/1999/xlink" width="80" height="80"><defs><circle id="luckycosmetics__a" cx="40" cy="40" r="40"/></defs><g fill="none" fill-rule="evenodd"><use fill="#E85D72" xlink:href="#luckycosmetics__a"/><path fill="#FFF" fill-rule="nonzero" d="M33.143 48.767c.045.225.045.451.09.677 2.165-1.309 2.842-1.264 3.97-.09.857-.316 1.579-.722 2.391-.813 1.038-.135 1.895.497 1.985 1.58a44.75 44.75 0 01.135 4.917c0 .631-.676.36-1.037.406-.361.045-.677-.046-.677-.542v-3.609c-.045-.812-.451-1.308-.992-1.308-.587 0-1.399.767-1.399 1.398 0 1.128-.045 2.211 0 3.339.045.676-.36.722-.857.722-.496 0-.902 0-.902-.722.045-1.128 0-2.256 0-3.384 0-.857-.406-1.353-.993-1.353-.631 0-1.353.767-1.353 1.444 0 1.127-.045 2.21 0 3.338.045.722-.406.722-.902.722-.497 0-.903 0-.858-.722.045-1.67 0-3.338 0-5.008 0-1.218.18-1.353 1.399-.992zM54.256 54c.315 1.173.09 1.489-1.038 1.534-1.398.09-2.12-.587-2.165-1.985-.045-1.128-.045-2.21-.045-3.338 0 0 0-.046-.046-.09-.45-.046-.992 0-.992-.813 0-.812.586-.586.992-.676.271-.632-.45-1.805 1.083-1.67 1.353.09.406 1.128.947 1.76h3.384c1.038 0 1.038 0 1.038 1.037 0 1.67-.046 3.339 0 5.008.045.722-.361.767-.903.767-.541 0-.902-.09-.857-.812.045-1.489 0-2.978 0-4.557h-2.842c0 1.083-.045 2.21.045 3.339 0 .225.451.45.767.586.135.045.406-.045.632-.09zm-37.624-5.504c-.271-.135-.452-.27-.677-.406-1.714-.992-3.338-.27-3.744 1.624a6.068 6.068 0 000 2.21c.315 1.715 1.714 2.482 3.383 1.805.36-.135.722-.36 1.083-.496.36 1.218.18 1.67-.948 2.03-3.022.993-5.549-.722-5.594-3.88 0-.902.09-1.894.406-2.751.812-2.21 3.474-3.158 5.594-2.076.767.361.903.858.497 1.94zm4.782 0c2.571-.045 3.338 1.895 3.067 4.15-.316 2.572-3.203 3.835-5.413 2.392-.18-.136-.361-.271-.497-.406-.992-1.354-.992-2.843-.406-4.331.497-1.354 1.67-1.805 3.249-1.805zm1.308 3.339c-.045-.18-.045-.587-.136-.948-.27-.857-1.037-1.218-1.894-.947-.677.225-1.083.857-1.083 1.85 0 .902-.045 1.804.993 2.3.135.09.315.09.496.09 1.037.046 1.624-.676 1.624-2.345zm22.24.631c-.045 1.173.406 1.76 1.444 1.76.812 0 1.67-.18 2.481-.271.27.992.18 1.218-.812 1.398-.767.136-1.534.226-2.3.136-1.625-.136-2.437-1.083-2.617-2.662a6.34 6.34 0 010-1.308c.18-2.21 1.895-3.429 4.06-2.933 1.444.361 2.436 1.985 1.985 3.429-.045.18-.451.406-.677.406-1.128.045-2.346.045-3.564.045zm2.572-1.128c.135-.947-.316-1.533-1.083-1.624-.857-.045-1.398.542-1.443 1.624h2.526zm-21.79 2.391c.451.18.812.361 1.264.451.36.09.766.09 1.127 0 .226-.045.451-.36.497-.586.045-.18-.18-.496-.361-.632-.451-.27-.903-.406-1.354-.631-.992-.451-1.353-1.083-1.263-2.03.09-.903.677-1.534 1.714-1.715a5.462 5.462 0 011.715 0c.947.18 1.082.452.812 1.58-.226-.09-.497-.226-.722-.271-.406-.09-.812-.18-1.218-.136-.27.046-.587.316-.632.542-.045.225.18.586.406.722.361.225.812.36 1.263.54 1.083.497 1.49 1.129 1.354 2.211-.09.903-.767 1.58-1.805 1.715a6.424 6.424 0 01-2.075-.09c-.902-.226-1.083-.632-.722-1.67zm39.294 0c.496.18.902.406 1.353.497.316.09.677.09.992 0 .271-.09.542-.361.587-.632.045-.18-.18-.541-.406-.677-.406-.27-.857-.36-1.308-.586-1.038-.496-1.399-1.173-1.264-2.166.136-.812.813-1.488 1.805-1.624a7.712 7.712 0 011.444 0c1.082.136 1.218.406.992 1.624-.27-.09-.496-.225-.722-.27-.45-.09-.947-.136-1.398-.09-.18 0-.451.315-.496.54-.046.181.135.497.315.587.451.271.903.406 1.399.632 1.037.451 1.489 1.173 1.353 2.12-.135.993-.767 1.624-1.895 1.805-.54.09-1.172.09-1.714 0-1.128-.226-1.308-.542-1.037-1.76zm-1.354-3.158c-.18-.09-.316-.18-.406-.225-1.443-.857-2.526-.316-2.661 1.353-.046.316 0 .677.045.993.225 1.353 1.263 1.804 2.436 1.128.18-.136.406-.226.586-.361.496.992.27 1.579-.631 1.894-2.21.858-4.106-.36-4.196-2.751-.045-.452 0-.858.045-1.309.226-2.12 2.12-3.293 4.106-2.616.947.315 1.127.857.676 1.894zm-6.316-8.533c-2.235.839-3.112.587-4.15-1.259-.958-1.594-1.916-3.104-3.113-4.614 0 1.594-.08 3.272 0 4.866.08 1.342-.638 1.342-1.516 1.342-.958 0-1.597 0-1.597-1.426.08-5.202.08-10.32 0-15.52 0-1.343.56-1.427 1.597-1.427.957 0 1.596.084 1.596 1.426-.08 3.02 0 5.957.24 9.061.798-1.09 1.516-2.181 2.314-3.272 1.277-1.762 1.916-2.013 4.23-1.342-.24.503-.399 1.006-.718 1.342-.718.923-1.437 1.846-2.235 2.6-.638.672-.718 1.175-.16 2.014 1.038 1.51 1.916 3.104 2.874 4.615.24.587.399 1.09.638 1.594zm6.738-4.069a463.818 463.818 0 012.286-7.43c.327-.99 2.287-1.485 3.021-.825.164.165.164.66.082.908-1.633 5.036-3.347 9.989-5.062 15.024-.327.99-1.796 1.156-3.593.578.082-.248.082-.495.164-.66 1.47-2.23 1.061-4.458 0-6.77-1.062-2.393-1.878-4.952-2.776-7.429-.164-.495-.245-1.073-.409-1.733.654-.083 1.143-.165 1.552-.165 1.143-.166 1.714.247 2.123 1.403.571 1.899 1.224 3.715 1.877 5.613.245.413.409.743.735 1.486zM29.57 39.877c-1.626 1.553-3.008 2.37-4.796 2.125-1.95-.327-3.17-1.39-3.332-3.433-.244-2.78-.163-5.477-.082-8.256 0-1.145 1.057-.736 1.707-.818.57 0 1.382-.163 1.382.9v6.539c.081 1.553.813 2.37 1.95 2.37 1.22 0 2.602-1.307 2.602-2.615 0-2.044.081-4.006 0-6.05-.081-1.307.813-1.144 1.625-1.225.813 0 1.545 0 1.464 1.226-.082 3.106 0 6.294 0 9.482 0 .817.243 1.717-1.138 1.717-1.057.081-1.951-.082-1.382-1.962zm-15.704-.99c1.626 0 3.089.08 4.47 0 1.139-.08 1.139.558 1.139 1.354 0 .875-.163 1.353-1.22 1.353-2.113-.08-4.226 0-6.421 0-.976 0-1.382-.398-1.382-1.433 0-4.538.081-8.995 0-13.533 0-1.274.732-1.274 1.544-1.274.895 0 1.789-.08 1.707 1.274-.08 3.503 0 7.085 0 10.588.163.477.163 1.035.163 1.671zm30.027-.689c.799 1.917.4 2.875-1.358 3.434-3.674 1.278-6.709-.479-7.188-4.312-.16-1.278-.08-2.556.16-3.834.719-3.114 3.674-4.712 6.709-3.833 1.917.48 2.316 1.358 1.677 3.514-.4-.24-.799-.48-1.198-.639-2.156-1.198-3.993-.24-4.233 2.156a9.02 9.02 0 000 2.077c.24 2.475 2.156 3.434 4.313 2.236.32-.32.719-.56 1.118-.799zm12.528 9.442c-.767 0-.947-.226-.947-.948 0-.677.315-.903 1.037-.857.587 0 .948.225.948.902.045.677-.226.947-1.038.902z"/></g></svg>