<svg xmlns="http://www.w3.org/2000/svg" xmlns:xlink="http://www.w3.org/1999/xlink" width="80" height="80"><defs><circle id="consul__a" cx="40" cy="40" r="40"/></defs><g fill="none" fill-rule="evenodd"><use fill="#613640" xlink:href="#consul__a"/><path fill="#FFF" fill-rule="nonzero" d="M40.805 48.931c-2.291-6.013-6.014-10.881-7.732-12.6-.859-.859-1.718-1.431-2.577-2.004-.573-.286-.86-.573-1.432-.859-2.577-1.432-5.44-1.718-7.732-.286C8.16 40.34 24.482 69.549 47.964 62.39l1.432-.286C20.186 71.84 7.873 40.341 21.619 32.036c1.145-.573 2.577-1.145 4.009-1.145h1.432c2.004 0 4.295.286 6.013 1.145.86.287 1.718.86 2.577 1.146.287.286.573.286.573.572l.286.287.573.572.287-.859.286-1.145 3.15-8.877v25.2zM40.518 16l-.572 1.718h-1.432l1.145.86-.286 1.717 1.432-.859 1.432.86-.573-1.719 1.145-1.145h-1.718L40.518 16zm11.741 3.15l-1.145 1.145-1.432-.859.573 1.432-1.146 1.146 1.718-.287.86 1.432.286-1.718 1.718-.287-1.718-.286.286-1.718zm8.591 8.59l-1.718.287-.86-1.432-.286 1.718-1.718.573 1.432.86v1.717l1.146-1.145 1.431.573-.859-1.432 1.432-1.718zM64 39.483l-1.718-.573v-1.72l-.86 1.431-1.717-.286.859 1.432-.86 1.432 1.719-.573.859 1.145v-1.718L64 39.482zm-3.15 11.74l-1.145-1.145.859-1.432-1.432.573-1.146-1.146v1.718l-1.431.86 1.718.286.286 1.718.86-1.432h1.431zm-8.59 8.591l-.287-1.718 1.432-.86-1.718-.286-.287-1.718-.859 1.432h-1.718l1.145 1.146-.572 1.718 1.431-.86 1.432 1.146zm-11.742 3.15l.573-1.718h1.718l-1.145-.86.286-1.717-1.432.859-1.431-.86.572 1.719-1.431.859 1.718.286.572 1.432zm-11.74-3.15l1.145-1.145 1.432.572-.573-1.431 1.146-1.146H30.21l-.86-1.432-.286 1.432-1.718.286 1.432.86v2.004zm-8.591-8.59l1.718-.287.86 1.432.286-1.718 1.718-.573-1.432-.573v-1.718l-1.146 1.145-1.431-.572.859 1.431-1.432 1.432zm-3.15-11.741l1.718.572v1.718l.86-1.145 1.717.286-.859-1.431.86-1.432-1.719.572-1.145-1.145v1.718l-1.432.287zm3.436-12.028L21.62 28.6l-.86 1.432 1.432-.573 1.146 1.145v-1.718l1.432-.859-1.718-.286-.287-1.718-.859 1.431h-1.432zm8.305-8.304l.286 1.718-1.432.86 1.718.286.573 1.718.573-1.432h1.718l-1.145-1.432.572-1.432-1.431.86-1.432-1.146z"/></g></svg>