<svg xmlns="http://www.w3.org/2000/svg" xmlns:xlink="http://www.w3.org/1999/xlink" width="60" height="60"><defs><path id="starlink__a" d="M29.703 59.405c16.404 0 29.702-13.298 29.702-29.702C59.405 13.298 46.107 0 29.703 0 13.298 0 0 13.298 0 29.703c0 16.404 13.298 29.702 29.703 29.702z"/><path id="starlink__c" d="M0 .232v34.923h35.211V.232H.001v34.923h35.21V.232H.001z"/><path id="starlink__e" d="M31.449.232H.208v10.74h31.24V.233z"/><path id="starlink__g" d="M11.383 15.59V.042H.018V15.59h11.365z"/></defs><g fill="none" fill-rule="evenodd"><mask id="starlink__b" fill="#fff"><use xlink:href="#starlink__a"/></mask><use fill="#F48123" xlink:href="#starlink__a"/><g mask="url(#starlink__b)"><g transform="translate(12 12.002)"><mask id="starlink__d" fill="#fff"><use xlink:href="#starlink__c"/></mask><path fill="#FDFDFC" d="M32.283 26.183c-4.417.72-4.88.655-8.905-1.528-.457-.248-.636.01-.906.2-2.152 1.506-4.517 1.837-7.06 1.31-1.175-.243-2.191-.859-3.411-1.456 5.464 8.023 16.08 6.908 20.282 1.474m-2.38-16.297c-.431.026-.864.038-1.293.08a5.783 5.783 0 00-2.44.8c-2.837 1.7-2.908 5.356-.132 7.15 1.358.879 2.923 1.33 4.368 2.03.441.214.827.522.756 1.072-.077.594-.542.837-1.076.92-.92.145-1.778-.066-2.643-.398-.637-.244-1.142-1.138-1.8-.806-.566.285-.88 1.064-1.305 1.625-.071.094-.13.198-.213.28-.44.44-.33.756.133 1.14 2.08 1.723 5.953 2.193 8.368.964 2.42-1.232 4.114-4.995.503-7.4-.89-.592-1.881-.956-2.878-1.318-.55-.2-1.093-.427-1.616-.69-.398-.199-.741-.526-.674-1.008.071-.508.458-.792.944-.941.838-.257 1.617-.018 2.42.21.667.19 1.243 1.09 1.853.716.564-.344.811-1.202 1.198-1.833.02-.033.036-.07.062-.1.55-.64.238-1-.379-1.354a8.442 8.442 0 00-4.156-1.14m-28.28.217c.297-.053.35-.046.372-.069.221-.218.436-.444.656-.664 2.671-2.686 5.918-4.118 9.709-4.09 4.408.031 7.994 1.925 10.828 5.228.459.535.66.662 1.222.097 1.108-1.116 2.527-1.637 4.096-1.862 1.423-.204 2.796.051 4.356.302C29.085 3.242 23.906.058 17.102.239 10.173.424 5.05 3.854 1.623 10.102m18.223-1.067c.071.051.14.105.216.149.01.005.05-.04.077-.061l-.272-.111c-.125-.136-.23-.3-.378-.405C15.307 5.68 9.663 5.635 5.43 8.49 1.095 11.415-.879 16.583.37 21.742c3.012 12.45 18.15 17.587 28.156 9.55.286-.23.715-.371.712-.854-.464-.25-.853.027-1.225.192-4.882 2.166-12.853 1.065-16.913-5.176-1.727-2.654-2.866-5.415-2.397-8.727.52-3.667 3.232-6.854 6.82-7.662 1.45-.327 2.881-.133 4.323-.03" mask="url(#starlink__d)"/></g><path fill="#FFF" d="M31.847 21.039c-1.441-.104-2.873-.298-4.324.03-3.587.807-6.3 3.994-6.82 7.662-.469 3.312.67 6.073 2.398 8.727 4.06 6.242 12.031 7.343 16.914 5.176.372-.165.761-.442 1.225-.191.003.482-.426.624-.713.853-10.007 8.038-25.145 2.9-28.158-9.55-1.248-5.16.726-10.328 5.062-13.253 4.232-2.856 9.877-2.811 14.06.117.148.104.253.269.378.405l-.022.024z"/><g transform="translate(13.416 12.002)"><mask id="starlink__f" fill="#fff"><use xlink:href="#starlink__e"/></mask><path fill="#FFF" d="M.208 10.103C3.635 3.854 8.758.424 15.688.239c6.804-.18 11.983 3.003 15.76 8.805-1.56-.25-2.932-.506-4.356-.301-1.569.225-2.988.746-4.096 1.861-.561.566-.763.439-1.222-.096-2.835-3.304-6.42-5.198-10.83-5.23-3.79-.027-7.037 1.405-9.709 4.091-.22.221-.434.446-.655.665-.023.023-.076.016-.372.069" mask="url(#starlink__f)"/></g><g transform="translate(35.83 21.846)"><mask id="starlink__h" fill="#fff"><use xlink:href="#starlink__g"/></mask><path fill="#FFF" d="M6.074.042a8.439 8.439 0 014.157 1.14c.616.354.93.714.378 1.354-.025.029-.041.066-.061.1-.387.631-.634 1.488-1.198 1.833-.61.373-1.187-.526-1.854-.716-.803-.228-1.581-.467-2.42-.21-.486.148-.873.433-.944.941-.067.482.276.81.674 1.009.523.262 1.066.49 1.617.69.996.361 1.987.725 2.877 1.318 3.612 2.404 1.918 6.167-.503 7.4-2.415 1.228-6.288.759-8.368-.965-.462-.384-.573-.7-.133-1.14.082-.081.142-.186.213-.28.425-.56.739-1.34 1.305-1.625.658-.331 1.163.562 1.8.806.866.332 1.724.544 2.643.4.535-.085 1-.328 1.076-.921.072-.55-.314-.86-.756-1.073-1.445-.7-3.01-1.151-4.368-2.03C-.567 6.28-.496 2.623 2.34.923a5.783 5.783 0 012.44-.8c.43-.042.862-.055 1.293-.08" mask="url(#starlink__h)"/></g><path fill="#FFF" d="M44.285 38.187c-4.203 5.435-14.82 6.55-20.283-1.474 1.22.597 2.236 1.213 3.412 1.457 2.542.526 4.907.195 7.06-1.312.27-.19.449-.447.905-.2 4.026 2.184 4.489 2.25 8.906 1.53M31.869 21.015l.271.137c-.026.026-.067.083-.077.076-.075-.055-.144-.121-.216-.184l.022-.03"/></g></g></svg>