<svg xmlns="http://www.w3.org/2000/svg" width="41" height="40" fill="none"><path fill="#5E31C1" fill-rule="evenodd" d="M20.5 40c11.046 0 20-8.954 20-20s-8.954-20-20-20S.5 8.954.5 20s8.954 20 20 20z" clip-rule="evenodd"/><path fill="#fff" fill-rule="evenodd" d="M22.07 17.234l1.309-.756a.19.19 0 01.187 0l.578.334a.186.186 0 01.068.254.187.187 0 01-.068.068l-3.097 1.788a.188.188 0 01-.253-.068.188.188 0 01-.026-.093v-3.576a.187.187 0 01.28-.16l.65.377a.187.187 0 01.093.16v1.51a.187.187 0 00.279.162zm-4.451 6.48l1.309-.757a.188.188 0 01.253.068c.017.029.025.06.026.093v1.512a.188.188 0 00.093.16l.652.378a.187.187 0 00.279-.161V21.65l-.467-.268-2.909 1.674a.187.187 0 000 .323l.578.333a.188.188 0 00.186.002zm5.76 0l-1.31-.757a.188.188 0 00-.278.16v1.513a.188.188 0 01-.093.16l-.65.378a.187.187 0 01-.28-.161V21.65l.467-.268 2.91 1.674a.187.187 0 010 .323l-.58.333a.19.19 0 01-.186.002zm-5.76-7.234l1.308.756a.186.186 0 00.254-.069.186.186 0 00.025-.093v-1.511a.187.187 0 01.093-.161l.653-.378a.188.188 0 01.276.161v3.577a.186.186 0 01-.279.16l-3.094-1.787a.187.187 0 010-.323l.578-.334a.19.19 0 01.187 0l-.002.002z" clip-rule="evenodd" opacity=".6"/><path fill="#fff" fill-rule="evenodd" d="M20.766 19.771v1.386a.187.187 0 00.279.162l1.854-1.069a.187.187 0 01.28.162v1.405a.187.187 0 00.098.161l1.374.792a.185.185 0 00.185-.001.186.186 0 00.093-.16v-5.01a.186.186 0 00-.186-.186.185.185 0 00-.092.024l-3.784 2.178a.187.187 0 00-.101.156zm-.63-.162l-3.785-2.172a.188.188 0 00-.278.161v5.01a.187.187 0 00.28.16l1.371-.791a.187.187 0 00.093-.162v-1.404a.188.188 0 01.28-.161l1.852 1.07a.187.187 0 00.276-.162V19.77a.187.187 0 00-.088-.162zm6.988 3.23c.476 0 .933-.182 1.278-.51.333-.363.437-.747.437-1.522 0-.774-.104-1.16-.437-1.522a1.86 1.86 0 00-2.556 0c-.337.363-.436.74-.436 1.522 0 .783.104 1.16.436 1.522.345.328.802.51 1.278.51zm.005-2.97c.117 0 .232.039.325.11.156.246.22.54.178.828.043.288-.02.583-.178.828a.532.532 0 01-.65 0c-.156-.155-.178-.436-.178-.828 0-.392.022-.672.177-.827a.533.533 0 01.326-.111zm3.407 2.97a2.172 2.172 0 01-1.73-.577l.784-.783a1.295 1.295 0 00.968.333c.177 0 .517-.052.517-.259 0-.112-.052-.23-.288-.25l-.613-.06c-.687-.067-1.152-.377-1.152-1.153 0-.879.792-1.314 1.584-1.314a2.082 2.082 0 011.566.486l-.748.748a1.194 1.194 0 00-.843-.237c-.297 0-.391.14-.391.229v.006c0 .051-.003.187.258.215l.614.06c.835.081 1.197.576 1.197 1.212-.002.937-.8 1.343-1.723 1.343zm2.886-.107c.152.054.313.075.473.062h.605v-1.018h-.384a.219.219 0 01-.243-.245v-1.625h.627v-.931h-.627v-1.138H32.66v1.138h-.363v.93h.363v1.715a1.144 1.144 0 00.761 1.112zm-22.73.062v-.325a1.101 1.101 0 01-.891.362 1.328 1.328 0 01-.954-.353 1.3 1.3 0 01-.346-.932c0-.593.406-1.152 1.351-1.152h.806v-.1c0-.361-.177-.495-.594-.495a.751.751 0 00-.636.266l-.753-.753a1.762 1.762 0 011.449-.533c1.137 0 1.751.473 1.751 1.442v2.573h-1.183zm-.03-1.596h-.614c-.235 0-.384.133-.384.318 0 .184.134.332.396.332a.581.581 0 00.48-.147.503.503 0 00.12-.396l.002-.107zm3.78 1.27v.326h1.18v-5.26H14.41v1.572a1.174 1.174 0 00-.891-.332c-.356-.01-.7.12-.96.362-.372.373-.371 1.02-.37 1.583v.192c-.002.558-.003 1.193.37 1.566.263.242.61.371.968.361a1.173 1.173 0 00.916-.37zm-1.04-1.662c0-.576.052-.938.501-.938.451 0 .503.362.503.938s-.053.939-.503.939-.502-.363-.502-.939z" clip-rule="evenodd"/></svg>