<svg xmlns="http://www.w3.org/2000/svg" viewBox="0 0 40 40"><rect width="1295" height="636.5" x="-400.44" y="-197.63" fill="none" stroke="#ffb3ce" stroke-miterlimit="10" stroke-width="2.82" rx="54.76"/><g data-name="лого игры"><rect width="40" height="40" fill="#91b82b" rx="20"/><path fill="#fff" d="M20.05 17.36a32.3 32.3 0 017.86 8.91c1.19 2.14.95 2.89-1.12 4.22A12.52 12.52 0 0112.46 30c-1.14-.86-1.29-1.37-.8-2.74a14.68 14.68 0 012.5-4.07 33 33 0 015.89-5.83zM9.86 27.3A11.26 11.26 0 017.64 22a12.41 12.41 0 013-10.3c.68-.78 1-.86 1.92-.39a14.29 14.29 0 013.74 3c-2.79 4-5.98 7.86-6.44 12.99zm20.14.26a8.47 8.47 0 00-1-4.84 38.23 38.23 0 00-4.68-7.62l-.62-.81a14.38 14.38 0 013.79-3c.94-.46 1.23-.37 1.91.42a12.46 12.46 0 011.19 15.06c-.22.23-.4.44-.59.79zM20 11.22c-1.87-1-3.72-2.11-6-2 3-2.15 8.45-2.36 12-.22a27.86 27.86 0 00-3 .77 32.15 32.15 0 00-3 1.45z"/></g></svg>