<svg xmlns="http://www.w3.org/2000/svg" viewBox="0 0 60 60"><circle cx="29.7" cy="29.7" r="29.7" fill="#3c62b3"/><path fill="#fff" d="M50.8 36.1h-5.9c-4.6 0-4.6-4.1-4.6-4.1v-9.3c0-2 2.1-1.8 2.1-1.8h7.2c2.2 4.7 2.6 10.1 1.2 15.2zm-4.9 8.6c-6.3 6.8-16.4 8.9-25 4.9-10.9-5-15.6-17.9-10.6-28.8h4.2c2.4 0 2.4 2.9 2.4 2.9v8.7C16.9 43.6 29 43.6 29 43.6h17.7c-.1.4-.4.7-.8 1.1zM19.6 11C30.1 5.3 43.3 9.2 49 19.7H38c-5 0-4.6 4.7-4.6 4.7V32c0 2.2-1.4 4-5.3 4s-4.4-4-4.4-4v-8.3c0-3.9-3.7-3.9-3.7-3.9h-9.1c2-3.7 5-6.8 8.7-8.8z"/></svg>