<svg xmlns="http://www.w3.org/2000/svg" xmlns:xlink="http://www.w3.org/1999/xlink" width="60" height="60"><defs><path id="aquafon__a" d="M24.098 33.182V.078H0v33.104h24.098z"/><path id="aquafon__c" d="M0 33.182h24.098V.078H0z"/></defs><g fill="none" fill-rule="evenodd"><rect width="60" height="60" fill="#FC5127" rx="30" transform="rotate(90 30 30)"/><g transform="translate(18.878 12.848)"><mask id="aquafon__b" fill="#fff"><use xlink:href="#aquafon__a"/></mask><path fill="#FFF" d="M19.19 14.22c-.247.02-.495.046-.744.059-4.106.214-7.887-3.385-7.796-7.461.025-1.139.238-2.273.257-3.412.031-1.943-.76-2.966-2.373-3.234C6.338-.193 5.066.496 4.424 2.4c-.671 1.983-.101 3.5 1.88 4.168 2.237.754 3.042 2.357 2.912 4.452-.11 1.76-.374 3.567-.93 5.233-1.413 4.235-2.793 8.522-7.059 10.999-1.272.738-1.525 2.527-.896 3.881.643 1.383 2.405 2.3 3.823 1.988 2.558-.563 3.45-1.95 2.739-4.763-1.09-4.31 1.258-10.61 6.683-12.353 2.145-.69 2.977-.263 3.563 1.89.103.382.183.771.3 1.15.477 1.54 1.98 2.411 3.771 2.197 1.708-.206 2.807-1.374 2.883-3.063.117-2.637-1.713-4.113-4.902-3.959" mask="url(#aquafon__b)"/></g><g transform="translate(18.878 12.848)"><mask id="aquafon__d" fill="#fff"><use xlink:href="#aquafon__c"/></mask><path fill="#FFF" d="M19.19 14.222c3.19-.156 5.019 1.32 4.903 3.957-.075 1.69-1.175 2.858-2.882 3.062-1.792.216-3.296-.656-3.772-2.197-.117-.378-.197-.768-.3-1.15-.586-2.152-1.417-2.578-3.563-1.888-5.425 1.743-7.773 8.04-6.683 12.351.711 2.813-.18 4.2-2.74 4.764-1.417.312-3.18-.605-3.822-1.988-.63-1.354-.377-3.142.896-3.882 4.266-2.476 5.645-6.763 7.06-10.997.555-1.667.818-3.473.929-5.235.13-2.095-.675-3.697-2.912-4.45-1.981-.669-2.551-2.185-1.88-4.17C5.065.496 6.337-.193 8.533.172c1.614.268 2.404 1.29 2.373 3.234-.018 1.138-.232 2.274-.257 3.412-.091 4.077 3.689 7.675 7.796 7.461.25-.012.497-.038.745-.057" mask="url(#aquafon__d)"/></g></g></svg>