<svg xmlns="http://www.w3.org/2000/svg" width="41" height="40" fill="none"><circle cx="20.5" cy="20" r="20" fill="#CD242F"/><path fill="#fff" fill-rule="evenodd" d="M17.145 32.58v-2.974c2.18.758 4.55.758 6.73 0v2.974a13.081 13.081 0 01-6.73 0zm6.71-25.14v2.981a10.094 10.094 0 00-6.73 0v-2.98a13.082 13.082 0 016.73 0zm9.205 15.915h-2.974a10.243 10.243 0 00-.007-6.73h2.98a13.081 13.081 0 010 6.73zm-25.12-6.71h2.981a10.093 10.093 0 000 6.73h-2.98a13.081 13.081 0 010-6.73zm15.921 6.71H27.9l2.187.026c-.186.521-.41 1.028-.673 1.514l2.072 2.073a13.014 13.014 0 01-4.037 4.037l-2.073-2.072c-.487.262-.993.487-1.514.673v-6.252zM17.145 10.42v6.224h-6.217c.18-.523.405-1.03.673-1.514L9.52 13.06A13.035 13.035 0 0113.56 9.02l2.08 2.073a9.818 9.818 0 011.506-.673zm-6.224 12.933h6.218v6.232c-.52-.185-1.023-.41-1.507-.673l-2.08 2.072a13.014 13.014 0 01-4.037-4.037l2.079-2.08a9.507 9.507 0 01-.673-1.514zm19.165-6.709H23.86v-6.224c.522.183 1.029.408 1.514.673l2.073-2.073a13.036 13.036 0 014.037 4.038l-2.072 2.072c.262.487.487.993.673 1.514z" clip-rule="evenodd"/></svg>