<svg xmlns="http://www.w3.org/2000/svg" xmlns:xlink="http://www.w3.org/1999/xlink" width="60" height="60"><defs><path id="trast__a" d="M29.703 59.405c16.404 0 29.702-13.298 29.702-29.702C59.405 13.298 46.107 0 29.703 0 13.298 0 0 13.298 0 29.703c0 16.404 13.298 29.702 29.703 29.702z"/></defs><g fill="none" fill-rule="evenodd"><use fill="#131313" xlink:href="#trast__a"/><path fill="#FFF" d="M17.684 30.622c1.182 0 2.289.025 3.394-.01.56-.019.895-.345.923-.943.028-.614-.247-1.048-.851-1.078-1.145-.057-2.296-.017-3.466-.017v2.048zm-2.214 4.312v-8.169c2.154 0 4.277-.103 6.384.034 1.615.104 2.516 1.399 2.42 3.052-.089 1.519-1.253 2.587-2.925 2.63-1.203.032-2.408.007-3.677.007v2.446H15.47zm12.135-3.24h2.81l-1.42-2.804c-.492.99-.923 1.862-1.39 2.804m-4.047 3.298c1.436-2.73 2.797-5.33 4.183-7.918.09-.169.66-.35.71-.351 1.81-.038 1.81-.039 2.648 1.553a7220.28 7220.28 0 013.212 6.112c.088.168.169.34.3.604-.8 0-2.58-.058-2.58-.058-.085-.087-.18-.388-.208-.478-.266-.812-.4-.979-1.316-.973-.983.007-2.266-.02-3.25.035-.27.015-.688.243-.76.464-.134.408-.372.984-.372.984s-2.08.026-2.567.026m20.86-6.978l-1.264 1.422c-1.236-.843-2.538-1.245-4.003-.92-1.204.266-2.04 1.108-2.122 2.15-.105 1.35.986 2.441 2.569 2.57 1.45.12 2.332-.1 3.722-.95.2.214.414.438.621.669.211.235.415.477.653.753-.181.152-.31.297-.471.39-2.287 1.327-4.677 1.492-7.08.424-1.481-.659-2.292-1.887-2.342-3.544-.05-1.653.69-2.876 2.1-3.701 2.22-1.3 5.82-.966 7.617.737m-30.267-1.246v1.762h-3.394v6.416H8.416v-6.398H5v-1.78zm36.495 1.742v6.456h-2.288v-6.408h-3.392v-1.792h9.09v1.744z"/></g></svg>