<svg xmlns="http://www.w3.org/2000/svg" width="40" height="40" fill="none"><circle cx="20" cy="20" r="20" fill="#3681C7"/><path fill="#fff" fill-rule="evenodd" d="M7 20l3.199-5.5 1.79-3.078 1.438 2.417-1.096 1.882-2.488 4.278 2.488 4.279 2.488 4.278h.033l5.074-8.583-5.074-8.53h-.033l-1.437-2.415.017-.028h12.796l3.199 5.5 3.198 5.5-3.198 5.5-3.199 5.5h-7.173l1.448-2.443h4.304l2.488-4.278L29.751 20l-2.489-4.278-2.488-4.278H17.67l5.078 8.531-5.085 8.583h.006l-1.454 2.443H13.4l-3.199-5.5-3.199-5.5z" clip-rule="evenodd"/></svg>