<svg xmlns="http://www.w3.org/2000/svg" xmlns:xlink="http://www.w3.org/1999/xlink" width="80" height="80"><defs><circle id="skillbox__a" cx="40" cy="40" r="40"/></defs><g fill="none" fill-rule="evenodd"><use fill="#000" xlink:href="#skillbox__a"/><path fill="#FFF" fill-rule="nonzero" d="M74.806 47.07H72.91l-3.257-3.89-3.209 3.89H64.55l4.18-5.007-3.937-4.716h1.895l3.014 3.597 3.014-3.597h1.896l-3.937 4.716 4.132 5.006zm-16.09.486a5.332 5.332 0 01-5.348-5.348 5.332 5.332 0 015.347-5.347 5.332 5.332 0 015.347 5.347 5.332 5.332 0 01-5.347 5.348zm0-9.237a3.9 3.9 0 00-3.89 3.89 3.9 3.9 0 003.89 3.888 3.9 3.9 0 003.888-3.889 3.9 3.9 0 00-3.889-3.889zm-12.397 8.994c-3.013 0-3.888-.73-3.888-.73V32.486h1.458v5.104c.535-.243 1.312-.486 2.43-.486 2.966 0 5.348 2.14 5.348 5.104 0 2.966-2.382 5.105-5.348 5.105zm0-8.75c-1.02 0-1.847.388-2.43.777v6.028s.778.486 2.43.486c2.14 0 3.89-1.507 3.89-3.646 0-2.139-1.75-3.645-3.89-3.645zm-8.75-6.077h1.459V47.07h-1.459V32.486zm-4.86 0h1.458V47.07h-1.459V32.486zm-4.181 2.188c-.68 0-1.215-.535-1.215-1.216 0-.68.534-1.215 1.215-1.215.68 0 1.215.535 1.215 1.215s-.535 1.216-1.215 1.216zm-4.813 12.395l-5.104-5.104 4.618-4.618h2.042l-4.618 4.618 5.104 5.104h-2.042zm-6.562 0V32.486h1.458V47.07h-1.458zm-2.334-3.986c0 2.43-1.944 4.18-5.006 4.18-1.994 0-3.55-.971-4.716-2.09l1.021-1.117c.972.923 2.09 1.798 3.646 1.798 1.75 0 3.597-.972 3.597-2.722 0-1.458-1.167-2.382-3.548-3.111-2.771-.827-4.132-1.993-4.132-4.132 0-2.139 1.798-3.84 4.375-3.84 1.895 0 3.11.826 4.277 1.847l-1.02 1.118c-1.021-.924-1.994-1.507-3.209-1.507-1.458 0-2.916.972-2.916 2.333 0 1.264.729 2.042 3.256 2.82 2.285.68 4.375 1.798 4.375 4.423zm14.487 3.986h-1.459v-9.722h1.459v9.722z"/></g></svg>