<svg xmlns="http://www.w3.org/2000/svg" xmlns:xlink="http://www.w3.org/1999/xlink" width="60" height="60"><defs><path id="butovo__a" d="M29.703 59.405c16.404 0 29.702-13.298 29.702-29.702C59.405 13.298 46.107 0 29.703 0 13.298 0 0 13.298 0 29.703c0 16.404 13.298 29.702 29.703 29.702z"/></defs><g fill="none" fill-rule="evenodd"><mask id="butovo__b" fill="#fff"><use xlink:href="#butovo__a"/></mask><use fill="#589619" xlink:href="#butovo__a"/><g mask="url(#butovo__b)"><path fill="#FFF" d="M20.789 38.065c0 1.342 1.101 2.43 2.46 2.43h2.363c2.633 0 3.712-1.114 3.712-2.777s-1.112-2.794-3.352-2.794H23.25c-1.359 0-2.46 1.089-2.46 2.43v.711zm0-9.171c0 1.343 1.101 2.43 2.46 2.43h2.086c2.24 0 3.204-1.05 3.204-2.454 0-1.437-1.03-2.406-2.812-2.406h-2.478c-1.359 0-2.46 1.088-2.46 2.43zm-5.79-4.004c0-1.342 1.103-2.43 2.462-2.43h9.803c4.153 0 6.966 2.002 6.966 5.409 0 2.858-1.914 4.424-4.056 4.795v.259c2.404.145 5.086 1.775 5.086 5.312 0 4.02-3.483 6.264-7.75 6.264H17.46c-1.358 0-2.46-1.087-2.46-2.43V24.89zm23.46-4.544h3.555c1.357 0 2.457-1.086 2.457-2.425v-.806c0-1.34-1.1-2.426-2.457-2.426H38.46c-1.357 0-2.457 1.086-2.457 2.426v.806c0 1.339 1.1 2.425 2.457 2.425m-9.955 0h3.556c1.357 0 2.456-1.086 2.456-2.425v-.806c0-1.34-1.1-2.426-2.456-2.426h-3.556c-1.357 0-2.456 1.086-2.456 2.426v.806c0 1.339 1.1 2.425 2.456 2.425m9.954 7.741h3.555c1.357 0 2.457-1.086 2.457-2.426v-.806c0-1.34-1.1-2.425-2.457-2.425H38.46c-1.357 0-2.457 1.085-2.457 2.425v.806c0 1.34 1.1 2.426 2.457 2.426"/></g></g></svg>