<svg xmlns="http://www.w3.org/2000/svg" xmlns:xlink="http://www.w3.org/1999/xlink" width="60" height="60"><defs><path id="smail__a" d="M29.703 59.405c16.404 0 29.702-13.298 29.702-29.702C59.405 13.298 46.107 0 29.703 0 13.298 0 0 13.298 0 29.703c0 16.404 13.298 29.702 29.703 29.702z"/></defs><g fill="none" fill-rule="evenodd"><mask id="smail__b" fill="#fff"><use xlink:href="#smail__a"/></mask><use fill="#C01D1C" xlink:href="#smail__a"/><g fill="#FFF" mask="url(#smail__b)"><path d="M31.077 30.069c.035-.69.402-.805-.307-.797-1.101.014-2.218.033-3.27.451-.46.182-.838.442-.8 1.013.041.605.465.852.981.953.908.179 1.785.061 2.658-.264.601-.223.693-.485.738-1.356m1.738.01c0 .616.012 1.231-.006 1.846-.007.237.137.625-.229.654-.467.037-1.189.28-1.365-.138-.234-.55-.408-.3-.666-.18-1.269.592-2.58.724-3.924.33-.994-.292-1.62-1.019-1.647-1.83-.028-.85.511-1.515 1.568-1.866 1.29-.428 2.638-.468 3.979-.556.206-.013.505.13.59-.197.069-.27-.03-.528-.23-.721-.383-.369-.874-.449-1.376-.475a10.537 10.537 0 00-3.129.29c-.207.052-.571.287-.605-.17-.024-.323-.228-.784.395-.88 1.627-.248 3.256-.4 4.874-.007 1.329.323 1.765.938 1.77 2.32.003.527.001 1.054.001 1.58m-15.292-14.92c-1.475 0-2.643.026-3.81-.013-.492-.016-.807.165-1.127.514-1.83 1.996-3.402 4.174-4.6 6.605-1.8 3.655-2.444 7.493-1.653 11.523.912 4.65 3.287 8.528 6.368 12.029.16.183.323.313.59.311 1.302-.01 2.603-.004 4.077-.004-7.113-10.357-7.167-20.61.155-30.965"/><path d="M24.038 26.659c0-.17.04-.352-.14-.476-.368-.258-1.982.016-2.253.399-.626.883-1.259 1.762-1.857 2.664-.261.394-.41.377-.664-.003-.487-.73-1.07-1.4-1.507-2.157-.454-.784-1.046-1.04-1.929-.984-.587.037-.807.147-.79.782.045 1.64.035 3.283.004 4.925-.01.558.058.853.735.825.587-.024.904-.068.868-.797-.066-1.32-.019-2.646-.019-4.222.748 1.052 1.33 1.882 1.923 2.704.55.763 1.433.76 1.986-.005.596-.823 1.183-1.653 1.774-2.48l.17.072c0 1.372.038 2.745-.016 4.115-.026.67.354.625.765.585.4-.038.98.262.962-.582-.036-1.788-.01-3.577-.012-5.365m17.286-.539c-.67-.037-1.185.108-1.706.63-1.29 1.292-2.682 2.48-3.914 3.603 0-1.028-.031-2.34.012-3.649.023-.683-.397-.598-.796-.569-.38.028-.915-.234-.9.553.034 1.788.008 3.577.014 5.366 0 .216-.082.533.268.54.62.013 1.23.144 1.763-.455 1.256-1.414 2.594-2.756 4.05-4.284 0 1.55.03 2.87-.014 4.187-.023.689.41.604.798.559.355-.042.936.306.926-.507a238.806 238.806 0 010-5.454c.004-.386-.131-.5-.501-.52m9.62.695c.03-.549-.156-.706-.688-.698-1.723.027-3.448.026-5.171 0-.51-.007-.724.117-.734.675-.018 1.08-.043 2.167-.25 3.235-.166.857-.472 1.604-1.512 1.63-.392.011-.382.227-.398.51-.021.373.18.415.478.444 1.35.134 2.465-.627 2.829-1.961.249-.91.279-1.851.317-2.784.022-.566.153-.85.796-.782a9.99 9.99 0 001.839.003c.595-.049.813.118.79.757-.05 1.404.016 2.812-.029 4.216-.023.707.43.573.802.541.362-.031.947.282.925-.516-.007-.227-.01-.454-.012-.68-.005-.681.006-1.362.006-2.043 0-.637-.02-1.275-.01-1.911.004-.212.01-.424.022-.636m-31.539 6.552c-1.403.005-2.393.934-2.388 2.24.006 1.273.98 2.195 2.327 2.204 1.395.01 2.436-.926 2.444-2.198.008-1.31-.99-2.251-2.383-2.246m-2.578-10.195c.02 1.25 1.02 2.169 2.367 2.174 1.42.005 2.415-.905 2.412-2.206-.003-1.323-.971-2.214-2.4-2.21-1.4.005-2.4.947-2.379 2.242m21.103 2.202c1.67-.004 2.624-.515 2.933-1.453.087-.264.347-.713-.168-.748-.378-.026-1.014-.4-1.163.318-.172.826-.694 1.114-1.435 1.124-.751.01-1.238-.293-1.433-1.115-.166-.7-.848-.391-1.252-.316-.522.098-.154.555-.059.776.544 1.268 1.692 1.377 2.577 1.414"/></g></g></svg>