<svg xmlns="http://www.w3.org/2000/svg" width="41" height="40" fill="none"><circle cx="20.5" cy="20" r="20" fill="#000078"/><path fill="#fff" fill-rule="evenodd" d="M33.38 19.55c0-.821-.69-1.482-2.09-1.482-1.49 0-2.257.843-2.257 1.885h1.369c0-.541.297-.824.868-.824.54 0 .77.197.77.507s-.17.522-.59.522h-.774v.891h.754c.48 0 .68.21.68.55 0 .321-.21.626-.82.626-.66 0-.96-.34-.96-.902h-1.365c0 1.273.885 1.954 2.325 1.954 1.42 0 2.21-.601 2.21-1.563 0-.5-.26-.861-.76-1.072.43-.23.64-.651.64-1.092zm-6.603 3.591h1.405v-4.938h-1.405v.54c-.361-.455-.838-.641-1.357-.641-1.32 0-2.371 1.028-2.371 2.57 0 1.543 1.051 2.57 2.371 2.57.519 0 .996-.186 1.357-.64v.54zm.098-2.469c0 .781-.578 1.353-1.27 1.353-.684 0-1.272-.572-1.272-1.353 0-.78.588-1.353 1.271-1.353.693 0 1.271.572 1.271 1.353zm-6.195-1.284h2.041v-1.185h-3.445v4.939h1.404v-3.754zm-2.097 1.284C18.583 19.196 17.4 18 15.94 18c-1.46 0-2.642 1.196-2.642 2.672 0 1.476 1.183 2.672 2.642 2.672 1.46 0 2.642-1.196 2.642-2.672zm-1.138.256c-.81.194-1.374.891-1.504 2.013-.13-1.122-.695-1.819-1.505-2.013-.139-.879.628-1.647 1.505-1.648.876.001 1.643.77 1.504 1.648zm-8.662-.256c0-.801.535-1.454 1.305-1.454.59 0 1.081.327 1.204.811h1.338C12.56 18.905 11.543 18 10.117 18 8.625 18 7.5 19.1 7.5 20.673c0 1.572 1.125 2.671 2.618 2.671 1.451 0 2.477-.9 2.511-2.13h-1.337c-.105.562-.569.913-1.204.913-.703 0-1.305-.633-1.305-1.455z" clip-rule="evenodd"/></svg>