<svg xmlns="http://www.w3.org/2000/svg" xmlns:xlink="http://www.w3.org/1999/xlink" width="80" height="80"><defs><path id="redcube__a" d="M.597 17.623h16.217V.162H.597z"/></defs><g fill="none" fill-rule="evenodd"><circle cx="40" cy="40" r="40" fill="#000"/><path fill="#EC1D24" fill-rule="nonzero" d="M21.808 37.166c-.493.167-1.197.239-2.312.365-.351.04-.714.021-1.081.065-1.09.13-1.691.194-1.804.194-.41 0-.82-.122-1.23-.366-.481-.288-.721-.618-.721-.992 0-.029.034-.107.105-.236.07-.13.124-.296.452-.415.06-.02.807-.142 2.773-.48 1.344-.231 2.72-.491 4.145-.683 2.088-.28.165 2.38-.327 2.548"/><path stroke="#EC1D24" stroke-width=".5" d="M21.808 37.166c-.493.167-1.197.239-2.312.365-.351.04-.714.021-1.081.065-1.09.13-1.691.194-1.804.194-.41 0-.82-.122-1.23-.366-.481-.288-.721-.618-.721-.992 0-.029.034-.107.105-.236.07-.13.124-.296.452-.415.06-.02.807-.142 2.773-.48 1.344-.231 2.72-.491 4.145-.683 2.088-.28.165 2.38-.327 2.548z"/><path fill="#BED630" fill-rule="nonzero" d="M23.838 29.74c-.428-.3-.907-.828-1.68-1.657-.242-.26-.447-.567-.702-.84-.758-.806-1.17-1.254-1.24-1.346-.246-.334-.397-.74-.453-1.22-.064-.564.051-.958.344-1.183.023-.018.106-.037.249-.057.144-.02.306-.078.598.117.051.036.598.57 2.046 1.963.992.95 2.026 1.912 3.034 2.955 1.477 1.525-1.768 1.568-2.196 1.268"/><path stroke="#BED630" stroke-width=".5" d="M23.838 29.74c-.428-.3-.907-.828-1.68-1.657-.242-.26-.447-.567-.702-.84-.758-.806-1.17-1.254-1.24-1.346-.246-.334-.397-.74-.453-1.22-.064-.564.051-.958.344-1.183.023-.018.106-.037.249-.057.144-.02.306-.078.598.117.051.036.598.57 2.046 1.963.992.95 2.026 1.912 3.034 2.955 1.477 1.525-1.768 1.568-2.196 1.268z"/><path fill="#F4811F" fill-rule="nonzero" d="M30.894 26.209c-.077-.523-.026-1.24.042-2.38.022-.358.101-.72.123-1.095.06-1.114.1-1.727.12-1.84.07-.412.259-.803.565-1.17.361-.434.723-.618 1.084-.555.028.006.099.054.212.148.112.092.264.173.323.523.01.063 0 .834-.009 2.861-.006 1.387.01 2.812-.05 4.273-.085 2.14-2.333-.242-2.41-.765"/><path stroke="#F4811F" stroke-width=".5" d="M30.894 26.209c-.077-.523-.026-1.24.042-2.38.022-.358.101-.72.123-1.095.06-1.114.1-1.727.12-1.84.07-.412.259-.803.565-1.17.361-.434.723-.618 1.084-.555.028.006.099.054.212.148.112.092.264.173.323.523.01.063 0 .834-.009 2.861-.006 1.387.01 2.812-.05 4.273-.085 2.14-2.333-.242-2.41-.765z"/><path fill="#00B2EF" fill-rule="nonzero" d="M38.032 28.006c.41-.326 1.049-.63 2.058-1.13.319-.157.667-.263.999-.428.985-.493 1.53-.758 1.636-.796.387-.14.814-.164 1.28-.073.548.107.883.338 1.005.689.01.028.003.115-.021.26-.024.145-.02.32-.291.544-.05.04-.714.408-2.455 1.394-1.19.675-2.404 1.389-3.684 2.052-1.875.974-.937-2.187-.527-2.512"/><path stroke="#00B2EF" stroke-width=".5" d="M38.032 28.006c.41-.326 1.049-.63 2.058-1.13.319-.157.667-.263.999-.428.985-.493 1.53-.758 1.636-.796.387-.14.814-.164 1.28-.073.548.107.883.338 1.005.689.01.028.003.115-.021.26-.024.145-.02.32-.291.544-.05.04-.714.408-2.455 1.394-1.19.675-2.404 1.389-3.684 2.052-1.875.974-.937-2.187-.527-2.512z"/><path fill="#EC1D24" fill-rule="nonzero" d="M55.818 40.14c.462.357.44.765-.038 1.027l-11.77 2.687c-.68.19-1.412-.016-1.873-.372l-9.93-7.247c-.462-.356-.448-.858.033-1.12l12.024-2.335c.988-.229 1.69.124 2.152.483l9.402 6.878z"/><path fill="#231F20" fill-rule="nonzero" d="M50.298 45.936c.46.358.441.763-.039 1.027L38.49 49.65c-.679.19-1.41-.016-1.873-.37l-9.928-7.249c-.46-.356-.448-.858.032-1.119l9.002-1.75 3.02-.586c.991-.228 1.694.127 2.153.483l9.403 6.877z"/><path fill="#231F20" fill-rule="nonzero" d="M58.95 45.886c.46.356.44.764-.039 1.029l-11.768 2.683c-.68.194-1.414-.013-1.876-.371l-9.926-7.247c-.463-.355-.45-.857.03-1.118l12.025-2.336c.99-.23 1.692.126 2.155.482l9.399 6.878z"/><path stroke="#231F20" stroke-linecap="round" stroke-linejoin="round" stroke-width="1.197" d="M45.433 32.163l-2.266 10.97"/><path fill="#EC1D24" fill-rule="nonzero" d="M57.953 39.324c-.286.55-.884.728-1.331.405l-9.809-7.114c-.449-.324-.576-1.032-.288-1.578l5.862-11.186c.29-.547.887-.73 1.333-.405l9.81 7.113c.447.325.574 1.031.285 1.58l-5.862 11.185zm-18.49 19.175c-.119.577-.57.777-1.01.45l-9.59-7.211c-.437-.331-.695-1.065-.574-1.641L30.9 37.446c.12-.579.57-.781 1.01-.451l9.589 7.212c.438.33.697 1.063.578 1.64L39.463 58.5z"/><g transform="translate(39.614 41.89)"><mask id="redcube__b" fill="#fff"><use xlink:href="#redcube__a"/></mask><path fill="#EC1D24" fill-rule="nonzero" d="M.62 16.776c-.118.577.215.944.746.824l11.633-2.673c.53-.123 1.058-.687 1.177-1.265L16.79 1.01c.12-.576-.215-.946-.744-.824L4.409 2.858c-.528.122-1.053.69-1.175 1.266L.621 16.776z" mask="url(#redcube__b)"/></g></g></svg>