<svg xmlns="http://www.w3.org/2000/svg" xmlns:xlink="http://www.w3.org/1999/xlink" width="80" height="80"><defs><circle id="formulakino__a" cx="40" cy="40" r="40"/></defs><g fill="none" fill-rule="evenodd"><use fill="#187BBA" xlink:href="#formulakino__a"/><path fill="#FFFFFE" d="M16.087 35.517c-.223.055-.377.246-.483.44-.807 1.416-1.629 2.823-2.433 4.24-.101.125-.02.334.14.35.358.023.718.001 1.076.01.298.015.552-.213.693-.46.74-1.293 1.485-2.584 2.228-3.876.082-.217.393-.464.216-.693-.474-.053-.96-.032-1.437-.011zm-4.792-.003c-.182.056-.278.237-.372.39-.808 1.416-1.626 2.826-2.436 4.24-.106.13-.068.381.118.403.358.023.717 0 1.075.01.321.029.636-.172.785-.454.819-1.435 1.654-2.861 2.468-4.3.108-.12.022-.326-.144-.297-.498-.004-.998-.021-1.494.008zm-1.627-.916c.354-.118.732-.072 1.097-.075 2.971-.002 5.943.002 8.914-.002.292-.014.63.12.71.433.104.396-.115.78-.294 1.119-.75 1.306-1.5 2.615-2.257 3.919-.487.847-1.37 1.517-2.366 1.536-1.02.013-2.042-.003-3.063.007-.373.651-.75 1.3-1.125 1.95l-2.687-.001c.365-.654.742-1.3 1.112-1.95-1.104-.004-2.208 0-3.311-.003-.27-.013-.595-.014-.777-.251-.24-.289-.074-.693.076-.984.852-1.488 1.71-2.974 2.566-4.46.314-.553.789-1.049 1.405-1.238zM52.24 46.04c-.177.061-.272.237-.364.389-.81 1.416-1.627 2.828-2.438 4.245-.09.114-.085.336.09.362.393.025.787.005 1.18.011a.75.75 0 00.705-.41c.822-1.44 1.66-2.87 2.476-4.313.114-.13 0-.328-.164-.295-.495-.002-.992-.022-1.485.01zm-1.18-1.02c1.619-.04 3.238-.007 4.855-.017.316.01.755.003.906.348.114.392-.126.76-.303 1.09-.861 1.486-1.705 2.984-2.577 4.463-.416.684-1.165 1.176-1.974 1.164-1.542.006-3.083.003-4.624 0-.333 0-.759-.08-.876-.447-.063-.32.086-.631.239-.902.848-1.468 1.689-2.94 2.54-4.407.38-.667 1.032-1.223 1.814-1.292zm-9.885-.006c.936-.005 1.872-.001 2.808-.001-.537.939-1.083 1.871-1.616 2.813.702.002 1.405 0 2.107 0l1.62-2.814c.926 0 1.853-.002 2.78.002a6125.23 6125.23 0 01-4.056 7.047h-2.776c.58-1.025 1.172-2.04 1.755-3.061-.708.005-1.416-.013-2.123.01-.57 1.024-1.167 2.033-1.75 3.051h-2.799c1.346-2.352 2.704-4.696 4.05-7.047zm-8.878-.002c.957 0 1.913-.003 2.87.002-1.057 1.845-2.126 3.684-3.18 5.533-.106.122-.042.342.135.34.42.024.841.006 1.262.01a.718.718 0 00.66-.392c1.051-1.831 2.106-3.661 3.158-5.492.97-.002 1.939-.002 2.91 0-1.351 2.352-2.709 4.7-4.057 7.054-2.01.008-4.02.002-6.029.003-.355-.004-.795-.05-.973-.41-.234-.44-.038-.947.19-1.341 1.018-1.77 2.035-3.54 3.054-5.307zm-7.847.002a394.57 394.57 0 012.665 0c-.45.823-.908 1.642-1.35 2.47a785.77 785.77 0 012.926-2.405c.084-.087.208-.066.319-.07.736.008 1.474-.001 2.21.006-1.25 1.067-2.508 2.129-3.758 3.198.33 1.286.666 2.57.994 3.856-.92.002-1.84 0-2.758.002-.246-1.167-.478-2.337-.724-3.504-.125.126-.256.255-.333.419-.507 1.028-1.019 2.054-1.528 3.08-.91.002-1.818.004-2.727.004 1.35-2.355 2.713-4.702 4.064-7.056zm42.813-6.816c-.52.156-.72.71-.979 1.136-.172.33-.408.63-.525.988.078.26.378.2.586.208.414-.001.936.058 1.204-.34.407-.665.769-1.359 1.156-2.036-.48.021-.968-.052-1.442.044zm-.913-3.709c1.82.003 3.642-.002 5.463.003.3.01.661.017.865.28.198.326.079.727-.014 1.068-.306.828-.81 1.56-1.233 2.328-.66 1.121-1.28 2.27-1.964 3.375-1.936-.017-3.873 0-5.81-.007-.244-.025-.557-.017-.701-.256-.222-.297-.093-.701.079-.989.464-.803.917-1.613 1.39-2.412.43-.583 1.094-1.048 1.832-1.083.952-.022 1.907.017 2.859-.017.388-.063.877-.446.704-.89-1.416-.054-2.836-.008-4.253-.025.256-.462.52-.918.783-1.375zm-8.287 1.21c.534-.682 1.331-1.21 2.216-1.205 1.674-.016 3.35-.005 5.026-.006-1.356 2.348-2.698 4.702-4.06 7.045-.905-.007-1.81 0-2.714-.003 1.086-1.904 2.187-3.8 3.276-5.703.05-.096.131-.27-.018-.32-.354-.075-.828-.09-1.06.25-1.368 1.91-2.707 3.845-4.084 5.748-.895.06-1.805.009-2.705.025 1.372-1.946 2.733-3.9 4.123-5.831zM49.9 34.487c.901-.002 1.801-.003 2.704 0l-3.253 5.654c-.095.119-.11.355.088.37.395.021.793.008 1.19.007.251.004.42-.214.533-.415 1.07-1.872 2.156-3.736 3.22-5.61.896-.016 1.793-.003 2.69-.007-1.416 2.463-2.834 4.924-4.25 7.386-.419.88-1.28 1.616-2.282 1.61-1.826.004-3.651.002-5.476 0 .184-.336.38-.667.57-1.002 1.214-.003 2.428 0 3.642 0 .226-.002.487-.039.635-.233.161-.22.276-.47.417-.701-.966-.006-1.933.004-2.9-.005-.307-.004-.671-.08-.827-.38-.216-.4-.031-.873.172-1.236 1.04-1.814 2.086-3.625 3.127-5.438zm-11.102.006l3.597.001c-.3 1.338-.603 2.676-.901 4.014 1.254-1.318 2.51-2.634 3.766-3.95.077-.095.208-.058.313-.068 1.085.008 2.17-.001 3.256.004-1.355 2.353-2.706 4.708-4.064 7.059-.921-.003-1.843 0-2.764-.002 1.06-1.863 2.145-3.713 3.202-5.58-1.774 1.844-3.524 3.71-5.283 5.568-.646.006-1.29.002-1.935.003.388-1.853.786-3.705 1.174-5.557-1.068 1.851-2.132 3.704-3.199 5.557h-1.215c1.347-2.352 2.703-4.699 4.053-7.049zm-5.976 1.028c-.222.048-.384.233-.49.427-.8 1.398-1.607 2.795-2.411 4.193-.069.099-.139.301.024.345.387.06.785.011 1.177.027a.674.674 0 00.65-.367c.826-1.436 1.655-2.871 2.478-4.308.097-.113.067-.34-.113-.322-.439-.01-.878-.02-1.315.005zm-2.326-1.034c1.86-.005 3.721 0 5.581-.002.315-.002.673.02.91.259.175.196.175.492.099.732-.128.407-.37.762-.574 1.132l-1.917 3.33c-.347.616-.879 1.141-1.531 1.415-.457.19-.96.19-1.445.183a688.9 688.9 0 00-2.49 0c-.375.654-.752 1.305-1.127 1.958h-2.688c1.722-3.006 3.459-6.003 5.182-9.007zm-6.168 1.027c-.18.062-.275.242-.367.396-.809 1.414-1.627 2.824-2.437 4.24-.088.114-.082.334.092.36.394.026.79.004 1.185.012a.74.74 0 00.67-.364 4266.94 4266.94 0 002.476-4.3c.084-.11.122-.322-.057-.346a16.76 16.76 0 00-1.562.002zm-1.41-.984c.263-.056.533-.056.802-.055 1.46.004 2.918-.005 4.377.003.29.011.68.031.813.345.11.371-.106.725-.275 1.04-.857 1.487-1.705 2.98-2.571 4.46-.414.712-1.18 1.233-2.014 1.218-1.51.008-3.02 0-4.529.003-.336-.003-.768-.031-.936-.38-.123-.31.033-.644.18-.917.854-1.486 1.707-2.974 2.565-4.457.347-.6.9-1.116 1.588-1.26zm11.294-6.213c.252-.46.504-.92.767-1.373.074.456.134.915.2 1.373h-.967zm6.427-1.597c.358.004.733-.036 1.077.09.314.193.221.694-.063.871-.391.156-.822.084-1.232.098.07-.354.144-.707.218-1.059zm-16.209-.007c.31-.09.691-.096.944.134.276.276.3.7.233 1.064-.083.443-.276.91-.678 1.146-.327.154-.77.156-1.041-.112-.29-.323-.298-.797-.204-1.2.103-.418.325-.87.746-1.032zM7.062 34.89c-.893 1.535-1.768 3.08-2.656 4.618-.238.402-.4.858-.404 1.33-.05.954.773 1.878 1.725 1.894.562.01 1.125 0 1.687.007-.303.538-.62 1.067-.921 1.607 1.961.007 3.923-.006 5.884.01.344-.52.629-1.078.948-1.613 3.647 0 7.292-.002 10.938 0-.306.558-5.883 10.059-6.182 10.62 1.885 0 24.717-.072 27.194-.067h7.55c1.332 0 3.253-2.6 5.762-7.803a1 1 0 00-.9-1.434H52.58c.366-.69.967-1.183 1.097-1.321h14.165a3.895 3.895 0 001.503-.296c1.028-.446 1.794-1.343 2.345-2.304.553-.972 1.1-1.947 1.649-2.922.282-.515.572-1.05.64-1.645.07-.542-.038-1.13-.403-1.55-.455-.538-1.191-.718-1.867-.697L9.84 33.32c-1.122-.025-2.137.684-2.778 1.57zm32.924-8.819c-.254 1.22-.515 2.437-.765 3.657h.784c.096-.438.187-.879.282-1.318.474-.007.955.026 1.424-.057.42-.063.727-.419.9-.788.195-.515.004-1.255-.572-1.414-.675-.136-1.37-.063-2.053-.08zm-3.385 0c-.047.219-.091.438-.136.658.378 0 .754 0 1.132.002-.208.999-.423 1.997-.628 2.997h.791c.21-1 .421-1.997.63-2.997.369-.003.737-.001 1.105-.002l.135-.658H36.6zm-1.866 0c-.713 1.22-1.434 2.434-2.14 3.657.277 0 .554 0 .832.003.16-.271.314-.547.469-.821h1.348c.04.273.083.545.126.819h.787c-.194-1.221-.402-2.439-.601-3.659h-.821zm-4.371 0c-.254 1.219-.517 2.436-.764 3.657h2.787l.142-.668h-2.004c.06-.303.124-.605.191-.906h1.823l.133-.625H30.85c.051-.27.107-.54.164-.809h1.968l.13-.65h-2.75zm-3.461 0c-.047.219-.092.438-.137.658.377 0 .755 0 1.133.002-.207.999-.425 1.996-.627 2.997h.787c.215-.998.422-2 .633-2.998h1.104l.135-.66h-3.028zm-2.666.007c-1.292.397-1.868 2.28-.963 3.315.397.401 1.019.479 1.55.377.379-.031.708-.254.982-.504.514-.58.753-1.408.588-2.173-.114-.35-.319-.706-.654-.88-.452-.26-1.009-.25-1.503-.135zm-4.604-.007c-.254 1.22-.516 2.437-.765 3.657h.789c.113-.526.22-1.053.333-1.58l1.473.001c-.108.527-.224 1.051-.327 1.579h.788c.26-1.218.513-2.438.769-3.657a82.063 82.063 0 00-.792 0c-.1.467-.197.933-.296 1.4h-1.472c.096-.468.196-.933.293-1.4a61.654 61.654 0 00-.793 0zm-3.767 0c-.253 1.22-.514 2.437-.764 3.657h.943a697.92 697.92 0 011.857-2.56c-.171.854-.361 1.705-.533 2.56h.787c.263-1.217.513-2.438.77-3.657h-.94c-.62.85-1.235 1.7-1.855 2.55.169-.852.354-1.7.528-2.55a61.667 61.667 0 00-.793 0zm-4.427 3.657h.782c.07-.314.132-.63.199-.946.04-.343.406-.474.616-.7.278.55.553 1.099.832 1.646h.89c-.363-.721-.739-1.435-1.106-2.154.577-.502 1.154-1.003 1.735-1.5a40.25 40.25 0 00-1.053-.001c-.548.5-1.101.996-1.652 1.494.1-.5.206-.998.307-1.497l-.788.001c-.253 1.219-.517 2.436-.762 3.657z"/></g></svg>