<svg xmlns="http://www.w3.org/2000/svg" xmlns:xlink="http://www.w3.org/1999/xlink" width="60" height="60"><defs><path id="netbynet__a" d="M29.703 59.405c16.404 0 29.702-13.298 29.702-29.702C59.405 13.298 46.107 0 29.703 0 13.298 0 0 13.298 0 29.703c0 16.404 13.298 29.702 29.703 29.702z"/></defs><g fill="none" fill-rule="evenodd"><mask id="netbynet__b" fill="#fff"><use xlink:href="#netbynet__a"/></mask><use fill="#9D107D" xlink:href="#netbynet__a"/><g fill="#FFF" mask="url(#netbynet__b)"><path d="M30.304 18.91a1.83 1.83 0 011.364.576c.307.319.487.69.49 1.133.002.32.001.641.001.962 0 1.112-.03 2.225.006 3.336.03.972-.844 1.867-1.883 1.844-.641-.015-1.283 0-1.924-.006a1.808 1.808 0 01-.43-.055.419.419 0 01-.332-.358 2.467 2.467 0 01-.028-.361c0-1.91.004-3.821.003-5.731 0-.17-.014-.344-.054-.508a1.017 1.017 0 00-.655-.748 3.736 3.736 0 01-.12-.048c-.005-.002-.007-.011-.02-.038 1.207 0 2.394-.003 3.582.001M26.3 28.936c.114.02.232.023.349.023 1.225.002 2.45.007 3.675-.004a4.98 4.98 0 00.91-.094c1.53-.3 3.175-1.752 3.202-3.752.02-1.519.01-3.038.004-4.558a3.37 3.37 0 00-.544-1.847c-.84-1.294-2.037-1.986-3.618-1.999-.81-.007-1.62-.001-2.429-.002h-.273v-.261l.002-2.697c0-.1.001-.2-.007-.299a1.19 1.19 0 00-.907-1.061c-.38-.094-.77-.047-1.154-.045-.119 0-.18.076-.196.193-.007.057-.005.114-.005.171-.003.6-.008 1.198-.009 1.798l-.017 13.01c0 .086-.002.171.003.257.037.636.4 1.057 1.014 1.167m3.897 3.247h16.865c.429 0 .532.097.532.512 0 .22.007.444-.02.662-.068.546-.507.923-1.071.939-.088.002-.175 0-.263 0H12.794a1.37 1.37 0 01-.345-.033c-.172-.045-.253-.155-.256-.33-.005-.256-.01-.513.003-.77.028-.536.48-.96 1.027-.979.094-.003.19 0 .284 0h16.69M14.309 18.907c.643.239.865.718.866 1.326.002 1.897-.003 3.793-.005 5.69l-.006 2.61c0 .043 0 .086-.002.129-.009.233-.067.294-.3.297-.247.003-.495.006-.743-.003-.722-.026-1.195-.486-1.23-1.19-.004-.086-.003-.172-.003-.257l.01-10.419c0-.05-.003-.1.002-.15.014-.147.083-.217.232-.234.043-.005.088-.002.131-.002 1.56 0 3.12-.005 4.681.001 1.715.007 3.273 1.074 3.864 2.633.159.42.239.854.24 1.298 0 2.653-.005 5.306-.008 7.959 0 .057-.001.114-.01.17-.019.111-.085.19-.202.19-.35 0-.705.024-1.048-.024-.597-.083-.963-.503-1.013-1.094-.009-.113-.008-.228-.008-.342.002-2.232.004-4.464.008-6.696 0-.23-.008-.46-.095-.674-.28-.683-.78-1.102-1.542-1.195a2.732 2.732 0 00-.327-.022H14.31m24.812.021l.149.055c.41.157.64.458.719.873.027.146.04.297.04.446-.002 2.753-.006 5.506-.01 8.259 0 .043.001.085-.002.128-.015.203-.076.266-.286.268-.262.004-.525.008-.787-.003-.697-.032-1.163-.491-1.201-1.174a4.143 4.143 0 01-.005-.236l.01-10.419c0-.392.034-.422.44-.422 1.538 0 3.076-.006 4.615.001 1.71.008 3.277 1.085 3.859 2.64.157.42.236.854.236 1.299.003 2.646-.001 5.291-.004 7.937 0 .071-.004.143-.019.212-.02.092-.083.161-.18.16-.371-.004-.749.022-1.111-.036-.573-.092-.912-.497-.963-1.065-.013-.134-.011-.27-.011-.406.001-2.24.002-4.478.007-6.718 0-.7-.33-1.21-.92-1.574-.3-.185-.637-.244-.984-.245-1.167-.003-2.333-.001-3.5 0-.018 0-.036.007-.092.02m-6.101 23.009v-.23l.003-3.68c0-.065-.002-.13.002-.193.009-.138.029-.16.17-.165.102-.004.205-.006.306.006.254.028.422.2.45.45.005.049.004.099.004.149-.001 1.505 0 3.01-.005 4.515-.003.782-.548 1.426-1.332 1.584-.1.02-.202.03-.303.032-.438.003-.875.003-1.313 0-.209 0-.223-.017-.226-.218-.007-.51.165-.682.687-.685.277-.002.555-.008.832 0 .426.012.822-.428.696-.877-.064-.003-.134-.01-.205-.01-.299-.002-.598-.007-.897 0-.849.019-1.656-.728-1.639-1.61.02-1.026.006-2.054.007-3.08 0-.043 0-.086.002-.129.003-.074.038-.125.119-.125.13 0 .265-.009.392.015.239.044.394.234.419.487.006.07.003.142.003.213 0 .85.015 1.698-.009 2.547-.012.448.312.795.801.791.16-.001.321.005.482 0a.69.69 0 01.554.213m7.227-1.698c.218-.231.454-.272.71-.26.151.007.305.008.457-.005a.714.714 0 00.66-.72.72.72 0 00-.683-.677 4.79 4.79 0 00-.48 0c-.352.02-.648.304-.661.648-.013.319-.003.638-.003 1.013m.024.648c-.065.39.147.718.506.803.105.025.216.032.325.034.299.005.598-.002.897.005.29.006.443.148.479.426.056.435.033.46-.412.46-.379 0-.758.004-1.137-.001-.885-.011-1.601-.695-1.618-1.56-.012-.612-.01-1.226.004-1.84.016-.784.679-1.475 1.485-1.534.303-.022.617-.018.913.037.775.143 1.316.846 1.294 1.631-.02.731-.613 1.4-1.372 1.502-.358.047-.727.027-1.09.037-.093.002-.186 0-.274 0m-26.761-2.278c.216.137.245.341.244.563-.005 1.07-.005 2.139-.007 3.208 0 .063-.007.127-.011.212-.207.033-.407.05-.603-.015a.41.41 0 01-.28-.305 1.284 1.284 0 01-.036-.295c0-1.34.004-2.68.008-4.02.001-.287.004-.288.29-.288.597 0 1.195-.008 1.792.002a1.648 1.648 0 011.56 1.19 1.8 1.8 0 01.062.464c.005 1.012.002 2.024 0 3.036 0 .043 0 .086-.004.129-.006.073-.043.122-.123.122-.138 0-.278.008-.414-.01a.443.443 0 01-.382-.388c-.012-.077-.01-.157-.01-.235v-2.566c0-.1-.007-.2-.028-.297a.694.694 0 00-.653-.537c-.459-.009-.918-.002-1.376-.002l-.029.032m21.984-.007c.219.148.254.362.253.6-.005 1.026-.003 2.053-.003 3.08l-.002.192c0 .098-.054.141-.152.14-.109-.001-.219.005-.327-.004a.465.465 0 01-.443-.403c-.01-.07-.01-.143-.01-.214l.002-3.978.001-.107c.004-.23.01-.239.248-.24.59 0 1.181.009 1.771-.001.903-.015 1.699.749 1.682 1.641-.019 1.02-.005 2.039-.006 3.058 0 .043-.001.086-.003.128-.003.078-.046.118-.124.118-.131 0-.264.008-.393-.008-.222-.028-.373-.186-.406-.416-.01-.077-.008-.156-.008-.234 0-.877-.001-1.754.004-2.63.002-.275-.103-.49-.338-.631a.747.747 0 00-.345-.111c-.451-.013-.904-.006-1.355-.005-.012 0-.023.012-.046.025m-13.04-.027c.246.212.272.47.267.751-.01.542-.003 1.084-.004 1.627 0 .286.107.524.368.658.136.07.303.1.459.11.276.017.554.011.83.004.513-.014.65.38.584.795-.013.08-.077.095-.147.095h-.394c-.321 0-.642-.01-.963.002-.782.031-1.668-.621-1.67-1.63-.001-.878.002-1.755.003-2.632 0-.528.002-1.056.004-1.584 0-.057 0-.114.005-.17.007-.073.045-.123.125-.123.123 0 .25-.009.37.011.269.046.417.219.429.49.008.192.002.385.004.578 0 .027.01.054.02.099.071.004.141.012.211.012h1.379c.072 0 .146-.001.218.008.228.03.357.14.398.363.023.124.021.254.024.382.003.107-.062.153-.166.153l-.154.001h-2.2m21.985 0c.233.202.281.448.277.725-.008.549.014 1.098-.009 1.646-.015.375.26.771.772.778.284.003.569.009.853 0 .556-.017.662.371.61.79-.004.035-.057.075-.097.093-.036.017-.085.008-.129.008-.43 0-.86-.008-1.29.002-.87.02-1.662-.741-1.652-1.62.016-1.426.006-2.852.008-4.277 0-.233.01-.242.244-.244.065 0 .131-.004.196.003.292.03.477.22.49.508.008.15.001.3.003.45 0 .069.007.138.012.231h.247c.46 0 .919 0 1.378.002.086 0 .175.007.26.024.173.035.289.146.318.314.025.146.019.297.02.447 0 .077-.055.112-.129.117-.065.004-.13.003-.196.003H44.44M28.52 40.99c-.003.385-.245.675-.639.715a6.51 6.51 0 01-.937.01c-.202-.008-.254-.082-.255-.297-.001-.734-.002-1.468.004-2.202.001-.234-.014-.455-.263-.627.078-.008.111-.014.144-.014.4 0 .802.013 1.202-.003.371-.014.762.32.75.729-.016.563-.002 1.126-.006 1.689m.935-1.735a1.612 1.612 0 00-1.21-1.524 2.61 2.61 0 00-.562-.06c-.32-.01-.639-.003-.99-.003 0-.38-.013-.73.004-1.077.02-.433-.15-.72-.709-.684-.209.013-.223.015-.225.22-.003.378-.002.755-.003 1.133-.002 1.59 0 3.179-.008 4.768-.002.349.17.602.598.59.495-.013.99.004 1.486-.004.894-.015 1.605-.712 1.617-1.584a80.78 80.78 0 00.002-1.775m-10.049.722c-.152.01-.305.004-.457.004-.347.001-.423.027-.697.254 0-.334-.005-.64.002-.945.01-.413.314-.704.737-.714.13-.003.262-.004.393.001.39.014.69.305.699.679a.702.702 0 01-.677.721m.317-2.264a4.397 4.397 0 00-.761-.042c-.92.015-1.636.73-1.642 1.632-.004.563-.004 1.126-.001 1.69.005.906.723 1.613 1.645 1.622.372.003.744.005 1.115 0 .436-.007.421.085.406-.418-.01-.318-.164-.463-.494-.469-.298-.006-.597 0-.896-.004a1.711 1.711 0 01-.302-.033c-.285-.057-.617-.415-.513-.804.077 0 .162.002.247 0 .371-.01.746.012 1.112-.036a1.596 1.596 0 001.381-1.532c.029-.92-.715-1.513-1.297-1.606"/></g></g></svg>