<svg xmlns="http://www.w3.org/2000/svg" viewBox="0 0 80 80"><circle cx="40" cy="40" r="40" fill="#2b69d6"/><path fill="#fff" d="M33.3 31.5c-4.4.6-9.4 2.1-12.8 3.7-1.9.9-3.4 2-3.8 2.7-.3.6-.2.8.5.8.9.1.9.1 1.2.5.3.4.6.7.9.8.1 0 1.7.1 3.6.1 3.5.1 4.3.1 4.7.5.6.5-.2 1.2-2.1 1.8-2.6.8-7.3 1.7-12.2 2.4-2.5.3-2.5.3-1.3-.3 1.1-.5 1.4-.8 1.3-1-.1-.2-.6-.1-2.3.6-2 .8-2 .9-2.5 1.3-.3.2-.8.5-1.8 1-.8.4-1.5.7-1.5.8-.2 0-.2.1-.2.2 0 .2.1.2.9.2 2.5.1 8.4-.8 12.7-1.9 7.1-1.8 11.9-4 12.8-5.7.2-.5.2-1 0-1.3-.2-.3-.8-.6-1.4-.8-1.1-.2-2.2-.3-6.2-.3-3.7 0-4 0-4.2-.2-.3-.2-.3-.4.1-.8.9-.8 3.1-1.6 7-2.3 3.3-.6 5.3-.9 5.4-.7 0 0 0 .2-.1.3-.1.2-.2.4-.2.5 0 .2 0 .2.4.2s1.3-.6 3.2-1.8c.7-.5 1-.8.8-1.2l-.3-.3c-.2.1-1.9.1-2.6.2zm24.8 1.6c-1.1.4-1.6.6-2 1-1.8 1.5-8 6.9-9.2 8.1-.5.5-.6.8-.3.8.2 0 1.5-.4 1.8-.6.1-.1.8-.6 1.5-1.2s1.2-1.1 1.2-1c0 0-.1.2-.2.5s-.2.7-.3 1c-.1.4-.1.5.1.7.2.4.6.6 1.1.6.3 0 1.8-.4 3.3-.9.4-.1.9-.6.9-.8 0-.2-.3-.2-.7 0-.6.3-1.1.3-1.6.1-.6-.3-.7-.9-.4-1.6.2-.5.2-.5 0-.6-.3-.2-.2-.2.4-.4.3-.1.9-.3 1.1-.4.5-.1.5-.1.6 0 .1.1.1.2 0 .3-.1.1-.5.4-.8.6-.8.4-1 .6-1 .8 0 .4.7.2 1.4-.3.3-.2.8-.5 1.2-.6.4-.2.9-.4 1-.5.4-.3.9-.9 1.1-1.2.1-.3.1-.3 0-.5-.1-.1-.2-.2-.4-.2-.5 0-1.8.4-2.7.8-2 .8-2.3 1-2.2.9.5-.4 1.6-1.2 3.7-2.9 1.3-1.1 2.5-2 2.5-2 .1-.2-.1-.7-.2-.7-.1-.1-.5 0-.9.2zm-9.4 2.5c-.9.2-2 1-1.9 1.3 0 .1.1.1.7.1 1.1 0 1.5-.1 2-.6.5-.4.7-.7.6-.9 0-.1-.7-.1-1.4.1zm-10.1 1c-.9.2-2 .8-3.5 1.7-1.5.9-2.4 1.6-2.4 1.9 0 .1 0 .2.4.1.3 0 .5-.1.9-.4.6-.4 1.4-.8 2.2-1.2l.6-.2-.4.4c-1.3 1.4-2.2 2.2-2.4 2.2-.3 0-1.9.7-2.2.9-.4.3-.4.5-.1.6.8.2.9 0-1.3 2-2.1 2-2.3 2.1-2.3 2.4 0 .3.2.3.9.1.3-.1.8-.2 1-.2.6-.1.8-.2 1-.7.2-.4.8-1 2.7-2.6l.8-.7h.7c.4 0 1.1-.1 1.5-.2 1-.2 2.7-.7 2.9-.9.2-.1.2-.3.1-.3-.2 0 0-.2.5-.4.9-.5 1.7-1 2.1-1.5.5-.6.9-1.3.9-1.7 0-.3 0-.3-.2-.4-.8-.2-2.8.5-4.7 1.7l-.7.4 1-1c1.3-1.3 1.6-1.9 1.3-2.2-.1 0-.8 0-1.3.2zM41 39c0 .2-.5.8-1.3 1.4-1.2.9-1.5 1-2.4 1-.4 0-.8 0-.8-.1 0-.2 1.5-1.2 2.4-1.7.7-.4 1.7-.8 1.9-.8.1.1.2.1.2.2zm30.1-2c-1.7.5-4 1.7-4.1 2.2 0 .1 0 .4.1.7.1.5.1.6 0 1-.2.6-.5 1-.7 1-.2 0-.4-.2-.4-.5s-.2-.5-.5-.5c-.7.1-2.1 1.1-2.1 1.5 0 .4.8.6 1.9.5 1.9-.2 4.1-1.3 4.5-2.3.2-.5.2-1 .1-1.4-.2-.5-.2-.5.1-.7.2-.2.2-.2.4-.1.2.2.7.2 1 0 .2-.1 1-1.1 1-1.2-.1-.3-.6-.4-1.3-.2zm-6.8.2c-1.1.2-3.4 1.1-4.5 1.7-.8.5-1.7 1.2-2.2 1.6-.8.7-1.1 1.6-.8 1.8.1.1.6.2 1.2.4 1.1.3 1.1.3 1.8.2.9-.1 1.8-.3 2.2-.6.2-.1.3-.2.3-.4s0-.2-.9 0c-.4.1-.8.2-.9.2-.5 0-1-.3-1-.6 0 0 .1-.1.3-.1 1.1-.2 3.4-1.3 4-1.9.1-.1.3-.3.6-.5.8-.6 1.3-1.5 1-1.8 0-.1-.5-.1-1.1 0zm-.6 1.2c.1.1-.8.9-1.5 1.3-.8.5-2 1-2.2 1-.1 0-.1-.1.2-.4 1-1.1 3.2-2.3 3.5-1.9zm-16.1-.9c-.3.1-.6.2-1 .3-.7.2-1 .3-2.6 1.8-1.8 1.6-2.1 1.9-2.4 2.3-.3.4-.3.6-.1.9.2.3.6.3 1.5.1.4-.1.8-.2 1.3-.3.8-.1 2.2-.9 2.2-1.2 0-.2-.2-.2-.9 0l-.8.2c-.6 0 .4-1.1 2.4-2.7 1.1-.8 1.3-1.1 1.3-1.3-.2-.3-.4-.3-.9-.1z"/></svg>