<svg xmlns="http://www.w3.org/2000/svg" xmlns:xlink="http://www.w3.org/1999/xlink" width="80" height="80"><defs><circle id="tastycoffeesale__a" cx="40" cy="40" r="40"/></defs><g fill="none" fill-rule="evenodd"><use fill="#000" xlink:href="#tastycoffeesale__a"/><g fill="#FFFFFE"><path d="M39.643 17.14A65.044 65.044 0 008.54 25.083a.826.826 0 00-.42.808c1.21 8.509 2.502 18.804 3.838 30.6a.83.83 0 00.459.652 64.39 64.39 0 0027.224 5.99c9.34 0 18.755-2.07 27.225-5.99a.83.83 0 00.459-.65c1.336-11.798 2.628-22.093 3.839-30.601a.829.829 0 00-.42-.809 65.045 65.045 0 00-31.102-7.943zm0 .544a64.279 64.279 0 0130.84 7.877c.087.048.155.168.142.254-1.263 8.876-2.544 19.171-3.84 30.616a.289.289 0 01-.147.218 64.286 64.286 0 01-26.996 5.94 64.273 64.273 0 01-26.995-5.94.289.289 0 01-.147-.218c-1.296-11.445-2.577-21.74-3.84-30.616-.013-.086.055-.206.143-.254a64.28 64.28 0 0130.84-7.877z"/><path d="M24.054 22.743c-1.168.346-7.33 2.236-11.337 4.664a.155.155 0 00-.072.153l.407 3.184a.152.152 0 00.216.12c.35-.167 1.163-.55 2.303-1.032a.157.157 0 01.218.13l.728 10.362c.006.086.082.15.167.144l4.145-.352a.154.154 0 00.141-.16l-.514-11.85a.155.155 0 01.106-.153 52.413 52.413 0 013.57-1.044.153.153 0 00.117-.149v-3.868a.152.152 0 00-.195-.15zm33.512 1.095l2.349 6.786c.007.02.01.042.007.064l-.826 9.369a.154.154 0 00.143.167l4.574.295a.155.155 0 00.164-.14l.74-8.333a.158.158 0 01.009-.04l1.616-4.419a.154.154 0 00-.074-.19l-1.898-.98a.155.155 0 00-.214.08l-1.11 2.753c-.056.142-.262.123-.294-.026l-.812-3.885a.154.154 0 00-.095-.112l-4.077-1.584a.154.154 0 00-.202.195zm-27.288 8.277l-1.485.177a.155.155 0 01-.172-.167l.538-5.868a.152.152 0 01.12-.137 9.61 9.61 0 01.585-.095l.549 5.922a.154.154 0 01-.135.168zm5.513 5.625l-3.54-16.356a.154.154 0 00-.18-.119c-.749.146-4.12.8-4.956.986a.149.149 0 00-.117.123c-.21 1.336-2.61 15.757-2.912 17.572a.152.152 0 00.162.176l1.934-.115c.086-.005.14-.078.138-.16-.427-1.14-.353-2.251.349-3.004.013-.014.03-.023.042-.036.02-.023.035-.048.056-.07.404-.433.963-.68 1.62-.75.004-.016.012-.033.013-.051l.027-.371a.309.309 0 01.295-.286l1.823-.08a.155.155 0 01.161.145l.064 1.124c.557.27 1.099.633 1.582 1.084.812.757 1.373 1.651 1.65 2.527.055-.15.118-.3.196-.453.352-.69.905-1.336 1.593-1.886zm7.896-8.848c-.007-.006-.01-.009-.017-.013-.144-.092-2.416-1.564-2.354-2.99.022-.538.379-.983 1.079-1.33a9.56 9.56 0 00.62-.372c.065-.04.09-.12.061-.19l-1.505-3.606a.152.152 0 00-.185-.09c-1.026.316-5.279 1.868-5.38 5.932-.068.82.83 2.967 3.202 4.212 1.126.439 2.194 1.342 1.81 2.568-.035.074-.853 1.766-3.86 2.149a.155.155 0 00-.13.202l.439 1.245a.143.143 0 00.099.088c.773-.32 1.569-.496 2.31-.496 1.219 0 2.182.462 2.647 1.266.352.61.388 1.359.122 2.148l.491-.018c.304-.23 3.129-2.413 3.407-4.38a2.19 2.19 0 01.055-.224c.22-.773.802-2.825-2.911-6.101zm-9.404 13.73h-.409a2.24 2.24 0 01-.318.445c-.012.013-.029.022-.042.036-.02.022-.035.047-.056.07-.305.326-.702.542-1.157.664l.647 15.096a.16.16 0 00.142.15c1.416.15 2.337-.222 3.755-.19a.155.155 0 00.16-.153v-6.057c0-.085.07-.154.155-.154h1.436a.154.154 0 00.155-.154V49.29a.155.155 0 00-.154-.154l-1.637-.008a.154.154 0 01-.153-.153l-.029-3.644c0-.086.069-.156.155-.156h2.458a.155.155 0 00.155-.154l.016-2.072a.15.15 0 00-.022-.079c-.923.466-1.904.733-2.807.733-1.066 0-1.938-.354-2.45-.982zm30.176-.515l-5.465.227a.154.154 0 00-.147.152l-.226 13.452a.157.157 0 00.211.148c1.48-.539 2.654-1.075 4.111-1.752a.16.16 0 00.09-.124l.21-1.845.005-.038-1.606.334a.154.154 0 01-.186-.155l.065-3.073a.155.155 0 01.113-.146l.7-.192a.154.154 0 00.113-.138l.114-1.64a.309.309 0 00-.308-.33h-.33a.309.309 0 01-.308-.326l.082-1.507a.154.154 0 01.136-.145l2.338-.271-.02-.095c.081-.678.163-1.35.244-2.016l.064-.52zm-36.533 11.55c-.622.034-1.271-1.822-1.44-3.76-.167-1.94-.072-4.049.931-4.048 1.138.002 1.153 1.987 1.322 3.926.167 1.938-.191 3.849-.813 3.882zm-1.962-11.201c-1.9.186-3.382 1.386-3.05 7.526.23 4.215 1.52 8.103 4.61 8.103 2.718 0 3.976-3.497 3.775-8.28-.303-7.203-3.374-7.542-5.335-7.349zm25.224-2.618l2.867.17a.154.154 0 00.164-.154l-.066-13.274c0-.103.097-.177.195-.15l1.695.466a.154.154 0 00.195-.142l.138-3.083a.152.152 0 00-.103-.153c-.847-.285-4.605-1.477-10.661-2.327a.157.157 0 00-.18.16l.159 3.551c.003.075.06.136.133.146l3.363.46c.077.01.133.076.133.153v12.825c0 .015.009.028.013.042.203.094.407.188.604.302.503.29.956.633 1.351 1.008zm-6.69 2.654l-3.038.101a.154.154 0 00-.149.162l.785 16.586c.004.084.08.15.164.147a39.27 39.27 0 003.57-.267.159.159 0 00.142-.147l.308-6.416a.154.154 0 01.143-.147l1.993-.14a.154.154 0 00.143-.157l-.052-2.979a.154.154 0 00-.154-.152l-2.246-.006a.154.154 0 01-.153-.14l-.35-3.787a.154.154 0 01.161-.168l2.65.138a7.082 7.082 0 01-1.791-.725c-.9-.52-1.625-1.19-2.127-1.903zm10.147 2.985h2.664a.155.155 0 00.155-.16l-.083-2.787a.155.155 0 00-.158-.15l-4.499.108c-.003 0-.005.003-.008.003.082.57-.005 1.101-.268 1.557-.352.61-1.103 1.038-1.925 1.201v.228l.237 12.686c.002.096.086.17.18.15 2.057-.405 5.636-1.482 6.292-1.681a.15.15 0 00.106-.145l.023-2.521a.154.154 0 00-.18-.154l-2.593.44a.154.154 0 01-.18-.164l.224-3.075a.154.154 0 01.107-.136l.955-.308a.154.154 0 00.107-.15l-.046-2.576a.155.155 0 00-.154-.151h-1a.154.154 0 01-.153-.159l.043-1.905a.154.154 0 01.154-.15z"/><path d="M31.877 41.989a3.71 3.71 0 01-.23-.156c-.122-.093-.176-.165-.234-.24a1.554 1.554 0 00-.14-.165.905.905 0 00-.25-.149c-.106-.05-.216-.1-.286-.183-.053-.062-.083-.146-.112-.226a.693.693 0 00-.116-.23 5.446 5.446 0 00-.372-.373 5.378 5.378 0 01-.2-.2c-.193-.196-.41-.419-.61-.513-.076-.036-.184-.038-.29-.04-.123 0-.251-.002-.353-.058-.138-.075-.305-.376-.35-.483a.514.514 0 01-.02-.15.82.82 0 00-.012-.128 1.532 1.532 0 00-.117-.252c-.022-.04-.059-.083-.097-.13-.092-.108-.195-.232-.185-.361l.004-.055.053-.014a.349.349 0 01.09-.012c.285 0 .506.336.683.607.053.079.099.15.14.198.166.199.351.296.547.398.139.073.283.148.417.261.096.08.205.154.316.229.202.137.41.277.577.476.097.115.182.232.266.349.13.179.264.363.445.54.15.145.301.267.457.395.091.073.183.148.277.229.032.027.074.066.123.11.184.17.515.472.71.52.02-.036.037-.086.07-.194.136-.453.05-.885-.067-1.32-.058-.216-.041-.46-.11-.667-.076-.232-.222-.33-.369-.514-.259-.319-.418-.627-.745-.899-.29-.241-.521-.546-.837-.797-.677-.535-1.507-.928-2.388-.874-.492.032-1.066.35-1.326.764-.352.56-.256 1.203.009 1.774.232.503.52 1.088.905 1.49.572.597 1.165 1.172 1.953 1.484.37.146.748.391 1.173.412.296.014.899.002 1.259-.167.017-.213-.382-.51-.658-.686m9.816-3.773l-.016-.021a.65.65 0 00-.183-.16c-.018-.008-.102.011-.122.011-.11 0-.242.124-.347.223-.044.04-.084.078-.12.105-.13.1-.25.208-.37.316-.133.12-.265.239-.408.345-.093.07-.192.11-.286.146a.878.878 0 00-.24.125c-.02.017-.034.045-.05.076-.025.046-.055.103-.114.149a.691.691 0 01-.186.082c-.044.016-.088.03-.115.044-.085.043-.167.088-.249.132a8.097 8.097 0 01-.26.136c-.091.045-.179.092-.268.138l-.218.114a.997.997 0 00-.355.272c-.21.22-.423.326-.628.429-.135.067-.272.134-.4.225-.118.085-.26.176-.433.176a.514.514 0 01-.135-.018c-.036-.01-.145-.04-.16-.136-.017-.117.125-.206.263-.292l.07-.045c.115-.08.264-.157.418-.236.234-.12.476-.245.612-.39.024-.025.024-.034.023-.064 0-.04 0-.102.071-.173.04-.04.117-.07.222-.11l.068-.025c.17-.078.333-.154.498-.236.26-.13.511-.29.755-.446l.198-.126c.297-.163 1.007-.6 1.173-.753.052-.054.13-.115.216-.18.28-.214.53-.456.43-.647l-.001-.002-.023-.032-.001.002v-.004l-.002-.002c-.252-.325-.853-.267-1.219-.285-.784-.036-1.536.321-2.25.649-.673.309-1.392.734-1.855 1.333-.226.291-.537.597-.693.925-.095.198-.093.438-.124.648-.068.477-.432.78-.12 1.25.45.673 1.635.774 2.4.695.856-.088 1.532-.5 2.313-.788.717-.266 1.174-.716 1.735-1.224.414-.374.57-.86.581-1.4.006-.254.036-.67-.095-.951m9.356 2.723c-.297-.304-.59-.682-.931-.938-.334-.251-.782-.47-1.158-.686-.593-.346-1.273-.448-1.952-.512-.364-.035-.701-.07-1.072-.028-.441.052-.573.165-.784.5l.03.035c.066.108.243.12.4.133.053.003.104.007.148.014.261.044.308.102.346.216.014.047.03.094.109.162.058.052.172.083.282.114.102.029.208.058.292.107.122.074.216.158.308.24.059.053.118.106.185.156.17.126.364.22.571.319.197.094.4.191.586.321.19.133.407.287.549.44a.521.521 0 01.139.32c.009.068.015.106.05.138.047.046.154.064.257.08.089.015.181.03.252.066.092.048.179.111.265.175.08.059.16.118.245.164.043.022.087.04.13.058.138.059.296.124.352.318.033.11.025.198-.022.26-.046.062-.123.094-.231.094a.957.957 0 01-.253-.041c-.249-.072-.372-.232-.49-.387-.102-.132-.196-.255-.37-.33a1.795 1.795 0 00-.302-.086c-.304-.07-.649-.15-.744-.436l-.028-.083.085-.017a.687.687 0 01.21-.01c-.304-.245-.653-.452-1.066-.674a6.355 6.355 0 01-.364-.218c-.242-.152-.492-.309-.731-.381-.044-.013-.086-.017-.127-.021-.09-.01-.193-.021-.296-.114a.431.431 0 01-.115-.2c-.016-.045-.03-.089-.056-.117-.1-.106-.314-.187-.505-.258a3.45 3.45 0 01-.249-.1.543.543 0 00-.199-.058l-.057.085-.007-.008a.575.575 0 00-.053.088c-.113.25-.099.643-.027.907.104.38.265.782.506 1.107.257.347.485.692.821.974.337.28.659.44 1.017.673.82.538 1.466.861 2.45.955.543.051.94-.09 1.414-.35.35-.19.792-.522.92-.934.254-.83-.224-1.715-.73-2.232M21.916 52.644a.153.153 0 00-.126-.116c-.89-.136-2.707-.786-2.982-3.814-.078-.868.344-3.508 2.756-4.035a.152.152 0 00.118-.118l.412-2.12a.153.153 0 00-.139-.184c-1.53-.092-4.396.111-5.76 2.65-2.05 3.81-.334 11.431 6.342 11.101a.16.16 0 00.146-.194l-.767-3.17"/></g></g></svg>