<svg xmlns="http://www.w3.org/2000/svg" width="40" height="40" fill="none"><circle cx="20" cy="20" r="20" fill="#0043C4"/><path fill="#fff" d="M14.181 20.45h.261a3.3 3.3 0 00.918-.085.996.996 0 00.416-.268.883.883 0 00.217-.406.378.378 0 000-.244.28.28 0 00-.156-.139 1.891 1.891 0 00-.525-.044h-.61l-.521 1.185zm-.972 2.272h-.853l1.774-4.141h1.693c.23-.01.461.026.677.105a.629.629 0 01.339.339c.066.187.074.39.024.582a1.93 1.93 0 01-.254.609 1.938 1.938 0 01-.406.491 1.734 1.734 0 01-.44.271 2.41 2.41 0 01-.579.139 6.796 6.796 0 01-.755.027h-.562l-.657 1.578zm4.476-1.639a.889.889 0 00.102.718.699.699 0 00.619.288c.254-.008.5-.086.711-.227.271-.176.502-.406.677-.677.19-.273.328-.58.406-.904a.943.943 0 00-.094-.769.7.7 0 00-.609-.277 1.512 1.512 0 00-1.141.582c-.333.36-.566.802-.677 1.28l.007-.014zm-.853.014c.063-.269.157-.529.281-.775.165-.348.383-.668.647-.948.253-.265.554-.48.887-.633a2.518 2.518 0 011.073-.234 1.356 1.356 0 011.137.478 1.483 1.483 0 01.197 1.269 3.402 3.402 0 01-.586 1.27 3.18 3.18 0 01-1.043.945c-.387.22-.824.337-1.27.339a1.434 1.434 0 01-.904-.271 1.087 1.087 0 01-.423-.643 1.888 1.888 0 010-.785m4.304.282l.819-.041a.822.822 0 00.02.521c.091.146.305.22.64.22a1.13 1.13 0 00.64-.149.595.595 0 00.264-.362l-.003-.166-.082-.145a2.237 2.237 0 00-.521-.301 4.11 4.11 0 01-.626-.339.741.741 0 01-.271-.366.956.956 0 010-.525c.069-.357.268-.676.559-.894.342-.24.754-.359 1.171-.339a1.386 1.386 0 011.053.339 1.02 1.02 0 01.244.914l-.823.037a.54.54 0 00-.115-.454.668.668 0 00-.239-.132c-.088-.027-.181-.037-.272-.027a.927.927 0 00-.532.125.505.505 0 00-.22.315l-.002.157.076.137c.163.139.345.253.542.339.295.116.566.286.799.501a.818.818 0 01.132.728c-.09.381-.318.715-.64.938a2.09 2.09 0 01-1.293.389 1.949 1.949 0 01-.887-.179.805.805 0 01-.443-.498 1.43 1.43 0 010-.735M26.377 22.725h-.853L27 19.275h-1.216l.291-.694h3.264l-.291.694h-1.195l-1.476 3.45zm1.652-.782h.802l-.325.782H27.7l.329-.782zm1.249.782l1.778-4.144h.85l-.755 1.761 2.299-1.761h1.141l-2.211 1.625.813 2.519h-.968l-.586-1.974-.965.711-.542 1.263h-.853zm4.094 0l.278-.654 3.007-2.793h-1.94l.298-.694h2.986l-.264.647-3.03 2.814h2.184l-.298.694-3.22-.014z"/><path fill="#fff" fill-rule="evenodd" d="M12.437 18.557c-1.056.071-2.113.139-3.558.217-1.446.078-3.277.163-4.655.129a20.747 20.747 0 01-3.223-.345c.333.319.725.568 1.155.735a6.891 6.891 0 002.505.338 32.631 32.631 0 004.08-.399 74.644 74.644 0 003.697-.677m-.265.771c-1.557.267-3.115.535-4.175.704-1.06.169-1.625.244-2.177.281-.508.037-1.019.037-1.527 0a8.414 8.414 0 01-1.127-.2c.46.221.943.392 1.439.511a9.803 9.803 0 002.201.217 20.636 20.636 0 002.262-.19l1.256-.156a2.46 2.46 0 00-.406.796c-.06.286-.042.584.054.86.072.195.188.371.339.515.098-.438.234-.866.406-1.28.201-.419.445-.816.728-1.185.226-.304.47-.596.728-.873" clip-rule="evenodd"/></svg>