<svg xmlns="http://www.w3.org/2000/svg" width="80" height="80"><g fill="none" fill-rule="evenodd"><circle cx="40" cy="40" r="40" fill="#5F9B43"/><g fill="#FFF"><path d="M33.986 40.062c0 7.378-.008 14.756.014 22.135.002.614-.133.812-.798.803a415.442 415.442 0 00-8.541-.007c-.488.004-.66-.103-.66-.618.015-14.908.016-29.817-.001-44.725 0-.565.204-.648.712-.644 2.847.022 5.694.033 8.54-.006.652-.008.746.219.744.775-.016 7.43-.01 14.858-.01 22.287m3.194 6.96c3.65.093 7.161.788 10.345 2.672 4.762 2.817 7.49 7.074 8.442 12.544.094.536.015.753-.618.76-4.142.044-8.152-.526-11.8-2.652-4.809-2.802-7.551-7.078-8.517-12.574-.093-.53-.014-.832.628-.762.501.055 1.013.011 1.52.011"/><path d="M37.074 46.995c-.244 0-.488.005-.731-.001-1.48-.039-1.569.33-1.069-1.529 2.088-7.767 6.831-12.479 14.197-14.066 1.562-.336 3.148-.37 4.733-.397.854-.015.893.026.702.92-1.008 4.736-3.325 8.558-6.973 11.398-3.233 2.516-6.922 3.534-10.859 3.675"/></g></g></svg>