<svg xmlns="http://www.w3.org/2000/svg" xmlns:xlink="http://www.w3.org/1999/xlink" width="60" height="60"><defs><path id="new-link__a" d="M29.703 59.405c16.404 0 29.702-13.298 29.702-29.702C59.405 13.298 46.107 0 29.703 0 13.298 0 0 13.298 0 29.703c0 16.404 13.298 29.702 29.703 29.702z"/><path id="new-link__c" d="M29.703 59.405c16.404 0 29.702-13.298 29.702-29.702C59.405 13.298 46.107 0 29.703 0 13.298 0 0 13.298 0 29.703c0 16.404 13.298 29.702 29.703 29.702z"/><path id="new-link__e" d="M0 .287v25.617h24.83V.287H0z"/><path id="new-link__g" d="M4.981 6.166V.015H.077v6.151H4.98z"/></defs><g fill="none" fill-rule="evenodd"><mask id="new-link__b" fill="#fff"><use xlink:href="#new-link__a"/></mask><use fill="#29383E" xlink:href="#new-link__a"/><g mask="url(#new-link__b)"><mask id="new-link__d" fill="#fff"><use xlink:href="#new-link__c"/></mask><use fill="#4E6FB1" xlink:href="#new-link__c"/><g mask="url(#new-link__d)"><path fill="#65B455" d="M44.197 34.247l1.735-3.766c.874-1.898 1.743-3.798 2.624-5.692.376-.809 1.143-1.25 1.93-1.138 1.28.18 1.994 1.435 1.463 2.614-.77 1.708-1.562 3.406-2.344 5.109-1.296 2.819-2.588 5.64-3.888 8.456-.46.997-1.275 1.383-2.27 1.094-.674-.195-1.04-.687-1.272-1.313-.936-2.527-1.877-5.053-2.817-7.58l-.463-1.24-1.008 2.233c-.988 2.194-1.95 4.399-3.051 6.54-.482.935-1.334 1.332-2.274 1.073-.6-.166-.963-.579-1.222-1.12-.094-.198.06-.334.062-.499.01-.741.005-1.483.005-2.261-.238.148-.477.285-.703.441-.134.093-.175.068-.24-.078-.237-.54-.236-.529.189-.93.812-.77 1.325-1.674 1.158-2.833-.12-.84-.633-1.42-1.358-1.823a3.801 3.801 0 00-1.83-.48c-.31-.003-.44-.12-.534-.405-.225-.685-.489-1.357-.738-2.034-.047-.13-.09-.244-.02-.395.706-1.515 1.4-3.033 2.136-4.632l3.821 10.377c.183-.389.332-.703.478-1.02 1.18-2.564 2.357-5.131 3.54-7.695.43-.934 1.32-1.4 2.23-1.17.662.166 1.062.608 1.295 1.23 1.057 2.82 2.12 5.638 3.18 8.457l.186.48"/><g transform="translate(7 15.086)"><mask id="new-link__f" fill="#fff"><use xlink:href="#new-link__e"/></mask><path fill="#FFF" d="M13.11 18.998c.747-1.606 1.473-3.166 2.197-4.727 1.988-4.283 3.974-8.568 5.965-12.85.451-.973 1.517-1.39 2.456-.973.957.426 1.37 1.515.923 2.489-2.012 4.384-4.032 8.765-6.04 13.15a.709.709 0 01-.457.407c-1.452.518-2.73 1.293-3.72 2.496-1.54 1.866-1.363 4.45-.122 5.936.144.173.067.255-.043.375-.86.931-2.307.764-2.937-.358-.336-.598-.528-1.26-.775-1.897-.88-2.265-1.75-4.533-2.624-6.8-.05-.13-.104-.257-.181-.444-.433.94-.844 1.833-1.257 2.725-.963 2.08-1.924 4.16-2.893 6.237a1.894 1.894 0 01-2.185 1.052C.552 25.6-.044 24.766.002 23.849c.012-.223.095-.419.185-.614 2.014-4.37 4.03-8.738 6.046-13.106.355-.768.953-1.17 1.812-1.147.782.02 1.38.508 1.688 1.317 1.089 2.849 2.184 5.695 3.279 8.542.012.033.038.062.099.157" mask="url(#new-link__f)"/></g><path fill="#FFF" d="M23.598 36.37c1.034-.074 2.014-.213 2.971-.486.6-.171 1.19-.377 1.695-.757.503-.378.74-.879.582-1.297-.205-.543-.7-.616-1.194-.64-1.833-.09-3.553 1.074-4.268 2.856-.124.31-.041.381.214.324M31 37.637v1.22c.002.195-.15.286-.272.39-1.287 1.097-2.813 1.619-4.474 1.749-.77.06-1.552.076-2.324-.072-3.32-.632-3.803-4.022-2.655-5.956.894-1.508 2.28-2.392 3.884-2.975 1.358-.495 2.759-.74 4.2-.399 1.888.449 2.546 2.151 1.462 3.753-.585.863-1.457 1.32-2.413 1.644-1.514.513-3.089.619-4.671.659-.476.011-.573.148-.394.597.15.377.448.612.803.774 1.198.544 2.424.496 3.657.132.959-.284 1.834-.75 2.699-1.239l.498-.277M42.108 17.95v2.676c-.001.14.005.28-.013.417-.045.327-.29.537-.6.514-.33-.026-.514-.225-.53-.54-.022-.404-.008-.81-.009-1.215 0-1.19.005-2.379-.003-3.568-.002-.336.023-.652.393-.78.395-.137.615.126.818.4l2.397 3.243c.135-.078.068-.19.068-.278.006-.886.001-1.772.005-2.658.002-.481.21-.747.57-.746.384 0 .623.276.624.75.005 1.544.003 3.088.001 4.632 0 .317-.05.624-.403.742-.354.119-.582-.108-.779-.348-.782-.951-1.488-1.958-2.214-2.952l-.23-.318-.095.03m-17.002 4.388c-.283-.747-.565-1.487-.844-2.227-.287-.757-.577-1.513-.856-2.273-.354-.96.06-1.975 1.004-2.365.872-.36 1.862-.117 2.364.865.195.382.339.79.515 1.182.047.105.035.187-.01.285-.696 1.492-1.387 2.985-2.082 4.477-.008.017-.038.024-.09.056"/><g transform="translate(47.159 15.402)"><mask id="new-link__h" fill="#fff"><use xlink:href="#new-link__g"/></mask><path fill="#FFF" d="M1.277 2.498L3.382.435c.447-.44.756-.511 1.05-.242.282.26.214.608-.204 1.05-.297.312-.586.634-.895.935-.157.151-.168.264-.05.45.493.783.968 1.577 1.45 2.366.046.076.095.15.136.229.188.36.137.671-.135.841-.313.195-.655.108-.881-.244-.274-.426-.535-.861-.803-1.292-.22-.355-.452-.703-.663-1.064-.098-.167-.176-.196-.295-.033a.112.112 0 01-.026.027c-.653.452-.931 1.059-.794 1.85a.893.893 0 01-.043.41c-.096.296-.308.467-.631.44C.262 6.13.1 5.907.09 5.595.073 5.001.079 4.405.078 3.811a871.05 871.05 0 010-2.886C.078.787.074.645.101.51.159.218.337.032.647.016c.314-.016.5.16.585.443.094.31.035.63.043.944.01.338.002.676.002 1.095" mask="url(#new-link__h)"/></g><path fill="#FFF" d="M33.223 18.465c0-.796-.008-1.593.003-2.389.007-.477.359-.76.77-.64.345.1.425.378.429.684.008.683.003 1.365.004 2.048 0 .606.014 1.213-.007 1.82-.01.289.061.396.373.386.7-.023 1.4-.008 2.1-.007.236 0 .464.039.618.236a.583.583 0 01.09.608c-.107.26-.338.34-.59.343-.661.01-1.323.004-1.985.004-.356 0-.713.008-1.07-.002-.463-.013-.728-.277-.733-.74-.008-.784-.002-1.567-.002-2.35m5.204-.014c0-.783-.008-1.566.002-2.35.006-.449.256-.706.633-.687.335.017.577.244.58.63.013 1.641.012 3.283 0 4.925-.002.37-.268.596-.609.591-.344-.005-.597-.258-.602-.647-.012-.82-.004-1.642-.004-2.462"/></g></g></g></svg>