<svg xmlns="http://www.w3.org/2000/svg" viewBox="0 0 40 40"><g data-name="лого игры"><circle cx="20" cy="20" r="20" fill="#2c4b79"/><path fill="#fff" d="M12.91 16.9l-2.62 8.32h-2c-.39-1.39-.8-2.78-1.17-4.18s-.7-2.8-1.06-4.24l-.4 8.6H3.37l.72-10.81h3.33c.75 2.47 1.54 4.94 2.07 7.5.63-2.55 1.45-5 2.28-7.51h3.28l.6 10.82h-2.44zm21.6 5.34c-.23-2.55-.14-5.1-.16-7.65h2.28V25.4H34c-1.44-2.66-3.09-5.22-4.33-8l.09 8h-2.3V14.59h2.92a70.24 70.24 0 014.13 7.65zm-9.14-5.44a5.39 5.39 0 00-1.9-.4 4.18 4.18 0 00-1.75.28 3 3 0 00-1.82 2 4.43 4.43 0 000 2.55 3.07 3.07 0 002.7 2.3 5.92 5.92 0 002.64-.24h.18l.35 1.9c-.36.09-.7.2-1 .27a8.21 8.21 0 01-4-.16 4.81 4.81 0 01-3.52-4.16 6.14 6.14 0 01.41-3.44 5.13 5.13 0 013.19-2.87 7.91 7.91 0 014.57-.12 5.17 5.17 0 01.55.19z"/></g></svg>