<svg xmlns="http://www.w3.org/2000/svg" width="80" height="80"><g fill="none" fill-rule="evenodd"><circle cx="40" cy="40" r="40" fill="#D06D8B"/><g fill="#FFF" fill-rule="nonzero"><path d="M63.838 51.919v-6.662H44.554a44.351 44.351 0 00-6.31.567c-2.151.346-4.323.54-6.5.581a67.297 67.297 0 01-7.285-.58 65.77 65.77 0 00-7.162-.568h-1.716v6.662h48.257zM38.27 30.068a22.73 22.73 0 01-7.054 1.554 19.608 19.608 0 01-6.554-1.54 25.676 25.676 0 00-9-1.92v5.892h.176c2.934.102 5.848.528 8.689 1.27 2.161.574 4.375.923 6.608 1.04a24.946 24.946 0 006.095-1.04 30.77 30.77 0 017.96-1.27h18.648v-5.892H47.527a27.96 27.96 0 00-9.257 1.906zm-13.5 13.256c2.313.307 4.64.492 6.973.554 2.06-.04 4.115-.225 6.149-.554a46.042 46.042 0 016.662-.594h19.284v-6.162H45.122a28.257 28.257 0 00-7.325 1.189 26.865 26.865 0 01-6.756 1.121 33.784 33.784 0 01-7.176-1.108 37.554 37.554 0 00-8.108-1.202h-.176v6.067h1.73c2.497.09 4.988.32 7.46.69zm-9.216 11.162v6.136h48.284v-6.136z"/><path d="M15.676 25.595a28.04 28.04 0 019.865 2.08 17.636 17.636 0 005.689 1.352 20.405 20.405 0 006.23-1.432 30.905 30.905 0 0110.067-2.027h16.297v-6.325h-15.23c-8.108 0-12.162 4.892-17.04 4.892-4.486 0-7.595-4.892-15.932-4.892v6.325l.054.027z"/></g></g></svg>