<svg xmlns="http://www.w3.org/2000/svg" width="41" height="40" fill="none"><circle cx="20.5" cy="20" r="20" fill="#333"/><path fill="#fff" fill-rule="evenodd" d="M27.181 19.981c0 1.04-.803 1.834-1.842 1.834-.49 0-.897-.18-1.2-.471v.384h-.73V16.8h.73v1.824a1.68 1.68 0 011.2-.471 1.8 1.8 0 011.842 1.829zm-3.047 0c0 .656.475 1.137 1.143 1.137.657 0 1.137-.47 1.137-1.137 0-.666-.48-1.137-1.137-1.137-.668 0-1.143.476-1.143 1.137zm-11.954.897a2.655 2.655 0 01-.516.471c-.178.118-.392.23-.647.328a2.4 2.4 0 01-.898.149 2.702 2.702 0 01-1.858-.738 2.53 2.53 0 01-.558-.794 2.338 2.338 0 01-.203-.969c0-.343.068-.666.203-.968.136-.302.319-.569.559-.794a2.7 2.7 0 011.857-.738c.345 0 .642.051.893.149.25.102.459.21.626.328.193.138.365.297.5.481l-.584.543c-.11-.118-.23-.23-.365-.333a1.917 1.917 0 00-.449-.24 1.768 1.768 0 00-.62-.103c-.24 0-.465.046-.669.133-.203.087-.386.21-.542.359a1.71 1.71 0 00-.376.532c-.094.206-.14.42-.14.656 0 .23.046.451.14.656a1.77 1.77 0 00.913.892c.204.087.423.133.658.133.245 0 .459-.036.647-.113.182-.077.339-.159.47-.25.135-.103.255-.226.364-.36l.595.59zm2.29.937c-1.058 0-1.904-.81-1.904-1.834 0-1.025.846-1.834 1.905-1.834 1.06 0 1.904.81 1.904 1.834 0 1.025-.845 1.834-1.904 1.834zm0-.697c.658 0 1.138-.481 1.138-1.137s-.48-1.137-1.137-1.137c-.658 0-1.137.481-1.137 1.137s.48 1.137 1.137 1.137zm3.262.605v-2.019c0-.492.386-.86.882-.87.49 0 .809.358.809.89v1.994h.73v-2.019c0-.492.38-.86.877-.86.49 0 .808.358.808.891v1.993h.73v-1.998c0-.933-.6-1.583-1.497-1.583-.49 0-.944.2-1.236.543a1.33 1.33 0 00-1.101-.543 1.36 1.36 0 00-1.002.41v-.323h-.73v3.494h.73zm9.867-1.742c0 1.025.845 1.834 1.904 1.834 1.06 0 1.905-.81 1.905-1.834 0-1.025-.846-1.834-1.905-1.834-1.059 0-1.904.81-1.904 1.834zm3.042 0c0 .656-.48 1.137-1.138 1.137-.652 0-1.137-.481-1.137-1.137s.48-1.137 1.137-1.137c.658 0 1.138.481 1.138 1.137zM8.45 23.926v.758h-.277v-1.311h.277v.123a.52.52 0 01.375-.154c.172 0 .313.072.412.205a.613.613 0 01.465-.205c.339 0 .563.246.563.594v.753H9.99v-.747c0-.2-.12-.334-.303-.334a.318.318 0 00-.329.323v.758h-.276v-.747c0-.2-.12-.334-.303-.334a.308.308 0 00-.328.318zm3.182-.553v.143a.615.615 0 00-.448-.18.683.683 0 00-.694.693.68.68 0 00.694.691.623.623 0 00.448-.18v.144h.277v-1.311h-.277zm-.422 1.08a.411.411 0 01-.428-.424c0-.252.177-.43.428-.426.25 0 .428.18.428.426a.411.411 0 01-.428.425zm1.356-1.48c0 .103-.088.19-.188.19a.198.198 0 01-.193-.19.19.19 0 01.381 0zm-.052 1.711h-.276v-1.311h.276v1.311zm.34 0h.276V22.83h-.277v1.854zm.735.036a.189.189 0 01-.188-.184c0-.108.089-.185.188-.185.1 0 .188.082.188.185a.189.189 0 01-.188.184zm.725-.036v-.681c0-.23.172-.38.418-.38h.11v-.25h-.11c-.188 0-.319.056-.418.18v-.18h-.276v1.311h.276zm1.665-.568v-.748h.276v1.311h-.276v-.133a.567.567 0 01-.412.164c-.334 0-.559-.246-.559-.605v-.742h.277v.737c0 .215.13.349.329.349.208.005.365-.149.365-.333zm1.304.907c.146.102.36.163.569.163.443 0 .715-.26.715-.696v-1.122h-.277v.138a.629.629 0 00-.448-.17c-.392 0-.694.288-.694.672 0 .384.302.671.694.671a.616.616 0 00.448-.169c0 .267-.167.415-.454.415a.755.755 0 01-.422-.123l-.13.22zm.58-.605c-.246 0-.428-.17-.428-.41 0-.24.182-.41.427-.41.25 0 .428.17.428.41 0 .24-.177.41-.428.41zm1.293-.415v.681h-.276v-1.311h.276v.18c.1-.124.23-.18.418-.18h.11v.25h-.11c-.246 0-.418.15-.418.38zm.559.02c0 .39.318.692.715.692a.698.698 0 00.714-.692.698.698 0 00-.714-.691.698.698 0 00-.715.691zm1.142.006a.414.414 0 01-.427.425.411.411 0 01-.428-.425c0-.246.182-.426.428-.426.245 0 .427.18.427.426zm1.477.087v-.748h.276v1.311h-.276v-.133a.567.567 0 01-.412.164c-.334 0-.559-.246-.559-.605v-.742h.277v.737c0 .215.13.349.329.349.208.005.365-.149.365-.333zm1.315.604a.683.683 0 00.694-.691.68.68 0 00-.694-.692.623.623 0 00-.449.18v-.144h-.276v1.778h.276v-.61c.11.113.266.18.449.18zm-.026-.266a.411.411 0 01-.428-.425c0-.252.177-.43.428-.426.245 0 .428.18.428.426a.414.414 0 01-.428.425z" clip-rule="evenodd"/><path fill="#FB0F34" d="M29.493 23.87a4.02 4.02 0 01-2.833-1.153l.553-.543c.61.6 1.419.927 2.28.927 1.78 0 3.224-1.42 3.224-3.166 0-1.747-1.445-3.166-3.224-3.166-.861 0-1.675.333-2.286.932l-.553-.543A4.006 4.006 0 0129.493 16c2.207 0 4.007 1.762 4.007 3.935 0 2.172-1.8 3.935-4.007 3.935z"/></svg>