<svg xmlns="http://www.w3.org/2000/svg" width="41" height="40" fill="none"><mask id="yandex-taxi__a" width="41" height="40" x="0" y="0" maskUnits="userSpaceOnUse"><path fill="#E5E5E5" fill-rule="evenodd" d="M20.5 40c11.046 0 20-8.954 20-20s-8.954-20-20-20S.5 8.954.5 20s8.954 20 20 20z" clip-rule="evenodd"/></mask><g mask="url(#yandex-taxi__a)"><path fill="#F2F1ED" d="M.5 20h20v20H7.622c-2.478 0-3.378-.256-4.278-.744a5.045 5.045 0 01-2.11-2.1c-.467-.9-.734-1.8-.734-4.267V20z"/><path fill="#000" d="M20.5 20h20v12.878c0 2.478-.256 3.378-.744 4.278a5.046 5.046 0 01-2.1 2.11c-.9.478-1.8.734-4.278.734H20.5V20z"/><path fill="#FD3" d="M7.622 0h25.756c2.478 0 3.378.256 4.278.744a5.045 5.045 0 012.11 2.1c.478.9.734 1.8.734 4.278V20H.5V7.122c0-2.478.256-3.378.744-4.278a5.045 5.045 0 012.1-2.11C4.244.266 5.144 0 7.611 0h.011z"/></g></svg>