<svg xmlns="http://www.w3.org/2000/svg" xmlns:xlink="http://www.w3.org/1999/xlink" width="40" height="40"><defs><path id="tanki-onlain__a" d="M0 0h27.9v26H0z"/></defs><g fill="none" fill-rule="evenodd" transform="translate(-106 -114)"><rect width="40" height="40" x="106" y="114" fill="#4C77A0" fill-rule="nonzero" rx="20" transform="rotate(90 126 134)"/><rect width="40" height="40" x="106" y="114" fill="#026B33" fill-rule="nonzero" rx="20" transform="rotate(90 126 134)"/><path fill="#FFF" d="M119.69 140.041l.007.238c.253-.05.507-.1.76-.148a2.336 2.336 0 01-.011-.09h-.756zm11.837-.45c.002.015.002.03.005.043h.85l-.006-.043h-.849zm-11.351.058l.001-.03h-.964l-.001.03h.964zm11.601-.51a.954.954 0 01-.052.059h1.002v-.058h-.95zm.046 1.195c.034-.088.068-.174.104-.26-.29-.02-.578-.038-.867-.055l-.018.098.781.217zm-12.986-1.18l.001.051h1.18v-.05h-1.18zm2.192-1.974c.204.398.32.63.487.954l.758-1.1c-.476.057-.769.091-1.245.146zm9.603.001l-1.305-.212.777 1.16.528-.948zm.967.866l.327.728h1.391l.286-.728h-2.004zm-11.747.738l.155-.708h-2.01c.18.306.304.514.42.708h1.435zm3.12-5.291l.056-.31c-1.626-.383-3.252-.768-4.878-1.15l-.07.294 4.892 1.166zm6.591 1.6c.173-1.67-1.63-2.657-3.865-2.347-.135.995-.041 1.395.676 1.62 1.031.323 2.11.489 3.19.727zm-6.48 1.972l-1.279 1.621c2.795.75 5.313.737 7.96.018a882.07 882.07 0 00-.974-1.516c-.365.222-.65.54-.945.55-1.371.053-2.747.029-4.12.01-.42-.006-.71-.206-.655-.698l.05-.05a.824.824 0 00-.036.065zm-5.669.07c1.489-1.207 3.229-.495 4.705-1.265l-.838-.652v-1.188c-1.394-.381-2.794-.766-4.316-1.183.111-.472.196-.832.323-1.363 1.256.248 2.418.412 3.543.718.864.234 1.684.232 2.461-.149 2.402-1.174 4.44.023 6.437 1.06.71.37.738 1.379.77 2.236l-.896.451-.007.178 4.263.704c.533 1.955-.33 3.056-1.663 3.904-.266.17-.607.239-.924.308-.36.078-.753.208-1.09.133-.632-.139-1.274-.334-1.84-.64-1.662-.9-3.292-.83-4.963-.051-.623.29-1.296.716-1.93.688-1.25-.053-2.556-.345-3.252-1.555-.396-.688-.524-1.532-.783-2.333z"/><path fill="#FFF" d="M128.392 131.16l-.588-.9-1.34.47-.885-3.026c-.288 1.112-.513 1.979-.774 2.978-.569-.22-1.003-.387-1.5-.577l.098.95-1.021.76-1.66-1.258.065-.241 1.763.193-.821-1.915.11-.173 2.574 1.407.978-5.468.35.02 1.073 5.522 1.5-.917.509 1.368 2.548-1.739.151.135-.9 2.83 4.683-.328.1.276-3.92 2.11 2.86.935-.012.235-3.369.768-.1-.271c.15-.11.3-.225.453-.331.145-.1.296-.19.516-.332l-1.628-.894 2.185-1.532h-2.422l.091-1.773-1.667.717"/><g transform="translate(112 120)"><mask id="tanki-onlain__b" fill="#fff"><use xlink:href="#tanki-onlain__a"/></mask><path fill="#FFF" d="M19.067 22.003l1.954 1.324.342-.858-1.13-.933 1.44.125 3.589-10.6-11.503-8.37-11.406 8.392c1.246 3.618 2.458 7.133 3.665 10.633l1.646-.205-1.288.975.27.93c.58-.39 1.057-.71 1.536-1.03l.173.192-1.073 1.466h2.255l.861-1.3.177.074c-.096.386-.194.772-.302 1.2h1.904l.548-1.939.21.03v1.872h1.981v-1.79l.168-.025.495 1.85h1.946l-.195-.989c.058-.05.115-.102.173-.154l.73 1.12h2.131l-1.283-2.004-.014.014zM0 10.16C4.617 6.766 9.078 3.425 13.74-.001c4.576 3.318 9.582 7.077 14.16 10.396-.096.594-5.58 15.221-5.751 15.605H5.484C3.56 20.924 1.877 15.474 0 10.159z" mask="url(#tanki-onlain__b)"/></g><path fill="#FFF" d="M120.73 141.995c-.126.194-.25.389-.375.583l-.173-.192.546-.393.002.002zm8.456.478l.316.4-.173.155-.13-.569-.013.014zm-8.458-.48l.002.002-.002-.002zm10.353-.005l-.014.015.014-.015z"/><path fill="#FFF" d="M129.199 142.46l-.057-.044.044.057.013-.013z"/></g></svg>