<svg xmlns="http://www.w3.org/2000/svg" xmlns:xlink="http://www.w3.org/1999/xlink" width="80" height="80"><defs><circle id="in-touch__a" cx="40" cy="40" r="40"/></defs><g fill="none" fill-rule="evenodd"><use fill="#F3F3F3" xlink:href="#in-touch__a"/><g fill-rule="nonzero"><path fill="#76AE40" d="M12.808 37.52v4.77h1.791c.58 0 .871.45.871 1.002 0 .551-.29 1.001-.87 1.001H8.876c-.58 0-.871-.45-.871-1.001 0-.552.29-1.002.87-1.002h1.792v-4.77h-1.79c-.58 0-.871-.45-.871-.999 0-.548.29-1.001.87-1.001H14.6c.58 0 .871.444.871 1.001 0 .558-.29 1-.87 1h-1.792zm59.175-1.35c0-.58-.482-.871-1.072-.871-.59 0-1.062.29-1.068.871v2.735h-3.194V36.17c0-.58-.479-.871-1.068-.871-.59 0-1.066.29-1.071.871v7.47c0 .58.481.871 1.07.871.59 0 1.063-.29 1.07-.87v-2.733h3.193v2.732c0 .58.482.871 1.068.871.587 0 1.066-.29 1.072-.87V36.17z"/><path fill="#565A5C" d="M41.002 41.358c0 .961-.633 1.162-1.594 1.162-.961 0-1.597-.212-1.597-1.162v-2.903c0-.961.636-1.161 1.597-1.161.96 0 1.594.209 1.594 1.16v2.904zm2.142-2.903c0-2.056-1.675-3.156-3.736-3.156-2.062 0-3.731 1.092-3.737 3.156v2.961c.03 2.033 1.69 3.115 3.734 3.115s3.704-1.085 3.733-3.115v-2.961h.006zm-9.87-2.927c.58 0 .87.448.87 1.002 0 .555-.29 1.002-.87 1.002H31.49v6.097c0 .58-.481.87-1.07.87-.59 0-1.063-.29-1.072-.87V37.52h-1.791c-.581 0-.871-.45-.871-1.002 0-.551.29-1.001.87-1.001h5.72l-.003.011zm27.78 6.666c.512-.188.924.131 1.113.642.188.51.084 1.016-.418 1.205a4.47 4.47 0 01-.822.255c-.57.14-1.155.212-1.742.215-2.082 0-3.792-1.126-3.951-3.408 0-.116-.044-.723-.044-1.208s.032-1.092.044-1.205c.016-.24.052-.48.107-.714a3.318 3.318 0 01.909-1.617 4.128 4.128 0 012.94-1.066 7.549 7.549 0 011.743.215c.24.061.56.163.821.256.503.191.607.7.418 1.207-.188.508-.6.834-1.112.645a6.245 6.245 0 00-1.663-.351 2.082 2.082 0 00-1.553.58 1.7 1.7 0 00-.424.871 8.99 8.99 0 00-.061 1.205c-.007.404.013.807.06 1.208.21 1.062 1.098 1.451 1.978 1.451a6.506 6.506 0 001.663-.345l-.005-.04zm-36.023-3.74v5.186c0 .58-.482.871-1.072.871-.589 0-1.062-.29-1.071-.87v-5.186c0-.958-.633-1.161-1.594-1.161-.96 0-1.597.209-1.597 1.16v5.177c0 .581-.482.871-1.071.871-.59 0-1.065-.29-1.071-.87v-5.177c0-2.059 1.675-3.159 3.736-3.159 2.062 0 3.734 1.095 3.74 3.159zm27.93 2.904v.023c-.015 2.05-1.685 3.145-3.737 3.145-2.053 0-3.716-1.1-3.743-3.147V36.17c0-.58.482-.871 1.072-.871.59 0 1.065.29 1.071.871v5.188c0 .961.633 1.162 1.597 1.162s1.59-.21 1.594-1.162v-5.173c0-.581.482-.871 1.068-.871.587 0 1.066.29 1.071.87l.006 5.174z"/></g></g></svg>