<svg xmlns="http://www.w3.org/2000/svg" viewBox="0 0 40 40"><g data-name="лого игры"><circle cx="20" cy="20" r="20" fill="#271c6e"/><path fill="#fff" d="M15.48 17.71h3.16v-1.12l-7.49.09v1l2.98.07v5.14h1.35v-5.18zm5.07 3.12v-2.25a.72.72 0 01.69-.72l5.4-.21v-1.12h-5.9a1.6 1.6 0 00-1.56 1.73v3c.14 1 .47 1.4 1.48 1.54h6.05l-.06-1.14-5.4-.11a.72.72 0 01-.7-.72zm-16.27-.59v-1.17h4.26a.56.56 0 00.56-.56.56.56 0 00-.55-.51l-4.65-.14v5H2.73v-6.34h5.89a1.83 1.83 0 011.94 2.12 1.87 1.87 0 01-1.75 1.58c-1.48.05-2.97.02-4.53.02zm28.98 1.69L32 23.51l.32-1.81-2.42-.53 2.32-.67.33-.83.78.69 4-1.65L34 21.26l1.66 1.83a13.16 13.16 0 01-2.4-1.16z"/></g></svg>