<svg xmlns="http://www.w3.org/2000/svg" xmlns:xlink="http://www.w3.org/1999/xlink" width="80" height="80"><defs><circle id="bigam__a" cx="40" cy="40" r="40"/></defs><g fill="none" fill-rule="evenodd"><use fill="#FF9D0D" xlink:href="#bigam__a"/><path fill="#FEFEFE" d="M21.704 52.966l3.832.013 2.238-14.273-.037 14.285 3.826.013.063-25.383-3.827-.013-2.238 14.711.038-14.717-3.833-.012-.062 25.382v-.006zm-7.934-2.932l.037-13.042.876.007c.487 0 .581.394.494 1.081l-.025 10.522c0 .976-.088 1.295-.663 1.445h-.72v-.013zm-3.764 2.695l5.615.018c2.607.082 3.4-1.081 3.526-3.626l.025-10.947c.093-2.413-.632-3.707-2.214-4.014l-3.138.013-.006-4.164h5.083l-.407-2.394-8.427-.032L10 52.73h.006zm44.277-24.983l-.063 25.32 3.845.013.044-16.912 2.394 16.918 3.145.013L66.08 36.33l-.044 16.78 3.901.013.063-25.32-5.195-.02-2.858 19.92-2.475-19.938-5.196-.02h.007zm-8.272 15.53l.894-13.048h.363l.469 13.054-1.72-.006h-.006zm-4.364 9.747l3.84.012.437-7.102 2.094.006.356 7.109 3.814.012-2.532-25.283-5.364-.019-2.65 25.265h.005zm-6.564 1.638l3.864-.995.106-28.196c.1-.794.337-.963.981-1.088l2.92.013-.469-2.72-4.558-.037c-1.55.106-2.538 1.1-2.725 2.432l-.12 30.603v-.012z"/><path fill="#FFF" d="M43.967 23.963c2.238-2.644 6.127-3.707 11.497-2.407 4.051.982 5.74 3.289 8.972 1.382-1.682 2.35-3.408 3.22-8.015 2.326-5.127-.994-8.253-3.089-12.454-1.307v.006z"/></g></svg>