<svg xmlns="http://www.w3.org/2000/svg" width="41" height="40" fill="none"><path fill="#F14F25" fill-rule="evenodd" d="M20 40c11.046 0 20-8.954 20-20S31.046 0 20 0 0 8.954 0 20s8.954 20 20 20z" clip-rule="evenodd"/><path fill="#fff" fill-rule="evenodd" d="M19.703 16.306c.176-.202.437-.306.775-.306s.599.104.775.3c.169.208.26.507.26.904s-.091.703-.267.905c-.176.202-.436.306-.774.306-.332 0-.593-.104-.769-.306-.175-.208-.266-.508-.266-.905 0-.39.09-.69.266-.898zm.801 1.64a.399.399 0 00.339-.189c.071-.117.11-.306.117-.546 0-.248-.04-.436-.117-.554a.402.402 0 00-.358-.188c-.32 0-.482.253-.482.742 0 .488.163.735.475.735h.026zM9.725 17.23c.013 0 .026-.013.033-.026l.003-.013c.038-.146.083-.318.14-.501l.215-.65h.572l-.65 1.652a1.696 1.696 0 01-.241.456.715.715 0 01-.274.208c-.13.046-.266.072-.403.065a1.293 1.293 0 01-.352-.039v-.449a.918.918 0 00.326.046c.065 0 .13-.02.182-.059a.342.342 0 00.117-.182v-.02l-.696-1.686h.573l.26.716.013.033.005.015a.364.364 0 00.021.057.337.337 0 01.018.05.562.562 0 00.015.04l.006.027c.007.02.011.037.016.055l.017.056.006.012c.013.046.02.079.026.111.007.013.02.026.033.026h.02zm2.617-.69c-.02 0-.033.013-.033.033v1.848h-.533v-2.35h1.738v2.35h-.534v-1.848c0-.02-.013-.033-.033-.033h-.605zm2.955 1.406h-.684c-.019 0-.032-.013-.032-.032v-.456c0-.02.013-.032.033-.032h.624v-.456h-.624c-.02 0-.033-.013-.033-.033v-.377c0-.02.013-.033.033-.033h.683v-.455h-1.243v2.35h1.243v-.476zm.827.475v-1.848c0-.02-.014-.033-.033-.033h-.508v-.468h1.601v.468h-.5c-.02 0-.033.013-.033.033v1.848h-.527zm2.18-2.35h-.729v2.35h.527v-.768c0-.02.013-.032.033-.032h.17c.253 0 .455-.072.591-.215.137-.143.209-.345.209-.605 0-.235-.065-.417-.202-.547-.13-.124-.332-.182-.599-.182zm.176.99a.321.321 0 01-.221.091h-.118c-.02 0-.032-.013-.032-.032v-.56c0-.02.013-.033.032-.033h.157c.182 0 .28.098.28.28a.411.411 0 01-.098.254zm4.764.163c-.013-.007-.026-.02-.026-.033v-.02c0-.012.013-.025.026-.032a.376.376 0 00.228-.17.594.594 0 00.091-.331c0-.195-.065-.339-.201-.43-.137-.09-.358-.143-.651-.143h-.736v2.35h.827c.247 0 .449-.059.592-.182a.69.69 0 00.124-.84.494.494 0 00-.274-.17zm-.735-.69c0-.02.013-.033.032-.033h.163c.26 0 .313.13.313.234a.243.243 0 01-.078.196.325.325 0 01-.202.065H22.54c-.02 0-.032-.013-.032-.033v-.43zm.24 1.451h-.208c-.02 0-.032-.013-.032-.032v-.508c0-.02.013-.032.032-.032h.196c.084-.007.169.019.234.071a.275.275 0 01.085.215c.006.182-.098.286-.306.286zm1.778-.215h.013a.05.05 0 00.032-.013l.866-1.685h.683v2.35h-.462v-.983c0-.157.007-.391.026-.684 0-.013 0-.02-.006-.026a.05.05 0 00-.026-.013h-.013c-.007 0-.02.006-.026.02l-.879 1.685h-.677v-2.35h.462v1.003c0 .066-.005.18-.012.337-.004.093-.01.2-.014.32 0 .013 0 .02.007.026a.05.05 0 00.026.013zm2.668-.65a.397.397 0 01-.071-.28v-.768h-.534v.989c0 .195.059.345.163.456.11.104.267.162.468.162.228-.006.456-.052.67-.143.01-.004.015-.003.021-.002l.012.002c.007.007.013.013.013.026v.86h.534v-2.35h-.534v.989a.036.036 0 01-.02.032 1.575 1.575 0 01-.487.118.33.33 0 01-.235-.091zm1.582 1.301l.697-2.362h.748l.703 2.362h-.58l-.103-.43c-.007-.012-.02-.025-.033-.025h-.716c-.013 0-.026.013-.032.026l-.105.43h-.579zm1.315-.924c.013 0 .02-.006.026-.013.006-.007.006-.02.006-.026l-.097-.397a13.977 13.977 0 00-.02-.084l-.058-.255c-.022-.093-.037-.168-.05-.224l-.015-.075c0-.013-.02-.026-.033-.026-.02 0-.032.013-.032.026a15.92 15.92 0 01-.207.947l-.021.088c0 .007 0 .02.006.026.007.007.013.013.026.013h.469z" clip-rule="evenodd"/><path fill="#989898" fill-rule="evenodd" d="M8.73 23.986h2.082v1.055L8.73 23.986zm22.547 0h-2.083v1.055l2.083-1.054z" clip-rule="evenodd"/><path fill="#DFDCDC" fill-rule="evenodd" d="M8.73 19.658h22.52v1.06H35l-.957 2.149.957 2.18h-5.806v-1.06H10.813v1.06H5l.957-2.18L5 20.719h3.73v-1.061z" clip-rule="evenodd"/><path fill="#D2502C" fill-rule="evenodd" d="M17.061 21.175h.287v.722l-.007.196-.013.22h.006l.69-1.138h.378v1.497h-.28v-.716c0-.098.007-.241.02-.43h-.007l-.696 1.146h-.384v-1.497h.006zm1.172-.489l-.001.007h-.273a.266.266 0 01-.065.143c-.032.033-.084.046-.156.046a.255.255 0 01-.163-.046c-.032-.032-.045-.078-.052-.15h-.28c.007.13.052.222.13.28.079.059.196.085.358.085.157 0 .274-.026.358-.085.084-.057.13-.146.143-.273v-.007zm-6.496 1.81c.123-.137.182-.325.182-.573 0-.247-.059-.442-.176-.566-.123-.137-.3-.202-.527-.202-.234 0-.41.065-.534.195-.123.13-.182.326-.182.573 0 .248.059.443.182.573.124.137.3.202.527.202.228 0 .404-.072.528-.202zm-.814-.195c-.065-.085-.098-.208-.098-.378 0-.169.033-.293.098-.377a.344.344 0 01.287-.13c.253 0 .377.169.377.507 0 .339-.124.508-.377.508a.336.336 0 01-.287-.13zm2.272.377h.319v-1.497h-.32v.586h-.592v-.586h-.319v1.497h.32v-.644h.592v.644zm1.926 0h-.312v-1.236h-.364l-.02.136a9.742 9.742 0 01-.11.736c-.033.143-.079.24-.144.3a.353.353 0 01-.254.084.493.493 0 01-.15-.02v-.26c.04.013.079.02.111.02.04 0 .065-.02.085-.053a.742.742 0 00.058-.182 11.075 11.075 0 00.156-1.022h.944v1.497zm1.244-.358l.11.358h.339l-.534-1.503h-.39l-.528 1.503h.345l.11-.358h.548zm-.241-.813c.013.039.071.221.169.546v.007h-.39c.11-.345.175-.566.195-.651a.59.59 0 01.01.04l.016.058zm3.625 1.171h.32v-1.497h-.32v.586h-.592v-.586h-.319v1.497h.319v-.644h.592v.644zm.625-.436v-.254h.553v.254h-.553zm1.79-.475a.307.307 0 00.104-.24.34.34 0 00-.143-.274.646.646 0 00-.39-.104c-.118 0-.222.013-.32.039a.865.865 0 00-.273.123l.137.215a.737.737 0 01.41-.123c.091 0 .156.013.202.045a.141.141 0 01.065.124c0 .071-.04.117-.11.15-.072.032-.19.045-.346.045h-.123v.247h.143c.156 0 .28.02.358.052.084.033.123.085.123.15 0 .15-.123.221-.377.221-.072 0-.156-.006-.24-.026a.936.936 0 01-.229-.071v.267c.13.052.306.078.527.078.196 0 .352-.04.463-.117a.381.381 0 00.169-.326.312.312 0 00-.11-.24.618.618 0 00-.32-.111v-.007a.478.478 0 00.28-.117zm1.4.911l-.111-.358h-.547l-.11.358h-.345l.527-1.503h.39l.534 1.503h-.338zm-.19-.625a23.962 23.962 0 00-.168-.546l-.016-.059-.01-.039c-.02.085-.085.306-.196.65h.39v-.006zm1.055-.878h-.286v1.503h.384l.696-1.152h.007c-.013.189-.02.332-.02.43v.716h.28v-1.497h-.377l-.697 1.139h-.006l.013-.221.006-.196v-.722zm.885-.482v-.007.007zm-.273 0h.273c-.014.127-.06.216-.143.273-.084.059-.201.085-.358.085-.162 0-.28-.026-.358-.085-.078-.058-.123-.15-.13-.28h.28c.006.072.02.118.052.15a.255.255 0 00.163.046c.071 0 .123-.013.156-.046a.266.266 0 00.065-.143zm1.523 1.985l-.358-1.178H26.2c.013.241.02.397.02.482v.696h-.287v-1.497h.43l.357 1.146h.007l.378-1.146h.43v1.497h-.3v-.833l.004-.136.009-.215h-.007l-.384 1.171h-.293v.013zm2.265-.117c.104-.078.157-.195.157-.351 0-.15-.053-.26-.157-.339-.11-.078-.253-.117-.449-.117h-.104v-.573h-.319v1.497h.41c.209 0 .358-.039.462-.117zm-.468-.15H28.27v-.403h.071c.117 0 .202.013.247.045.046.033.072.078.072.15s-.026.124-.072.156a.404.404 0 01-.227.052zm.807.267h.319v-1.497h-.32v1.497z" clip-rule="evenodd"/></svg>