<svg xmlns="http://www.w3.org/2000/svg" xmlns:xlink="http://www.w3.org/1999/xlink" width="40" height="40"><defs><path id="overwatch__a" d="M0 .357h24.946V22H0z"/><path id="overwatch__c" d="M.657.054h15.626v5.48H.657z"/></defs><g fill="none" fill-rule="evenodd" transform="translate(-307 -182)"><rect width="40" height="40" x="307" y="182" fill="#4C77A0" fill-rule="nonzero" rx="20" transform="rotate(90 327 202)"/><rect width="40" height="40" x="307" y="182" fill="#FB9D1E" fill-rule="nonzero" rx="20" transform="rotate(90 327 202)"/><g transform="translate(315 192.946)"><mask id="overwatch__b" fill="#fff"><use xlink:href="#overwatch__a"/></mask><path fill="#FFF" d="M12.947 22h-.898c-.028-.003-.057-.009-.085-.01a11.86 11.86 0 01-1.733-.194 12.71 12.71 0 01-2.301-.654 12.38 12.38 0 01-4.125-2.645 12.257 12.257 0 01-2.337-3.103 12.327 12.327 0 01-1.445-5.087c-.006-.081-.015-.162-.023-.244V8.99c.004-.012.01-.026.011-.039.013-.182.022-.365.038-.547.055-.657.167-1.305.332-1.944A12.475 12.475 0 013.423.941c.188-.198.387-.387.585-.584l2.357 2.737C4.92 4.509 4 6.196 3.708 8.202c-.29 2 .049 3.892 1.031 5.669l.031-.028 4.772-4.61a.339.339 0 00.07-.101c.788-1.696 1.575-3.394 2.362-5.091l.028-.053a.08.08 0 01.009.043c.003.329.008.657.008.986-.002 2.251-.006 4.502-.007 6.754 0 .076-.02.128-.076.182-1.417 1.365-2.833 2.733-4.25 4.1l-.564.546c1.861 1.363 3.93 1.967 6.225 1.743a8.672 8.672 0 004.502-1.767 16139.884 16139.884 0 00-4.799-4.643c-.032-.031-.055-.059-.055-.11l.004-7.765.003-.076.035.073 2.356 5.074c.018.04.046.079.077.11l4.539 4.386.215.207c.847-1.549 1.223-3.197 1.089-4.947-.174-2.271-1.105-4.195-2.731-5.793l2.35-2.729c.015.013.026.021.036.031a12.518 12.518 0 012.648 3.532 12.359 12.359 0 011.309 4.865c.004.08.014.159.022.238v.935c-.004.016-.011.031-.011.046a12.539 12.539 0 01-.338 2.433 12.27 12.27 0 01-3.148 5.741 12.414 12.414 0 01-5.128 3.209 12.077 12.077 0 01-3.105.585c-.09.005-.18.015-.27.023" mask="url(#overwatch__b)"/></g><g transform="translate(319 189.946)"><mask id="overwatch__d" fill="#fff"><use xlink:href="#overwatch__c"/></mask><path fill="#FFF" d="M8.922.054c.11.007.22.016.33.022a12.29 12.29 0 013.375.688 12.376 12.376 0 013.607 1.997l.05.042-2.353 2.73c-1.614-1.224-3.427-1.876-5.456-1.871-2.026.006-3.846.637-5.462 1.87L.657 2.8c.181-.136.354-.271.533-.4A12.424 12.424 0 015.26.472 11.607 11.607 0 017.216.116c.25-.023.502-.035.752-.053.023-.001.045-.006.068-.01h.885z" mask="url(#overwatch__d)"/></g></g></svg>