<svg xmlns="http://www.w3.org/2000/svg" width="41" height="40" fill="none"><path fill="#000" fill-rule="evenodd" d="M20 40c11.046 0 20-8.954 20-20S31.046 0 20 0 0 8.954 0 20s8.954 20 20 20z" clip-rule="evenodd"/><path fill="#fff" d="M7 16v1.819h1.438v-.468h6.515V16H7zm8.628 0l4.375 7.613L24.377 16h-1.56s-2.647 4.575-2.814 4.87L17.189 16h-1.56zm9.43 0v1.819h1.429v-.468H33V16h-7.942zM7 18.506v1.356h7.953v-1.356H7zm18.058 0v1.356H33v-1.356h-7.942zM7 20.542v1.826h7.953v-1.355H8.438v-.47H7zm18.058 0v1.826H33v-1.355h-6.513v-.47h-1.428zm-12.53 4.595c-.113 0-.193.022-.232.061-.041.04-.058.11-.058.216v.62c0 .107.017.179.058.217.039.039.119.057.233.057h.856c.114 0 .192-.018.233-.057.04-.038.062-.11.062-.218v-.619c0-.106-.023-.176-.062-.216-.04-.039-.12-.061-.233-.061h-.856zm2.908 0v1.171h.246v-.631c0-.024-.003-.054-.004-.086a11.495 11.495 0 01-.008-.102.517.517 0 00.045.049l.053.05.86.72h.185v-1.171h-.242v.614l.003.066.008.139c-.017-.021-.04-.04-.06-.062-.022-.02-.046-.042-.075-.065l-.823-.692h-.188zm3.166 0v1.171h1.15v-.217h-.88v-.954h-.27zm2.735 0v1.171h.275v-1.171h-.275zm2.057 0v1.171h.25v-.631c0-.024 0-.054-.014-.086v-.102c.013.016.026.034.04.049.012.014.039.03.052.05l.865.72h.183v-1.171h-.236v.819a.219.219 0 00-.052-.062 1.144 1.144 0 01-.079-.065l-.825-.692h-.184zm3.172 0v1.171h1.205v-.217h-.943V25.8h.537v-.2h-.537v-.263h.93v-.2h-1.192zm-14.058.208h.896v.746h-.896v-.746z"/></svg>