<svg xmlns="http://www.w3.org/2000/svg" xmlns:xlink="http://www.w3.org/1999/xlink" width="80" height="80"><defs><path id="letu__c" d="M.215 14.57V.048H104.81V14.57z"/><path id="letu__e" d="M.215 4.673V.049H104.81v4.624z"/><circle id="letu__a" cx="40" cy="40" r="40"/></defs><g fill="none" fill-rule="evenodd"><mask id="letu__b" fill="#fff"><use xlink:href="#letu__a"/></mask><use fill="#00237E" xlink:href="#letu__a"/><g mask="url(#letu__b)"><g transform="translate(-14 33)"><mask id="letu__d" fill="#fff"><use xlink:href="#letu__c"/></mask><path fill="#FFF" fill-rule="nonzero" d="M98.452.047c-4.693 0-7.393 2.264-11.459 2.266-4.365-.009-6.93-2.266-11.439-2.266-4.693 0-7.393 2.264-11.459 2.266-4.365-.009-6.93-2.266-11.44-2.266-4.692 0-7.392 2.264-11.458 2.266-4.365-.009-6.93-2.266-11.44-2.266-4.692 0-7.392 2.264-11.458 2.266C13.934 2.304 11.369.047 6.86.047 2.165.047-.535 2.314-4.604 2.314V14.57c4.069 0 6.77-2.266 11.464-2.266 4.507 0 7.072 2.256 11.434 2.266h.01c4.063-.004 6.763-2.266 11.454-2.266 4.507 0 7.072 2.256 11.434 2.266h.01c4.063-.004 6.763-2.266 11.454-2.266 4.507 0 7.072 2.256 11.434 2.266h.01c4.063-.004 6.763-2.266 11.454-2.266 4.507 0 7.072 2.256 11.434 2.266h.01c4.063-.004 6.763-2.266 11.454-2.266 4.511 0 7.076 2.26 11.444 2.266V2.314c-4.368-.008-6.933-2.267-11.444-2.267" mask="url(#letu__d)"/></g><g transform="translate(-14 44)"><mask id="letu__f" fill="#fff"><use xlink:href="#letu__e"/></mask><path fill="#F4B53C" fill-rule="nonzero" d="M98.452.049c-4.693 0-7.393 2.013-11.459 2.014C82.628 2.055 80.063.05 75.554.05c-4.693 0-7.393 2.013-11.459 2.014C59.73 2.055 57.165.05 52.655.05c-4.692 0-7.392 2.013-11.458 2.014C36.832 2.055 34.267.05 29.757.05c-4.692 0-7.392 2.013-11.458 2.014C13.934 2.055 11.369.05 6.86.05 2.165.049-.535 2.064-4.604 2.064v2.609c4.069 0 6.77-2.015 11.464-2.015 4.507 0 7.072 2.006 11.434 2.014h.01c4.063-.003 6.763-2.014 11.454-2.014 4.507 0 7.072 2.006 11.434 2.014h.01c4.063-.003 6.763-2.014 11.454-2.014 4.507 0 7.072 2.006 11.434 2.014h.01c4.063-.003 6.763-2.014 11.454-2.014 4.507 0 7.072 2.006 11.434 2.014h.01c4.063-.003 6.763-2.014 11.454-2.014 4.511 0 7.076 2.01 11.444 2.015v-2.61C105.528 2.058 102.963.05 98.452.05" mask="url(#letu__f)"/></g><path fill="#04437C" fill-rule="nonzero" d="M11.354 36c-3.029 0-5.505 2.831-6.33 6.67-.007.039-.017.133-.024.171.078 0 .337.024.428-.196 1.581-3.086 3.516-4.994 5.923-4.994 2.442 0 4.48 2.278 5.71 5.19.254-.23.647-.586.647-.933C16.712 38.499 14.206 36 11.354 36m48.293 0c-3.029 0-5.507 2.831-6.331 6.67-.008.039-.016.133-.024.171.077 0 .337.024.427-.196 1.582-3.086 3.516-4.994 5.925-4.994 2.441 0 4.479 2.278 5.708 5.19.256-.23.648-.586.648-.933C65.004 38.499 62.5 36 59.647 36m-40.895 0c-.333 0-.684.162-.684.554 0 .184.41.834.703 1.477.294-.652.685-1.252.685-1.477 0-.392-.332-.554-.704-.554m5.565.162c-2.224 0-3.54.508-4.312.978l.849.39c.708-.43 1.544-.842 3.177-.842 3.247 0 3.818 1.806 3.919 2.515l-.008-.023c-.03.01-.062.018-.093.027-.361.101-.81.228-1.554.228-.329 0-.54-.074-.808-.167a3.972 3.972 0 00-1.47-.264c-.6 0-1.116.114-1.504.218v.726c.362-.102.894-.248 1.505-.248.577 0 .88.107 1.204.22.298.104.609.212 1.073.212a5.84 5.84 0 001.671-.23 5.652 5.652 0 01-.008.266c-.074.618-.58 2.307-3.927 2.307-1.825 0-2.542-.324-3.25-.802l-.807.454c.867.499 1.877.873 4.343.873 3.238 0 5.465-1.334 5.465-3.252 0-1.918-2.227-3.586-5.465-3.586M30 37.302v.301h1.866V42h1.327v-4.397H35V37h-5zM44.471 37h-.532l-3.268 3.958-.002.001L37.686 37H36l3.803 5.017L38.171 44h1.058L45 37zm6.176 4.41h-2.575c-1.118 0-1.496-.33-1.496-.83 0-.494.46-.897 1.627-.897h2.444v1.726zM48.721 37c-1.96 0-3.313.371-3.36 1.214h-.002v.175h1.55c0-.466.287-.793 1.907-.793 1.669 0 1.831.308 1.831.793v.693h-2.364c-2.19 0-3.283.662-3.283 1.56 0 .775.914 1.358 2.7 1.358h4.43v-3.662c0-1.012-.83-1.338-3.409-1.338zm21.373 4.41H67.79v-1.727h2.184c1.095 0 1.527.342 1.527.835 0 .571-.357.891-1.406.891zm-.078-2.328h-2.227v-1.996h-1.503V42h4.16C72.12 42 73 41.372 73 40.498c0-1.007-1.351-1.416-2.984-1.416z"/></g></g></svg>