<svg xmlns="http://www.w3.org/2000/svg" xmlns:xlink="http://www.w3.org/1999/xlink" width="60" height="60"><defs><path id="kabinet__a" d="M29.703 59.405c16.404 0 29.702-13.298 29.702-29.702C59.405 13.298 46.107 0 29.703 0 13.298 0 0 13.298 0 29.703c0 16.404 13.298 29.702 29.703 29.702z"/></defs><g fill="none" fill-rule="evenodd"><mask id="kabinet__b" fill="#fff"><use xlink:href="#kabinet__a"/></mask><use fill="#29383E" xlink:href="#kabinet__a"/><g mask="url(#kabinet__b)"><path fill="#068642" d="M29.703 59.405c16.404 0 29.702-13.298 29.702-29.702C59.405 13.298 46.107 0 29.703 0 13.298 0 0 13.298 0 29.703c0 16.404 13.298 29.702 29.703 29.702z"/><path fill="#FEFEFE" d="M29.106 30.549c-.096-1.24-.114-2.096-.237-2.936-.387-2.634-1.513-3.03-3.312-3.066-.064-.001-.128-.009-.192-.01-2.309-.039-3.318.75-3.585 3.019-.159 1.355-.158 2.736-.12 4.102.021.792.188 1.6.416 2.363.378 1.258 1.255 1.879 2.58 1.958.398.024.8.027 1.198.007 1.46-.072 2.372-.69 2.722-2.087.303-1.214.398-2.479.53-3.35m-7.49-6.829c.715-1.08 1.78-1.5 3.01-1.61 1.32-.118 2.622.001 3.878.425 1.926.648 3.036 2.06 3.52 3.94.653 2.532.676 5.094.025 7.634-.534 2.086-1.886 3.393-4.038 3.839-1.645.34-3.303.36-4.955.06-2.211-.402-3.655-1.702-4.244-3.822a18.393 18.393 0 01-.61-3.528c-.189-2.509-.093-5.017.426-7.49.736-3.51 2.92-5.645 6.42-6.512 1.907-.472 3.848-.6 5.802-.62.4-.004.584.184.626.557.044.391.098.782.148 1.173.062.499-.075.647-.585.69-1.385.114-2.774.2-4.151.372a7.693 7.693 0 00-2.966 1.026c-1.475.87-2.203 2.18-2.306 3.866"/><path fill="#FFF" d="M29.887 43.634H18.95c-.717 0-.791-.023-.89-.694a7.28 7.28 0 01-.037-1.556c.037-.529.235-.663.777-.67h21.104c.471 0 .95-.042 1.41.029.22.033.568.277.579.442.04.645.007 1.302-.077 1.945-.053.402-.404.508-.803.506-1.966-.009-3.933-.002-5.9-.002h-5.227"/><path fill="#FEFEFE" d="M39.75 30.27c.001 2.255.002 4.511 0 6.767 0 .694-.108.801-.795.804-.655.002-1.31-.003-1.966.001-.43.003-.647-.178-.646-.624.005-4.653.005-9.307 0-13.96 0-.452.23-.62.654-.617.671.003 1.343-.003 2.014.001.607.005.737.127.738.719.004 2.303.001 4.606.002 6.909"/><path fill="#69B644" d="M41.146 17.35c.012 1.477-1.39 3.007-2.775 3.077-1.858.094-3.047-1.232-3.282-2.359-.214-1.024-.086-1.945.64-2.618.524-.486 1.177-.913 1.984-1.027 2.001-.283 3.473 1.621 3.433 2.926m-5.99 4.138c.004.673-.507 1.162-1.224 1.171-.752.01-1.216-.464-1.224-1.246-.004-.475.768-1.226 1.246-1.212.665.02 1.197.589 1.202 1.287"/></g></g></svg>