<svg xmlns="http://www.w3.org/2000/svg" xmlns:xlink="http://www.w3.org/1999/xlink" width="80" height="80"><defs><circle id="c-store__a" cx="40" cy="40" r="40"/></defs><g fill="none" fill-rule="evenodd"><use fill="#000" xlink:href="#c-store__a"/><path fill="#FFF" fill-rule="nonzero" d="M24.86 38.947c0 .601.89.935 1.893 1.246 1.536.468 3.406 1.158 3.406 3.407 0 2.092-1.893 3.429-4.12 3.429-1.423 0-2.759-.58-3.45-1.025l-.355-2.805c.935.757 2.203 1.514 3.784 1.514.89 0 1.692-.334 1.692-1.047 0-1.023-1.514-1.18-3.16-1.825-1.159-.468-2.138-1.246-2.138-2.826 0-2.093 1.87-3.296 3.85-3.296 1.27 0 2.36.379 3.006.846l.333 2.739c-.756-.601-1.98-1.27-3.227-1.27-.823 0-1.513.245-1.513.913zm8.35 4.518v-5.387h-1.937v-.98l3.428-4.006h.958v2.85h3.295v2.136h-3.295v5.387c0 .736.512 1.247 1.357 1.247.824 0 1.425-.355 1.982-.712l-.334 2.493a4.187 4.187 0 01-2.093.534c-1.87 0-3.361-1.113-3.361-3.562zm12.913-7.746c3.184 0 5.787 2.537 5.787 5.654s-2.604 5.654-5.787 5.654c-3.184 0-5.787-2.536-5.787-5.654 0-3.117 2.603-5.654 5.787-5.654zm0 8.993a3.334 3.334 0 003.34-3.338 3.335 3.335 0 00-3.34-3.34 3.335 3.335 0 00-3.339 3.34 3.334 3.334 0 003.34 3.338zm10.688-6.879c.534-1.49 1.98-2.226 3.14-2.003l.355 2.471c-1.537-.4-3.495.935-3.495 2.872v5.633h-2.449V35.94h2.45v1.892zm7.97 5.811c.624.78 1.603 1.069 2.739 1.069 1.491 0 2.938-.89 4.007-1.938l-.378 2.94c-1.202.913-2.672 1.314-4.074 1.314-3.561 0-5.454-2.271-5.454-5.099 0-3.273 2.292-6.211 5.677-6.211 2.27 0 3.517 1.491 3.517 2.983 0 2.782-3.095 4.319-6.034 4.942zm-.712-2.093c2.338-.468 4.185-1.647 4.185-2.65 0-.467-.4-.89-1.135-.89-1.67 0-3.05 1.559-3.05 3.228v.312zM8 40.06c0 4.908 3.037 8.654 7.49 9.06l.64-5.12c-1.926 0-3.404-1.747-3.404-3.94 0-2.196 1.478-3.943 3.404-3.943L15.49 31C11.038 31.405 8 35.15 8 40.06z"/></g></svg>