<svg xmlns="http://www.w3.org/2000/svg" viewBox="0 0 40 40"><g data-name="лого игры"><circle cx="20" cy="20" r="20" fill="#70bbea"/><path fill="#fff" d="M3.81 16.6l-2.24 6.8h1.06l.59-1.95h2.36l.58 1.95h1.11L5 16.6zm9.32 1.97c0-1.47-1.05-2-2.44-2h-2.2v6.8h1v-2.73h1.1l1.55 2.76h1.17l-1.67-2.9a1.89 1.89 0 001.49-1.93zm6.23 0c0-1.47-1.05-2-2.44-2h-2.2v6.8h1v-2.73h1.1l1.55 2.76h1.17l-1.67-2.9a1.88 1.88 0 001.49-1.93zm3.76-2.09c-1.56 0-2.65 1.27-2.65 3.49s1.09 3.55 2.65 3.55 2.64-1.3 2.64-3.55-1.09-3.49-2.64-3.49zm7.28 3.31v-.05a1.47 1.47 0 001.19-1.47c0-1.22-1-1.67-2.38-1.67h-2v6.8h2.19c1.51 0 2.57-.65 2.57-2 .03-.92-.58-1.4-1.57-1.61zm6.92 3.61h1.11l-2.24-6.8H35l-2.24 6.8h1.06l.59-1.95h2.36z"/></g></svg>