<svg xmlns="http://www.w3.org/2000/svg" xmlns:xlink="http://www.w3.org/1999/xlink" width="80" height="80"><defs><path id="plus-yandex__a" d="M40 0c22.091 0 40 17.909 40 40S62.091 80 40 80 0 62.091 0 40 17.909 0 40 0z"/></defs><g fill="none" fill-rule="evenodd"><mask id="plus-yandex__b" fill="#fff"><use xlink:href="#plus-yandex__a"/></mask><use fill="#D8D8D8" xlink:href="#plus-yandex__a"/><g mask="url(#plus-yandex__b)"><g transform="translate(-55.346 -34.214)"><circle cx="74.214" cy="74.214" r="74.214" fill="#2E46E5"/><circle cx="74.804" cy="74.804" r="51.705" fill="#185DF2"/><circle cx="74.568" cy="74.568" r="31.262" fill="#0080FF"/><circle cx="74.922" cy="74.922" r="15.572" fill="#39F"/></g><path fill="#FFF" d="M14.547 34.376h9.763v11.502h-2.568V36.46h-4.627v9.42h-2.568V34.375zM28.185 41.8c.162-.753.27-1.732.32-2.936.052-1.204.078-2.7.078-4.488h8.258v11.502h-2.568V36.46H30.93a72.602 72.602 0 01-.177 4.034c-.089 1.167-.27 2.153-.543 2.958-.273.806-.664 1.422-1.173 1.85-.51.43-1.192.644-2.048.644a5.155 5.155 0 01-.686-.045v-2.393c.148.03.258.044.332.044.399 0 .72-.144.963-.432.244-.288.44-.728.587-1.319zm26.677-1.684c0 .96-.14 1.81-.42 2.549-.281.738-.669 1.363-1.163 1.872a4.942 4.942 0 01-1.749 1.164 5.87 5.87 0 01-2.18.399c-.71 0-1.373-.111-1.993-.333a4.742 4.742 0 01-1.638-.986 5.39 5.39 0 01-1.174-1.596c-.31-.627-.509-1.348-.598-2.16H42.31v4.853h-2.568V34.376h2.568v4.565h1.683c.103-.768.31-1.451.62-2.05.31-.598.7-1.1 1.173-1.507a4.866 4.866 0 011.616-.92 5.984 5.984 0 011.948-.31c.783 0 1.51.13 2.181.388a4.818 4.818 0 011.749 1.153 5.41 5.41 0 011.162 1.872c.28.74.42 1.589.42 2.549zm-5.513 3.834a2.63 2.63 0 002.06-.93c.545-.621.818-1.589.818-2.904 0-1.3-.273-2.264-.819-2.892-.546-.628-1.232-.942-2.059-.942-.811 0-1.487.31-2.025.93-.54.621-.808 1.589-.808 2.904s.269 2.283.808 2.903c.538.62 1.214.931 2.025.931zm12.974 2.15c-.93 0-1.764-.137-2.502-.41a5.22 5.22 0 01-1.882-1.175 5.164 5.164 0 01-1.195-1.873c-.28-.738-.421-1.58-.421-2.526 0-.93.14-1.766.42-2.504a5.164 5.164 0 011.196-1.873c.517-.51 1.151-.901 1.904-1.175.753-.273 1.594-.41 2.524-.41.797 0 1.494.089 2.092.266.598.178 1.074.4 1.428.665v2.128a5.856 5.856 0 00-1.494-.687c-.54-.163-1.163-.244-1.871-.244-2.376 0-3.564 1.278-3.564 3.834s1.166 3.834 3.497 3.834c.753 0 1.399-.085 1.938-.255a7.38 7.38 0 001.494-.654v2.128c-.384.251-.863.47-1.44.654-.575.184-1.283.277-2.124.277z"/></g></g></svg>