<svg xmlns="http://www.w3.org/2000/svg" width="40" height="40" fill="none"><circle cx="20" cy="20" r="20" fill="#FF8C00"/><path fill="#fff" d="M32.923 33.559c-2.299-2.87-4.266-3.659-6.085-4.142-.256-.07-.506-.134-.762-.191l-.096-.026c-1.531-.375-2.966-.744-4.432-2.24l-.058-.064a10.73 10.73 0 01-1.204-1.527l-.327-.515c-.308-.509-.288.751-.167 2.271l.006.076-.295.006c-2.056 0-3.773-.725-5.259-2.214-1.48-1.489-2.203-3.264-2.203-5.421 0-2.163.698-3.945 2.139-5.446 1.435-1.495 3.171-2.221 5.316-2.221 2.095 0 3.837.725 5.329 2.221 1.486 1.489 2.21 3.289 2.21 5.491 0 .28-.013.56-.038.827l-.077-.006c-1.275-.083-2.383-.064-2.46.013-.186.184.327.159.557.223.372.102.724.223 1.044.369.25.114.487.235.711.375l.07.044c1.351.865 2.12 2.208 2.37 3.97.013.07.051.165.128.038.711-1.203 1.089-2.138 1.294-2.793l.006.006.096-.375.09-.401c.154-.764.231-1.552.231-2.354 0-2.087-.519-4.047-1.544-5.828a11.101 11.101 0 00-4.24-4.206c-1.781-1.005-3.76-1.521-5.874-1.521-2.024 0-3.939.515-5.701 1.54a11.182 11.182 0 00-4.176 4.238 11.708 11.708 0 00-1.524 5.835c0 2.087.512 4.04 1.524 5.809a10.98 10.98 0 004.227 4.193 11.673 11.673 0 005.803 1.521c.442 0 .871-.025 1.3-.07l.327-.025.737-.064c1.211-.108 2.37-.223 3.542-.172 2.197.096 4.42.764 7.065 3.118.275.223.634-.07.397-.363zm-7.552-7.349c-.231 0-.423.083-.538.229-.301.375-.166 1.037.295 1.444.205.178.493.286.781.286.288 0 .532-.108.685-.312.269-.363.115-.878-.397-1.311-.25-.216-.544-.337-.826-.337zm2.543-1.883c-.224-.064-.391-.019-.474.134-.128.229-.032.687.218 1.088.256.407.474.611.647.611a.192.192 0 00.154-.076c.096-.114.128-.344.09-.643-.038-.299-.224-.923-.634-1.114z"/></svg>