<svg xmlns="http://www.w3.org/2000/svg" width="60" height="60"><g fill="none" fill-rule="evenodd"><path fill="#FF7745" d="M30 0c16.569 0 30 13.432 30 29.995v.01C60 46.571 46.572 60 30 60 13.431 60 0 46.572 0 30 0 13.431 13.428 0 30 0z"/><path fill="#FFF" d="M44.87 28.73s1.692-2.11 2.437-3.058a.893.893 0 01.745-.372h1.226c.358 0 .61.165.686.474.058.204.09.414.093.626 0 2.47.006 7.621 0 7.725a.787.787 0 01-.247.644c-.176.165-.425.203-.658.203h-1.109a.584.584 0 01-.47-.172c-.122-.124-.165-.25-.165-.472v-4.865l-2.538 3.275-2.537-3.287v4.865c0 .203-.042.347-.165.472a.584.584 0 01-.47.171H40.59c-.234 0-.482-.037-.659-.202a.787.787 0 01-.246-.644c-.006-.104 0-5.255 0-7.725.003-.212.035-.423.093-.626.075-.31.327-.474.685-.474h1.227c.287 0 .579.126.745.372.744.948 2.435 3.07 2.435 3.07zm-11.49-3.62a4.958 4.958 0 015.078 4.992 5.077 5.077 0 01-10.154 0 4.916 4.916 0 015.077-4.992zm2.455 5.077v-.313a2.538 2.538 0 00-1.633-2.31 2.454 2.454 0 00-2.725.753 2.92 2.92 0 00-.575 2.2 2.488 2.488 0 003.122 2.25 2.538 2.538 0 001.81-2.605v.025zm-13.437.593v3.519a.635.635 0 01-.2.483c-.133.124-.307.169-.494.169h-1.16c-.22 0-.41-.03-.557-.174a.643.643 0 01-.187-.554v-8.131a.66.66 0 01.171-.612c.158-.16.346-.184.607-.184h1.033c.24 0 .45.026.61.186.16.16.229.388.185.61v3.189l1.286-1.607c.525-.66 1.05-1.329 1.566-1.997a.846.846 0 01.846-.39h1.15a.56.56 0 01.635.356.914.914 0 01-.127.677c-.846 1.142-2.936 3.672-2.936 3.672a751.209 751.209 0 003.08 3.808.71.71 0 01.178.795.66.66 0 01-.702.33h-1.388c-.323.026-.607-.166-.796-.414-.832-1.097-2.8-3.732-2.8-3.732zm-4.933 1.954a.643.643 0 01.744.72v.845a.626.626 0 01-.677.66h-5.559a.635.635 0 01-.694-.516 11.349 11.349 0 01-.186-.77.846.846 0 01.296-.846 89.985 89.985 0 002.539-2.31c.306-.278.589-.581.846-.905a1.312 1.312 0 00.254-1.608 1.413 1.413 0 00-1.566-.474 6.046 6.046 0 00-1.091.347c-.61.228-.965 0-.973-.635.01-.143-.05-1.081.151-1.253 1.497-1.272 3.69-1.032 4.976-.21a2.995 2.995 0 01.914 4.002 9.485 9.485 0 01-1.464 1.844c-.38.381-.82.694-1.235 1.109h2.725z"/></g></svg>