<svg xmlns="http://www.w3.org/2000/svg" width="80" height="80"><g fill="none" fill-rule="evenodd"><path fill="#0163C0" d="M40 0c22.091 0 40 17.909 40 39.993v.014C80 62.095 62.096 80 40 80 17.909 80 0 62.096 0 40 0 17.909 17.904 0 40 0z"/><g fill="#FFF"><path d="M5 47.364l.587-2.886H8.37l-.065.322H5.891l-.187.92h2.32l-.064.314H5.64l-.27 1.33zm4.926.036a3.15 3.15 0 01-.63-.046.616.616 0 01-.31-.156.53.53 0 01-.144-.32 1.714 1.714 0 01.042-.53l.38-1.87h.377l-.38 1.87a1.647 1.647 0 00-.045.334.396.396 0 00.043.178.32.32 0 00.188.16c.089.033.218.05.388.05h1.21c.172 0 .309-.017.41-.05a.576.576 0 00.37-.338c.028-.068.058-.18.09-.333l.02-.099.36-1.772h.376l-.377 1.85a2.103 2.103 0 01-.175.54.917.917 0 01-.273.33.92.92 0 01-.365.156c-.145.03-.363.045-.655.045h-.9zm3.246-.036l.588-2.886h2.899l-.066.322h-2.541l-.184.905h2.434l-.065.322h-2.435l-.206 1.016h2.541l-.065.321zm3.824 0l.588-2.886h.365l-.522 2.568h2.288l-.064.318zm7.114 0l.246-1.207-1.327-1.679h.518l1.069 1.353 1.62-1.353h.522l-2.014 1.679-.246 1.207z"/><path fill-rule="nonzero" d="M29.901 44.761H28.57c-.19 0-.34.017-.45.049a.631.631 0 00-.274.16.637.637 0 00-.128.194 2.09 2.09 0 00-.101.37l-.01.05-.145.708a1.897 1.897 0 00-.05.372.406.406 0 00.05.192.359.359 0 00.21.161 1.4 1.4 0 00.429.049h1.332c.19 0 .34-.016.449-.049a.621.621 0 00.274-.16.626.626 0 00.123-.186 1.72 1.72 0 00.094-.334l.02-.097.152-.75c.03-.152.045-.264.042-.335a.4.4 0 00-.047-.184.362.362 0 00-.21-.161 1.43 1.43 0 00-.429-.049zm-1.69 2.638c-.315 0-.545-.015-.689-.045a.698.698 0 01-.337-.156.538.538 0 01-.162-.326 1.614 1.614 0 01.038-.531l.16-.787c.049-.24.111-.431.186-.574a.903.903 0 01.294-.335 1.09 1.09 0 01.403-.155c.16-.03.395-.047.704-.047h.984c.31 0 .539.016.686.047.148.031.26.083.34.155a.522.522 0 01.156.328c.02.141.006.323-.04.546l-.163.804a1.985 1.985 0 01-.182.547.905.905 0 01-.29.328c-.11.073-.242.125-.398.156-.155.03-.393.045-.71.045h-.98z"/><path d="M32.827 47.4a3.15 3.15 0 01-.63-.046.618.618 0 01-.31-.156.53.53 0 01-.144-.32 1.725 1.725 0 01.042-.53l.38-1.87h.377l-.381 1.87a1.669 1.669 0 00-.044.334.396.396 0 00.043.178.32.32 0 00.188.16c.089.033.218.05.388.05h1.21c.172 0 .308-.017.41-.05a.58.58 0 00.368-.338c.03-.068.06-.18.092-.333l.02-.099.36-1.772h.376l-.376 1.85a2.135 2.135 0 01-.176.54.922.922 0 01-.273.33.925.925 0 01-.366.156c-.144.03-.362.045-.653.045h-.9z"/><path fill-rule="nonzero" d="M38.814 44.793h-1.855l-.226 1.106h1.856c.263 0 .445-.032.544-.096.1-.063.17-.193.209-.388l.028-.138c.04-.194.023-.323-.05-.388-.074-.064-.243-.096-.506-.096zm-2.379 2.571h-.366l.587-2.886h2.103c.468 0 .768.05.9.147.133.098.172.277.12.54l-.071.347c-.036.178-.1.308-.193.391-.093.083-.24.144-.443.184.158.017.268.073.33.168.063.095.077.226.042.394l-.145.715h-.366l.131-.643c.038-.189.023-.317-.047-.386-.07-.068-.258-.103-.566-.103h-1.786l-.23 1.132zm7.03-.94h1.986l-.663-1.658-1.322 1.658zm-1.161.94l2.295-2.886h.487l1.126 2.886h-.388l-.256-.635h-2.342l-.505.635h-.417z"/><path d="M47.308 47.364h-.356l.588-2.886h.527l1.258 2.508 2.281-2.508h.544l-.588 2.886h-.356l.517-2.541-2.328 2.541h-.275l-1.295-2.541z"/><path fill-rule="nonzero" d="M53.556 44.793l-.182.897h1.675c.394 0 .64-.029.734-.087.096-.059.162-.177.198-.355a.812.812 0 00.022-.249.174.174 0 00-.07-.127.447.447 0 00-.19-.062 3.961 3.961 0 00-.454-.017h-1.733zm1.675 1.234h-1.926l-.205 1.008h1.927c.285 0 .479-.03.58-.093.1-.06.17-.187.21-.38.045-.225.032-.37-.04-.436-.072-.066-.254-.099-.546-.099zm.504-.203c.206.014.345.064.418.152.072.087.09.224.051.412l-.062.306c-.052.256-.172.431-.36.527-.188.096-.55.143-1.082.143h-2.033l.587-2.886h2.102c.263 0 .456.01.579.03.123.02.218.052.284.098.08.056.13.128.15.216a.98.98 0 01-.022.387c-.04.2-.105.343-.193.43-.088.085-.228.147-.419.185z"/><path d="M57.334 47.364h-.366l.587-2.886h.366zm2.693 0h-.366l.521-2.564h-1.457l.065-.322h3.282l-.066.322h-1.458zm2.677 0h-.366l.587-2.886h.366z"/><path fill-rule="nonzero" d="M66.825 44.761h-1.331c-.19 0-.34.017-.45.049a.631.631 0 00-.274.16.646.646 0 00-.129.194 2.062 2.062 0 00-.1.37l-.011.05-.144.708a1.887 1.887 0 00-.05.372.397.397 0 00.05.192.359.359 0 00.21.161c.096.033.238.049.428.049h1.333c.19 0 .34-.016.449-.049a.623.623 0 00.273-.16.619.619 0 00.123-.186 1.69 1.69 0 00.094-.334l.02-.097.153-.75c.03-.152.045-.264.042-.335a.399.399 0 00-.047-.184.366.366 0 00-.21-.161 1.432 1.432 0 00-.43-.049zm-1.69 2.638a3.75 3.75 0 01-.69-.045.699.699 0 01-.336-.156.54.54 0 01-.162-.326 1.627 1.627 0 01.038-.531l.16-.787c.049-.24.11-.431.186-.574a.902.902 0 01.294-.335c.108-.072.242-.124.402-.155a3.96 3.96 0 01.705-.047h.984c.31 0 .539.016.686.047.147.031.26.083.34.155a.526.526 0 01.156.328c.019.141.006.323-.04.546l-.163.804a1.999 1.999 0 01-.182.547.909.909 0 01-.291.328c-.109.073-.24.125-.397.156a4.08 4.08 0 01-.71.045h-.98z"/><path d="M68.888 47.364h-.366l.587-2.886h.576l2.142 2.557.52-2.557h.364l-.587 2.886h-.534l-2.174-2.594zm-46.791-8.069l-.6 3.18h-2.484l.6-3.167-1.677-6.045h2.619l.478 1.992c.123.533.205.996.26 1.405h.027c.259-.49.613-1.037.968-1.61l1.105-1.787h2.717l-4.013 6.032z"/><path fill-rule="nonzero" d="M29.14 35.255c-.165 0-.26 0-.369.014l-.424 2.251c.082.014.137.014.165.014.9 0 1.487-.737 1.487-1.501 0-.423-.246-.778-.86-.778m-.805 4.395c-.082 0-.233 0-.41-.015l-.532 2.84H24.91l1.747-9.213c.846-.04 1.76-.068 2.852-.068 1.787 0 3.098.792 3.098 2.539 0 2.088-1.747 3.917-4.272 3.917m8.187-4.367c-.204 0-.436.013-.518.026l-.369 1.98c.096.013.26.027.396.027.874 0 1.393-.682 1.393-1.365 0-.41-.274-.668-.902-.668m1.312 3.438c.138.314.302.696.438 1.052l1.037 2.703h-2.882l-1.05-3.359h-.096l-.642 3.359h-2.483l1.747-9.213c.86-.055 1.964-.07 3.043-.07 2.172 0 3.154.793 3.154 2.24 0 1.473-.724 2.633-2.266 3.288m7.37-3.33c-1.624 0-2.469 1.815-2.469 3.426 0 1.01.436 1.516 1.283 1.516 1.529 0 2.483-1.748 2.483-3.536 0-.791-.396-1.406-1.296-1.406m-1.57 7.276c-2.469 0-3.561-1.324-3.561-3.4 0-3.288 2.402-6.196 5.54-6.196 2.347 0 3.52 1.242 3.52 3.426 0 3.59-2.51 6.17-5.498 6.17"/><path d="M55.889 35.446h-1.951l-1.338 7.03h-2.483l1.337-7.03h-1.952l.41-2.183h6.387zm5.95-.027h-2.798l-.246 1.296h2.661l-.409 2.074H58.4l-.287 1.49h2.797l-.409 2.197H55.22l1.747-9.214h5.281zm2.278 7.057h-2.483l1.746-9.214h2.484zm8.993 0h-2.92l-.914-3.1c-.219-.723-.41-1.46-.532-2.074-.055.546-.11.86-.219 1.46l-.71 3.714h-2.402l1.747-9.214h2.948l.833 2.69c.26.818.491 1.65.641 2.387.055-.627.164-1.337.273-1.91l.6-3.167h2.416l-1.76 9.214zm-58.77-5.168h-.028s-.666 1.57-1.048 2.416l-1.242 2.744h-2.32l-.246-2.443c-.081-.848-.122-2.717-.122-2.717-.218.9-.97 5.167-.97 5.167H5.939l1.907-9.22h3.413l.34 3.193c.07.642.096 1.283.096 2.088h.027c.288-.778.56-1.406.915-2.13l1.555-3.15h3.216l-1.747 9.243-2.213-.012.892-5.179z"/></g></g></svg>