<svg xmlns="http://www.w3.org/2000/svg" xmlns:xlink="http://www.w3.org/1999/xlink" width="60" height="60"><defs><path id="finance-migom-money__a" d="M29.703 59.405c16.404 0 29.702-13.298 29.702-29.702C59.405 13.298 46.107 0 29.703 0 13.298 0 0 13.298 0 29.703c0 16.404 13.298 29.702 29.703 29.702z"/><path id="finance-migom-money__c" d="M27.06 7.582V.077H0v15.01h27.06V7.582z"/><path id="finance-migom-money__e" d="M27.06 15.087H0V.077h27.06v15.01z"/></defs><g fill="none" fill-rule="evenodd"><mask id="finance-migom-money__b" fill="#fff"><use xlink:href="#finance-migom-money__a"/></mask><use fill="#189648" xlink:href="#finance-migom-money__a"/><g mask="url(#finance-migom-money__b)"><path d="M10 18h106.906v24H10z"/></g><g transform="translate(16.086 11.009)"><mask id="finance-migom-money__d" fill="#fff"><use xlink:href="#finance-migom-money__c"/></mask><path fill="#FFF" d="M0 14.974l13.227-9.138 13.833 9.25V8.682L13.538.077C12.968.077 0 8.681 0 8.681v6.293z" mask="url(#finance-migom-money__d)"/></g><path fill="#FFF" d="M16.086 35.035l13.055-9.138 14.005 9.25v-6.406l-13.695-8.603c-.57 0-13.365 8.603-13.365 8.603v6.294z" opacity=".577"/><g opacity=".214" transform="translate(16 29.113)"><mask id="finance-migom-money__f" fill="#fff"><use xlink:href="#finance-migom-money__e"/></mask><path fill="#FFF" d="M0 14.974l13.054-9.138 14.006 9.25V8.682L13.365.077C12.795.077 0 8.681 0 8.681v6.293z" mask="url(#finance-migom-money__f)"/></g></g></svg>