<svg xmlns="http://www.w3.org/2000/svg" width="41" height="40" fill="none"><circle cx="20.5" cy="20" r="20" fill="#0C4861"/><path fill="#fff" fill-rule="evenodd" d="M9.36 25.889a.88.88 0 01-.226.026.677.677 0 01-.266-.052.585.585 0 01-.213-.155.746.746 0 01-.142-.26 1.146 1.146 0 01-.052-.361c0-.154.018-.283.055-.389a.705.705 0 01.145-.256.54.54 0 01.205-.14.658.658 0 01.234-.044c.17 0 .302.023.394.07l.057-.213a.91.91 0 00-.187-.05 1.738 1.738 0 00-.282-.02.903.903 0 00-.316.058.774.774 0 00-.28.182.919.919 0 00-.202.323c-.05.131-.076.29-.076.479 0 .18.023.335.07.467.045.131.107.24.186.323.079.085.17.148.276.189a.924.924 0 00.34.062c.099 0 .193-.01.281-.026a.52.52 0 00.219-.092l-.058-.187a.63.63 0 01-.162.066zm3.39-.56h-.589l.22-.608.072-.31h.003l.071.305.223.612zm-.343-1.28l-.762 2.044h.238l.2-.558h.739l.206.558h.253l-.765-2.045h-.11zm3.618.974H15.8v-.742a.29.29 0 01.053-.008l.071-.006a1.05 1.05 0 01.078-.003h.077c.127 0 .226.034.297.1.07.068.106.153.106.257 0 .138-.043.24-.13.305a.53.53 0 01-.327.097zm.253.167a.626.626 0 00.328-.196.556.556 0 00.13-.382.562.562 0 00-.056-.259.486.486 0 00-.145-.173.586.586 0 00-.21-.094 1.078 1.078 0 00-.251-.029 3.32 3.32 0 00-.513.043v1.993h.24v-.912l.282.043.554.869h.28l-.501-.797-.138-.106zM19.565 18h-.584v4.608h3.257v-.584h-2.673V18zm-6.03 0v4.608h3.386v-.584h-2.803v-1.428h2.354v-.584h-2.354v-1.428h2.803V18h-3.386zm13.893 0h-.826l-2.272 2.272V18h-.584v4.608h.584v-1.51l.523-.523 2.033 2.033h.826l-2.445-2.446L27.429 18zm6.071 4.608l-2.031-4.605.002-.003h-.642l.002.003-2.032 4.605h.639l1.712-3.881.824 1.87h-.688c-.659 0-.604.583-.604.583h1.55l.63 1.428h.639zm-22.942-.584H8.692v-3.44h1.502c.394 0 .713.32.713.714 0 .579-.585.967-.585.967s.949.277.949 1.045a.714.714 0 01-.714.714zm.604-1.863a1.29 1.29 0 00-.039-1.769 1.298 1.298 0 00-.897-.39V18H7.501s-.055.584.604.584h.003v4.024h2.449a1.298 1.298 0 00.604-2.447z" clip-rule="evenodd"/></svg>