<svg xmlns="http://www.w3.org/2000/svg" xmlns:xlink="http://www.w3.org/1999/xlink" width="60" height="60"><defs><path id="vckp__a" d="M29.703 59.405c16.404 0 29.702-13.298 29.702-29.702C59.405 13.298 46.107 0 29.703 0 13.298 0 0 13.298 0 29.703c0 16.404 13.298 29.702 29.703 29.702z"/><path id="vckp__c" d="M0 .178h35.453v35.41H0V.178h35.453v35.41H0V.178z"/><path id="vckp__e" d="M2.818 2.694V.004H.122v2.69h2.696z"/></defs><g fill="none" fill-rule="evenodd"><mask id="vckp__b" fill="#fff"><use xlink:href="#vckp__a"/></mask><use fill="#E5E3E3" xlink:href="#vckp__a"/><g mask="url(#vckp__b)"><g transform="translate(12 12.035)"><mask id="vckp__d" fill="#fff"><use xlink:href="#vckp__c"/></mask><path fill="#FEFEFE" d="M1.34 35.586c.735.005 1.35-.574 1.357-1.278.008-.785-.57-1.394-1.326-1.395-.737-.002-1.357.592-1.369 1.311a1.348 1.348 0 001.339 1.362m32.737 0c.77.01 1.368-.565 1.375-1.317a1.329 1.329 0 00-1.314-1.357 1.358 1.358 0 00-1.383 1.325c-.015.714.6 1.342 1.322 1.35m-4.07-19.036a1.33 1.33 0 00-1.334 1.335 1.33 1.33 0 001.352 1.344 1.32 1.32 0 001.327-1.336c0-.765-.58-1.345-1.345-1.343M25.906 2.87a1.37 1.37 0 001.375-1.338C27.288.82 26.678.204 25.94.183c-.73-.02-1.354.591-1.366 1.34-.012.716.597 1.332 1.331 1.346m-4.094 0c.742 0 1.36-.594 1.362-1.31A1.356 1.356 0 0021.818.182c-.722-.004-1.34.629-1.34 1.372 0 .697.628 1.316 1.334 1.315m9.54 2.741c-.003-.725-.614-1.342-1.331-1.344-.739-.001-1.333.612-1.351 1.36-.015.61.546 1.374 1.423 1.334.68-.03 1.263-.632 1.26-1.35m-1.347 29.978c.768.002 1.347-.573 1.348-1.34a1.32 1.32 0 00-1.329-1.336 1.334 1.334 0 00-1.352 1.344c.003.746.586 1.33 1.333 1.332M17.736 2.869a1.346 1.346 0 001.346-1.356A1.362 1.362 0 0017.702.18c-.692.009-1.323.642-1.33 1.336-.009.724.631 1.358 1.364 1.352m-15.04-1.34c0-.74-.592-1.342-1.326-1.347C.63.177.002.794.002 1.526c.001.734.618 1.341 1.366 1.343a1.336 1.336 0 001.329-1.34M21.84 35.586c.75 0 1.337-.6 1.333-1.361-.003-.72-.615-1.311-1.36-1.313a1.354 1.354 0 00-1.335 1.339 1.34 1.34 0 001.362 1.335m-16.375 0a1.345 1.345 0 001.338-1.362c-.002-.716-.63-1.318-1.366-1.313a1.335 1.335 0 00-1.327 1.342c0 .754.59 1.334 1.355 1.333m8.178-32.718a1.33 1.33 0 001.338-1.329A1.359 1.359 0 0013.64.178c-.724-.003-1.331.606-1.339 1.341-.007.754.578 1.341 1.344 1.35m1.338 2.726c-.013-.716-.628-1.334-1.325-1.331a1.364 1.364 0 00-1.356 1.407c.016.738.628 1.3 1.405 1.287.711-.01 1.289-.628 1.276-1.363m20.47-4.064A1.351 1.351 0 0034.126.179a1.373 1.373 0 00-1.369 1.345c-.013.718.613 1.348 1.338 1.345.768-.003 1.357-.583 1.358-1.338m-21.81 34.056a1.317 1.317 0 001.34-1.32 1.335 1.335 0 00-1.34-1.357c-.747 0-1.336.583-1.342 1.326-.005.77.57 1.35 1.342 1.35M35.453 5.63a1.36 1.36 0 00-1.343-1.364c-.723 0-1.363.645-1.354 1.366.01.7.619 1.32 1.3 1.324.795.004 1.394-.565 1.397-1.326M30.051.19a1.33 1.33 0 00-1.378 1.32 1.333 1.333 0 001.309 1.359c.753.014 1.358-.556 1.371-1.292.015-.78-.541-1.372-1.302-1.388M17.705 35.587c.767.004 1.37-.575 1.377-1.32a1.337 1.337 0 00-1.348-1.355c-.724-.003-1.35.607-1.36 1.326-.01.717.609 1.345 1.33 1.349m13.649-5.424a1.336 1.336 0 00-1.323-1.346 1.349 1.349 0 00-1.356 1.318c-.006.75.592 1.375 1.327 1.383.727.01 1.35-.616 1.352-1.355M5.448 16.553c-.757-.002-1.336.585-1.337 1.352 0 .73.603 1.327 1.342 1.325A1.35 1.35 0 006.8 17.903a1.351 1.351 0 00-1.352-1.35m-2.753 1.345a1.322 1.322 0 00-1.319-1.345c-.745-.008-1.367.595-1.371 1.33a1.355 1.355 0 001.328 1.347 1.33 1.33 0 001.362-1.332M25.9 35.588c.748.004 1.38-.604 1.38-1.328.001-.735-.616-1.345-1.363-1.349a1.341 1.341 0 00-1.341 1.304 1.335 1.335 0 001.324 1.373m-17.699-5.44c-.01.724.6 1.36 1.316 1.372.722.011 1.398-.62 1.385-1.34a1.345 1.345 0 00-1.323-1.36A1.354 1.354 0 008.2 30.146m1.335 5.44c.747 0 1.384-.625 1.37-1.34-.016-.732-.628-1.338-1.352-1.338-.743 0-1.353.596-1.353 1.322 0 .767.581 1.357 1.335 1.356m4.099-6.764a1.33 1.33 0 00-1.334 1.36c.008.739.635 1.35 1.371 1.337.717-.013 1.318-.644 1.31-1.376a1.332 1.332 0 00-1.347-1.321m21.818 1.34a1.345 1.345 0 00-1.359-1.346c-.709-.001-1.347.643-1.34 1.35.009.718.634 1.344 1.348 1.35.735.006 1.35-.61 1.351-1.355M31.353 22c.002-.752-.592-1.37-1.33-1.382-.714-.01-1.35.633-1.35 1.37 0 .728.61 1.34 1.337 1.338A1.33 1.33 0 0031.353 22M4.11 1.528a1.336 1.336 0 001.329 1.34c.734-.004 1.363-.612 1.364-1.317 0-.742-.606-1.364-1.34-1.373a1.35 1.35 0 00-1.353 1.35m21.821 5.428c.721.004 1.36-.628 1.35-1.335-.01-.716-.64-1.351-1.343-1.354a1.372 1.372 0 00-1.366 1.345c-.012.732.603 1.34 1.36 1.344M5.491 12.458c-.696-.032-1.35.555-1.381 1.24-.036.787.534 1.452 1.305 1.456.81.004 1.348-.598 1.386-1.329.036-.704-.572-1.333-1.31-1.367M2.696 13.8c0-.74-.6-1.343-1.332-1.343-.747 0-1.363.612-1.358 1.348.003.727.654 1.372 1.367 1.358A1.367 1.367 0 002.696 13.8M17.73 6.96c.74 0 1.345-.594 1.35-1.324a1.373 1.373 0 00-1.346-1.37c-.713-.007-1.361.64-1.366 1.364-.003.705.636 1.33 1.362 1.33M5.499 23.325c.739-.038 1.342-.67 1.302-1.374-.044-.797-.65-1.338-1.392-1.322-.78.017-1.338.681-1.297 1.464.035.684.692 1.267 1.387 1.232m-2.803-1.347c-.002-.733-.612-1.357-1.329-1.358-.717 0-1.362.645-1.363 1.364 0 .723.616 1.341 1.34 1.342a1.34 1.34 0 001.352-1.348m28.657-8.194a1.329 1.329 0 00-1.342-1.327 1.346 1.346 0 00-1.338 1.337c.002.739.635 1.382 1.35 1.37.737-.012 1.332-.63 1.33-1.38m0 12.278a1.32 1.32 0 00-1.33-1.337 1.346 1.346 0 00-1.35 1.354 1.34 1.34 0 001.338 1.334c.763 0 1.342-.583 1.341-1.351M2.696 5.62a1.357 1.357 0 00-1.322-1.356C.65 4.255.002 4.89 0 5.615c-.002.724.61 1.34 1.338 1.344A1.331 1.331 0 002.696 5.62m6.849 1.335A1.335 1.335 0 0010.9 5.608c.007-.738-.648-1.352-1.377-1.344-.719.007-1.329.636-1.323 1.364a1.34 1.34 0 001.344 1.328M24.573 30.17c.008.74.626 1.35 1.365 1.347.716-.002 1.367-.671 1.345-1.382-.023-.709-.648-1.319-1.35-1.317-.75.003-1.369.619-1.36 1.352M9.526 2.869a1.367 1.367 0 001.38-1.335C10.917.82 10.267.177 9.537.18a1.353 1.353 0 00-1.336 1.341A1.34 1.34 0 009.526 2.87m21.827 6.846c.004-.735-.579-1.341-1.292-1.344-.768-.004-1.382.576-1.388 1.311-.005.754.59 1.372 1.327 1.376.761.004 1.35-.58 1.353-1.343M2.696 30.202c.002-.773-.572-1.373-1.317-1.377-.752-.004-1.372.593-1.379 1.33-.007.719.636 1.363 1.36 1.363.712 0 1.334-.613 1.336-1.316M5.448 6.959c.748 0 1.355-.605 1.356-1.35 0-.705-.645-1.35-1.347-1.347a1.37 1.37 0 00-1.348 1.366c0 .732.602 1.33 1.339 1.33M4.109 30.167c0 .734.635 1.367 1.36 1.355.7-.01 1.325-.634 1.335-1.332a1.373 1.373 0 00-1.341-1.373 1.347 1.347 0 00-1.354 1.35M5.45 8.368a1.344 1.344 0 00-1.34 1.36c.003.724.625 1.34 1.346 1.332A1.375 1.375 0 006.8 9.691a1.355 1.355 0 00-1.35-1.323m-4.1 19.046c.754 0 1.348-.596 1.347-1.35 0-.731-.609-1.342-1.335-1.342A1.37 1.37 0 00.004 26.08c.002.72.622 1.336 1.346 1.335M21.844 6.958c.742 0 1.331-.606 1.33-1.37-.003-.711-.632-1.323-1.362-1.321-.718.001-1.33.623-1.331 1.352-.002.746.601 1.339 1.363 1.34M4.108 26.073c.004.75.61 1.35 1.36 1.343a1.359 1.359 0 001.333-1.345 1.373 1.373 0 00-1.366-1.349c-.728.008-1.33.62-1.327 1.35M2.697 9.705a1.336 1.336 0 00-1.363-1.336C.621 8.376.004 8.99.004 9.69c0 .747.61 1.368 1.346 1.37a1.35 1.35 0 001.347-1.357m19.13 19.112c-.73.002-1.353.62-1.349 1.337.005.75.618 1.37 1.35 1.364.73-.007 1.346-.618 1.346-1.338 0-.75-.61-1.366-1.348-1.363m-4.092-20.46H8.551c-.35 0-.35 0-.35.36L8.198 24.1c0 1.596 1.202 3.01 2.78 3.274.653.11 1.31.034 1.964.052.704.02 1.368.19 1.976.538 1.33.762 2.195 1.902 2.675 3.346.026.08.022.215.143.21.111-.006.102-.13.13-.214a6.132 6.132 0 011.059-1.956c1.016-1.245 2.284-1.98 3.941-1.924.453.015.911.042 1.359-.008 1.787-.204 3.065-1.664 3.065-3.467 0-5.081-.002-10.163.006-15.244 0-.279-.068-.358-.353-.356-3.07.01-6.14.006-9.21.006" mask="url(#vckp__d)"/></g><path fill="#DA1F31" d="M29.734 20.391c3.07 0 6.14.004 9.21-.006.285-.001.354.078.354.356-.009 5.082-.006 10.163-.007 15.244 0 1.803-1.278 3.263-3.066 3.467-.447.05-.905.024-1.358.008-1.657-.055-2.925.68-3.941 1.924a6.12 6.12 0 00-1.059 1.956c-.028.084-.019.208-.13.213-.12.006-.117-.13-.143-.208-.48-1.445-1.344-2.584-2.674-3.346a4.147 4.147 0 00-1.977-.538c-.655-.019-1.311.058-1.964-.052-1.578-.266-2.78-1.678-2.78-3.274l.001-15.383c0-.361 0-.361.351-.361h9.183"/><path fill="#797C83" d="M33.826 40.851c.738-.002 1.347.614 1.348 1.363 0 .72-.615 1.332-1.347 1.338-.73.006-1.344-.613-1.349-1.364-.004-.717.618-1.334 1.348-1.337M14.697 21.74a1.35 1.35 0 01-1.347 1.356c-.735-.002-1.345-.622-1.345-1.37 0-.701.616-1.315 1.33-1.323a1.336 1.336 0 011.362 1.337m1.411 16.369a1.354 1.354 0 011.327-1.35 1.373 1.373 0 011.366 1.349 1.359 1.359 0 01-1.333 1.344 1.345 1.345 0 01-1.36-1.343m17.736-19.115c-.762 0-1.365-.594-1.363-1.34.001-.728.613-1.35 1.33-1.352.73-.002 1.36.61 1.362 1.322.002.763-.587 1.37-1.33 1.37M13.35 39.45c-.725 0-1.344-.615-1.345-1.335a1.37 1.37 0 011.357-1.357c.726 0 1.334.61 1.335 1.341 0 .754-.593 1.35-1.347 1.35m4.1-19.046c.729-.004 1.345.6 1.351 1.324a1.374 1.374 0 01-1.346 1.369c-.721.007-1.343-.608-1.346-1.333a1.344 1.344 0 011.34-1.36M16.11 42.201c0-.75.608-1.356 1.353-1.35a1.374 1.374 0 011.34 1.373c-.01.698-.634 1.322-1.335 1.333-.724.011-1.359-.622-1.359-1.356m1.339-23.207a1.338 1.338 0 01-1.339-1.331 1.37 1.37 0 011.348-1.366c.702-.002 1.347.643 1.347 1.347 0 .745-.608 1.35-1.356 1.35m-2.752 23.243c-.002.703-.624 1.317-1.336 1.317-.724 0-1.367-.645-1.36-1.364.007-.736.627-1.334 1.378-1.33.746.004 1.32.604 1.318 1.377M43.353 21.75A1.327 1.327 0 0142 23.093c-.736-.003-1.332-.621-1.327-1.376.006-.735.62-1.315 1.388-1.31.713.003 1.296.609 1.292 1.343m-21.827-6.846a1.34 1.34 0 01-1.325-1.347 1.353 1.353 0 011.336-1.341c.73-.003 1.38.64 1.369 1.353a1.366 1.366 0 01-1.38 1.335m15.047 27.3c-.009-.733.61-1.349 1.36-1.351.702-.003 1.328.607 1.35 1.317.022.71-.63 1.38-1.345 1.382a1.373 1.373 0 01-1.365-1.348M21.545 18.992a1.34 1.34 0 01-1.344-1.33c-.006-.726.604-1.355 1.323-1.363.729-.008 1.384.606 1.377 1.345a1.335 1.335 0 01-1.356 1.348m-6.849-1.336a1.331 1.331 0 01-1.358 1.338A1.36 1.36 0 0112 17.65c.002-.724.65-1.36 1.374-1.35a1.357 1.357 0 011.322 1.356m28.656 20.441c0 .768-.578 1.352-1.341 1.351a1.34 1.34 0 01-1.338-1.334 1.346 1.346 0 011.35-1.353 1.32 1.32 0 011.33 1.336m0-12.277c.002.75-.593 1.368-1.33 1.38-.715.011-1.348-.632-1.35-1.37a1.346 1.346 0 011.338-1.338 1.329 1.329 0 011.342 1.327m-28.657 8.195a1.34 1.34 0 01-1.352 1.348 1.364 1.364 0 01-1.34-1.343c0-.719.646-1.364 1.363-1.363.717 0 1.327.625 1.329 1.358m2.803 1.346c-.695.036-1.352-.548-1.388-1.232-.04-.783.518-1.447 1.298-1.463.742-.016 1.348.524 1.393 1.321.04.705-.564 1.336-1.303 1.374M29.73 18.994c-.725 0-1.364-.624-1.36-1.33.003-.723.652-1.37 1.365-1.363.74.008 1.353.63 1.347 1.37a1.347 1.347 0 01-1.351 1.323m-15.035 6.841c0 .733-.596 1.347-1.323 1.362-.713.015-1.364-.63-1.367-1.357a1.358 1.358 0 011.358-1.348 1.34 1.34 0 011.332 1.343m2.796-1.342c.738.034 1.346.664 1.31 1.368-.038.73-.575 1.332-1.386 1.328-.771-.003-1.341-.669-1.305-1.456.03-.684.685-1.271 1.381-1.24m20.44-5.502c-.756-.004-1.37-.611-1.36-1.344a1.372 1.372 0 011.367-1.344c.703.002 1.334.638 1.344 1.354.01.707-.63 1.338-1.35 1.334M16.11 13.564a1.35 1.35 0 011.354-1.35c.734.009 1.34.63 1.34 1.373 0 .705-.63 1.312-1.365 1.317a1.337 1.337 0 01-1.328-1.34m27.242 20.471a1.33 1.33 0 01-1.343 1.327 1.351 1.351 0 01-1.337-1.339c0-.736.636-1.38 1.35-1.37.738.013 1.332.63 1.33 1.382m4.1 8.163c-.001.744-.616 1.36-1.351 1.354-.714-.006-1.339-.632-1.347-1.35-.008-.707.63-1.351 1.339-1.35.757.001 1.36.598 1.359 1.346m-21.818-1.34c.734-.01 1.34.582 1.347 1.322.008.731-.593 1.363-1.31 1.375a1.365 1.365 0 01-1.371-1.338 1.33 1.33 0 011.334-1.359m-4.099 6.765c-.754 0-1.335-.59-1.335-1.357 0-.725.61-1.32 1.353-1.321.725 0 1.336.605 1.352 1.337.014.715-.623 1.34-1.37 1.34m-1.335-5.439a1.354 1.354 0 011.378-1.329 1.345 1.345 0 011.323 1.361c.013.72-.663 1.352-1.385 1.34-.716-.01-1.326-.648-1.316-1.372m17.699 5.44a1.335 1.335 0 01-1.324-1.372 1.341 1.341 0 011.34-1.304c.748.003 1.365.614 1.365 1.349 0 .723-.633 1.332-1.38 1.327m-23.206-17.69a1.33 1.33 0 01-1.362 1.333 1.355 1.355 0 01-1.328-1.348c.004-.734.626-1.338 1.371-1.33a1.322 1.322 0 011.32 1.345m2.752-1.345a1.351 1.351 0 011.352 1.35 1.35 1.35 0 01-1.346 1.328 1.335 1.335 0 01-1.343-1.325c0-.768.58-1.354 1.337-1.353m25.905 13.61c-.001.74-.625 1.365-1.352 1.356-.735-.01-1.333-.633-1.327-1.383a1.35 1.35 0 011.356-1.319 1.336 1.336 0 011.323 1.346m-13.648 5.424c-.722-.004-1.342-.631-1.332-1.349.01-.718.637-1.329 1.362-1.326a1.338 1.338 0 011.347 1.355c-.006.745-.61 1.324-1.377 1.32M42.05 12.225c.762.015 1.318.607 1.303 1.388-.013.735-.618 1.305-1.371 1.291a1.333 1.333 0 01-1.31-1.358 1.33 1.33 0 011.379-1.321"/><g transform="translate(44.635 16.297)"><mask id="vckp__f" fill="#fff"><use xlink:href="#vckp__e"/></mask><path fill="#797C83" d="M2.818 1.368c-.002.76-.602 1.33-1.397 1.326C.74 2.691.131 2.07.121 1.37.114.65.752.004 1.477.004a1.36 1.36 0 011.342 1.364" mask="url(#vckp__f)"/></g><path fill="#797C83" d="M25.642 47.622c-.773-.002-1.347-.58-1.342-1.35a1.326 1.326 0 011.341-1.327c.752 0 1.35.604 1.342 1.357a1.317 1.317 0 01-1.341 1.32m21.81-34.056c0 .755-.59 1.336-1.358 1.338-.725.003-1.35-.626-1.338-1.344a1.373 1.373 0 011.37-1.345 1.351 1.351 0 011.326 1.351m-20.47 4.064c.013.735-.565 1.353-1.276 1.364-.777.012-1.389-.55-1.405-1.288a1.364 1.364 0 011.356-1.407c.697-.003 1.312.615 1.325 1.331m-1.338-2.726c-.766-.008-1.351-.596-1.344-1.35.008-.734.615-1.343 1.339-1.34.74.002 1.35.62 1.343 1.362a1.331 1.331 0 01-1.338 1.328m-8.178 32.718c-.764.002-1.355-.579-1.355-1.332a1.336 1.336 0 011.327-1.343c.737-.004 1.364.598 1.366 1.314a1.345 1.345 0 01-1.338 1.361m16.376 0a1.34 1.34 0 01-1.363-1.335c-.006-.72.613-1.341 1.336-1.34.744.003 1.356.594 1.36 1.314a1.333 1.333 0 01-1.333 1.361M14.697 13.564c0 .74-.598 1.342-1.33 1.34-.747-.001-1.364-.608-1.364-1.343-.001-.731.628-1.349 1.367-1.344a1.341 1.341 0 011.327 1.347m15.039 1.34c-.733.006-1.373-.628-1.365-1.351.008-.694.64-1.328 1.332-1.337.747-.01 1.37.593 1.379 1.332a1.346 1.346 0 01-1.346 1.356m12.27 32.719a1.323 1.323 0 01-1.333-1.332c-.004-.75.6-1.349 1.352-1.343.75.005 1.329.587 1.329 1.335 0 .768-.58 1.343-1.348 1.34m1.347-29.977c.003.718-.58 1.319-1.26 1.35-.877.04-1.438-.725-1.423-1.335.018-.747.612-1.36 1.35-1.36.718.002 1.33.62 1.333 1.345m-9.541-2.742c-.706.001-1.334-.618-1.334-1.315 0-.743.618-1.376 1.34-1.372.762.004 1.36.611 1.356 1.377-.003.716-.62 1.31-1.362 1.31m4.094 0c-.734-.014-1.343-.63-1.331-1.346.012-.748.636-1.36 1.366-1.34.737.022 1.348.636 1.34 1.349a1.37 1.37 0 01-1.375 1.337m4.102 13.683a1.314 1.314 0 011.345 1.343c0 .746-.58 1.33-1.327 1.336a1.331 1.331 0 01-1.352-1.344 1.33 1.33 0 011.334-1.335"/><path fill="#FEFEFE" d="M47.444 21.75c.004-.734-.579-1.34-1.292-1.344-.769-.004-1.382.576-1.388 1.311-.006.755.59 1.373 1.327 1.376a1.326 1.326 0 001.353-1.343m-.001 16.347a1.32 1.32 0 00-1.329-1.336 1.346 1.346 0 00-1.35 1.353 1.34 1.34 0 001.338 1.334c.762 0 1.342-.583 1.341-1.351m.001-12.277a1.329 1.329 0 00-1.342-1.328 1.346 1.346 0 00-1.338 1.338c.001.738.635 1.382 1.35 1.37.737-.012 1.332-.63 1.33-1.38m0 8.215c.002-.752-.592-1.37-1.33-1.381-.714-.012-1.35.633-1.35 1.37 0 .728.61 1.339 1.337 1.338a1.33 1.33 0 001.343-1.327m-1.345-5.448a1.33 1.33 0 00-1.334 1.335 1.331 1.331 0 001.352 1.344 1.321 1.321 0 001.327-1.336c0-.766-.58-1.345-1.345-1.343"/><path fill="#797C83" d="M47.444 21.75a1.327 1.327 0 01-1.353 1.343c-.737-.003-1.333-.621-1.327-1.376.006-.735.62-1.315 1.388-1.31.713.003 1.296.609 1.292 1.343m-.001 16.347c0 .768-.579 1.352-1.341 1.351a1.34 1.34 0 01-1.338-1.334 1.346 1.346 0 011.35-1.353 1.32 1.32 0 011.33 1.336m0-12.277c.002.75-.593 1.368-1.33 1.38-.715.012-1.349-.632-1.35-1.37a1.346 1.346 0 011.338-1.338 1.329 1.329 0 011.342 1.327m0 8.216a1.33 1.33 0 01-1.343 1.327 1.351 1.351 0 01-1.337-1.339c0-.736.636-1.38 1.35-1.37.738.013 1.332.63 1.33 1.382m-1.345-5.448a1.314 1.314 0 011.345 1.343c0 .746-.58 1.33-1.327 1.336a1.331 1.331 0 01-1.352-1.344 1.33 1.33 0 011.334-1.335m-.021 19.035c-.722-.008-1.337-.635-1.323-1.35a1.358 1.358 0 011.384-1.325c.74.01 1.32.61 1.313 1.357-.006.753-.604 1.327-1.374 1.318m-32.738 0a1.348 1.348 0 01-1.338-1.363c.012-.719.632-1.313 1.369-1.311.756.001 1.334.61 1.326 1.396-.007.703-.622 1.282-1.356 1.278"/></g></g></svg>