<svg xmlns="http://www.w3.org/2000/svg" width="60" height="60"><g fill="none" fill-rule="evenodd"><rect width="60" height="60" fill="#EB722E" rx="30" transform="rotate(90 30 30)"/><path fill="#FFF" d="M29.86 18.14a3.551 3.551 0 013.548 3.548 3.551 3.551 0 01-3.547 3.545 3.55 3.55 0 01-3.547-3.545 3.55 3.55 0 013.547-3.548zm0 12.112c4.726 0 8.568-3.841 8.568-8.564 0-4.726-3.842-8.569-8.567-8.569s-8.568 3.844-8.568 8.569c0 4.723 3.843 8.564 8.568 8.564zm3.467 6.988a16.04 16.04 0 004.974-2.06 2.51 2.51 0 00-2.673-4.25 10.88 10.88 0 01-11.535 0 2.508 2.508 0 00-3.46.79 2.51 2.51 0 00.786 3.46 16.055 16.055 0 004.974 2.06l-4.79 4.79a2.51 2.51 0 003.551 3.55l4.706-4.706 4.708 4.706c.979.98 2.568.98 3.547 0 .982-.98.982-2.57 0-3.549l-4.788-4.79"/></g></svg>