<svg xmlns="http://www.w3.org/2000/svg" viewBox="0 0 80 80"><circle cx="40" cy="40" r="40" fill="#eb5f0a"/><path fill="#fff" d="M46 44.1h1.7v-7h-4.9v.8c0 3.1-.4 4.2-1.5 4.6V44c.4-.1 3-.5 3.1-5.1v-.5H46v5.7zm-9.4 0h1.7v-5.5h3v-1.5h-4.7v7zM52.7 37h-1.6l-2.8 7.1h1.8l.5-1.3h2.6l.5 1.3h1.8L52.7 37zm-1.6 4.5l.8-2.2.8 2.2h-1.6zm13.1-4.4h-1.7v7h1.6L67 40v4.1h1.6v-7H67l-2.9 4.2.1-4.2zm11.1 4.2v-1.4h-3.4v-1.2h3.7V37h-5.4v7h5.5v-1.5h-3.8v-1.3h3.4zm-43-4.3c-1.2 0-2.2.6-2.8 1.5-.7 1.1-1.7 4-3.7 4-1.2 0-1.9-1-1.8-2 .1-1.1.9-1.8 1.9-1.8.5 0 1 .3 1.3.8l1-1.5c-.6-.6-1.3-1-2.2-1.1-1.9-.2-3.5 1.4-3.7 3.4-.1 2 1.3 3.8 3.2 3.9h.4c.8 0 1.7-.4 2.3-.8.4-.3.8-.7 1.1-1.2.6 1.2 1.8 2 3.1 2 1.9 0 3.4-1.6 3.4-3.7-.1-1.9-1.6-3.5-3.5-3.5m.5 5.4c-.2.1-.3.1-.5.1-.7 0-1.4-.5-1.6-1.2-.1-.2-.1-.5-.1-.7 0-.3.1-.5.1-.7.3-.7.9-1.2 1.6-1.2.2 0 .4 0 .5.1.7.2 1.2.9 1.2 1.8.1.9-.5 1.6-1.2 1.8m27.6-.5l-.1.2c-.3.3-.8.5-1.2.5-1 0-1.8-.9-1.8-2s.8-2 1.8-2c.5 0 1 .2 1.4.7l.1-.1.8-1.2c-.6-.7-1.4-1-2.3-1-1.9 0-3.4 1.6-3.4 3.6s1.5 3.6 3.4 3.6c.9 0 1.8-.4 2.5-1.2l-1.2-1.1zm-45.6-7.6c-1 0-2 .3-2.9.8-.9-.5-1.9-.8-2.9-.8-3.2 0-5.9 2.8-5.9 6.3s2.6 6.3 5.9 6.3c1 0 2-.3 2.9-.8.9.5 1.9.8 2.9.8 3.2 0 5.9-2.8 5.9-6.3-.1-3.5-2.7-6.3-5.9-6.3m-7.7 6.2c-.1.3-.1.5-.1.8C7 42.8 8.1 44 9.5 44c.9 0 1.7-.5 2.2-1.3l.1-.2 1.5-3.2v-.1c.2-.3.5-.5.9-.5.5 0 .9.5.9 1v.1c0 .4-.2 1.3-1.5 2.7-1.6 1.8-3.1 2.3-3.1 2.3-.5.2-1.1.3-1.6.3-2.4 0-4.3-2.1-4.3-4.6s1.9-4.6 4.3-4.6c.5 0 .9.1 1.3.2-1.6 1.4-2.7 2.9-3.1 4.4m9.5.1c.1-.3.1-.5.1-.8 0-1.5-1.1-2.7-2.5-2.7-.9 0-1.7.5-2.2 1.3v.1l-.1.1-1.6 3.3c-.2.3-.5.5-.8.5-.5 0-.9-.5-.9-1 0-.4.2-1.3 1.5-2.7 1.6-1.8 3.1-2.3 3.1-2.3.5-.2 1.1-.4 1.7-.4 2.4 0 4.3 2.1 4.3 4.6s-1.9 4.6-4.3 4.6c-.5 0-.9-.1-1.3-.2 1.5-1.4 2.5-2.9 3-4.4"/></svg>