<svg xmlns="http://www.w3.org/2000/svg" width="80" height="80"><g fill="none" fill-rule="evenodd"><circle cx="40" cy="40" r="40" fill="#EE018A"/><path fill="#FFF" d="M61.155 43.511c-4.964-10.474-15.903-14.018-22.372-8.394a4.88 4.88 0 00-1.033.495c4.903-6.97 16.232-6.4 23.602 2.324 0 0 3.373 4.169 5.771 10.371a29.265 29.265 0 001.142-6.77c-3.95-5.502-8.403-8.729-8.403-8.729-9.25-6.421-20.248-4.034-23.32 3.876a5.166 5.166 0 00-.785 1.32c.856-8.557 10.946-13.89 21.563-10.127 0 0 5.146 1.944 10.345 6.25-.074-.342-.144-.686-.23-1.028a29.024 29.024 0 00-2.429-6.445c-6.058-2.705-11.435-3.2-11.435-3.2-11.451-.825-19.973 7.374-18.187 16.079a5.347 5.347 0 00.033 1.258c-3.84-7.921 2.329-18.053 13.56-20.3 0 0 5.262-.942 11.741.052a27.904 27.904 0 00-5.6-4.67c-6.5.787-11.338 3.097-11.338 3.097-10.323 5.175-13.718 16.674-7.928 23.29.183.396.415.764.686 1.096-7.23-4.86-6.833-16.85 1.822-24.589 0 0 4.078-3.496 10.141-5.968a26.655 26.655 0 00-7.712-1.186c-5.067 3.967-8.03 8.285-8.03 8.285-6.463 9.865-3.736 21.661 4.63 24.305l.034.034.11.05c.247.175.509.328.785.455-8.611-.507-14.077-11.085-10.347-22.232 0 0 1.733-4.851 5.551-9.954a27.39 27.39 0 00-6.195 2.512c-2.469 6.055-2.93 11.334-2.93 11.334-.795 11.684 7.036 20.408 15.42 18.754a4.943 4.943 0 001.377-.051c-7.692 3.899-17.499-2.447-19.676-13.977 0 0-.883-5.217 0-11.719a28.55 28.55 0 00-4.79 6.167c.827 6.406 2.942 11.11 2.942 11.11 5.07 10.694 16.365 14.163 22.773 8.027l.043-.012.132-.096a5.16 5.16 0 00.802-.543c-4.696 7.518-16.399 7.133-23.945-1.802 0 0-3.685-5.045-5.715-10.862-.066-.22-.21-.565-.401-.753-.234-.23-.565-.32-.89-.32l-.26 8.742c3.693 4.502 8.508 8.344 8.508 8.344 9.297 6.454 20.368 4.005 23.365-4.008.294-.351.543-.746.736-1.172-.872 8.547-10.95 13.87-21.565 10.107 0 0-4.718-1.784-9.68-5.72.04.192.078.382.126.574a29.163 29.163 0 002.545 6.664c5.778 2.446 10.764 2.905 10.764 2.905 11.362.821 19.846-7.252 18.22-15.886a5.292 5.292 0 00.058-1.173c3.569 7.878-2.585 17.803-13.687 20.022 0 0-4.96.89-11.176.03a28.001 28.001 0 005.017 4.294c6.444-.802 11.224-3.086 11.224-3.086 10.108-5.07 13.575-16.203 8.27-22.877a5.192 5.192 0 00-.748-1.314c6.939 4.977 6.437 16.754-2.104 24.397 0 0-4.155 3.56-10.31 6.036a26.744 26.744 0 007.454 1.45c5.33-4.057 8.456-8.62 8.456-8.62 6.453-9.841 3.75-21.61-4.574-24.289a4.797 4.797 0 00-1.042-.557c8.646.464 14.146 11.064 10.406 22.237 0 0-1.878 5.267-6.047 10.597.332-.073.659-.145.991-.232a27.551 27.551 0 005.953-2.342c2.583-6.188 3.057-11.653 3.057-11.653.785-11.518-6.814-20.157-15.06-18.82a4.829 4.829 0 00-1.268-.106c7.616-3.416 17.078 2.902 19.21 14.199 0 0 1.28 5.366.327 11.716a14.66 14.66 0 01-1.28 3.665c-.22.398 4.116-3.281 6.115-9.166l-3.315-11.772z"/></g></svg>