<svg xmlns="http://www.w3.org/2000/svg" xmlns:xlink="http://www.w3.org/1999/xlink" width="80" height="80"><defs><circle id="rendez-vous__a" cx="40" cy="40" r="40"/></defs><g fill="none" fill-rule="evenodd"><use fill="#E41684" xlink:href="#rendez-vous__a"/><path fill="#000" fill-rule="nonzero" d="M29.592 18.007h20.802v52.894H29.592z"/><path fill="#FFF" d="M51.43 52.366c-.099-.05-.198-.05-.296-.098-.592-.296-.986-.888-1.331-1.48-.197-.098-.444-.59-.542-.788-.05-.05-.346-.345-.247-.345 0-.296-1.035-2.12-1.183-2.514-.148-.148-.099-.444-.246-.542 0-.345-.493-1.085-.641-1.48-.05-.098-.05-.246-.148-.344l-.74-1.48a8.02 8.02 0 01-.542-1.133 25.84 25.84 0 01-1.38-3.401c-.099-.05-.148-.444-.197-.543v-.049c-.247-.592-.395-1.282-.592-1.873-.099-.592-.345-1.134-.493-1.726h-.05v-.049h.05c-.246-.74-.444-1.528-.64-2.317-.149-.296-.297-.838-.297-1.183-.049-.098-.246-1.183-.295-1.232-.247-1.43-.592-2.909-.641-4.388 0-.049 0-.049-.148-2.366.099-.197.05-.591 0-.838 0-.443-.099-1.232.099-1.627-.148-.493-.05-1.084 0-1.577 0-.099 0-.099.098-1.627.099-.148.197-.493.345-.542.05.345.05.69.099 1.035h.05c.048.05.048.099.098.197h-.099c.05.493.148.986.197 1.529l-.148 1.035c.296.936.296.936.296.986-.05.049-.098.049-.148.098.05.444.345.937.099 1.43 0 .345.148.69.394.986h.05c-.05-.592-.247-1.282-.247-1.923.05.05.05.247.099.247.148.838.197 1.479.246 1.528 0 .591 0 1.183.148 1.774.345 1.036.789 2.07.937 3.205.098.148.098.838.246.936.69 2.712 1.824 5.324 2.711 7.937.099.345.296.69.395 1.035.394.838.64 1.824 1.183 2.564 0 0 0-.05.05-.05 0 .296.344.74.492.986.05 0 .05 0 .247.444h.049v.098c.148.296.345.592.444.888h.049c0 .197.246.69.345.936.148.493.246.937.246 1.48.099.344.099.344.148.541h.05c0 .198.197.74.394.839h-.05c0 .147.395.542.444.591h.148c0-.099-.05-.246-.05-.345h.1c.295 1.577 1.676 2.268 1.183 3.993-.099.148-.148.246-.247.345-.246.099-.345.197-.591.197m-5.67-3.105c0-.05 0-.05 0 0 .05-.099.05-.148.05-.247-.148-.246-.148-.394-.395-.591-.049.098 0 .147.1.197.048.197.098.443.246.64m-.592-.739l.05-.05h-.05c-.05 0-.05 0 0 .05m-17.401.148l.098-.099c.148 0 .247.099.296-.147.05-.05.05-.1.099-.148.295-.198.443-.395.64-.74.395-.098.69-.345.937-.74.148-.147.148-.196.296-.295.05-.099.148-.394.246-.394v-.05h.05v-.098c.049-.099.246-.099.246-.247.099 0 .099 0 .148-.049v-.05h.05c.295-.197.59-.443.936-.542v-.049c.05 0 .098-.05.148-.05.197-.295.493-.59.74-.837.295-.247.64-.444.788-.592.246-.098.591-.394.838-.394v-.05c.099 0 .099 0 .246-.098.395-.099.838-.246 1.282-.394a10.194 10.194 0 011.725-.148c.198.098 1.233.098 1.233.394.197-.148.444.197.69.148.099.05.246.099.345.197.838.099 1.282.986 2.021 1.331-.098-.098-.296-.394-.443-.394v-.05c-.1 0-.148-.098-.198-.147.198-.05.395.098.444.345.148.148.296.197.444.295v.148c.098.05.098.05.394.247.148.148.296.443.444.64.394.346.936.839.986.839-.05-.345-.148-.69-.444-.888-.148-.197-.444-.788-.69-.838-.296-.64-1.134-1.33-1.578-1.774-.542-.444-.542-.444-.591-.493-.247-.197-.592-.395-.69-.493-.592-.197-1.085-.542-1.676-.641-.493-.197-1.085-.197-1.627-.197 0 0-.05 0-.05.05-.295-.05-.64.098-.887 0v.048c-.05.05-.148 0-.197 0-.197.148-.444.05-.69.198 0-.05 0-.05-.05-.05-.049 0-.049.05-.098.099h-.05c-.049.098-.246.098-.344.098v.05c-.888.148-1.923 1.035-2.662 1.626h-.05c.05-.098.099-.197.198-.295 0-.247.443-.937.64-1.183v-.099c.05-.05.099-.05.099-.099v-.049c.05-.098.099-.197.197-.296-.05-.148.197-.443.247-.542v-.246c.197-.198.295-.493.493-.69.098-.247.246-.493.345-.74.049-.246.098-.493.295-.64.395-.592.592-1.48.986-2.071.099-.345.296-.986.543-1.282.098-.296.197-.591.345-.887.148-.493.345-.986.493-1.43.148-.246.148-.69.295-.887.247-.74.493-1.528.69-2.317.05-.099.1-.197.148-.345v-.05c.148-.542.395-1.133.493-1.675.099-.148.247-.69.247-.888.197-.69.444-1.43.591-2.169.05-.148.148-.591.198-.64.591-2.17 1.035-4.437 1.232-6.705.197-1.33.394-2.662.69-3.944.05-.197.05-.887.197-1.035.05-1.232.05-2.514.05-3.746-.05-.542-.247-1.134-.74-1.282-.493-.05-.69.197-1.035.493-.05.148-.197.542-.345.592 0 0 0 .049.05.098l-.05.05c-.05.69-.148 1.38-.247 2.07-.049.197-.147.444-.147.64.049 0 .049 0 .098-.147h.099c.049.05.049.098.098.197 0 .74-.049 1.528-.295 2.218-.05.05-.099.247-.148.296-.296.542-.543 1.134-.592 1.824-.148.099-.246 2.465-.246 2.514 0 .148-.05 1.233-.099 1.282 0 .098-.148 1.38-.296 1.479 0 .098-.246 1.43-.246 1.528-.197.345-.247.937-.345 1.33-.148.543-.247 1.085-.395 1.628-.098.936-.394 1.922-.64 2.859-.05.246-.148.493-.148.74-.05.246-.296 1.232-.345 1.28 0 .05 0 .05-.395 1.43h-.05c.05.05.05.05.05.198-.148.246-.148.838-.394.936v.05h.05c0 .049 0 .049-.1.394-.049.197-.147 1.035-.197 1.084-.049.395-.197 1.38-.443 1.677 0 .049-.148.345-.197.394-.395.69-.641 1.528-.839 2.317h.05c0-.05.148-.444.197-.592a4.26 4.26 0 00.345-1.035c.05 0 .05 0 .05-.099.098.247 0 .69-.05.937-.148.099-.345.197-.345.394-.148.296-.148.69-.247.986h-.049v-.049c-.246-.099-.246.937-.296 1.134-.197.296-.443.64-.64.986-.05.197-.148.443-.148.64-.099.148-.099.148-.099.198 0 0 0 .05.05.05l-.149.443h-.049c.099.296-.296.788-.296 1.134l.05.049c.049 0 .049-.05.098-.05-.148.198-.295.346-.542.346v.049h.05c-.05.148-.198.197-.346.197v.099s0-.05-.049-.05c.148-.246.148-.64.345-.887.05.05.05.05.099 0-.099-.099.148-.197.197-.246.05-.345.148-.69.148-1.036h-.099c-.148.296-.345.641-.493.986-.098.247-.443.74-.443.937-.1.296-.296.887-.592.986-.197.394-.542.74-.789 1.134-.296.295-.591 1.232 0 1.38 0 .05 0 .148-.05.197-.344.296-.344.296-.59.592-.1.197-.198.246-.296.394m22.971-.74c0-.049 0-.049 0 0m.395 0c0-.049 0-.049 0 0-.05-.049-.05-.049 0 0m-.345-.098c0-.05 0-.05 0 0 0-.05 0-.05 0 0m-6.014.148c.049-.345-.395-.592-.543-.789.099-.197-.295-.444-.394-.591-.05-.296-.246-.444-.493-.493.05.295.542.74.74.936.246.296.443.592.69.937m.098-.592h.05c-.05-.049-.05-.098-.05-.148h-.05c0 .05 0 .05.05.148m-.197-.394c.05 0 .05 0 0 0 0-.099-.099-.099-.099-.197h-.049a.68.68 0 00.148.197m-15.183.394c0-.049 0-.049 0 0m15.035-.591l-.05-.099c.05.05.05.05.05.099m2.909-.247c.049 0 .049 0 0 0 .049 0 .049 0 0 0m-3.55-.246c0-.099 0-.099-.049-.099 0 .05 0 .05.05.099m-.1-.148a.448.448 0 00-.147-.345c.05.148.098.246.148.345m-.247-.345c.05 0 .05 0 0 0 .05 0 .05-.05 0 0 0-.05 0-.05 0 0 0-.05 0 0 0 0m-12.866-.05s0-.049 0 0c0-.049.05-.049 0 0 .05-.049.05-.049 0 0 .05 0 0 0 0 0m.099-.049c0-.049 0-.049 0 0 .049-.049.049-.049 0 0 .049-.049.049-.049 0 0 .049 0 .049 0 0 0m-1.676-.345s.049 0 0 0c.049 0 .049 0 0 0 .049 0 0 0 0 0m12.866-.69c0-.05 0-.05 0 0 0-.05 0-.05 0 0 0-.05 0-.05 0 0m-12.028-.099c0-.049 0-.049 0 0v-.098h.098c-.05.05-.098.05-.098.098m-.198-.098c0-.05.05-.05 0 0 .05 0 .05 0 0 0 .05 0 0 0 0 0m.69-.345s0-.05 0 0c0-.05 0-.05 0 0 0-.05 0-.05 0 0m.69-.592c0-.049.05-.049.05-.049v.05h-.05m.1 0c0-.05 0-.05 0 0 .098-.1.098-.1.246-.198-.099.05-.148.148-.247.197m-.098-.148c.049-.246.246-.443.394-.591.05 0 .05 0 .099-.05 0 0 0-.049-.05-.049l.148-.148c.05.198-.296.493-.443.641v.148c-.05.05-.099.05-.148.05m10.056-.346c0-.049-.05-.098-.05-.148 0 .05 0 .05.05.148m-9.613.197c0-.049 0-.049 0 0m.099-.788c0-.099.05-.099.099-.148v.05h-.05l.05.048c-.05.05-.05.05-.099.05m13.162-1.38h.05v-.05l-.05.05M31.76 40.88s.049 0 0 0c.049 0 0 0 0 0m.345-.493c.049 0 .049 0 0 0 .049 0 0 0 0 0m1.232-.69c0-.05 0-.05 0 0 0-.05 0-.05 0 0 0-.05 0-.05 0 0m-.74-1.035c0-.099.05-.197.05-.247h.05c0 .1-.05.148-.05.247h-.05m13.853-.542c0-.05 0-.05 0 0m-11.733-1.627c.05-.05.148-.493.296-.444 0 .197-.148.395-.296.444m-.098-4.683s-.05-.05 0 0c0-.05 0-.05 0 0 0-.05 0-.05 0 0m6.359-6.31c.05-.246.05-.345.05-.592-.1.247-.05.395-.05.592m-3.944-2.514c.05 0 .05 0 0 0 .05 0 0 0 0 0m4.831-.887c.05 0 .05 0 0 0 .05-.05.05-.05 0-.099.05.05.05.05 0 .099m-.789-3.747l.05-.05v-.147h-.05c0-.05 0-.05.148-.592 0-.148.05-.345.05-.493-.099 0-.099 0-.148.05 0 .098 0 .098.05.295-.149.296-.1.592-.1.937m.74-.197h.05c0-.099 0-.247.048-.345 0-.74.05-1.479.05-2.218-.345 0-.197.345-.197.591 0 .345 0 .345-.05.69-.049.099-.148.197-.197.296.05.296.099.64.296.986m-.887-2.416v-.098c.049.05.049.098 0 .098.049 0 .049 0 0 0m.049-.147c0-.05 0-.099-.05-.148h.05c.05.148.05.148 0 .148m.936-.099v-.05c.05 0 .05 0 0 .05.05 0 .05 0 0 0m-.936-.099V15.1h.05v.098h.048c0 .05-.049.099-.098.197.05 0 0 0 0 0m.936-.049c-.049-.296-.147-.69-.098-1.035h.05c0-.148.098-.444.196-.493 0 .05-.049.098-.098.296.05.887.05.887-.05 1.232.05 0 0 0 0 0m-.788-.197c0-.05 0-.05.05-.099h.048v.05c-.049 0-.049.049-.098.049m0-.592c.05-.148.05-.295.098-.443.099 0 .05.148.05.246-.099.099-.099.148-.148.197m.986-.74c0-.048 0-.048 0 0 0-.048 0-.048 0 0 0-.048 0-.048 0 0m.049-.246c.05-.049.05-.049 0 0 .05 0 .05 0 0 0 .05 0 .05 0 0 0m-.296-1.281c0-.296.05-.789.296-.986v-.296c.099-.05.099-.05.197-.05v-.049h.05v.099c-.05.05-.346.838-.395.937 0 0-.05 0-.05.049 0 .099.05.148 0 .246 0 0-.049 0-.098.05m-3.155-1.282c0-.05 0-.05 0 0m3.697-.148v-.098h.05c0 .049 0 .049-.05.098.05 0 .05 0 0 0"/><path fill="#FFF" fill-rule="nonzero" d="M40.486 61.14h-.099c-.394-.098-.69-.147-.986-.394 0-.147.099-.295.296-.443 0-.05.05-.05.05-.05.739-.936 1.626-1.626 2.514-2.316.295-.247.591-.444.887-.69.148-.1.246-.198.394-.296.247-.197.444-.395.641-.493l-.148-.592c-.148 0-.345 0-.542.099-.789.197-1.479.394-2.218.64l-.099.05c-.493.148-1.084.246-1.676.345l.05.64c.64-.048 1.232-.196 1.774-.344l.099-.05c.443-.147.887-.246 1.33-.394-.295.247-.591.493-.887.69-.789.641-1.528 1.233-2.218 1.972 0-.05.05-.05.05-.099l-.494-.394c-.246.296-.443.592-.74.887-.344.296-.788.641-1.33.74-.148 0-.74.098-.937-.296-.05-.148-.05-.345 0-.591v-.099c0-.247.05-.493.099-.69 0 0 .05 0 .05.05.295.147.64.098.985.048.444-.098.838-.345 1.183-.739.296-.345.444-.887.345-1.479 0-.197-.148-.345-.345-.394h-.05c-.788-.197-1.626.197-2.218 1.035a3.897 3.897 0 00-.64 1.775v-.345c0-.296.049-.592.049-.937l.05-.099c.049-.148.049-.345.098-.443 0-.148 0-.247.05-.345l.196-.493h-.148c.148-1.036.198-1.923.148-2.76v-.05c0-.148-.049-.395-.197-.542l-.05-.05c-.147-.098-.394-.098-.492.05l-.05.049c-.098.148-.098.246-.098.345v.05c-.05.098-.05.196 0 .246l.296.049c.049.838 0 1.676-.148 2.711l-.148.099.05.148a.625.625 0 00-.444-.197h-.592c-.148 0-.246.098-.345.098-.345.197-.74.394-.986.838l-.05.099a2.656 2.656 0 00-.344.64c-.197.592-.247 1.233-.247 1.874a2.147 2.147 0 01-.789.493c-.147.05-.295.05-.443.05h-.197a.415.415 0 01-.345-.198c-.05-.099-.099-.197-.099-.296v-.986c0-.443 0-.936-.05-1.38 0-.247-.147-.345-.196-.394-.247-.148-.493 0-.543.049l-.049.05c-.197.147-.394.246-.542.443l-.05.05c-.493.59-.986 1.133-1.43 1.774 0-.05.05-.148.05-.197 0-.099.05-.247.05-.395v-.296c0-.147 0-.295.049-.443l-.592-.099c-.05.148-.05.345-.05.493v.296c0 .098-.048.246-.048.345-.05.197-.05.394-.099.592 0 .197-.05.345-.05.542h-.049c-.147.296-.443.542-.838.838-.493.394-.986.591-1.577.74-.05 0-.148 0-.197.049l-.395-.198c-.197-.098-.394-.246-.591-.345-.099-.493.05-.986.197-1.43.05.05.148.1.246.149.198.098.493.098.74.049.69-.148 1.134-.641 1.43-1.085.197-.246.246-.443.295-.69v-.05c0-.098 0-.246-.049-.393-.197-.444-.69-.395-.937-.345h-.049c-.345.049-.64.246-.887.443-.296.247-.592.493-.789.789l-.197-.099c-.099.148-.099.345-.099.592a2.303 2.303 0 00-.246.493c-.148.394-.296.789-.296 1.282-.394-.198-.74-.444-1.134-.69-.345-.198-.64-.346-.986-.543-.098-.05-.148-.098-.246-.098.788-.296 1.627-.69 2.415-1.38.197-.149.493-.444.592-.937.05-.247.05-.444-.05-.641-.049-.197-.197-.345-.295-.444-.395-.345-.838-.542-1.43-.591-.74-.099-1.43-.05-2.07 0-.395 0-.74.098-1.134.197v-.099l-.64-.05c0 .1-.05.247-.05.395-.05 0-.099.05-.099.05-.098.049-.246.049-.345.098-.197.05-.345.099-.542.148l.246.592.444-.148c.099 0 .197-.05.296-.099v.148a41.276 41.276 0 00.05 5.521v.444c0 .197 0 .345.048.542l.592-.099v-.443c0-.197 0-.345-.05-.493-.147-1.775-.147-3.599-.049-5.423v-.394c.444-.148.838-.197 1.233-.247.64-.049 1.281-.098 1.972 0 .443.05.788.198 1.084.444.05.05.099.099.099.148.049.099.049.246 0 .394-.05.247-.148.345-.345.543-1.036.936-2.219 1.281-3.205 1.577l.148.592c.05 0 .148-.05.197-.05.247.148.543.296.79.395.295.148.64.295.936.493.542.345 1.084.69 1.627.986.197.345.493.591.936.69.099.049.247.049.395.049.492.296.985.542 1.528.838.049.05.098.05.148.099.197.098.443.246.69.246l.049-.64c-.148 0-.296-.1-.444-.198-.049-.05-.098-.05-.148-.099a12.835 12.835 0 01-.838-.443c.444-.148.888-.395 1.331-.69.148-.099.296-.198.395-.296v.296l.394-.148c.197-.05.247-.247.296-.296a2.95 2.95 0 00.246-.592c.099-.197.148-.394.296-.591.444-.69.937-1.233 1.48-1.824l.048-.05c.099-.098.198-.197.345-.295.05.394.05.74.05 1.084v.986c0 .197.049.395.148.543.148.345.493.591.936.591h.148c.197 0 .444 0 .641-.05.246-.098.493-.196.69-.344.099.246.345.493.641.64.099.05.246.05.394.05.148 0 .247 0 .395-.05.64-.197.986-.739 1.232-1.232.05-.05.05-.098.099-.148 0 .099 0 .148.049.247v.148c0 .148.05.246.05.394 0 .099.049.148.049.247 0 .147.049.295.098.443l.69-.098v-.05h-.246l.246-.049C36 61.732 36 61.634 36 61.535c0-.098-.05-.246-.05-.345 0-.05 0-.098-.049-.197.198.345.592.493 1.085.493.148 0 .246 0 .394-.05.69-.147 1.233-.542 1.627-.887.05 0 .05-.049.05-.098a.943.943 0 00-.198.74v.098l.05.049c.443.444.936.542 1.38.64h.098c.641.149 1.331.247 1.972.395.838.148 1.627.247 2.416.493l.148-.591a15.578 15.578 0 00-2.465-.493c-.69-.395-1.331-.493-1.972-.641m-3.697-3.402c.148-.246.74-.936 1.43-.838.049.395-.05.69-.198.888-.246.296-.542.493-.838.542-.197.05-.394.099-.542 0 0 0-.05-.05-.05-.099s-.049-.098-.098-.098c.099-.099.197-.247.296-.395m-12.521.937c.197-.148.394-.296.591-.296h.05c.098 0 .246-.049.295 0v.197c0 .1-.05.198-.148.346-.246.345-.591.739-1.084.838-.148.049-.296.049-.395 0-.098-.05-.147-.099-.147-.148.197-.395.493-.69.838-.937M35.852 57c-.05-.05-.05-.099 0-.148h.05c-.05.05-.05.099-.05.148m0-.246s0-.05 0 0c0-.05 0-.05 0 0m-1.528 3.253c-.247.394-.493.789-.887.937-.148.049-.296.049-.395 0-.049-.05-.296-.148-.345-.345-.098-.74-.05-1.43.197-2.12.05-.148.148-.296.296-.493l.05-.099c.197-.295.443-.443.739-.591.05-.05.148-.05.197-.05h.444l.049.05c.05.05.148.148.148.197 0 .05 0 .099.05.197v.148h.048c0 .148 0 .296-.049.444-.05.591-.197 1.183-.542 1.725"/><path fill="#FFF" fill-rule="nonzero" d="M43.74 57.838v.64h.197c.69 0 1.43-.048 2.415-.147l-.05-.64c-1.034.098-1.823.147-2.563.147m19.374-.789c-.444-.591-1.036-.838-1.578-1.134a3.143 3.143 0 01-.69-.394.374.374 0 00-.197-.098c-.197-.1-.296-.148-.345-.247-.05-.246 0-.444.148-.74.148-.147.295-.344.443-.443.148-.05.296-.148.395-.148.246-.05.493-.099.64 0 0 0 0 .05.05.05.05.049.05.098.098.098l.444-.444-.05-.049a1.075 1.075 0 00-.246-.197c-.394-.148-.74-.099-1.035-.05-.197.05-.394.148-.591.247-.296.148-.493.394-.641.592v.049c-.197.296-.444.74-.247 1.282.099.345.395.492.641.64.05.05.099.05.148.099.246.148.493.296.74.394.492.247.985.493 1.33.937.099.148.148.296.099.444 0 .049-.099.098-.148.148-.05 0-.05.049-.098.049-.493.246-1.036.493-1.677.64-.098 0-.345.1-.394.05-.197-.296-.148-.64.099-1.134l-.543-.246a2.879 2.879 0 00-.246.788c-.05 0-.099-.049-.148-.049-.394-.246-.64-.444-.69-.74a2.4 2.4 0 010-1.182c.05-.148.099-.247.148-.395.05-.197.148-.394.197-.542.05-.197.099-.394.197-.592.05-.147.148-.246.148-.394l-.591-.246c-.05.147-.1.246-.148.394-.05.05-.05.099-.099.148-.099.148-.148.296-.246.493-.05.148-.099.246-.099.394-.05.148-.05.247-.099.394v.05c0 .05 0 .098-.049.148-.345.74-.937 1.38-1.775 1.873a.15.15 0 01-.197 0 8.367 8.367 0 01-.049-1.923V54.98h-.64v1.035c-.149-.394-.543-.64-1.085-.789-.345-.098-.79-.098-1.233-.049-.296.05-.542.148-.74.247-.098.049-.147.049-.246.098v.05a5.371 5.371 0 00-.74.394.677.677 0 00-.196.148c.098-.148.148-.247.246-.395.296-.394.542-.838.838-1.281l.05-.099c.295-.493.591-.937.838-1.479.049-.148.049-.296 0-.394a.505.505 0 00-.296-.247l-.197.592c-.05 0-.099-.099-.05-.148-.246.493-.493.887-.788 1.38l-.05.099c-.296.444-.591.838-.838 1.282l-.887 1.33a8.978 8.978 0 00-.74 1.332l-.295.591c-.05-.05-.099-.148-.148-.197-.296-.444-.592-.838-.888-1.282-.147-.197-.295-.443-.443-.64a28.17 28.17 0 01-1.183-1.825c-.148-.246-.296-.443-.444-.69l-.542.247c.05.148.148.345.246.493.05.098.099.197.148.246l.05-.05c.345.592.739 1.233 1.183 1.874.147.247.295.444.493.641.295.394.591.789.887 1.232a.918.918 0 01.197.543l-.099.64.543-.295a.865.865 0 00.246-.198l.05-.049v-.05c.246-.344.394-.739.591-1.084.197-.345.345-.69.592-1.035a2.976 2.976 0 00-.05 1.331c.099.542.641.838.838.937.247.098.493.148.838.148.197 0 .345 0 .543-.05.887-.148 1.478-.64 1.971-1.133.444-.345.69-.74.79-1.134 0 .197.048.394.048.64.05.247.148.395.345.494a.79.79 0 00.74-.05c.542-.345 1.035-.74 1.38-1.183 0 .099.05.247.05.345.098.543.542.838.985 1.134.148.099.345.148.493.197.05.099.099.247.148.345a.703.703 0 00.592.296c.197 0 .345-.05.493-.05.69-.147 1.281-.443 1.824-.739l.049-.049c.05 0 .05-.05.099-.05.147-.098.345-.246.394-.492.197-.444.148-.74-.05-1.085M55.029 57c-.098.345-.296.592-.64.887-.444.444-.987.838-1.677.986-.443.099-.74.05-.986-.05-.295-.147-.493-.344-.493-.492-.098-.592-.049-1.085.198-1.479.147-.197.295-.394.542-.542.246-.148.493-.296.789-.395.147-.049.345-.049.493-.049h.739v-.246c.148 0 .296 0 .444.049.345.05.591.246.64.444.05.295.05.591-.049.887"/></g></svg>