<svg xmlns="http://www.w3.org/2000/svg" width="41" height="40" fill="none"><circle cx="20.5" cy="20" r="20" fill="#14295E"/><path fill="#fff" fill-rule="evenodd" d="M7.5 19.102A4.094 4.094 0 0111.586 15a4.094 4.094 0 014.086 4.102 4.094 4.094 0 01-4.086 4.101A4.094 4.094 0 017.5 19.102zm6.055 1.063c.205-.165.351-.431.437-.798l.383-1.655h-.688L13.3 19.39c-.04.176-.107.305-.2.388a.525.525 0 01-.364.125c-.155 0-.266-.029-.332-.087-.067-.057-.1-.142-.1-.253a.98.98 0 01.028-.208l.378-1.643h-.687l-.379 1.64c-.01.045-.018.093-.027.147a1.043 1.043 0 00-.012.158c0 .254.09.444.268.569.178.125.441.188.789.188.39 0 .688-.083.894-.249zm-3.032.197h.76l-.61-1.12c.221-.073.396-.182.525-.327a.776.776 0 00.193-.536c0-.225-.088-.393-.264-.503-.176-.11-.426-.164-.749-.164h-1.03l-.61 2.65h.681l.224-.972h.383l.497.972zm-.268-2.189c.132 0 .232.022.3.067.068.044.102.12.102.226 0 .131-.05.234-.149.308-.099.074-.239.111-.42.111h-.335l.165-.712h.337zm17.314-1.254l-.175.768h.58l-.13.567h-.574l-.472 2.053-.006.03-.002.008-.006.027h-.86l.486-2.118h-.362l.131-.567h.354l.176-.768h.86zm-6.906 3.527c-.456 0-.808-.1-1.056-.304-.248-.202-.372-.482-.372-.84 0-.244.04-.468.122-.672a1.567 1.567 0 01.898-.895c.22-.088.46-.132.723-.132.398 0 .7.081.902.243.203.162.304.401.304.718 0 .108-.01.214-.032.318-.022.104-.05.207-.085.309h-1.991v.055c0 .186.065.332.195.438.131.105.331.157.6.157.188 0 .366-.031.534-.095.168-.064.314-.135.438-.213h.096l-.16.691a2.568 2.568 0 01-.527.166c-.184.038-.38.056-.589.056zm.656-1.76a1.33 1.33 0 00.015-.153c0-.127-.04-.224-.118-.29-.078-.068-.19-.102-.337-.102a.693.693 0 00-.446.144.886.886 0 00-.273.401h1.16zm-4.132 1.692c.16.046.33.068.513.068.207 0 .375-.016.504-.048.13-.032.28-.085.451-.16l.181-.734h-.121a1.7 1.7 0 01-.35.226 1 1 0 01-.45.102c-.213 0-.37-.05-.471-.149-.1-.099-.151-.248-.151-.448 0-.287.082-.527.245-.719a.811.811 0 01.65-.289c.148 0 .281.028.4.083.118.055.224.139.317.252h.122l.181-.734a1.945 1.945 0 00-.449-.16 2.188 2.188 0 00-.487-.055c-.272 0-.524.044-.758.133a1.78 1.78 0 00-.593.36 1.64 1.64 0 00-.522 1.213c0 .187.033.351.098.493.065.142.156.26.272.354.119.096.258.167.418.212zm7.64-2.765c.24 0 .427.058.56.174.133.117.2.286.2.507a1.39 1.39 0 01-.04.33l-.4 1.748h-.868l.305-1.332c.022-.098.04-.183.052-.253.012-.07.019-.136.019-.196 0-.104-.027-.18-.079-.228-.052-.047-.148-.071-.288-.071a.765.765 0 00-.236.044c-.09.03-.19.074-.3.133l-.436 1.903h-.863l.487-2.118h-.3l.132-.567h1.162l-.071.296a3.52 3.52 0 01.483-.272c.146-.065.306-.098.48-.098zm3.377 2.53c.248.202.6.303 1.057.303.208 0 .404-.018.588-.056.185-.037.36-.093.527-.166l.16-.691h-.095a2.47 2.47 0 01-.439.213 1.49 1.49 0 01-.533.095c-.27 0-.47-.052-.6-.157a.531.531 0 01-.196-.438v-.055h1.991c.035-.102.064-.205.085-.309.021-.104.033-.21.033-.318 0-.317-.102-.556-.305-.718-.202-.162-.503-.243-.902-.243a1.93 1.93 0 00-.722.132 1.565 1.565 0 00-.9.895 1.807 1.807 0 00-.12.672c0 .358.123.638.371.84zm1.723-1.536l-.01.08h-1.16a.889.889 0 01.274-.402.692.692 0 01.446-.144c.146 0 .259.034.337.101.078.067.117.164.117.29 0 .027-.001.051-.004.075zm3.307-.1h.076l.19-.82a1.504 1.504 0 00-.2-.01c-.163 0-.325.038-.486.113a2.806 2.806 0 00-.484.291l.09-.394h-.863l-.62 2.685h.863l.416-1.798a2.056 2.056 0 01.856-.096.74.74 0 01.162.03zM25.1 22.545c3.018-.048 5.585.34 8.166.956a20.831 20.831 0 00-7.396-1.83 23.934 23.934 0 00-1.871-.043c-5.188.081-9.796 1.748-12.809 4.292 3.596-1.975 8.495-3.291 13.91-3.375z" clip-rule="evenodd"/></svg>