<svg xmlns="http://www.w3.org/2000/svg" xmlns:xlink="http://www.w3.org/1999/xlink" width="60" height="60"><defs><path id="petroelectro__a" d="M29.703 59.405c16.404 0 29.702-13.298 29.702-29.702C59.405 13.298 46.107 0 29.703 0 13.298 0 0 13.298 0 29.703c0 16.404 13.298 29.702 29.703 29.702z"/><path id="petroelectro__c" d="M.068.222H1.53V.025H.068z"/><path id="petroelectro__e" d="M0 .102v1.313h.231V.102H0z"/><path id="petroelectro__g" d="M36.943.085H.032v37.8h36.911z"/></defs><g fill="none" fill-rule="evenodd"><mask id="petroelectro__b" fill="#fff"><use xlink:href="#petroelectro__a"/></mask><use fill="#E7E6E6" xlink:href="#petroelectro__a"/><g mask="url(#petroelectro__b)"><path fill="#D8D8D8" d="M28.228 10.212a1.51 1.51 0 00.003-.047h1.454l.004.046c-.041.139-.132.136-.215.14-.343.014-.687.014-1.03 0-.083-.004-.174-.001-.216-.14"/><g transform="translate(27.845 47.865)"><mask id="petroelectro__d" fill="#fff"><use xlink:href="#petroelectro__c"/></mask><path fill="#D5D5D5" d="M.072.222A4.456 4.456 0 00.068.176C.11.037.2.04.283.036c.344-.014.688-.014 1.032 0 .082.004.173.001.215.14l-.004.046H.072z" mask="url(#petroelectro__d)"/></g><g transform="translate(10 28.576)"><mask id="petroelectro__f" fill="#fff"><use xlink:href="#petroelectro__e"/></mask><path fill="#DBDBDB" d="M.045 1.415c-.016 0-.03 0-.045-.004V.106A.208.208 0 01.045.102C.172.139.18.22.183.298c.017.307.017.614 0 .92-.004.079-.011.16-.138.197" mask="url(#petroelectro__f)"/></g><path fill="#281A69" d="M42.257 17.09a17.83 17.83 0 013.195 5.177 17.636 17.636 0 011.254 5.82c.143 3.289-.564 6.383-2.094 9.288-.432.822-.93 1.604-1.486 2.347.017.119-.028.209-.102.303a19.046 19.046 0 01-3.534 3.495 18.156 18.156 0 01-6.38 3.1c-1.016.267-2.046.44-3.093.523-.626.05-1.253.094-1.88.072-2.016-.072-3.982-.404-5.87-1.146a19.598 19.598 0 01-2.618-1.263l-.034-.02c-.299-.177-.318-.23-.146-.527.54-.934 1.07-1.874 1.608-2.81a913.337 913.337 0 001.754-3.067c.05-.086.119-.157.158-.249.438-.818.914-1.615 1.373-2.42a1709.46 1709.46 0 012.717-4.745c.13-.226.089-.304-.17-.286-1.073.076-2.148-.008-3.22.044-1.047.05-2.094-.002-3.14.038-.523.02-1.046.032-1.57.033-.241 0-.483.007-.725-.019-.065.004-.13.017-.195.018-1.098.02-2.195.06-3.294.04-.377-.007-.433-.104-.24-.439.613-1.057 1.224-2.116 1.835-3.175.503-.87.999-1.745 1.51-2.611.318-.542.188-.449.77-.456.267-.003.535-.024.801.012.445-.026.89.005 1.334-.018 1.177-.058 2.356 0 3.532-.046 1.002-.039 2.003.009 3.002-.035 1.159-.05 2.317.005 3.474-.043.988-.041 1.977.009 2.963-.037 1.158-.053 2.316-.016 3.474-.035.222-.003.442-.051.665-.038.098.006.197.005.29.036.022.004.044.01.065.019.11.087.046.173-.003.26-.452.809-.923 1.607-1.385 2.41-.94 1.637-1.88 3.272-2.824 4.906-.713 1.236-1.423 2.474-2.137 3.709-.88 1.526-1.757 3.054-2.64 4.579-.043.073-.107.135-.125.222-.054.128-.148.232-.207.357-.106.225-.07.297.172.273.299-.03.599-.05.897-.09a12.439 12.439 0 002.275-.514c.183-.06.38-.078.533-.211.622-.195 1.198-.494 1.758-.823a11.605 11.605 0 004.764-5.285c.497-1.11.817-2.268.945-3.474.161-1.514.055-3.01-.374-4.476a10.984 10.984 0 00-1.016-2.415c-.05-.085-.068-.186-.14-.258a12.275 12.275 0 00-1.652-2.105 11.228 11.228 0 00-3.378-2.338 11.44 11.44 0 00-3.084-.893c-.89-.129-1.784-.14-2.68-.07-1.46.112-2.842.516-4.156 1.156a12.052 12.052 0 00-2.61 1.743 12.896 12.896 0 00-1.697 1.806c-.065.083-.113.202-.253.19a.125.125 0 01-.075-.057c-.051-.089-.008-.164.034-.24.624-1.09 1.253-2.179 1.874-3.27.788-1.384 1.582-2.764 2.37-4.148.618-1.086 1.241-2.17 1.856-3.259a.578.578 0 01.444-.311 24.162 24.162 0 012.024-.255 18.123 18.123 0 012.237-.021 17.04 17.04 0 013.884.639 17.775 17.775 0 014.383 1.912 17.806 17.806 0 012.574 1.907c.423.376.802.794 1.211 1.184.112.107.2.221.218.38"/><g transform="translate(10 10.112)"><mask id="petroelectro__h" fill="#fff"><use xlink:href="#petroelectro__g"/></mask><path fill="#1894DA" d="M13.048 28.071c-.435.767-.868 1.534-1.305 2.3-.744 1.303-1.49 2.605-2.237 3.905-.074.127-.05.19.074.263 1.978 1.165 4.087 1.953 6.362 2.273.922.13 1.848.203 2.778.188 2.512-.04 4.921-.559 7.217-1.596 2.302-1.04 4.299-2.505 6.013-4.364.418-.454.808-.933 1.176-1.43.31.077.623.026.934.022.909-.014 1.818-.037 2.727-.062.172-.005.191.04.11.187-.76 1.376-1.515 2.754-2.272 4.132-.647 1.176-1.295 2.35-1.936 3.53-.077.14-.166.187-.322.19-2.002.036-4.004.079-6.006.12l-3.414.076-3.572.08h-1.462C8.218 37.548.355 29.714.032 19.878v-1.313c.09-2.548.666-4.98 1.72-7.296a19.061 19.061 0 014.341-6.052C8.41 3.044 11.097 1.53 14.163.706a18.589 18.589 0 014.065-.62h1.461c2.42.093 4.735.645 6.942 1.648a19.067 19.067 0 015.91 4.202c.136.142.172.247.056.42-.13.197-.257.398-.34.622a18.168 18.168 0 00-3.061-2.736 17.507 17.507 0 00-7.131-2.954 17.827 17.827 0 00-4.732-.176c-.54.05-1.076.136-1.612.222a.45.45 0 00-.348.249 1247.16 1247.16 0 01-2.307 4.045l-3.197 5.583c-.231.405-.454.815-.681 1.223-.009.025-.012.051-.023.075.023-.012.047-.02.07-.03.846-1.12 1.828-2.099 2.986-2.894 1.501-1.03 3.141-1.712 4.94-1.972 3.125-.45 6.002.206 8.59 2.044 1.222.87 2.218 1.963 3.011 3.243.017.027.026.06.04.09a.529.529 0 01-.095.36c-.09.15-.172.305-.263.454-.044.073-.088.152-.196.1h.003a.753.753 0 01-.257-.286 10.253 10.253 0 00-1.984-2.486 10.43 10.43 0 00-2.358-1.623 10.261 10.261 0 00-3.462-1.038 10.526 10.526 0 00-3.774.24c-1.09.269-2.112.698-3.065 1.29a10.903 10.903 0 00-3.546 3.576c-.055.09-.099.186-.149.278a.633.633 0 01-.261.28c-.295.003-.59.025-.883.003-.246-.018-.377.08-.494.286-.678 1.195-1.368 2.383-2.054 3.572-.454.786-.909 1.57-1.36 2.356-.042.072-.129.15-.087.23.05.094.166.047.252.046 1.066-.01 2.131-.024 3.197-.036.098-.002.196.003.294.005.115.07.132.19.15.306.124.765.353 1.5.648 2.211.416 1.003.992 1.908 1.674 2.75.62.767 1.352 1.406 2.144 1.982.08.058.167.11.172.225" mask="url(#petroelectro__h)"/></g><path fill="#9D9D9D" d="M29.05 39.996c.278.08.558.024.837.02.981-.015 1.963-.033 2.945-.05-.55.253-1.132.401-1.718.535-.747.17-1.505.264-2.27.286-.224.007-.239-.022-.129-.213.111-.194.224-.386.336-.578"/><path fill="#696969" d="M19.287 22.597l-.232.306a.465.465 0 01.17-.357l.062.051"/></g></g></svg>