<svg xmlns="http://www.w3.org/2000/svg" viewBox="0 0 80 80"><circle id="christinacosmetics__a" cx="40" cy="40" r="40" class="christinacosmetics__st0"/><path fill="#fff" d="M74.9 40.7H63.2c.3.6.5 1.2.7 1.8h-1.3c-.1 0-.2-.1-.2-.2-.2-.4-.3-.8-.5-1.3-.1-.2-.2-.3-.4-.3h-1.6c-.1 0-.3.1-.4.3-.2.3-.3.7-.4 1-.2.6-.2.6-.9.5.1-.1.1-.3.1-.4.8-1.7 1.5-3.5 2.3-5.2.1-.2.2-.4.5-.4s.4.1.5.4c.4 1 .9 2.1 1.3 3.1.1.2.2.3.4.3h11.6v.4zm-15.1-.5h1.8c-.3-.7-.6-1.4-.8-2.1h-.1l-.9 2.1zm-37.2 2.3v-5.9h1.1c.1 0 .2.2.2.3v1.7c0 .3.1.4.4.4h2.2c.3 0 .4-.1.4-.4v-2H28c.1 0 .2.2.2.4v4.5c0 1 0 1-1 1H27v-2.9c-.6 0-1.1-.1-1.7-.1-.3 0-.6.1-1 0-.3 0-.3.1-.3.3V42c0 .3-.1.4-.4.4-.4.1-.7.1-1 .1zm-1.3-5.7c-.1.3-.1.5-.2.8-.1 0-.1-.1-.2-.1-1.3-1.2-3-.8-3.5.9-.2.7-.3 1.5 0 2.2.4 1.5 2.1 2 3.5 1.2.1-.1.2-.1.3-.2 0 .6-.1.7-.6.8-1.3.4-2.5.3-3.6-.5-.3-.2-.6-.5-.8-.9-.2-.2-.3-.3-.6-.3H5.7c-.4 0-.5-.1-.4-.5h10.4c0-.5 0-1 .1-1.4.3-1.3 1.4-2.3 2.8-2.4.7-.1 1.4 0 2.1.2.2 0 .4.1.6.2zm11.2 2.7c.7 1 1.3 1.9 2 3h-1.4c-.1 0-.2-.1-.3-.3-.5-.7-.9-1.5-1.3-2.2-.1-.1-.2-.2-.2-.3h-.1v2.7h-1.3v-5.5c0-.4.1-.5.5-.4h2.3c.8 0 1.3.4 1.4 1.2.1.6-.3 1.3-.9 1.6-.3.1-.5.2-.7.2zm-1.5-.2c1.2.3 1.7-.5 1.6-1.4-.1-.8-.6-1.1-1.4-1-.1 0-.2.2-.2.3v2.1zm21.1-1.1v4.3h-.7V37.2c0-.2.1-.5.1-.5.3-.1.7-.2.9.1l1.8 1.8c.6.6 1.2 1.3 1.8 1.9.1.1.1.1.3.2V37c0-.2 0-.4.3-.4s.3.2.3.4v5c0 .2-.1.5-.1.5-.2 0-.6 0-.7-.1-.5-.5-1-1-1.5-1.6-.8-.8-1.6-1.6-2.3-2.4 0 0 0-.1-.2-.2zm-13.5 3c.2.7.6 1 1.2 1.1.7.1 1.4-.4 1.3-1.1 0-.2-.2-.5-.4-.7-.4-.3-.9-.5-1.3-.7-.5-.3-.9-.6-1-1.3-.1-1.2.6-1.8 1.5-2 .5-.1 1 0 1.5.1s.5.2.3.7c0 .1-.1.2-.2.4-.3-.7-.8-.8-1.4-.8-.4 0-.7.3-.8.6-.1.4 0 .7.4 1 .4.3.9.5 1.4.7.9.5 1.2 1.1 1 2-.1.7-.8 1.3-1.7 1.5-.6.1-1.2.1-1.8-.1-.2-.1-.4-.2-.3-.5l.3-.9zm4.2-4c-.1-.6-.1-.6.5-.6h4.1v.6c-.4 0-.8 0-1.2-.1-.4 0-.5.1-.5.5v4.9h-1.3v-5c0-.4-.1-.5-.4-.4-.4 0-.8 0-1.2.1zm-7.2-.6h1.3v5.9h-1.1c-.1 0-.2-.2-.2-.4v-5.5zm12.8 5.9v-5.9h1.1c.1 0 .2.2.2.3v5.3c0 .2-.1.3-.3.3h-1zM42 45.7c.1.1.2.2.2.3.2.5.4 1.1.6 1.7.2-.5.3-1 .5-1.4.1-.2.2-.5.3-.5.3-.1.3.3.3.5.2.4.3.9.5 1.4.3-.7.5-1.3.8-1.9h.2c-.3.7-.5 1.4-.8 2.1 0 .1-.2.1-.2.1-.1 0-.2-.1-.2-.2-.2-.5-.4-1.1-.6-1.7-.2.5-.3 1-.5 1.4-.1.2-.2.5-.3.5-.3.1-.3-.3-.4-.5-.1-.6-.3-1.2-.4-1.8-.1 0 0 0 0 0zm6 2.3c-.8 0-1.2-.4-1.3-1.1 0-.7.5-1.2 1.3-1.2s1.3.5 1.3 1.2c-.1.6-.6 1.1-1.3 1.1zm-.1-.2c.6 0 1-.4 1-.9 0-.6-.3-1-.9-1-.6 0-1 .3-1 1 0 .5.3.9.9.9zm8.6-.6c.2.1.3.1.3.2.3.4.9.6 1.3.3.1-.1.2-.2.2-.3 0-.1-.1-.2-.2-.3-.2-.1-.5-.1-.7-.2-.2 0-.4-.1-.5-.2-.3-.1-.3-.5-.1-.7.2-.3.6-.4 1-.3.4.1.8.2.8.7-.1-.1-.2-.1-.3-.2-.3-.3-.9-.4-1.2-.1-.1.1-.2.2-.1.3.1.1.2.3.3.3.3.1.7.1 1 .3.2.1.4.3.4.5s-.2.4-.4.5c-.3.1-.6.1-.9.1-.5-.2-.8-.3-.9-.9zm-22.6 0c.2.1.3.2.3.2.3.4.9.5 1.3.3.1-.1.2-.2.2-.4 0-.1-.1-.2-.3-.3-.2-.1-.5-.1-.7-.2-.2 0-.3-.1-.5-.2-.3-.2-.3-.5-.1-.8.5-.5 1.5-.3 1.7.4-.1-.1-.2-.1-.3-.2-.2-.4-.9-.4-1.2-.2-.1.1-.2.2-.1.3.1.1.2.3.3.3.4.1.7.2 1.1.3.2.1.4.3.3.4 0 .2-.2.5-.3.5-.4.1-.8.1-1.2.1-.2.2-.5 0-.5-.5zm-1.5-1.4V48s-.1 0-.1.1c-.1-.1-.2-.2-.2-.3-.4.2-.8.4-1.2.3-.3-.1-.5-.2-.5-.6V46c0-.1.1-.2.2-.2h.1v1.4c0 .5.2.7.6.7.5 0 .9-.2.9-.7V46c0-.1.1-.2.1-.3 0 0 .1 0 .1.1zM55.2 48c-.6-.2-.8-.9-1.2-1.3-.4.2-.6.4-.6.9 0 .1-.1.2-.1.3h-.1v-3.1h.1c0 .1.1.2.1.3v1.7c.6-.3 1-.9 1.6-1.1 0 0 0 .1.1.1-.3.2-.6.5-.9.8.4.4.7.8 1 1.4.1-.1.1-.1 0 0zM22 47.9v-2.8c0-.1.1-.1.2-.2.1.1.2.1.2.2v2.7c0 .1-.1.2-.2.2s-.1-.1-.2-.1zm2.2-2c-.2 0-.4 0-.5-.1v-.1h.4c.2-.1-.1-.6.3-.6v.6c.2 0 .3 0 .5.1v.1c-.1 0-.3 0-.5.1v1.7c0 .1.3.2.5.3-.2 0-.5.1-.6 0-.1-.1-.2-.3-.2-.4 0-.6.1-1.2.1-1.7zm13.7 0v1.7c0 .1.3.2.4.3-.2 0-.4.1-.6 0-.1 0-.2-.3-.2-.4v-1.6c-.1 0-.3-.1-.4-.1v-.1c.1 0 .2-.1.4-.1v-.4c0-.1.1-.1.1-.2 0 .1.1.1.1.2v.4c.2 0 .3 0 .5.1v.1s-.1.1-.3.1zm-9.4 2.7V46c0-.1.1-.2.1-.3h.1v2.6c.1.1-.1.2-.2.3zM51 46c.3-.1.5-.2.8-.3 0 .1 0 .1.1.2-.1.1-.2.1-.3.2-.4-.1-.6.1-.6.5v1.2c0 .1-.1.2-.1.2 0-.1-.1-.2-.1-.2v-1.7c0-.1.1-.2.1-.3 0 0 0 .1.1.2z"/></svg>