<svg xmlns="http://www.w3.org/2000/svg" xmlns:xlink="http://www.w3.org/1999/xlink" width="80" height="80"><defs><circle id="profi__a" cx="40" cy="40" r="40"/></defs><g fill="none" fill-rule="evenodd"><use fill="#C1082C" xlink:href="#profi__a"/><path fill="#FFF" fill-rule="nonzero" d="M7.261 39.609h1.508a2.9 2.9 0 00.587-.058c.18-.035.35-.1.507-.196.15-.091.27-.217.362-.376.092-.16.138-.36.138-.602 0-.261-.06-.471-.181-.63a1.207 1.207 0 00-.464-.37 2 2 0 00-.63-.167 6.455 6.455 0 00-.667-.036h-1.16v2.435zM5 35.261h3.813c.53 0 1.033.048 1.506.145a3.43 3.43 0 011.24.5c.357.242.647.571.841.957.207.4.311.906.311 1.515 0 .599-.096 1.1-.29 1.507-.192.406-.458.73-.796.97a3.243 3.243 0 01-1.203.516 7.048 7.048 0 01-1.508.152H7.261v4H5V35.26zm11.393 4.247h1.334c.203 0 .418-.008.645-.022.227-.014.432-.058.616-.13.183-.073.335-.186.457-.34.12-.155.18-.373.18-.653 0-.261-.053-.469-.159-.623a1.068 1.068 0 00-.406-.356 1.807 1.807 0 00-.565-.166 4.618 4.618 0 00-.623-.043h-1.479v2.333zm-2.26-4.247h3.971c.522 0 1.017.05 1.486.152.468.102.879.27 1.232.508.352.236.632.556.84.956.207.401.312.901.312 1.5 0 .725-.189 1.341-.565 1.848-.377.508-.928.829-1.653.964l2.609 4.334h-2.71l-2.145-4.102h-1.117v4.102h-2.26V35.261zm11.28 5.13c0 .484.075.927.224 1.327a2.939 2.939 0 001.652 1.732c.392.164.83.246 1.313.246.482 0 .92-.081 1.311-.246.38-.156.724-.39 1.008-.688a3.05 3.05 0 00.645-1.044c.15-.4.225-.843.225-1.326 0-.473-.076-.913-.226-1.319a3.02 3.02 0 00-.645-1.051 2.95 2.95 0 00-1.007-.688 3.361 3.361 0 00-1.311-.246c-.483 0-.92.082-1.312.246-.38.156-.723.39-1.008.688-.28.295-.494.645-.645 1.051-.15.406-.224.845-.224 1.319zm-2.349 0c0-.82.139-1.564.413-2.231a4.9 4.9 0 011.153-1.703 5.083 5.083 0 011.754-1.08A6.328 6.328 0 0128.602 35c.802 0 1.54.126 2.217.377a5.085 5.085 0 011.754 1.08 4.892 4.892 0 011.152 1.702c.275.668.413 1.412.413 2.233 0 .821-.137 1.565-.413 2.231a4.896 4.896 0 01-1.152 1.704 5.085 5.085 0 01-1.754 1.08 6.327 6.327 0 01-2.217.377 6.319 6.319 0 01-2.218-.378 5.063 5.063 0 01-1.754-1.08 4.89 4.89 0 01-1.152-1.703c-.276-.666-.414-1.41-.414-2.232zm12.633-5.13h6.885v2.087h-4.624v2.087h4.276v2.087h-4.276v4.001h-2.261V35.261zm8.543 0h2.26v10.262h-2.26V35.26zm14.982 4.247h1.334c.202 0 .417-.008.645-.022a2.03 2.03 0 00.615-.13c.184-.073.336-.186.457-.34.12-.155.181-.373.181-.653 0-.261-.053-.469-.16-.623a1.066 1.066 0 00-.405-.356 1.807 1.807 0 00-.565-.166 4.623 4.623 0 00-.624-.043h-1.478v2.333zm-2.261-4.247h3.972c.521 0 1.017.05 1.485.152.469.102.88.27 1.232.508.353.236.633.556.84.956.208.401.312.901.312 1.5 0 .725-.189 1.341-.565 1.848-.377.508-.928.829-1.653.964l2.61 4.334h-2.71l-2.145-4.102h-1.117v4.102h-2.261V35.261zm17.958 6.305a4.95 4.95 0 01-.275 1.681 3.698 3.698 0 01-.819 1.334 3.745 3.745 0 01-1.355.883c-.541.213-1.165.32-1.87.32-.715 0-1.343-.107-1.884-.32a3.739 3.739 0 01-1.355-.883 3.696 3.696 0 01-.82-1.334 4.95 4.95 0 01-.274-1.681v-6.305h2.26v6.218c0 .319.051.614.153.885.101.27.244.505.427.703.184.198.403.353.66.464.263.112.547.169.833.166a2.02 2.02 0 00.826-.166c.247-.109.469-.267.652-.464.184-.198.327-.433.428-.703.102-.271.152-.566.152-.885v-6.218h2.261v6.305zm-24.812-.44a1.641 1.641 0 01.467-1.154c.148-.148.325-.265.519-.343.2-.082.412-.124.635-.124a1.644 1.644 0 011.154.467c.146.147.26.32.343.52.082.2.123.411.123.634 0 .223-.041.435-.123.634a1.575 1.575 0 01-.863.864c-.2.081-.411.123-.634.123-.223 0-.435-.042-.635-.123a1.554 1.554 0 01-.862-.864 1.638 1.638 0 01-.124-.634zm-1.6 2.319h6.442v2.078h-6.442v-2.078z"/></g></svg>