<svg xmlns="http://www.w3.org/2000/svg" xmlns:xlink="http://www.w3.org/1999/xlink" width="60" height="60"><defs><path id="skynet__a" d="M29.703 59.405c16.404 0 29.702-13.298 29.702-29.702C59.405 13.298 46.107 0 29.703 0 13.298 0 0 13.298 0 29.703c0 16.404 13.298 29.702 29.703 29.702z"/><path id="skynet__c" d="M.121 5.064h27.168V.123H.121v4.941z"/></defs><g fill="none" fill-rule="evenodd"><mask id="skynet__b" fill="#fff"><use xlink:href="#skynet__a"/></mask><use fill="#FCFCFC" xlink:href="#skynet__a"/><g mask="url(#skynet__b)"><g transform="translate(10 36.73)"><mask id="skynet__d" fill="#fff"><use xlink:href="#skynet__c"/></mask><path fill="#45A434" d="M9.084 2.216h-.002c0-.401.003-.803-.002-1.205-.001-.124.017-.28-.177-.288-.2-.01-.233.13-.234.285-.003.855-.005 1.711-.006 2.567 0 .134.01.274.19.285.204.014.229-.135.23-.285.003-.453 0-.906 0-1.359zm-5.695.574h.002c0 .183.004.365 0 .547-.014.578.386.613.8.58.11-.008.2-.066.204-.196.002-.133-.08-.193-.199-.19-.312.01-.37-.18-.367-.43.003-.274.007-.547-.003-.82-.01-.258.047-.438.365-.407.095.009.187-.025.2-.142.014-.115-.065-.18-.162-.18-.28.006-.423-.157-.506-.386-.048-.134-.171-.118-.253-.124-.106-.008-.077.114-.077.183 0 .157-.02.286-.222.297-.103.005-.17.065-.175.174-.006.113.058.168.166.174.226.012.228.172.228.335v.585zm11.328-1.33c-.988.008-1.567.91-1.154 1.8.225.485.65.664 1.15.67.457.006.85-.157 1.07-.591.048-.095.144-.222-.018-.3-.108-.053-.233-.044-.321.062-.042.05-.068.112-.11.16-.233.264-.686.343-1.013.181-.292-.144-.479-.546-.415-.895.071-.395.32-.633.698-.68.309-.036.57.04.767.288.112.14.268.215.405.094.147-.13-.007-.272-.087-.37-.247-.3-.586-.421-.972-.419zm-3.159 1.33c.25 0 .5-.012.748.004.301.02.361-.123.315-.38-.078-.436-.322-.72-.743-.874-.563-.206-1.327.006-1.623.464-.308.475-.212 1.205.21 1.604.462.437 1.206.438 1.791-.008.134-.102.385-.221.23-.412-.122-.149-.34-.044-.48.103a.812.812 0 01-.116.104c-.358.251-.998.14-1.237-.214-.059-.088-.115-.184-.075-.29.048-.127.17-.098.271-.099.237-.003.473 0 .709-.001zm6.491-1.324c-.8-.004-1.326.457-1.334 1.168-.009.823.453 1.296 1.273 1.302.848.006 1.348-.46 1.359-1.265.01-.718-.511-1.2-1.298-1.205zM6.625 2.79c.25 0 .498-.009.747.003.258.012.308-.114.283-.338-.108-.98-1.221-1.184-1.877-.867-.683.331-.872 1.183-.487 1.806.355.575 1.286.726 1.928.302.169-.111.441-.28.317-.466-.162-.243-.373-.021-.55.115-.405.31-1.043.223-1.298-.16-.164-.248-.105-.378.19-.391.249-.012.498-.003.747-.004zm13.663-.114h-.006v.468c0 .156.001.312.004.468.002.147.053.254.224.26.181.006.219-.105.217-.253-.002-.117-.005-.234 0-.35.01-.273-.004-.55.046-.816.082-.435.447-.666.91-.607.437.055.471.38.472.72 0 .299-.007.599.009.897.009.158-.093.416.214.401.273-.013.212-.254.22-.423.017-.311-.002-.625.025-.935.035-.41.38-.678.823-.668.397.01.539.178.554.684.01.364.002.728.012 1.092.004.135.04.264.225.256.179-.008.206-.127.207-.27 0-.39.008-.78 0-1.17-.015-.76-.436-1.092-1.182-.946-.215.041-.38.175-.549.295-.109.077-.213.127-.313.018-.468-.51-.962-.42-1.466-.067-.128.09-.18.057-.218-.078-.034-.123-.134-.158-.247-.136-.141.027-.181.135-.181.263v.897zM.158 5.065C.146 3.504.136 1.944.12.384.118.069.343.128.534.128l8-.002L26.7.131c.587 0 .588 0 .588.565v4.368H.158z" mask="url(#skynet__d)"/></g><path fill="#221D1B" d="M37.995 25.699c.085-.153.233-.092.354-.092 2.088-.004 4.175-.003 6.262-.002.176 0 .418-.052.371.244-.037.236.208.58-.29.663-1.23.205-1.288.343-.726 1.445.786 1.541 1.57 3.083 2.357 4.624.05.1.058.266.197.258.137-.007.111-.184.173-.277.134-.203.152-.613.34-.604.234.011.236.417.389.618.24.317.167.598.008.93-.76 1.582-1.434 3.205-2.266 4.754-.639 1.188-1.39 2.3-2.565 3.05-.351.225-.728.403-1.159.421-.383.04-1.694-.167-1.858-.258-1.032-.573-1.363-1.771-.727-2.657.469-.653 1.476-.879 2.272-.512.597.275 1.027.745 1.435 1.231.167.198.272.237.44.014.514-.687 1.117-1.313 1.426-2.136a.595.595 0 00-.015-.517c-1.491-3.08-3.065-6.12-4.624-9.168-.287-.56-.747-.926-1.327-1.158-.027-.055-.06-.091-.12-.03l-.193-.047c-.022-.061-.065-.08-.127-.06a.062.062 0 01-.03-.057 2.03 2.03 0 00.003-.677"/><path fill="#45A434" d="M10 31.021c.078-.01.155-.025.233-.03.77-.057.76-.052 1.072.652.587 1.322 1.36 2.513 2.512 3.434.388.31.83.529 1.274.754-.08.121-.181.09-.266.09-1.43.004-2.86-.003-4.289.01-.308.004-.39-.098-.414-.4-.026-.33.113-.69-.122-.997V31.02"/><path fill="#221D1B" d="M48.649 24.273a.758.758 0 01-.409-.618c.02-.044.06-.088.06-.132.001-.856 0-1.712-.004-2.568 0-.083.033-.192-.105-.213-.322-.075-.648-.03-.972-.029-.16 0-.246-.05-.245-.219 0-.163.1-.183.233-.183.325 0 .65-.01.976-.014.016.062.054.083.094.028.021-.03-.009-.065-.054-.066L48.252 19h1.261c.015.424-.19.961.08 1.239.237.242.776.052 1.18.071.157.008.315.004.473 0 .131-.004.236.012.238.18.002.167-.078.225-.243.223-.473-.008-.946.005-1.418-.01-.243-.009-.316.071-.31.313.016.688 0 1.377.008 2.066.01.67.32.937.996.893.234-.015.47-.014.704-.002.122.006.306-.148.356.089.056.26-.174.195-.306.237a7.89 7.89 0 00-.063.011c-.805.204-1.612.294-2.422.03-.02-.073-.065-.098-.137-.067m3.231 2.221c-.89.11-1.48.608-1.851 1.393l-.997 2.105a7.33 7.33 0 01-.625-1.21c-.064-.156.06-.296.124-.437.528-1.179.34-1.461-.962-1.796-.36-.093-.57-.5-.407-.839.05-.1.138-.109.231-.107 1.496.022 2.992-.039 4.486.032v.859zm-19.406-.037c-.137-.017-.281-.007-.405-.088l-.022-.72c.094-.069.202-.04.304-.04 1.685-.003 3.37-.004 5.056-.003.127 0 .264-.035.376.06l-.018.663a.813.813 0 01-.377.189c-1.563.334-2.81 1.238-4.022 2.202-.524.417-.523.434-.136.975 1.442 2.015 2.768 4.11 4.277 6.079.02.026.017.07.033.15h-1.026c-.986 0-1.974-.04-2.956.016-.53.03-.782-.227-.994-.61-.682-1.235-1.556-2.343-2.345-3.508-.101-.149-.18-.168-.342-.053-.332.236-.506.496-.487.936.04.947.004 1.898.015 2.847.003.258-.047.37-.345.365a77.41 77.41 0 00-3.035.006c-.328.008-.391-.107-.39-.404.008-4.306.005-8.61.004-12.916v-.078c0-1.341-.361-1.768-1.694-1.975-.236-.037-.376-.08-.364-.374.025-.622-.06-.536.547-.568 1.6-.083 3.202-.148 4.803-.236.378-.021.472.127.471.476-.008 3.511-.005 7.023.002 10.535 0 .172-.1.43.061.502.169.074.285-.18.415-.295.985-.88 1.965-1.765 2.903-2.695.046-.046.095-.09.14-.137.72-.733.665-.97-.295-1.267-.038-.067-.089-.081-.154-.034"/><path fill="#45A434" d="M18.278 35.822c.339-.193.66-.402.93-.68.973-1 .841-2.681-.272-3.432-.688-.463-1.446-.77-2.234-1.019a63.691 63.691 0 01-3.059-1.027c-2.247-.836-3.557-2.993-3.12-5.268.34-1.77 1.487-2.896 3.143-3.532 2.307-.885 4.567-.627 6.77.37.344.157.59.169.804-.136.297-.422.734-.336 1.145-.32.277.01.224.245.226.416.019 1.457.032 2.914.047 4.37v.04c.005.628-.22.797-.842.632-.267-.07-.285-.325-.367-.516-.333-.78-.679-1.552-1.154-2.258-.913-1.357-2.135-2.118-3.846-1.937-1.545.163-2.553 1.524-2.178 2.961.151.578.54.967 1.033 1.273.949.59 2.03.843 3.068 1.206.977.342 1.97.633 2.89 1.132 2.867 1.555 3.102 5.424.652 7.542-.224.193-.47.303-.786.295-.853-.02-1.708-.01-2.562-.016-.085 0-.184.038-.288-.096m31.996-1.913c-.003.16-.069.302-.139.443-1.095 2.188-2.19 4.377-3.289 6.564-.237.473-.625.642-1.017.468-.447-.2-.582-.582-.346-1.068.518-1.065 1.05-2.123 1.576-3.184.477-.963.946-1.929 1.434-2.886.132-.26.113-.474-.016-.73-.959-1.894-1.905-3.793-2.853-5.692a4.996 4.996 0 01-.211-.46c-.146-.388-.007-.735.357-.92.357-.181.756-.1.96.254.294.507.549 1.035.81 1.56.856 1.71 1.708 3.424 2.561 5.137.082.163.165.326.173.514"/><path fill="#221D1B" d="M38.447 20.77l.07.105c.13.466.144.942.133 1.422-.01.442.002.883-.005 1.325-.004.256.108.436.353.492.213.049.43.13.658.073.098.207-.016.237-.187.22-.104-.118-.245-.064-.368-.066a59.912 59.912 0 00-1.888.002c-.201.004-.417-.067-.606.064-.126.04-.24-.034-.244-.126-.006-.12.133-.134.24-.144.13-.011.26-.017.391-.032.28-.033.421-.2.423-.472.003-.674.009-1.349-.008-2.023-.011-.462-.267-.787-.753-.869-.767-.129-1.505-.037-2.131.485-.132.001-.158.057-.087.164v.217c-.07.084-.073.168 0 .251v.298c-.102.536-.052 1.076-.03 1.614.007.194.166.312.364.352.198.04.396.078.594.116l-.01.072h-3.158c.217-.142.384-.084.526-.132.167-.057.394-.046.396-.311l.034-.203c.133-.89.104-1.784.009-2.673-.023-.215-.18-.401-.459-.37-.2-.11-.618.1-.604-.228.01-.255.398-.11.612-.13.48-.042.962-.038 1.444-.06.187-.007.317.038.29.253-.06.47.149.388.416.206.042-.029.094-.043.141-.064.078.028.125.006.135-.08l.244-.096c.298-.023.59-.076.863-.204a3.37 3.37 0 011.061 0c.16.127.477.034 1.14.551m5.038 1.11h.985c.64 0 .701-.09.455-.69a.872.872 0 00-.163-.262c-.461-.49-1.043-.495-1.643-.373-.565.115-.976.425-1.167.986-.09.265-.005.353.272.342.42-.016.84-.004 1.26-.003zm.634.309c-.643 0-1.288.008-1.931-.004-.234-.004-.29.081-.275.3.056.794.666 1.423 1.61 1.562.894.13 1.772.1 2.466-.601.149-.15.316-.102.418-.007.153.141-.048.226-.13.291-.406.326-.845.598-1.37.698-1.108.212-2.2.204-3.23-.313-1.18-.593-1.512-1.82-.768-2.886.304-.437.796-.668 1.303-.821 1.115-.338 2.23-.361 3.306.133.571.263.848.743.866 1.38.007.244-.085.277-.294.274-.656-.01-1.314-.004-1.97-.004v-.002z"/><path fill="#F9F9F8" d="M30.288 39.405v-.897c0-.13.04-.236.18-.264.115-.022.214.013.248.136.038.135.09.168.218.078.504-.353.998-.442 1.466.068.1.108.204.058.313-.019.17-.12.334-.253.55-.295.745-.145 1.166.187 1.181.947.008.39 0 .78 0 1.17 0 .142-.028.261-.207.27-.184.007-.221-.122-.225-.257-.01-.363-.001-.728-.012-1.091-.015-.507-.157-.676-.554-.685-.443-.01-.788.258-.823.668-.027.31-.008.624-.024.935-.009.17.052.41-.22.424-.308.014-.206-.244-.215-.402-.016-.298-.008-.598-.009-.897-.001-.34-.035-.665-.472-.72-.463-.059-.828.172-.91.607-.05.266-.035.543-.046.815-.005.117-.002.234 0 .351.002.148-.036.26-.217.253-.171-.006-.222-.113-.224-.26a38.093 38.093 0 01-.004-.467v-.468h.006m-13.868-.192v-.007c.17 0 .338-.005.508.001.276.01.284-.106.158-.302-.276-.43-1.11-.43-1.389.003-.105.164-.12.299.137.304.195.004.39 0 .586 0m.205.307c-.249 0-.498-.009-.746.003-.296.014-.355.143-.19.39.254.385.892.47 1.297.16.177-.135.388-.357.55-.114.124.186-.148.355-.317.466-.642.425-1.573.274-1.928-.302-.385-.623-.196-1.475.487-1.805.656-.318 1.769-.114 1.877.867.025.224-.025.35-.283.337-.249-.012-.498-.003-.747-.002m11.415-.926c-.54-.001-.86.308-.865.834-.005.485.337.818.84.819.536.001.861-.315.86-.837-.003-.505-.32-.816-.836-.816m.01-.398c.787.005 1.307.488 1.298 1.205-.01.805-.51 1.271-1.359 1.265-.82-.006-1.282-.479-1.273-1.302.008-.711.534-1.172 1.334-1.168m-6.718 1.02v-.004h.59c.26.001.247-.128.147-.299-.242-.41-1.07-.436-1.38-.044-.058.072-.124.151-.096.245.04.134.169.096.267.1.157.006.315.002.472.002m.227.305c-.236 0-.472-.001-.708.002-.102 0-.224-.029-.272.098-.04.107.016.202.075.29.239.354.879.465 1.237.214a.8.8 0 00.117-.104c.139-.147.357-.252.478-.103.156.191-.095.31-.229.412-.585.447-1.329.445-1.791.008-.422-.399-.518-1.13-.21-1.604.296-.458 1.06-.67 1.623-.464.421.154.665.439.743.875.046.256-.014.4-.315.38-.249-.017-.499-.004-.748-.004m3.159-1.33c.386-.003.725.118.972.418.08.098.234.241.087.37-.137.121-.293.047-.405-.093-.197-.248-.458-.325-.767-.288-.378.046-.627.284-.698.68-.064.348.123.75.415.894.327.162.78.083 1.012-.18.043-.048.07-.11.11-.16.089-.107.213-.116.322-.063.162.078.066.205.018.3-.22.434-.613.597-1.07.591-.5-.006-.925-.184-1.15-.67-.413-.89.166-1.792 1.154-1.8M13.39 39.52v-.586c0-.163-.001-.322-.228-.335-.108-.006-.172-.06-.166-.174.005-.108.072-.168.175-.174.201-.011.222-.14.222-.297 0-.068-.03-.19.077-.182.082.006.205-.01.253.123.083.23.227.392.506.387.097-.001.176.064.162.18-.013.116-.105.15-.2.14-.318-.03-.374.15-.365.408.01.273.006.547.003.82-.003.25.055.44.367.43.119-.003.201.057.199.19-.003.13-.094.188-.205.197-.413.032-.813-.003-.8-.581.005-.182.001-.364.001-.546h-.002zm5.772-.575c0 .453.002.906-.001 1.359-.002.15-.03.3-.274.286-.213-.012-.225-.151-.224-.286.001-.855.004-1.711.008-2.567 0-.156.04-.294.276-.285.23.008.209.164.21.288.007.402.003.804.003 1.205h.002"/><path fill="#45A434" d="M16.42 39.213c-.195 0-.39.003-.586-.001-.258-.005-.242-.14-.137-.304.28-.432 1.113-.432 1.389-.003.126.196.118.312-.158.302-.17-.006-.339 0-.508 0v.006m11.62-.62c.515 0 .832.31.834.816.002.522-.323.838-.858.837-.504-.001-.846-.334-.84-.819.004-.526.324-.835.863-.834m-6.708.622c-.157 0-.315.004-.472-.002-.098-.004-.227.034-.267-.1-.028-.094.038-.173.095-.245.31-.392 1.14-.366 1.38.044.101.17.114.3-.146.3-.197-.002-.393 0-.59 0v.003"/></g></g></svg>