<svg xmlns="http://www.w3.org/2000/svg" xmlns:xlink="http://www.w3.org/1999/xlink" width="80" height="80"><defs><circle id="lensmaster__a" cx="40" cy="40" r="40"/></defs><g fill="none" fill-rule="evenodd"><use fill="#0153A7" xlink:href="#lensmaster__a"/><g fill-rule="nonzero"><path fill="#E75C0E" d="M40.06 30a1.85 1.85 0 100 3.7 1.85 1.85 0 000-3.7m-4.9 1.54a1.85 1.85 0 100 3.7 1.85 1.85 0 000-3.7m-3.02 4.16a1.85 1.85 0 100 3.7 1.85 1.85 0 000-3.7M36.7 55a2.18 2.18 0 110-4.36 2.18 2.18 0 010 4.36m-12.68-3a2 2 0 110-4 2 2 0 010 4m6.53 1.35a2.18 2.18 0 112.17-2.17 2.17 2.17 0 01-2.17 2.17m9.51-3.04a1.86 1.86 0 111.85-1.85 1.85 1.85 0 01-1.85 1.85m-4.9-1.59a1.86 1.86 0 111.85-1.86 1.85 1.85 0 01-1.85 1.86m-3.02-4.17a1.85 1.85 0 110-3.7 1.85 1.85 0 010 3.7m-19.67 1.71a1.47 1.47 0 110-2.94 1.47 1.47 0 010 2.94m5.14 2.9a1.77 1.77 0 110-3.54 1.77 1.77 0 010 3.54m27.35-17.62a1.85 1.85 0 11-.02 3.7 1.85 1.85 0 01.02-3.7m3.02 4.16a1.85 1.85 0 110 3.7 1.85 1.85 0 010-3.7M43.41 55a2.18 2.18 0 10-2.17-2.18A2.19 2.19 0 0043.41 55m12.69-3a2 2 0 100-4 2 2 0 000 4m-6.53 1.35a2.18 2.18 0 10-2.18-2.17 2.17 2.17 0 002.18 2.17m-4.61-4.63a1.86 1.86 0 10-1.86-1.86 1.85 1.85 0 001.86 1.86m3.02-4.17a1.85 1.85 0 100-3.7 1.85 1.85 0 000 3.7m19.71 1.71a1.47 1.47 0 100-2.94 1.47 1.47 0 000 2.94m-5.22 2.9a1.77 1.77 0 100-3.54 1.77 1.77 0 000 3.54"/><path fill="#FFF" d="M27.27 38.05a2.08 2.08 0 110 4.16 2.08 2.08 0 010-4.16zm-5.45.27a1.81 1.81 0 110 3.62 1.81 1.81 0 010-3.62zm-9.19.4a1.41 1.41 0 110 2.82 1.41 1.41 0 010-2.82zm-4.32.1a1.31 1.31 0 110 2.62 1.31 1.31 0 010-2.62zM40.41 20a2.17 2.17 0 012.17 2.17A2.18 2.18 0 1140.41 20zm-3.36 5.23a2.17 2.17 0 012.18 2.17 2.18 2.18 0 11-2.18-2.17zm-12.68 3.04a2 2 0 110 4 2 2 0 010-4zm-1.87 5.16a1.88 1.88 0 110 3.76 1.88 1.88 0 010-3.76zm-2.93-7.99a2 2 0 110 4 2 2 0 010-4zM30.9 26.9a2.18 2.18 0 11-.02 4.36 2.18 2.18 0 01.02-4.36zm-2.61 5.38a2.12 2.12 0 110 4.24 2.12 2.12 0 010-4.24zm4.93-11.56a2.18 2.18 0 110 4.36 2.18 2.18 0 010-4.36zm-6.98 1.9a2.18 2.18 0 110 4.36 2.18 2.18 0 010-4.36zM12.82 34a1.47 1.47 0 110 2.94 1.47 1.47 0 010-2.94zm4.32 2.18a1.57 1.57 0 11-.02 3.14 1.57 1.57 0 01.02-3.14zm-8.83-3.34a1.3 1.3 0 011.31 1.3 1.31 1.31 0 11-1.31-1.3zm9.65-1.75a1.77 1.77 0 110 3.54 1.77 1.77 0 010-3.54zm-4.43-2.21a1.65 1.65 0 110 3.3 1.65 1.65 0 010-3.3zm26.88 31.37a2.17 2.17 0 110-4.34 2.17 2.17 0 010 4.34zM22.5 46.82A1.87 1.87 0 1124.38 45a1.87 1.87 0 01-1.88 1.87v-.05zm-2.93 7.99a2 2 0 110-4 2 2 0 010 4zM28.29 48a2.12 2.12 0 110-4.24 2.12 2.12 0 010 4.24zm4.93 11.53a2.18 2.18 0 112.18-2.17 2.17 2.17 0 01-2.18 2.17zm-6.98-1.9a2.18 2.18 0 112.18-2.17 2.17 2.17 0 01-2.18 2.17zm-9.1-13.56a1.57 1.57 0 11-.02-3.14 1.57 1.57 0 01.02 3.14zm-8.83 3.35a1.31 1.31 0 110-2.62 1.31 1.31 0 010 2.62zm5.22 3.96a1.66 1.66 0 111.65-1.66 1.65 1.65 0 01-1.65 1.66zm40.02-13.33a2.08 2.08 0 11.02 4.16 2.08 2.08 0 01-.02-4.16zm5.45.27a1.81 1.81 0 110 3.62 1.81 1.81 0 010-3.62zm9.19.4a1.41 1.41 0 11-1.37 1.41c0-.779.631-1.41 1.41-1.41h-.04zm4.32.1a1.31 1.31 0 110 2.62 1.31 1.31 0 010-2.62zM43.76 25.23a2.18 2.18 0 11.02 4.36 2.18 2.18 0 01-.02-4.36zm12.69 3.04a2 2 0 110 4 2 2 0 010-4zm1.86 5.16a1.88 1.88 0 11-1.87 1.88 1.87 1.87 0 011.87-1.88zm2.94-7.99a2 2 0 110 4 2 2 0 010-4zM49.92 26.9a2.18 2.18 0 110 4.36 2.18 2.18 0 010-4.36zm2.6 5.38a2.12 2.12 0 11.02 4.24 2.12 2.12 0 01-.02-4.24zm-4.93-11.56a2.18 2.18 0 11-2.17 2.18 2.19 2.19 0 012.17-2.18zm6.99 1.9a2.18 2.18 0 110 4.36 2.18 2.18 0 010-4.36zM68.04 34a1.47 1.47 0 110 2.94 1.47 1.47 0 010-2.94zm-4.36 2.18a1.57 1.57 0 110 3.14 1.57 1.57 0 010-3.14zm8.83-3.34a1.31 1.31 0 110 2.62 1.31 1.31 0 010-2.62zm-9.69-1.75a1.77 1.77 0 110 3.54 1.77 1.77 0 010-3.54zm4.47-2.21a1.65 1.65 0 110 3.3 1.65 1.65 0 010-3.3zm-8.98 17.94v.05A1.87 1.87 0 0156.44 45a1.87 1.87 0 111.87 1.82zm2.94 7.99a2 2 0 110-4 2 2 0 010 4zM52.52 48a2.12 2.12 0 11.02-4.24 2.12 2.12 0 01-.02 4.24zm-4.93 11.53a2.18 2.18 0 11.02-4.36 2.18 2.18 0 01-.02 4.36zm6.99-1.9a2.17 2.17 0 01-2.18-2.17 2.18 2.18 0 112.18 2.17zm9.1-13.56a1.57 1.57 0 110-3.14 1.57 1.57 0 010 3.14zm8.83 3.35a1.31 1.31 0 110-2.62 1.31 1.31 0 010 2.62zm-5.22 3.96a1.65 1.65 0 01-1.65-1.66 1.66 1.66 0 111.65 1.66z"/></g></g></svg>