<svg xmlns="http://www.w3.org/2000/svg" width="60" height="60"><g fill="none" fill-rule="evenodd"><path fill="#9A2E9B" d="M30 60c16.569 0 30-13.431 30-30C60 13.431 46.569 0 30 0 13.431 0 0 13.431 0 30c0 16.569 13.431 30 30 30z"/><path fill="#FFF" d="M10.506 25.043c.126-.244.27-.552.442-.842 1.745-2.93 4.406-3.914 7.69-2.953 1.87.549 3.246 1.649 4.218 3.311.77 1.322 1.635 2.663 2.957 3.488.94.586 1.758.972 2.807 1.307 1.456.463 2.877.104 4.211-.875 1.63-1.197 2.794-2.896 3.669-4.775 1.616-3.622 1.862-7.347.652-11.148-.153-.482-.37-.944-.582-1.475a6.763 6.763 0 013.071.564c1.536.662 2.695 1.792 3.76 3.04 2.068 2.42 3.127 5.261 3.468 8.392.327 2.988-.253 5.787-1.845 8.36a6.612 6.612 0 00-.983 3.931c.022.387-.105.654-.36.92-1.49 1.567-3.365 2.232-5.468 2.316-2.942.118-5.65-.735-8.197-2.134-3.295-1.81-5.92-4.302-7.747-7.632a13.323 13.323 0 00-1.878-2.626c-1.643-1.771-3.681-2.199-5.939-1.373-.911.33-1.772.806-2.648 1.213l-1.298-1.009zm33.566 11.25c.73 4.098 3.162 7.228 5.861 10.334a2.526 2.526 0 01-.356-.126 7.066 7.066 0 00-3.623-.958c-.283 0-.426-.084-.533-.354-1.364-3.464-4.535-4.998-8.055-4.784-1.737.106-3.355.659-5 1.142-2.576.759-5.15.858-7.71-.1-1.794-.671-3.336-1.745-4.71-3.05-1.156-1.1-2.235-2.281-3.343-3.428a1.38 1.38 0 01-.123-.204c2.847-.334 5.213-1.412 6.644-4.122.127.158.225.272.318.394 3.001 3.92 6.875 6.492 11.718 7.508 2.078.436 4.156.406 6.17-.409a6.885 6.885 0 002.35-1.57 2.29 2.29 0 00.243-.38l.15.108zm-20.78-11.41c.675.261 1.332.615 2.032.768 1.582.346 2.96-.23 4.214-1.159 1.795-1.33 2.687-3.19 3.095-5.342.312-1.64.458-3.283.197-4.944 0-.059.008-.117.02-.174.77-.023 1.47.219 2.14.555 1.25.629 2.102 1.635 2.648 2.912a.87.87 0 01.074.393c-.279 3.558-1.398 6.778-3.868 9.426-.952 1.02-2.073 1.811-3.502 1.988a3.962 3.962 0 01-1.558-.106c-2.404-.708-4.305-2.09-5.491-4.317zm-6.985-.252c1.988-.007 3.351.846 4.38 2.184.83 1.081 1.495 2.294 2.208 3.457.067.11.006.347-.068.486-1.01 1.91-2.65 2.997-4.69 3.523-1.752.452-1.737.412-2.997-.892-1.084-1.126-2.225-2.203-3.35-3.293-.18-.173-.27-.3-.157-.573.41-.971.692-1.965.316-3.027-.027-.074.05-.238.125-.286 1.364-.864 2.791-1.55 4.233-1.579zm.535 4.823a1.246 1.246 0 001.281-1.28 1.28 1.28 0 00-1.281-1.294 1.254 1.254 0 00-1.273 1.295c-.001.744.532 1.28 1.273 1.279zM6.053 26.755c.124-.064.251-.121.382-.172 1.241-.41 2.482-.82 3.73-1.21a.78.78 0 01.508.06c.988.453 1.445 1.466 1.184 2.633-1.772-1.148-3.8-1.083-5.804-1.31zm-.016.385c.032-.028.053-.063.074-.063 1.553 0 3.095.09 4.582.602.028.01.055.022.082.036 1.234.581 1.222.651.614 1.835l-5.352-2.41z"/></g></svg>