<svg xmlns="http://www.w3.org/2000/svg" width="41" height="40" fill="none"><circle cx="20.5" cy="20" r="20" fill="#231F20"/><path fill="#fff" fill-rule="evenodd" d="M1.5 20c0 10.475 8.525 19 19 19s19-8.525 19-19-8.525-19-19-19-19 8.525-19 19zm1.229 0c0-9.804 7.967-17.771 17.771-17.771 9.804 0 17.771 7.967 17.771 17.771 0 9.804-7.967 17.771-17.771 17.771-9.804 0-17.771-7.967-17.771-17.771zm8.879-3.37c0-3.369 1.837-5.205 3.99-5.205 1.897 0 2.359.236 4.113 1.132.237.12.498.254.789.4 2.445 1.229 3.065 1.533 4.294 1.533 1.229 0 1.837-.925 1.837-2.761h2.14c.304 3.673-1.836 5.206-3.99 5.206-2.153 0-2.761-.304-4.902-1.533-2.14-1.229-2.761-1.533-3.99-1.533-1.228 0-1.836.925-2.14 3.066l-2.141-.304zm9.817 1.23v13.173h-2.458V16.935l2.458.924z" clip-rule="evenodd"/></svg>