<svg xmlns="http://www.w3.org/2000/svg" viewBox="0 0 40 40"><g data-name="лого игры"><circle cx="20" cy="20" r="20" fill="#315791"/><path fill="#fff" d="M7.68 28.21c1.6-.63 3-1.17 4.4-1.76a24.72 24.72 0 007.48-4.39A13.35 13.35 0 0023.21 17c1.25-3.36-.71-6.15-4.29-6.13a8.3 8.3 0 00-8.19 8A5.45 5.45 0 0012.67 23c.5.46 1.06.87 1.79 1.46l-3.14 1.37a7.84 7.84 0 01-3.71-4.81 7.16 7.16 0 010-3.62 11.54 11.54 0 0112.11-8.35 5.7 5.7 0 014.87 7.36 13.48 13.48 0 01-5.84 7.41 39.18 39.18 0 01-10.53 4.43 2 2 0 01-.54-.04zm22.39-1.8c0-2 .6-3 1.9-3.33a2.53 2.53 0 012.79 1.33 2.47 2.47 0 01-.69 3c-1.1.88-2.22.72-3.84-.6a21.67 21.67 0 01-16.49.58c1.65-1.05 3-1.82 4.94-1 3.73 1.49 7.55 1.07 11.39.02z"/></g></svg>