<svg xmlns="http://www.w3.org/2000/svg" xmlns:xlink="http://www.w3.org/1999/xlink" width="80" height="80"><defs><circle id="tom-tailor-online__a" cx="40" cy="40" r="40"/></defs><g fill="none" fill-rule="evenodd"><use fill="#003176" xlink:href="#tom-tailor-online__a"/><path fill="#FFF" fill-rule="nonzero" d="M64.242 31.676C57.298 28.264 48.586 27 40 27s-17.172 1.264-24.116 4.676c-.505.253-.884.632-.884 1.138v8.467c0 .632.126.885.758.632 3.535-1.137 7.954-2.148 11.237-2.528.505-.126.758.127.758.632v11.248c0 .38.252.632.505.759 2.525.758 7.702 1.643 11.742 1.643 4.04 0 9.217-.885 11.742-1.643.253-.127.505-.38.505-.759V40.017c0-.505.38-.758.758-.632 3.283.38 7.702 1.39 11.237 2.528.505.126.758-.126.758-.632v-8.467c0-.506-.379-.885-.758-1.138"/></g></svg>