<svg xmlns="http://www.w3.org/2000/svg" xmlns:xlink="http://www.w3.org/1999/xlink" width="60" height="60"><defs><path id="nur__a" d="M27.05.193H0v30.019h27.05V.192z"/></defs><g fill="none" fill-rule="evenodd"><path fill="#BB1877" d="M30 0c16.569 0 30 13.432 30 29.995v.01C60 46.571 46.572 60 30 60 13.431 60 0 46.572 0 30 0 13.431 13.428 0 30 0z"/><g transform="translate(16 17.631)"><mask id="nur__b" fill="#fff"><use xlink:href="#nur__a"/></mask><path fill="#FFF" d="M22.913 19.422v-1.417a.514.514 0 00-.504-.516c-.53-.005-1.035-.014-1.535.027-.161.013-.41.286-.432.463-.065.51-.102 1.106-.071 1.434.03.321.26.587.57.658.316.073.817.008 1.332 0h.012a.644.644 0 00.628-.65m-.137-3.435c.022-.364.058-.75.069-1.135.08-2.905.167-5.81.216-8.715.004-.212-.253-.598-.415-.613-.542-.05-1.089-.041-1.666-.034a.621.621 0 00-.609.626c0 .105 0 .205.003.305.062 2.62.138 5.24.185 7.86.038 2.041 2.094 1.785 2.217 1.706m-4.112-3.593c-.06-2.396-1.059-4.79-3.585-6.169-2.479-1.352-5.087-1.302-7.538.177-2.434 1.47-3.758 4.789-3.204 7.712.413 2.182 1.34 4.064 3.324 5.163 4.57 2.532 10.877.29 11.003-6.883M27.049.213v25.245c-.306-.012-.612-.034-.918-.034-4.89-.002-9.78-.001-14.67-.001h-.91l1.231-2.267-.13-.081-7.143 7.137v-4.754H0V.212c.305-.026 26.746-.026 27.05 0" mask="url(#nur__b)"/></g><path fill="#FFF" d="M27.471 35.106c-2.488.003-4.315-1.952-4.34-4.641-.024-2.765 1.76-4.68 4.35-4.673 2.527.008 4.297 1.922 4.292 4.643-.004 2.708-1.809 4.667-4.302 4.67"/></g></svg>