<svg xmlns="http://www.w3.org/2000/svg" xmlns:xlink="http://www.w3.org/1999/xlink" width="80" height="80"><defs><circle id="automiracle__a" cx="40" cy="40" r="40"/></defs><g fill="none" fill-rule="evenodd"><use fill="#F3F3F3" xlink:href="#automiracle__a"/><g transform="translate(8 8)"><circle cx="32.211" cy="32.211" r="31.789" stroke="#144733" stroke-width="5"/><g fill="#144733"><path d="M46.033 21.675a214.12 214.12 0 014.35-.003c.42 1.407.755 2.81 1.134 4.202.382 1.397.744 2.797 1.115 4.193.363 1.383.729 2.764 1.093 4.145.372 1.398.746 2.796 1.11 4.195.364 1.393.753 2.783 1.1 4.2-.134.033-.204.062-.27.062-1.689.004-3.378.004-5.097.004-.069-.215-.142-.401-.192-.595-.536-1.97-1.068-3.94-1.601-5.91-.15-.554-.298-1.11-.45-1.667-.024-.083-.066-.163-.099-.245-.16.012-.13.13-.153.204-.593 2.262-1.185 4.523-1.78 6.782-.12.466-.248.928-.376 1.405-.56.085-1.095.03-1.628.04-.54.012-1.077.003-1.616.003h-1.616c-.127-.173-.159-.353-.206-.529-.66-2.495-1.323-4.984-1.988-7.479-.043-.156-.097-.314-.163-.523-.135.2-.164.377-.208.546-.661 2.513-1.322 5.024-1.985 7.536-.038.14-.085.281-.136.448-1.665.015-3.313-.012-4.964-.037-.108-.002-.215-.028-.29-.04-.035-.05-.05-.063-.055-.078a.093.093 0 01-.002-.056c1.79-6.874 3.58-13.748 5.374-20.627.014-.05.051-.095.099-.18.347-.036.715-.014 1.08-.018.355-.003.708 0 1.06 0h2.162c.145.217.172.44.23.651l2.218 8.336c.037.138.03.297.22.39.84-3.1 1.674-6.196 2.53-9.355z"/><path fill-rule="nonzero" d="M19.368 29.262c-.037.053-.075.09-.093.133a754.69 754.69 0 00-1.5 3.89c-.03.075-.014.165-.02.245.069.016.106.033.142.033 1.02-.009 2.039-.02 3.059-.038.082-.002.165-.048.284-.085-.572-1.382-1.16-2.719-1.745-4.055-.021-.05-.075-.075-.127-.123zM15.74 38.49c-.596 1.417-1.1 2.83-1.693 4.23-1.858-.006-3.685.048-5.561.048.034-.142.041-.212.066-.277 2.698-6.929 5.4-13.857 8.094-20.763.465-.07 4.944-.082 5.535-.014 2.69 6.83 5.381 13.683 8.073 20.536.047.12.077.243.106.339-.026.049-.032.067-.044.077a.097.097 0 01-.053.017c-1.781.003-3.562.003-5.332.003-.178-.126-.207-.322-.274-.491-.415-1.033-.822-2.067-1.234-3.102-.075-.188-.156-.377-.22-.53-.047-.038-.057-.05-.073-.06-.016-.007-.034-.017-.052-.017-2.321-.004-4.642-.012-6.962-.016-.11.002-.22.012-.376.02z"/></g></g></g></svg>