<svg xmlns="http://www.w3.org/2000/svg" viewBox="0 0 40 40"><g data-name="лого игры"><circle cx="20" cy="20" r="20" fill="#3555a7"/><path fill="#fff" d="M23.74 6.64a9.73 9.73 0 01.09 3.24.94.94 0 01-.84.88l-1 .09a9.27 9.27 0 00-8.76 9.39 9.17 9.17 0 009.7 8.94 7.19 7.19 0 006.57-4.91 7 7 0 00-1.7-7.84 7.18 7.18 0 00-8-1.74 5.28 5.28 0 00-1 .46 6.59 6.59 0 00-.65.55l1 1.19a6.48 6.48 0 015.39-.46A5.67 5.67 0 0128 23a5.61 5.61 0 01-5.35 4.34 7.09 7.09 0 01-5.89-2.78.77.77 0 01.1-1.06l2.22-1.88a.76.76 0 011 .06c.75.8 1.85 1.65 3.47.27l-1.64-.39a1 1 0 01-.75-.9v-.46a1.14 1.14 0 01.76-1.2 2.17 2.17 0 012.47.47 2.54 2.54 0 01.51 2.94A2.73 2.73 0 0122.21 24a4.77 4.77 0 01-2.81-.9l-1 .82a3.64 3.64 0 002.76 1.8 4.32 4.32 0 004.9-1.95 4 4 0 00-.53-4.92c-1.43-1.57-3-1.7-6.19-.33a.79.79 0 01-.85-.17l-2.03-2.15a.76.76 0 01-.07-1A6.22 6.22 0 0120.3 13a8.72 8.72 0 019.09 3 8.48 8.48 0 011.15 9.32 8.22 8.22 0 01-7.8 5.18A10.37 10.37 0 0112 21.3a10.5 10.5 0 017.86-11.49c.84-.22 1.72-.29 2.69-.45V7.65a11.62 11.62 0 00-8.47 3.09A12.32 12.32 0 0010.62 24a12 12 0 0010.6 8.42c.64.07 1.27.16 1.93.26a.57.57 0 01.38.92c-.35.46-1 .35-1.46.33a13.87 13.87 0 01-2-27.52c.26 0 1.8-.28 2.82-.36a.82.82 0 01.85.59z"/></g></svg>