<svg xmlns="http://www.w3.org/2000/svg" width="41" height="40" fill="none"><path fill="#1F76D1" fill-rule="evenodd" d="M20 40c11.046 0 20-8.954 20-20S31.046 0 20 0 0 8.954 0 20s8.954 20 20 20z" clip-rule="evenodd"/><path fill="#fff" fill-rule="evenodd" d="M16.996 20.832c0 .658.404 1.163 1.033 1.163.628 0 1.038-.505 1.038-1.163 0-.663-.41-1.163-1.038-1.163-.629 0-1.033.5-1.033 1.163zm-.746 0c0-1.067.752-1.832 1.779-1.832 1.032 0 1.784.765 1.784 1.832 0 1.067-.752 1.832-1.784 1.832-1.027 0-1.779-.765-1.779-1.832zm-9.326-1.736h.89l-1.348 1.675 1.44 1.893h-.89l-1.029-1.428-.264.332v1.096H5v-3.568h.723v1.595l1.201-1.595zm2.375 0v2.306l1.6-2.306h.757v3.568h-.735v-2.39l-1.649 2.39h-.71v-3.568H9.3zm5.557 1.402h-1.624v-1.402H12.5v3.568h.732v-1.498h1.624v1.498h.738v-3.568h-.738v1.402zm5.8 2.166h.434v-3.172h2.038v3.172h.434v-3.568h-2.906v3.568zm3.657-.303c.411 0 .642-.237.786-1.457l.21-1.808h2.097v3.6h-.426v-3.2h-1.29l-.17 1.44c-.185 1.582-.596 1.825-1.207 1.825v-.4zm4.663-.884l.727-1.92.723 1.92h-1.45zm.988-2.38h-.527l-1.374 3.567h.487l.302-.79h1.702l.302.79h.488l-1.38-3.568zm2.563 1.535h2.039v-1.536H35v3.568h-.434v-1.637h-2.039v1.637h-.433v-3.568h.433v1.536z" clip-rule="evenodd"/></svg>