<svg xmlns="http://www.w3.org/2000/svg" xmlns:xlink="http://www.w3.org/1999/xlink" width="40" height="40"><defs><path id="riotzone__a" d="M.255.303H4.37V7.5H.255z"/></defs><g fill="none" fill-rule="evenodd"><path fill="#CA2E2A" fill-rule="nonzero" d="M20 0c11.046 0 20 8.955 20 19.997v.006C40 31.047 31.048 40 20 40 8.954 40 0 31.048 0 20 0 8.954 8.952 0 20 0z"/><g transform="translate(23 16.454)"><mask id="riotzone__b" fill="#fff"><use xlink:href="#riotzone__a"/></mask><path fill="#FFF" d="M2.33 6.201l.085-.062c.033-.176.09-.351.092-.526.008-1.148.003-2.295.004-3.443a.816.816 0 00-.194-.554c-.188.158-.202.36-.2.572.002 1.16 0 2.32 0 3.48.002.105-.008.217.028.308.034.087.122.15.185.225zm-.58 1.3c-.261-.132-.532-.243-.777-.398-.41-.258-.616-.684-.638-1.154a91.5 91.5 0 01-.08-3.396 3.701 3.701 0 01.09-.884C.512.96.991.548 1.647.388c.633-.153 1.26-.11 1.854.215.516.28.752.768.79 1.317.068.999.08 2.003.08 3.004 0 .434-.049.877-.145 1.3-.152.667-.621 1.024-1.24 1.194-.039.01-.071.055-.106.082H1.75z" mask="url(#riotzone__b)"/></g><path fill="#FFF" d="M7.02 19.622c.253-.416.247-1.089-.014-1.47H6.67v1.525l.35-.055zM5 17.044c.702.003 1.405-.001 2.107.013.247.005.5.027.74.084.483.115.74.5.803.962.072.521.106 1.061-.044 1.584-.029.097-.08.187-.125.294-.193.077-.387.155-.629.25.131.052.228.09.324.126.333.129.495.409.502.749.02.847.007 1.696.007 2.575h-1.46c-.011-.14-.029-.263-.029-.388-.002-.667.002-1.334-.005-2-.002-.162-.048-.324-.074-.492l-.46-.204v3.099L5 23.718v-6.674zm30 6.674c-.095.024-.19.067-.286.067-.878.005-1.757.003-2.636 0-.059 0-.118-.023-.2-.04-.013-.11-.034-.21-.034-.31-.001-2.025-.004-4.053.003-6.08.002-.15.072-.302.107-.443h2.859v1.524h-1.08v1.116h1.02v1.409h-1.022v1.352c.288 0 .56-.007.833.004.145.005.29.044.436.066v1.335zm-7.287-6.811h1.493l.764 2.38.069-.013v-2.362c.522-.028 1.011-.018 1.53-.008v6.853h-1.61l-.626-2.108-.068.004v2.128c-.553.013-1.06.008-1.553.002-.127-.349-.124-6.56.001-6.876M13.46 17.998c-.038.258-.095.482-.098.707-.01 1.084-.007 2.168 0 3.251 0 .242.042.482.071.784.177-.012.316-.024.451-.032.036-.302.088-.543.09-.785.01-1.084.01-2.168 0-3.25-.003-.224-.068-.445-.105-.675h-.41zm2.16 2.36c0 .327.01.655-.003.98-.014.39-.008.786-.085 1.162-.137.668-.505 1.088-1.196 1.279a2.324 2.324 0 01-1.833-.235c-.437-.248-.657-.639-.7-1.116-.063-.673-.068-1.352-.085-2.028-.01-.471-.014-.942.004-1.412.01-.283.046-.57.113-.842.165-.665.599-1.036 1.238-1.182.645-.145 1.264-.111 1.827.262.418.278.634.69.649 1.223.018.636.068 1.271.104 1.907l-.033.002zm6.195 1.968h1.255c.02.48.015.928.004 1.366-.271.119-2.158.157-3.282.075.002-.469-.065-.939.076-1.408.372-1.235.736-2.47 1.102-3.707.014-.048.008-.101.012-.196h-.957c-.153-.272-.077-.524-.09-.764-.012-.246-.001-.494-.001-.768h3.042c.027.058.097.137.096.214-.008.49.064.98-.094 1.466-.394 1.214-.763 2.438-1.163 3.722m-3.188-4.018v5.369h-1.616v-5.339c-.346-.018-.65-.036-.995-.056v-1.207h3.576v1.233h-.965zm-9.087-.535l.152-.146h1.152c.036.632.056 1.259.457 1.727-.018.614-.042 1.197-.05 1.779-.01.589-.003 1.176-.003 1.785l-.21.361c.067.087.136.174.208.269-.018.034-.028.084-.053.094a.707.707 0 01-.243.065c-.562.005-1.125.002-1.758.002l.168-.507-.206-.368c0-1.086-.002-2.21.004-3.333 0-.112.014-.25.078-.33.28-.358.332-.768.296-1.205-.004-.052.005-.104.008-.193m1.187-.529H9.713c-.077-.623.084-1.19.24-1.748.045-.162.035-.433.34-.495.326.697.454 1.436.434 2.243"/></g></svg>