<svg xmlns="http://www.w3.org/2000/svg" width="41" height="40" fill="none"><path fill="#232323" fill-rule="evenodd" d="M20.5 40c11.046 0 20-8.954 20-20s-8.954-20-20-20S.5 8.954.5 20s8.954 20 20 20z" clip-rule="evenodd"/><path fill="#fff" d="M29.128 22.676L28.9 22.1h-1.141l-.217.576h-.775l1.237-2.937h.692l1.224 2.937h-.791zm-.791-2.153l-.375 1.008h.741l-.366-1.008zm-1.687 1.045c0 .177-.03.338-.09.484a1.05 1.05 0 01-.256.373 1.18 1.18 0 01-.402.243 1.493 1.493 0 01-.523.087c-.194 0-.37-.029-.525-.087a1.14 1.14 0 01-.395-.243 1.054 1.054 0 01-.25-.373 1.286 1.286 0 01-.088-.484v-1.83h.709v1.773c0 .08.01.156.03.227a.58.58 0 00.097.194.45.45 0 00.17.134.6.6 0 00.257.05c.1 0 .185-.017.256-.05a.468.468 0 00.173-.134.537.537 0 00.096-.194.872.872 0 00.029-.227v-1.773h.712v1.83zm-2.923.93c-.161.08-.33.142-.506.182a2.66 2.66 0 01-.631.07c-.236 0-.454-.036-.652-.111a1.438 1.438 0 01-.848-.803c-.08-.19-.12-.4-.12-.633 0-.235.04-.448.122-.639.078-.184.194-.35.34-.487.147-.136.32-.241.508-.31a1.8 1.8 0 01.629-.107c.233 0 .45.035.65.105.2.071.362.166.487.285l-.45.51a.78.78 0 00-.275-.197.938.938 0 00-.387-.077.832.832 0 00-.802.55 1.15 1.15 0 00-.006.74.786.786 0 00.456.483c.113.047.24.07.385.07.083 0 .163-.007.238-.019a.908.908 0 00.208-.06v-.535h-.563v-.573h1.217v1.556zM35.5 21.199c0 .257-.048.48-.144.666-.09.18-.22.338-.379.46a1.583 1.583 0 01-.53.266 2.16 2.16 0 01-.6.085h-1.1V19.74h1.066c.208 0 .414.024.616.072.203.049.384.129.542.24.158.113.286.263.383.451a1.5 1.5 0 01.146.697zm-.742 0a.927.927 0 00-.08-.413.697.697 0 00-.217-.261.872.872 0 00-.309-.14 1.524 1.524 0 00-.356-.04h-.354v1.717h.337c.128 0 .251-.014.37-.043a.875.875 0 00.312-.144.71.71 0 00.216-.265.93.93 0 00.081-.41zm-14.101 0c0 .257-.048.48-.144.666-.09.18-.22.338-.379.46a1.583 1.583 0 01-.53.266 2.16 2.16 0 01-.6.085h-1.1V19.74h1.066c.208 0 .414.024.616.072.203.049.384.129.542.24.158.113.286.263.383.451.097.188.146.42.146.697zm-.742 0a.926.926 0 00-.08-.413.696.696 0 00-.217-.261.87.87 0 00-.308-.14 1.521 1.521 0 00-.357-.04H18.6v1.717h.337c.128 0 .251-.014.37-.043a.875.875 0 00.312-.144.709.709 0 00.216-.265.93.93 0 00.081-.41zm-3.028 1.477l-.229-.576h-1.141l-.217.576h-.775l1.237-2.937h.692l1.224 2.937h-.791zm-.791-2.153l-.375 1.008h.741l-.366-1.008zm15.627 2.153l-.637-1.165h-.242v1.165h-.7V19.74h1.125c.14 0 .278.014.415.043.134.03.255.078.362.147a.775.775 0 01.256.274.851.851 0 01.096.424c0 .199-.054.366-.162.502a.889.889 0 01-.45.29l.77 1.257h-.833zm-.029-2.037a.294.294 0 00-.043-.168.3.3 0 00-.113-.1.489.489 0 00-.154-.047 1.15 1.15 0 00-.165-.013h-.379v.685h.338c.058 0 .117-.005.179-.015a.57.57 0 00.166-.052c.05-.024.091-.06.123-.107a.318.318 0 00.048-.183z"/><path fill="#68BC71" d="M8.73 18c-1.01 0-2.227.238-3.23.76 0 1.129-.014 3.94 3.23 5.862 3.245-1.921 3.23-4.733 3.23-5.862-1.002-.523-2.22-.76-3.23-.76z"/><path fill="#67B279" d="M8.727 24.62C5.487 22.7 5.5 19.888 5.5 18.76c1.002-.522 2.218-.76 3.227-.76v6.62z"/><path fill="#232323" d="M8.613 22.419l1.953-2.633c-.143-.115-.269-.034-.338.029h-.002l-1.63 1.694-.613-.738c-.293-.338-.69-.08-.784-.012l1.414 1.66"/></svg>