<svg xmlns="http://www.w3.org/2000/svg" xmlns:xlink="http://www.w3.org/1999/xlink" width="60" height="60"><defs><path id="parapa__a" d="M30 60c16.569 0 30-13.431 30-30C60 13.431 46.569 0 30 0 13.431 0 0 13.431 0 30c0 16.569 13.431 30 30 30z"/></defs><g fill="none" fill-rule="evenodd"><mask id="parapa__b" fill="#fff"><use xlink:href="#parapa__a"/></mask><use fill="#FA205E" xlink:href="#parapa__a"/><g fill="#FFF" mask="url(#parapa__b)"><path d="M38.174 20.573c.029-1.181.513-1.568 1.658-1.571 1.613-.006 3.225 0 4.837.03 1.025.017 1.493.5 1.43 1.536-.287 4.715-.587 9.43-.912 14.142-.075 1.079-.743 1.625-1.74 1.563-.898-.056-1.294-.591-1.224-1.73.23-3.758.473-7.515.712-11.273.036-.564.281-1.236-.67-1.247-.808-.01-1.239.307-1.239 1.214 0 3.699-.04 7.397-.06 11.096-.005.862-.224 1.555-1.161 1.788-1.08.27-1.816-.244-1.83-1.375-.029-2.26.139-11.71.199-14.173M15.913 30.667c0 2.329.01 4.658-.005 6.987-.008 1.106-.567 1.695-1.568 1.728-.859.028-1.347-.5-1.35-1.515-.009-3.562-.005-7.124-.007-10.686 0-.308.007-.616-.003-.924-.018-.522.012-1.08-.762-1.037-.728.04-1.252.28-1.199 1.155.083 1.366.167 2.733.246 4.1.138 2.391.271 4.783.409 7.175.044.768-.08 1.448-.883 1.77-1.125.453-1.989-.085-2.078-1.386-.195-2.834-.34-5.672-.49-8.509a182.57 182.57 0 01-.221-5.334c-.031-1.321.358-1.743 1.612-1.834 1.573-.116 3.147-.217 4.723-.298 1.054-.055 1.565.429 1.574 1.518.019 2.363.006 4.727.006 7.09h-.004m17.055 1.581l.337.009v-3.359c-.09 1.119-.682 2.208-.337 3.35m3.46 5.552c-.22.214-.552.768-1.016.93-.704.246-1.35-.135-1.581-.888-.188-.611-.18-1.283-.34-1.906-.083-.323-.343-.598-.523-.895-.201.272-.496.516-.585.822-.191.651-.26 1.339-.408 2.005-.208.94-.884 1.478-1.64 1.26-.865-.25-.953-.918-.809-1.714.626-3.461 1.22-6.928 1.852-10.388.256-1.404.828-1.754 2.503-1.645 1.062.07 1.45.522 1.57 1.833.315 3.403.63 6.807.978 10.586m12.702-11.572l-.278 3.208c.855-.477.855-.477.278-3.208zm.149 5.786c-.166.4-.4.784-.48 1.2-.117.6-.104 1.225-.18 1.836-.103.832-.47 1.496-1.397 1.403-.915-.092-1.183-.777-1.106-1.64.234-2.621.463-5.243.698-7.864.082-.92.156-1.84.267-2.756.127-1.058.574-1.453 1.575-1.455 2.17-.004 2.427.22 2.719 2.455.39 2.982.77 5.965 1.149 8.948.034.27.139.626.017.802-.298.433-.682 1.05-1.083 1.092-.406.043-1.02-.421-1.272-.835-.257-.424-.175-1.058-.257-1.598-.08-.515-.18-1.026-.27-1.54l-.38-.048zm-29.302-3.74l-.196.013c-.103.935-.243 1.868-.285 2.805-.013.285.247.582.382.874.16-.294.47-.597.454-.88-.055-.942-.227-1.875-.355-2.812m-.057 5.868c-.16.442-.382.873-.468 1.33-.125.67-.114 1.366-.234 2.037-.133.747-.633 1.14-1.374 1.051-.702-.085-1.08-.578-1.034-1.286.124-1.913.284-3.824.447-5.734.145-1.706.292-3.412.477-5.113.126-1.162.563-1.569 1.574-1.594 1.845-.044 2.475.311 2.655 1.632.32 2.34.583 4.687.873 7.031.122.985.268 1.967.374 2.954.113 1.066-.284 1.68-1.084 1.744-.818.065-1.3-.43-1.434-1.491-.105-.827-.198-1.654-.296-2.482l-.476-.08m6.527-7.154l.402 3.981c1.078-1.662.946-3.1-.402-3.981m3.733 2.304c-.078 1.53-.838 3.088-2.6 3.988-.496.253-.69.53-.663 1.089.043.887.031 1.779.004 2.668-.029.942-.62 1.593-1.408 1.533-.872-.067-1.16-.639-1.185-1.476-.106-3.486-.246-6.97-.364-10.456-.068-1.995.643-2.605 2.57-2.23 2.512.49 3.654 1.887 3.646 4.884"/></g></g></svg>