<svg xmlns="http://www.w3.org/2000/svg" width="41" height="40" fill="none"><path fill="#000" fill-rule="evenodd" d="M20 40c11.046 0 20-8.954 20-20S31.046 0 20 0 0 8.954 0 20s8.954 20 20 20z" clip-rule="evenodd"/><path fill="#fff" fill-rule="evenodd" d="M22.547 10l6.638 11.504H24.04l-5.31-9.263L22.547 10zm-6.86 11.505l-2.048-3.513-3.817 2.217.72 1.296h5.145zm16.206 3.342c-.197-.047-.41-.08-.615-.111-.548-.084-1.045-.16-1.045-.486.056-.324.331-.398.775-.398.664 0 .72.375.72.598h1.105c-.054-.872-.773-1.445-1.88-1.445-1.161 0-1.827.623-1.827 1.42 0 .447.223.871.609 1.071.278.124.664.225 1.162.297l.156.025c.385.061.736.117.784.424 0 .225-.276.523-.774.523-.72-.024-.885-.422-.885-.72h-1.162c.055.895.776 1.517 1.992 1.517 1.107 0 1.992-.422 1.992-1.518 0-.6-.443-1.022-1.107-1.197zm-14.598-1.85h1.1v4.433h-1.1v-4.433zm-6.7.413c-.387-.272-.83-.398-1.329-.398A2.278 2.278 0 007 25.28c0 1.269 1.05 2.29 2.266 2.29.499 0 .997-.125 1.328-.374v.274h1.108v-4.407h-1.108v.348zM9.32 26.547c-.662 0-1.27-.572-1.27-1.269 0-.671.608-1.269 1.27-1.269.722 0 1.273.598 1.273 1.27 0 .696-.551 1.268-1.273 1.268zm6.365-3.137c-.388-.272-.831-.398-1.328-.398a2.243 2.243 0 00-2.268 2.266c0 1.27.995 2.291 2.268 2.291.497 0 .94-.125 1.328-.374v.273h1.106v-5.924h-1.106v1.866zm-1.273 3.137c-.719 0-1.273-.572-1.273-1.269 0-.671.554-1.269 1.273-1.269.663 0 1.273.598 1.273 1.27 0 .696-.61 1.268-1.273 1.268zm-.109-10.297l3.872-2.19 4.26 7.444h-4.04V22.6h-1.105v-1.096l-2.987-5.254zm17.978 6.384c.331 0 .554-.25.554-.548a.538.538 0 00-.554-.548c-.277 0-.553.249-.553.548 0 .299.276.548.553.548zm0-1.02c.276 0 .442.222.442.472 0 .249-.166.473-.442.473-.277 0-.443-.224-.443-.473 0-.25.166-.472.443-.472zm.003.523h-.11v.25h-.084v-.598h.25c.055 0 .165.076.165.175a.177.177 0 01-.11.173l.11.25h-.11l-.11-.25zm0-.272h-.11v.198h.11c.11 0 .11-.025.11-.1 0-.05 0-.098-.11-.098zM27.52 23.41c-.386-.272-.83-.398-1.328-.398a2.243 2.243 0 00-2.266 2.267c0 1.269.995 2.29 2.266 2.29.499 0 .942-.125 1.328-.374v.274h1.052v-4.407H27.52v.348zm-1.27 3.137c-.72 0-1.274-.572-1.274-1.269 0-.671.554-1.269 1.273-1.269.664 0 1.271.598 1.271 1.27 0 .696-.607 1.268-1.27 1.268zm-5.086-3.535c.496 0 .94.126 1.273.398v-1.866h1.105v5.924h-1.105v-.273c-.334.249-.777.374-1.273.374-1.273 0-2.324-1.021-2.324-2.29 0-1.27 1.05-2.267 2.324-2.267zm-1.273 2.266c0 .697.608 1.27 1.273 1.27.719 0 1.273-.573 1.273-1.27a1.28 1.28 0 00-1.273-1.269c-.664 0-1.273.598-1.273 1.27z" clip-rule="evenodd"/></svg>