<svg xmlns="http://www.w3.org/2000/svg" width="41" height="40" fill="none"><path fill="#005799" fill-rule="evenodd" d="M20 40c11.046 0 20-8.954 20-20S31.046 0 20 0 0 8.954 0 20s8.954 20 20 20z" clip-rule="evenodd"/><path fill="#F7AA47" fill-rule="evenodd" d="M7.043 20.432h.603c.07-1.323.951-2.137 2.347-2.252v-.627c-.279 0-.967.174-1.252.3-1.13.532-1.626 1.316-1.698 2.58zm2.95-1.506c-1.052.103-1.495.58-1.597 1.505h-.632c.1-1.223.883-2.016 2.234-2.126l-.005.62zm.016.713c-.558.009-.819.305-.896.793h-.611c.103-.854.611-1.354 1.5-1.38l.007.587z" clip-rule="evenodd"/><path fill="#fff" fill-rule="evenodd" d="M9.844 17.408a3.243 3.243 0 00-.76-.302c-2.459-.63-4.64 1.665-3.958 4.06.13.455.324.802.61 1.156a1.71 1.71 0 00.86-.119c.21-.086.399-.213.558-.372.326-.326.498-.788.495-1.249h-.603v.011c0 .306-.124.605-.324.805a1.103 1.103 0 01-.618.312 2.59 2.59 0 01-.283-.561c-.639-1.781.804-3.665 2.723-3.464.09.01.18.024.27.043l.008.002.008-.003a6.413 6.413 0 01.807-.231c.065-.014.131-.026.198-.035l.085-.012-.076-.041zm-.732 3.174a3.214 3.214 0 01-.93 2.277l-.01.01a2.591 2.591 0 001.936-.76c.242-.241.433-.528.564-.844.392-.945.192-1.902-.429-2.699a.877.877 0 00-.163-.172v-.842l.045.03a3.445 3.445 0 01.454.378 3.275 3.275 0 01.71 3.56 3.27 3.27 0 01-3.603 1.966 3.114 3.114 0 01-1.06-.402c1.105-.306 1.874-1.34 1.874-2.49l.612-.012zm-2.639 2.403a2.545 2.545 0 001.922-2.394h-.63c.01 1.029-.804 1.872-1.826 1.87-.029 0-.057-.001-.086-.003a2.934 2.934 0 00.62.526z" clip-rule="evenodd"/><path fill="#fff" d="M33.201 19.548c-.005.155-.015.31-.029.465a5.206 5.206 0 01-.063.47 3.678 3.678 0 01-.11.452 2.183 2.183 0 01-.174.408h1.041v-1.794h-.665zm-1.472 1.795h.188c.616-.024.662-1.602.668-2.04.011-.31.157-.297.316-.307h1.601v2.347H35v1.234h-.627v-.682h-2.017v.683h-.627v-1.235zm-.998-1.824a4.863 4.863 0 00-.26.013v.836h.205c.226 0 .396-.03.51-.092.115-.061.172-.176.172-.343a.412.412 0 00-.044-.2.334.334 0 00-.125-.128.568.568 0 00-.2-.067 1.634 1.634 0 00-.259-.019zm-.042-.556c.432 0 .764.076.995.228.232.152.347.4.347.746 0 .349-.117.6-.35.755-.235.155-.57.232-1.005.232h-.205v.971h-.652v-2.857c.149-.029.3-.048.451-.059.14-.01.279-.016.419-.016zm-2.495.69c-.014.042-.035.099-.063.171l-.215.565c-.045.12-.09.24-.132.36h.824l-.13-.36a13.049 13.049 0 00-.119-.314 23.676 23.676 0 01-.165-.422zm.782 2.242a7.47 7.47 0 00-.102-.31 31.617 31.617 0 01-.111-.317h-1.13a27.31 27.31 0 01-.11.317 7.44 7.44 0 00-.103.31h-.678c.11-.312.212-.6.31-.866a30.602 30.602 0 01.563-1.416c.09-.21.184-.416.282-.617h.623c.2.422.386.85.559 1.285.093.234.189.483.286.748.098.265.201.554.31.866h-.699zm-3.151 0a5.295 5.295 0 00-.466-.638 5.714 5.714 0 00-.291-.318 3.096 3.096 0 00-.302-.27v1.226h-.652v-2.899h.653v1.096c.174-.183.345-.369.512-.558.159-.18.319-.36.479-.538h.774c-.39.463-.798.908-1.226 1.335.232.192.455.42.672.686.216.265.423.558.62.878h-.773zm-4.724 0v-2.899h.648v1.711c.106-.158.213-.315.322-.47a14.646 14.646 0 01.686-.902c.097-.117.199-.23.305-.339h.532v2.9h-.644v-1.9c-.25.292-.481.598-.695.916-.215.32-.417.648-.606.983H21.1zm-.311-2.899v.556h-.875v2.343h-.652v-2.343h-.874v-.556h2.4zm-5.206 2.899v-2.899h.649v1.711c.105-.158.213-.315.322-.47a14.638 14.638 0 01.686-.902c.097-.117.198-.23.305-.339h.532v2.9h-.645v-1.9c-.248.292-.48.598-.694.916-.215.32-.417.648-.607.983h-.548zm-1.281.059c-.471 0-.83-.131-1.077-.394-.247-.262-.37-.634-.37-1.116 0-.24.037-.454.113-.643a1.293 1.293 0 01.778-.772 1.892 1.892 0 011.188-.01c.104.032.203.076.296.132l-.188.527a1.486 1.486 0 00-.715-.172c-.1 0-.2.018-.295.05a.667.667 0 00-.255.162.802.802 0 00-.178.286c-.045.118-.067.26-.067.427 0 .134.015.259.044.374.03.116.077.216.142.3a.68.68 0 00.258.198.915.915 0 00.384.073c.154.002.307-.018.456-.056.059-.015.11-.033.155-.052a8.22 8.22 0 00.121-.055l.18.523a1.532 1.532 0 01-.389.15 2.263 2.263 0 01-.581.068z"/></svg>