<svg xmlns="http://www.w3.org/2000/svg" viewBox="0 0 40 40"><g data-name="лого игры"><circle cx="20" cy="20" r="20" fill="#5f98d5"/><path fill="#fff" d="M11.39 22.54l.53.58a.59.59 0 01.12.82.69.69 0 01-.94.2 6.86 6.86 0 01-.76-.55l-.65.28a4.38 4.38 0 01-4.48-.42 4 4 0 01-1.76-4A4.1 4.1 0 016 16.09a4.36 4.36 0 016.11 3.34 4.1 4.1 0 01-.42 2.48c-.06.2-.17.38-.3.63zM10.3 21.4a2.64 2.64 0 00-.48-3.54 3 3 0 00-4.1.06 2.87 2.87 0 00-.17 4 2.79 2.79 0 003.66.53c-.18-.43-.86-.78-.32-1.35s.97.08 1.41.3zm18.7-.6a3 3 0 00.26.36 3.05 3.05 0 01.67 2.45.6.6 0 01-.54.63.66.66 0 01-.79-.52 7 7 0 01-.08-.91 1.5 1.5 0 00-2.05-1.28c-.3.84.22 1.83-.38 2.61-.85.21-1.11 0-1.11-.77v-6.74c0-.73.16-.88.89-.89h1.24a2.91 2.91 0 012.57 4.08 6.65 6.65 0 01-.68.98zm-2.56-.9a1.48 1.48 0 100-2.67zm9.04-4.07c.8-.16 1.09 0 1.09.82v5.11A2.42 2.42 0 0135.14 24a2.51 2.51 0 01-2.72-.29 2.22 2.22 0 01-.91-1.71v-5.44c0-.56.23-.8.65-.8s.68.26.74.76a5.86 5.86 0 010 .59v4.53c0 .82.45 1.32 1.14 1.3a1.19 1.19 0 001.11-1.3v-4.85c.02-.36 0-.72.33-.96zm-16.99 5.76v1.73c0 .86-.26 1-1.21.81a4.61 4.61 0 01-.19-.87v-6.49c0-.8.24-1 1-1h1.18a2.84 2.84 0 012.85 2.76 2.8 2.8 0 01-2.74 2.87 5.9 5.9 0 00-.59.06 2.25 2.25 0 00-.3.13zm.07-1.59a1.66 1.66 0 002-.68 1.35 1.35 0 00-.11-1.59 1.55 1.55 0 00-1.85-.48zM14 20v-3.41c0-.55.17-.76.57-.81a.59.59 0 01.71.51 3.82 3.82 0 010 .59v6.29a2.81 2.81 0 010 .65.56.56 0 01-.63.46.56.56 0 01-.6-.48 3 3 0 010-.59V20zm7.84 4.25a.63.63 0 01-.68-.63.71.71 0 01.68-.65.7.7 0 01.68.66.63.63 0 01-.68.62z"/></g></svg>