<svg xmlns="http://www.w3.org/2000/svg" xmlns:xlink="http://www.w3.org/1999/xlink" width="80" height="80"><defs><circle id="kiwitaxi__a" cx="40" cy="40" r="40"/></defs><g fill="none" fill-rule="evenodd"><use fill="#F3F3F3" xlink:href="#kiwitaxi__a"/><g fill-rule="nonzero"><path fill="#363537" d="M18.889 61.362l2.053-2.224a.857.857 0 00.187-.498.818.818 0 00-.793-.793.745.745 0 00-.545.249l-3.127 3.453v-5.74a.823.823 0 00-.808-.809c-.498 0-.856.373-.856.809v8.929a.82.82 0 00.824.824c.467 0 .84-.373.84-.824v-1.276l1.027-1.073 2.084 2.831c.156.233.42.342.685.342.498 0 .824-.435.824-.84a.878.878 0 00-.155-.466l-2.24-2.894zM24.023 55c-.56 0-1.027.451-1.027 1.011a1.026 1.026 0 102.053 0c0-.56-.467-1.011-1.026-1.011zm.03 2.862c-.497 0-.855.374-.855.81v6.066a.82.82 0 00.825.824c.466 0 .84-.373.84-.824V58.67a.824.824 0 00-.81-.809zm12.46 0c-.357 0-.7.234-.793.576l-1.43 4.93-1.588-4.853a.968.968 0 00-.901-.653c-.452 0-.81.265-.934.654l-1.587 4.853-1.43-4.931c-.094-.342-.436-.576-.794-.576a.814.814 0 00-.824.794c0 .077.015.155.03.233l1.836 5.88c.14.467.576.793 1.058.793h.031c.498 0 .95-.326 1.09-.793l1.508-4.776 1.509 4.776c.14.467.575.793 1.073.793h.031c.482 0 .933-.326 1.073-.793l1.82-5.88a.626.626 0 00.047-.233.804.804 0 00-.824-.794zM39.549 55c-.56 0-1.027.451-1.027 1.011a1.026 1.026 0 102.054 0c0-.56-.467-1.011-1.027-1.011zm.031 2.862c-.498 0-.856.374-.856.81v6.066a.82.82 0 00.825.824c.467 0 .84-.373.84-.824V58.67a.824.824 0 00-.809-.809zm6.147 6.27c-.093 0-.233.046-.342.046-.389 0-.715-.311-.715-.887v-3.873h.917a.71.71 0 00.7-.716c0-.42-.31-.746-.7-.746h-.917v-2.131a.817.817 0 00-.81-.825.837.837 0 00-.855.825v2.13h-.622a.724.724 0 00-.716.716c0 .42.327.747.716.747h.622v4.293c0 1.26.669 1.945 1.945 1.945 1.057 0 1.508-.311 1.508-.81 0-.404-.28-.715-.73-.715zm13.912-2.52l1.82-2.552c.093-.14.14-.28.14-.436 0-.388-.342-.746-.778-.746a.791.791 0 00-.653.342l-1.556 2.256-1.602-2.272a.769.769 0 00-.638-.326.776.776 0 00-.778.762c0 .14.047.28.14.42l1.82 2.551-1.975 2.769a.716.716 0 00-.14.42c0 .42.358.762.778.762a.718.718 0 00.606-.31l1.79-2.52 1.757 2.52c.14.217.373.31.622.31a.763.763 0 00.762-.762.697.697 0 00-.124-.42l-1.991-2.769zm4.335-4.574c.56 0 1.027-.451 1.027-1.027 0-.56-.467-1.011-1.027-1.011-.56 0-1.026.451-1.026 1.011 0 .576.466 1.027 1.026 1.027zm.031.824c-.497 0-.855.374-.855.809v6.067a.82.82 0 00.824.824c.467 0 .84-.373.84-.824V58.67a.824.824 0 00-.809-.809zm-10.693 0c-.498 0-.856.374-.856.81v.092c-.47-.58-1.12-.995-2.024-.995-2.136 0-3.226 1.789-3.226 3.935v.016c0 2.147 1.09 3.935 3.226 3.935.905 0 1.556-.373 2.025-.91a.82.82 0 00.823.817c.467 0 .84-.373.84-.824V58.67a.824.824 0 00-.808-.809zm-2.674 6.316c-1.14 0-1.767-1.151-1.767-2.474 0-1.306.627-2.457 1.767-2.457 1.127 0 1.818 1.08 1.818 2.457 0 1.377-.691 2.474-1.818 2.474z"/><path fill="#F9AC1A" d="M53.211 41.307a3.568 3.568 0 110-7.136 3.568 3.568 0 010 7.136zM40.126 27.033c-4.116 0-7.942.285-11.193.658l2.754-8.809c.137-.441.518-.763.976-.824 2.06-.272 4.78-.543 7.463-.543 2.68 0 5.397.27 7.457.542.462.062.842.386.979.833l2.691 8.794a98.607 98.607 0 00-11.127-.651zM27.042 41.307a3.569 3.569 0 11-.001-7.137 3.569 3.569 0 010 7.137zM57.33 28.559a76.85 76.85 0 00-.859-.147l-3.36-10.925a5.957 5.957 0 00-4.923-4.15 72.862 72.862 0 00-2.115-.246v-2.713h-2.379v2.507a57.762 57.762 0 00-2.378-.112v-2.395h-2.38v2.395c-.806.02-1.603.06-2.379.113v-2.508h-2.379v2.712c-.751.077-1.466.16-2.115.247a5.955 5.955 0 00-4.92 4.15L23.78 28.411c-.297.049-.586.098-.86.146a4.752 4.752 0 00-3.909 5.024l.72 10.047a2.376 2.376 0 002.586 2.2c.572-.053 1.143-.104 1.714-.153l.129 1.8v.008a3.57 3.57 0 007.12-.509l-.13-1.81c2.906-.168 6.04-.29 8.976-.29 2.935 0 6.07.122 8.975.29l-.13 1.81a3.569 3.569 0 007.12.51v-.008l.128-1.8c.63.053 1.209.105 1.715.151a2.376 2.376 0 002.587-2.2l.717-10.046a4.751 4.751 0 00-3.909-5.024zm-20.773-18.18h2.38V8h-2.38v2.378zm4.759 0h2.378V8h-2.378v2.378z"/></g></g></svg>