<svg xmlns="http://www.w3.org/2000/svg" xmlns:xlink="http://www.w3.org/1999/xlink" width="80" height="80"><defs><circle id="tutu__a" cx="40" cy="40" r="40"/></defs><g fill="none" fill-rule="evenodd"><use fill="#F3F3F3" xlink:href="#tutu__a"/><g fill-rule="nonzero"><path fill="#68A3C3" d="M30.053 18.329H25.86V13h-7.532v5.329H13v7.46h5.329v4.264c0 6.181 3.624 12.79 11.653 13.57h.07v-7.53c-3.126-.711-4.263-3.625-4.263-6.04v-4.264h4.264v-7.46zm19.681 43.129h4.263v5.329h7.46v-5.33h5.33v-7.53h-5.33v-4.264c0-6.181-3.623-12.79-11.652-13.57h-.07v7.53c3.126.711 4.262 3.624 4.262 6.04v4.263h-4.263v7.532z"/><path fill="#CE0000" d="M49.734 36.092h-6.11V31.9c0-7.745-5.827-13.571-13.571-13.571v7.46c3.34 0 6.11 2.7 6.11 6.111v4.192h-6.11v7.532h6.11v4.263c0 7.745 5.826 13.57 13.571 13.57v-7.53c-3.34 0-6.11-2.7-6.11-6.111v-4.192h6.11v-7.532z"/></g></g></svg>