<svg xmlns="http://www.w3.org/2000/svg" width="80" height="80"><g fill="none" fill-rule="evenodd"><circle cx="40" cy="40" r="40" fill="#EB078E"/><path fill="#FFF" d="M56.892 62.847c-2.494-.47-4.272-1.425-5.813-3.124-2.017-2.223-2.416-3.496-2.65-8.445l-.223-4.722-.8 2.64c-.966 3.183-3.263 6.57-5.552 8.186-3.469 2.448-5.25 2.81-14.87 3.022L18 60.6v-1.4c0-3.52 2.329-7.344 5.313-8.727 1.464-.678 3.09-.898 6.822-.926l4.901-.036-2.662-.868c-5.647-1.842-8.858-4.699-10.74-9.555-.889-2.292-1.039-3.771-1.202-11.853L20.246 18l1.903.26c3.036.416 6.037 2.153 7.433 4.303 1.14 1.755 1.274 2.448 1.487 7.68.182 4.495.315 5.356.608 3.945a17.517 17.517 0 014.294-8.385c3.746-4.085 8.095-5.259 19.548-5.276L62 20.518l-.288 2.144c-.58 4.313-3.253 7.799-6.738 8.786-.955.27-3.521.499-5.703.507l-3.967.015 3.09 1.074c5.166 1.797 8.522 5.157 10.037 10.05.845 2.726 1.523 19.131.817 19.758-.225.2-1.285.197-2.357-.005z"/><path fill="#EB078E" d="M43.96 47.043C46.149 46.01 48 42.917 48 40.297c0-2.564-.585-4.166-2.118-5.797-4.977-5.294-13.987-1.605-13.881 5.684.09 6.149 6.128 9.612 11.96 6.86v-.001z"/></g></svg>