<svg xmlns="http://www.w3.org/2000/svg" xmlns:xlink="http://www.w3.org/1999/xlink" width="60" height="60"><defs><path id="ttk__a" d="M30 60c16.569 0 30-13.431 30-30C60 13.431 46.569 0 30 0 13.431 0 0 13.431 0 30c0 16.569 13.431 30 30 30z"/></defs><g fill="none" fill-rule="evenodd"><use fill="#F13432" xlink:href="#ttk__a"/><path fill="#FFF" d="M51.872 25.072c-.022.04-.035.09-.066.122l-5.073 5.345c-.033.035-.066.07-.106.115l5.138 6.3c-.047.003-.077.007-.106.007-1.876 0-3.75 0-5.626.002a.168.168 0 01-.15-.074c-1.277-1.608-2.557-3.215-3.836-4.822a.352.352 0 00-.38-.122c-.017.005-.036.03-.04.048-.007.033-.003.068-.003.102l.002 4.707v.15h-5.037v-.133l.004-11.564c0-.06-.003-.122-.005-.183h5.038c-.002.034-.005.068-.005.102l.002 4.275c0 .024-.003.049.002.071.004.018.015.04.03.049.068.038.296-.002.346-.059l3.879-4.355c.021-.025.036-.055.054-.083h5.938zm-30.418 0c-.001.061-.004.122-.004.184l.002 4.471c0 .17.024.156-.169.156H17.93c-.182 0-.182 0-.182.17l.004 6.743v.158h-5.035v-7.072H9v-4.81h12.454zm13.806 0c-.003.05-.006.102-.006.153 0 1.504 0 3.009.002 4.513v.139c-.061.003-.11.006-.16.006h-3.365c-.182 0-.182 0-.181.17l.002 6.754v.147h-5.037v-.14l.002-6.776c0-.154 0-.154-.163-.154h-3.386c-.05 0-.098-.004-.158-.007v-.14l.001-4.533c0-.044-.004-.088-.006-.132h12.454z"/></g></svg>