<svg xmlns="http://www.w3.org/2000/svg" width="40" height="40" fill="none"><circle cx="20" cy="20" r="20" fill="#21A038"/><path fill="#fff" d="M25.202 12.382l2.333-1.72A11.945 11.945 0 0019.997 8v.001a11.967 11.967 0 00-8.152 3.196A11.968 11.968 0 008 19.996v.007a11.969 11.969 0 003.156 8.107A11.967 11.967 0 0020.001 32a11.96 11.96 0 008.05-3.103v.002a11.97 11.97 0 003.95-8.9c0-.72-.062-1.44-.19-2.15l-2.582 1.904V20a9.204 9.204 0 01-2.707 6.523 9.24 9.24 0 01-.288.276l-.045.04a9.201 9.201 0 01-6.623 2.38l-.027-.003a9.21 9.21 0 01-6.062-2.694l.002-.001A9.194 9.194 0 0110.772 20v-.022a9.213 9.213 0 012.705-6.5l.002.001a9.196 9.196 0 016.982-2.694v-.002a9.182 9.182 0 014.741 1.599z"/><path fill="#fff" d="M30.934 15.049a12.04 12.04 0 00-1.438-2.386l-9.493 6.999-4.568-2.864v3.445l4.568 2.864 10.93-8.058z"/></svg>