<svg xmlns="http://www.w3.org/2000/svg" xmlns:xlink="http://www.w3.org/1999/xlink" width="60" height="60"><defs><path id="strizh__a" d="M30 60c16.569 0 30-13.431 30-30C60 13.431 46.569 0 30 0 13.431 0 0 13.431 0 30c0 16.569 13.431 30 30 30z"/></defs><g fill="none" fill-rule="evenodd"><use fill="#B92725" xlink:href="#strizh__a"/><g fill="#FFF"><path d="M16.072 23.189c1.01.434 1.93.805 2.829 1.223 3.182 1.479 5.978 3.44 8.072 6.275.864 1.168 1.689 2.361 1.903 3.83.216 1.484-.206 3.32-1.932 4.115-.455.21-.941.396-1.433.483-2.032.363-4.088.252-6.133.166-1.34-.057-2.677-.18-4.014-.012-.458.057-.91.159-1.364.24l.02.105c.426-.05.852-.094 1.277-.153 1.427-.195 2.832-.076 4.212.303.208.057.523.248.53.389.014.31-.337.324-.579.347-.606.057-1.215.094-1.823.122a8.59 8.59 0 00-2.96.681c-.146.062-.28.153-.42.23a.226.226 0 00.184-.001c1.697-.673 3.475-.814 5.263-.624 2.024.215 4.037.537 6.051.84 2.521.38 5.049.682 7.601.76 2.415.075 4.822-.05 7.132-.767 1.967-.611 3.88-1.392 5.892-2.126-.204-.158-.344-.295-.508-.39-.459-.262-.907-.563-1.398-.749-1.123-.425-2.27-.79-3.407-1.178-.815-.278-1.552-.666-1.966-1.455a9.387 9.387 0 01-.493-1.137c-.483-1.318-.867-2.678-1.444-3.955-1.594-3.522-3.982-6.49-6.856-9.09-3.213-2.909-6.857-5.182-10.822-6.964-1.5-.674-3.025-1.292-4.64-1.66-.139-.03-.285-.025-.427-.037l-.07.122c4.99 2.728 8.799 6.582 11.57 11.516-3.228-.927-6.408-1.751-9.847-1.45"/><path d="M16.072 23.189c3.439-.302 6.619.522 9.847 1.45-2.771-4.935-6.58-8.79-11.57-11.517l.07-.122c.142.012.288.006.426.037 1.616.368 3.14.986 4.64 1.66 3.966 1.782 7.61 4.055 10.823 6.964 2.874 2.6 5.262 5.568 6.856 9.09.577 1.277.96 2.637 1.444 3.955.142.387.301.772.493 1.137.414.79 1.15 1.177 1.966 1.455 1.138.388 2.284.753 3.407 1.178.491.186.939.487 1.398.75.164.094.304.23.508.39-2.012.733-3.925 1.514-5.892 2.125-2.31.718-4.717.842-7.132.767-2.552-.078-5.08-.38-7.6-.76-2.015-.303-4.028-.625-6.052-.84-1.788-.19-3.566-.049-5.263.624a.226.226 0 01-.185 0c.14-.076.275-.167.422-.229a8.59 8.59 0 012.959-.681 37.858 37.858 0 001.823-.122c.242-.023.593-.036.579-.347-.007-.141-.322-.332-.53-.39-1.38-.378-2.785-.497-4.212-.302-.425.059-.851.102-1.278.153L14 39.509c.454-.081.906-.183 1.364-.24 1.337-.168 2.673-.045 4.014.012 2.045.086 4.1.197 6.133-.166.492-.087.978-.273 1.433-.483 1.726-.795 2.148-2.63 1.932-4.115-.214-1.469-1.04-2.662-1.903-3.83-2.094-2.835-4.89-4.796-8.072-6.275-.899-.418-1.82-.789-2.829-1.223"/></g></g></svg>