<svg xmlns="http://www.w3.org/2000/svg" xmlns:xlink="http://www.w3.org/1999/xlink" width="80" height="80"><defs><circle id="toy__a" cx="40" cy="40" r="40"/></defs><g fill="none" fill-rule="evenodd"><use fill="#F3F3F3" xlink:href="#toy__a"/><g transform="translate(8 27)"><path fill="#82C4CD" d="M25.653 19.2l-6.293-6.293-6.347-6.347-6.293 6.347L.373 19.2l6.347 6.293 6.293-6.293 6.347 6.293z"/><path fill="#B8DDE6" d="M19.343 12.871l-6.298-6.298L19.342.276l6.298 6.298zm-9.483.036l3.167-3.168 3.168 3.168-3.168 3.168zm7.207 3.893h4.32v4.32h-4.32z"/><circle cx="19.307" cy="6.56" r="2.453" fill="#82C4CD"/><path fill="#D5784D" d="M57.173 12.907L51.36 7.04 44.587.267 38.24 6.56l6.827 6.827L50.88 19.2z"/><path fill="#E69F5A" d="M44.58 12.882l6.297 6.298-6.297 6.297-6.298-6.298z"/><circle cx="44.587" cy="6.56" r="2.453" fill="#E69F5A"/><circle cx="50.88" cy="12.853" r="2.453" fill="#E69F5A"/><circle cx="44.693" cy="19.2" r="2.453" fill="#D5784D"/><path fill="#D76443" d="M31.974.268L44.607 12.9 31.974 25.534 19.341 12.901z"/><path fill="#FFF" d="M26.08 11.893l3.04 3.04s-.107.16-.267.32c-.16.16-.32.267-.32.267l-3.04-3.04-.8.8s-.16-.053-.32-.213-.213-.32-.213-.32l2.187-2.187s.16.053.32.213.213.32.213.32l-.8.8zM29.493 9.6l-.16-.16c-.053-.053-.16-.053-.266-.107h-.32c-.107 0-.214.107-.32.16-.107.107-.16.214-.214.32a.34.34 0 000 .32c0 .107.054.16.107.267.053.053.107.16.16.213L29.867 12c.16.16.373.267.533.32.213.053.373-.053.587-.213.16-.16.213-.32.213-.48a.685.685 0 00-.213-.534L29.493 9.6zm2.027.853l-1.44-1.44c-.16-.16-.267-.266-.48-.32a1.029 1.029 0 00-.533-.16c-.214 0-.374 0-.587.107-.213.053-.373.213-.587.373-.213.214-.32.427-.426.64-.054.214-.107.427-.054.587 0 .213.054.373.16.533.107.16.214.32.32.427l1.334 1.333c.16.16.32.267.533.374.16.106.373.16.587.16.213 0 .373 0 .586-.107.214-.053.427-.213.587-.427.16-.16.267-.32.373-.533.107-.16.107-.373.107-.587 0-.213-.053-.373-.107-.586-.106 0-.213-.214-.373-.374zm1.387 9.494s-.16-.054-.374-.267c-.213-.213-.266-.373-.266-.373s.053-.16.266-.374c.214-.213.374-.266.374-.266s.16.053.373.266c.213.214.267.374.267.374s-.054.16-.267.373c-.213.213-.373.267-.373.267zm.853-5.974c-.16-.16-.32-.266-.48-.266-.16 0-.32.106-.48.266l-.533.534 1.013 1.013.533-.533c.16-.16.214-.32.214-.48 0-.214-.107-.374-.267-.534zm2.72 2.294c-.32.106-.533.053-.8 0-.213-.054-1.44-.694-1.44-.694l-.48.48 1.493 1.494s-.053.213-.213.373a.9.9 0 01-.373.213l-3.574-3.573 1.174-1.173c.16-.16.32-.267.48-.374.16-.106.32-.106.533-.16.16 0 .373.054.533.107.16.053.374.213.534.373.213.214.373.48.426.747.054.267.054.533-.053.8 0 0 .907.427 1.013.48.16.053.214.107.374.107s.426-.214.426-.214.214.054.32.214c.16.16.214.32.214.32s-.267.32-.587.48zM36 9.653l2.507 2.507c.16.16.32.373.373.533.107.214.107.374.107.587 0 .213-.054.373-.107.587-.107.16-.213.373-.373.533-.16.16-.374.32-.587.373-.213.054-.373.107-.587.107-.213 0-.373-.053-.586-.16-.16-.107-.374-.213-.534-.373l-2.453-2.454s.053-.16.213-.373c.16-.16.374-.213.374-.213l2.506 2.506c.16.16.32.267.534.267a.685.685 0 00.533-.213c.16-.16.213-.32.213-.48 0-.214-.106-.374-.266-.534l-2.507-2.506s0-.16.213-.374c.267-.32.427-.32.427-.32zM31.893 4.96s.16.053.32.213.214.32.214.32a.936.936 0 00-.214.267c-.053.32.16.8.16.8l.64 1.6 1.44 1.44s-.053.213-.213.32c-.16.16-.373.213-.373.213l-1.44-1.44-1.6-.64s-.48-.213-.8-.16c-.107 0-.16.054-.267.214 0 0-.16-.054-.32-.214a.915.915 0 01-.213-.32c.266-.266.373-.426.8-.426.426-.054 1.44.373 1.6.48.16.053.32.16.48.213-.054-.16-.16-.32-.214-.48-.053-.16-.48-1.173-.48-1.6.107-.48.214-.533.48-.8z"/><circle cx="6.827" cy="19.147" r="2.453" fill="#B8DDE6"/><path fill="#E69F5A" d="M57.19.294l6.297 6.298-6.297 6.297-6.298-6.298z"/><path fill="#D5784D" d="M54.032 6.611L57.2 3.444l3.168 3.168L57.2 9.779z"/></g></g></svg>