<svg xmlns="http://www.w3.org/2000/svg" width="80" height="80"><g fill="none" fill-rule="evenodd"><circle cx="40" cy="40" r="40" fill="#004494"/><path fill="#FFF" d="M47.196 34.508v6.065h-.51v.868h2.699v-.868h-.51v-6.086c.65 0 1.099.43 1.242 1.344h.66v-2.144H45.32v2.144h.668c.11-.853.568-1.323 1.21-1.323zm17.825 3.284l-1.504 2.772h-.492v.877h1.75v-.877h-.273l.992-1.835.932 1.835h-.291v.877h2.37v-.868h-.327l-1.774-3.515 1.339-2.506h.513v-.865H66.45v.865h.3l-.833 1.566-.792-1.566h.36v-.865h-2.551l-.008.865h.453l1.642 3.24zM42.344 41.69c1.005 0 1.832-.31 2.367-.876V38.96h-.552c-.23 1.138-.663 1.834-1.55 1.834-1 0-1.725-1.519-1.725-3.23 0-1.708.601-3.238 1.656-3.238.996 0 1.317.72 1.553 1.504h.618v-1.518c-.636-.477-1.167-.876-2.243-.876-1.749 0-3.331 1.852-3.331 4.129 0 2.286 1.335 4.123 3.207 4.123zm11.86-1.116h-.505v-1.99h.584c1.928 0 2.733-1.216 2.733-2.465-.014-1.249-.711-2.431-2.564-2.431h-2.957v.865H52v6.02h-.505v.87h2.709v-.87zm-.505-6.012h.286c.837 0 1.374.756 1.374 1.642 0 .893-.537 1.516-1.346 1.516h-.314v-3.16zm3.29 6.012h-.368v.868h1.581v-.868h-.301l.414-1.501h1.803l.418 1.5-.384-.008v.877h2.489v-.868h-.35l-1.913-6.886h-2.095v.865h.37l-1.664 6.02zm2.897-2.345h-1.338l.666-2.425.672 2.425zm-23.519 3.46c1.008 0 1.835-.31 2.364-.875V38.96h-.546c-.23 1.138-.664 1.834-1.538 1.834-1.023 0-1.741-1.519-1.741-3.23 0-1.708.6-3.238 1.658-3.238 1 0 1.328.72 1.557 1.504h.61v-1.518c-.626-.477-1.159-.876-2.226-.876-1.76 0-3.357 1.852-3.357 4.129 0 2.286 1.35 4.123 3.22 4.123zm-19.976-3.833h1.916v2.718h-.51v.868h2.701v-.868h-.51v-6.021h.51v-.865h-2.701v.865h.51v2.466h-1.916v-2.466h.518v-.865h-2.73v.865h.527v6.02h-.527v.87h2.73v-.87h-.518v-2.717zm7.88 2.724h-.735v-6.02h.73c.609 0 1.11.43 1.11 1.294h.61v-2.166h-4.654v.872h.522v6.02h-.522v.862h2.94v-.862zM9.21 39.08v-4.528h.513v-.865H7v.865h.52v6.02H7v.87h2.277l1.878-5.356v4.487h-.526v.868h2.74v-.868h-.534v-6.021h.534v-.865H11.1L9.21 39.08zm20.235-5.643c-1.984 0-3.222 1.852-3.222 4.129 0 2.286 1.301 4.123 3.222 4.123 1.992 0 3.207-1.837 3.207-4.123 0-2.277-1.246-4.129-3.207-4.129zm0 7.358c-.965 0-1.472-1.519-1.472-3.23 0-1.708.536-3.232 1.472-3.232.915 0 1.47 1.524 1.47 3.233 0 1.71-.496 3.23-1.47 3.23zm47.409 1.493c-.63-.585-2.025.304-2.983 1.33-.702.755-1.583 2.064-2.306 3.2-.99.746-2.3 1.732-2.719 2.017-.536.373-.892.549-1.097.45-.25-.12-.34-.64-.383-1.071.323-.042.598-.074.997-.29.58-.308.89-.884.536-1.296-.3-.354-.88-.224-1.43.149l.319-.491.143-.103c1.094-.742 2.092-1.41 2.677-1.911.74-.652 1.576-1.503 1.117-1.984-.598-.634-2.082.304-3.025 1.332-.697.738-1.526 2.005-2.238 3.132-1.105.758-3.214 2.204-3.502 2.414-.291.213-.431.037-.23-.28.104-.168.24-.395.383-.63l1.068-1.683c.033-.06.025-.137-.069-.137h-.722c-.101 0-.177.037-.226.114l-.2.333a.907.907 0 00-.295-.364c-.435-.31-1.404-.189-2.16.463-.767.572-2.704 1.98-3.025 2.22-.383.274-.516.07-.27-.315.108-.158.87-1.41 1.15-1.86.06-.107-.035-.19-.147-.13-.59.197-1.1.105-1.303-.292.171-.15.149-.243.079-.442-.042-.148-.166-.299-.307-.178l-.013.013c-.094.083-.308.288-.39.363l-.085.19v.01c-.993.625-3.65 2.32-3.976 2.546-.239.165-.393.03-.222-.22.046-.072.827-1.314 1.698-2.677l3.751-1.78h-.02l.055-.018c.077-.049.068-.186-.087-.186h-2.454l1.14-1.823c.062-.108.026-.168-.054-.168h-.72c-.082 0-.17.053-.245.168-.036.043-.534.84-1.152 1.823h-9.755c-.172 0-.255.05-.323.158a4.169 4.169 0 00-.246.39c-.044.076-.006.171.113.171h9.761c-.292.463-.598.935-.878 1.378l-3.03 1.422a1.75 1.75 0 01.102-.705c.07-.202.199-.309.327-.423l.006-.203-.485-.377c-.054-.027-.108-.052-.215.023l-3.32 1.685a1.64 1.64 0 01.116-.705c.068-.202.191-.309.313-.423l.008-.203-.486-.377c-.061-.035-.114-.052-.242.04-.05.046-2.367 1.477-3.666 2.272.557-.931.467-1.646.178-1.902-.412-.362-1.238-.173-1.95.408l-3.313 2.09s1.39-2.197 1.431-2.306c.053-.11.009-.198-.063-.198h-.665c-.096 0-.203.066-.271.172-.04.075-.096.164-.155.272a.583.583 0 00-.212-.317c-.525-.405-1.487-.265-2.226.373-.462.332-2.734 1.988-3.1 2.25-.378.285-.55.08-.304-.304.26-.396.677-1.056.874-1.383.25-.41.202-.931-.107-1.08-.318-.155-.841-.155-1.564.373-.116.08-.18.123-.284.215.152-.272.2-.372.222-.534.018-.155-.063-.222-.252-.192-.729.1-1.306.192-2.175.221l-.17.007c.908-1.119 1.771-2.473 2.539-4.05-.34.09-.704.128-1.083.128h-.02c-.806 1.512-1.708 2.816-2.648 3.867-1.52-.173-3.562-.97-3.864-4.222h-.675c.15 2.653 1.538 4.352 4.085 4.707-1.63 1.69-3.192 2.69-4.72 2.69-1.756 0-2.589-1.041-2.915-2.07.566.122.814.156 1.583.043a3.119 3.119 0 001.343-.524c.156-.108.112-.175-.089-.141-.43.051-1.231.136-1.936.06-.84-.094-1.332-.213-1.74-.408-.403-.19-.552-.035-.437.276.616 1.672 1.773 3.433 4.301 3.433 1.956 0 3.98-1.152 5.842-3.273l.24-.003c.542-.025 1.051-.045 1.634-.127-.1.183-.23.373-.452.738-.288.454-1 1.565-1.277 1.997-.075.113-.007.173.077.173h.692c.1 0 .178-.06.24-.16.17-.264.388-.601.665-1.05.343-.506.75-.881 1.024-1.116.542-.47.984-.657 1.108-.627.087.015.173.185-.007.473-.19.27-.743 1.012-1.01 1.494-.223.417-.196.964.338 1.077.433.093.818-.151 1.297-.496.27-.195 1.184-.88 1.953-1.433-.302.69-.257 1.4.182 1.719.382.303.896.194 1.478-.213a8.51 8.51 0 00-.181.358c-.93.551-1.47.838-2.382 1.614-.67.573-.962 1.308-.56 1.703.634.624 1.748-.222 2.575-1.405a144.94 144.94 0 001.359-2.06l2.968-1.859c-.368.723-.322 1.482.125 1.85.463.376 1.07.194 1.652-.33l3.924-2.492-.03.2c-.002.371.038.636.063 1.092 0 0-.718.377-.94.487-.325.142-.645.424-.615.811.034.37.345.617.798.617.694 0 1.502-.482 1.554-1.808v-.1l2.797-1.418c-.025.07-.072.164-.074.319-.017.371.041.636.056 1.092 0 0-.72.377-.938.487-.32.142-.645.424-.601.811.023.37.333.617.803.617.68 0 1.485-.482 1.54-1.808v-.1l2.68-1.254c-.462.732-.79 1.247-.79 1.247l-.164.246c-.496.892-.377 1.49.176 1.49.443 0 .77-.242 1.247-.583.327-.234 2.566-1.693 3.54-2.322.127.355.488.543.84.511 0 0-.66 1.012-.775 1.234-.374.712-.187 1.16.37 1.16.43 0 .762-.216 1.25-.55.254-.182 1.115-.818 1.868-1.376-.293.677-.229 1.376.197 1.72.417.34 1.314-.036 1.766-.577-.065.441.063.783.435.783.43 0 .754-.242 1.237-.583.276-.2 1.514-1.046 2.545-1.752-.194.311-1.285 2.014-1.345 2.115-.064.1.02.145.071.145h.738c.089 0 .164-.06.212-.145l.89-1.366c.062.617.254 1.537.76 1.627.57.097 1.04-.235 1.57-.59a79.602 79.602 0 002.118-1.589 277.29 277.29 0 00-1.193 1.882c-.08.112-.05.181.05.181h.677c.149 0 .218-.075.289-.18.074-.115.87-1.382.87-1.382.268-.276.521-.548.739-.75.475-.476.833-.671.963-.64.085.014.06.184-.13.472-.183.27-.748 1.012-1.007 1.494-.223.417-.297.911.244 1.04.417.109.902-.199 1.386-.515.238-.156.679-.466.855-.631.121-.123.11-.257.07-.313-.065-.113-.171-.084-.258 0a7.332 7.332 0 01-1.056.754c-.403.234-.533.115-.276-.27.243-.396.665-1.056.86-1.383.259-.41.337-.931.02-1.08-.311-.155-.879.023-1.54.554l-.131.116.51-.808.073-.047c1.06-.728 2.167-1.455 2.741-1.967.57-.514 1.654-1.503 1.115-1.984zm-7.592 1.89c.643-.808 1.744-1.972 2.137-1.603.209.194-.071.636-1.175 1.529-.65.521-1.42 1.1-2.084 1.5.336-.434.839-1.074 1.122-1.425zm-14.767.767h1.026l-1.469.68.443-.68zm-19.897 6.563c-.403.703-1.147 1.54-1.596 1.297-.25-.144-.043-.663.748-1.357.425-.365 1.39-.96 1.39-.96-.19.373-.395.749-.542 1.02zM36.26 48.2c-.593 1.003-1.285 1.341-1.52 1.153-.25-.183-.047-.844.5-1.584.542-.739 1.086-1.09 1.36-.964.379.173.13.613-.34 1.395zm5.16.223c-.55.734-1.093 1.077-1.342.9-.236-.185.016-.814.566-1.554.54-.739.99-1.09 1.233-.914.24.175.09.829-.457 1.568zm2.99 1.244c-.218.01-.345-.122-.361-.283-.015-.176.075-.28.238-.37.103-.051.872-.458.872-.458-.052.868-.427 1.107-.748 1.11zm3.573 0c-.211.01-.337-.122-.353-.283-.012-.176.073-.28.241-.37l.866-.458c-.049.868-.423 1.107-.754 1.11zm14.093-1.441c-.505.861-1.21 1.25-1.456 1.074-.237-.183-.102-.728.421-1.483.523-.762 1.009-1.129 1.355-.98.352.145.233.436-.32 1.389zm4.738-.367c.11-.216.366-.484.642-.694.263-.212.782-.47.908-.238.137.26-.06.66-.555.842a2.19 2.19 0 01-.995.09zm8.512-3.743c-.657.538-1.454 1.073-1.938 1.395.38-.525.72-.97 1.013-1.332.648-.809 1.774-1.961 2.161-1.587.15.155-.129.627-1.236 1.524zm-44.148-13.18c1.105.066 1.388 1.25 1.184 2.907.274.315.505.66.7 1.038.56-2.847.164-4.678-1.533-4.865-1.457-.154-3.737.814-5.699 2.804h1.095c1.462-1.23 3.045-1.96 4.253-1.884z"/></g></svg>