<svg xmlns="http://www.w3.org/2000/svg" width="40" height="40" fill="none"><path fill="#EDF2F8" d="M20 40c11.046 0 20-8.954 20-20S31.046 0 20 0 0 8.954 0 20s8.954 20 20 20z"/><path fill="#479FD8" fill-rule="evenodd" d="M30.768 17.486a2.747 2.747 0 00-3.593 1.469 2.749 2.749 0 001.469 3.593 2.747 2.747 0 003.593-1.469 2.748 2.748 0 00-1.469-3.593zm-7.309 9.825a1.486 1.486 0 011.032-1.836 1.482 1.482 0 011.831 1.027 1.487 1.487 0 11-2.863.809zm-13.343-7.87a1.49 1.49 0 011.95-.799 1.485 1.485 0 01.794 1.95 1.485 1.485 0 01-1.945.799 1.493 1.493 0 01-.799-1.95z" clip-rule="evenodd"/><path fill="#323C8D" fill-rule="evenodd" d="M14.383 9.685a2.74 2.74 0 013.593-1.469 2.74 2.74 0 011.469 3.588 2.74 2.74 0 01-3.588 1.469 2.743 2.743 0 01-1.474-3.588zm9.18 2.819a1.491 1.491 0 012.749 1.156 1.49 1.49 0 01-2.749-1.156zM17.812 26.74a2.742 2.742 0 00-3.588 1.474 2.739 2.739 0 001.469 3.588 2.745 2.745 0 002.119-5.062zm4.312-1.508a5.63 5.63 0 003.081-7.349 5.64 5.64 0 00-7.354-3.086c-2.878 1.181-4.263 4.471-3.082 7.354s4.471 4.263 7.354 3.082zm-6.059-3.608a4.242 4.242 0 117.85-3.216 4.242 4.242 0 01-7.85 3.216z" clip-rule="evenodd"/></svg>