<svg xmlns="http://www.w3.org/2000/svg" xmlns:xlink="http://www.w3.org/1999/xlink" width="60" height="60"><defs><path id="pochta__a" d="M29.703 59.405c16.404 0 29.702-13.298 29.702-29.702C59.405 13.298 46.107 0 29.703 0 13.298 0 0 13.298 0 29.703c0 16.404 13.298 29.702 29.703 29.702z"/></defs><g fill="none" fill-rule="evenodd"><mask id="pochta__b" fill="#fff"><use xlink:href="#pochta__a"/></mask><use fill="#C7003F" xlink:href="#pochta__a"/><g fill="#FFF" mask="url(#pochta__b)"><path d="M29.882 17.504c-.098.16-.208.26-.193.336.015.083.151.204.227.2.077-.006.198-.142.203-.226.004-.079-.119-.164-.237-.31zm5.295 2.25l.088.048c.15-.228.31-.45.44-.689.025-.047-.072-.16-.112-.244-.088.056-.229.093-.254.17-.078.23-.112.475-.162.715zm-10.625.055l.085-.046c-.053-.238-.088-.484-.17-.712-.03-.081-.176-.12-.269-.18-.033.087-.12.202-.091.254.13.238.294.458.445.684zm2.05 10.29l.1-.101-.418-.828-.423.438.742.492zm-.293-11.464c-.389-.215-1.2-.204-1.515.032.525.108 1.002.156 1.515-.032zm-4.643-.616l-.121-.075-.753.71.846-.064.028-.57zm11.876.596c.478.187.956.194 1.433-.007-.479-.16-.957-.174-1.433.007zm4.626-.019l.76.05c-.187-.3-.375-.571-.79-.661.01.231.02.43.03.611zm-4.64 10.555l-.416.85.095.096.668-.447-.347-.5zM25.55 18c.132-.278.247-.486.324-.707.026-.076-.031-.258-.076-.267a1.219 1.219 0 00-.493 0c-.046.01-.104.19-.078.265.071.213.183.412.323.71zm8.703 0c.135-.281.248-.479.322-.69.028-.079-.02-.266-.058-.272a1.511 1.511 0 00-.52-.003c-.037.006-.087.192-.06.27.072.212.183.41.316.695zm-4.59-3.973l.23.425.283-.474.226-.03c.113-.336-.202-.214-.321-.304l-.043-.325h-.27l-.036.268-.355.242.286.198zm-4.285 1.965l-.355.238.258.167.258.44.292-.447.236-.152-.344-.24c-.004-.169.006-.399-.325-.26l-.02.254zm8.427 22.17c.167.204.312.404.482.58.076.079.22.169.304.147.199-.051.38-.167.58-.261-.45-.38-1.015-.564-1.366-.466zm.255-21.778c.073.205-.07.55.348.417l.018-.331.36-.253-.353-.202-.036-.288c-.386-.136-.265.199-.335.343-.144.048-.411-.035-.282.287l.28.027zm-8.003 21.767c-.59-.113-.989.205-1.444.454.677.363.675.362 1.131-.161.084-.096.186-.176.313-.293zm3.217 4.799l.64.896.605-.896h-1.245zm.858-26.163c.248.107.336.034.361-.18.033-.279.077-.557.132-.832.076-.383.167-.763.251-1.145l-.105-.03c-.467.65-.477 1.44-.639 2.187zm-6.396-1.016c-.21-.04-.351-.114-.452-.077-.299.109-.595.24-.864.407-.121.076-.174.261-.258.397.162-.005.352.043.48-.026.348-.187.67-.424 1.094-.7zm12.429-.033l.007.08c.227.162.446.337.682.484.163.1.345.177.528.236.076.025.177-.024.266-.039-.035-.094-.041-.226-.109-.275-.242-.177-.49-.363-.764-.473-.177-.07-.405-.013-.61-.013zm-6.598 1.133l.141-.107c-.147-.596-.284-1.194-.45-1.785-.04-.143-.174-.26-.266-.389.087.715.203 1.393.341 2.067.017.084.153.143.234.214zm-2.45 5.191c.114-.616-.628-1.238-1.535-1.302l1.535 1.302zm7.107-1.294l-.06-.079c-.92.164-1.6.806-1.46 1.362l1.52-1.283zm.228-2.484c.278.113.437.043.552-.176.096-.182.227-.346.312-.533.047-.105.032-.238.045-.358-.134-.014-.295-.08-.395-.028a.763.763 0 00-.336.358c-.093.226-.12.48-.178.737zm-6.05 2.372c.259.69.726 1.103 1.231 1.105-.047-.674-.534-1.12-1.232-1.105zm-3.04-2.38c-.07-.273-.1-.564-.226-.804-.08-.15-.294-.274-.47-.315-.221-.053-.327.114-.225.322.11.222.259.425.375.645.11.21.263.27.546.153zm.386.001c.272.115.427.064.54-.148.1-.192.24-.364.33-.56.048-.102.078-.288.023-.342-.07-.07-.256-.092-.353-.048-.134.061-.28.183-.333.314-.102.246-.14.518-.207.784zm8.315.001c-.074-.28-.113-.575-.235-.83-.065-.136-.262-.252-.421-.291-.255-.062-.371.11-.253.344.106.212.248.407.359.618.109.21.259.28.55.16zM31.86 22.24l1.221-1.366-.256.05-.109-.368c-.17.16-.312.255-.403.387-.16.23-.27.494-.43.723-.155.22-.141.407-.023.574zm-.476-1.58c-.67-.031-1.24.506-1.194 1.127.555-.086 1.06-.562 1.194-1.127zm-3.434 1.577c.124-.166.134-.354-.024-.577-.173-.246-.288-.532-.458-.781-.067-.099-.206-.17-.326-.2-.042-.011-.125.14-.204.236l-.207-.037 1.219 1.359zM25.903 37.87c.461.187.643.119.889-.26.097-.149.236-.28.382-.386.133-.096.3-.145.453-.216l.007-.09c-.115-.042-.252-.147-.34-.116-.572.205-1.019.583-1.391 1.068zm8.027.013c-.386-.452-.784-.815-1.3-1.047-.214-.097-.343-.054-.423.106.275.222.583.396.788.652.302.377.378.442.935.289zm-8.58 1.872c.223-.288.1-.503-.131-.605a19.604 19.604 0 00-1.545-.575c-.073-.025-.202.026-.264.085-.061.058-.07.17-.103.258.097.034.191.085.29.097.117.015.238-.005.358-.008.246-.007.496-.02.513.352.465-.22.695.038.882.396zm9.995-.392c.011-.374.26-.364.506-.356.141.004.286.027.422.003.084-.015.155-.102.231-.156-.094-.104-.224-.314-.277-.296a18.94 18.94 0 00-1.72.656c-.206.092-.236.313-.049.547.187-.386.43-.617.887-.398zm4.383 5.94c.155-.099.352-.16.415-.285.04-.083-.083-.294-.187-.39a1.636 1.636 0 00-.55-.336c-.144-.05-.324.005-.488.014.044.142.07.293.139.423.064.122.16.237.265.326.11.094.25.155.406.247zm-19.659-.008c.148-.074.282-.109.37-.193.142-.132.264-.29.37-.452.058-.09.067-.21.098-.318-.13-.03-.281-.12-.384-.08-.24.09-.473.22-.674.38-.107.084-.228.306-.187.387.065.126.262.185.407.276zm11.175-22.732l.965-2.063c-.948.321-1.361 1.32-.965 2.063zm-2.67.016c.37-.811-.089-1.877-.96-2.045l.96 2.045zm-1.007-3.86c.7.113 1.665-.332 1.746-.975-.671-.125-1.575.35-1.746.976zm4.694.001c-.295-.686-1.12-1.12-1.778-.955.166.675 1.073 1.05 1.778.955zm7.713 25.126c0 .008-.002.016-.004.024-.108 0-.219-.015-.323.005-.073.014-.164.063-.195.123-.022.043.025.163.074.192.325.187.645.399.995.525.27.097.355-.178.429-.378.08-.218-.051-.329-.243-.37-.242-.05-.488-.082-.733-.121zm-21.137.333c.01.32.25.617.427.542.357-.15.702-.338 1.026-.55.144-.094.118-.293-.09-.288-.398.01-.796.066-1.191.126-.077.012-.136.133-.172.17zM32.79 23.617l.066.02c.115-.289.274-.568.338-.867.12-.564.33-1.032.975-1.203-.356-.161-.373-.18-.595.011-.336.29-.648.605-.964.917-.034.034-.039.12-.027.176.064.316.137.63.207.946zM31.068 17.3c-.413-.366-1.942-.362-2.308-.011.368.322 1.815.338 2.308.01zm-4.116 6.344l.071-.03c.071-.323.145-.646.211-.97.01-.047.003-.118-.026-.146-.326-.316-.646-.637-.99-.932-.211-.182-.247-.163-.556.01.58.16.815.567.926 1.11.067.33.24.64.364.958zm7.285 13.65l.051-.109c-.395-.547-.937-.914-1.519-1.245l-.219.73 1.687.623zm-7.205-1.366c-.568.36-1.132.702-1.554 1.332.676-.138 1.257-.307 1.761-.653l-.207-.679zm2.835-19.685l.078-.011c.13-.375.292-.743.377-1.128.033-.15-.065-.387-.184-.49-.094-.082-.367-.084-.462-.005-.121.101-.223.338-.191.485.087.392.25.767.382 1.149zm4.814 11.731l-1.066.083c-.002.492-.124 1.017.489 1.395l.577-1.478zm-8.98 1.47c.493-.334.623-.806.454-1.39l-1.034-.08.58 1.47zm8.313-3.94c-.788-.063-1.217-.548-1.523-1.221-.193.718.1 1.475.609 1.65.381.132.726-.02.914-.43zm-8.221.002c.155.525.854.574 1.177.273.355-.331.523-.983.336-1.474-.298.666-.736 1.14-1.513 1.2zm4.123.385c.653-.588.646-.884-.023-1.688-.628.912-.626 1.193.023 1.688zm-4.13-4.707c-.44-.646-.65-.71-1.151-.383-.496.323-.584.758-.234 1.302.26-.598.737-.867 1.385-.92zm8.207-.004c.672.053 1.16.322 1.42.936.43-.727.01-1.494-.788-1.52-.058-.002-.134.02-.171.059-.148.154-.283.32-.46.525zm-.962 18.278c.22.43.55.579.887.428.3-.135.443-.557.229-.901a3.102 3.102 0 00-.713-.784c-.21-.164-.484-.146-.632.08.275.16.573.275.786.478.116.111.159.395.102.555-.033.095-.323.1-.499.143-.04.01-.084.001-.16.001zm-5.97-1.11c-.277-.259-.399-.316-.633-.184-.406.23-.738.549-.845 1.024-.08.351.098.649.392.725.353.091.649-.077.777-.458l-.228.024c-.396.043-.6-.21-.409-.554.103-.184.299-.329.48-.45.116-.078.283-.081.467-.127zm.975-15.82c-.593.282-.6 1.433-.358 2.164.764-.749.869-1.367.358-2.164zm4.104 2.206c.247-.984.175-1.995-.376-2.196-.495.785-.423 1.223.376 2.196zM27.974 34.98c-.219.27-.407.49-.581.72-.203.269-.136.538.057.771.102.124.256.206.386.307.167-.228.346-.448.494-.688.04-.065.008-.194-.023-.281-.096-.263-.207-.52-.333-.83zm3.86-.002c-.126.309-.24.564-.332.826-.114.321.12.823.434.955a.198.198 0 00.12.013c.358-.102.585-.752.362-1.065-.167-.236-.361-.453-.585-.73zm-1.228-7.294c.412-.229.849-.456.863-.967.016-.6-.422-.972-.817-1.407-.147.387-.187.709.01 1.024.206.333.19.678.066 1.03-.038.108-.081.213-.122.32zm-2.514-2.68c-.139.727-.388 1.368-.802 1.941-.044.06-.046.187-.014.26.077.174.187.334.291.514.726-1.143 1.053-2.19.525-2.714zm5.27 22.846v-1.422l-.426.247-.325-.43c-.352.395-.352.395-.187.771l-.406.305 1.343.529zm-4.135-22.49l-.13-.021c-.335.446-.81.823-.762 1.468.023.313.51.78.902.905-.288-.521-.324-1.012-.03-1.55.115-.207.02-.53.02-.802zm-5.58 12.964c.4.167.767.346 1.164.023.122-.1.308-.122.435-.218.284-.216.55-.456.822-.687l-.077-.111c-.785.298-1.736.187-2.345.993zm3.8-3.027c.661-.825.807-1.353.194-2.047-.696.574-.762 1.266-.194 2.047zm4.265-10.286c-.537.512-.187 1.547.517 2.71.081-.13.17-.239.222-.363.05-.12.133-.303.083-.376a5.112 5.112 0 01-.822-1.971zm2.04 12.298c.295.595.802.775 1.25 1.054.431.268.764.117 1.161-.038-.613-.803-1.559-.7-2.412-1.016zm-1.605-4.061c-.556.693-.491 1.208.226 2.04.548-.844.47-1.54-.226-2.04zm-8.442-14.803c-.251-.368-.165-.675.014-.987.134-.234.265-.475.358-.727.127-.345.032-.56-.274-.778-.097.198-.19.402-.296.6-.139.257-.312.499-.43.766-.251.57-.042.96.628 1.126zm12.394-.005c.627-.134.845-.48.671-1.018-.05-.152-.137-.293-.214-.435-.189-.346-.382-.69-.57-1.031-.303.247-.384.457-.247.815.093.24.224.467.351.692.175.31.271.617.01.977zm-3.354 15.122c.7-.72.75-1.644.123-2.302-.752.928-.81 1.254-.123 2.302zm-5.686-.001c.695-1.023.623-1.43-.148-2.307-.593.887-.55 1.572.148 2.307zm2.852-9.742c.218-.396.443-.74.6-1.112.142-.334-.343-.918-.662-.841-.45.108-.703.593-.499 1.009.152.308.35.593.561.944zm-7.802-4.218c.1-.368.24-.694.269-1.03a3.48 3.48 0 00-.086-1.046c-.084-.373-.244-.73-.373-1.1-.485.097-.546.19-.403.68.027.094.048.194.099.274.244.39.266.81.218 1.252-.037.337.041.657.276.97zm15.74-3.182c-.06.25-.067.532-.192.745-.481.822-.217 1.608.053 2.43.227-.335.314-.68.259-1.06-.053-.364-.02-.71.169-1.037.07-.12.112-.258.152-.393.143-.487.076-.587-.44-.685zm-3.553 27.5a11.63 11.63 0 003.267.615c.341.014.4-.086.278-.453-1.023.02-2.024-.166-3.001-.467-.3-.093-.444-.02-.544.305zm-8.783.002c-.107-.314-.252-.44-.545-.303a1.7 1.7 0 01-.437.125c-.86.145-1.723.285-2.605.43-.05.265-.01.365.217.36 1.146-.023 2.257-.245 3.37-.612zm5.68-26.878c.2-.58.403-1.145.586-1.716.076-.239-.123-.33-.297-.39-.186-.063-.43-.11-.5.137-.164.585-.286 1.182-.425 1.775l.636.194zm-2.578.003l.59-.19c-.032-.229-.049-.434-.091-.634-.079-.37-.157-.743-.265-1.105-.078-.262-.304-.257-.513-.183-.183.065-.39.15-.302.415.186.562.382 1.12.58 1.697zm1.283 12.939l.528-.762c.03-.044.054-.093.082-.14.165-.266.148-.52-.086-.732-.296-.268-.698-.267-1.02-.017-.232.18-.279.456-.099.754.178.296.38.577.595.897zm-3.471 13.502c1.224-.668 2.103-1.615 2.822-2.767-.486-.05-.462-.029-.716.264-.448.515-.91 1.021-1.404 1.492-.27.259-.617.438-.944.663l.242.348zm4.18-2.78c.239.783 1.854 2.387 2.787 2.75l.236-.344a6.664 6.664 0 01-2.333-2.096c-.188-.268-.375-.392-.69-.31zm4.432-4.174c.64-.54 1.216-2.414 1.036-3.197l-.088-.026-.588 1.987-.092-.021v-1.03c-.335.016-.427.229-.438.501-.011.26-.037.523-.01.78.033.323.112.641.18 1.006zm-5.127-2.674c.765-1.044.754-1.59-.032-2.282-.775 1.067-.774 1.314.032 2.282zm-1.777 12.368c-.38.42-.38.42-.091.821.177.247.352.495.53.74.11.151.227.297.36.473l.637-1.123c.253-.448.247-.493-.12-.897l-.575.992-.741-1.006zM23.66 33.273c.17 1.173.202 2.317 1.046 3.255.302-.606.274-1.207.229-1.814-.021-.293-.15-.453-.446-.468v1.036l-.092.015c-.097-.338-.216-.672-.285-1.016-.069-.35-.122-.695-.452-1.008zm-2.85-3.163c-.41.25-.821.451-1.165.733-.165.135-.231.417-.291.645-.049.189.068.285.28.285.641 0 1.075-.344 1.428-.826.034-.047.027-.144.006-.206-.064-.182-.145-.357-.258-.63zm19.594 1.62c.324-.56-.367-1.276-1.446-1.521-.075.179-.157.354-.22.536a.292.292 0 00.008.208c.284.548 1.034.896 1.658.777zm-7.416-1.923c.114-.254.234-.492.329-.74.292-.767.14-1.241-.54-1.723-.577.804-.502 1.797.211 2.463zm-4.02 6.318a4.084 4.084 0 01-1.702 1.269c-.126.05-.218.202-.31.32-.106.137-.06.243.08.35.32.246.676.249 1.041-.034.618-.478.86-1.139.892-1.905zm-2.187-6.255c.671-.69.945-1.883.22-2.526-.31.326-.792.562-.637 1.137.12.444.263.881.417 1.39zm4.109 13.75c-.239.424-.419.807-.657 1.15-.253.363-.185.65.127.958l.581-.998.757 1.113c.093-.243.432-.34.238-.64-.33-.51-.669-1.012-1.046-1.583zm-.053-7.496c.02.641.182 1.238.666 1.69.19.177.434.322.68.408.258.09.76-.157.708-.304-.074-.212-.236-.466-.427-.551a4.327 4.327 0 01-1.627-1.243zm-.597-10.031h-.661c-.415.52-.478.963-.122 1.474.324.465.575.47.89.001.314-.465.365-.945-.107-1.475zm.735-3.506l-.158-.016c-.166.44-.362.872-.481 1.325-.045.17.045.413.149.575.197.309.448.583.686.883.22-.242.382-.51.31-.826-.148-.652-.335-1.295-.506-1.941zm-2.336 2.766c.243-.307.487-.584.69-.89.097-.144.194-.363.154-.511-.127-.47-.319-.922-.485-1.382l-.127.017c-.177.552-.378 1.098-.523 1.658-.102.39-.038.777.291 1.108zm-.22 5.96c-.897.942-.872 1.861.05 2.38.763-1.071.69-1.408-.05-2.38zm2.991.003c-.79.901-.795 1.657-.032 2.387.935-.836.888-1.458.032-2.387zm-2.105.555c.628-1.067.572-1.63-.241-2.578-.767.715-.663 1.894.24 2.578zm1.364-2.652c-.216.465-.535.878-.573 1.315-.038.44.205.903.335 1.393.983-.742 1.09-1.893.238-2.708zm-1.912 6.702c.927-.552 1.07-1.995.254-2.593-.828.856-.867 1.254-.254 2.593zm2.282.032c.61-1.378.564-1.849-.25-2.626-.796.635-.697 1.763.25 2.626zm-10.1-6.426c-.433-.074-.84-.145-1.247-.212a.217.217 0 00-.116.03c-.334.18-.674.352-.999.547-.386.232-.378.399.015.614a.902.902 0 00.21.084c.64.162 1.708-.262 2.047-.817.054-.087.072-.196.09-.246zm17.922.005c.048.09.097.248.199.357a2.22 2.22 0 001.555.734c.242.01.505-.1.731-.213.234-.115.227-.305-.003-.441-.375-.22-.757-.428-1.137-.639a.148.148 0 00-.089-.02c-.407.07-.813.143-1.256.222zM20.228 32.48c.804.176 1.903-.529 2.084-1.18.06-.218.01-.467.01-.69-1.078.239-1.774.826-2.094 1.87zm17.281-1.849c-.137.254-.113.546.04.805.398.674 1.009 1.026 1.786 1.094.191.017.264-.075.194-.258a2.531 2.531 0 00-.136-.294c-.404-.747-1.025-1.204-1.884-1.347zm-9.153-.88c.192-.29.377-.565.556-.845a.558.558 0 00.078-.208c.095-.6-.216-1.153-.788-1.41-.78.83-.748 1.37.154 2.463zm3.215-2.522c-.192.186-.396.335-.537.53-.24.33-.338.723-.16 1.103.149.315.381.59.575.88.93-1.046.964-1.498.122-2.513zm.703 2.013c-.927.885-.994 1.815-.173 2.527a2.71 2.71 0 00.84-1.328.406.406 0 00-.038-.297c-.197-.308-.417-.603-.629-.902zm-4.736-.007c-.22.31-.428.6-.63.896-.04.058-.088.144-.073.202.15.577.434 1.07.907 1.456.786-1.103.749-1.537-.204-2.554zm7.01-8.803c.402.14.66.297 1.038.129.262-.116.637-.062.938.01.347.085.508.092.61-.25.072-.242.082-.542.003-.777-.119-.356-.824-.448-1.06-.21-.23.232-.506.42-.773.612-.222.16-.46.298-.756.486zm-9.295-.002c-.275-.18-.477-.343-.704-.455-.325-.16-.65-.303-.833-.644-.028-.053-.117-.097-.182-.103-.317-.028-.642-.05-.85.266-.188.286-.148.715.084 1.005.118.149.225.181.44.115.306-.094.688-.176.965-.07.374.142.658.07 1.08-.114zm-2.612 10.543c-.59.707-.475 1.971.272 2.537.628-.57.8-1.667.416-2.377l-.688-.16zm13.83.162c-.368.865-.18 1.928.452 2.378.75-.731.836-1.962.23-2.538l-.682.16zm.552 5.674c.57-.55.83-2.818.459-3.641-.337.381-.33.38-.286.86.04.447.032.893-.207 1.316-.125-.452-.222-.907-.22-1.362.002-.33-.152-.502-.422-.735.143 1.244.131 2.44.676 3.562zm-13.57-3.58c-.277.276-.428.464-.415.81.016.434-.102.873-.162 1.31l-.137-.01c-.153-.44-.194-.9-.108-1.358.066-.354-.076-.595-.315-.835-.027.045-.055.07-.055.097-.003.801-.03 1.604.009 2.404.019.41.122.83.517 1.169.534-1.137.541-2.325.666-3.587zm6.464 4.83c.776-1.72.764-2.61-.026-3.28-.899 1.03-.693 1.892.026 3.28zM16.964 25.51c.247.99 1.882 1.498 2.928.942-.2-.34-.4-.679-.591-1-.395-.038-.796-.05-1.188-.12-.414-.074-.792-.039-1.15.178zm22.967.947c.994.556 2.654.046 2.917-.946-.312-.193-.65-.25-1.02-.204-.385.047-.773.069-1.16.113-.081.01-.194.046-.23.107-.18.303-.34.618-.507.93zm-.055 12.34c.031-.005.087-.008.137-.027a2.821 2.821 0 001.614-1.474c.064-.135.005-.421-.105-.522-.123-.114-.4-.181-.553-.122a2.905 2.905 0 00-1.571 1.44c-.173.346.09.715.478.705zM43.46 27.56c-.404-.584-.962-.78-1.634-.782-.712-.001-1.165.338-1.426.975.757.477 2.205.607 3.06-.193zm-24.064.183c-.286-.845-.958-1.021-1.733-.95-.545.05-1.013.274-1.307.77.826.708 2.258.774 3.04.18zm-.697 8.866c-.44-.005-.694.372-.512.73.33.65.85 1.117 1.521 1.405.222.095.458.102.627-.108.17-.21.155-.442.018-.667a3.464 3.464 0 00-1.366-1.27c-.103-.054-.226-.071-.288-.09zm5.075-6.047c-.068.238-.146.4-.157.567-.067.938 0 1.848.648 2.612.273.323.617.485 1.096.467-.596-1.176-.521-2.581-1.587-3.646zm4.838 7.576c-.11.095-.259.178-.34.305-.357.564-.84.987-1.4 1.342-.218.139-.415.334-.448.715.259-.096.507-.125.664-.26.36-.309.674-.669 1.006-1.008l.37-.377.128.082c-.135.284-.222.608-.417.843-.253.304-.585.546-.895.8-.288.234-.575.462-.637.906.13-.019.235-.023.335-.05.812-.214 1.28-.803 1.676-1.494.348-.607.416-1.186-.042-1.804zm4.796 2.31c-.093-.36-.31-.57-.565-.733-.483-.308-.911-.661-1.218-1.156-.106-.171-.289-.295-.453-.456-.13.304-.237.54-.33.78a.36.36 0 00-.01.219c.23.762.577 1.456 1.222 1.956.318.246.672.427 1.12.412-.08-.424-.361-.653-.646-.895-.355-.3-.711-.605-1.01-.956-.155-.181-.188-.466-.276-.704l.11-.059c.642.56.98 1.527 2.056 1.591zM25.08 25.9c-.354.402-.32 1.115.062 1.527.335.362.772.463 1.143.208.962-.66 1.393-1.64 1.655-2.77-.41.474-.755.938-1.166 1.332-.516.495-1.226.73-1.653-.263-.004-.008-.016-.014-.041-.034zm9.641-.012l-.093.16c-.349.633-.774.755-1.357.325-.328-.242-.597-.566-.875-.869-.163-.178-.292-.388-.436-.583.153 1.017.559 1.895 1.346 2.562.475.402.929.384 1.334-.029.402-.409.452-1.13.081-1.566zm1.258 4.724c-1.006 1.02-.94 2.424-1.535 3.606.51-.008.862-.176 1.138-.522.663-.833.69-1.8.59-2.79-.01-.098-.12-.186-.193-.294zm3.734-2.434c.263.481.497.945.997 1.189.598.291 1.207.49 1.876.24.17-.064.275-.17.142-.337-.225-.282-.422-.644-.722-.8-.702-.363-1.48-.43-2.293-.292zm-19.644 0c-.645-.137-1.271-.037-1.893.126-.429.112-.76.356-.985.742-.257.44-.215.536.29.638 1.05.212 2.15-.424 2.588-1.506zM43.3 22.962c-1.359.32-2.439 1.033-3.465 1.894 1.743.658 2.947.004 3.465-1.894zm-26.772.008c.358 1.806 1.762 2.573 3.444 1.878-1.037-.847-2.107-1.579-3.444-1.878zm10.649 22.865c.378-.44.377-.44.07-.868l-1.975-2.758c-.105-.147-.207-.297-.314-.45l.393-.33-1.32-.502v1.442l.469-.272 2.677 3.738zm7.354-15.658l-.615-.273c-.603.254-.768.742-.556 1.299.298.782.68 1.532 1.027 2.295l.099.012.775-2.39-.477.117-.253-1.06zm-10.143.914c.678.72.475 1.707 1.003 2.438.345-.725.678-1.395.983-2.078.316-.707.167-1.135-.475-1.547l-.613.266-.264 1.06-.634-.14zm4.314 9.43c.584.12.892-.2 1.194-.518.57.545.773.63 1.136.49-.735-.686-.782-.966-.328-1.882.082-.164.163-.334.207-.511.108-.429.04-.827-.247-1.189l-.707 1.79-.11-.003-.707-1.798c-.264.377-.372.772-.24 1.203.075.247.198.48.303.717.345.779.248 1.155-.5 1.702zm3.631 2.882l.064-.109c-.895-.889-1.904-1.68-2.496-2.928-.58 1.259-1.613 2.026-2.445 2.983.518-.188.998-.432 1.487-.658.109-.05.27-.086.37-.043.396.168.772.17 1.17.006.109-.045.28-.003.398.05.489.223.969.465 1.452.7zm-10.239-11.32c-.35.116-.409.316-.452.576a26.53 26.53 0 01-.405 1.938c-.051.21-.183.4-.279.599a79.314 79.314 0 00-.133-.035c.066-.44.107-.887.204-1.32.098-.438.252-.863.39-1.321-.994.32-1.762 3.355-1.101 4.193.724-.364 1.255-.891 1.424-1.71.094-.457.18-.916.235-1.378.06-.5.078-1.005.117-1.542zm15.674.008c-.118.738.2 2.87.506 3.495.266.544.73.857 1.23 1.149.6-1.044-.225-4.098-1.093-4.177.185.86.654 1.67.463 2.6-.096-.113-.19-.228-.223-.358-.175-.714-.358-1.428-.488-2.15-.047-.265-.12-.448-.395-.56zM17.552 20.363c-.488 1.57.995 3.857 2.525 4.118-.212-.69-.437-1.41-.65-2.131-.17-.57-.472-1.055-.936-1.418-.281-.22-.613-.375-.94-.569zm24.737.042c-.944.31-1.554.923-1.86 1.83-.258.761-.482 1.535-.709 2.266 1.67-.486 2.93-2.413 2.569-4.096zm-.77 14.35l-.096.058c-.1-.079-.22-.142-.297-.238-.4-.5-.805-.995-1.174-1.516-.292-.412-.27-.428-.768-.291.393.678.771 1.372 1.19 2.041.476.76 1.216 1.169 2.122 1.51-.054-.418-.07-.753-.144-1.075-.269-1.176-1.014-2.066-1.786-2.946-.262-.299-.557-.395-.997-.358.124.15.22.26.31.375.474.604.96 1.2 1.413 1.818.125.172.154.413.227.623zM20.24 31.94c-.53-.07-.845.138-1.103.48-.13.173-.288.326-.425.495-.576.716-1.087 1.47-1.273 2.39-.061.307-.072.624-.113 1.002.816-.287 1.494-.64 1.934-1.263.516-.729.93-1.53 1.384-2.29-.415-.155-.63.032-.847.387-.291.48-.668.908-1.023 1.346-.107.132-.266.223-.401.333l-.085-.06c.073-.21.103-.452.228-.623.454-.62.94-1.215 1.414-1.82.09-.114.185-.226.31-.377zm14.938-13.036c-.674.034-1.331.1-1.987.09-.662-.01-1.323-.097-1.984-.15l-.064.068.405.24c-.144.094-.228.15-.35.228.142.133.262.245.436.41l-1.067.53c.458.32 1.006.223 1.65-.299.02.098.04.193.06.301l.323-.103-.023.31.365-.075.045.286.985-.468.068.233c.703-.178 1.111-.776 1.138-1.6zm-10.554-.095c.059.992.52 1.625 1.17 1.668l.045-.204.985.464.042-.28.382.067-.037-.302.338.093.03-.308c.657.548 1.287.648 1.645.304l-1.049-.527.48-.391-.33-.198.333-.377c-1.38.14-2.692.382-4.034-.01zm-9.52 13.471l-.087-.116c.363-.33.692-.714 1.098-.979.525-.342 1.113-.588 1.671-.879.103-.053.199-.122.297-.184l-.04-.082c-.098.029-.2.05-.294.088-.886.36-1.777.71-2.656 1.087-1.178.504-1.862 1.458-2.317 2.606-.023.057-.018.124-.03.217.954.009 1.806-.234 2.523-.844.687-.585 1.35-1.2 2.024-1.8.322-.285.648-.566.972-.849-.02-.036-.038-.073-.057-.11-.088.037-.185.059-.263.11-.679.452-1.347.918-2.033 1.357-.248.159-.538.254-.809.378zm31.937 1.76c.008-.06.015-.082.013-.103a.351.351 0 00-.018-.096c-.437-1.131-1.102-2.078-2.244-2.592-.842-.379-1.707-.71-2.562-1.058-.157-.064-.32-.114-.48-.17l-.066.108c1.111.566 2.35.958 3.105 2.168-.2-.077-.327-.104-.43-.169a315.412 315.412 0 01-2.498-1.592c-.114-.073-.218-.213-.308.018.995.882 1.971 1.764 2.966 2.625.714.618 1.568.86 2.522.861zm-6.299-2.539l-.108.015c.022.144-.004.326.075.427a93.668 93.668 0 001.906 2.395c.555.672 1.274 1.05 2.186 1.128-.106-.978-.41-1.848-1.077-2.522-.732-.739-1.537-1.406-2.316-2.098a.387.387 0 00-.26-.082c-.212.016-.422.062-.733.112.187.182.312.334.467.447.552.402 1.134.767 1.664 1.195.293.237.506.572.754.863l-.082.079c-.953-.487-1.719-1.217-2.476-1.959zm-21.343-.65c-.233-.017-.363.003-.468-.04-.312-.126-.538-.002-.76.2-.613.553-1.263 1.07-1.838 1.66-.365.376-.66.835-.916 1.296-.25.45-.37.957-.402 1.508.969-.114 1.709-.526 2.28-1.262a93.9 93.9 0 011.771-2.214c.153-.185.14-.326.015-.52-.762.764-1.533 1.472-2.501 1.93.117-.247.243-.49.439-.646.627-.499 1.284-.96 1.922-1.447.15-.114.268-.27.458-.465zm-5.499-.233l-.028-.108c.916-.63 1.99-.918 3.02-1.318a.485.485 0 00-.284-.044c-.75.124-1.504.237-2.25.385-1.353.27-2.485.902-3.262 2.078-.076.115-.136.239-.218.383.09.018.14.032.19.037 1.136.128 2.165-.244 3.182-.675 1.079-.459 2.161-.91 3.241-1.365.022-.01.036-.037.058-.061-.576-.218-.574-.213-1.075-.019-.345.134-.688.277-1.044.37-.504.134-1.02.227-1.53.337zm35.046 1.387c-.511-.936-1.208-1.588-2.119-2.024-.918-.44-1.914-.556-2.902-.712-.33-.053-.661-.101-.992-.152l-.035.124c1.046.35 2.123.634 3.027 1.304a.924.924 0 01-.385-.006c-.801-.23-1.614-.434-2.394-.724-.367-.137-.59.057-.863.094 1.135.502 2.252 1.01 3.379 1.492 1.025.439 2.074.786 3.284.604zm1.413-2.817l.003-.107c-.977-.544-1.996-1.003-3.124-1.112-1.158-.113-2.323-.151-3.486-.208-.134-.006-.272.082-.408.126l.025.085c1.052.12 2.121.147 3.121.544-.515.03-1.029.067-1.535.02a9.099 9.099 0 01-1.634-.29c-.379-.107-.686.005-1.037.128.195.173.389.382.618.434 1.959.45 3.945.673 5.957.58.502-.022 1-.131 1.5-.2zm-40.924-.053c.085.03.144.062.207.073.278.05.556.112.836.137 2.136.196 4.237-.063 6.318-.513.269-.058.504-.267.755-.405a73.164 73.164 0 00-.05-.103c-.347-.086-.674-.142-1.06-.067-.84.162-1.699.23-2.551.322-.19.021-.387-.016-.58-.026 1.014-.422 2.079-.468 3.14-.618-.099-.087-.21-.189-.314-.181-2.282.167-4.646-.06-6.7 1.38zm6.954-1.984l-3.748-.496.009-.119c.127-.018.253-.047.38-.054 1.162-.06 2.305.065 3.437.325.196.045.415-.01.624-.019l-.006-.094c-1.645-.877-7.337-1.457-8.437-.84 1.186.765 2.425 1.388 3.825 1.521 1.123.107 2.26.055 3.391.085.262.007.441-.07.525-.31zm26.337-.485l-.009.093c.171.03.349.107.512.083.677-.097 1.346-.266 2.025-.328.628-.058 1.265-.013 1.898-.013l.01.158-3.745.49c.098.243.278.315.538.314.523-.003 1.045.044 1.567.047 1.083.006 2.153-.09 3.186-.445.865-.297 1.68-.696 2.426-1.254-2.882-.444-5.675-.084-8.408.855zM21.75 42.204c.395-.634.415-.8.167-1.197-.7-1.125-2.164-1.31-3.114-.389-.08.079-.129.191-.192.288l-.104-.096c.251-.76.497-1.524 1.46-1.766-.933-.3-1.559-.88-1.976-1.62l-.365 1.25c-.12.415-.277.825-.348 1.25-.196 1.18.314 2.13 1.042 3.003.177.213.308.463.466.693.033.049.086.118.131.12.446.009.892.012 1.337-.002.06-.002.17-.116.163-.161a.295.295 0 00-.165-.197c-.12-.04-.258-.029-.388-.037-.442-.026-.796-.193-1.014-.6-.305-.57-.238-1.202.194-1.733.365-.449 1.017-.64 1.597-.467.678.202 1.028.714 1.109 1.661zm18.136-3.175c.855.446 1.384 1.157 1.351 1.86-.086-.104-.142-.184-.21-.252-.907-.89-2.25-.795-3.027.213-.38.492-.363.829.061 1.306-.01-1.26.987-1.767 1.76-1.664.735.098 1.346.78 1.317 1.54-.024.633-.326 1.326-1.334 1.32-.044-.001-.096-.013-.13.005-.102.058-.198.129-.297.194.105.07.207.193.315.2.369.022.74.008 1.11-.005a.304.304 0 00.21-.104c.196-.269.356-.565.567-.82.918-1.113 1.27-2.327.753-3.729-.204-.553-.363-1.123-.53-1.648a3.32 3.32 0 01-1.916 1.584zm-9.005 9.249l4.43-6.185.47.284v-1.453l-1.326.505.397.334-3.923 5.483-2.01-3.625-2.035 3.062-.446-.263v1.434c.456-.18.88-.348 1.35-.532-.175-.135-.3-.231-.43-.333l1.512-2.276 2.011 3.565zm11.64-21.841c.643-.175 1.331-.367 2.023-.549 1.24-.326 2.498-.6 3.72-.984.99-.311 1.904-.813 2.595-1.628.14-.165.245-.358.406-.598-3.294-.013-6.143 1.263-9.127 2.351.315.116.532.207.756.272.084.024.19.007.277-.021.796-.26 1.583-.548 2.387-.78.486-.139.996-.19 1.495-.282l.026.11c-.275.126-.54.287-.826.372-.948.278-1.904.526-2.855.795-.132.037-.286.098-.367.198-.195.24-.353.509-.51.744zM8.646 22.678l-.062.084c.13.182.246.376.392.544.714.824 1.65 1.338 2.666 1.636 1.884.551 3.796 1.01 5.675 1.5-.15-.195-.352-.386-.46-.621-.101-.222-.24-.297-.457-.334-1.141-.194-2.254-.486-3.305-.983-.12-.057-.235-.124-.353-.187a.961.961 0 01.443-.028c1.178.145 2.274.574 3.383.96.107.037.235.08.337.054.233-.059.456-.158.78-.277-2.996-1.075-5.844-2.367-9.039-2.348zm38.843-2l.052.07c-.04.05-.076.102-.119.15-.152.17-.3.344-.46.506-1.012 1.021-2.27 1.668-3.526 2.322-.217.113-.376.335-.561.507l.071.083a8.674 8.674 0 002.31-.747c1.287-.614 2.488-1.35 3.461-2.405.833-.903.936-2.006.857-3.241-.293.137-.562.212-.768.369-.81.62-1.621 1.241-2.395 1.905-.84.723-1.621 1.515-2.467 2.231-.357.304-.427.685-.583 1.129 1.414-.992 2.609-2.172 4.128-2.88zm-31.05 2.874c-.133-.503-.289-.888-.673-1.208-.81-.675-1.545-1.437-2.345-2.123a56.114 56.114 0 00-2.418-1.929c-.205-.157-.473-.23-.731-.352-.03.104-.05.144-.053.184-.095 1.384.248 2.592 1.352 3.532a13.05 13.05 0 003.824 2.27c.472.18.973.282 1.461.42l.077-.108c-.178-.17-.332-.378-.537-.502-.408-.248-.85-.439-1.267-.674-1.01-.569-1.963-1.212-2.706-2.12-.056-.07-.105-.144-.157-.216 1.57.658 2.766 1.837 4.172 2.826zm-3.78-8.863c-.053.273-.102.483-.136.695-.186 1.174-.156 2.325.475 3.378 1.035 1.727 2.415 3.122 4.158 4.145.282.165.593.279.842.393-.232-.484-.466-.979-.708-1.469-.04-.082-.117-.15-.187-.213-.62-.563-1.258-1.105-1.857-1.689-.588-.573-.987-1.276-1.244-2.061 1.334.943 2.097 2.395 3.218 3.549.002-.248.028-.516-.075-.719-1.096-2.166-2.432-4.162-4.24-5.813-.062-.056-.13-.105-.245-.196zm33.187 3.2c-.102.222-.2.445-.306.665-.543 1.133-1.494 1.911-2.406 2.715-.346.305-.672.575-.803 1.052-.076.28-.307.518-.469.775-.04.065-.085.129-.127.194.518-.194 1.006-.413 1.445-.707a12.187 12.187 0 003.47-3.541c.654-1.005.832-2.107.682-3.275-.045-.347-.111-.691-.18-1.11l-.323.297c-1.743 1.607-3.038 3.542-4.11 5.635-.124.24-.13.54-.19.813l.097.028c1.081-1.168 1.845-2.62 3.22-3.54zM23.833 30.377c.268.187.526.379.795.553.168.108.298.051.327-.15.039-.274.06-.55.084-.783l.695-.22-.643-1.133c-.091.026-.183.056-.277.078-.681.155-1.359.184-2.017-.095-.382-.16-.514-.343-.41-.738.127-.489.313-.967.514-1.433.405-.936.291-1.385-.543-1.972-.77-.541-1.49-1.135-2.044-1.904-.161-.225-.296-.468-.474-.752-.189 1.479.267 2.635 1.431 3.52-.157-.013-.262-.08-.373-.095-.36-.05-.722-.099-1.085-.115-.273-.012-.314.15-.23.388.158.448.45.782.857 1.035-.32.092-.628.15-.909.27-.352.153-.392.299-.107.541.326.277.72.474 1.084.706-.28.265-.628.582-.605 1.205l1.397-.108c-.226.383-.318.813-.142 1.278.076.201.176.335.403.21.363-.197.718-.406 1.054-.598.049.157.105.396.197.62.08.197.233.293.438.141.208-.153.41-.314.583-.45zm16.15-8.447c-.405.494-.777 1.032-1.235 1.482-.47.462-1.025.838-1.544 1.25-.527.42-.647.94-.394 1.566.226.562.438 1.13.624 1.705.091.281-.05.512-.316.642a2.145 2.145 0 01-.456.171 3.629 3.629 0 01-1.946-.1l-.647 1.15.699.187c.026.258.047.525.084.79.027.197.149.27.322.159.277-.179.542-.376.797-.554.177.134.389.3.606.458.175.126.325.063.397-.112.1-.244.165-.503.22-.675.316.189.666.408 1.027.607.252.14.366-.004.445-.236.157-.462.044-.885-.196-1.337.506.188.964.276 1.441.097.015-.535-.35-.844-.695-1.19.515-.097.932-.28 1.237-.675.148-.192.148-.344-.082-.434-.32-.124-.65-.22-.957-.321.16-.151.39-.301.52-.512.152-.245.214-.545.315-.82-.296-.036-.595-.117-.886-.096-.266.02-.524.15-.786.231l-.074-.043c1.193-.862 1.658-2.012 1.48-3.39zm-1.435 21.814c-.071.044-.142.091-.215.132-.212.12-.315.262-.106.48-.212.123-.21.282-.092.464.207.32.724.502 1.153.346l-.817-.84c.168-.062.382-.115.565-.221.087-.05.116-.2.17-.305-.104-.032-.207-.084-.314-.09-.116-.008-.236.027-.354.043.564-.336 1.143-.62 1.821-.645.12-.004.235-.106.363-.168-.44-.58-1.037-.671-1.617-.292-.604.395-.814.352-1.148-.29-.25-.48-.441-.993-.697-1.47-.266-.498-.546-.994-.886-1.44-.12-.158-.437-.166-.664-.242l-.139.421c-.006.018-.02.034-.03.05-.697-.265-.755-.255-.9.164 1.975.603 2.616 2.284 3.23 4.01l.677-.107zm-17.301-.002l.691.106c.619-1.74 1.265-3.414 3.294-4.03-.113-.12-.198-.286-.283-.286-.232 0-.464.069-.695.11-.055-.451-.3-.58-.694-.339a.649.649 0 00-.217.235c-.421.77-.836 1.543-1.25 2.316-.128.239-.23.492-.372.722-.226.367-.443.411-.818.197a2.035 2.035 0 01-.247-.158c-.441-.346-1.21-.225-1.566.319.12.062.233.168.35.173.675.029 1.26.297 1.818.645-.097-.012-.196-.042-.29-.032-.126.014-.248.06-.372.091.08.114.134.27.243.334.166.098.37.133.495.175l-.793.833.079.101c.374-.004.736-.055 1.006-.372.162-.19.207-.381-.05-.535.16-.212.15-.308-.053-.442-.089-.06-.184-.109-.276-.163z"/></g></g></svg>