<svg xmlns="http://www.w3.org/2000/svg" width="41" height="40" fill="none"><circle cx="20.5" cy="20" r="20" fill="#006D5C"/><path fill="#fff" d="M19.565 20.778c0 1.1-.67 1.62-1.51 1.62h-.513v-.66h.473c.506 0 .844-.273.844-.96 0-.68-.32-1.02-.86-1.02-.519 0-.89.32-.89 1.007v2.758h-.7v-4.337h.7v.373h.1c.233-.313.578-.453.938-.453.772 0 1.418.56 1.418 1.672zm-4.598-.286l-.466-.047c-.366-.033-.56-.133-.56-.346 0-.253.247-.4.6-.4.367 0 .6.173.62.42h.673c-.027-.627-.514-1.013-1.286-1.013-.78 0-1.306.413-1.306 1.02 0 .506.32.832 1.046.905l.473.047c.286.027.48.087.48.36 0 .246-.18.426-.653.426-.436 0-.65-.198-.726-.462h-.728c.073.605.582 1.075 1.454 1.075.82 0 1.352-.433 1.352-1.073 0-.566-.373-.852-.973-.912zm7.307.91c-.11.252-.372.442-.744.442-.513 0-.893-.333-.893-1.052 0-.687.354-1.066.9-1.066.486 0 .766.293.793.732h-1.26v.507h1.946v-.333c0-.926-.613-1.526-1.486-1.526-.813 0-1.592.553-1.592 1.686 0 1.132.78 1.685 1.592 1.685.744 0 1.274-.458 1.439-1.075h-.695zm-11.028-2.296c-.766 0-1.339.4-1.405 1.013h.753c.053-.227.26-.393.652-.393.507 0 .673.266.673.593v1.099c-.286.326-.62.48-.952.48-.347 0-.587-.167-.587-.467 0-.286.187-.466.547-.466h.56v-.507h-.58c-.8 0-1.246.4-1.246 1.013 0 .573.433 1.006 1.146 1.006.4 0 .753-.16 1.012-.353h.1v.273h.7v-2.145c0-.793-.54-1.146-1.373-1.146zM6.5 22.397h.7V18h-.7v4.397zm2.938-3.211h-.853l-1.019 1.34v.419l1.046 1.452h.866l-1.226-1.665 1.186-1.546zm25.29 0l-.574 1.272c-.14.307-.273.607-.313.807h-.1c-.04-.2-.18-.493-.32-.8l-.573-1.28h-.773l1.346 2.886-.666 1.452h.746l1.999-4.337h-.773zm-2.807 0h-.853l-1.02 1.34v.419l1.047 1.452h.866l-1.226-1.665 1.186-1.546zm-4.38 1.306l-.467-.047c-.366-.033-.56-.133-.56-.346 0-.253.247-.4.6-.4.367 0 .6.173.62.42h.673c-.027-.627-.513-1.013-1.286-1.013-.78 0-1.306.413-1.306 1.02 0 .506.32.832 1.046.905l.473.047c.287.027.48.087.48.36 0 .246-.18.426-.653.426-.436 0-.65-.198-.726-.462h-.727c.072.605.58 1.075 1.453 1.075.82 0 1.352-.433 1.352-1.073 0-.566-.373-.852-.972-.912zm1.442 1.905h.7V18h-.7v4.397zM24.37 19.56h-.1v-.373h-.7v3.211h.7v-1.679c0-.573.264-.906.786-.906h.443v-.706h-.257c-.483 0-.69.182-.872.453z"/></svg>