<svg xmlns="http://www.w3.org/2000/svg" viewBox="0 0 40 40"><g data-name="лого игры"><circle cx="20" cy="20" r="20" fill="#7bcd46"/><path fill="#fff" d="M12.66 15.86h1.52v5.42c1-1.08 1.74-2 2.62-2.88s1-2.39 2.53-2.64c.47 1.27.56 6.08.17 8.32h-1.33v-5.59l-4.55 5.67-.73.08a27.63 27.63 0 01-.23-8.38zm-1.9.08l-.19 1.15c-1.26-.07-2.57-.27-3.4.8a3.8 3.8 0 00-.79 2C6.29 22.05 7.77 23 11.12 23L11 24.13c-2.3.31-4.44.44-5.88-1.72a4.2 4.2 0 01.1-4.76c.9-1.59 2.85-2.2 5.54-1.71zm24.86 7l-.38 1.12c-2.22.42-4.25.43-5.7-1.59a4.3 4.3 0 01.2-4.93c1.32-1.84 3.14-2.1 5.33-1.65l-.19.93c-3.35.34-4.4 1.23-4.19 3.48.18 1.97 1.58 2.77 4.93 2.64zm-10.41 1.19H24c-.43-2.28.06-4.58-.28-7l-2.56-.39.24-.94h6.33l.15.91-2.27.38c-.49 2.37.07 4.74-.4 7.04z"/></g></svg>