<svg xmlns="http://www.w3.org/2000/svg" xmlns:xlink="http://www.w3.org/1999/xlink" width="40" height="40"><defs><path id="world-of-warships__a" d="M0 .054h18.674V25H0z"/></defs><g fill="none" fill-rule="evenodd" transform="translate(-307 -114)"><rect width="40" height="40" x="307" y="114" fill="#4C77A0" fill-rule="nonzero" rx="20" transform="rotate(90 327 134)"/><rect width="40" height="40" x="307" y="114" fill="#007C9E" fill-rule="nonzero" rx="20" transform="rotate(90 327 134)"/><g transform="translate(318 121.947)"><mask id="world-of-warships__b" fill="#fff"><use xlink:href="#world-of-warships__a"/></mask><path fill="#FFF" d="M17.529 18.968V3.25c-1.148-.661-2.28-1.326-3.428-1.964-.18-.1-.43-.103-.648-.104-2.744-.006-5.487-.005-8.232-.001-.197 0-.427-.016-.588.073-1.184.657-2.354 1.339-3.485 1.988v15.734l8.186 4.72 8.195-4.73zM-.001 2.603C1.402 1.795 2.788.987 4.186.2c.18-.103.422-.14.636-.14C7.834.05 10.846.052 13.859.059c.193 0 .412.025.575.117 1.417.799 2.823 1.616 4.24 2.432V19.61L9.333 25A48364.41 48364.41 0 010 19.616V2.603z" mask="url(#world-of-warships__b)"/></g><path fill="#FFF" d="M320.249 140.267v-7.973l3.288 1.902v3.986l1.956 1.131v-7.074c-1.418-.14-2.358-1.214-3.599-1.688v-1.83h3.601v-1.127c-.498-.43-1.053-.91-1.642-1.422v-1.867h6.938v1.886l-1.626 1.395v1.125h3.595v1.8c-1.182.534-2.162 1.552-3.605 1.732v7.072l1.958-1.124v-3.989l3.301-1.905v7.968l-7.08 4.086c-2.351-1.355-4.704-2.71-7.085-4.084"/></g></svg>