<svg xmlns="http://www.w3.org/2000/svg" viewBox="0 0 40 40"><rect width="1429" height="1687.5" x="-323.32" y="-905.83" fill="none" stroke="#ffb3ce" stroke-miterlimit="10" stroke-width="2.82" rx="54.76"/><g data-name="лого игры"><rect width="40" height="40" fill="#e6a42f" rx="20"/><path fill="#fff" d="M27 30.31a12.42 12.42 0 01-11.7 1.25 12.4 12.4 0 01-6.9-6.93A11.92 11.92 0 017.5 20a12.2 12.2 0 011.66-6.26 12.39 12.39 0 016.93-5.65 12.51 12.51 0 0111.76 2.15 12.26 12.26 0 014.51 7.92 11.73 11.73 0 01-.24 4.84 4.31 4.31 0 01-4.41 3.3 3.86 3.86 0 01-2.94-1.52l-.26-.34c-.26.21-.49.41-.74.6a6.3 6.3 0 112.45-5.89c.11 1 .06 1.94.08 2.9a1.69 1.69 0 001.16 1.7 1.64 1.64 0 002-.88A6.17 6.17 0 0030 21a9.84 9.84 0 00-3.44-8.61 9.56 9.56 0 00-5.11-2.32A10 10 0 1020 30a9.44 9.44 0 005-1.36c.31-.19.48-.17.7.12.42.52.87 1.02 1.3 1.55zm-7-14.14A3.8 3.8 0 0016.2 20a3.8 3.8 0 107.6 0 3.79 3.79 0 00-3.8-3.83z"/></g></svg>