<svg xmlns="http://www.w3.org/2000/svg" xmlns:xlink="http://www.w3.org/1999/xlink" width="60" height="60"><defs><path id="strelka__a" d="M29.703 59.405c16.404 0 29.702-13.298 29.702-29.702C59.405 13.298 46.107 0 29.703 0 13.298 0 0 13.298 0 29.703c0 16.404 13.298 29.702 29.703 29.702z"/></defs><g fill="none" fill-rule="evenodd"><mask id="strelka__b" fill="#fff"><use xlink:href="#strelka__a"/></mask><use fill="#1C3B6B" xlink:href="#strelka__a"/><g mask="url(#strelka__b)"><path fill="#FFF" d="M26.292 20.728v2.55l7.271 5.96-7.27 6.183v2.588l10.346-8.8z"/><path fill="#FFF" d="M29.46 44.755c-8.535 0-15.479-6.885-15.479-15.348 0-8.464 6.944-15.349 15.479-15.349 5.48 0 10.305 2.84 13.056 7.113l-.001-.001c.396-.565.832-1.1 1.303-1.602a17.494 17.494 0 00-14.358-7.474C19.832 12.094 12 19.86 12 29.407c0 9.546 7.832 17.313 17.46 17.313a17.49 17.49 0 0014.27-7.35 14.706 14.706 0 01-1.289-1.614 15.51 15.51 0 01-12.981 7m14.298-5.392l-.028.04.028-.04m.06-19.796l.001.003-.001-.003"/><path fill="#D32A33" d="M43.73 39.37a17.118 17.118 0 003.19-9.963 17.12 17.12 0 00-3.102-9.839 14.532 14.532 0 00-1.303 1.602 15.164 15.164 0 012.423 8.237c0 3.077-.918 5.944-2.497 8.35.392.567.823 1.106 1.29 1.613"/></g></g></svg>