<svg xmlns="http://www.w3.org/2000/svg" width="80" height="80"><defs><linearGradient id="netprint__a" x1="48.749%" x2="50.845%" y1="-25.921%" y2="124.866%"><stop offset="0%" stop-color="#A42280"/><stop offset="68%" stop-color="#96247B"/><stop offset="100%" stop-color="#291139"/></linearGradient><linearGradient id="netprint__b" x1="46.266%" x2="56.567%" y1="175.797%" y2="-44.669%"><stop offset="0%" stop-color="#575756"/><stop offset="66%" stop-color="#FFF"/><stop offset="92%" stop-color="#3B3B3A"/><stop offset="100%" stop-color="#6F6F6E"/></linearGradient></defs><g fill="none" fill-rule="evenodd"><circle cx="40" cy="40" r="40" fill="#F3F3F3"/><path fill="url(#netprint__a)" d="M.771 14.534L15.898.653a.917.917 0 011.246.059l10.322 11.212a.917.917 0 01-.06 1.245l-8.957 8.187c-1.008.89-1.305.712-1.66.712H7.533c-1.187 0-1.305-.297-1.72-.712L.712 15.839c-.297-.415-.297-.95.06-1.305z" transform="translate(5 29)"/><path fill="#D0ABD1" d="M21.432 50.534c-.949-.593-.89-.593-1.483-1.068 0 0-2.017-1.839-2.729-2.432-.474-.415-.949-.475-1.72.356l-1.958 1.957c-1.957 1.958-2.432 1.009-2.728.831 0 0 .355.415.83.653.297.177.771.177 1.364.177h8.365c.593 0 1.186-.059 1.66-.355-.058.059-.948.296-1.6-.12z"/><path fill="#FFF" d="M22.975 50.712c-.178.119-.416.178-.712.178-.475-.06-.95-.06-2.314-1.246-.712-.593-2.847-2.491-2.847-2.491-.356-.297-.83-.475-1.602.474-.415.356-1.008.95-1.898 1.898-1.958 1.958-2.373 1.128-2.788.712 0 0 .237.297.533.534.238.178.356.297.95.297.711 0 4.864-.06 7.593-.06.83 0 1.483.06 1.898.06h.356c.119 0 .297-.06.475-.119.118-.06.237-.178.356-.237z"/><path fill="#6F6F6E" d="M22.797 50.83c-.297.178-.772.12-.95.06-.533-.119-.83-.178-1.839-1.009a89.089 89.089 0 01-3.084-2.728c-.356-.297-.653-.178-1.009.178l-2.373 2.372c-.593.594-1.601 1.483-2.373.89 0 0 .416.415.89.415 2.136 0 7.89.06 9.848 0 .593.06.89-.177.89-.177z"/><path fill="#FFF" d="M22.737 50.89c-.296.118-.77.118-1.127.06-.593-.12-1.068-.475-1.839-1.069-1.008-.83-1.957-1.72-2.847-2.55-.356-.297-.534-.238-1.068.296l-2.254 2.254c-.89.89-1.661 1.365-2.255.95 0 0 .475.355 1.009.237 2.017-.237 7.297.06 9.491.06.534-.06.89-.238.89-.238z"/><path fill="url(#netprint__b)" d="M17.619 21.95c-.356.118-.772.118-1.187.058-.771-.177-1.186-.474-1.601-.89-.95-.89-2.017-1.779-2.848-2.49-.356-.297-.415-.475-1.127.177-.653.653-1.187 1.127-2.195 2.195-.593.593-1.661 1.424-2.373.83 0 0 .297.297.771.297h9.966c.475-.06.594-.178.594-.178z" transform="translate(5 29)"/><g fill-rule="nonzero"><path fill="#FFF" d="M11.347 39.085h2.077l-.119.89c.297-.356.653-.594 1.009-.83a2.508 2.508 0 011.186-.297c.653 0 1.127.178 1.424.474.296.297.474.771.474 1.305 0 .238 0 .475-.059.712l-.593 3.5h-2.314l.534-3.085c0-.118.06-.237.06-.415s-.06-.356-.12-.474c-.118-.12-.236-.178-.533-.178-.356 0-.593.118-.771.296-.178.237-.297.475-.356.89l-.534 2.966h-2.314l.95-5.754zm10.856 2.254v-.178a.762.762 0 00-.237-.593.762.762 0 00-.593-.237c-.356 0-.653.118-.83.296-.238.178-.357.416-.416.712h2.076zm-2.254 1.187v.237c0 .296.119.474.297.652.178.178.415.238.712.238.178 0 .356-.06.534-.119.178-.06.296-.237.415-.356h2.195c-.178.356-.356.653-.653.89-.237.237-.534.415-.89.593-.296.178-.652.237-1.008.297s-.712.118-1.009.118a3.45 3.45 0 01-1.127-.178c-.356-.118-.652-.237-.89-.474a1.927 1.927 0 01-.593-.771c-.118-.297-.237-.653-.237-1.009v-.296c0-.12 0-.178.06-.297.059-.475.237-.89.474-1.305.237-.415.534-.712.89-1.009.356-.296.712-.474 1.127-.652.415-.119.89-.237 1.305-.237.474 0 .89.059 1.246.178.356.118.652.296.89.533.237.238.415.534.533.89.119.356.178.712.178 1.127 0 .238 0 .534-.059.83h-4.39v.12zm8.305 2.372c-.237 0-.474 0-.712.06h-.593c-.356 0-.652 0-.89-.06a7.1 7.1 0 01-.593-.178.608.608 0 01-.296-.355c-.06-.12-.06-.297-.06-.534v-.475c0-.178.06-.356.06-.534l.415-2.432h-.83l.237-1.305h.83l.297-1.78h2.254l-.297 1.78h1.246l-.237 1.305h-1.127l-.356 2.076c0 .06 0 .119-.06.178v.178c0 .119.06.237.119.297.06.06.237.06.475.06h.356l-.238 1.72z"/><path fill="#191918" d="M36.678 40.568c.297 0 .593-.06.771-.178.237-.119.356-.356.415-.712v-.119c0-.178-.059-.296-.118-.355-.06-.06-.178-.178-.297-.178-.118-.06-.237-.06-.415-.12h-1.187l-.296 1.78h1.127v-.118zm-4.45 4.33l1.365-7.949h3.856c1.009 0 1.78.178 2.254.594.475.355.712.89.712 1.542v.237c0 .06 0 .178-.06.297-.058.415-.177.83-.414 1.186a2.217 2.217 0 01-.771.89c-.297.237-.712.415-1.128.534-.415.119-.949.178-1.542.178h-1.246l-.415 2.491h-2.61zm8.603-5.813l-1.009 5.813h2.314l.356-2.017c.118-.652.296-1.067.593-1.305.296-.237.652-.356 1.127-.356h.237c.06 0 .178 0 .237.06l.416-2.314h-.356c-.89 0-1.543.475-2.017 1.365l.178-1.187H40.83v-.06zm5.101-2.373h2.314l-.297 1.661h-2.313l.296-1.661zm-1.424 8.186l1.009-5.813h2.314l-1.009 5.813h-2.314zm4.153-5.813l-1.008 5.813h2.313l.534-2.966a2.02 2.02 0 01.356-.89c.178-.237.415-.296.771-.296.237 0 .415.06.534.178.119.119.119.296.119.474 0 .12 0 .238-.06.416l-.534 3.084H54l.593-3.5c.06-.237.06-.474.06-.711 0-.594-.178-1.009-.475-1.306-.297-.296-.771-.474-1.424-.474a2.7 2.7 0 00-1.186.297c-.356.177-.653.474-1.009.83l.178-.89h-2.076v-.06zm9.907 5.813c-.237 0-.475 0-.712.06h-.593c-.356 0-.653 0-.89-.06a7.469 7.469 0 01-.593-.178.608.608 0 01-.297-.355c-.06-.12-.06-.297-.06-.534v-.475c0-.178.06-.356.06-.534l.415-2.432h-.83l.237-1.305h.83l.297-1.78h2.254l-.296 1.78h1.127l-.237 1.305h-1.127l-.356 2.076c0 .06 0 .119-.06.178v.178c0 .119.06.237.119.297.06.06.237.06.475.06h.355l-.118 1.72zm.83 0h2.373l.415-2.254h-2.372l-.416 2.254zm4.272-5.813h2.076l-.178 1.186c.474-.89 1.127-1.364 2.017-1.364h.356l-.416 2.313c-.059 0-.178 0-.237-.059h-.237c-.475 0-.83.119-1.127.356-.297.237-.475.712-.593 1.305l-.356 2.017H62.66l1.009-5.754zm9.847 5.813l1.008-5.813h-2.313l-.475 2.788c-.059.475-.178.771-.356 1.008-.178.238-.415.356-.77.356-.238 0-.416-.059-.535-.118-.118-.119-.178-.297-.178-.534 0-.119 0-.237.06-.415l.534-3.144h-2.314l-.593 3.559c-.06.237-.06.474-.06.712 0 .593.178 1.008.475 1.305.297.296.712.415 1.246.415.237 0 .474 0 .652-.06.178 0 .416-.059.594-.177.178-.06.355-.178.533-.297.178-.118.356-.296.534-.474l-.118.83h2.076v.06z"/></g></g></svg>