<svg xmlns="http://www.w3.org/2000/svg" viewBox="0 0 40 40"><g fill="none"><circle cx="20" cy="20" r="20" fill="#D80027"/><g fill="#FFDA44"><path d="M10.946 12.172l1.726 5.312h5.586l-4.516 3.289 1.727 5.313-4.523-3.282-4.524 3.282 1.735-5.313-4.524-3.289h5.586zM23.711 30.976l-1.32-1.625-1.953.758 1.133-1.758-1.321-1.632 2.024.539 1.14-1.758.11 2.094 2.031.539-1.961.75zM26.336 26.211l.625-2-1.711-1.211 2.094-.031.617-2 .68 1.984 2.094-.024-1.68 1.25.672 1.985-1.711-1.211zM29.875 14.679l-.922 1.883 1.5 1.461-2.07-.297-.922 1.875-.359-2.062-2.078-.297 1.859-.977-.359-2.07 1.5 1.461zM23.766 8.976l-.156 2.086 1.945.789-2.039.5-.149 2.094-1.101-1.781-2.039.5 1.351-1.602-1.109-1.773 1.945.789z"/></g></g></svg>