<svg xmlns="http://www.w3.org/2000/svg" viewBox="0 0 40 40"><g fill="none"><circle cx="20" cy="20" r="20" fill="#F0F0F0"/><path fill="#0052B4" d="M4.134 7.824c-1.571 2.044-2.756 4.4-3.445 6.959h10.405l-6.959-6.959zm35.177 6.959c-.69-2.559-1.874-4.915-3.445-6.959l-6.959 6.959h10.404zm-38.622 10.435c.69 2.559 1.874 4.915 3.445 6.959l6.959-6.959h-10.404zm31.487-21.083c-2.044-1.571-4.4-2.756-6.959-3.445v10.404l6.959-6.959zm-24.353 31.731c2.044 1.571 4.4 2.756 6.959 3.445v-10.404l-6.959 6.959zm6.959-35.177c-2.559.69-4.915 1.874-6.959 3.445l6.959 6.959v-10.404zm10.435 38.622c2.559-.69 4.915-1.874 6.959-3.445l-6.959-6.959v10.404zm3.689-14.094l6.959 6.959c1.571-2.044 2.756-4.4 3.445-6.959h-10.404z"/><g fill="#D80027"><path d="M39.831 17.391h-17.222v-17.222c-.854-.111-1.725-.169-2.609-.169-.884 0-1.755.058-2.609.169v17.222h-17.222c-.111.854-.169 1.725-.169 2.609 0 .884.058 1.755.169 2.609h17.222v17.222c.854.111 1.724.169 2.609.169.884 0 1.755-.058 2.609-.169v-17.222h17.222c.111-.854.169-1.724.169-2.609 0-.884-.058-1.755-.169-2.609zM25.217 25.217l8.925 8.925c.41-.41.802-.839 1.176-1.284l-7.641-7.641h-2.46zm-10.435 0l-8.925 8.925c.41.41.839.802 1.284 1.176l7.641-7.641v-2.459zm0-10.435l-8.925-8.925c-.41.41-.802.839-1.176 1.284l7.641 7.641h2.459zm10.435 0l8.925-8.925c-.41-.41-.839-.802-1.284-1.176l-7.641 7.641v2.46z"/></g></g></svg>