<svg xmlns="http://www.w3.org/2000/svg" viewBox="0 0 40 40"><g fill="none"><circle cx="20" cy="20" r="20" fill="#0052B4"/><g fill="#FFDA44"><path d="M20.001 7.827l.647 1.992h2.095l-1.695 1.232.648 1.993-1.695-1.232-1.696 1.232.648-1.993-1.695-1.232h2.095zM11.392 11.392l1.867.951 1.482-1.481-.328 2.069 1.867.952-2.069.328-.328 2.069-.951-1.867-2.07.328 1.482-1.482zM7.827 20.001l1.993-.648v-2.095l1.231 1.695 1.993-.648-1.232 1.696 1.232 1.695-1.993-.648-1.231 1.695v-2.095zM11.392 28.609l.952-1.867-1.482-1.482 2.07.328.951-1.867.328 2.069 2.069.328-1.867.952.328 2.069-1.482-1.482zM20.001 32.174l-.648-1.992h-2.095l1.695-1.232-.648-1.993 1.696 1.232 1.695-1.232-.648 1.993 1.695 1.232h-2.095zM28.609 28.609l-1.867-.951-1.482 1.481.328-2.07-1.867-.951 2.069-.328.328-2.069.952 1.867 2.069-.328-1.482 1.482zM32.174 20.001l-1.992.647v2.095l-1.232-1.695-1.993.648 1.232-1.695-1.232-1.696 1.993.648 1.232-1.695v2.095zM28.609 11.392l-.951 1.867 1.481 1.482-2.07-.328-.951 1.867-.328-2.069-2.069-.328 1.867-.952-.328-2.069 1.482 1.482z"/></g></g></svg>