<svg xmlns="http://www.w3.org/2000/svg" viewBox="0 0 40 40"><g fill="none"><circle cx="20" cy="20" r="20" fill="#F0F0F0"/><g fill="#A2001D"><path d="M8.261 18.55l-2.174-3.944 2.174-3.882 2.174 3.882zM3.913 18.55l-2.174-3.944 2.174-3.882 2.174 3.882zM8.261 29.275l-2.174-3.944 2.174-3.882 2.174 3.882zM3.913 29.275l-2.174-3.944 2.174-3.882 2.174 3.882zM10.435 3.882l-.615-1.099c-1.104.654-2.139 1.411-3.093 2.259l1.535 2.784 2.174-3.944zm-2.174 28.292l-1.551 2.77c.953.848 1.988 1.607 3.091 2.262l.634-1.15-2.174-3.882z"/></g><path fill="#6DA544" d="M12.174 25.217v13.192c2.404 1.023 5.049 1.59 7.826 1.59 8.599 0 15.93-5.428 18.756-13.044l-26.582-1.739z"/><path fill="#A2001D" d="M38.756 26.956c.804-2.167 1.244-4.51 1.244-6.956 0-11.046-8.954-20-20-20-2.777 0-5.422.567-7.826 1.59v25.367h26.582z"/></g></svg>