<svg xmlns="http://www.w3.org/2000/svg" viewBox="0 0 40 40"><g fill="none"><circle cx="20" cy="20" r="20" fill="#F0F0F0"/><path fill="#D80027" d="M19.13 20h20.87c0-1.805-.241-3.554-.689-5.217h-20.181v5.217zm0-10.435h17.934c-1.224-1.998-2.79-3.764-4.615-5.217h-13.319v5.217zm.87 30.435c4.707 0 9.033-1.627 12.45-4.348h-24.899c3.416 2.721 7.743 4.348 12.45 4.348zm-17.065-9.565h34.129c.983-1.604 1.745-3.357 2.246-5.217h-38.622c.501 1.86 1.264 3.614 2.246 5.217z"/><path fill="#0052B4" fill-rule="nonzero" d="M9.264 3.123h1.823l-1.695 1.232.648 1.993-1.695-1.232-1.695 1.232.559-1.722c-1.493 1.243-2.801 2.7-3.879 4.323h.584l-1.079.784c-.168.28-.329.565-.484.855l.515 1.586-.961-.699c-.239.506-.458 1.024-.654 1.553l.568 1.747h2.095l-1.695 1.232.648 1.993-1.695-1.232-1.015.738c-.102.817-.155 1.649-.155 2.494h20v-20c-3.951 0-7.634 1.146-10.736 3.123zm.775 14.877l-1.695-1.232-1.695 1.232.648-1.993-1.695-1.232h2.095l.647-1.993.648 1.993h2.095l-1.695 1.232.648 1.993zm-.648-7.819l.648 1.993-1.695-1.232-1.695 1.232.648-1.993-1.695-1.232h2.095l.647-1.993.648 1.993h2.095l-1.695 1.232zm7.821 7.819l-1.695-1.232-1.695 1.232.648-1.993-1.695-1.232h2.095l.647-1.993.647 1.993h2.095l-1.695 1.232.648 1.993zm-.648-7.819l.648 1.993-1.695-1.232-1.695 1.232.648-1.993-1.695-1.232h2.095l.647-1.993.647 1.993h2.095l-1.695 1.232zm0-5.826l.648 1.993-1.695-1.232-1.695 1.232.648-1.993-1.695-1.232h2.095l.647-1.993.647 1.993h2.095l-1.695 1.232z"/></g></svg>