<svg xmlns="http://www.w3.org/2000/svg" viewBox="0 0 40 40"><g fill="none"><circle cx="20" cy="20" r="20" fill="#00AFCA"/><path fill="#FEC50C" d="M31.304 20.217h-22.609c0 1.561 1.359 2.826 2.92 2.826h-.094c0 1.561 1.265 2.826 2.826 2.826 0 1.561 1.265 2.826 2.826 2.826h5.652c1.561 0 2.826-1.265 2.826-2.826 1.561 0 2.826-1.265 2.826-2.826h-.094c1.561 0 2.92-1.265 2.92-2.826z"/><path fill="#00AFCA" d="M27.826 16.522c0 4.322-3.504 7.826-7.826 7.826-4.322 0-7.826-3.504-7.826-7.826"/><path fill="#FEC50C" d="M25.978 16.522l-2.443 1.149 1.301 2.365-2.652-.507-.337 2.679-1.847-1.97-1.848 1.97-.336-2.679-2.652.507 1.301-2.365-2.443-1.149 2.443-1.149-1.301-2.366 2.652.508.337-2.68 1.847 1.971 1.848-1.971.336 2.68 2.652-.508-1.301 2.366z"/></g></svg>